<svg width="90" height="28" viewBox="0 0 90 28" fill="none" xmlns="http://www.w3.org/2000/svg">
<g clip-path="url(#clip0_29_136)">
<mask id="mask0_29_136" style="mask-type:luminance" maskUnits="userSpaceOnUse" x="0" y="0" width="28" height="28">
<path d="M0 2C0 0.89543 0.89543 0 2 0H26C27.1046 0 28 0.89543 28 2V26C28 27.1046 27.1046 28 26 28H2C0.89543 28 0 27.1046 0 26V2Z" fill="white"/>
</mask>
<g mask="url(#mask0_29_136)">
<path d="M27.5 0.5V27.5H0.5V0.5H27.5Z" stroke="white"/>
</g>
<path d="M32.29 7V6.3232L32.9888 6.1914V1.41455L32.29 1.28271V0.601562H32.9888H35.2915C35.769 0.601562 36.1777 0.685061 36.5176 0.852051C36.8604 1.01904 37.1226 1.25195 37.3042 1.55078C37.4858 1.84668 37.5767 2.19385 37.5767 2.59229C37.5767 2.99072 37.4858 3.33936 37.3042 3.63818C37.1226 3.93408 36.8604 4.1641 36.5176 4.3281C36.1777 4.4922 35.769 4.5742 35.2915 4.5742H34.0962V6.1914L34.7949 6.3232V7H32.29ZM34.0962 3.71729H35.2915C35.6841 3.71729 35.9785 3.61182 36.1748 3.40088C36.3711 3.18994 36.4692 2.92334 36.4692 2.60107C36.4692 2.27295 36.3711 2.00049 36.1748 1.78369C35.9785 1.56689 35.6841 1.4585 35.2915 1.4585H34.0962V3.71729ZM41.1178 7.0923C40.6607 7.0923 40.2682 6.9897 39.94 6.7847C39.6119 6.5796 39.36 6.2954 39.1842 5.9321C39.0084 5.5659 38.9205 5.1455 38.9205 4.6709V4.5786C38.9205 4.1069 39.0084 3.68945 39.1842 3.32617C39.36 2.96289 39.6119 2.67725 39.94 2.46924C40.2682 2.26123 40.6578 2.15723 41.109 2.15723C41.566 2.15723 41.9586 2.26123 42.2867 2.46924C42.6148 2.67432 42.8668 2.9585 43.0426 3.32178C43.2184 3.68506 43.3063 4.104 43.3063 4.5786V4.6709C43.3063 5.1455 43.2184 5.5659 43.0426 5.9321C42.8668 6.2954 42.6148 6.5796 42.2867 6.7847C41.9615 6.9897 41.5719 7.0923 41.1178 7.0923ZM41.1178 6.2397C41.3639 6.2397 41.566 6.1738 41.7242 6.042C41.8854 5.9072 42.0055 5.7227 42.0846 5.4883C42.1637 5.251 42.2032 4.9785 42.2032 4.6709V4.5786C42.2032 4.2739 42.1637 4.0044 42.0846 3.77002C42.0055 3.53564 41.8854 3.35107 41.7242 3.21631C41.5631 3.08154 41.358 3.01416 41.109 3.01416C40.8658 3.01416 40.6637 3.08154 40.5025 3.21631C40.3414 3.35107 40.2213 3.53564 40.1422 3.77002C40.066 4.0044 40.0279 4.2739 40.0279 4.5786V4.6709C40.0279 4.9785 40.066 5.251 40.1422 5.4883C40.2213 5.7227 40.3414 5.9072 40.5025 6.042C40.6666 6.1738 40.8717 6.2397 41.1178 6.2397ZM46.2805 7L45.1115 3.01416L44.5534 2.92627V2.24512H46.7111V2.92627L46.175 3.02295L46.7067 5.0884L46.8166 5.5366H46.843L46.9968 5.0884L47.9943 2.24512H48.7985L49.7609 5.106L49.9235 5.6113H49.9499L50.1037 5.106L50.6794 3.02295L50.1081 2.92627V2.24512H52.2219V2.92627L51.677 3.01855L50.4597 7H49.4885L48.5788 4.4336L48.3942 3.80957H48.3679L48.1833 4.4336L47.2517 7H46.2805ZM55.7278 7.0923C55.2796 7.0923 54.8885 6.9927 54.5545 6.7935C54.2234 6.5913 53.9656 6.313 53.7811 5.9585C53.5994 5.604 53.5086 5.1982 53.5086 4.7412V4.5566C53.5086 4.0938 53.5979 3.68213 53.7767 3.32178C53.9583 2.96143 54.2073 2.67725 54.5237 2.46924C54.8401 2.26123 55.2005 2.15723 55.6048 2.15723C56.0354 2.15723 56.3958 2.24365 56.6858 2.4165C56.9788 2.58936 57.2 2.83545 57.3494 3.15479C57.4988 3.47119 57.5735 3.85205 57.5735 4.2974V4.9302H54.6556L54.6468 4.9521C54.6585 5.2012 54.7098 5.4224 54.8006 5.6157C54.8943 5.8091 55.0262 5.9614 55.1961 6.0728C55.3689 6.1841 55.5784 6.2397 55.8245 6.2397C56.0823 6.2397 56.3167 6.2046 56.5276 6.1343C56.7386 6.064 56.9334 5.9644 57.1121 5.8354L57.4593 6.5298C57.2718 6.688 57.033 6.8213 56.743 6.9297C56.4529 7.0381 56.1146 7.0923 55.7278 7.0923ZM54.6731 4.1523H56.5145V4.0381C56.5145 3.83008 56.4822 3.64844 56.4178 3.49316C56.3563 3.33496 56.2581 3.21191 56.1233 3.12402C55.9915 3.03613 55.823 2.99219 55.618 2.99219C55.4393 2.99219 55.2825 3.04199 55.1478 3.1416C55.013 3.24121 54.9046 3.37744 54.8226 3.55029C54.7435 3.72021 54.6893 3.91357 54.66 4.1304L54.6731 4.1523ZM59.1503 7V6.3232L59.8095 6.1914V3.05811L59.1151 2.92627V2.24512H60.829L60.8861 2.84277L60.8949 2.93945C61.0209 2.6875 61.1747 2.49414 61.3563 2.35938C61.5409 2.22461 61.7563 2.15723 62.0023 2.15723C62.0844 2.15723 62.1708 2.16455 62.2616 2.1792C62.3554 2.19385 62.4315 2.20996 62.4901 2.22754L62.3627 3.25146L61.7431 3.21631C61.5409 3.20459 61.3739 3.24414 61.2421 3.33496C61.1132 3.42578 61.0048 3.55176 60.9169 3.71289V6.1914L61.5761 6.3232V7H59.1503ZM65.9829 7.0923C65.5347 7.0923 65.1436 6.9927 64.8096 6.7935C64.4785 6.5913 64.2207 6.313 64.0361 5.9585C63.8545 5.604 63.7637 5.1982 63.7637 4.7412V4.5566C63.7637 4.0938 63.853 3.68213 64.0317 3.32178C64.2134 2.96143 64.4624 2.67725 64.7788 2.46924C65.0952 2.26123 65.4556 2.15723 65.8599 2.15723C66.2905 2.15723 66.6509 2.24365 66.9409 2.4165C67.2339 2.58936 67.4551 2.83545 67.6045 3.15479C67.7539 3.47119 67.8286 3.85205 67.8286 4.2974V4.9302H64.9106L64.9019 4.9521C64.9136 5.2012 64.9648 5.4224 65.0557 5.6157C65.1494 5.8091 65.2812 5.9614 65.4512 6.0728C65.624 6.1841 65.8335 6.2397 66.0796 6.2397C66.3374 6.2397 66.5718 6.2046 66.7827 6.1343C66.9937 6.064 67.1885 5.9644 67.3672 5.8354L67.7144 6.5298C67.5269 6.688 67.2881 6.8213 66.998 6.9297C66.708 7.0381 66.3696 7.0923 65.9829 7.0923ZM64.9282 4.1523H66.7695V4.0381C66.7695 3.83008 66.7373 3.64844 66.6729 3.49316C66.6113 3.33496 66.5132 3.21191 66.3784 3.12402C66.2466 3.03613 66.0781 2.99219 65.873 2.99219C65.6943 2.99219 65.5376 3.04199 65.4028 3.1416C65.2681 3.24121 65.1597 3.37744 65.0776 3.55029C64.9985 3.72021 64.9443 3.91357 64.915 4.1304L64.9282 4.1523ZM71.273 7.0923C70.8893 7.0923 70.5611 6.9956 70.2887 6.8022C70.0162 6.6089 69.8067 6.3394 69.6603 5.9937C69.5167 5.645 69.4449 5.2393 69.4449 4.7764V4.6841C69.4449 4.1772 69.5167 3.73486 69.6603 3.35693C69.8067 2.979 70.0162 2.68457 70.2887 2.47363C70.5641 2.2627 70.8907 2.15723 71.2687 2.15723C71.5411 2.15723 71.7784 2.20996 71.9806 2.31543C72.1856 2.41797 72.3614 2.56592 72.5079 2.75928V0.957521L71.8092 0.825681V0.144531H72.5079H73.6153V6.1914L74.2745 6.3232V7H72.6573L72.5694 6.4243C72.42 6.644 72.2369 6.811 72.0201 6.9253C71.8063 7.0366 71.5572 7.0923 71.273 7.0923ZM71.5851 6.2178C71.796 6.2178 71.9776 6.1724 72.13 6.0815C72.2823 5.9878 72.4083 5.853 72.5079 5.6772V3.58105C72.4112 3.41113 72.2853 3.27783 72.13 3.18115C71.9776 3.08154 71.7989 3.03174 71.5938 3.03174C71.3536 3.03174 71.1559 3.10205 71.0006 3.24268C70.8482 3.38037 70.7355 3.57373 70.6622 3.82275C70.589 4.0688 70.5523 4.356 70.5523 4.6841V4.7764C70.5523 5.2158 70.6329 5.5659 70.794 5.8267C70.9581 6.0874 71.2218 6.2178 71.5851 6.2178ZM81.4578 7.0923C81.159 7.0923 80.9012 7.0337 80.6844 6.9165C80.4676 6.7993 80.2859 6.6294 80.1395 6.4067L80.0516 7H79.0979V0.957521L78.3992 0.825681V0.144531H80.201V2.77686C80.3445 2.57471 80.5203 2.4209 80.7283 2.31543C80.9393 2.20996 81.1839 2.15723 81.4622 2.15723C81.8519 2.15723 82.1814 2.2627 82.451 2.47363C82.7234 2.68164 82.9314 2.97461 83.075 3.35254C83.2186 3.73047 83.2903 4.1743 83.2903 4.6841V4.7764C83.2903 5.2393 83.2186 5.645 83.075 5.9937C82.9314 6.3423 82.7234 6.6133 82.451 6.8066C82.1785 6.9971 81.8475 7.0923 81.4578 7.0923ZM81.1414 6.2178C81.5047 6.2178 81.7684 6.0903 81.9324 5.8354C82.0994 5.5776 82.1829 5.2246 82.1829 4.7764V4.6841C82.1829 4.3501 82.1463 4.0601 82.073 3.81396C81.9998 3.56494 81.887 3.37305 81.7347 3.23828C81.5823 3.10059 81.386 3.03174 81.1458 3.03174C80.9231 3.03174 80.7327 3.08594 80.5745 3.19434C80.4192 3.2998 80.2947 3.44336 80.201 3.625V5.6553C80.2977 5.834 80.4236 5.9731 80.5789 6.0728C80.7371 6.1694 80.9246 6.2178 81.1414 6.2178ZM85.9437 8.9204C85.8529 8.9204 85.7475 8.9116 85.6273 8.894C85.5102 8.8765 85.4076 8.8545 85.3197 8.8281L85.4428 7.9976C85.4955 8.0063 85.5585 8.0137 85.6317 8.0195C85.7079 8.0254 85.768 8.0283 85.8119 8.0283C85.9965 8.0283 86.1518 7.9697 86.2777 7.8525C86.4037 7.7383 86.5062 7.5786 86.5854 7.3735L86.7304 6.9912L85.1044 3.00537L84.5507 2.92627V2.24512H86.8534V2.92627L86.2689 3.01416L87.0951 5.229L87.2401 5.6421H87.2665L88.2421 3.00977L87.6576 2.92627V2.24512H89.8417V2.92627L89.3275 3.00098L87.4862 7.7163C87.3983 7.939 87.2885 8.1411 87.1566 8.3228C87.0277 8.5073 86.8637 8.6523 86.6645 8.7578C86.4682 8.8662 86.2279 8.9204 85.9437 8.9204Z" fill="white"/>
<path d="M32 28V10H44.4283V28H32ZM42.7234 16.069H43.8388V14.2531H39.2339V16.069H40.7317V20.4018H40.668L35.4417 14.2531H32.6214V16.069H33.9121V22.7912H32.7967V24.6071H37.3378V22.7912H35.9038V18.0442H35.9675L41.5284 24.623L42.7234 24.6071V16.069ZM45.6993 28V10H54.0963V28H45.6993ZM46.9421 17.9327L46.6234 19.7965L48.2646 19.9717L48.5355 18.9522C48.7055 18.8673 48.8754 18.8141 49.0453 18.7929C49.226 18.7611 49.4225 18.7451 49.6349 18.7451C50.2192 18.7451 50.5591 18.9204 50.6548 19.2708C50.7609 19.6212 50.814 19.9823 50.814 20.354V20.5929C50.4848 20.5504 50.0917 20.5292 49.6349 20.5292C48.817 20.5292 48.0522 20.6726 47.3404 20.9593C46.6393 21.246 46.2888 21.8301 46.2888 22.7115C46.2888 23.4655 46.5278 23.9965 47.0058 24.3044C47.4838 24.6124 47.9832 24.7664 48.5036 24.7664C49.0879 24.7664 49.5659 24.6177 49.9376 24.3204C50.32 24.023 50.6122 23.6938 50.814 23.3327V23.3487C50.9202 24.2938 51.4461 24.7664 52.3915 24.7664C52.8376 24.7664 53.2678 24.6549 53.6822 24.4319L53.6661 23.3487C53.56 23.3805 53.459 23.3965 53.3634 23.3965C53.0342 23.3965 52.8695 23.2106 52.8695 22.8389V19.7168C52.8695 18.8991 52.588 18.2885 52.0251 17.885C51.462 17.4814 50.7928 17.2796 50.0173 17.2796C49.4331 17.2796 48.9285 17.3274 48.5036 17.423C48.0893 17.5079 47.5689 17.6779 46.9421 17.9327ZM50.814 21.6761C50.7609 22.2389 50.575 22.6531 50.2563 22.9186C49.9483 23.1735 49.6137 23.3009 49.2525 23.3009C48.9445 23.3009 48.7267 23.2212 48.5992 23.0619C48.4717 22.9027 48.408 22.7062 48.408 22.4726C48.408 22.0796 48.5461 21.8195 48.8223 21.692C49.0985 21.5539 49.4172 21.485 49.7783 21.485C49.9483 21.485 50.1183 21.4956 50.2883 21.5168C50.4688 21.538 50.6441 21.5593 50.814 21.5805V21.6761ZM55.3529 28V10H69.6455V28H55.3529ZM66.2676 24.6071H69.279V23.0619H68.323V19.7646C68.323 18.9151 68.0733 18.2885 67.5741 17.885C67.0749 17.4814 66.5013 17.2796 65.8533 17.2796C64.7167 17.2796 63.9359 17.7947 63.511 18.8248C63.341 18.3044 63.0383 17.9168 62.6028 17.6619C62.1673 17.4071 61.6893 17.2796 61.1687 17.2796C60.1702 17.2796 59.4426 17.6885 58.9858 18.5062V17.423H55.9903V18.9841H56.9304V23.0619H55.9743V24.6071H60.3561V23.0619H58.9858V20.5451C58.9858 20.0461 59.0921 19.6372 59.3045 19.3186C59.5169 19 59.8728 18.8407 60.3721 18.8407C60.7757 18.8407 61.0784 18.9734 61.2803 19.2389C61.4927 19.5045 61.599 19.9451 61.599 20.5611V24.6071H64.6104V23.0619H63.6544V20.5451C63.6544 20.0461 63.7607 19.6372 63.9731 19.3186C64.1962 19 64.552 18.8407 65.0407 18.8407C65.4443 18.8407 65.747 18.9734 65.9489 19.2389C66.1613 19.5045 66.2676 19.9451 66.2676 20.5611V24.6071ZM70.9039 28V10H78.9026V28H70.9039ZM78.4405 22.3451L76.7197 22.0265C76.6773 22.2389 76.5551 22.4778 76.3532 22.7434C76.162 23.0089 75.7903 23.1416 75.2379 23.1416C74.2288 23.1416 73.6658 22.5734 73.5489 21.4372H78.2653C78.3397 21.0974 78.3768 20.7522 78.3768 20.4018C78.3663 19.4672 78.0476 18.7133 77.4208 18.1398C76.8048 17.5664 75.9974 17.2796 74.9989 17.2796C73.8623 17.2796 72.9753 17.6513 72.3379 18.3947C71.7112 19.1274 71.3978 20.0461 71.3978 21.1504C71.3978 22.3504 71.7431 23.2531 72.4335 23.8584C73.1346 24.4637 74.0216 24.7664 75.0945 24.7664C76.1249 24.7664 76.9268 24.5222 77.5005 24.0336C78.0741 23.5451 78.3875 22.9823 78.4405 22.3451ZM76.2576 20.2425H73.5648C73.6286 19.7965 73.7773 19.4354 74.011 19.1593C74.2447 18.8832 74.574 18.7451 74.9989 18.7451C75.4875 18.7451 75.8274 18.9044 76.0186 19.223C76.2205 19.5416 76.3001 19.8814 76.2576 20.2425ZM80.1529 28V10H90V28H80.1529ZM86.5264 18.9841V23.046H85.5704V24.6071H89.5379V23.046H88.5819V17.423H83.7699V16.292C83.7699 15.9841 83.8549 15.6974 84.0248 15.4319C84.2055 15.1663 84.6091 15.0336 85.2358 15.0336C85.5439 15.0336 85.8041 15.0655 86.0166 15.1292C86.2396 15.1823 86.3884 15.2195 86.4627 15.2407L86.7654 16.2602L88.3588 16.085L88.0401 14.1416C87.5728 13.8974 87.0895 13.7274 86.5902 13.6319C86.0909 13.5363 85.6395 13.4885 85.2358 13.4885C84.078 13.4885 83.2017 13.7752 82.6067 14.3487C82.0119 14.9221 81.7144 15.5805 81.7144 16.3239V17.423H80.8381V18.9841H81.7144V23.046H80.7584V24.6071H84.9649V23.046H83.7699V18.9841H86.5264Z" fill="white"/>
<path d="M9.5995 7.0009L10.9992 9.8002H6.7993V21.0009H4V7.0009H9.5995Z" fill="white"/>
<path d="M6.79999 18.2007H11.0007V7H13.8V21H8.19969L6.79999 18.2007Z" fill="white"/>
<path d="M23.6005 14.5781L17.1799 20.9988H15.2V19.0181L21.6198 12.5983H23.6005V14.5781Z" fill="white"/>
<path d="M18.7017 14.1176V15.5736L19.4221 14.8379L23.6005 19.0164V20.9971H21.6207L15.2 14.5764V12.5966H17.1807L18.7017 14.1176Z" fill="white"/>
</g>
<defs>
<clipPath id="clip0_29_136">
<rect width="90" height="28" fill="white"/>
</clipPath>
</defs>
</svg>
