<svg width="104" height="40" viewBox="0 0 104 40" fill="none" xmlns="http://www.w3.org/2000/svg">
<rect width="104" height="40" rx="4" fill="#09090B" fill-opacity="0.7"/>
<g clip-path="url(#clip0_5261_39170)">
<path d="M6 8C6 6.89543 6.89543 6 8 6H32C33.1046 6 34 6.89543 34 8V32C34 33.1046 33.1046 34 32 34H8C6.89543 34 6 33.1046 6 32V8Z" fill="#4F46E5"/>
<rect width="28" height="28" transform="translate(6 6)" fill="#4F46E5"/>
<path d="M15.8866 13.0009L17.2863 15.8002H13.0864V27.0009H10.2871V13.0009H15.8866Z" fill="white"/>
<path d="M13.0871 24.2007L17.2878 24.2007L17.2878 13L20.0871 13L20.0871 27H14.4868L13.0871 24.2007Z" fill="white"/>
<path d="M29.8876 20.5781L23.467 26.9988H21.4871V25.0181L27.9069 18.5983H29.8876V20.5781Z" fill="white"/>
<path d="M24.9888 20.1176V21.5736L25.7092 20.8379L29.8876 25.0164V26.9971H27.9078L21.4871 20.5764V18.5966H23.4678L24.9888 20.1176Z" fill="white"/>
</g>
<path d="M40.29 13V12.3232L40.9888 12.1914V7.41455L40.29 7.28271V6.60156H40.9888H43.2915C43.769 6.60156 44.1777 6.68506 44.5176 6.85205C44.8604 7.01904 45.1226 7.25195 45.3042 7.55078C45.4858 7.84668 45.5767 8.19385 45.5767 8.59229C45.5767 8.99072 45.4858 9.33936 45.3042 9.63818C45.1226 9.93408 44.8604 10.1641 44.5176 10.3281C44.1777 10.4922 43.769 10.5742 43.2915 10.5742H42.0962V12.1914L42.7949 12.3232V13H40.29ZM42.0962 9.71729H43.2915C43.6841 9.71729 43.9785 9.61182 44.1748 9.40088C44.3711 9.18994 44.4692 8.92334 44.4692 8.60107C44.4692 8.27295 44.3711 8.00049 44.1748 7.78369C43.9785 7.56689 43.6841 7.4585 43.2915 7.4585H42.0962V9.71729ZM49.1178 13.0923C48.6607 13.0923 48.2682 12.9897 47.94 12.7847C47.6119 12.5796 47.36 12.2954 47.1842 11.9321C47.0084 11.5659 46.9205 11.1455 46.9205 10.6709V10.5786C46.9205 10.1069 47.0084 9.68945 47.1842 9.32617C47.36 8.96289 47.6119 8.67725 47.94 8.46924C48.2682 8.26123 48.6578 8.15723 49.109 8.15723C49.566 8.15723 49.9586 8.26123 50.2867 8.46924C50.6148 8.67432 50.8668 8.9585 51.0426 9.32178C51.2184 9.68506 51.3063 10.104 51.3063 10.5786V10.6709C51.3063 11.1455 51.2184 11.5659 51.0426 11.9321C50.8668 12.2954 50.6148 12.5796 50.2867 12.7847C49.9615 12.9897 49.5719 13.0923 49.1178 13.0923ZM49.1178 12.2397C49.3639 12.2397 49.566 12.1738 49.7242 12.042C49.8854 11.9072 50.0055 11.7227 50.0846 11.4883C50.1637 11.251 50.2032 10.9785 50.2032 10.6709V10.5786C50.2032 10.2739 50.1637 10.0044 50.0846 9.77002C50.0055 9.53564 49.8854 9.35107 49.7242 9.21631C49.5631 9.08154 49.358 9.01416 49.109 9.01416C48.8658 9.01416 48.6637 9.08154 48.5025 9.21631C48.3414 9.35107 48.2213 9.53564 48.1422 9.77002C48.066 10.0044 48.0279 10.2739 48.0279 10.5786V10.6709C48.0279 10.9785 48.066 11.251 48.1422 11.4883C48.2213 11.7227 48.3414 11.9072 48.5025 12.042C48.6666 12.1738 48.8717 12.2397 49.1178 12.2397ZM54.2805 13L53.1115 9.01416L52.5534 8.92627V8.24512H54.7111V8.92627L54.175 9.02295L54.7067 11.0884L54.8166 11.5366H54.843L54.9968 11.0884L55.9943 8.24512H56.7985L57.7609 11.106L57.9235 11.6113H57.9499L58.1037 11.106L58.6794 9.02295L58.1081 8.92627V8.24512H60.2219V8.92627L59.677 9.01855L58.4597 13H57.4885L56.5788 10.4336L56.3942 9.80957H56.3679L56.1833 10.4336L55.2517 13H54.2805ZM63.7278 13.0923C63.2796 13.0923 62.8885 12.9927 62.5545 12.7935C62.2234 12.5913 61.9656 12.313 61.7811 11.9585C61.5994 11.604 61.5086 11.1982 61.5086 10.7412V10.5566C61.5086 10.0938 61.5979 9.68213 61.7767 9.32178C61.9583 8.96143 62.2073 8.67725 62.5237 8.46924C62.8401 8.26123 63.2005 8.15723 63.6048 8.15723C64.0354 8.15723 64.3958 8.24365 64.6858 8.4165C64.9788 8.58936 65.2 8.83545 65.3494 9.15479C65.4988 9.47119 65.5735 9.85205 65.5735 10.2974V10.9302H62.6556L62.6468 10.9521C62.6585 11.2012 62.7098 11.4224 62.8006 11.6157C62.8943 11.8091 63.0262 11.9614 63.1961 12.0728C63.3689 12.1841 63.5784 12.2397 63.8245 12.2397C64.0823 12.2397 64.3167 12.2046 64.5276 12.1343C64.7386 12.064 64.9334 11.9644 65.1121 11.8354L65.4593 12.5298C65.2718 12.688 65.033 12.8213 64.743 12.9297C64.4529 13.0381 64.1146 13.0923 63.7278 13.0923ZM62.6731 10.1523H64.5145V10.0381C64.5145 9.83008 64.4822 9.64844 64.4178 9.49316C64.3563 9.33496 64.2581 9.21191 64.1233 9.12402C63.9915 9.03613 63.823 8.99219 63.618 8.99219C63.4393 8.99219 63.2825 9.04199 63.1478 9.1416C63.013 9.24121 62.9046 9.37744 62.8226 9.55029C62.7435 9.72021 62.6893 9.91357 62.66 10.1304L62.6731 10.1523ZM67.1503 13V12.3232L67.8095 12.1914V9.05811L67.1151 8.92627V8.24512H68.829L68.8861 8.84277L68.8949 8.93945C69.0209 8.6875 69.1747 8.49414 69.3563 8.35938C69.5409 8.22461 69.7563 8.15723 70.0023 8.15723C70.0844 8.15723 70.1708 8.16455 70.2616 8.1792C70.3554 8.19385 70.4315 8.20996 70.4901 8.22754L70.3627 9.25146L69.7431 9.21631C69.5409 9.20459 69.3739 9.24414 69.2421 9.33496C69.1132 9.42578 69.0048 9.55176 68.9169 9.71289V12.1914L69.5761 12.3232V13H67.1503ZM73.9829 13.0923C73.5347 13.0923 73.1436 12.9927 72.8096 12.7935C72.4785 12.5913 72.2207 12.313 72.0361 11.9585C71.8545 11.604 71.7637 11.1982 71.7637 10.7412V10.5566C71.7637 10.0938 71.853 9.68213 72.0317 9.32178C72.2134 8.96143 72.4624 8.67725 72.7788 8.46924C73.0952 8.26123 73.4556 8.15723 73.8599 8.15723C74.2905 8.15723 74.6509 8.24365 74.9409 8.4165C75.2339 8.58936 75.4551 8.83545 75.6045 9.15479C75.7539 9.47119 75.8286 9.85205 75.8286 10.2974V10.9302H72.9106L72.9019 10.9521C72.9136 11.2012 72.9648 11.4224 73.0557 11.6157C73.1494 11.8091 73.2812 11.9614 73.4512 12.0728C73.624 12.1841 73.8335 12.2397 74.0796 12.2397C74.3374 12.2397 74.5718 12.2046 74.7827 12.1343C74.9937 12.064 75.1885 11.9644 75.3672 11.8354L75.7144 12.5298C75.5269 12.688 75.2881 12.8213 74.998 12.9297C74.708 13.0381 74.3696 13.0923 73.9829 13.0923ZM72.9282 10.1523H74.7695V10.0381C74.7695 9.83008 74.7373 9.64844 74.6729 9.49316C74.6113 9.33496 74.5132 9.21191 74.3784 9.12402C74.2466 9.03613 74.0781 8.99219 73.873 8.99219C73.6943 8.99219 73.5376 9.04199 73.4028 9.1416C73.2681 9.24121 73.1597 9.37744 73.0776 9.55029C72.9985 9.72021 72.9443 9.91357 72.915 10.1304L72.9282 10.1523ZM79.273 13.0923C78.8893 13.0923 78.5611 12.9956 78.2887 12.8022C78.0162 12.6089 77.8067 12.3394 77.6603 11.9937C77.5167 11.645 77.4449 11.2393 77.4449 10.7764V10.6841C77.4449 10.1772 77.5167 9.73486 77.6603 9.35693C77.8067 8.979 78.0162 8.68457 78.2887 8.47363C78.5641 8.2627 78.8907 8.15723 79.2687 8.15723C79.5411 8.15723 79.7784 8.20996 79.9806 8.31543C80.1856 8.41797 80.3614 8.56592 80.5079 8.75928V6.95752L79.8092 6.82568V6.14453H80.5079H81.6153V12.1914L82.2745 12.3232V13H80.6573L80.5694 12.4243C80.42 12.644 80.2369 12.811 80.0201 12.9253C79.8063 13.0366 79.5572 13.0923 79.273 13.0923ZM79.5851 12.2178C79.796 12.2178 79.9776 12.1724 80.13 12.0815C80.2823 11.9878 80.4083 11.853 80.5079 11.6772V9.58105C80.4112 9.41113 80.2853 9.27783 80.13 9.18115C79.9776 9.08154 79.7989 9.03174 79.5938 9.03174C79.3536 9.03174 79.1559 9.10205 79.0006 9.24268C78.8482 9.38037 78.7355 9.57373 78.6622 9.82275C78.589 10.0688 78.5523 10.356 78.5523 10.6841V10.7764C78.5523 11.2158 78.6329 11.5659 78.794 11.8267C78.9581 12.0874 79.2218 12.2178 79.5851 12.2178ZM89.4578 13.0923C89.159 13.0923 88.9012 13.0337 88.6844 12.9165C88.4676 12.7993 88.2859 12.6294 88.1395 12.4067L88.0516 13H87.0979V6.95752L86.3992 6.82568V6.14453H88.201V8.77686C88.3445 8.57471 88.5203 8.4209 88.7283 8.31543C88.9393 8.20996 89.1839 8.15723 89.4622 8.15723C89.8519 8.15723 90.1814 8.2627 90.451 8.47363C90.7234 8.68164 90.9314 8.97461 91.075 9.35254C91.2186 9.73047 91.2903 10.1743 91.2903 10.6841V10.7764C91.2903 11.2393 91.2186 11.645 91.075 11.9937C90.9314 12.3423 90.7234 12.6133 90.451 12.8066C90.1785 12.9971 89.8475 13.0923 89.4578 13.0923ZM89.1414 12.2178C89.5047 12.2178 89.7684 12.0903 89.9324 11.8354C90.0994 11.5776 90.1829 11.2246 90.1829 10.7764V10.6841C90.1829 10.3501 90.1463 10.0601 90.073 9.81396C89.9998 9.56494 89.887 9.37305 89.7347 9.23828C89.5823 9.10059 89.386 9.03174 89.1458 9.03174C88.9231 9.03174 88.7327 9.08594 88.5745 9.19434C88.4192 9.2998 88.2947 9.44336 88.201 9.625V11.6553C88.2977 11.834 88.4236 11.9731 88.5789 12.0728C88.7371 12.1694 88.9246 12.2178 89.1414 12.2178ZM93.9437 14.9204C93.8529 14.9204 93.7475 14.9116 93.6273 14.894C93.5102 14.8765 93.4076 14.8545 93.3197 14.8281L93.4428 13.9976C93.4955 14.0063 93.5585 14.0137 93.6317 14.0195C93.7079 14.0254 93.768 14.0283 93.8119 14.0283C93.9965 14.0283 94.1518 13.9697 94.2777 13.8525C94.4037 13.7383 94.5062 13.5786 94.5854 13.3735L94.7304 12.9912L93.1044 9.00537L92.5507 8.92627V8.24512H94.8534V8.92627L94.2689 9.01416L95.0951 11.229L95.2401 11.6421H95.2665L96.2421 9.00977L95.6576 8.92627V8.24512H97.8417V8.92627L97.3275 9.00098L95.4862 13.7163C95.3983 13.939 95.2885 14.1411 95.1566 14.3228C95.0277 14.5073 94.8637 14.6523 94.6645 14.7578C94.4682 14.8662 94.2279 14.9204 93.9437 14.9204Z" fill="#F5FCF9" fill-opacity="0.82"/>
<path d="M39.89 35.408V17.328H52.37V35.408H39.89ZM50.658 23.424H51.778V21.6H47.154V23.424H48.658V27.776H48.594L43.346 21.6H40.514V23.424H41.81V30.176H40.69V32H45.25V30.176H43.81V25.408H43.874L49.458 32.016L50.658 32V23.424ZM53.6462 35.408V17.328H62.0782V35.408H53.6462ZM54.8942 25.296L54.5742 27.168L56.2222 27.344L56.4942 26.32C56.6649 26.2347 56.8356 26.1813 57.0062 26.16C57.1876 26.128 57.3849 26.112 57.5982 26.112C58.1849 26.112 58.5263 26.288 58.6223 26.64C58.7289 26.992 58.7822 27.3547 58.7822 27.728V27.968C58.4516 27.9253 58.0569 27.904 57.5982 27.904C56.7769 27.904 56.0089 28.048 55.2942 28.336C54.5902 28.624 54.2382 29.2107 54.2382 30.096C54.2382 30.8533 54.4782 31.3867 54.9582 31.696C55.4382 32.0053 55.9396 32.16 56.4622 32.16C57.0489 32.16 57.5289 32.0107 57.9022 31.712C58.2862 31.4133 58.5796 31.0827 58.7822 30.72V30.736C58.8889 31.6853 59.4169 32.16 60.3663 32.16C60.8142 32.16 61.2462 32.048 61.6623 31.824L61.6462 30.736C61.5396 30.768 61.4382 30.784 61.3422 30.784C61.0116 30.784 60.8463 30.5973 60.8463 30.224V27.088C60.8463 26.2667 60.5636 25.6533 59.9983 25.248C59.4329 24.8427 58.7609 24.64 57.9822 24.64C57.3956 24.64 56.8889 24.688 56.4622 24.784C56.0462 24.8693 55.5236 25.04 54.8942 25.296ZM58.7822 29.056C58.7289 29.6213 58.5422 30.0373 58.2222 30.304C57.9129 30.56 57.5769 30.688 57.2142 30.688C56.9049 30.688 56.6862 30.608 56.5582 30.448C56.4302 30.288 56.3662 30.0907 56.3662 29.856C56.3662 29.4613 56.5049 29.2 56.7822 29.072C57.0596 28.9333 57.3796 28.864 57.7422 28.864C57.9129 28.864 58.0836 28.8747 58.2543 28.896C58.4356 28.9173 58.6116 28.9387 58.7822 28.96V29.056ZM63.34 35.408V17.328H77.692V35.408H63.34ZM74.3 32H77.324V30.448H76.364V27.136C76.364 26.2827 76.1133 25.6533 75.612 25.248C75.1107 24.8427 74.5347 24.64 73.884 24.64C72.7427 24.64 71.9587 25.1573 71.532 26.192C71.3613 25.6693 71.0573 25.28 70.62 25.024C70.1827 24.768 69.7027 24.64 69.18 24.64C68.1773 24.64 67.4467 25.0507 66.988 25.872V24.784H63.98V26.352H64.924V30.448H63.964V32H68.364V30.448H66.988V27.92C66.988 27.4187 67.0947 27.008 67.308 26.688C67.5213 26.368 67.8787 26.208 68.38 26.208C68.7853 26.208 69.0893 26.3413 69.292 26.608C69.5053 26.8747 69.612 27.3173 69.612 27.936V32H72.636V30.448H71.676V27.92C71.676 27.4187 71.7827 27.008 71.996 26.688C72.22 26.368 72.5773 26.208 73.068 26.208C73.4733 26.208 73.7773 26.3413 73.98 26.608C74.1933 26.8747 74.3 27.3173 74.3 27.936V32ZM78.9556 35.408V17.328H86.9876V35.408H78.9556ZM86.5236 29.728L84.7956 29.408C84.753 29.6213 84.6303 29.8613 84.4276 30.128C84.2356 30.3947 83.8623 30.528 83.3076 30.528C82.2943 30.528 81.729 29.9573 81.6116 28.816H86.3476C86.4223 28.4747 86.4596 28.128 86.4596 27.776C86.449 26.8373 86.129 26.08 85.4996 25.504C84.881 24.928 84.0703 24.64 83.0676 24.64C81.9263 24.64 81.0356 25.0133 80.3956 25.76C79.7663 26.496 79.4516 27.4187 79.4516 28.528C79.4516 29.7333 79.7983 30.64 80.4916 31.248C81.1956 31.856 82.0863 32.16 83.1636 32.16C84.1983 32.16 85.0036 31.9147 85.5796 31.424C86.1556 30.9333 86.4703 30.368 86.5236 29.728ZM84.3316 27.616H81.6276C81.6916 27.168 81.841 26.8053 82.0756 26.528C82.3103 26.2507 82.641 26.112 83.0676 26.112C83.5583 26.112 83.8996 26.272 84.0916 26.592C84.2943 26.912 84.3743 27.2533 84.3316 27.616ZM88.2431 35.408V17.328H98.1311V35.408H88.2431ZM94.6431 26.352V30.432H93.6831V32H97.6671V30.432H96.7071V24.784H91.8751V23.648C91.8751 23.3387 91.9605 23.0507 92.1311 22.784C92.3125 22.5173 92.7178 22.384 93.3471 22.384C93.6565 22.384 93.9178 22.416 94.1311 22.48C94.3551 22.5333 94.5045 22.5707 94.5791 22.592L94.8831 23.616L96.4831 23.44L96.1631 21.488C95.6938 21.2427 95.2085 21.072 94.7071 20.976C94.2058 20.88 93.7525 20.832 93.3471 20.832C92.1845 20.832 91.3045 21.12 90.7071 21.696C90.1098 22.272 89.8111 22.9333 89.8111 23.68V24.784H88.9311V26.352H89.8111V30.432H88.8511V32H93.0751V30.432H91.8751V26.352H94.6431Z" fill="#1CD17D"/>
<defs>
<clipPath id="clip0_5261_39170">
<path d="M6 8C6 6.89543 6.89543 6 8 6H32C33.1046 6 34 6.89543 34 8V32C34 33.1046 33.1046 34 32 34H8C6.89543 34 6 33.1046 6 32V8Z" fill="white"/>
</clipPath>
</defs>
</svg>
