<svg width="104" height="40" viewBox="0 0 104 40" fill="none" xmlns="http://www.w3.org/2000/svg">
<g clip-path="url(#clip0_29_136)">
<mask id="mask0_29_136" style="mask-type:luminance" maskUnits="userSpaceOnUse" x="6" y="6" width="28" height="28">
<path d="M6 8C6 6.89543 6.89543 6 8 6H32C33.1046 6 34 6.89543 34 8V32C34 33.1046 33.1046 34 32 34H8C6.89543 34 6 33.1046 6 32V8Z" fill="white"/>
</mask>
<g mask="url(#mask0_29_136)">
<path d="M33.5 6.5V33.5H6.5V6.5H33.5Z" stroke="white"/>
</g>
<path d="M40.29 13V12.3232L40.9888 12.1914V7.41455L40.29 7.28271V6.60156H40.9888H43.2915C43.769 6.60156 44.1777 6.68506 44.5176 6.85205C44.8604 7.01904 45.1226 7.25195 45.3042 7.55078C45.4858 7.84668 45.5767 8.19385 45.5767 8.59229C45.5767 8.99072 45.4858 9.33936 45.3042 9.63818C45.1226 9.93408 44.8604 10.1641 44.5176 10.3281C44.1777 10.4922 43.769 10.5742 43.2915 10.5742H42.0962V12.1914L42.7949 12.3232V13H40.29ZM42.0962 9.71729H43.2915C43.6841 9.71729 43.9785 9.61182 44.1748 9.40088C44.3711 9.18994 44.4692 8.92334 44.4692 8.60107C44.4692 8.27295 44.3711 8.00049 44.1748 7.78369C43.9785 7.56689 43.6841 7.4585 43.2915 7.4585H42.0962V9.71729ZM49.1178 13.0923C48.6607 13.0923 48.2682 12.9897 47.94 12.7847C47.6119 12.5796 47.36 12.2954 47.1842 11.9321C47.0084 11.5659 46.9205 11.1455 46.9205 10.6709V10.5786C46.9205 10.1069 47.0084 9.68945 47.1842 9.32617C47.36 8.96289 47.6119 8.67725 47.94 8.46924C48.2682 8.26123 48.6578 8.15723 49.109 8.15723C49.566 8.15723 49.9586 8.26123 50.2867 8.46924C50.6148 8.67432 50.8668 8.9585 51.0426 9.32178C51.2184 9.68506 51.3063 10.104 51.3063 10.5786V10.6709C51.3063 11.1455 51.2184 11.5659 51.0426 11.9321C50.8668 12.2954 50.6148 12.5796 50.2867 12.7847C49.9615 12.9897 49.5719 13.0923 49.1178 13.0923ZM49.1178 12.2397C49.3639 12.2397 49.566 12.1738 49.7242 12.042C49.8854 11.9072 50.0055 11.7227 50.0846 11.4883C50.1637 11.251 50.2032 10.9785 50.2032 10.6709V10.5786C50.2032 10.2739 50.1637 10.0044 50.0846 9.77002C50.0055 9.53564 49.8854 9.35107 49.7242 9.21631C49.5631 9.08154 49.358 9.01416 49.109 9.01416C48.8658 9.01416 48.6637 9.08154 48.5025 9.21631C48.3414 9.35107 48.2213 9.53564 48.1422 9.77002C48.066 10.0044 48.0279 10.2739 48.0279 10.5786V10.6709C48.0279 10.9785 48.066 11.251 48.1422 11.4883C48.2213 11.7227 48.3414 11.9072 48.5025 12.042C48.6666 12.1738 48.8717 12.2397 49.1178 12.2397ZM54.2805 13L53.1115 9.01416L52.5534 8.92627V8.24512H54.7111V8.92627L54.175 9.02295L54.7067 11.0884L54.8166 11.5366H54.843L54.9968 11.0884L55.9943 8.24512H56.7985L57.7609 11.106L57.9235 11.6113H57.9499L58.1037 11.106L58.6794 9.02295L58.1081 8.92627V8.24512H60.2219V8.92627L59.677 9.01855L58.4597 13H57.4885L56.5788 10.4336L56.3942 9.80957H56.3679L56.1833 10.4336L55.2517 13H54.2805ZM63.7278 13.0923C63.2796 13.0923 62.8885 12.9927 62.5545 12.7935C62.2234 12.5913 61.9656 12.313 61.7811 11.9585C61.5994 11.604 61.5086 11.1982 61.5086 10.7412V10.5566C61.5086 10.0938 61.5979 9.68213 61.7767 9.32178C61.9583 8.96143 62.2073 8.67725 62.5237 8.46924C62.8401 8.26123 63.2005 8.15723 63.6048 8.15723C64.0354 8.15723 64.3958 8.24365 64.6858 8.4165C64.9788 8.58936 65.2 8.83545 65.3494 9.15479C65.4988 9.47119 65.5735 9.85205 65.5735 10.2974V10.9302H62.6556L62.6468 10.9521C62.6585 11.2012 62.7098 11.4224 62.8006 11.6157C62.8943 11.8091 63.0262 11.9614 63.1961 12.0728C63.3689 12.1841 63.5784 12.2397 63.8245 12.2397C64.0823 12.2397 64.3167 12.2046 64.5276 12.1343C64.7386 12.064 64.9334 11.9644 65.1121 11.8354L65.4593 12.5298C65.2718 12.688 65.033 12.8213 64.743 12.9297C64.4529 13.0381 64.1146 13.0923 63.7278 13.0923ZM62.6731 10.1523H64.5145V10.0381C64.5145 9.83008 64.4822 9.64844 64.4178 9.49316C64.3563 9.33496 64.2581 9.21191 64.1233 9.12402C63.9915 9.03613 63.823 8.99219 63.618 8.99219C63.4393 8.99219 63.2825 9.04199 63.1478 9.1416C63.013 9.24121 62.9046 9.37744 62.8226 9.55029C62.7435 9.72021 62.6893 9.91357 62.66 10.1304L62.6731 10.1523ZM67.1503 13V12.3232L67.8095 12.1914V9.05811L67.1151 8.92627V8.24512H68.829L68.8861 8.84277L68.8949 8.93945C69.0209 8.6875 69.1747 8.49414 69.3563 8.35938C69.5409 8.22461 69.7563 8.15723 70.0023 8.15723C70.0844 8.15723 70.1708 8.16455 70.2616 8.1792C70.3554 8.19385 70.4315 8.20996 70.4901 8.22754L70.3627 9.25146L69.7431 9.21631C69.5409 9.20459 69.3739 9.24414 69.2421 9.33496C69.1132 9.42578 69.0048 9.55176 68.9169 9.71289V12.1914L69.5761 12.3232V13H67.1503ZM73.9829 13.0923C73.5347 13.0923 73.1436 12.9927 72.8096 12.7935C72.4785 12.5913 72.2207 12.313 72.0361 11.9585C71.8545 11.604 71.7637 11.1982 71.7637 10.7412V10.5566C71.7637 10.0938 71.853 9.68213 72.0317 9.32178C72.2134 8.96143 72.4624 8.67725 72.7788 8.46924C73.0952 8.26123 73.4556 8.15723 73.8599 8.15723C74.2905 8.15723 74.6509 8.24365 74.9409 8.4165C75.2339 8.58936 75.4551 8.83545 75.6045 9.15479C75.7539 9.47119 75.8286 9.85205 75.8286 10.2974V10.9302H72.9106L72.9019 10.9521C72.9136 11.2012 72.9648 11.4224 73.0557 11.6157C73.1494 11.8091 73.2812 11.9614 73.4512 12.0728C73.624 12.1841 73.8335 12.2397 74.0796 12.2397C74.3374 12.2397 74.5718 12.2046 74.7827 12.1343C74.9937 12.064 75.1885 11.9644 75.3672 11.8354L75.7144 12.5298C75.5269 12.688 75.2881 12.8213 74.998 12.9297C74.708 13.0381 74.3696 13.0923 73.9829 13.0923ZM72.9282 10.1523H74.7695V10.0381C74.7695 9.83008 74.7373 9.64844 74.6729 9.49316C74.6113 9.33496 74.5132 9.21191 74.3784 9.12402C74.2466 9.03613 74.0781 8.99219 73.873 8.99219C73.6943 8.99219 73.5376 9.04199 73.4028 9.1416C73.2681 9.24121 73.1597 9.37744 73.0776 9.55029C72.9985 9.72021 72.9443 9.91357 72.915 10.1304L72.9282 10.1523ZM79.273 13.0923C78.8893 13.0923 78.5611 12.9956 78.2887 12.8022C78.0162 12.6089 77.8067 12.3394 77.6603 11.9937C77.5167 11.645 77.4449 11.2393 77.4449 10.7764V10.6841C77.4449 10.1772 77.5167 9.73486 77.6603 9.35693C77.8067 8.979 78.0162 8.68457 78.2887 8.47363C78.5641 8.2627 78.8907 8.15723 79.2687 8.15723C79.5411 8.15723 79.7784 8.20996 79.9806 8.31543C80.1856 8.41797 80.3614 8.56592 80.5079 8.75928V6.95752L79.8092 6.82568V6.14453H80.5079H81.6153V12.1914L82.2745 12.3232V13H80.6573L80.5694 12.4243C80.42 12.644 80.2369 12.811 80.0201 12.9253C79.8063 13.0366 79.5572 13.0923 79.273 13.0923ZM79.5851 12.2178C79.796 12.2178 79.9776 12.1724 80.13 12.0815C80.2823 11.9878 80.4083 11.853 80.5079 11.6772V9.58105C80.4112 9.41113 80.2853 9.27783 80.13 9.18115C79.9776 9.08154 79.7989 9.03174 79.5938 9.03174C79.3536 9.03174 79.1559 9.10205 79.0006 9.24268C78.8482 9.38037 78.7355 9.57373 78.6622 9.82275C78.589 10.0688 78.5523 10.356 78.5523 10.6841V10.7764C78.5523 11.2158 78.6329 11.5659 78.794 11.8267C78.9581 12.0874 79.2218 12.2178 79.5851 12.2178ZM89.4578 13.0923C89.159 13.0923 88.9012 13.0337 88.6844 12.9165C88.4676 12.7993 88.2859 12.6294 88.1395 12.4067L88.0516 13H87.0979V6.95752L86.3992 6.82568V6.14453H88.201V8.77686C88.3445 8.57471 88.5203 8.4209 88.7283 8.31543C88.9393 8.20996 89.1839 8.15723 89.4622 8.15723C89.8519 8.15723 90.1814 8.2627 90.451 8.47363C90.7234 8.68164 90.9314 8.97461 91.075 9.35254C91.2186 9.73047 91.2903 10.1743 91.2903 10.6841V10.7764C91.2903 11.2393 91.2186 11.645 91.075 11.9937C90.9314 12.3423 90.7234 12.6133 90.451 12.8066C90.1785 12.9971 89.8475 13.0923 89.4578 13.0923ZM89.1414 12.2178C89.5047 12.2178 89.7684 12.0903 89.9324 11.8354C90.0994 11.5776 90.1829 11.2246 90.1829 10.7764V10.6841C90.1829 10.3501 90.1463 10.0601 90.073 9.81396C89.9998 9.56494 89.887 9.37305 89.7347 9.23828C89.5823 9.10059 89.386 9.03174 89.1458 9.03174C88.9231 9.03174 88.7327 9.08594 88.5745 9.19434C88.4192 9.2998 88.2947 9.44336 88.201 9.625V11.6553C88.2977 11.834 88.4236 11.9731 88.5789 12.0728C88.7371 12.1694 88.9246 12.2178 89.1414 12.2178ZM93.9437 14.9204C93.8529 14.9204 93.7475 14.9116 93.6273 14.894C93.5102 14.8765 93.4076 14.8545 93.3197 14.8281L93.4428 13.9976C93.4955 14.0063 93.5585 14.0137 93.6317 14.0195C93.7079 14.0254 93.768 14.0283 93.8119 14.0283C93.9965 14.0283 94.1518 13.9697 94.2777 13.8525C94.4037 13.7383 94.5062 13.5786 94.5854 13.3735L94.7304 12.9912L93.1044 9.00537L92.5507 8.92627V8.24512H94.8534V8.92627L94.2689 9.01416L95.0951 11.229L95.2401 11.6421H95.2665L96.2421 9.00977L95.6576 8.92627V8.24512H97.8417V8.92627L97.3275 9.00098L95.4862 13.7163C95.3983 13.939 95.2885 14.1411 95.1566 14.3228C95.0277 14.5073 94.8637 14.6523 94.6645 14.7578C94.4682 14.8662 94.2279 14.9204 93.9437 14.9204Z" fill="white"/>
<path d="M40 34V16H52.4283V34H40ZM50.7234 22.069H51.8388V20.2531H47.2339V22.069H48.7317V26.4018H48.668L43.4417 20.2531H40.6214V22.069H41.9121V28.7912H40.7967V30.6071H45.3378V28.7912H43.9038V24.0442H43.9675L49.5284 30.623L50.7234 30.6071V22.069ZM53.6993 34V16H62.0963V34H53.6993ZM54.9421 23.9327L54.6234 25.7965L56.2646 25.9717L56.5355 24.9522C56.7055 24.8673 56.8754 24.8141 57.0453 24.7929C57.226 24.7611 57.4225 24.7451 57.6349 24.7451C58.2192 24.7451 58.5591 24.9204 58.6548 25.2708C58.7609 25.6212 58.814 25.9823 58.814 26.354V26.5929C58.4848 26.5504 58.0917 26.5292 57.6349 26.5292C56.817 26.5292 56.0522 26.6726 55.3404 26.9593C54.6393 27.246 54.2888 27.8301 54.2888 28.7115C54.2888 29.4655 54.5278 29.9965 55.0058 30.3044C55.4838 30.6124 55.9832 30.7664 56.5036 30.7664C57.0879 30.7664 57.5659 30.6177 57.9376 30.3204C58.32 30.023 58.6122 29.6938 58.814 29.3327V29.3487C58.9202 30.2938 59.4461 30.7664 60.3915 30.7664C60.8376 30.7664 61.2678 30.6549 61.6822 30.4319L61.6661 29.3487C61.56 29.3805 61.459 29.3965 61.3634 29.3965C61.0342 29.3965 60.8695 29.2106 60.8695 28.8389V25.7168C60.8695 24.8991 60.588 24.2885 60.0251 23.885C59.462 23.4814 58.7928 23.2796 58.0173 23.2796C57.4331 23.2796 56.9285 23.3274 56.5036 23.423C56.0893 23.5079 55.5689 23.6779 54.9421 23.9327ZM58.814 27.6761C58.7609 28.2389 58.575 28.6531 58.2563 28.9186C57.9483 29.1735 57.6137 29.3009 57.2525 29.3009C56.9445 29.3009 56.7267 29.2212 56.5992 29.0619C56.4717 28.9027 56.408 28.7062 56.408 28.4726C56.408 28.0796 56.5461 27.8195 56.8223 27.692C57.0985 27.5539 57.4172 27.485 57.7783 27.485C57.9483 27.485 58.1183 27.4956 58.2883 27.5168C58.4688 27.538 58.6441 27.5593 58.814 27.5805V27.6761ZM63.3529 34V16H77.6455V34H63.3529ZM74.2676 30.6071H77.279V29.0619H76.323V25.7646C76.323 24.9151 76.0733 24.2885 75.5741 23.885C75.0749 23.4814 74.5013 23.2796 73.8533 23.2796C72.7167 23.2796 71.9359 23.7947 71.511 24.8248C71.341 24.3044 71.0383 23.9168 70.6028 23.6619C70.1673 23.4071 69.6893 23.2796 69.1687 23.2796C68.1702 23.2796 67.4426 23.6885 66.9858 24.5062V23.423H63.9903V24.9841H64.9304V29.0619H63.9743V30.6071H68.3561V29.0619H66.9858V26.5451C66.9858 26.0461 67.0921 25.6372 67.3045 25.3186C67.5169 25 67.8728 24.8407 68.3721 24.8407C68.7757 24.8407 69.0784 24.9734 69.2803 25.2389C69.4927 25.5045 69.599 25.9451 69.599 26.5611V30.6071H72.6104V29.0619H71.6544V26.5451C71.6544 26.0461 71.7607 25.6372 71.9731 25.3186C72.1962 25 72.552 24.8407 73.0407 24.8407C73.4443 24.8407 73.747 24.9734 73.9489 25.2389C74.1613 25.5045 74.2676 25.9451 74.2676 26.5611V30.6071ZM78.9039 34V16H86.9026V34H78.9039ZM86.4405 28.3451L84.7197 28.0265C84.6773 28.2389 84.5551 28.4778 84.3532 28.7434C84.162 29.0089 83.7903 29.1416 83.2379 29.1416C82.2288 29.1416 81.6658 28.5734 81.5489 27.4372H86.2653C86.3397 27.0974 86.3768 26.7522 86.3768 26.4018C86.3663 25.4672 86.0476 24.7133 85.4208 24.1398C84.8048 23.5664 83.9974 23.2796 82.9989 23.2796C81.8623 23.2796 80.9753 23.6513 80.3379 24.3947C79.7112 25.1274 79.3978 26.0461 79.3978 27.1504C79.3978 28.3504 79.7431 29.2531 80.4335 29.8584C81.1346 30.4637 82.0216 30.7664 83.0945 30.7664C84.1249 30.7664 84.9268 30.5222 85.5005 30.0336C86.0741 29.5451 86.3875 28.9823 86.4405 28.3451ZM84.2576 26.2425H81.5648C81.6286 25.7965 81.7773 25.4354 82.011 25.1593C82.2447 24.8832 82.574 24.7451 82.9989 24.7451C83.4875 24.7451 83.8274 24.9044 84.0186 25.223C84.2205 25.5416 84.3001 25.8814 84.2576 26.2425ZM88.1529 34V16H98V34H88.1529ZM94.5264 24.9841V29.046H93.5704V30.6071H97.5379V29.046H96.5819V23.423H91.7699V22.292C91.7699 21.9841 91.8549 21.6974 92.0248 21.4319C92.2055 21.1663 92.6091 21.0336 93.2358 21.0336C93.5439 21.0336 93.8041 21.0655 94.0166 21.1292C94.2396 21.1823 94.3884 21.2195 94.4627 21.2407L94.7654 22.2602L96.3588 22.085L96.0401 20.1416C95.5728 19.8974 95.0895 19.7274 94.5902 19.6319C94.0909 19.5363 93.6395 19.4885 93.2358 19.4885C92.078 19.4885 91.2017 19.7752 90.6067 20.3487C90.0119 20.9221 89.7144 21.5805 89.7144 22.3239V23.423H88.8381V24.9841H89.7144V29.046H88.7584V30.6071H92.9649V29.046H91.7699V24.9841H94.5264Z" fill="white"/>
<path d="M15.5995 13.0009L16.9992 15.8002H12.7993V27.0009H10V13.0009H15.5995Z" fill="white"/>
<path d="M12.8 24.2007H17.0007V13H19.8V27H14.1997L12.8 24.2007Z" fill="white"/>
<path d="M29.6005 20.5781L23.1799 26.9988H21.2V25.0181L27.6198 18.5983H29.6005V20.5781Z" fill="white"/>
<path d="M24.7017 20.1176V21.5736L25.4221 20.8379L29.6005 25.0164V26.9971H27.6207L21.2 20.5764V18.5966H23.1807L24.7017 20.1176Z" fill="white"/>
</g>
<defs>
<clipPath id="clip0_29_136">
<rect width="104" height="40" fill="white"/>
</clipPath>
</defs>
</svg>
