<svg width="229" height="37" viewBox="0 0 229 37" fill="none" xmlns="http://www.w3.org/2000/svg">
<rect x="0.5" y="0.5" width="228" height="36" stroke="#1DD17D"/>
<path d="M9.80469 25.1721C9.08073 25.1721 8.4375 25.0419 7.875 24.7814C7.31771 24.521 6.8724 24.1252 6.53906 23.5939C6.21094 23.0575 6.03125 22.3856 6 21.5783L6.01562 21.5314H7.88281C7.91406 22.2866 8.08333 22.8257 8.39062 23.1486C8.69792 23.4663 9.1224 23.6252 9.66406 23.6252C10.0234 23.6252 10.3307 23.5471 10.5859 23.3908C10.8411 23.2346 11.0365 23.0106 11.1719 22.7189C11.3073 22.4273 11.375 22.0783 11.375 21.6721V15.0783L9.85156 14.8518V13.633H14.5859V14.8439L13.3359 15.0783V21.6721C13.3359 22.3804 13.2005 22.9976 12.9297 23.5236C12.6589 24.0497 12.2604 24.4559 11.7344 24.7424C11.2135 25.0288 10.5703 25.1721 9.80469 25.1721Z" fill="white"/>
<path d="M19.9016 25.1721C18.9953 25.1721 18.287 24.8856 17.7766 24.3127C17.2714 23.7346 17.0188 22.8387 17.0188 21.6252V18.0002L16.0656 17.7658V16.5549H18.9875V21.6408C18.9875 22.37 19.1021 22.883 19.3313 23.1799C19.5656 23.4715 19.925 23.6174 20.4094 23.6174C20.8365 23.6174 21.1984 23.534 21.4953 23.3674C21.7974 23.1955 22.037 22.9533 22.2141 22.6408V18.0002L21.1516 17.7658V16.5549H24.1828V23.5705L25.1828 23.8049V25.008H22.4406L22.3078 23.8596C22.0422 24.2814 21.7036 24.607 21.2922 24.8361C20.8859 25.0601 20.4224 25.1721 19.9016 25.1721Z" fill="white"/>
<path d="M30.4594 25.1721C29.8552 25.1721 29.2901 25.1148 28.7641 25.0002C28.2432 24.8804 27.7198 24.7059 27.1938 24.4768L27.1703 22.2424H28.5844L28.8813 23.4611C29.1052 23.5601 29.3344 23.6382 29.5688 23.6955C29.8083 23.7476 30.074 23.7736 30.3656 23.7736C30.9281 23.7736 31.324 23.6747 31.5531 23.4768C31.7875 23.2788 31.9047 23.034 31.9047 22.7424C31.9047 22.4611 31.7823 22.2215 31.5375 22.0236C31.2979 21.8205 30.837 21.646 30.1547 21.5002C29.1443 21.2814 28.3995 20.9637 27.9203 20.5471C27.4464 20.1252 27.2094 19.5783 27.2094 18.9064C27.2094 18.4429 27.3318 18.0236 27.5766 17.6486C27.8266 17.2736 28.1911 16.9741 28.6703 16.7502C29.1547 16.521 29.7484 16.4064 30.4516 16.4064C31.0922 16.4064 31.6599 16.4741 32.1547 16.6096C32.6547 16.7398 33.0792 16.9143 33.4281 17.133L33.475 19.2814H32.0766L31.8344 18.1643C31.6729 18.0497 31.4854 17.9611 31.2719 17.8986C31.0583 17.8361 30.8135 17.8049 30.5375 17.8049C30.1052 17.8049 29.7641 17.9012 29.5141 18.0939C29.2641 18.2814 29.1391 18.5184 29.1391 18.8049C29.1391 18.9715 29.1781 19.1226 29.2563 19.258C29.3396 19.3934 29.4958 19.5184 29.725 19.633C29.9594 19.7424 30.3005 19.8491 30.7484 19.9533C31.8474 20.2085 32.6339 20.5419 33.1078 20.9533C33.5818 21.3648 33.8188 21.909 33.8188 22.5861C33.8188 23.3413 33.5427 23.9611 32.9906 24.4455C32.4385 24.9299 31.5948 25.1721 30.4594 25.1721Z" fill="white"/>
<path d="M38.9469 25.1564C38.2281 25.1564 37.6682 24.9559 37.2672 24.5549C36.8661 24.1486 36.6656 23.5028 36.6656 22.6174V17.9611H35.4312V16.5549H36.6656V14.5002H38.6266V16.5549H40.2984V17.9611H38.6266V22.6174C38.6266 22.9768 38.6995 23.2398 38.8453 23.4064C38.9964 23.5679 39.1995 23.6486 39.4547 23.6486C39.6005 23.6486 39.762 23.6356 39.9391 23.6096C40.1214 23.5835 40.2672 23.5575 40.3766 23.5314L40.5797 24.9143C40.3505 24.982 40.0875 25.0393 39.7906 25.0861C39.499 25.133 39.2177 25.1564 38.9469 25.1564Z" fill="white"/>
<path d="M46.9375 25.008V23.8049L47.7656 23.6877L51.5312 13.633H53.4453L57.1641 23.6877L57.9922 23.8049V25.008H54.375V23.8049L55.1875 23.6564L54.5859 21.8674H50.3516L49.7344 23.6564L50.5547 23.8049V25.008H46.9375ZM50.8672 20.3596H54.0781L52.6016 16.1486L52.5 15.8439H52.4531L52.3438 16.1643L50.8672 20.3596Z" fill="white"/>
<path d="M59.7297 25.008V23.8049L60.9719 23.5705V15.0783L59.7297 14.8439V13.633H64.175V14.8439L62.9406 15.0783V23.5705L64.175 23.8049V25.008H59.7297Z" fill="white"/>
<path d="M66.9359 17.3205L65.9125 16.7189C66.1365 16.3544 66.3057 15.9794 66.4203 15.5939C66.5349 15.2033 66.5922 14.771 66.5922 14.2971V12.8205H68.35V14.2893C68.35 14.633 68.2875 14.995 68.1625 15.3752C68.0427 15.7502 67.876 16.107 67.6625 16.4455C67.4542 16.784 67.212 17.0757 66.9359 17.3205Z" fill="white"/>
<path d="M70.1344 25.008V23.8049L71.3063 23.5705V18.0002L70.0719 17.7658V16.5549H73.1188L73.2203 17.7814C73.5016 17.3439 73.8505 17.0054 74.2672 16.7658C74.6891 16.521 75.1656 16.3986 75.6969 16.3986C76.5667 16.3986 77.2438 16.6669 77.7281 17.2033C78.2125 17.7346 78.4547 18.5679 78.4547 19.7033V23.5705L79.6266 23.8049V25.008H75.3844V23.8049L76.4859 23.5705V19.7189C76.4859 19.0783 76.3583 18.6252 76.1031 18.3596C75.8479 18.0887 75.4677 17.9533 74.9625 17.9533C74.5823 17.9533 74.249 18.0393 73.9625 18.2111C73.6813 18.3778 73.4521 18.6122 73.275 18.9143V23.5705L74.3453 23.8049V25.008H70.1344Z" fill="white"/>
<path d="M84.9422 28.4221C84.5255 28.4221 84.062 28.3648 83.5516 28.2502C83.0464 28.1408 82.601 27.9872 82.2156 27.7893L82.6219 26.3518C82.9552 26.5028 83.3224 26.6252 83.7234 26.7189C84.1245 26.8127 84.5047 26.8596 84.8641 26.8596C85.5099 26.8596 85.9812 26.6799 86.2781 26.3205C86.5802 25.9663 86.7312 25.4637 86.7312 24.8127V24.1486C86.4708 24.482 86.1609 24.7372 85.8016 24.9143C85.4422 25.0861 85.0307 25.1721 84.5672 25.1721C83.8797 25.1721 83.2859 25.0002 82.7859 24.6564C82.2911 24.3127 81.9109 23.8309 81.6453 23.2111C81.3849 22.5913 81.2547 21.8726 81.2547 21.0549V20.8908C81.2547 19.9898 81.3849 19.2033 81.6453 18.5314C81.9109 17.8596 82.2885 17.3361 82.7781 16.9611C83.2729 16.5861 83.8615 16.3986 84.5437 16.3986C85.0594 16.3986 85.5073 16.5054 85.8875 16.7189C86.2677 16.9273 86.5906 17.2268 86.8562 17.6174L87.0047 16.5549H88.7V24.8205C88.7 25.5549 88.5516 26.1903 88.2547 26.7268C87.9578 27.2684 87.5281 27.6851 86.9656 27.9768C86.4031 28.2736 85.7286 28.4221 84.9422 28.4221ZM85.0984 23.6174C85.4786 23.6174 85.8016 23.5366 86.0672 23.3752C86.338 23.2137 86.5594 22.9794 86.7312 22.6721V18.9064C86.5594 18.6096 86.338 18.3778 86.0672 18.2111C85.7964 18.0393 85.476 17.9533 85.1062 17.9533C84.674 17.9533 84.3172 18.0783 84.0359 18.3283C83.7599 18.5731 83.5542 18.9169 83.4187 19.3596C83.2885 19.7971 83.2234 20.3075 83.2234 20.8908V21.0549C83.2234 21.8361 83.3719 22.4585 83.6687 22.9221C83.9708 23.3856 84.4474 23.6174 85.0984 23.6174ZM88.4344 18.0393L87.6062 16.5549H89.7156V17.7658L88.4344 18.0393Z" fill="white"/>
<path d="M98.8703 25.008L96.7922 17.9221L95.8 17.7658V16.5549H99.6359V17.7658L98.6828 17.9377L99.6281 21.6096L99.8234 22.4064H99.8703L100.144 21.6096L101.917 16.5549H103.347L105.058 21.6408L105.347 22.5393H105.394L105.667 21.6408L106.691 17.9377L105.675 17.7658V16.5549H109.433V17.7658L108.464 17.9299L106.3 25.008H104.573L102.956 20.4455L102.628 19.3361H102.581L102.253 20.4455L100.597 25.008H98.8703Z" fill="white"/>
<path d="M110.983 25.008V23.8049L112.155 23.5705V18.0002L110.912 17.7658V16.5549H114.123V23.5705L115.287 23.8049V25.008H110.983ZM112.077 14.6408V12.8205H114.123V14.6408H112.077Z" fill="white"/>
<path d="M120.166 25.1564C119.447 25.1564 118.887 24.9559 118.486 24.5549C118.085 24.1486 117.884 23.5028 117.884 22.6174V17.9611H116.65V16.5549H117.884V14.5002H119.845V16.5549H121.517V17.9611H119.845V22.6174C119.845 22.9768 119.918 23.2398 120.064 23.4064C120.215 23.5679 120.418 23.6486 120.673 23.6486C120.819 23.6486 120.981 23.6356 121.158 23.6096C121.34 23.5835 121.486 23.5575 121.595 23.5314L121.798 24.9143C121.569 24.982 121.306 25.0393 121.009 25.0861C120.718 25.133 120.436 25.1564 120.166 25.1564Z" fill="white"/>
<path d="M123.364 25.008V23.8049L124.536 23.5705V14.2658L123.294 14.0314V12.8205H126.497V17.6486C126.773 17.2528 127.114 16.9455 127.52 16.7268C127.927 16.508 128.385 16.3986 128.895 16.3986C129.765 16.3986 130.447 16.6773 130.942 17.2346C131.442 17.7866 131.692 18.6408 131.692 19.7971V23.5705L132.864 23.8049V25.008H128.622V23.8049L129.731 23.5705V19.7814C129.731 19.1356 129.601 18.6695 129.341 18.383C129.08 18.0965 128.697 17.9533 128.192 17.9533C127.833 17.9533 127.507 18.034 127.216 18.1955C126.929 18.3518 126.69 18.5731 126.497 18.8596V23.5705L127.606 23.8049V25.008H123.364Z" fill="white"/>
<path d="M137.263 32.12V5H155.983V32.12H137.263ZM153.415 14.144H155.095V11.408H148.159V14.144H150.415V20.672H150.319L142.447 11.408H138.199V14.144H140.143V24.272H138.463V27.008H145.303V24.272H143.143V17.12H143.239L151.615 27.032L153.415 27.008V14.144Z" fill="#1CD17D"/>
<path d="M157.897 32.12V5H170.546V32.12H157.897ZM159.77 16.952L159.29 19.76L161.762 20.024L162.169 18.488C162.425 18.36 162.682 18.28 162.938 18.248C163.21 18.2 163.506 18.176 163.826 18.176C164.706 18.176 165.217 18.44 165.361 18.968C165.521 19.496 165.602 20.04 165.602 20.6V20.96C165.106 20.896 164.514 20.864 163.826 20.864C162.594 20.864 161.441 21.08 160.369 21.512C159.313 21.944 158.785 22.824 158.785 24.152C158.785 25.288 159.145 26.088 159.865 26.552C160.585 27.016 161.338 27.248 162.122 27.248C163.002 27.248 163.721 27.024 164.281 26.576C164.857 26.128 165.298 25.632 165.602 25.088V25.112C165.762 26.536 166.553 27.248 167.977 27.248C168.649 27.248 169.297 27.08 169.921 26.744L169.897 25.112C169.737 25.16 169.585 25.184 169.441 25.184C168.945 25.184 168.697 24.904 168.697 24.344V19.64C168.697 18.408 168.274 17.488 167.426 16.88C166.578 16.272 165.57 15.968 164.402 15.968C163.522 15.968 162.762 16.04 162.122 16.184C161.498 16.312 160.714 16.568 159.77 16.952ZM165.602 22.592C165.522 23.44 165.242 24.064 164.762 24.464C164.298 24.848 163.793 25.04 163.249 25.04C162.785 25.04 162.458 24.92 162.266 24.68C162.074 24.44 161.977 24.144 161.977 23.792C161.977 23.2 162.186 22.808 162.602 22.616C163.018 22.408 163.498 22.304 164.042 22.304C164.298 22.304 164.553 22.32 164.809 22.352C165.081 22.384 165.346 22.416 165.602 22.448V22.592Z" fill="#1CD17D"/>
<path d="M172.438 32.12V5H193.966V32.12H172.438ZM188.878 27.008H193.414V24.68H191.974V19.712C191.974 18.432 191.598 17.488 190.846 16.88C190.094 16.272 189.23 15.968 188.254 15.968C186.542 15.968 185.366 16.744 184.726 18.296C184.47 17.512 184.014 16.928 183.358 16.544C182.702 16.16 181.982 15.968 181.198 15.968C179.694 15.968 178.598 16.584 177.91 17.816V16.184H173.398V18.536H174.814V24.68H173.374V27.008H179.974V24.68H177.91V20.888C177.91 20.136 178.07 19.52 178.39 19.04C178.71 18.56 179.246 18.32 179.998 18.32C180.606 18.32 181.062 18.52 181.366 18.92C181.686 19.32 181.846 19.984 181.846 20.912V27.008H186.382V24.68H184.942V20.888C184.942 20.136 185.102 19.52 185.422 19.04C185.758 18.56 186.294 18.32 187.03 18.32C187.638 18.32 188.094 18.52 188.398 18.92C188.718 19.32 188.878 19.984 188.878 20.912V27.008Z" fill="#1CD17D"/>
<path d="M195.862 32.12V5H207.91V32.12H195.862ZM207.214 23.6L204.622 23.12C204.558 23.44 204.374 23.8 204.07 24.2C203.782 24.6 203.222 24.8 202.39 24.8C200.87 24.8 200.022 23.944 199.846 22.232H206.95C207.062 21.72 207.118 21.2 207.118 20.672C207.102 19.264 206.622 18.128 205.678 17.264C204.75 16.4 203.534 15.968 202.03 15.968C200.318 15.968 198.982 16.528 198.022 17.648C197.078 18.752 196.606 20.136 196.606 21.8C196.606 23.608 197.126 24.968 198.166 25.88C199.222 26.792 200.558 27.248 202.174 27.248C203.726 27.248 204.934 26.88 205.798 26.144C206.662 25.408 207.134 24.56 207.214 23.6ZM203.926 20.432H199.87C199.966 19.76 200.19 19.216 200.542 18.8C200.894 18.384 201.39 18.176 202.03 18.176C202.766 18.176 203.278 18.416 203.566 18.896C203.87 19.376 203.99 19.888 203.926 20.432Z" fill="#1CD17D"/>
<path d="M209.793 32.12V5H224.625V32.12H209.793ZM219.393 18.536V24.656H217.953V27.008H223.929V24.656H222.489V16.184H215.241V14.48C215.241 14.016 215.369 13.584 215.625 13.184C215.897 12.784 216.505 12.584 217.449 12.584C217.913 12.584 218.305 12.632 218.625 12.728C218.961 12.808 219.185 12.864 219.297 12.896L219.753 14.432L222.153 14.168L221.673 11.24C220.969 10.872 220.241 10.616 219.489 10.472C218.737 10.328 218.057 10.256 217.449 10.256C215.705 10.256 214.385 10.688 213.489 11.552C212.593 12.416 212.145 13.408 212.145 14.528V16.184H210.825V18.536H212.145V24.656H210.705V27.008H217.041V24.656H215.241V18.536H219.393Z" fill="#1CD17D"/>
</svg>
