<svg width="104" height="40" viewBox="0 0 104 40" fill="none" xmlns="http://www.w3.org/2000/svg">
<g clip-path="url(#clip0_33_177)">
<path d="M7 34V6H26.2853V34H7ZM23.6398 15.4407H25.3705V12.6159H18.2251V15.4407H20.5492V22.1805H20.4503L12.3406 12.6159H7.96427V15.4407H9.96698V25.8973H8.23624V28.7221H15.2828V25.8973H13.0576V18.5133H13.1565L21.7854 28.7469L23.6398 28.7221V15.4407ZM28.2575 34V6H41.2874V34H28.2575ZM30.186 18.3398L29.6915 21.2389L32.2382 21.5115L32.6585 19.9257C32.9223 19.7936 33.186 19.7109 33.4497 19.6779C33.73 19.6283 34.0349 19.6035 34.3645 19.6035C35.2711 19.6035 35.7987 19.8761 35.947 20.4212C36.1118 20.9664 36.1941 21.5281 36.1941 22.1062V22.4779C35.6832 22.4117 35.0733 22.3788 34.3645 22.3788C33.0953 22.3788 31.9085 22.6018 30.8041 23.0478C29.7162 23.4938 29.1723 24.4024 29.1723 25.7735C29.1723 26.9463 29.5431 27.7723 30.2849 28.2513C31.0266 28.7303 31.8015 28.9699 32.609 28.9699C33.5157 28.9699 34.2574 28.7387 34.8343 28.2761C35.4277 27.8135 35.881 27.3015 36.1941 26.7398V26.7646C36.359 28.2348 37.1749 28.9699 38.642 28.9699C39.3342 28.9699 40.0017 28.7965 40.6447 28.4496L40.6199 26.7646C40.4551 26.8142 40.2984 26.8389 40.1501 26.8389C39.6392 26.8389 39.3838 26.5498 39.3838 25.9717V21.115C39.3838 19.8431 38.9469 18.8932 38.0734 18.2655C37.1996 17.6378 36.1612 17.3239 34.9579 17.3239C34.0514 17.3239 33.2684 17.3982 32.609 17.5469C31.9662 17.679 31.1586 17.9434 30.186 18.3398ZM36.1941 24.1628C36.1118 25.0383 35.8233 25.6825 35.3288 26.0956C34.8508 26.492 34.3316 26.6903 33.7711 26.6903C33.2931 26.6903 32.9552 26.5664 32.7574 26.3186C32.5596 26.0708 32.4607 25.7652 32.4607 25.4018C32.4607 24.7905 32.675 24.3858 33.1035 24.1876C33.5322 23.9728 34.0267 23.8655 34.587 23.8655C34.8508 23.8655 35.1146 23.8821 35.3784 23.915C35.6585 23.948 35.9305 23.9812 36.1941 24.0142V24.1628ZM43.2373 34V6H65.4154V34H43.2373ZM60.1738 28.7221H64.8468V26.3186H63.3633V21.1894C63.3633 19.8679 62.9759 18.8932 62.2012 18.2655C61.4266 17.6378 60.5365 17.3239 59.5309 17.3239C57.7673 17.3239 56.5558 18.125 55.8964 19.7274C55.6326 18.9179 55.1628 18.315 54.4871 17.9186C53.8113 17.5221 53.0696 17.3239 52.2618 17.3239C50.7124 17.3239 49.5834 17.9599 48.8745 19.2319V17.5469H44.2263V19.9752H45.6851V26.3186H44.2016V28.7221H51.0009V26.3186H48.8745V22.4035C48.8745 21.6272 49.0394 20.9912 49.369 20.4956C49.6987 20 50.2509 19.7522 51.0256 19.7522C51.6519 19.7522 52.1217 19.9587 52.4349 20.3717C52.7645 20.7847 52.9294 21.4702 52.9294 22.4283V28.7221H57.6024V26.3186H56.1189V22.4035C56.1189 21.6272 56.2838 20.9912 56.6134 20.4956C56.9596 20 57.5117 19.7522 58.27 19.7522C58.8963 19.7522 59.3661 19.9587 59.6793 20.3717C60.0089 20.7847 60.1738 21.4702 60.1738 22.4283V28.7221ZM67.3681 34V6H79.7799V34H67.3681ZM79.0629 25.2035L76.3926 24.708C76.3268 25.0383 76.1372 25.41 75.824 25.823C75.5273 26.236 74.9504 26.4425 74.0932 26.4425C72.5274 26.4425 71.6538 25.5587 71.4724 23.7912H78.791C78.9064 23.2626 78.964 22.7257 78.964 22.1805C78.9476 20.7268 78.4531 19.554 77.4805 18.6619C76.5246 17.7699 75.2718 17.3239 73.7224 17.3239C71.9587 17.3239 70.5823 17.902 69.5933 19.0584C68.6209 20.1982 68.1346 21.6272 68.1346 23.3451C68.1346 25.2117 68.6703 26.6159 69.7417 27.5575C70.8296 28.4991 72.206 28.9699 73.8707 28.9699C75.4696 28.9699 76.7141 28.59 77.6042 27.8301C78.4942 27.0702 78.9806 26.1947 79.0629 25.2035ZM75.6756 21.9327H71.4971C71.596 21.2389 71.8269 20.6772 72.1894 20.2478C72.5521 19.8183 73.0631 19.6035 73.7224 19.6035C74.4806 19.6035 75.008 19.8513 75.3047 20.3469C75.618 20.8425 75.7416 21.371 75.6756 21.9327ZM81.7201 34V6H97V34H81.7201ZM91.61 19.9752V26.2938H90.1265V28.7221H96.283V26.2938H94.7995V17.5469H87.3326V15.7876C87.3326 15.3086 87.4646 14.8626 87.7282 14.4496C88.0085 14.0365 88.6348 13.8301 89.6073 13.8301C90.0854 13.8301 90.4892 13.8796 90.8188 13.9788C91.1649 14.0613 91.3958 14.1192 91.5111 14.1522L91.9809 15.7381L94.4533 15.4655L93.9588 12.4425C93.2336 12.0626 92.4837 11.7982 91.7089 11.6496C90.9342 11.5009 90.2337 11.4266 89.6073 11.4266C87.8107 11.4266 86.4508 11.8726 85.5277 12.7646C84.6047 13.6566 84.1431 14.6808 84.1431 15.8372V17.5469H82.7832V19.9752H84.1431V26.2938H82.6596V28.7221H89.187V26.2938H87.3326V19.9752H91.61Z" fill="white"/>
</g>
<defs>
<clipPath id="clip0_33_177">
<rect width="104" height="40" fill="white"/>
</clipPath>
</defs>
</svg>
