<svg width="40" height="40" viewBox="0 0 40 40" fill="none" xmlns="http://www.w3.org/2000/svg">
<path d="M0 10C0 7.79086 1.79086 6 4 6H36C38.2091 6 40 7.79086 40 10V30C40 32.2091 38.2091 34 36 34H4C1.79086 34 0 32.2091 0 30V10Z" fill="#1cd17d"/>
<path d="M6 25.3V14H13.8V25.3H6ZM12.73 17.81H13.43V16.67H10.54V17.81H11.48V20.53H11.44L8.16 16.67H6.39V17.81H7.2V22.03H6.5V23.17H9.35V22.03H8.45V19.05H8.49L11.98 23.18L12.73 23.17V17.81Z" fill="black" fill-opacity="0.8"/>
<path d="M14.5977 25.3V14H20.4677V25.3H14.5977ZM19.0277 18.77L20.1677 18.67L19.9677 16.67H15.0877V17.81H15.7877V22.03H15.0877V23.17H18.1877V22.03H17.1277V20.76H19.8577V19.63H17.1277V17.81H18.8277L19.0277 18.77Z" fill="black" fill-opacity="0.8"/>
<path d="M21.2715 25.3V14H27.0415V25.3H21.2715ZM26.6315 21.2C26.6315 20.6467 26.4948 20.24 26.2215 19.98C25.9548 19.7133 25.6415 19.5333 25.2815 19.44C24.9282 19.34 24.6182 19.2633 24.3515 19.21C24.0582 19.1433 23.7982 19.0567 23.5715 18.95C23.3448 18.8433 23.2315 18.6533 23.2315 18.38C23.2315 18.1467 23.3181 17.9833 23.4915 17.89C23.6715 17.7967 23.8948 17.75 24.1615 17.75C24.3215 17.75 24.4848 17.77 24.6515 17.81C24.8248 17.85 24.9948 17.9267 25.1615 18.04L25.2515 18.8L26.3215 18.7L26.2615 17.29C26.0548 17.07 25.7582 16.8967 25.3715 16.77C24.9848 16.6367 24.5782 16.57 24.1515 16.57C23.5648 16.57 23.0248 16.72 22.5315 17.02C22.0382 17.3133 21.7915 17.8233 21.7915 18.55C21.7915 19.0167 21.8982 19.37 22.1115 19.61C22.3248 19.8433 22.5882 20.0133 22.9015 20.12C23.2215 20.22 23.5382 20.2967 23.8515 20.35C24.2115 20.4167 24.5248 20.5133 24.7915 20.64C25.0582 20.76 25.1915 21 25.1915 21.36C25.1915 21.6867 25.0782 21.8967 24.8515 21.99C24.6248 22.0767 24.3348 22.12 23.9815 22.12C23.8682 22.12 23.7315 22.11 23.5715 22.09C23.4115 22.0633 23.2182 21.99 22.9915 21.87L23.0015 21.08L21.9315 20.98L21.7315 22.59C21.9848 22.8167 22.3281 22.9867 22.7615 23.1C23.2015 23.2133 23.6415 23.27 24.0815 23.27C24.8748 23.27 25.4982 23.0933 25.9515 22.74C26.4048 22.3867 26.6315 21.8733 26.6315 21.2Z" fill="black" fill-opacity="0.8"/>
<path d="M27.8379 25.3V14H34.4679V25.3H27.8379ZM33.8779 22.48L34.0079 20.95L32.9179 20.85L32.7779 21.82C32.4779 22 32.0646 22.09 31.5379 22.09C30.9779 22.09 30.5179 21.92 30.1579 21.58C29.7979 21.24 29.6179 20.6933 29.6179 19.94C29.6179 19.2267 29.7812 18.6833 30.1079 18.31C30.4412 17.9367 30.8879 17.75 31.4479 17.75C31.6679 17.75 31.9012 17.78 32.1479 17.84C32.3946 17.9 32.6046 17.9867 32.7779 18.1L32.9179 18.96L34.0079 18.86L33.8479 17.35C33.6412 17.1567 33.3379 16.98 32.9379 16.82C32.5379 16.6533 32.0612 16.57 31.5079 16.57C30.6879 16.57 30.0346 16.7533 29.5479 17.12C29.0612 17.4867 28.7112 17.9367 28.4979 18.47C28.2846 19.0033 28.1779 19.5233 28.1779 20.03C28.1779 20.9967 28.4912 21.78 29.1179 22.38C29.7446 22.9733 30.5212 23.27 31.4479 23.27C31.9146 23.27 32.3812 23.1967 32.8479 23.05C33.3212 22.9033 33.6646 22.7133 33.8779 22.48Z" fill="black" fill-opacity="0.8"/>
</svg>
