<svg xmlns="http://www.w3.org/2000/svg" width="256" height="256"><path d="M179.25 150.965c-4.441 5.95-13.785 15.832-18.98 15.832h-24.157v-15.848h19.242a10.12 10.12 0 0 0 7.27-3.07c9.879-10.242 15.59-22.426 15.59-35.496 0-22.297-16.668-42.008-42.113-53.887V47.848a8.294 8.294 0 0 0-8.293-8.297 8.297 8.297 0 0 0-8.297 8.297v4.414a136 136 0 0 0-22.567-4.582c13.059 14.183 21.032 33.152 21.032 53.953 0 18.648-6.375 35.773-17.086 49.344h18.62v15.87H92.25a6.68 6.68 0 0 1-6.684-6.679v-6.938a2.21 2.21 0 0 0-2.21-2.214H47.41c-.703 0-1.305.574-1.305 1.277-.027 28.39 22.438 49.703 49.305 49.703h75.84c18.176 0 26.305-23.297 36.953-38.117 4.137-5.734 14.055-10.344 17.063-11.621.55-.23.87-.746.87-1.348v-9.215c0-.933-.921-1.636-1.827-1.382 0 0-43.84 10.074-44.352 10.214-.516.153-.707.45-.707.45Zm0 0" style="stroke:none;fill-rule:nonzero;fill:#fff;fill-opacity:1"/><path d="M103.938 101.566A61 61 0 0 0 90.84 63.707L49.586 135.09h44.379a60.94 60.94 0 0 0 9.984-33.508Zm0 0" style="stroke:none;fill-rule:nonzero;fill:#fff;fill-opacity:1"/><path d="M129.113 0C57.535-.59-.59 57.535 0 129.113c.602 69.504 57.383 126.297 126.875 126.875 71.578.614 129.727-57.535 129.113-129.113C255.41 57.395 198.618.602 129.113 0M90.84 63.707a61.02 61.02 0 0 1 13.097 37.86c0 12.378-3.675 23.898-9.984 33.511H49.574l41.254-71.387Zm135.297 77.977v9.214c0 .602-.32 1.114-.871 1.344-3.008 1.281-12.926 5.89-17.063 11.625-10.648 14.82-18.777 38.117-36.953 38.117H95.41c-26.851 0-49.316-21.312-49.305-49.703 0-.703.602-1.281 1.305-1.281h35.945c1.239 0 2.211 1 2.211 2.215v6.937a6.68 6.68 0 0 0 6.684 6.684h27.262v-15.871H100.89c10.71-13.57 17.086-30.695 17.086-49.344 0-20.8-7.973-39.773-21.032-53.953a136.5 136.5 0 0 1 22.567 4.582v-4.418a8.294 8.294 0 0 1 8.297-8.293 8.29 8.29 0 0 1 8.293 8.293v10.652c25.445 11.88 42.113 31.59 42.113 53.887 0 13.082-5.723 25.254-15.59 35.496a10.12 10.12 0 0 1-7.27 3.07h-19.242v15.848h24.157c5.207 0 14.554-9.883 18.98-15.836 0 0 .191-.293.707-.445.512-.156 44.352-10.215 44.352-10.215a1.443 1.443 0 0 1 1.828 1.383Zm0 0" style="stroke:none;fill-rule:nonzero;fill:#0086ff;fill-opacity:1"/></svg>