<svg width="31" height="16" viewBox="0 0 31 16" fill="none" xmlns="http://www.w3.org/2000/svg">
<path d="M1.14502 5V4.66162L1.49438 4.5957V2.20728L1.14502 2.14136V1.80078H1.49438H2.64575C2.88452 1.80078 3.08887 1.84253 3.25879 1.92603C3.43018 2.00952 3.56128 2.12598 3.6521 2.27539C3.74292 2.42334 3.78833 2.59692 3.78833 2.79614C3.78833 2.99536 3.74292 3.16968 3.6521 3.31909C3.56128 3.46704 3.43018 3.58203 3.25879 3.66406C3.08887 3.74609 2.88452 3.78711 2.64575 3.78711H2.0481V4.5957L2.39746 4.66162V5H1.14502ZM2.0481 3.35864H2.64575C2.84204 3.35864 2.98926 3.30591 3.0874 3.20044C3.18555 3.09497 3.23462 2.96167 3.23462 2.80054C3.23462 2.63647 3.18555 2.50024 3.0874 2.39185C2.98926 2.28345 2.84204 2.22925 2.64575 2.22925H2.0481V3.35864ZM5.55889 5.04614C5.33037 5.04614 5.13408 4.99487 4.97002 4.89233C4.80596 4.78979 4.67998 4.64771 4.59209 4.46606C4.5042 4.28296 4.46025 4.07275 4.46025 3.83545V3.78931C4.46025 3.55347 4.5042 3.34473 4.59209 3.16309C4.67998 2.98145 4.80596 2.83862 4.97002 2.73462C5.13408 2.63062 5.32891 2.57861 5.55449 2.57861C5.78301 2.57861 5.9793 2.63062 6.14336 2.73462C6.30742 2.83716 6.4334 2.97925 6.52129 3.16089C6.60918 3.34253 6.65313 3.552 6.65313 3.78931V3.83545C6.65313 4.07275 6.60918 4.28296 6.52129 4.46606C6.4334 4.64771 6.30742 4.78979 6.14336 4.89233C5.98076 4.99487 5.78594 5.04614 5.55889 5.04614ZM5.55889 4.61987C5.68193 4.61987 5.78301 4.58691 5.86211 4.521C5.94268 4.45361 6.00273 4.36133 6.04229 4.24414C6.08184 4.12549 6.10161 3.98926 6.10161 3.83545V3.78931C6.10161 3.63696 6.08184 3.5022 6.04229 3.38501C6.00273 3.26782 5.94268 3.17554 5.86211 3.10815C5.78154 3.04077 5.679 3.00708 5.55449 3.00708C5.43291 3.00708 5.33184 3.04077 5.25127 3.10815C5.1707 3.17554 5.11064 3.26782 5.07109 3.38501C5.03301 3.5022 5.01396 3.63696 5.01396 3.78931V3.83545C5.01396 3.98926 5.03301 4.12549 5.07109 4.24414C5.11064 4.36133 5.1707 4.45361 5.25127 4.521C5.3333 4.58691 5.43584 4.61987 5.55889 4.61987ZM8.14023 5L7.55576 3.00708L7.27671 2.96313V2.62256H8.35557V2.96313L8.0875 3.01147L8.35337 4.04419L8.4083 4.26831H8.42148L8.49839 4.04419L8.99717 2.62256H9.39927L9.88047 4.05298L9.96177 4.30566H9.97495L10.0519 4.05298L10.3397 3.01147L10.0541 2.96313V2.62256H11.1109V2.96313L10.8385 3.00928L10.2298 5H9.74424L9.2894 3.7168L9.19712 3.40479H9.18394L9.09165 3.7168L8.62583 5H8.14023ZM12.8639 5.04614C12.6398 5.04614 12.4442 4.99634 12.2772 4.89673C12.1117 4.79565 11.9828 4.65649 11.8905 4.47925C11.7997 4.302 11.7543 4.09912 11.7543 3.87061V3.77832C11.7543 3.54688 11.799 3.34106 11.8883 3.16089C11.9792 2.98071 12.1037 2.83862 12.2619 2.73462C12.4201 2.63062 12.6002 2.57861 12.8024 2.57861C13.0177 2.57861 13.1979 2.62183 13.3429 2.70825C13.4894 2.79468 13.6 2.91772 13.6747 3.07739C13.7494 3.2356 13.7868 3.42603 13.7868 3.64868V3.96509H12.3278L12.3234 3.97607C12.3292 4.10059 12.3549 4.21118 12.4003 4.30786C12.4472 4.40454 12.5131 4.48071 12.598 4.53638C12.6845 4.59204 12.7892 4.61987 12.9123 4.61987C13.0412 4.61987 13.1583 4.60229 13.2638 4.56714C13.3693 4.53198 13.4667 4.48218 13.5561 4.41772L13.7296 4.76489C13.6359 4.84399 13.5165 4.91064 13.3715 4.96484C13.2265 5.01904 13.0573 5.04614 12.8639 5.04614ZM12.3366 3.57617H13.2572V3.51904C13.2572 3.41504 13.2411 3.32422 13.2089 3.24658C13.1781 3.16748 13.1291 3.10596 13.0617 3.06201C12.9958 3.01807 12.9115 2.99609 12.809 2.99609C12.7196 2.99609 12.6413 3.021 12.5739 3.0708C12.5065 3.12061 12.4523 3.18872 12.4113 3.27515C12.3717 3.36011 12.3446 3.45679 12.33 3.56519L12.3366 3.57617ZM14.5751 5V4.66162L14.9047 4.5957V3.02905L14.5576 2.96313V2.62256H15.4145L15.4431 2.92139L15.4475 2.96973C15.5104 2.84375 15.5874 2.74707 15.6782 2.67969C15.7705 2.6123 15.8781 2.57861 16.0012 2.57861C16.0422 2.57861 16.0854 2.58228 16.1308 2.5896C16.1777 2.59692 16.2158 2.60498 16.2451 2.61377L16.1813 3.12573L15.8715 3.10815C15.7705 3.10229 15.687 3.12207 15.621 3.16748C15.5566 3.21289 15.5024 3.27588 15.4584 3.35645V4.5957L15.788 4.66162V5H14.5751ZM17.9915 5.04614C17.7673 5.04614 17.5718 4.99634 17.4048 4.89673C17.2393 4.79565 17.1104 4.65649 17.0181 4.47925C16.9272 4.302 16.8818 4.09912 16.8818 3.87061V3.77832C16.8818 3.54688 16.9265 3.34106 17.0159 3.16089C17.1067 2.98071 17.2312 2.83862 17.3894 2.73462C17.5476 2.63062 17.7278 2.57861 17.9299 2.57861C18.1453 2.57861 18.3254 2.62183 18.4705 2.70825C18.6169 2.79468 18.7275 2.91772 18.8022 3.07739C18.877 3.2356 18.9143 3.42603 18.9143 3.64868V3.96509H17.4553L17.4509 3.97607C17.4568 4.10059 17.4824 4.21118 17.5278 4.30786C17.5747 4.40454 17.6406 4.48071 17.7256 4.53638C17.812 4.59204 17.9167 4.61987 18.0398 4.61987C18.1687 4.61987 18.2859 4.60229 18.3914 4.56714C18.4968 4.53198 18.5942 4.48218 18.6836 4.41772L18.8572 4.76489C18.7634 4.84399 18.644 4.91064 18.499 4.96484C18.354 5.01904 18.1848 5.04614 17.9915 5.04614ZM17.4641 3.57617H18.3848V3.51904C18.3848 3.41504 18.3687 3.32422 18.3364 3.24658C18.3057 3.16748 18.2566 3.10596 18.1892 3.06201C18.1233 3.01807 18.0391 2.99609 17.9365 2.99609C17.8472 2.99609 17.7688 3.021 17.7014 3.0708C17.634 3.12061 17.5798 3.18872 17.5388 3.27515C17.4993 3.36011 17.4722 3.45679 17.4575 3.56519L17.4641 3.57617ZM20.6365 5.04614C20.4446 5.04614 20.2806 4.9978 20.1443 4.90112C20.0081 4.80444 19.9034 4.66968 19.8301 4.49683C19.7584 4.32251 19.7225 4.11963 19.7225 3.88818V3.84204C19.7225 3.58862 19.7584 3.36743 19.8301 3.17847C19.9034 2.9895 20.0081 2.84229 20.1443 2.73682C20.282 2.63135 20.4454 2.57861 20.6343 2.57861C20.7706 2.57861 20.8892 2.60498 20.9903 2.65771C21.0928 2.70898 21.1807 2.78296 21.254 2.87964V1.97876L20.9046 1.91284V1.57227H21.254H21.8077V4.5957L22.1373 4.66162V5H21.3287L21.2847 4.71216C21.21 4.82202 21.1185 4.90552 21.0101 4.96265C20.9031 5.01831 20.7786 5.04614 20.6365 5.04614ZM20.7925 4.60889C20.898 4.60889 20.9888 4.58618 21.065 4.54077C21.1412 4.4939 21.2042 4.42651 21.254 4.33862V3.29053C21.2056 3.20557 21.1426 3.13892 21.065 3.09058C20.9888 3.04077 20.8995 3.01587 20.7969 3.01587C20.6768 3.01587 20.5779 3.05103 20.5003 3.12134C20.4241 3.19019 20.3677 3.28687 20.3311 3.41138C20.2945 3.53442 20.2762 3.67798 20.2762 3.84204V3.88818C20.2762 4.10791 20.3165 4.28296 20.397 4.41333C20.4791 4.5437 20.6109 4.60889 20.7925 4.60889ZM25.7289 5.04614C25.5795 5.04614 25.4506 5.01685 25.3422 4.95825C25.2338 4.89966 25.143 4.8147 25.0697 4.70337L25.0258 5H24.549V1.97876L24.1996 1.91284V1.57227H25.1005V2.88843C25.1723 2.78735 25.2602 2.71045 25.3642 2.65771C25.4696 2.60498 25.5919 2.57861 25.7311 2.57861C25.9259 2.57861 26.0907 2.63135 26.2255 2.73682C26.3617 2.84082 26.4657 2.9873 26.5375 3.17627C26.6093 3.36523 26.6452 3.58716 26.6452 3.84204V3.88818C26.6452 4.11963 26.6093 4.32251 26.5375 4.49683C26.4657 4.67114 26.3617 4.80664 26.2255 4.90332C26.0893 4.99854 25.9237 5.04614 25.7289 5.04614ZM25.5707 4.60889C25.7523 4.60889 25.8842 4.54517 25.9662 4.41772C26.0497 4.28882 26.0915 4.1123 26.0915 3.88818V3.84204C26.0915 3.67505 26.0731 3.53003 26.0365 3.40698C25.9999 3.28247 25.9435 3.18652 25.8673 3.11914C25.7912 3.05029 25.693 3.01587 25.5729 3.01587C25.4616 3.01587 25.3664 3.04297 25.2873 3.09717C25.2096 3.1499 25.1474 3.22168 25.1005 3.3125V4.32764C25.1488 4.41699 25.2118 4.48657 25.2895 4.53638C25.3686 4.58472 25.4623 4.60889 25.5707 4.60889ZM27.9719 5.96021C27.9265 5.96021 27.8737 5.95581 27.8137 5.94702C27.7551 5.93823 27.7038 5.92725 27.6599 5.91406L27.7214 5.49878C27.7478 5.50317 27.7792 5.50684 27.8159 5.50977C27.854 5.5127 27.884 5.51416 27.906 5.51416C27.9982 5.51416 28.0759 5.48486 28.1389 5.42627C28.2019 5.36914 28.2531 5.28931 28.2927 5.18677L28.3652 4.99561L27.5522 3.00269L27.2753 2.96313V2.62256H28.4267V2.96313L28.1345 3.00708L28.5476 4.1145L28.6201 4.32104H28.6333L29.121 3.00488L28.8288 2.96313V2.62256H29.9208V2.96313L29.6638 3.00049L28.7431 5.35815C28.6992 5.46948 28.6442 5.57056 28.5783 5.66138C28.5139 5.75366 28.4318 5.82617 28.3322 5.87891C28.2341 5.93311 28.114 5.96021 27.9719 5.96021Z" fill="#F5FCF9" fill-opacity="0.82"/>
<path d="M0.945 15.704V6.664H7.185V15.704H0.945ZM6.329 9.712H6.889V8.8H4.577V9.712H5.329V11.888H5.297L2.673 8.8H1.257V9.712H1.905V13.088H1.345V14H3.625V13.088H2.905V10.704H2.937L5.729 14.008L6.329 14V9.712ZM7.82312 15.704V6.664H12.0391V15.704H7.82312ZM8.44712 10.648L8.28712 11.584L9.11112 11.672L9.24712 11.16C9.33246 11.1173 9.41779 11.0907 9.50312 11.08C9.59379 11.064 9.69246 11.056 9.79912 11.056C10.0925 11.056 10.2631 11.144 10.3111 11.32C10.3645 11.496 10.3911 11.6773 10.3911 11.864V11.984C10.2258 11.9627 10.0285 11.952 9.79912 11.952C9.38846 11.952 9.00446 12.024 8.64712 12.168C8.29512 12.312 8.11912 12.6053 8.11912 13.048C8.11912 13.4267 8.23912 13.6933 8.47912 13.848C8.71912 14.0027 8.96979 14.08 9.23112 14.08C9.52446 14.08 9.76446 14.0053 9.95112 13.856C10.1431 13.7067 10.2898 13.5413 10.3911 13.36V13.368C10.4445 13.8427 10.7085 14.08 11.1831 14.08C11.4071 14.08 11.6231 14.024 11.8311 13.912L11.8231 13.368C11.7698 13.384 11.7191 13.392 11.6711 13.392C11.5058 13.392 11.4231 13.2987 11.4231 13.112V11.544C11.4231 11.1333 11.2818 10.8267 10.9991 10.624C10.7165 10.4213 10.3805 10.32 9.99112 10.32C9.69779 10.32 9.44446 10.344 9.23112 10.392C9.02312 10.4347 8.76179 10.52 8.44712 10.648ZM10.3911 12.528C10.3645 12.8107 10.2711 13.0187 10.1111 13.152C9.95646 13.28 9.78846 13.344 9.60712 13.344C9.45246 13.344 9.34312 13.304 9.27912 13.224C9.21512 13.144 9.18312 13.0453 9.18312 12.928C9.18312 12.7307 9.25246 12.6 9.39112 12.536C9.52979 12.4667 9.68979 12.432 9.87112 12.432C9.95646 12.432 10.0418 12.4373 10.1271 12.448C10.2178 12.4587 10.3058 12.4693 10.3911 12.48V12.528ZM12.67 15.704V6.664H19.846V15.704H12.67ZM18.15 14H19.662V13.224H19.182V11.568C19.182 11.1413 19.0567 10.8267 18.806 10.624C18.5553 10.4213 18.2673 10.32 17.942 10.32C17.3713 10.32 16.9793 10.5787 16.766 11.096C16.6807 10.8347 16.5287 10.64 16.31 10.512C16.0913 10.384 15.8513 10.32 15.59 10.32C15.0887 10.32 14.7233 10.5253 14.494 10.936V10.392H12.99V11.176H13.462V13.224H12.982V14H15.182V13.224H14.494V11.96C14.494 11.7093 14.5473 11.504 14.654 11.344C14.7607 11.184 14.9393 11.104 15.19 11.104C15.3927 11.104 15.5447 11.1707 15.646 11.304C15.7527 11.4373 15.806 11.6587 15.806 11.968V14H17.318V13.224H16.838V11.96C16.838 11.7093 16.8913 11.504 16.998 11.344C17.11 11.184 17.2887 11.104 17.534 11.104C17.7367 11.104 17.8887 11.1707 17.99 11.304C18.0967 11.4373 18.15 11.6587 18.15 11.968V14ZM20.4778 15.704V6.664H24.4938V15.704H20.4778ZM24.2618 12.864L23.3978 12.704C23.3765 12.8107 23.3151 12.9307 23.2138 13.064C23.1178 13.1973 22.9311 13.264 22.6538 13.264C22.1471 13.264 21.8645 12.9787 21.8058 12.408H24.1738C24.2111 12.2373 24.2298 12.064 24.2298 11.888C24.2245 11.4187 24.0645 11.04 23.7498 10.752C23.4405 10.464 23.0351 10.32 22.5338 10.32C21.9631 10.32 21.5178 10.5067 21.1978 10.88C20.8831 11.248 20.7258 11.7093 20.7258 12.264C20.7258 12.8667 20.8991 13.32 21.2458 13.624C21.5978 13.928 22.0431 14.08 22.5818 14.08C23.0991 14.08 23.5018 13.9573 23.7898 13.712C24.0778 13.4667 24.2351 13.184 24.2618 12.864ZM23.1658 11.808H21.8138C21.8458 11.584 21.9205 11.4027 22.0378 11.264C22.1551 11.1253 22.3205 11.056 22.5338 11.056C22.7791 11.056 22.9498 11.136 23.0458 11.296C23.1471 11.456 23.1871 11.6267 23.1658 11.808ZM25.1216 15.704V6.664H30.0656V15.704H25.1216ZM28.3216 11.176V13.216H27.8416V14H29.8336V13.216H29.3536V10.392H26.9376V9.824C26.9376 9.66933 26.9802 9.52533 27.0656 9.392C27.1562 9.25867 27.3589 9.192 27.6736 9.192C27.8282 9.192 27.9589 9.208 28.0656 9.24C28.1776 9.26667 28.2522 9.28533 28.2896 9.296L28.4416 9.808L29.2416 9.72L29.0816 8.744C28.8469 8.62133 28.6042 8.536 28.3536 8.488C28.1029 8.44 27.8762 8.416 27.6736 8.416C27.0922 8.416 26.6522 8.56 26.3536 8.848C26.0549 9.136 25.9056 9.46667 25.9056 9.84V10.392H25.4656V11.176H25.9056V13.216H25.4256V14H27.5376V13.216H26.9376V11.176H28.3216Z" fill="#1CD17D"/>
</svg>
