<svg width="141" height="22" viewBox="0 0 141 22" fill="none" xmlns="http://www.w3.org/2000/svg">
<g clip-path="url(#clip0_6004_20961)">
<path d="M2 0.5H139C139.828 0.500001 140.5 1.17157 140.5 2V20C140.5 20.8284 139.828 21.5 139 21.5H2C1.17157 21.5 0.5 20.8284 0.5 20V2C0.5 1.17157 1.17157 0.5 2 0.5Z" stroke="#1CD17D"/>
<g opacity="0.1" filter="url(#filter0_d_6004_20961)">
<path d="M0.320312 2C0.320312 0.89543 1.21574 0 2.32031 0H139.32C140.425 0 141.32 0.895431 141.32 2V20C141.32 21.1046 140.425 22 139.32 22H2.32032C1.21575 22 0.320312 21.1046 0.320312 20V2Z" fill="url(#paint0_linear_6004_20961)" shape-rendering="crispEdges"/>
</g>
<g clip-path="url(#clip1_6004_20961)">
<path d="M8.96774 12.7501C8.9231 12.5771 8.83291 12.4192 8.70655 12.2928C8.58019 12.1665 8.42227 12.0763 8.24924 12.0316L5.18174 11.2406C5.1294 11.2258 5.08334 11.1943 5.05054 11.1508C5.01775 11.1074 5 11.0545 5 11.0001C5 10.9457 5.01775 10.8928 5.05054 10.8494C5.08334 10.806 5.1294 10.7745 5.18174 10.7596L8.24924 9.96812C8.42221 9.92353 8.58008 9.83341 8.70644 9.70714C8.83279 9.58088 8.92302 9.42307 8.96774 9.25012L9.75874 6.18262C9.77344 6.13008 9.80493 6.0838 9.8484 6.05082C9.89187 6.01785 9.94493 6 9.99949 6C10.054 6 10.1071 6.01785 10.1506 6.05082C10.194 6.0838 10.2255 6.13008 10.2402 6.18262L11.0307 9.25012C11.0754 9.42316 11.1656 9.58107 11.2919 9.70743C11.4183 9.83379 11.5762 9.92399 11.7492 9.96862L14.8167 10.7591C14.8695 10.7737 14.916 10.8051 14.9492 10.8487C14.9823 10.8922 15.0003 10.9454 15.0003 11.0001C15.0003 11.0548 14.9823 11.1081 14.9492 11.1516C14.916 11.1951 14.8695 11.2266 14.8167 11.2411L11.7492 12.0316C11.5762 12.0763 11.4183 12.1665 11.2919 12.2928C11.1656 12.4192 11.0754 12.5771 11.0307 12.7501L10.2397 15.8176C10.225 15.8702 10.1935 15.9165 10.1501 15.9494C10.1066 15.9824 10.0535 16.0002 9.99899 16.0002C9.94443 16.0002 9.89137 15.9824 9.8479 15.9494C9.80443 15.9165 9.77294 15.8702 9.75824 15.8176L8.96774 12.7501Z" fill="#1CD17D"/>
<path d="M13.9993 6.50012V8.50012Z" fill="#1CD17D"/>
<path d="M14.9993 7.50012H12.9993Z" fill="#1CD17D"/>
<path d="M5.99927 13.5001V14.5001Z" fill="#1CD17D"/>
<path d="M6.49927 14.0001H5.49927Z" fill="#1CD17D"/>
<path d="M13.9993 6.50012V8.50012M14.9993 7.50012H12.9993M5.99927 13.5001V14.5001M6.49927 14.0001H5.49927M8.96774 12.7501C8.9231 12.5771 8.83291 12.4192 8.70655 12.2928C8.58019 12.1665 8.42227 12.0763 8.24924 12.0316L5.18174 11.2406C5.1294 11.2258 5.08334 11.1943 5.05054 11.1508C5.01775 11.1074 5 11.0545 5 11.0001C5 10.9457 5.01775 10.8928 5.05054 10.8494C5.08334 10.806 5.1294 10.7745 5.18174 10.7596L8.24924 9.96812C8.42221 9.92353 8.58008 9.83341 8.70644 9.70714C8.83279 9.58088 8.92302 9.42307 8.96774 9.25012L9.75874 6.18262C9.77344 6.13008 9.80493 6.0838 9.8484 6.05082C9.89187 6.01785 9.94493 6 9.99949 6C10.054 6 10.1071 6.01785 10.1506 6.05082C10.194 6.0838 10.2255 6.13008 10.2402 6.18262L11.0307 9.25012C11.0754 9.42316 11.1656 9.58107 11.2919 9.70743C11.4183 9.83379 11.5762 9.92399 11.7492 9.96862L14.8167 10.7591C14.8695 10.7737 14.916 10.8051 14.9492 10.8487C14.9823 10.8922 15.0003 10.9454 15.0003 11.0001C15.0003 11.0548 14.9823 11.1081 14.9492 11.1516C14.916 11.1951 14.8695 11.2266 14.8167 11.2411L11.7492 12.0316C11.5762 12.0763 11.4183 12.1665 11.2919 12.2928C11.1656 12.4192 11.0754 12.5771 11.0307 12.7501L10.2397 15.8176C10.225 15.8702 10.1935 15.9165 10.1501 15.9494C10.1066 15.9824 10.0535 16.0002 9.99899 16.0002C9.94443 16.0002 9.89137 15.9824 9.8479 15.9494C9.80443 15.9165 9.77294 15.8702 9.75824 15.8176L8.96774 12.7501Z" stroke="#1CD17D" stroke-linecap="round" stroke-linejoin="round"/>
</g>
<path d="M20 14.3741V13.4487L20.9641 13.2684V6.7366L20 6.55633V5.62494H24.1415C24.8005 5.62494 25.3644 5.73911 25.8333 5.96745C26.3063 6.19579 26.6681 6.51427 26.9187 6.92288C27.1694 7.32749 27.2947 7.8022 27.2947 8.34702C27.2947 8.89184 27.1694 9.36855 26.9187 9.77717C26.6681 10.1818 26.3063 10.4962 25.8333 10.7206C25.3644 10.9449 24.8005 11.0571 24.1415 11.0571H22.4922V13.2684L23.4563 13.4487V14.3741H20ZM22.4922 9.88533H24.1415C24.6832 9.88533 25.0895 9.74111 25.3604 9.45268C25.6312 9.16425 25.7666 8.7997 25.7666 8.35904C25.7666 7.91037 25.6312 7.53781 25.3604 7.24136C25.0895 6.94492 24.6832 6.7967 24.1415 6.7967H22.4922V9.88533Z" fill="#1CD17D"/>
<path d="M30.6906 14.5003C30.06 14.5003 29.5183 14.36 29.0655 14.0796C28.6128 13.7992 28.2651 13.4106 28.0226 12.9139C27.78 12.4131 27.6588 11.8383 27.6588 11.1893V11.0631C27.6588 10.4181 27.78 9.84727 28.0226 9.35053C28.2651 8.85378 28.6128 8.46319 29.0655 8.17877C29.5183 7.89434 30.056 7.75213 30.6785 7.75213C31.3091 7.75213 31.8508 7.89434 32.3036 8.17877C32.7563 8.45919 33.104 8.84777 33.3465 9.34452C33.5891 9.84126 33.7104 10.4141 33.7104 11.0631V11.1893C33.7104 11.8383 33.5891 12.4131 33.3465 12.9139C33.104 13.4106 32.7563 13.7992 32.3036 14.0796C31.8549 14.36 31.3172 14.5003 30.6906 14.5003ZM30.6906 13.3345C31.0302 13.3345 31.3091 13.2444 31.5274 13.0641C31.7498 12.8798 31.9155 12.6274 32.0247 12.307C32.1338 11.9825 32.1884 11.6099 32.1884 11.1893V11.0631C32.1884 10.6465 32.1338 10.2779 32.0247 9.95744C31.9155 9.63696 31.7498 9.38458 31.5274 9.2003C31.3051 9.01602 31.0221 8.92389 30.6785 8.92389C30.343 8.92389 30.064 9.01602 29.8417 9.2003C29.6194 9.38458 29.4536 9.63696 29.3445 9.95744C29.2394 10.2779 29.1868 10.6465 29.1868 11.0631V11.1893C29.1868 11.6099 29.2394 11.9825 29.3445 12.307C29.4536 12.6274 29.6194 12.8798 29.8417 13.0641C30.0681 13.2444 30.3511 13.3345 30.6906 13.3345Z" fill="#1CD17D"/>
<path d="M36.3241 14.3741L34.7111 8.92389L33.941 8.80371V7.87231H36.9183V8.80371L36.1786 8.9359L36.9123 11.7601L37.0639 12.3731H37.1003L37.3125 11.7601L38.689 7.87231H39.7986L41.1266 11.7842L41.3509 12.4752H41.3873L41.5996 11.7842L42.3939 8.9359L41.6056 8.80371V7.87231H44.5223V8.80371L43.7704 8.92989L42.0907 14.3741H40.7506L39.4954 10.8648L39.2408 10.0115H39.2044L38.9497 10.8648L37.6642 14.3741H36.3241Z" fill="#1CD17D"/>
<path d="M47.8697 14.5003C47.2512 14.5003 46.7115 14.364 46.2507 14.0916C45.7939 13.8152 45.4381 13.4347 45.1835 12.9499C44.9328 12.4652 44.8075 11.9104 44.8075 11.2854V11.033C44.8075 10.4001 44.9308 9.83726 45.1774 9.34452C45.428 8.85178 45.7717 8.46319 46.2082 8.17877C46.6448 7.89434 47.1421 7.75213 47.6999 7.75213C48.2942 7.75213 48.7914 7.87031 49.1916 8.10666C49.5959 8.34301 49.9011 8.67952 50.1072 9.11617C50.3134 9.54882 50.4165 10.0696 50.4165 10.6785V11.5438H46.3902L46.378 11.5739C46.3942 11.9144 46.4649 12.2168 46.5903 12.4812C46.7196 12.7456 46.9015 12.9539 47.136 13.1062C47.3745 13.2584 47.6635 13.3345 48.0031 13.3345C48.3589 13.3345 48.6823 13.2864 48.9733 13.1903C49.2644 13.0941 49.5332 12.9579 49.7798 12.7817L50.2588 13.7311C50.0001 13.9474 49.6706 14.1297 49.2704 14.2779C48.8702 14.4261 48.4033 14.5003 47.8697 14.5003ZM46.4144 10.4802H48.9551V10.324C48.9551 10.0396 48.9107 9.79119 48.8217 9.57887C48.7368 9.36254 48.6014 9.19429 48.4154 9.07411C48.2335 8.95393 48.0011 8.89384 47.7181 8.89384C47.4715 8.89384 47.2552 8.96194 47.0693 9.09815C46.8833 9.23435 46.7338 9.42063 46.6206 9.65699C46.5114 9.88933 46.4366 10.1537 46.3962 10.4502L46.4144 10.4802Z" fill="#1CD17D"/>
<path d="M51.1019 14.3741V13.4487L52.0115 13.2684V8.98398L51.0534 8.80371V7.87231H53.4183L53.4971 8.68953L53.5092 8.82173C53.6831 8.47722 53.8953 8.21282 54.1459 8.02854C54.4006 7.84427 54.6977 7.75213 55.0373 7.75213C55.1505 7.75213 55.2697 7.76214 55.3951 7.78217C55.5244 7.8022 55.6295 7.82424 55.7104 7.84827L55.5345 9.24837L54.6795 9.2003C54.4006 9.18428 54.1702 9.23836 53.9883 9.36254C53.8104 9.48673 53.6608 9.65899 53.5396 9.87932V13.2684L54.4491 13.4487V14.3741H51.1019Z" fill="#1CD17D"/>
<path d="M59.0396 14.5003C58.4211 14.5003 57.8814 14.364 57.4206 14.0916C56.9638 13.8152 56.6081 13.4347 56.3534 12.9499C56.1027 12.4652 55.9774 11.9104 55.9774 11.2854V11.033C55.9774 10.4001 56.1007 9.83726 56.3473 9.34452C56.5979 8.85178 56.9416 8.46319 57.3781 8.17877C57.8147 7.89434 58.312 7.75213 58.8698 7.75213C59.4641 7.75213 59.9613 7.87031 60.3615 8.10666C60.7658 8.34301 61.071 8.67952 61.2771 9.11617C61.4833 9.54882 61.5864 10.0696 61.5864 10.6785V11.5438H57.5601L57.5479 11.5739C57.5641 11.9144 57.6348 12.2168 57.7602 12.4812C57.8895 12.7456 58.0714 12.9539 58.3059 13.1062C58.5444 13.2584 58.8334 13.3345 59.173 13.3345C59.5288 13.3345 59.8522 13.2864 60.1432 13.1903C60.4343 13.0941 60.7031 12.9579 60.9497 12.7817L61.4287 13.7311C61.17 13.9474 60.8405 14.1297 60.4403 14.2779C60.0401 14.4261 59.5732 14.5003 59.0396 14.5003ZM57.5843 10.4802H60.125V10.324C60.125 10.0396 60.0806 9.79119 59.9916 9.57887C59.9067 9.36254 59.7713 9.19429 59.5854 9.07411C59.4034 8.95393 59.171 8.89384 58.888 8.89384C58.6414 8.89384 58.4252 8.96194 58.2392 9.09815C58.0532 9.23435 57.9037 9.42063 57.7905 9.65699C57.6813 9.88933 57.6066 10.1537 57.5661 10.4502L57.5843 10.4802Z" fill="#1CD17D"/>
<path d="M64.8489 14.5003C64.3194 14.5003 63.8666 14.3681 63.4906 14.1037C63.1147 13.8393 62.8257 13.4707 62.6235 12.998C62.4254 12.5213 62.3264 11.9664 62.3264 11.3335V11.2073C62.3264 10.5143 62.4254 9.90936 62.6235 9.39259C62.8257 8.87581 63.1147 8.47321 63.4906 8.18478C63.8706 7.89634 64.3214 7.75213 64.8429 7.75213C65.2188 7.75213 65.5463 7.82424 65.8252 7.96845C66.1082 8.10866 66.3507 8.31097 66.5528 8.57536V6.11167L65.5887 5.9314V5H68.0809V13.2684L68.9905 13.4487V14.3741H66.759L66.6377 13.5869C66.4316 13.8873 66.1789 14.1157 65.8798 14.2719C65.5847 14.4241 65.241 14.5003 64.8489 14.5003ZM65.2794 13.3045C65.5705 13.3045 65.8211 13.2424 66.0314 13.1182C66.2416 12.99 66.4154 12.8057 66.5528 12.5653V9.69905C66.4194 9.4667 66.2456 9.28443 66.0314 9.15223C65.8211 9.01602 65.5746 8.94792 65.2916 8.94792C64.9601 8.94792 64.6872 9.04407 64.473 9.23635C64.2628 9.42464 64.1071 9.68903 64.0061 10.0295C63.905 10.366 63.8545 10.7586 63.8545 11.2073V11.3335C63.8545 11.9344 63.9656 12.4131 64.188 12.7697C64.4144 13.1262 64.7782 13.3045 65.2794 13.3045Z" fill="#1CD17D"/>
<path d="M75.9218 14.5003C75.5095 14.5003 75.1537 14.4201 74.8546 14.2599C74.5555 14.0996 74.3048 13.8673 74.1027 13.5628L73.9814 14.3741H72.6656V6.11167L71.7014 5.9314V5H74.1876V8.5994C74.3857 8.32298 74.6282 8.11267 74.9152 7.96845C75.2063 7.82424 75.5438 7.75213 75.9279 7.75213C76.4655 7.75213 76.9203 7.89634 77.2922 8.18478C77.6682 8.4692 77.9552 8.8698 78.1533 9.38658C78.3514 9.90336 78.4504 10.5103 78.4504 11.2073V11.3335C78.4504 11.9664 78.3514 12.5213 78.1533 12.998C77.9552 13.4747 77.6682 13.8453 77.2922 14.1097C76.9163 14.3701 76.4595 14.5003 75.9218 14.5003ZM75.4852 13.3045C75.9865 13.3045 76.3503 13.1302 76.5767 12.7817C76.8071 12.4291 76.9223 11.9464 76.9223 11.3335V11.2073C76.9223 10.7506 76.8718 10.354 76.7707 10.0175C76.6697 9.67702 76.514 9.41462 76.3038 9.23035C76.0936 9.04206 75.8228 8.94792 75.4913 8.94792C75.1841 8.94792 74.9213 9.02203 74.703 9.17026C74.4888 9.31447 74.3169 9.51077 74.1876 9.75914V12.5353C74.321 12.7797 74.4948 12.97 74.7091 13.1062C74.9274 13.2384 75.1861 13.3045 75.4852 13.3045Z" fill="#1CD17D"/>
<path d="M80.6215 17C80.4961 17 80.3506 16.988 80.1849 16.9639C80.0232 16.9399 79.8817 16.9099 79.7604 16.8738L79.9302 15.7381C80.003 15.7501 80.0899 15.7601 80.1909 15.7682C80.296 15.7762 80.3789 15.7802 80.4395 15.7802C80.6942 15.7802 80.9085 15.7001 81.0823 15.5398C81.2561 15.3836 81.3976 15.1652 81.5068 14.8848L81.7069 14.362L79.4633 8.91187L78.6992 8.80371V7.87231H81.8767V8.80371L81.0702 8.92389L82.2102 11.9524L82.4103 12.5173H82.4466L83.7928 8.91788L82.9863 8.80371V7.87231H86V8.80371L85.2905 8.90586L82.7498 15.3535C82.6286 15.658 82.477 15.9344 82.2951 16.1828C82.1172 16.4352 81.8908 16.6335 81.6159 16.7777C81.3451 16.9259 81.0136 17 80.6215 17Z" fill="#1CD17D"/>
<path d="M101.114 18V4H107.69V18H101.114ZM102.087 10.1699L101.837 11.6195L103.123 11.7558L103.335 10.9628C103.468 10.8968 103.601 10.8555 103.734 10.8389C103.875 10.8142 104.029 10.8018 104.196 10.8018C104.653 10.8018 104.919 10.9381 104.994 11.2106C105.078 11.4832 105.119 11.764 105.119 12.0531V12.2389C104.861 12.2059 104.553 12.1894 104.196 12.1894C103.555 12.1894 102.956 12.3009 102.399 12.5239C101.85 12.7469 101.575 13.2012 101.575 13.8867C101.575 14.4732 101.763 14.8861 102.137 15.1257C102.511 15.3652 102.902 15.485 103.31 15.485C103.767 15.485 104.142 15.3693 104.433 15.1381C104.732 14.9068 104.961 14.6507 105.119 14.3699V14.3823C105.202 15.1174 105.614 15.485 106.354 15.485C106.704 15.485 107.041 15.3982 107.365 15.2248L107.353 14.3823C107.269 14.4071 107.19 14.4195 107.116 14.4195C106.858 14.4195 106.729 14.2749 106.729 13.9858V11.5575C106.729 10.9215 106.508 10.4466 106.067 10.1327C105.627 9.81888 105.102 9.66195 104.495 9.66195C104.038 9.66195 103.643 9.69911 103.31 9.77345C102.985 9.83953 102.578 9.97168 102.087 10.1699ZM105.119 13.0814C105.078 13.5192 104.932 13.8413 104.682 14.0478C104.441 14.246 104.179 14.3451 103.896 14.3451C103.655 14.3451 103.484 14.2832 103.385 14.1593C103.285 14.0354 103.235 13.8826 103.235 13.7009C103.235 13.3953 103.343 13.1929 103.559 13.0938C103.776 12.9864 104.025 12.9327 104.308 12.9327C104.441 12.9327 104.574 12.941 104.707 12.9575C104.849 12.974 104.986 12.9906 105.119 13.0071V13.0814Z" fill="#1CD17D"/>
<path d="M109.07 18V4H120.263V18H109.07ZM117.618 15.3611H119.976V14.1593H119.227V11.5947C119.227 10.9339 119.032 10.4466 118.641 10.1327C118.25 9.81888 117.801 9.66195 117.293 9.66195C116.403 9.66195 115.792 10.0625 115.459 10.8637C115.326 10.459 115.089 10.1575 114.748 9.95929C114.407 9.76106 114.032 9.66195 113.625 9.66195C112.843 9.66195 112.273 9.97994 111.915 10.6159V9.77345H109.57V10.9876H110.306V14.1593H109.557V15.3611H112.988V14.1593H111.915V12.2018C111.915 11.8136 111.999 11.4956 112.165 11.2478C112.331 11 112.61 10.8761 113.001 10.8761C113.317 10.8761 113.554 10.9794 113.712 11.1858C113.879 11.3923 113.962 11.7351 113.962 12.2142V15.3611H116.32V14.1593H115.571V12.2018C115.571 11.8136 115.655 11.4956 115.821 11.2478C115.996 11 116.274 10.8761 116.657 10.8761C116.973 10.8761 117.21 10.9794 117.368 11.1858C117.535 11.3923 117.618 11.7351 117.618 12.2142V15.3611Z" fill="#1CD17D"/>
<path d="M121.644 18V4H127.908V18H121.644ZM127.546 13.6018L126.198 13.354C126.165 13.5192 126.069 13.705 125.911 13.9115C125.762 14.118 125.47 14.2212 125.038 14.2212C124.248 14.2212 123.807 13.7794 123.715 12.8956H127.409C127.467 12.6313 127.496 12.3628 127.496 12.0903C127.488 11.3634 127.238 10.777 126.747 10.331C126.265 9.88496 125.633 9.66195 124.851 9.66195C123.961 9.66195 123.266 9.95103 122.767 10.5292C122.276 11.0991 122.031 11.8136 122.031 12.6726C122.031 13.6059 122.301 14.308 122.842 14.7788C123.391 15.2496 124.085 15.485 124.926 15.485C125.733 15.485 126.361 15.295 126.81 14.915C127.259 14.5351 127.504 14.0973 127.546 13.6018ZM125.836 11.9664H123.728C123.778 11.6195 123.894 11.3386 124.077 11.1239C124.26 10.9091 124.518 10.8018 124.851 10.8018C125.233 10.8018 125.5 10.9257 125.649 11.1735C125.807 11.4212 125.87 11.6855 125.836 11.9664Z" fill="#1CD17D"/>
<path d="M129.289 18V4H137V18H129.289ZM134.28 10.9876V14.1469H133.531V15.3611H136.638V14.1469H135.889V9.77345H132.121V8.89381C132.121 8.65428 132.188 8.43127 132.321 8.22478C132.462 8.01829 132.778 7.91504 133.269 7.91504C133.51 7.91504 133.714 7.93982 133.881 7.98938C134.055 8.03068 134.172 8.05959 134.23 8.07611L134.467 8.86903L135.715 8.73274L135.465 7.22124C135.099 7.03127 134.721 6.89912 134.33 6.82478C133.939 6.75044 133.585 6.71327 133.269 6.71327C132.362 6.71327 131.676 6.93628 131.21 7.3823C130.744 7.82832 130.512 8.34041 130.512 8.91858V9.77345H129.825V10.9876H130.512V14.1469H129.763V15.3611H133.057V14.1469H132.121V10.9876H134.28Z" fill="#1CD17D"/>
<path d="M90 18V4H99.7327V18H90ZM98.3976 8.72035H99.271V7.30796H95.6649V8.72035H96.8379V12.0903H96.7879L92.6952 7.30796H90.4866V8.72035H91.4973V13.9487H90.6239V15.3611H94.1801V13.9487H93.0571V10.2566H93.107L97.4618 15.3735L98.3976 15.3611V8.72035Z" fill="#1CD17D"/>
</g>
<defs>
<filter id="filter0_d_6004_20961" x="-29.6797" y="-20" width="201" height="82" filterUnits="userSpaceOnUse" color-interpolation-filters="sRGB">
<feFlood flood-opacity="0" result="BackgroundImageFix"/>
<feColorMatrix in="SourceAlpha" type="matrix" values="0 0 0 0 0 0 0 0 0 0 0 0 0 0 0 0 0 0 127 0" result="hardAlpha"/>
<feOffset dy="10"/>
<feGaussianBlur stdDeviation="15"/>
<feComposite in2="hardAlpha" operator="out"/>
<feColorMatrix type="matrix" values="0 0 0 0 0.109804 0 0 0 0 0.819608 0 0 0 0 0.490196 0 0 0 0.4 0"/>
<feBlend mode="normal" in2="BackgroundImageFix" result="effect1_dropShadow_6004_20961"/>
<feBlend mode="normal" in="SourceGraphic" in2="effect1_dropShadow_6004_20961" result="shape"/>
</filter>
<linearGradient id="paint0_linear_6004_20961" x1="0.320312" y1="11" x2="141.32" y2="11" gradientUnits="userSpaceOnUse">
<stop stop-color="#1CD17D"/>
<stop offset="1" stop-color="#1CD17D" stop-opacity="0"/>
</linearGradient>
<clipPath id="clip0_6004_20961">
<rect width="141" height="22" fill="white"/>
</clipPath>
<clipPath id="clip1_6004_20961">
<rect width="12" height="12" fill="white" transform="translate(4 5)"/>
</clipPath>
</defs>
</svg>
