<svg width="128" height="24" viewBox="0 0 128 24" fill="none" xmlns="http://www.w3.org/2000/svg">
<rect x="0.5" y="0.5" width="126.377" height="23" fill="#09090B" fill-opacity="0.9"/>
<rect x="0.5" y="0.5" width="126.377" height="23" stroke="#1CD17D"/>
<path d="M57.4746 17.3304C57.3643 17.3304 57.2362 17.3197 57.0902 17.2984C56.9479 17.277 56.8233 17.2503 56.7165 17.2183L56.866 16.2092C56.9301 16.2199 57.0066 16.2288 57.0956 16.2359C57.1881 16.2431 57.2611 16.2466 57.3145 16.2466C57.5387 16.2466 57.7273 16.1754 57.8804 16.0331C58.0334 15.8943 58.158 15.7003 58.2541 15.4511L58.4303 14.9866L56.4549 10.1443L55.7822 10.0482V9.2207H58.5798V10.0482L57.8697 10.155L58.8734 12.8458L59.0496 13.3476H59.0816L60.2669 10.1497L59.5568 10.0482V9.2207H62.2102V10.0482L61.5855 10.139L59.3486 15.8676C59.2418 16.1381 59.1083 16.3836 58.9482 16.6043C58.7916 16.8285 58.5922 17.0047 58.3502 17.1329C58.1117 17.2646 57.8199 17.3304 57.4746 17.3304Z" fill="#F5FCF9" fill-opacity="0.82"/>
<path d="M53.3369 15.1096C52.9739 15.1096 52.6607 15.0385 52.3973 14.8961C52.1339 14.7537 51.9132 14.5473 51.7353 14.2768L51.6285 14.9975H50.47V7.65663L49.6211 7.49647V6.66895H51.81V9.86691C51.9844 9.62132 52.198 9.43446 52.4507 9.30633C52.7069 9.1782 53.0041 9.11413 53.3423 9.11413C53.8156 9.11413 54.2161 9.24227 54.5435 9.49853C54.8745 9.75123 55.1272 10.1072 55.3016 10.5663C55.476 11.0254 55.5632 11.5647 55.5632 12.184V12.2961C55.5632 12.8584 55.476 13.3514 55.3016 13.7749C55.1272 14.1985 54.8745 14.5277 54.5435 14.7626C54.2125 14.994 53.8103 15.1096 53.3369 15.1096ZM52.9525 14.0472C53.3939 14.0472 53.7142 13.8924 53.9135 13.5827C54.1164 13.2695 54.2178 12.8406 54.2178 12.2961V12.184C54.2178 11.7782 54.1733 11.4258 54.0844 11.1269C53.9954 10.8243 53.8584 10.5912 53.6733 10.4275C53.4882 10.2602 53.2497 10.1766 52.9579 10.1766C52.6874 10.1766 52.456 10.2424 52.2638 10.3741C52.0752 10.5022 51.9239 10.6766 51.81 10.8973V13.3638C51.9275 13.581 52.0805 13.75 52.2692 13.871C52.4614 13.9885 52.6891 14.0472 52.9525 14.0472Z" fill="#F5FCF9" fill-opacity="0.82"/>
<path d="M43.5881 15.1096C43.1219 15.1096 42.7233 14.9922 42.3922 14.7573C42.0612 14.5224 41.8068 14.1949 41.6288 13.7749C41.4544 13.3514 41.3672 12.8584 41.3672 12.2961V12.184C41.3672 11.5682 41.4544 11.0308 41.6288 10.5716C41.8068 10.1125 42.0612 9.75479 42.3922 9.49853C42.7268 9.24227 43.1237 9.11413 43.5828 9.11413C43.9138 9.11413 44.2021 9.1782 44.4477 9.30633C44.6968 9.4309 44.9104 9.61064 45.0884 9.84555V7.65663L44.2395 7.49647V6.66895H45.0884H46.4337V14.0152L47.2346 14.1754V14.9975H45.2699L45.1631 14.2981C44.9816 14.5651 44.7591 14.768 44.4957 14.9068C44.2359 15.042 43.9334 15.1096 43.5881 15.1096ZM43.9672 14.0472C44.2235 14.0472 44.4441 13.9921 44.6292 13.8817C44.8143 13.7678 44.9673 13.6041 45.0884 13.3905V10.8439C44.9709 10.6375 44.8179 10.4755 44.6292 10.3581C44.4441 10.2371 44.227 10.1766 43.9779 10.1766C43.686 10.1766 43.4458 10.262 43.2571 10.4328C43.0721 10.6001 42.935 10.835 42.846 11.1376C42.7571 11.4365 42.7126 11.7853 42.7126 12.184V12.2961C42.7126 12.83 42.8105 13.2553 43.0062 13.5721C43.2055 13.8888 43.5259 14.0472 43.9672 14.0472Z" fill="#F5FCF9" fill-opacity="0.82"/>
<path d="M38.4735 15.1098C37.9289 15.1098 37.4537 14.9888 37.048 14.7467C36.6458 14.5011 36.3326 14.163 36.1084 13.7324C35.8877 13.3017 35.7773 12.8087 35.7773 12.2535V12.0293C35.7773 11.4669 35.8859 10.9668 36.103 10.529C36.3237 10.0913 36.6262 9.74602 37.0106 9.49332C37.395 9.24061 37.8328 9.11426 38.324 9.11426C38.8472 9.11426 39.285 9.21925 39.6373 9.42925C39.9932 9.63924 40.262 9.93822 40.4435 10.3262C40.625 10.7106 40.7158 11.1733 40.7158 11.7143V12.4831H37.1708L37.1601 12.5098C37.1743 12.8123 37.2366 13.081 37.347 13.3159C37.4609 13.5508 37.621 13.7359 37.8275 13.8712C38.0375 14.0064 38.2919 14.074 38.5909 14.074C38.9041 14.074 39.1889 14.0313 39.4451 13.9459C39.7014 13.8605 39.9381 13.7395 40.1552 13.5829L40.577 14.4264C40.3492 14.6186 40.0591 14.7805 39.7067 14.9122C39.3544 15.0439 38.9433 15.1098 38.4735 15.1098ZM37.1921 11.5381H39.4291V11.3993C39.4291 11.1466 39.39 10.9259 39.3117 10.7373C39.2369 10.5451 39.1177 10.3956 38.954 10.2888C38.7938 10.182 38.5891 10.1286 38.34 10.1286C38.1229 10.1286 37.9325 10.1891 37.7687 10.3102C37.605 10.4312 37.4733 10.5967 37.3737 10.8067C37.2776 11.0131 37.2117 11.248 37.1761 11.5114L37.1921 11.5381Z" fill="#F5FCF9" fill-opacity="0.82"/>
<path d="M31.4841 14.9977V14.1755L32.2849 14.0153V10.2087L31.4414 10.0486V9.22103H33.5236L33.593 9.94712L33.6036 10.0646C33.7567 9.75848 33.9435 9.52357 34.1642 9.35984C34.3884 9.19612 34.65 9.11426 34.949 9.11426C35.0487 9.11426 35.1537 9.12316 35.264 9.14095C35.3779 9.15875 35.4704 9.17832 35.5416 9.19968L35.3868 10.4436L34.634 10.4009C34.3884 10.3867 34.1856 10.4347 34.0254 10.5451C33.8688 10.6554 33.7371 10.8084 33.6303 11.0042V14.0153L34.4312 14.1755V14.9977H31.4841Z" fill="#F5FCF9" fill-opacity="0.82"/>
<path d="M28.6385 15.1098C28.0939 15.1098 27.6188 14.9888 27.213 14.7467C26.8108 14.5011 26.4976 14.163 26.2734 13.7324C26.0527 13.3017 25.9424 12.8087 25.9424 12.2535V12.0293C25.9424 11.4669 26.0509 10.9668 26.2681 10.529C26.4887 10.0913 26.7913 9.74602 27.1757 9.49332C27.5601 9.24061 27.9978 9.11426 28.489 9.11426C29.0122 9.11426 29.45 9.21925 29.8024 9.42925C30.1583 9.63924 30.427 9.93822 30.6085 10.3262C30.79 10.7106 30.8808 11.1733 30.8808 11.7143V12.4831H27.3358L27.3251 12.5098C27.3394 12.8123 27.4017 13.081 27.512 13.3159C27.6259 13.5508 27.7861 13.7359 27.9925 13.8712C28.2025 14.0064 28.457 14.074 28.756 14.074C29.0692 14.074 29.3539 14.0313 29.6102 13.9459C29.8664 13.8605 30.1031 13.7395 30.3202 13.5829L30.742 14.4264C30.5142 14.6186 30.2241 14.7805 29.8718 14.9122C29.5194 15.0439 29.1083 15.1098 28.6385 15.1098ZM27.3572 11.5381H29.5941V11.3993C29.5941 11.1466 29.555 10.9259 29.4767 10.7373C29.4019 10.5451 29.2827 10.3956 29.119 10.2888C28.9588 10.182 28.7542 10.1286 28.505 10.1286C28.2879 10.1286 28.0975 10.1891 27.9338 10.3102C27.77 10.4312 27.6384 10.5967 27.5387 10.8067C27.4426 11.0131 27.3768 11.248 27.3412 11.5114L27.3572 11.5381Z" fill="#F5FCF9" fill-opacity="0.82"/>
<path d="M18.4732 14.9973L17.053 10.155L16.375 10.0482V9.2207H18.9964V10.0482L18.345 10.1657L18.991 12.6749L19.1245 13.2195H19.1565L19.3434 12.6749L20.5553 9.2207H21.5323L22.7015 12.6963L22.8991 13.3103H22.9311L23.118 12.6963L23.8173 10.1657L23.1233 10.0482V9.2207H25.6913V10.0482L25.0293 10.1603L23.5504 14.9973H22.3705L21.2654 11.8794L21.0411 11.1213H21.0091L20.7849 11.8794L19.653 14.9973H18.4732Z" fill="#F5FCF9" fill-opacity="0.82"/>
<path d="M13.5132 15.1098C12.9579 15.1098 12.481 14.9852 12.0824 14.7361C11.6837 14.4869 11.3776 14.1417 11.1641 13.7003C10.9505 13.2554 10.8438 12.7447 10.8438 12.1681V12.056C10.8438 11.4829 10.9505 10.9757 11.1641 10.5344C11.3776 10.093 11.6837 9.74602 12.0824 9.49332C12.481 9.24061 12.9544 9.11426 13.5025 9.11426C14.0577 9.11426 14.5347 9.24061 14.9333 9.49332C15.3319 9.74246 15.638 10.0877 15.8516 10.529C16.0651 10.9704 16.1719 11.4794 16.1719 12.056V12.1681C16.1719 12.7447 16.0651 13.2554 15.8516 13.7003C15.638 14.1417 15.3319 14.4869 14.9333 14.7361C14.5382 14.9852 14.0648 15.1098 13.5132 15.1098ZM13.5132 14.074C13.8121 14.074 14.0577 13.994 14.2499 13.8338C14.4457 13.6701 14.5916 13.4458 14.6877 13.1611C14.7838 12.8728 14.8319 12.5418 14.8319 12.1681V12.056C14.8319 11.6858 14.7838 11.3583 14.6877 11.0736C14.5916 10.7889 14.4457 10.5646 14.2499 10.4009C14.0542 10.2372 13.805 10.1553 13.5025 10.1553C13.2071 10.1553 12.9615 10.2372 12.7657 10.4009C12.57 10.5646 12.424 10.7889 12.3279 11.0736C12.2354 11.3583 12.1891 11.6858 12.1891 12.056V12.1681C12.1891 12.5418 12.2354 12.8728 12.3279 13.1611C12.424 13.4458 12.57 13.6701 12.7657 13.8338C12.965 13.994 13.2142 14.074 13.5132 14.074Z" fill="#F5FCF9" fill-opacity="0.82"/>
<path d="M4.10059 14.998V14.1758L4.94946 14.0156V8.21229L4.10059 8.05213V7.22461H4.94946H7.74701C8.32717 7.22461 8.82368 7.32605 9.23655 7.52892C9.65298 7.7318 9.97153 8.01476 10.1922 8.3778C10.4129 8.73728 10.5232 9.15905 10.5232 9.6431C10.5232 10.1272 10.4129 10.5507 10.1922 10.9137C9.97153 11.2732 9.65298 11.5526 9.23655 11.7519C8.82368 11.9513 8.32717 12.0509 7.74701 12.0509H6.29485V14.0156L7.14372 14.1758V14.998H4.10059ZM6.29485 11.0098H7.74701C8.22395 11.0098 8.58165 10.8817 8.82012 10.6254C9.05859 10.3692 9.17782 10.0453 9.17782 9.65378C9.17782 9.25515 9.05859 8.92414 8.82012 8.66076C8.58165 8.39737 8.22395 8.26568 7.74701 8.26568H6.29485V11.0098Z" fill="#F5FCF9" fill-opacity="0.82"/>
<path d="M114.508 21.2664V2.7334H124.644V21.2664H114.508ZM121.068 11.9835V16.1657H120.084V17.773H124.168V16.1657H123.184V10.3762H118.231V9.21176C118.231 8.89467 118.318 8.59946 118.493 8.32611C118.679 8.05276 119.095 7.91609 119.74 7.91609C120.057 7.91609 120.325 7.94889 120.543 8.01449C120.773 8.06916 120.926 8.10743 121.003 8.1293L121.314 9.17896L122.954 8.99855L122.626 6.99764C122.145 6.74616 121.648 6.57121 121.134 6.47281C120.62 6.3744 120.155 6.3252 119.74 6.3252C118.548 6.3252 117.646 6.62041 117.034 7.21085C116.421 7.80128 116.115 8.47918 116.115 9.24456V10.3762H115.213V11.9835H116.115V16.1657H115.131V17.773H119.461V16.1657H118.231V11.9835H121.068Z" fill="#1CD17D"/>
<path d="M104.988 21.2664V2.7334H113.222V21.2664H104.988ZM112.746 15.4441L110.975 15.1161C110.931 15.3348 110.805 15.5808 110.597 15.8541C110.401 16.1275 110.018 16.2641 109.449 16.2641C108.411 16.2641 107.831 15.6792 107.711 14.5093H112.566C112.642 14.1594 112.68 13.804 112.68 13.4432C112.669 12.481 112.341 11.7047 111.696 11.1143C111.062 10.5238 110.231 10.2286 109.203 10.2286C108.033 10.2286 107.12 10.6113 106.464 11.3767C105.819 12.1311 105.497 13.0769 105.497 14.214C105.497 15.4496 105.852 16.379 106.563 17.0022C107.284 17.6254 108.197 17.937 109.302 17.937C110.362 17.937 111.188 17.6856 111.778 17.1826C112.369 16.6796 112.691 16.1001 112.746 15.4441ZM110.499 13.2792H107.727C107.793 12.82 107.946 12.4482 108.186 12.1639C108.427 11.8796 108.766 11.7375 109.203 11.7375C109.706 11.7375 110.056 11.9015 110.253 12.2295C110.461 12.5575 110.543 12.9074 110.499 13.2792Z" fill="#1CD17D"/>
<path d="M88.9805 21.2664V2.7334H103.692V21.2664H88.9805ZM100.215 17.773H103.315V16.1821H102.331V12.7872C102.331 11.9124 102.074 11.2673 101.56 10.8518C101.046 10.4364 100.456 10.2286 99.7887 10.2286C98.6187 10.2286 97.8151 10.7589 97.3777 11.8195C97.2028 11.2837 96.8912 10.8847 96.4429 10.6222C95.9946 10.3598 95.5026 10.2286 94.9668 10.2286C93.939 10.2286 93.19 10.6496 92.7199 11.4915V10.3762H89.6365V11.9835H90.6042V16.1821H89.6201V17.773H94.1304V16.1821H92.7199V13.5908C92.7199 13.0769 92.8292 12.6559 93.0479 12.3279C93.2666 11.9999 93.6329 11.8359 94.1468 11.8359C94.5622 11.8359 94.8739 11.9726 95.0816 12.2459C95.3003 12.5193 95.4096 12.973 95.4096 13.6072V17.773H98.5094V16.1821H97.5253V13.5908C97.5253 13.0769 97.6347 12.6559 97.8534 12.3279C98.083 11.9999 98.4493 11.8359 98.9522 11.8359C99.3677 11.8359 99.6793 11.9726 99.8871 12.2459C100.106 12.5193 100.215 12.973 100.215 13.6072V17.773Z" fill="#1CD17D"/>
<path d="M79.0449 21.2664V2.7334H87.6882V21.2664H79.0449ZM80.3242 10.9011L79.9962 12.82L81.6855 13.0004L81.9643 11.9507C82.1392 11.8632 82.3142 11.8086 82.4891 11.7867C82.675 11.7539 82.8773 11.7375 83.0959 11.7375C83.6973 11.7375 84.0472 11.9179 84.1456 12.2787C84.2549 12.6395 84.3096 13.0113 84.3096 13.394V13.64C83.9707 13.5963 83.5661 13.5744 83.0959 13.5744C82.254 13.5744 81.4668 13.722 80.7342 14.0172C80.0126 14.3124 79.6518 14.9138 79.6518 15.8213C79.6518 16.5976 79.8978 17.1443 80.3898 17.4614C80.8818 17.7785 81.3957 17.937 81.9315 17.937C82.5328 17.937 83.0249 17.784 83.4076 17.4778C83.8012 17.1717 84.1019 16.8327 84.3096 16.461V16.4774C84.419 17.4505 84.9602 17.937 85.9333 17.937C86.3925 17.937 86.8354 17.8222 87.2618 17.5926L87.2454 16.4774C87.136 16.5102 87.0322 16.5266 86.9338 16.5266C86.5948 16.5266 86.4253 16.3352 86.4253 15.9525V12.738C86.4253 11.896 86.1356 11.2673 85.5561 10.8518C84.9766 10.4364 84.2877 10.2286 83.4896 10.2286C82.8882 10.2286 82.3688 10.2778 81.9315 10.3762C81.5051 10.4637 80.9693 10.6386 80.3242 10.9011ZM84.3096 14.7553C84.2549 15.3348 84.0636 15.7612 83.7356 16.0345C83.4185 16.297 83.0741 16.4282 82.7023 16.4282C82.3852 16.4282 82.1611 16.3462 82.0299 16.1821C81.8987 16.0181 81.8331 15.8159 81.8331 15.5753C81.8331 15.1708 81.9752 14.9029 82.2595 14.7717C82.5438 14.6295 82.8718 14.5585 83.2436 14.5585C83.4185 14.5585 83.5934 14.5694 83.7684 14.5913C83.9543 14.6131 84.1347 14.635 84.3096 14.6569V14.7553Z" fill="#1CD17D"/>
<path d="M64.9434 21.2664V2.7334H77.7361V21.2664H64.9434ZM75.9812 8.98215H77.1292V7.11244H72.3894V8.98215H73.9311V13.4432H73.8655L68.486 7.11244H65.583V8.98215H66.9115V15.9033H65.7634V17.773H70.4377V15.9033H68.9616V11.0159H69.0272L74.7511 17.7894L75.9812 17.773V8.98215Z" fill="#1CD17D"/>
</svg>
