<svg xmlns="http://www.w3.org/2000/svg" width="256" height="256"><path d="M51.2 0h153.6C233.079 0 256 22.922 256 51.2v153.6c0 28.278-22.922 51.2-51.2 51.2H51.2C22.921 256 0 233.078 0 204.8V51.2C0 22.921 22.922 0 51.2 0m0 0" style="stroke:none;fill-rule:nonzero;fill:#feda03;fill-opacity:1"/><path d="M176.645 127.063c8.062-2.094 15.238-8.126 15.238-20.254 0-20.192-17.145-24.887-39.11-24.887H65.281v90.918h36.824v-30.856h43.684c6.73 0 10.664 2.664 10.664 9.27v21.586h36.828v-22.73c0-12.38-6.984-20.188-16.636-23.048m-30.223-9.586h-44.317v-8.891h44.317c4.824 0 7.746.637 7.746 4.445s-2.922 4.446-7.746 4.446m0 0" style="stroke:none;fill-rule:nonzero;fill:#000;fill-opacity:1"/></svg>