<svg width="20" height="20" viewBox="0 0 20 20" fill="none" xmlns="http://www.w3.org/2000/svg">
<path d="M10.1665 3C11.3398 3 12.3545 3.17092 13.2106 3.51276C14.0668 3.85461 14.775 4.34147 15.3352 4.97336C15.8954 5.59489 16.3129 6.33037 16.5878 7.1798C16.8626 8.02923 17 8.9667 17 9.99223C17 10.7174 16.9207 11.4528 16.7622 12.1987C16.6142 12.9341 16.3129 13.6748 15.8584 14.4206L14.6376 13.7836C14.8596 13.4417 15.0393 13.0533 15.1767 12.6182C15.3247 12.1831 15.4304 11.7325 15.4938 11.2664C15.5572 10.7899 15.5889 10.3393 15.5889 9.91454C15.5889 9.11691 15.4779 8.37107 15.2559 7.67703C15.0445 6.98298 14.7169 6.37181 14.2729 5.84351C13.829 5.31521 13.2635 4.90085 12.5764 4.60044C11.8894 4.30004 11.0702 4.14983 10.1189 4.14983C8.96678 4.14983 7.96263 4.39845 7.10645 4.89567C6.25028 5.38254 5.58437 6.08694 5.10872 7.00888C4.64364 7.92046 4.4111 9.0185 4.4111 10.303C4.4111 11.0074 4.49037 11.6911 4.64892 12.3541C4.80747 13.017 5.06116 13.6127 5.40997 14.141C5.76935 14.6589 6.245 15.0733 6.83692 15.384C7.43941 15.6948 8.17403 15.8502 9.04077 15.8502C10.1612 15.8502 10.9857 15.6223 11.5142 15.1665C12.0427 14.7003 12.3069 14.0736 12.3069 13.2863C12.3069 12.8409 12.2118 12.4369 12.0215 12.0744C11.8313 11.7118 11.5459 11.4218 11.1653 11.2042C10.7954 10.9867 10.325 10.8779 9.75425 10.8779H9.54813V9.79023H9.96036C10.3515 9.79023 10.7003 9.75398 11.0068 9.68146C11.3133 9.60895 11.5564 9.48465 11.7361 9.30855C11.863 9.1946 11.9581 9.05475 12.0215 8.88901C12.0849 8.72327 12.1166 8.54199 12.1166 8.34517C12.1166 7.88938 11.9528 7.53718 11.6251 7.28857C11.2975 7.03996 10.8271 6.91565 10.214 6.91565C9.60098 6.91565 9.0989 7.05549 8.70781 7.33518C8.31672 7.61487 8.02605 7.98779 7.83579 8.45394C7.6561 8.92009 7.56625 9.43803 7.56625 10.0078C7.56625 10.7018 7.68252 11.3596 7.91506 11.9811C8.1476 12.5923 8.48584 13.1361 8.92978 13.6127L7.75651 14.3585C7.23858 13.6748 6.84749 12.9808 6.58324 12.2764C6.31899 11.5616 6.18686 10.8106 6.18686 10.0233C6.18686 9.17388 6.3507 8.43322 6.67837 7.80133C7.01661 7.16944 7.48698 6.6774 8.08947 6.32519C8.70253 5.97299 9.42129 5.79689 10.2458 5.79689C10.9645 5.79689 11.5617 5.91084 12.0374 6.13873C12.5236 6.35627 12.8883 6.6515 13.1314 7.02442C13.3745 7.38698 13.496 7.79097 13.496 8.2364C13.496 8.57825 13.4379 8.88901 13.3216 9.1687C13.2054 9.44839 13.0098 9.697 12.735 9.91454C12.4707 10.1217 12.1061 10.303 11.641 10.4584L11.5142 10.303C12.2435 10.5827 12.7826 10.9711 13.1314 11.4684C13.4908 11.9552 13.6704 12.5509 13.6704 13.2553C13.6704 14.0736 13.4802 14.7573 13.0997 15.3063C12.7297 15.8657 12.1959 16.2852 11.4983 16.5649C10.8112 16.855 9.9815 17 9.00906 17C7.81465 17 6.76293 16.7358 5.85391 16.2075C4.95545 15.6896 4.25255 14.9334 3.74519 13.939C3.2484 12.9341 3 11.7222 3 10.303C3 9.05993 3.19026 7.98261 3.57078 7.07103C3.9513 6.14909 4.46923 5.38772 5.12458 4.7869C5.79049 4.18609 6.55681 3.74066 7.42356 3.45061C8.2903 3.1502 9.20461 3 10.1665 3Z" fill="white"/>
</svg>
