<svg width="120" height="32" viewBox="0 0 120 32" fill="none" xmlns="http://www.w3.org/2000/svg">
<path d="M28.8987 9.09391C28.7014 9.08712 28.5047 9.11922 28.3207 9.18826C28.1367 9.25729 27.9693 9.3618 27.8287 9.49538C27.6881 9.62896 27.5772 9.78881 27.503 9.96512C27.4287 10.1414 27.3925 10.3305 27.3967 10.5208C27.4131 10.8938 27.5784 11.2462 27.858 11.5045C28.1377 11.7629 28.51 11.9071 28.8973 11.9071C29.2846 11.9071 29.657 11.7629 29.9366 11.5045C30.2162 11.2462 30.3815 10.8938 30.398 10.5208C30.4025 10.3306 30.3667 10.1416 30.2927 9.96531C30.2187 9.78901 30.1081 9.62913 29.9677 9.49551C29.8273 9.36189 29.6601 9.25734 29.4762 9.18828C29.2924 9.11922 29.0959 9.0871 28.8987 9.09391ZM80.0719 12.9128C77.0706 12.9128 74.8677 15.0909 74.8677 17.9629C74.8677 20.9888 77.2275 22.9974 80.1097 22.9974C82.5454 22.9974 84.456 21.607 84.9432 19.635H82.5075C82.1557 20.4984 81.2978 20.9888 80.1503 20.9888C78.6483 20.9888 77.5198 20.0863 77.2654 18.5081H85V17.6395C85 14.8588 82.8972 12.9128 80.0719 12.9128ZM77.4007 16.8934C77.7715 15.5422 78.8243 14.8849 80.0313 14.8849C81.3573 14.8849 82.3695 15.6152 82.6049 16.8934H77.4007ZM20.3495 12.9128C19.6572 12.8983 18.9689 13.0187 18.3261 13.2669C17.6832 13.515 17.0989 13.8858 16.6084 14.3569C16.1178 14.8281 15.7311 15.3899 15.4713 16.0086C15.2115 16.6274 15.0841 17.2903 15.0966 17.9577C15.0966 20.8506 17.3374 22.9922 20.3387 22.9922C21.0349 23.0117 21.7279 22.8948 22.3758 22.6484C23.0237 22.402 23.6128 22.0313 24.1076 21.5588C24.6024 21.0863 24.9924 20.5219 25.254 19.8997C25.5156 19.2775 25.6433 18.6106 25.6295 17.9394C25.6295 15.0857 23.3887 12.9128 20.3495 12.9128ZM20.3685 20.9132C18.6933 20.9132 17.4646 19.6533 17.4646 17.9629C17.4646 16.2726 18.6743 14.9996 20.3495 14.9996C22.0247 14.9996 23.2723 16.2752 23.2723 17.9655C23.2723 19.6559 22.0437 20.908 20.3685 20.908V20.9132ZM37.3991 12.9128C35.8782 12.9128 34.885 13.5128 34.3004 14.3579V13.0954H31.9811V22.8044H34.3113V17.5273C34.3113 16.043 35.2936 14.9996 36.7469 14.9996C38.1001 14.9996 38.9282 15.9204 38.9282 17.2534V22.8044H41.2664V17.0865C41.2556 14.6344 39.9512 12.9128 37.3991 12.9128ZM9.22397 14.9996C9.79971 14.9952 10.3614 15.1707 10.8249 15.4999C11.2885 15.8291 11.6288 16.2943 11.795 16.8256H14.2685C13.822 14.4962 11.8328 12.9128 9.24292 12.9128C8.55148 12.8997 7.8644 13.0212 7.2228 13.27C6.5812 13.5188 5.99826 13.8898 5.50886 14.3608C5.01946 14.8318 4.63366 15.3931 4.37455 16.0111C4.11544 16.6291 3.98833 17.2912 4.00084 17.9577C4.00084 20.8506 6.24165 22.9922 9.24292 22.9922C11.776 22.9922 13.803 21.4271 14.2495 19.0794H11.795C11.6362 19.6126 11.3008 20.0812 10.8401 20.4137C10.3794 20.7462 9.81847 20.9243 9.24292 20.921C7.54608 20.921 6.35802 19.6611 6.35802 17.9707C6.35802 16.2804 7.51901 14.9996 9.22397 14.9996ZM26.2736 15.1118H27.735V22.8044H30.0732V13.0954H26.2844L26.2736 15.1118ZM63.2171 16.4161C63.2171 14.3136 61.891 12.905 59.0846 12.905C56.4351 12.905 54.9548 14.2092 54.6625 16.1917H56.9818C57.0982 15.4092 57.7206 14.7831 59.0467 14.7831C60.2348 14.7831 60.8193 15.2892 60.8193 15.91C60.8193 16.716 59.7368 16.9221 58.4243 17.0552C56.63 17.243 54.4081 17.8377 54.4081 20.0967C54.4081 21.8444 55.7613 22.9661 57.8965 22.9661C59.5717 22.9661 60.6245 22.2905 61.1441 21.2184C61.2199 22.1757 61.956 22.7965 62.9952 22.7965H64.3483V20.788H63.1982L63.2171 16.4161ZM60.9168 18.8576C60.9168 20.1619 59.7476 21.1114 58.3268 21.1114C57.45 21.1114 56.7031 20.7541 56.7031 20.0028C56.7031 19.0455 57.8911 18.782 58.9818 18.6698C60.0724 18.5577 60.6055 18.3516 60.9113 17.9186L60.9168 18.8576ZM70.7 17.016L68.9842 16.7734C68.1723 16.6613 67.5823 16.3978 67.5823 15.777C67.5823 15.1014 68.3401 14.7623 69.3739 14.7623C70.5051 14.7623 71.225 15.2318 71.382 16.0039H73.6417C73.3873 14.0501 71.8285 12.905 69.4334 12.905C66.9572 12.905 65.3199 14.1258 65.3199 15.8526C65.3199 17.5064 66.4024 18.4612 68.5674 18.7637L70.2805 19.0089C71.1195 19.1211 71.5876 19.4394 71.5876 20.0524C71.5876 20.8219 70.7758 21.1401 69.6391 21.1401C68.2535 21.1401 67.4741 20.5949 67.3577 19.7706H65.0601C65.2739 21.667 66.8138 23 69.6175 23C72.1722 23 73.8663 21.8731 73.8663 19.9376C73.8555 18.2029 72.6269 17.3004 70.7 17.0186V17.016ZM48.5057 12.9128C47.9007 12.9045 47.3014 13.0267 46.7517 13.2704C46.202 13.5141 45.7157 13.8732 45.3285 14.3214V9H42.9903V22.8044H45.2907V21.521C45.676 21.9845 46.1657 22.3574 46.7228 22.6114C47.2798 22.8654 47.8895 22.9938 48.5057 22.987C51.3121 22.987 53.4339 20.8454 53.4339 17.9525C53.4339 15.0596 51.2716 12.9128 48.5057 12.9128ZM48.1539 20.9132C46.4787 20.9132 45.2501 19.6533 45.2501 17.9629C45.2501 16.2726 46.4895 14.9996 48.1729 14.9996C49.8562 14.9996 51.0578 16.2569 51.0578 17.9655C51.0578 19.6741 49.8291 20.908 48.1539 20.908V20.9132Z" fill="#EDFCF7" fill-opacity="0.62"/>
<path d="M89 13H90.84L95.7931 20.841H95.8095V13H97.2854V23H95.533L90.5059 14.9629H90.4922V23H89V13Z" fill="#EDFCF7" fill-opacity="0.62"/>
<path d="M106.504 13V14.3077H101.141V17.3797H106.094V18.6874H101.141V23H99.6045V13H106.504Z" fill="#EDFCF7" fill-opacity="0.62"/>
<path d="M107.715 13V14.3077H111.091V23H112.624V14.3077H116V13H107.715Z" fill="#EDFCF7" fill-opacity="0.62"/>
</svg>
