<svg width="120" height="32" viewBox="0 0 120 32" fill="none" xmlns="http://www.w3.org/2000/svg">
<g id="Logo/OpenSea">
<g id="Union">
<path fill-rule="evenodd" clip-rule="evenodd" d="M14.0004 15.6241C13.9444 9.18039 19.3947 3.94669 26.105 4.00047C32.6214 4.05425 37.9455 9.16695 37.9996 15.4224C38.0576 21.8661 32.6053 27.1017 25.895 27.046C19.3807 26.9941 14.0564 21.8814 14.0004 15.6241ZM23.7449 13.1445C23.7449 11.8578 23.2849 10.6727 22.5169 9.73545L18.6486 16.1618H22.8089C23.4008 15.2957 23.7449 14.2585 23.7449 13.1445ZM35.1195 17.706C35.1715 17.6849 35.2014 17.6388 35.2014 17.585V16.7553C35.2014 16.6708 35.1154 16.6075 35.0294 16.6305C35.0294 16.6305 30.9193 17.537 30.8713 17.5504C30.8233 17.5639 30.8052 17.5908 30.8052 17.5908C30.3892 18.1266 29.5132 19.0159 29.0252 19.0159H26.761V17.5889H28.5652C28.8231 17.5889 29.0692 17.489 29.2472 17.3123C30.1732 16.3904 30.7092 15.2938 30.7092 14.1163C30.7092 12.1093 29.1472 10.3347 26.761 9.2649V8.3065C26.761 7.89357 26.413 7.55938 25.983 7.55938C25.553 7.55938 25.205 7.89357 25.205 8.3065V8.70408C24.537 8.51585 23.8289 8.37373 23.0888 8.29114C24.3129 9.56836 25.061 11.2758 25.061 13.1484C25.061 14.827 24.463 16.3693 23.4589 17.5908H25.205V19.0197H22.6488C22.3028 19.0197 22.0228 18.7509 22.0228 18.4186V17.7944C22.0228 17.6849 21.9308 17.5946 21.8148 17.5946H18.4446C18.3786 17.5946 18.3226 17.6465 18.3226 17.7098C18.3206 20.2662 20.4267 22.1849 22.9448 22.1849H30.0552C31.35 22.1849 32.1009 20.9741 32.8247 19.8069C33.0535 19.438 33.2796 19.0734 33.5194 18.7528C33.9074 18.2361 34.8374 17.8212 35.1195 17.706Z" fill="#EDFCF7" fill-opacity="0.62"/>
<path fill-rule="evenodd" clip-rule="evenodd" d="M45.1336 19.8829C45.928 20.3109 46.7999 20.5249 47.7494 20.5249C48.6988 20.5249 49.5708 20.3109 50.3652 19.8829C51.1596 19.455 51.7845 18.8643 52.2399 18.1107C52.7049 17.3478 52.9375 16.4873 52.9375 15.529C52.9375 14.5801 52.7049 13.7289 52.2399 12.9753C51.7845 12.2124 51.1596 11.617 50.3652 11.1891C49.5805 10.7612 48.7085 10.5472 47.7494 10.5472C46.7999 10.5472 45.928 10.7612 45.1336 11.1891C44.3391 11.617 43.7095 12.2124 43.2444 12.9753C42.7794 13.7289 42.5469 14.5801 42.5469 15.529C42.5469 16.4873 42.7794 17.3478 43.2444 18.1107C43.7095 18.8643 44.3391 19.455 45.1336 19.8829ZM49.3625 18.3897C48.8975 18.6502 48.3598 18.7805 47.7494 18.7805C47.1391 18.7805 46.5965 18.6502 46.1218 18.3897C45.6567 18.12 45.2935 17.7385 45.0319 17.2455C44.7703 16.7524 44.6395 16.1803 44.6395 15.529C44.6395 14.8778 44.7703 14.3103 45.0319 13.8266C45.2935 13.3335 45.6567 12.9567 46.1218 12.6962C46.5965 12.4357 47.1391 12.3054 47.7494 12.3054C48.3598 12.3054 48.8975 12.4357 49.3625 12.6962C49.8275 12.9567 50.1908 13.3335 50.4524 13.8266C50.714 14.3103 50.8448 14.8778 50.8448 15.529C50.8448 16.1803 50.714 16.7524 50.4524 17.2455C50.1908 17.7385 49.8275 18.12 49.3625 18.3897Z" fill="#EDFCF7" fill-opacity="0.62"/>
<path fill-rule="evenodd" clip-rule="evenodd" d="M56.9791 12.9335C56.5237 13.166 56.1653 13.4591 55.9037 13.8126V12.6962H53.8691V24.1113H55.9037V19.3247C56.1847 19.6783 56.5479 19.9713 56.9936 20.2039C57.4489 20.4365 57.9721 20.5528 58.5631 20.5528C59.2509 20.5528 59.8709 20.3853 60.4232 20.0504C60.9851 19.7155 61.4259 19.2457 61.7457 18.641C62.0751 18.027 62.2397 17.3246 62.2397 16.5338C62.2397 15.7431 62.0751 15.0499 61.7457 14.4545C61.4259 13.8498 60.9851 13.3846 60.4232 13.0591C59.8709 12.7334 59.2509 12.5706 58.5631 12.5706C57.9721 12.5706 57.4441 12.6916 56.9791 12.9335ZM59.8564 15.3337C60.0599 15.6686 60.1616 16.0686 60.1616 16.5338C60.1616 17.0083 60.0599 17.4176 59.8564 17.7618C59.6627 18.1061 59.4011 18.3712 59.0717 18.5572C58.752 18.7433 58.4032 18.8363 58.0254 18.8363C57.6573 18.8363 57.3085 18.7479 56.9791 18.5712C56.6593 18.3852 56.3978 18.12 56.1943 17.7757C56.0005 17.4316 55.9037 17.0269 55.9037 16.5617C55.9037 16.0966 56.0005 15.6918 56.1943 15.3476C56.3978 15.0034 56.6593 14.7429 56.9791 14.5662C57.3085 14.3801 57.6573 14.2871 58.0254 14.2871C58.4032 14.2871 58.752 14.3754 59.0717 14.5522C59.4011 14.729 59.6627 14.9895 59.8564 15.3337Z" fill="#EDFCF7" fill-opacity="0.62"/>
<path fill-rule="evenodd" clip-rule="evenodd" d="M71.057 16.3943C71.057 16.6734 71.0376 16.9245 70.9989 17.1478H65.1133C65.1618 17.706 65.3652 18.1433 65.7237 18.4596C66.0822 18.7759 66.523 18.934 67.0461 18.934C67.8018 18.934 68.3395 18.6224 68.6592 17.999H70.8536C70.6211 18.7433 70.1754 19.3573 69.5166 19.8411C68.8578 20.3156 68.0489 20.5528 67.0897 20.5528C66.3147 20.5528 65.6171 20.39 64.9971 20.0643C64.3868 19.7294 63.9071 19.2597 63.5584 18.6549C63.2193 18.0502 63.0498 17.3525 63.0498 16.5617C63.0498 15.7617 63.2193 15.0592 63.5584 14.4545C63.8975 13.8498 64.3722 13.3846 64.9826 13.0591C65.5929 12.7334 66.2953 12.5706 67.0897 12.5706C67.8551 12.5706 68.5381 12.7288 69.1388 13.0451C69.7492 13.3614 70.2191 13.8126 70.5485 14.3987C70.8875 14.9755 71.057 15.6407 71.057 16.3943ZM68.9499 15.8361C68.9402 15.3337 68.7512 14.9336 68.3831 14.6359C68.0149 14.329 67.5645 14.1754 67.0316 14.1754C66.5278 14.1754 66.1015 14.3243 65.7528 14.622C65.4137 14.9104 65.2054 15.3151 65.1279 15.8361H68.9499Z" fill="#EDFCF7" fill-opacity="0.62"/>
<path d="M78.8929 13.4637C78.302 12.8776 77.527 12.5845 76.5678 12.5845C76.064 12.5845 75.599 12.6822 75.1727 12.8776C74.7561 13.0637 74.4122 13.3242 74.141 13.6591V12.6962H72.1064V20.4272H74.141V16.157C74.141 15.543 74.3008 15.0732 74.6205 14.7475C74.9499 14.4126 75.3956 14.2452 75.9575 14.2452C76.5097 14.2452 76.9457 14.4126 77.2653 14.7475C77.5851 15.0732 77.745 15.543 77.745 16.157V20.4272H79.7795V15.8919C79.7795 14.8499 79.484 14.0405 78.8929 13.4637Z" fill="#EDFCF7" fill-opacity="0.62"/>
<path d="M84.4895 20.5249C83.7822 20.5249 83.1428 20.4086 82.5712 20.176C82.0093 19.9434 81.5636 19.6085 81.2342 19.1712C80.9048 18.734 80.7352 18.2177 80.7256 17.6223H82.9054C82.9345 18.0223 83.0798 18.3386 83.3414 18.5712C83.6127 18.8038 83.9808 18.9201 84.4458 18.9201C84.9205 18.9201 85.2935 18.8131 85.5648 18.5991C85.8361 18.3758 85.9717 18.0875 85.9717 17.7339C85.9717 17.4455 85.8797 17.2083 85.6956 17.0222C85.5115 16.8362 85.279 16.692 84.998 16.5896C84.7268 16.478 84.349 16.3571 83.8645 16.2268C83.2058 16.0407 82.6681 15.8593 82.2514 15.6826C81.8445 15.4965 81.4909 15.2221 81.1906 14.8592C80.9 14.4871 80.7546 13.994 80.7546 13.38C80.7546 12.8032 80.9048 12.3009 81.2051 11.8729C81.5055 11.4449 81.9269 11.1193 82.4695 10.896C83.012 10.6635 83.632 10.5472 84.3296 10.5472C85.3759 10.5472 86.2236 10.7937 86.8727 11.2868C87.5315 11.7705 87.8948 12.4497 87.9626 13.3242H85.7247C85.7053 12.9893 85.5552 12.7148 85.2742 12.5009C85.0029 12.2776 84.6396 12.1659 84.1842 12.1659C83.787 12.1659 83.4673 12.2636 83.2251 12.459C82.9926 12.6544 82.8764 12.9381 82.8764 13.3102C82.8764 13.5707 82.9635 13.7894 83.1379 13.9661C83.322 14.1335 83.5448 14.2731 83.8064 14.3848C84.0777 14.4871 84.4555 14.6081 84.9399 14.7476C85.5987 14.9336 86.1364 15.1197 86.553 15.3058C86.9696 15.4918 87.328 15.7709 87.6284 16.143C87.9287 16.5152 88.0789 17.0036 88.0789 17.6083C88.0789 18.1293 87.9384 18.613 87.6575 19.0596C87.3765 19.5061 86.9648 19.8643 86.4222 20.1342C85.8797 20.3946 85.2354 20.5249 84.4895 20.5249Z" fill="#EDFCF7" fill-opacity="0.62"/>
<path fill-rule="evenodd" clip-rule="evenodd" d="M96.6876 17.1478C96.7259 16.9245 96.7458 16.6734 96.7458 16.3943C96.7458 15.6407 96.576 14.9755 96.2371 14.3987C95.9078 13.8126 95.4373 13.3614 94.8273 13.0451C94.2269 12.7288 93.5436 12.5706 92.7782 12.5706C91.9838 12.5706 91.2814 12.7334 90.6711 13.0591C90.0607 13.3846 89.586 13.8498 89.2469 14.4545C88.9078 15.0592 88.7383 15.7617 88.7383 16.5617C88.7383 17.3525 88.9078 18.0502 89.2469 18.6549C89.5957 19.2597 90.0752 19.7294 90.6856 20.0643C91.3057 20.39 92.0032 20.5528 92.7782 20.5528C93.7374 20.5528 94.5466 20.3156 95.2053 19.8411C95.8639 19.3573 96.3096 18.7433 96.5425 17.999H94.3481C94.0283 18.6224 93.4904 18.934 92.7347 18.934C92.2115 18.934 91.7706 18.7759 91.4122 18.4596C91.0537 18.1433 90.8503 17.706 90.8019 17.1478H96.6876ZM94.0714 14.6359C94.4398 14.9336 94.6288 15.3337 94.6383 15.8361H90.8164C90.8939 15.3151 91.1022 14.9104 91.4412 14.622C91.79 14.3243 92.2163 14.1754 92.7201 14.1754C93.253 14.1754 93.7035 14.329 94.0714 14.6359Z" fill="#EDFCF7" fill-opacity="0.62"/>
<path fill-rule="evenodd" clip-rule="evenodd" d="M97.417 16.5338C97.417 15.7523 97.5773 15.0592 97.897 14.4545C98.2263 13.8498 98.6673 13.3846 99.2191 13.0591C99.7812 12.7334 100.406 12.5706 101.094 12.5706C101.695 12.5706 102.218 12.6869 102.664 12.9195C103.119 13.1521 103.482 13.4451 103.754 13.7986V12.6962H105.802V20.4272H103.754V19.2969C103.491 19.6597 103.129 19.962 102.664 20.2039C102.208 20.4365 101.68 20.5528 101.079 20.5528C100.402 20.5528 99.7812 20.3853 99.2191 20.0504C98.6673 19.7155 98.2263 19.2457 97.897 18.641C97.5773 18.027 97.417 17.3246 97.417 16.5338ZM103.754 16.5617C103.754 16.0872 103.656 15.6826 103.463 15.3476C103.269 15.0034 103.007 14.7429 102.678 14.5662C102.349 14.3801 101.995 14.2871 101.617 14.2871C101.24 14.2871 100.89 14.3754 100.571 14.5522C100.251 14.729 99.9893 14.9895 99.786 15.3337C99.5922 15.6686 99.4958 16.0686 99.4958 16.5338C99.4958 16.9989 99.5922 17.4083 99.786 17.7618C99.9893 18.1061 100.251 18.3711 100.571 18.5572C100.9 18.7433 101.249 18.8363 101.617 18.8363C101.995 18.8363 102.349 18.7479 102.678 18.5712C103.007 18.3852 103.269 18.1247 103.463 17.7898C103.656 17.4455 103.754 17.0362 103.754 16.5617Z" fill="#EDFCF7" fill-opacity="0.62"/>
</g>
</g>
</svg>
