<svg width="49" height="56" viewBox="0 0 49 56" fill="none" xmlns="http://www.w3.org/2000/svg">
<g filter="url(#filter0_dddd_357_3325)">
<path d="M24.6665 6C34.6076 6 42.6665 14.0589 42.6665 24C42.6665 33.9411 34.6076 42 24.6665 42C14.7254 42 6.6665 33.9411 6.6665 24C6.66652 14.0589 14.7254 6 24.6665 6ZM24.6665 8.25C15.968 8.25 8.9165 15.3015 8.9165 24C8.9165 32.6985 15.968 39.75 24.6665 39.75C33.365 39.75 40.4165 32.6985 40.4165 24C40.4165 15.3015 33.365 8.25 24.6665 8.25ZM24.6665 9.25C32.8127 9.25 39.4165 15.8538 39.4165 24C39.4165 32.1462 32.8127 38.75 24.6665 38.75C16.5203 38.75 9.9165 32.1462 9.9165 24C9.9165 15.8538 16.5203 9.25 24.6665 9.25ZM13.4165 19.5V28.5H19.5815V19.5H13.4165ZM20.2114 19.5V28.5H24.8511V19.5H20.2114ZM25.4868 19.5V28.5H30.0474V19.5H25.4868ZM30.6763 19.5V28.5H35.9165V19.5H30.6763ZM27.7632 21.5469C28.1003 21.5469 28.4216 21.5999 28.7271 21.7061C29.0325 21.8069 29.2668 21.945 29.4302 22.1201L29.478 23.2432L28.6323 23.3232L28.561 22.7178C28.4293 22.6275 28.2947 22.566 28.1577 22.5342C28.0262 22.5024 27.8973 22.4864 27.771 22.4863C27.5602 22.4863 27.383 22.5243 27.2407 22.5986C27.1041 22.673 27.0357 22.8028 27.0356 22.9883C27.0356 23.2059 27.1252 23.3574 27.3042 23.4424C27.4832 23.5273 27.6888 23.5963 27.9204 23.6494C28.1312 23.6919 28.3765 23.7534 28.6558 23.833C28.9403 23.9073 29.1882 24.0503 29.3989 24.2627C29.6149 24.4698 29.7231 24.7937 29.7231 25.2344C29.7231 25.7707 29.5434 26.1795 29.1851 26.4609C28.8268 26.7423 28.3344 26.8828 27.7075 26.8828C27.3599 26.8828 27.0122 26.8382 26.6646 26.748C26.3221 26.6578 26.0503 26.5223 25.8501 26.3418L26.0083 25.0596L26.854 25.1387L26.8462 25.7686C27.0251 25.864 27.1779 25.9221 27.3042 25.9434C27.4307 25.9593 27.5388 25.9668 27.6284 25.9668C27.9077 25.9668 28.1368 25.9323 28.3159 25.8633C28.495 25.789 28.5844 25.6223 28.5845 25.3623C28.5845 25.0757 28.4797 24.8837 28.269 24.7881C28.0583 24.6872 27.8103 24.6107 27.5259 24.5576C27.2782 24.5151 27.0278 24.4537 26.7749 24.374C26.5273 24.2891 26.3195 24.1536 26.1509 23.9678C25.9823 23.7766 25.898 23.4956 25.8979 23.124C25.8979 22.5454 26.0922 22.1389 26.4819 21.9053C26.8718 21.6663 27.2995 21.5469 27.7632 21.5469ZM33.5767 21.5469C34.014 21.5469 34.3914 21.6134 34.7075 21.7461C35.0234 21.8734 35.263 22.0141 35.4263 22.168L35.5532 23.3711L34.6919 23.4502L34.5806 22.7656C34.4436 22.6754 34.2774 22.6064 34.0825 22.5586C33.8877 22.5109 33.7035 22.4863 33.5298 22.4863C33.0872 22.4863 32.7337 22.6353 32.4702 22.9326C32.2121 23.23 32.0835 23.6634 32.0835 24.2314C32.0836 24.8312 32.2258 25.2664 32.5103 25.5371C32.7948 25.8078 33.1585 25.9434 33.6011 25.9434C34.017 25.9433 34.3435 25.8717 34.5806 25.7285L34.6919 24.9561L35.5532 25.0352L35.4497 26.2539C35.2811 26.4396 35.0102 26.5912 34.6362 26.708C34.2675 26.8248 33.8986 26.8828 33.5298 26.8828C32.7975 26.8828 32.1832 26.6472 31.688 26.1748C31.1927 25.6969 30.9448 25.0726 30.9448 24.3027C30.9448 23.8993 31.0293 23.4852 31.1978 23.0605C31.3663 22.6359 31.6433 22.2774 32.0278 21.9854C32.4124 21.6934 32.9287 21.5469 33.5767 21.5469ZM15.1235 21.627L17.7163 24.7012H17.7476V22.5342H17.0044V21.627H19.2886V22.5342H18.7358V26.8037L18.1431 26.8115L15.3843 23.5225H15.353V25.8955H16.064V26.8037H13.812V25.8955H14.3647V22.5342H13.7251V21.627H15.1235ZM24.4556 21.627L24.6138 23.2197L23.7134 23.2988L23.5552 22.5342H22.2114V23.9844H24.3687V24.8838H22.2114V25.8955H23.0493V26.8037H20.5991V25.8955H21.1519V22.5342H20.5991V21.627H24.4556Z" fill="#1CD17D"/>
</g>
<defs>
<filter id="filter0_dddd_357_3325" x="2.6665" y="6" width="44" height="50" filterUnits="userSpaceOnUse" color-interpolation-filters="sRGB">
<feFlood flood-opacity="0" result="BackgroundImageFix"/>
<feColorMatrix in="SourceAlpha" type="matrix" values="0 0 0 0 0 0 0 0 0 0 0 0 0 0 0 0 0 0 127 0" result="hardAlpha"/>
<feOffset dy="1"/>
<feGaussianBlur stdDeviation="0.5"/>
<feColorMatrix type="matrix" values="0 0 0 0 0.709804 0 0 0 0 0.878431 0 0 0 0 0.168627 0 0 0 0.1 0"/>
<feBlend mode="normal" in2="BackgroundImageFix" result="effect1_dropShadow_357_3325"/>
<feColorMatrix in="SourceAlpha" type="matrix" values="0 0 0 0 0 0 0 0 0 0 0 0 0 0 0 0 0 0 127 0" result="hardAlpha"/>
<feOffset dy="2"/>
<feGaussianBlur stdDeviation="1"/>
<feColorMatrix type="matrix" values="0 0 0 0 0.709804 0 0 0 0 0.878431 0 0 0 0 0.168627 0 0 0 0.09 0"/>
<feBlend mode="normal" in2="effect1_dropShadow_357_3325" result="effect2_dropShadow_357_3325"/>
<feColorMatrix in="SourceAlpha" type="matrix" values="0 0 0 0 0 0 0 0 0 0 0 0 0 0 0 0 0 0 127 0" result="hardAlpha"/>
<feOffset dy="5"/>
<feGaussianBlur stdDeviation="1.5"/>
<feColorMatrix type="matrix" values="0 0 0 0 0.709804 0 0 0 0 0.878431 0 0 0 0 0.168627 0 0 0 0.05 0"/>
<feBlend mode="normal" in2="effect2_dropShadow_357_3325" result="effect3_dropShadow_357_3325"/>
<feColorMatrix in="SourceAlpha" type="matrix" values="0 0 0 0 0 0 0 0 0 0 0 0 0 0 0 0 0 0 127 0" result="hardAlpha"/>
<feOffset dy="10"/>
<feGaussianBlur stdDeviation="2"/>
<feColorMatrix type="matrix" values="0 0 0 0 0.709804 0 0 0 0 0.878431 0 0 0 0 0.168627 0 0 0 0.01 0"/>
<feBlend mode="normal" in2="effect3_dropShadow_357_3325" result="effect4_dropShadow_357_3325"/>
<feBlend mode="normal" in="SourceGraphic" in2="effect4_dropShadow_357_3325" result="shape"/>
</filter>
</defs>
</svg>
