<svg width="48" height="48" viewBox="0 0 48 48" fill="none" xmlns="http://www.w3.org/2000/svg">
<g clip-path="url(#clip0_357_3319)">
<g filter="url(#filter0_dddd_357_3319)">
<path d="M11.1667 26.4784H22.75V38.4567C22.75 38.589 22.6973 38.716 22.6036 38.8096C22.5098 38.9032 22.3826 38.9558 22.25 38.9558H15.6667C14.9875 39.0525 14.2951 38.9901 13.6443 38.7735C12.9934 38.5569 12.4021 38.192 11.9169 37.7078C11.4318 37.2235 11.0663 36.6332 10.8493 35.9836C10.6323 35.3339 10.5698 34.6428 10.6667 33.9648V26.9775C10.6667 26.9119 10.6796 26.847 10.7047 26.7865C10.7299 26.7259 10.7667 26.6709 10.8131 26.6246C10.8595 26.5782 10.9147 26.5415 10.9753 26.5164C11.036 26.4913 11.101 26.4784 11.1667 26.4784ZM36.8333 26.4784H25.25V38.4567C25.25 38.5222 25.2629 38.5871 25.2881 38.6477C25.3132 38.7082 25.35 38.7632 25.3964 38.8096C25.4429 38.8559 25.498 38.8927 25.5587 38.9178C25.6193 38.9429 25.6843 38.9558 25.75 38.9558H32.3333C33.0125 39.0525 33.7049 38.9901 34.3557 38.7735C35.0066 38.5569 35.5979 38.192 36.0831 37.7078C36.5682 37.2235 36.9337 36.6332 37.1507 35.9836C37.3677 35.3339 37.4302 34.6428 37.3333 33.9648V26.9775C37.3333 26.9119 37.3204 26.847 37.2953 26.7865C37.2701 26.7259 37.2333 26.6709 37.1869 26.6246C37.1405 26.5782 37.0853 26.5415 37.0247 26.5164C36.964 26.4913 36.899 26.4784 36.8333 26.4784ZM39 18.1602V23.4838C39 23.6162 38.9473 23.7431 38.8536 23.8367C38.7598 23.9303 38.6326 23.9829 38.5 23.9829H25.25V18.1602H22.75V23.9829H9.5C9.36739 23.9829 9.24021 23.9303 9.14645 23.8367C9.05268 23.7431 9 23.6162 9 23.4838V18.1602C9 17.4983 9.26339 16.8636 9.73223 16.3956C10.2011 15.9276 10.837 15.6647 11.5 15.6647H13.275C12.9812 15.1187 12.8064 14.5169 12.7619 13.8988C12.7173 13.2807 12.8042 12.6601 13.0167 12.0778C13.2803 11.31 13.7448 10.6264 14.362 10.0979C14.9792 9.56945 15.7268 9.21527 16.5272 9.07207C17.3276 8.92886 18.1518 9.00184 18.9145 9.28345C19.6772 9.56506 20.3506 10.0451 20.865 10.6737C20.9183 10.7403 22.7933 13.2291 24 14.8329L27.1233 10.6887C27.6261 10.0684 28.2834 9.59097 29.0293 9.30418C29.7752 9.0174 30.5835 8.93137 31.3733 9.05472C32.163 9.17807 32.9063 9.50646 33.5288 10.007C34.1513 10.5075 34.6311 11.1626 34.92 11.9065C35.1674 12.5084 35.2783 13.1576 35.2446 13.8074C35.2109 14.4572 35.0334 15.0915 34.725 15.6647H36.5C37.163 15.6647 37.7989 15.9276 38.2678 16.3956C38.7366 16.8636 39 17.4983 39 18.1602ZM21.5 15.6647C20.3683 14.1674 19 12.3573 18.9133 12.2392C18.7215 12.0071 18.48 11.8207 18.2066 11.6937C17.9332 11.5668 17.6348 11.5025 17.3333 11.5056C16.7808 11.5056 16.2509 11.7246 15.8602 12.1146C15.4695 12.5046 15.25 13.0336 15.25 13.5851C15.25 14.1366 15.4695 14.6656 15.8602 15.0556C16.2509 15.4456 16.7808 15.6647 17.3333 15.6647H21.5ZM32.75 13.5851C32.7491 13.0339 32.5293 12.5054 32.1388 12.1156C31.7483 11.7258 31.2189 11.5064 30.6667 11.5056C30.3596 11.5037 30.056 11.571 29.7787 11.7027C29.5013 11.8344 29.2573 12.0269 29.065 12.2658C28.9867 12.3673 27.6283 14.1674 26.5 15.6647H30.6667C31.2189 15.6638 31.7483 15.4444 32.1388 15.0546C32.5293 14.6648 32.7491 14.1364 32.75 13.5851Z" fill="#1CD17D"/>
</g>
</g>
<defs>
<filter id="filter0_dddd_357_3319" x="5" y="9" width="38" height="44" filterUnits="userSpaceOnUse" color-interpolation-filters="sRGB">
<feFlood flood-opacity="0" result="BackgroundImageFix"/>
<feColorMatrix in="SourceAlpha" type="matrix" values="0 0 0 0 0 0 0 0 0 0 0 0 0 0 0 0 0 0 127 0" result="hardAlpha"/>
<feOffset dy="1"/>
<feGaussianBlur stdDeviation="0.5"/>
<feColorMatrix type="matrix" values="0 0 0 0 0.709804 0 0 0 0 0.878431 0 0 0 0 0.168627 0 0 0 0.1 0"/>
<feBlend mode="normal" in2="BackgroundImageFix" result="effect1_dropShadow_357_3319"/>
<feColorMatrix in="SourceAlpha" type="matrix" values="0 0 0 0 0 0 0 0 0 0 0 0 0 0 0 0 0 0 127 0" result="hardAlpha"/>
<feOffset dy="2"/>
<feGaussianBlur stdDeviation="1"/>
<feColorMatrix type="matrix" values="0 0 0 0 0.709804 0 0 0 0 0.878431 0 0 0 0 0.168627 0 0 0 0.09 0"/>
<feBlend mode="normal" in2="effect1_dropShadow_357_3319" result="effect2_dropShadow_357_3319"/>
<feColorMatrix in="SourceAlpha" type="matrix" values="0 0 0 0 0 0 0 0 0 0 0 0 0 0 0 0 0 0 127 0" result="hardAlpha"/>
<feOffset dy="5"/>
<feGaussianBlur stdDeviation="1.5"/>
<feColorMatrix type="matrix" values="0 0 0 0 0.709804 0 0 0 0 0.878431 0 0 0 0 0.168627 0 0 0 0.05 0"/>
<feBlend mode="normal" in2="effect2_dropShadow_357_3319" result="effect3_dropShadow_357_3319"/>
<feColorMatrix in="SourceAlpha" type="matrix" values="0 0 0 0 0 0 0 0 0 0 0 0 0 0 0 0 0 0 127 0" result="hardAlpha"/>
<feOffset dy="10"/>
<feGaussianBlur stdDeviation="2"/>
<feColorMatrix type="matrix" values="0 0 0 0 0.709804 0 0 0 0 0.878431 0 0 0 0 0.168627 0 0 0 0.01 0"/>
<feBlend mode="normal" in2="effect3_dropShadow_357_3319" result="effect4_dropShadow_357_3319"/>
<feBlend mode="normal" in="SourceGraphic" in2="effect4_dropShadow_357_3319" result="shape"/>
</filter>
<clipPath id="clip0_357_3319">
<rect width="48" height="48" fill="white"/>
</clipPath>
</defs>
</svg>
