<svg width="16" height="16" viewBox="0 0 16 16" fill="none" xmlns="http://www.w3.org/2000/svg">
<path d="M13.4214 3.3335C13.4652 3.33972 13.5094 3.35917 13.5493 3.39209C13.5895 3.42529 13.6246 3.47213 13.646 3.52979C13.6673 3.58747 13.6734 3.65171 13.6636 3.71436L12.2349 12.7935C12.1598 13.2674 11.711 13.4406 11.397 13.2622C10.7617 12.9008 9.82656 12.3484 8.9917 11.7769H8.99268C8.78465 11.6343 8.38958 11.353 8.07178 11.0405C7.9115 10.8829 7.79624 10.7416 7.73193 10.6294C7.71497 10.5997 7.70722 10.5761 7.70068 10.5601C7.70945 10.5452 7.72057 10.5257 7.73584 10.5024C7.79436 10.4131 7.88099 10.2967 7.99658 10.1548C8.22711 9.8717 8.54245 9.52358 8.90186 9.14307C9.62177 8.38088 10.4755 7.5356 11.1147 6.88721C11.2717 6.72786 11.4094 6.54873 11.4927 6.35693C11.5518 6.22059 11.6945 5.80654 11.3892 5.45654C11.0761 5.09807 10.6382 5.1961 10.4927 5.2417C10.2906 5.30504 10.0941 5.42606 9.91357 5.56885C8.46167 6.71694 6.15666 8.44187 5.41846 8.9126C5.10211 9.11421 4.90712 9.20192 4.77197 9.23975C4.6853 9.26396 4.61158 9.27171 4.5249 9.26416L4.43311 9.25146L3.89893 9.14404C3.37932 9.02471 2.9067 8.87099 2.51025 8.69873C2.39416 8.64831 2.32976 8.54588 2.33154 8.40674C2.33347 8.25963 2.40845 8.14981 2.51221 8.104L13.2896 3.35205V3.35303C13.3325 3.33409 13.3776 3.32729 13.4214 3.3335Z" fill="white" stroke="white" stroke-width="1.33"/>
</svg>
