<svg width="13" height="16" viewBox="0 0 13 16" fill="none" xmlns="http://www.w3.org/2000/svg">
<path d="M2.69922 6.32617C2.64068 6.19355 2.58969 6.04967 2.55371 5.89844C2.43458 5.39726 2.47433 4.80159 3.08008 4.18652C3.64789 3.60998 4.28504 3.10151 4.88184 2.67676L2.69922 6.32617Z" fill="white" stroke="white" stroke-width="1.33"/>
<path d="M6.45689 15.1366C6.53448 15.1919 6.63004 15.0977 6.57807 15.0173C5.70984 13.6747 2.82376 9.20762 2.42508 8.53707C2.03185 7.87563 1.25842 6.77642 1.1939 5.836C1.18746 5.74214 1.05977 5.72307 1.02765 5.81135C0.975847 5.95373 0.920695 6.12368 0.869294 6.31782C0.220394 8.76858 1.1628 11.3692 3.2095 12.8257L6.45689 15.1366Z" fill="white"/>
<path d="M6.99098 15.0211L10.878 8.51857C10.9085 8.4676 10.9793 8.46191 11.0171 8.50756C11.3593 8.92062 12.6342 10.678 11.0567 12.2799C9.6172 13.7415 7.7837 14.7836 7.10417 15.1438C7.02708 15.1846 6.94587 15.0966 6.99098 15.0211Z" fill="white"/>
<path d="M7.2102 0.862234C7.13262 0.80703 7.03705 0.901174 7.08902 0.981571C7.95725 2.32415 10.8434 6.79125 11.242 7.46181C11.6353 8.12324 12.4087 9.22245 12.4732 10.1629C12.4796 10.2568 12.6073 10.2758 12.6394 10.1876C12.6912 10.0451 12.7464 9.87519 12.7978 9.68105C13.4467 7.23032 12.5043 4.62974 10.4576 3.17321L7.2102 0.862234Z" fill="white"/>
</svg>
