<svg width="16" height="16" viewBox="0 0 16 16" fill="none" xmlns="http://www.w3.org/2000/svg">
<path d="M5.86182 3.62256L6.06104 4.1001L6.57275 4.02393C7.51816 3.88358 8.47989 3.88359 9.42529 4.02393L9.93115 4.09912L10.1333 3.62939C10.1623 3.56208 10.1981 3.48638 10.2358 3.40771C10.9185 3.55427 11.5748 3.76674 12.1919 4.0376C13.4973 5.98785 14.1515 8.14969 13.9683 10.6284C13.1184 11.211 12.2975 11.607 11.481 11.8901C11.4717 11.8759 11.4628 11.8615 11.4536 11.8472C11.6064 11.7737 11.7583 11.695 11.9077 11.6079C12.1183 11.4938 12.2601 11.2805 12.2749 11.0347C12.2893 10.7931 12.1787 10.5772 12.0083 10.4409L12.0103 10.4399C11.967 10.4051 11.9249 10.3729 11.8911 10.3472C11.8551 10.3198 11.8269 10.2992 11.8003 10.2778L11.7983 10.2798C11.5794 10.0996 11.3179 10.0949 11.1274 10.1587L11.064 10.1841C9.081 11.0852 6.92451 11.0867 4.9126 10.1831H4.91162C4.73288 10.1036 4.46261 10.0802 4.22998 10.2388L4.2085 10.2554C4.16457 10.2868 4.12178 10.3188 4.08838 10.3442C4.05224 10.3717 4.02515 10.3923 3.99951 10.4106L3.95752 10.4409L3.92041 10.478C3.75943 10.6364 3.69862 10.8446 3.70947 11.0278C3.72057 11.2136 3.81691 11.4599 4.06885 11.5991V11.6011C4.07877 11.6066 4.08919 11.6122 4.09912 11.6177V11.6167C4.24091 11.695 4.38407 11.7698 4.52979 11.8403C4.51997 11.8556 4.51042 11.871 4.50049 11.8862C3.69143 11.6032 2.87444 11.2082 2.02881 10.6284C1.87363 8.46582 2.32128 6.28891 3.80908 4.03369C4.42982 3.76351 5.08214 3.55248 5.76123 3.40674C5.79814 3.48282 5.8339 3.55587 5.86182 3.62256ZM5.78955 6.16943C4.69388 6.16946 3.92439 7.12544 3.92432 8.15869C3.92432 9.19677 4.71085 10.1489 5.78955 10.1489C6.81697 10.1489 7.55765 9.30775 7.646 8.35107L7.65479 8.15869C7.6608 7.12824 6.88878 6.16943 5.78955 6.16943ZM10.2153 6.16943C9.11963 6.16943 8.35017 7.12543 8.3501 8.15869C8.3501 9.19679 9.13661 10.1489 10.2153 10.1489C11.2505 10.1488 11.9842 9.30581 12.0718 8.35107L12.0806 8.15869C12.0866 7.12831 11.3144 6.16956 10.2153 6.16943Z" fill="white" stroke="white" stroke-width="1.33"/>
</svg>
