<svg width="1440" height="788" viewBox="0 0 1440 788" fill="none" xmlns="http://www.w3.org/2000/svg">
<g clip-path="url(#clip0_483_4474)">
<path d="M1440 0H0V800H1440V0Z" fill="url(#paint0_linear_483_4474)"/>
<g style="mix-blend-mode:screen" filter="url(#filter0_f_483_4474)">
<path d="M1094.29 529.34C1045.02 512.407 1135.03 252.785 1295.33 -50.5429C1455.63 -353.871 1625.52 -586.039 1674.79 -569.107C1724.06 -552.174 1634.05 -292.551 1473.75 10.7766C1313.45 314.104 1143.56 546.273 1094.29 529.34Z" fill="url(#paint1_radial_483_4474)" style="mix-blend-mode:screen"/>
</g>
<g style="mix-blend-mode:color-dodge" filter="url(#filter1_f_483_4474)">
<path d="M1101.34 531.763C1069.73 520.899 1174.05 266.195 1334.35 -37.1323C1494.65 -340.46 1650.23 -577.548 1681.84 -566.683C1713.45 -555.818 1609.13 -301.115 1448.83 2.21261C1288.53 305.54 1132.95 542.628 1101.34 531.763Z" fill="url(#paint2_radial_483_4474)" style="mix-blend-mode:color-dodge"/>
</g>
<g style="mix-blend-mode:screen" filter="url(#filter2_f_483_4474)">
<path d="M901.711 196.498C865.878 162.676 1086.07 -38.2898 1393.53 -252.371C1700.99 -466.453 1979.29 -612.582 2015.12 -578.76C2050.95 -544.938 1830.76 -343.972 1523.3 -129.891C1215.84 84.1906 937.544 230.32 901.711 196.498Z" fill="url(#paint3_radial_483_4474)" style="mix-blend-mode:screen"/>
</g>
<g style="mix-blend-mode:color-dodge" filter="url(#filter3_f_483_4474)">
<path d="M896.541 194.801C875.23 174.685 1107.2 -15.1689 1414.66 -229.25C1722.12 -443.332 1988.64 -600.572 2009.95 -580.457C2031.26 -560.341 1799.29 -370.487 1491.83 -156.405C1184.37 57.676 917.853 214.916 896.541 194.801Z" fill="url(#paint4_radial_483_4474)" style="mix-blend-mode:color-dodge"/>
</g>
<g style="mix-blend-mode:screen" filter="url(#filter4_f_483_4474)">
<path d="M618.509 -37.0998C598.201 -77.3325 887.002 -210.099 1263.56 -333.642C1640.13 -457.186 1961.85 -524.722 1982.16 -484.49C2002.47 -444.257 1713.67 -311.49 1337.1 -187.947C960.543 -64.4034 638.817 3.13303 618.509 -37.0998Z" fill="url(#paint5_radial_483_4474)" style="mix-blend-mode:screen"/>
</g>
<path style="mix-blend-mode:color-dodge" d="M621.414 -31.3444C608.384 -57.1592 903.084 -178.238 1279.65 -301.781C1656.21 -425.324 1972.03 -504.549 1985.06 -478.734C1998.09 -452.919 1703.39 -331.841 1326.83 -208.297C950.271 -84.754 634.444 -5.52951 621.414 -31.3444Z" fill="url(#paint6_radial_483_4474)"/>
<g style="mix-blend-mode:screen" filter="url(#filter6_f_483_4474)">
<path d="M345.709 529.34C394.978 512.407 304.969 252.785 144.668 -50.5429C-15.6334 -353.871 -185.524 -586.039 -234.793 -569.107C-284.062 -552.174 -194.052 -292.551 -33.7511 10.7766C126.55 314.104 296.44 546.273 345.709 529.34Z" fill="url(#paint7_radial_483_4474)" style="mix-blend-mode:screen"/>
</g>
<g style="mix-blend-mode:color-dodge" filter="url(#filter7_f_483_4474)">
<path d="M338.66 531.763C370.273 520.899 265.95 266.195 105.649 -37.1323C-54.6521 -340.46 -210.229 -577.548 -241.842 -566.683C-273.455 -555.818 -169.132 -301.115 -8.83115 2.21261C151.47 305.54 307.047 542.628 338.66 531.763Z" fill="url(#paint8_radial_483_4474)" style="mix-blend-mode:color-dodge"/>
</g>
<g style="mix-blend-mode:screen" filter="url(#filter8_f_483_4474)">
<path d="M538.289 196.498C574.122 162.676 353.925 -38.2898 46.466 -252.371C-260.993 -466.453 -539.286 -612.582 -575.119 -578.76C-610.952 -544.938 -390.755 -343.972 -83.296 -129.891C224.163 84.1906 502.456 230.32 538.289 196.498Z" fill="url(#paint9_radial_483_4474)" style="mix-blend-mode:screen"/>
</g>
<g style="mix-blend-mode:color-dodge" filter="url(#filter9_f_483_4474)">
<path d="M543.459 194.801C564.77 174.685 332.802 -15.1689 25.3425 -229.25C-282.117 -443.332 -548.638 -600.572 -569.949 -580.457C-591.261 -560.341 -359.292 -370.487 -51.8332 -156.405C255.626 57.676 522.147 214.916 543.459 194.801Z" fill="url(#paint10_radial_483_4474)" style="mix-blend-mode:color-dodge"/>
</g>
<g style="mix-blend-mode:screen" filter="url(#filter10_f_483_4474)">
<path d="M821.491 -37.0998C841.799 -77.3325 552.998 -210.099 176.436 -333.642C-200.125 -457.186 -521.851 -524.722 -542.159 -484.49C-562.467 -444.257 -273.666 -311.49 102.895 -187.947C479.457 -64.4034 801.183 3.13303 821.491 -37.0998Z" fill="url(#paint11_radial_483_4474)" style="mix-blend-mode:screen"/>
</g>
<path style="mix-blend-mode:color-dodge" d="M818.586 -31.3444C831.616 -57.1592 536.916 -178.238 160.355 -301.781C-216.207 -425.324 -532.034 -504.549 -545.064 -478.734C-558.094 -452.919 -263.394 -331.841 113.168 -208.297C489.729 -84.754 805.556 -5.52951 818.586 -31.3444Z" fill="url(#paint12_radial_483_4474)"/>
<path style="mix-blend-mode:screen" d="M720 640C1705.07 640 2503.63 353.462 2503.63 0C2503.63 -353.462 1705.07 -640 720 -640C-265.069 -640 -1063.63 -353.462 -1063.63 0C-1063.63 353.462 -265.069 640 720 640Z" fill="url(#paint13_radial_483_4474)"/>
<path style="mix-blend-mode:screen" d="M720 206.694C1780.39 206.694 2640 114.154 2640 6.10352e-05C2640 -114.154 1780.39 -206.694 720 -206.694C-340.387 -206.694 -1200 -114.154 -1200 6.10352e-05C-1200 114.154 -340.387 206.694 720 206.694Z" fill="url(#paint14_radial_483_4474)"/>
<path style="mix-blend-mode:screen" d="M720.001 86.285C1682.21 86.285 2462.24 47.6539 2462.24 0.000144958C2462.24 -47.6536 1682.21 -86.2847 720.001 -86.2847C-242.212 -86.2847 -1022.24 -47.6536 -1022.24 0.000144958C-1022.24 47.6539 -242.212 86.285 720.001 86.285Z" fill="url(#paint15_radial_483_4474)"/>
</g>
<defs>
<filter id="filter0_f_483_4474" x="980.81" y="-669.977" width="807.463" height="1300.19" filterUnits="userSpaceOnUse" color-interpolation-filters="sRGB">
<feFlood flood-opacity="0" result="BackgroundImageFix"/>
<feBlend mode="normal" in="SourceGraphic" in2="BackgroundImageFix" result="shape"/>
<feGaussianBlur stdDeviation="50" result="effect1_foregroundBlur_483_4474"/>
</filter>
<filter id="filter1_f_483_4474" x="995.694" y="-667.042" width="791.794" height="1299.16" filterUnits="userSpaceOnUse" color-interpolation-filters="sRGB">
<feFlood flood-opacity="0" result="BackgroundImageFix"/>
<feBlend mode="normal" in="SourceGraphic" in2="BackgroundImageFix" result="shape"/>
<feGaussianBlur stdDeviation="50" result="effect1_foregroundBlur_483_4474"/>
</filter>
<filter id="filter2_f_483_4474" x="797.89" y="-683.625" width="1321.05" height="984.987" filterUnits="userSpaceOnUse" color-interpolation-filters="sRGB">
<feFlood flood-opacity="0" result="BackgroundImageFix"/>
<feBlend mode="normal" in="SourceGraphic" in2="BackgroundImageFix" result="shape"/>
<feGaussianBlur stdDeviation="50" result="effect1_foregroundBlur_483_4474"/>
</filter>
<filter id="filter3_f_483_4474" x="795.183" y="-682.19" width="1316.12" height="978.725" filterUnits="userSpaceOnUse" color-interpolation-filters="sRGB">
<feFlood flood-opacity="0" result="BackgroundImageFix"/>
<feBlend mode="normal" in="SourceGraphic" in2="BackgroundImageFix" result="shape"/>
<feGaussianBlur stdDeviation="50" result="effect1_foregroundBlur_483_4474"/>
</filter>
<filter id="filter4_f_483_4474" x="517.5" y="-596.116" width="1565.67" height="670.642" filterUnits="userSpaceOnUse" color-interpolation-filters="sRGB">
<feFlood flood-opacity="0" result="BackgroundImageFix"/>
<feBlend mode="normal" in="SourceGraphic" in2="BackgroundImageFix" result="shape"/>
<feGaussianBlur stdDeviation="50" result="effect1_foregroundBlur_483_4474"/>
</filter>
<filter id="filter6_f_483_4474" x="-348.273" y="-669.977" width="807.463" height="1300.19" filterUnits="userSpaceOnUse" color-interpolation-filters="sRGB">
<feFlood flood-opacity="0" result="BackgroundImageFix"/>
<feBlend mode="normal" in="SourceGraphic" in2="BackgroundImageFix" result="shape"/>
<feGaussianBlur stdDeviation="50" result="effect1_foregroundBlur_483_4474"/>
</filter>
<filter id="filter7_f_483_4474" x="-347.488" y="-667.042" width="791.794" height="1299.16" filterUnits="userSpaceOnUse" color-interpolation-filters="sRGB">
<feFlood flood-opacity="0" result="BackgroundImageFix"/>
<feBlend mode="normal" in="SourceGraphic" in2="BackgroundImageFix" result="shape"/>
<feGaussianBlur stdDeviation="50" result="effect1_foregroundBlur_483_4474"/>
</filter>
<filter id="filter8_f_483_4474" x="-678.94" y="-683.625" width="1321.05" height="984.987" filterUnits="userSpaceOnUse" color-interpolation-filters="sRGB">
<feFlood flood-opacity="0" result="BackgroundImageFix"/>
<feBlend mode="normal" in="SourceGraphic" in2="BackgroundImageFix" result="shape"/>
<feGaussianBlur stdDeviation="50" result="effect1_foregroundBlur_483_4474"/>
</filter>
<filter id="filter9_f_483_4474" x="-671.308" y="-682.19" width="1316.12" height="978.725" filterUnits="userSpaceOnUse" color-interpolation-filters="sRGB">
<feFlood flood-opacity="0" result="BackgroundImageFix"/>
<feBlend mode="normal" in="SourceGraphic" in2="BackgroundImageFix" result="shape"/>
<feGaussianBlur stdDeviation="50" result="effect1_foregroundBlur_483_4474"/>
</filter>
<filter id="filter10_f_483_4474" x="-643.167" y="-596.116" width="1565.67" height="670.642" filterUnits="userSpaceOnUse" color-interpolation-filters="sRGB">
<feFlood flood-opacity="0" result="BackgroundImageFix"/>
<feBlend mode="normal" in="SourceGraphic" in2="BackgroundImageFix" result="shape"/>
<feGaussianBlur stdDeviation="50" result="effect1_foregroundBlur_483_4474"/>
</filter>
<linearGradient id="paint0_linear_483_4474" x1="720" y1="721.6" x2="720" y2="0" gradientUnits="userSpaceOnUse">
<stop stop-color="#0A0A0A" stop-opacity="0"/>
<stop offset="0.990501" stop-color="#1B0D04"/>
</linearGradient>
<radialGradient id="paint1_radial_483_4474" cx="0" cy="0" r="1" gradientUnits="userSpaceOnUse" gradientTransform="translate(1408.28 -28.961) rotate(117.855) scale(620.337 63.8924)">
<stop stop-color="#926100"/>
<stop offset="1" stop-opacity="0"/>
</radialGradient>
<radialGradient id="paint2_radial_483_4474" cx="0" cy="0" r="1" gradientUnits="userSpaceOnUse" gradientTransform="translate(1442.29 -37.8667) rotate(124.281) scale(655.272 37.0126)">
<stop stop-color="#945700"/>
<stop offset="1"/>
</radialGradient>
<radialGradient id="paint3_radial_483_4474" cx="0" cy="0" r="1" gradientUnits="userSpaceOnUse" gradientTransform="translate(1451.1 -212.351) rotate(145.151) scale(677.418 86.501)">
<stop stop-color="#D1A41C"/>
<stop offset="1"/>
</radialGradient>
<radialGradient id="paint4_radial_483_4474" cx="0" cy="0" r="1" gradientUnits="userSpaceOnUse" gradientTransform="translate(1467.47 -194.196) rotate(145.151) scale(677.418 52.8617)">
<stop stop-color="#E6A219"/>
<stop offset="1"/>
</radialGradient>
<radialGradient id="paint5_radial_483_4474" cx="0" cy="0" r="1" gradientUnits="userSpaceOnUse" gradientTransform="translate(1325.05 -253.646) rotate(161.836) scale(716.584 55.3109)">
<stop stop-color="#926100"/>
<stop offset="1" stop-opacity="0"/>
</radialGradient>
<radialGradient id="paint6_radial_483_4474" cx="0" cy="0" r="1" gradientUnits="userSpaceOnUse" gradientTransform="translate(1356.91 -240.493) rotate(166.684) scale(751.246 32.2842)">
<stop stop-color="#CBA123"/>
<stop offset="1"/>
</radialGradient>
<radialGradient id="paint7_radial_483_4474" cx="0" cy="0" r="1" gradientUnits="userSpaceOnUse" gradientTransform="translate(31.7205 -28.961) rotate(62.1447) scale(620.337 63.8924)">
<stop stop-color="#926100"/>
<stop offset="1" stop-opacity="0"/>
</radialGradient>
<radialGradient id="paint8_radial_483_4474" cx="0" cy="0" r="1" gradientUnits="userSpaceOnUse" gradientTransform="translate(-2.29413 -37.8667) rotate(55.7191) scale(655.272 37.0126)">
<stop stop-color="#945700"/>
<stop offset="1"/>
</radialGradient>
<radialGradient id="paint9_radial_483_4474" cx="0" cy="0" r="1" gradientUnits="userSpaceOnUse" gradientTransform="translate(-11.0968 -212.351) rotate(34.8492) scale(677.418 86.501)">
<stop stop-color="#D1A41C"/>
<stop offset="1"/>
</radialGradient>
<radialGradient id="paint10_radial_483_4474" cx="0" cy="0" r="1" gradientUnits="userSpaceOnUse" gradientTransform="translate(-27.4682 -194.196) rotate(34.8492) scale(677.418 52.8617)">
<stop stop-color="#E6A219"/>
<stop offset="1"/>
</radialGradient>
<radialGradient id="paint11_radial_483_4474" cx="0" cy="0" r="1" gradientUnits="userSpaceOnUse" gradientTransform="translate(114.95 -253.646) rotate(18.1638) scale(716.584 55.3109)">
<stop stop-color="#926100"/>
<stop offset="1" stop-opacity="0"/>
</radialGradient>
<radialGradient id="paint12_radial_483_4474" cx="0" cy="0" r="1" gradientUnits="userSpaceOnUse" gradientTransform="translate(83.089 -240.493) rotate(13.3162) scale(751.246 32.2842)">
<stop stop-color="#CBA123"/>
<stop offset="1"/>
</radialGradient>
<radialGradient id="paint13_radial_483_4474" cx="0" cy="0" r="1" gradientUnits="userSpaceOnUse" gradientTransform="translate(714.513 -2.9578) scale(1783.39 639.793)">
<stop stop-color="#E6D279"/>
<stop offset="0.07" stop-color="#B47620"/>
<stop offset="0.1" stop-color="#9B651B" stop-opacity="0.86"/>
<stop offset="0.15" stop-color="#764D15" stop-opacity="0.66"/>
<stop offset="0.2" stop-color="#56380F" stop-opacity="0.48"/>
<stop offset="0.26" stop-color="#3B260A" stop-opacity="0.33"/>
<stop offset="0.32" stop-color="#251806" stop-opacity="0.21"/>
<stop offset="0.4" stop-color="#140D03" stop-opacity="0.11"/>
<stop offset="0.5" stop-color="#080501" stop-opacity="0.05"/>
<stop offset="0.63" stop-color="#010100" stop-opacity="0.01"/>
<stop offset="1" stop-opacity="0"/>
</radialGradient>
<radialGradient id="paint14_radial_483_4474" cx="0" cy="0" r="1" gradientUnits="userSpaceOnUse" gradientTransform="translate(720.475 -9.16066) scale(1919.93 206.535)">
<stop stop-color="#E6D279"/>
<stop offset="0.07" stop-color="#B47620"/>
<stop offset="0.1" stop-color="#9B651B" stop-opacity="0.86"/>
<stop offset="0.15" stop-color="#764D15" stop-opacity="0.66"/>
<stop offset="0.2" stop-color="#56380F" stop-opacity="0.48"/>
<stop offset="0.26" stop-color="#3B260A" stop-opacity="0.33"/>
<stop offset="0.32" stop-color="#251806" stop-opacity="0.21"/>
<stop offset="0.4" stop-color="#140D03" stop-opacity="0.11"/>
<stop offset="0.5" stop-color="#080501" stop-opacity="0.05"/>
<stop offset="0.63" stop-color="#010100" stop-opacity="0.01"/>
<stop offset="1" stop-opacity="0"/>
</radialGradient>
<radialGradient id="paint15_radial_483_4474" cx="0" cy="0" r="1" gradientUnits="userSpaceOnUse" gradientTransform="translate(717.379 -15.8614) scale(1742.12 86.1857)">
<stop stop-color="#E6D279"/>
<stop offset="0.07" stop-color="#B47620"/>
<stop offset="0.1" stop-color="#9B651B" stop-opacity="0.86"/>
<stop offset="0.15" stop-color="#764D15" stop-opacity="0.66"/>
<stop offset="0.2" stop-color="#56380F" stop-opacity="0.48"/>
<stop offset="0.26" stop-color="#3B260A" stop-opacity="0.33"/>
<stop offset="0.32" stop-color="#251806" stop-opacity="0.21"/>
<stop offset="0.4" stop-color="#140D03" stop-opacity="0.11"/>
<stop offset="0.5" stop-color="#080501" stop-opacity="0.05"/>
<stop offset="0.63" stop-color="#010100" stop-opacity="0.01"/>
<stop offset="1" stop-opacity="0"/>
</radialGradient>
<clipPath id="clip0_483_4474">
<rect width="1440" height="788" fill="white"/>
</clipPath>
</defs>
</svg>
