<svg xmlns="http://www.w3.org/2000/svg" width="56" height="24" fill="none"><path fill="url(#a)" d="M2.246 14.684c-.305 0-.61.054-.887.135-.139.053-.194.188-.139.295.222.43.499.779.804 1.074.388.322.804.564 1.22.725.25.08.527.107.776.107.527 0 .999-.161 1.442-.43.111-.08.139-.214.056-.322-.25-.268-.5-.51-.777-.724-.332-.269-.748-.43-1.109-.591a3.538 3.538 0 0 0-1.386-.268Z"/><path fill="url(#b)" d="M7.43 12.268c-.027 0-.082 0-.11.027-.693.35-1.22.86-1.47 1.504-.166.376-.166.751-.138 1.127.027.322.138.644.332.913.028.054.111.107.167.107.055 0 .11-.027.138-.053.583-.51.943-1.182 1.165-1.8.11-.348.194-.697.194-.992 0-.242 0-.484-.083-.698a.208.208 0 0 0-.194-.135Z"/><path fill="url(#c)" d="M1.442 13.1c.471.296.97.43 1.47.43.249 0 .498-.027.776-.107.138-.027.194-.188.138-.296a4.504 4.504 0 0 0-1.47-1.798c-.581-.457-1.302-.752-2.079-.752H.222c-.139 0-.222.108-.222.242.083.456.222.886.471 1.261.305.43.61.78.97 1.02Z"/><path fill="url(#d)" d="M6.793 10.685c.055-.242.11-.457.11-.698 0-.108-.11-.188-.221-.188h-.055c-.75.134-1.415.483-1.83 1.047a2.288 2.288 0 0 0-.36 2.04c.027.08.11.134.193.134.028 0 .056 0 .111-.027a4.04 4.04 0 0 0 1.608-1.396c.194-.295.36-.617.444-.912Z"/><path fill="url(#e)" d="M.804 8.913c.555.617 1.248.94 2.024.94h.028c.138 0 .25-.108.222-.242A6.163 6.163 0 0 0 2.8 8.59a3.394 3.394 0 0 0-.637-1.101C1.719 6.872 1.08 6.362.333 6.174H.277c-.11 0-.194.081-.222.188-.027.188-.027.403-.027.591 0 .268.027.51.11.752.167.43.389.859.666 1.208Z"/><path fill="url(#f)" d="M3.715 9.53c0 .108.083.215.222.215h.028a4.28 4.28 0 0 0 1.94-.886c.278-.242.528-.483.694-.752.083-.134.166-.268.222-.402.027-.08.055-.135.083-.215.028-.134-.056-.242-.194-.269-.139-.026-.25-.026-.388-.026a2.91 2.91 0 0 0-1.692.51c-.305.241-.527.537-.72.886-.14.268-.167.59-.195.94Z"/><path fill="url(#g)" d="M3.022 6.148h.056c.11 0 .194-.08.221-.188.056-.35.056-.725.028-1.074a3.85 3.85 0 0 0-.305-1.235c-.25-.698-.72-1.37-1.386-1.772 0 0-.028-.027-.083-.027a.208.208 0 0 0-.194.135c-.389.94-.36 1.96-.028 2.684.36.752.97 1.262 1.691 1.477Z"/><path fill="url(#h)" d="M4.159 6.362c.166.027.305.027.444.027.61 0 1.192-.134 1.663-.349.61-.241 1.054-.59 1.359-1.047.083-.107.027-.241-.111-.295-.416-.161-.832-.269-1.248-.269-.305 0-.61.054-.887.162-.36.134-.666.375-.943.644-.222.241-.36.537-.471.859-.028.134.055.268.194.268Z"/><path fill="url(#i)" d="M4.575 3.57c.028 0 .055 0 .11-.026.694-.323 1.248-.779 1.609-1.316.222-.295.36-.671.471-1.02a2.88 2.88 0 0 0 .167-.993A.215.215 0 0 0 6.71 0h-.028a3.17 3.17 0 0 0-.97.322c-.416.188-.694.51-.97.86a2.7 2.7 0 0 0-.389 2.254c.028.08.11.134.222.134Z"/><path fill="url(#j)" d="M11.007 23.866c.194.053.36.107.555.107.11 0 .25.027.36.027.139 0 .278 0 .416-.027.25-.027.5-.053.721-.134.222-.08.444-.188.638-.295.388-.242.693-.537.887-.886.166-.296.277-.618.333-.967.027-.134-.083-.241-.222-.241h-.11c-.306 0-.639.027-.916.107-.416.107-.804.215-1.192.43-.194.107-.36.214-.527.349-.166.134-.333.268-.471.402-.25.242-.444.537-.583.86-.083.08-.027.214.111.268Z"/><path fill="url(#k)" d="M15 20.537a3.75 3.75 0 0 0-.139-.993 4.196 4.196 0 0 0-.443-1.074 2.425 2.425 0 0 0-.305-.43c-.111-.134-.222-.268-.333-.376a1.251 1.251 0 0 0-.388-.268c-.056-.027-.139-.08-.194-.107-.028-.027-.056-.027-.083-.027-.084 0-.167.053-.194.16a4.301 4.301 0 0 0-.14 1.021c0 .188.029.403.084.59a2.2 2.2 0 0 0 .222.537c.194.323.444.645.776.86.277.16.582.295.888.349h.027c.111-.027.222-.108.222-.242Z"/><path fill="url(#l)" d="M8.235 22.416c.194.054.388.054.582.054.305 0 .582-.054.832-.108.776-.188 1.386-.751 1.719-1.45.055-.107-.028-.268-.139-.295a4.556 4.556 0 0 0-1.33-.188 3.84 3.84 0 0 0-.971.108c-.749.188-1.47.51-1.969 1.1-.083.108-.055.269.056.323.36.214.804.349 1.22.456Z"/><path fill="url(#m)" d="M11.423 19.973c.028.027.056.027.111.027.083 0 .166-.054.194-.161.222-.752.167-1.503.028-2.148a3.555 3.555 0 0 0-.388-.94c-.111-.214-.277-.375-.444-.536-.055-.027-.083-.054-.138-.054-.056 0-.14.027-.167.107-.416.672-.582 1.396-.443 2.068.11.698.582 1.315 1.247 1.637Z"/><path fill="url(#n)" d="M8.096 19.168c.083-.108.056-.242-.055-.322a6.21 6.21 0 0 0-.943-.484 2.57 2.57 0 0 0-.61-.16c-.194-.054-.416-.081-.61-.108h-.333c-.665 0-1.33.161-1.885.537-.111.08-.139.215-.028.322.333.349.693.617 1.054.805.443.215.942.323 1.358.35h.084c.415 0 .804-.108 1.164-.27.305-.214.582-.429.804-.67Z"/><path fill="url(#o)" d="M7.68 16.966c.028.188.111.376.167.537.138.296.305.564.554.779a.216.216 0 0 0 .139.054c.083 0 .138-.027.194-.108.194-.295.333-.617.416-.913.11-.375.166-.751.194-1.127a3.043 3.043 0 0 0-.111-1.02 1.698 1.698 0 0 0-.277-.644c-.028-.054-.111-.081-.167-.081-.055 0-.11.027-.166.054-.582.537-.915 1.154-.998 1.879.027.188.027.402.055.59Z"/><path fill="url(#p)" d="M53.754 14.684c.305 0 .61.054.887.135.139.053.195.188.139.295-.222.43-.499.779-.804 1.074a4.424 4.424 0 0 1-1.22.725c-.25.08-.527.107-.776.107-.527 0-.998-.161-1.442-.43-.111-.08-.139-.214-.056-.322.25-.268.5-.51.777-.724.333-.269.748-.43 1.109-.591a3.539 3.539 0 0 1 1.386-.268Z"/><path fill="url(#q)" d="M48.57 12.268c.027 0 .083 0 .11.027.693.35 1.22.86 1.47 1.504.166.376.166.751.138 1.127a1.833 1.833 0 0 1-.332.913c-.028.054-.111.107-.167.107a.216.216 0 0 1-.138-.053c-.583-.51-.943-1.182-1.165-1.8-.11-.348-.194-.697-.194-.992 0-.242 0-.484.083-.698a.208.208 0 0 1 .194-.135Z"/><path fill="url(#r)" d="M54.558 13.1c-.471.296-.97.43-1.47.43-.249 0-.498-.027-.776-.107-.138-.027-.194-.188-.138-.296a4.505 4.505 0 0 1 1.47-1.798c.581-.457 1.302-.752 2.079-.752h.055c.139 0 .222.108.222.242-.083.456-.222.886-.471 1.261-.305.43-.61.78-.97 1.02Z"/><path fill="url(#s)" d="M49.207 10.685c-.055-.242-.11-.457-.11-.698 0-.108.11-.188.221-.188h.056c.748.134 1.413.483 1.83 1.047.415.537.582 1.315.36 2.04a.208.208 0 0 1-.194.134c-.028 0-.056 0-.111-.027a4.041 4.041 0 0 1-1.608-1.396 3.456 3.456 0 0 1-.444-.912Z"/><path fill="url(#t)" d="M55.196 8.913c-.555.617-1.248.94-2.024.94h-.028c-.138 0-.25-.108-.222-.242.056-.35.167-.698.278-1.02.138-.403.36-.779.637-1.101.444-.618 1.082-1.128 1.83-1.316h.056c.11 0 .194.081.222.188.027.188.027.403.027.591 0 .268-.027.51-.11.752a4.69 4.69 0 0 1-.666 1.208Z"/><path fill="url(#u)" d="M52.285 9.53a.215.215 0 0 1-.222.215h-.028a4.28 4.28 0 0 1-1.94-.886c-.278-.242-.527-.483-.694-.752-.083-.134-.166-.268-.222-.402-.027-.08-.055-.135-.083-.215-.028-.134.056-.242.194-.269.139-.026.25-.026.388-.026.61 0 1.193.16 1.692.51.305.241.527.537.72.886.14.268.167.59.195.94Z"/><path fill="url(#v)" d="M52.978 6.148h-.056c-.11 0-.194-.08-.221-.188a4.646 4.646 0 0 1-.028-1.074c.027-.43.139-.832.305-1.235.25-.698.72-1.37 1.386-1.772 0 0 .028-.027.083-.027.084 0 .167.054.194.135.389.94.36 1.96.028 2.684-.36.752-.97 1.262-1.691 1.477Z"/><path fill="url(#w)" d="M51.841 6.362c-.166.027-.305.027-.444.027-.61 0-1.192-.134-1.663-.349-.61-.241-1.054-.59-1.359-1.047-.083-.107-.027-.241.111-.295.416-.161.832-.269 1.248-.269.305 0 .61.054.887.162.36.134.666.375.943.644.222.241.36.537.471.859.028.134-.055.268-.194.268Z"/><path fill="url(#x)" d="M51.425 3.57c-.027 0-.055 0-.11-.026-.694-.323-1.248-.779-1.609-1.316-.222-.295-.36-.671-.471-1.02a2.88 2.88 0 0 1-.167-.993c0-.108.084-.215.222-.215h.028c.333.054.665.161.97.322.416.188.694.51.97.86a2.7 2.7 0 0 1 .389 2.254c-.028.08-.11.134-.222.134Z"/><path fill="url(#y)" d="M44.993 23.866c-.194.053-.36.107-.555.107-.11 0-.25.027-.36.027-.139 0-.278 0-.416-.027-.25-.027-.5-.053-.721-.134a4.572 4.572 0 0 1-.638-.295c-.388-.242-.693-.537-.887-.886a2.871 2.871 0 0 1-.333-.967c-.027-.134.083-.241.222-.241h.11c.306 0 .639.027.916.107.416.107.804.215 1.192.43.194.107.36.214.527.349.166.134.333.268.471.402.25.242.444.537.583.86.083.08.027.214-.111.268Z"/><path fill="url(#z)" d="M41 20.537c0-.35.056-.698.139-.993.11-.403.25-.752.443-1.074.083-.161.194-.296.305-.43.111-.134.222-.268.333-.376.11-.107.25-.214.388-.268.056-.027.139-.08.194-.107.028-.027.056-.027.083-.027.084 0 .167.053.195.16.083.35.138.672.138 1.021 0 .188-.028.403-.083.59a2.2 2.2 0 0 1-.222.537c-.194.323-.444.645-.776.86a2.773 2.773 0 0 1-.888.349h-.027c-.111-.027-.222-.108-.222-.242Z"/><path fill="url(#A)" d="M47.765 22.416c-.194.054-.388.054-.582.054-.305 0-.582-.054-.832-.108-.776-.188-1.386-.751-1.719-1.45-.055-.107.028-.268.139-.295a4.556 4.556 0 0 1 1.33-.188c.333 0 .666.027.971.108.749.188 1.47.51 1.969 1.1.083.108.055.269-.056.323-.36.214-.804.349-1.22.456Z"/><path fill="url(#B)" d="M44.577 19.973c-.028.027-.056.027-.111.027-.083 0-.166-.054-.194-.161-.222-.752-.167-1.503-.028-2.148.083-.349.222-.644.388-.94.111-.214.277-.375.444-.536.055-.027.083-.054.138-.054.056 0 .14.027.167.107.416.672.582 1.396.443 2.068-.11.698-.582 1.315-1.247 1.637Z"/><path fill="url(#C)" d="M47.904 19.168c-.083-.108-.056-.242.055-.322.305-.188.61-.35.943-.484.194-.08.416-.134.61-.16.194-.054.416-.081.61-.108h.333c.665 0 1.33.161 1.885.537.111.08.139.215.028.322a4.068 4.068 0 0 1-1.054.805 3.773 3.773 0 0 1-1.358.35h-.084a2.84 2.84 0 0 1-1.164-.27 4.952 4.952 0 0 1-.804-.67Z"/><path fill="url(#D)" d="M48.32 16.966c-.028.188-.111.376-.166.537-.14.296-.306.564-.555.779a.216.216 0 0 1-.139.054c-.083 0-.138-.027-.194-.108a3.338 3.338 0 0 1-.416-.913 5.341 5.341 0 0 1-.194-1.127 3.046 3.046 0 0 1 .111-1.02c.056-.242.139-.457.277-.644.028-.054.111-.081.167-.081.055 0 .11.027.166.054.582.537.915 1.154.998 1.879-.028.188-.028.402-.055.59Z"/><defs><linearGradient id="a" x1="28" x2="28" y1="0" y2="24" gradientUnits="userSpaceOnUse"><stop stop-color="#E1C0AD"/><stop offset="1" stop-color="#9A6E55"/></linearGradient><linearGradient id="b" x1="28" x2="28" y1="0" y2="24" gradientUnits="userSpaceOnUse"><stop stop-color="#E1C0AD"/><stop offset="1" stop-color="#9A6E55"/></linearGradient><linearGradient id="c" x1="28" x2="28" y1="0" y2="24" gradientUnits="userSpaceOnUse"><stop stop-color="#E1C0AD"/><stop offset="1" stop-color="#9A6E55"/></linearGradient><linearGradient id="d" x1="28" x2="28" y1="0" y2="24" gradientUnits="userSpaceOnUse"><stop stop-color="#E1C0AD"/><stop offset="1" stop-color="#9A6E55"/></linearGradient><linearGradient id="e" x1="28" x2="28" y1="0" y2="24" gradientUnits="userSpaceOnUse"><stop stop-color="#E1C0AD"/><stop offset="1" stop-color="#9A6E55"/></linearGradient><linearGradient id="f" x1="28" x2="28" y1="0" y2="24" gradientUnits="userSpaceOnUse"><stop stop-color="#E1C0AD"/><stop offset="1" stop-color="#9A6E55"/></linearGradient><linearGradient id="g" x1="28" x2="28" y1="0" y2="24" gradientUnits="userSpaceOnUse"><stop stop-color="#E1C0AD"/><stop offset="1" stop-color="#9A6E55"/></linearGradient><linearGradient id="h" x1="28" x2="28" y1="0" y2="24" gradientUnits="userSpaceOnUse"><stop stop-color="#E1C0AD"/><stop offset="1" stop-color="#9A6E55"/></linearGradient><linearGradient id="i" x1="28" x2="28" y1="0" y2="24" gradientUnits="userSpaceOnUse"><stop stop-color="#E1C0AD"/><stop offset="1" stop-color="#9A6E55"/></linearGradient><linearGradient id="j" x1="28" x2="28" y1="0" y2="24" gradientUnits="userSpaceOnUse"><stop stop-color="#E1C0AD"/><stop offset="1" stop-color="#9A6E55"/></linearGradient><linearGradient id="k" x1="28" x2="28" y1="0" y2="24" gradientUnits="userSpaceOnUse"><stop stop-color="#E1C0AD"/><stop offset="1" stop-color="#9A6E55"/></linearGradient><linearGradient id="l" x1="28" x2="28" y1="0" y2="24" gradientUnits="userSpaceOnUse"><stop stop-color="#E1C0AD"/><stop offset="1" stop-color="#9A6E55"/></linearGradient><linearGradient id="m" x1="28" x2="28" y1="0" y2="24" gradientUnits="userSpaceOnUse"><stop stop-color="#E1C0AD"/><stop offset="1" stop-color="#9A6E55"/></linearGradient><linearGradient id="n" x1="28" x2="28" y1="0" y2="24" gradientUnits="userSpaceOnUse"><stop stop-color="#E1C0AD"/><stop offset="1" stop-color="#9A6E55"/></linearGradient><linearGradient id="o" x1="28" x2="28" y1="0" y2="24" gradientUnits="userSpaceOnUse"><stop stop-color="#E1C0AD"/><stop offset="1" stop-color="#9A6E55"/></linearGradient><linearGradient id="p" x1="28" x2="28" y1="0" y2="24" gradientUnits="userSpaceOnUse"><stop stop-color="#E1C0AD"/><stop offset="1" stop-color="#9A6E55"/></linearGradient><linearGradient id="q" x1="28" x2="28" y1="0" y2="24" gradientUnits="userSpaceOnUse"><stop stop-color="#E1C0AD"/><stop offset="1" stop-color="#9A6E55"/></linearGradient><linearGradient id="r" x1="28" x2="28" y1="0" y2="24" gradientUnits="userSpaceOnUse"><stop stop-color="#E1C0AD"/><stop offset="1" stop-color="#9A6E55"/></linearGradient><linearGradient id="s" x1="28" x2="28" y1="0" y2="24" gradientUnits="userSpaceOnUse"><stop stop-color="#E1C0AD"/><stop offset="1" stop-color="#9A6E55"/></linearGradient><linearGradient id="t" x1="28" x2="28" y1="0" y2="24" gradientUnits="userSpaceOnUse"><stop stop-color="#E1C0AD"/><stop offset="1" stop-color="#9A6E55"/></linearGradient><linearGradient id="u" x1="28" x2="28" y1="0" y2="24" gradientUnits="userSpaceOnUse"><stop stop-color="#E1C0AD"/><stop offset="1" stop-color="#9A6E55"/></linearGradient><linearGradient id="v" x1="28" x2="28" y1="0" y2="24" gradientUnits="userSpaceOnUse"><stop stop-color="#E1C0AD"/><stop offset="1" stop-color="#9A6E55"/></linearGradient><linearGradient id="w" x1="28" x2="28" y1="0" y2="24" gradientUnits="userSpaceOnUse"><stop stop-color="#E1C0AD"/><stop offset="1" stop-color="#9A6E55"/></linearGradient><linearGradient id="x" x1="28" x2="28" y1="0" y2="24" gradientUnits="userSpaceOnUse"><stop stop-color="#E1C0AD"/><stop offset="1" stop-color="#9A6E55"/></linearGradient><linearGradient id="y" x1="28" x2="28" y1="0" y2="24" gradientUnits="userSpaceOnUse"><stop stop-color="#E1C0AD"/><stop offset="1" stop-color="#9A6E55"/></linearGradient><linearGradient id="z" x1="28" x2="28" y1="0" y2="24" gradientUnits="userSpaceOnUse"><stop stop-color="#E1C0AD"/><stop offset="1" stop-color="#9A6E55"/></linearGradient><linearGradient id="A" x1="28" x2="28" y1="0" y2="24" gradientUnits="userSpaceOnUse"><stop stop-color="#E1C0AD"/><stop offset="1" stop-color="#9A6E55"/></linearGradient><linearGradient id="B" x1="28" x2="28" y1="0" y2="24" gradientUnits="userSpaceOnUse"><stop stop-color="#E1C0AD"/><stop offset="1" stop-color="#9A6E55"/></linearGradient><linearGradient id="C" x1="28" x2="28" y1="0" y2="24" gradientUnits="userSpaceOnUse"><stop stop-color="#E1C0AD"/><stop offset="1" stop-color="#9A6E55"/></linearGradient><linearGradient id="D" x1="28" x2="28" y1="0" y2="24" gradientUnits="userSpaceOnUse"><stop stop-color="#E1C0AD"/><stop offset="1" stop-color="#9A6E55"/></linearGradient></defs></svg>