<svg width="32" height="32" viewBox="0 0 32 32" fill="none" xmlns="http://www.w3.org/2000/svg">
<rect width="32" height="32" fill="#4F46E5"/>
<path d="M15.0984 18.1641C15.0984 18.8932 15.0125 19.5391 14.8406 20.1016C14.674 20.6589 14.4318 21.125 14.1141 21.5C13.8016 21.8854 13.4161 22.1771 12.9578 22.375C12.5047 22.5677 11.9891 22.6641 11.4109 22.6641C10.838 22.6641 10.3224 22.5677 9.86406 22.375C9.40573 22.1771 9.01771 21.8854 8.7 21.5C8.37708 21.125 8.12969 20.6589 7.95781 20.1016C7.79115 19.5391 7.70781 18.8932 7.70781 18.1641V15.4688C7.70781 14.7396 7.79115 14.0964 7.95781 13.5391C8.12969 12.9766 8.37448 12.5026 8.69219 12.1172C9.0099 11.737 9.39531 11.4505 9.84844 11.2578C10.3068 11.0599 10.8224 10.9609 11.3953 10.9609C11.9734 10.9609 12.4891 11.0599 12.9422 11.2578C13.4005 11.4505 13.7911 11.737 14.1141 12.1172C14.4266 12.5026 14.6687 12.9766 14.8406 13.5391C15.0125 14.0964 15.0984 14.7396 15.0984 15.4688V18.1641ZM9.58281 17.5L13.2 14.7578C13.1792 14.3516 13.1219 14 13.0281 13.7031C12.9396 13.4062 12.812 13.1641 12.6453 12.9766C12.4995 12.8099 12.3198 12.6849 12.1062 12.6016C11.8979 12.5182 11.6609 12.4766 11.3953 12.4766C11.1089 12.4766 10.8562 12.526 10.6375 12.625C10.4187 12.724 10.2365 12.8698 10.0906 13.0625C9.91875 13.2812 9.79115 13.5651 9.70781 13.9141C9.62448 14.2578 9.58281 14.6641 9.58281 15.1328V16.6641C9.58281 16.862 9.58281 17.013 9.58281 17.1172C9.58281 17.2214 9.58281 17.349 9.58281 17.5ZM13.2156 18.4766V17.0391C13.2156 16.9089 13.2156 16.7734 13.2156 16.6328C13.2156 16.4922 13.2156 16.3464 13.2156 16.1953L9.59844 18.9219C9.62448 19.2812 9.67917 19.599 9.7625 19.875C9.85104 20.151 9.96823 20.3802 10.1141 20.5625C10.2599 20.7604 10.4396 20.9089 10.6531 21.0078C10.8719 21.1068 11.1245 21.1562 11.4109 21.1562C11.6922 21.1562 11.9396 21.1094 12.1531 21.0156C12.3667 20.9167 12.549 20.7734 12.7 20.5859C12.8719 20.3672 12.9995 20.0807 13.0828 19.7266C13.1714 19.3724 13.2156 18.9557 13.2156 18.4766ZM20.7219 16.8906L22.7453 14.0469H24.8156L21.8469 18.2109L24.9094 22.5H22.8469L20.7375 19.5469L18.6359 22.5H16.5656L19.6281 18.2109L16.6672 14.0469H18.7219L20.7219 16.8906Z" fill="white"/>
</svg>
