<svg width="120" height="120" viewBox="0 0 120 120" fill="none" xmlns="http://www.w3.org/2000/svg">
<path d="M0 0H120V120H0V0Z" fill="#4F46E5"/>
<path d="M57.4461 64.1602C57.4461 65.9831 57.2313 67.5977 56.8016 69.0039C56.3849 70.3971 55.7794 71.5625 54.9852 72.5C54.2039 73.4635 53.2404 74.1927 52.0945 74.6875C50.9617 75.1693 49.6727 75.4102 48.2273 75.4102C46.7951 75.4102 45.506 75.1693 44.3602 74.6875C43.2143 74.1927 42.2443 73.4635 41.45 72.5C40.6427 71.5625 40.0242 70.3971 39.5945 69.0039C39.1779 67.5977 38.9695 65.9831 38.9695 64.1602V57.4219C38.9695 55.599 39.1779 53.9909 39.5945 52.5977C40.0242 51.1914 40.6362 50.0065 41.4305 49.043C42.2247 48.0924 43.1883 47.3763 44.3211 46.8945C45.4669 46.3997 46.756 46.1523 48.1883 46.1523C49.6336 46.1523 50.9227 46.3997 52.0555 46.8945C53.2013 47.3763 54.1779 48.0924 54.9852 49.043C55.7664 50.0065 56.3719 51.1914 56.8016 52.5977C57.2313 53.9909 57.4461 55.599 57.4461 57.4219V64.1602ZM43.657 62.5L52.7 55.6445C52.6479 54.6289 52.5047 53.75 52.2703 53.0078C52.049 52.2656 51.7299 51.6602 51.3133 51.1914C50.9487 50.7747 50.4995 50.4622 49.9656 50.2539C49.4448 50.0456 48.8523 49.9414 48.1883 49.9414C47.4721 49.9414 46.8406 50.0651 46.2938 50.3125C45.7469 50.5599 45.2911 50.9245 44.9266 51.4062C44.4969 51.9531 44.1779 52.6628 43.9695 53.5352C43.7612 54.3945 43.657 55.4102 43.657 56.582V60.4102C43.657 60.9049 43.657 61.2826 43.657 61.543C43.657 61.8034 43.657 62.1224 43.657 62.5ZM52.7391 64.9414V61.3477C52.7391 61.0221 52.7391 60.6836 52.7391 60.332C52.7391 59.9805 52.7391 59.6159 52.7391 59.2383L43.6961 66.0547C43.7612 66.9531 43.8979 67.7474 44.1063 68.4375C44.3276 69.1276 44.6206 69.7005 44.9852 70.1562C45.3497 70.651 45.799 71.0221 46.3328 71.2695C46.8797 71.5169 47.5112 71.6406 48.2273 71.6406C48.9305 71.6406 49.549 71.5234 50.0828 71.2891C50.6167 71.0417 51.0724 70.6836 51.45 70.2148C51.8797 69.668 52.1987 68.9518 52.407 68.0664C52.6284 67.181 52.7391 66.1393 52.7391 64.9414Z" fill="white"/>
<path d="M72.1047 60.9766L77.1633 53.8672H82.3391L74.9172 64.2773L82.5734 75H77.4172L72.1438 67.6172L66.8898 75H61.7141L69.3703 64.2773L61.968 53.8672H67.1047L72.1047 60.9766Z" fill="white"/>
</svg>
