<svg width="16" height="16" viewBox="0 0 16 16" fill="none" xmlns="http://www.w3.org/2000/svg">
<path d="M13.4209 3.33496C13.4428 3.33807 13.4647 3.34491 13.4863 3.35449L13.5488 3.39355C13.569 3.41021 13.5882 3.42998 13.6045 3.45312L13.6455 3.53125C13.6561 3.55994 13.6629 3.59025 13.666 3.62109L13.6631 3.71582L12.2344 12.7949C12.1641 13.2391 11.7653 13.4192 11.457 13.293L11.3965 13.2637C10.7612 12.9022 9.82608 12.3499 8.99121 11.7783H8.99219C8.78416 11.6357 8.3891 11.3544 8.07129 11.042C7.91101 10.8844 7.79575 10.7431 7.73145 10.6309C7.71448 10.6012 7.70673 10.5776 7.7002 10.5615C7.70896 10.5466 7.72008 10.5272 7.73535 10.5039C7.79387 10.4146 7.8805 10.2982 7.99609 10.1562C8.22663 9.87317 8.54196 9.52505 8.90137 9.14453C9.26136 8.7634 9.65463 8.36117 10.0381 7.97363L11.1143 6.88867C11.2712 6.72933 11.4089 6.5502 11.4922 6.3584C11.5513 6.22206 11.694 5.80801 11.3887 5.45801C11.0756 5.09953 10.6377 5.19757 10.4922 5.24316C10.3407 5.29064 10.1925 5.37068 10.0518 5.46777L9.91309 5.57031C8.64265 6.57491 6.71925 8.02143 5.76367 8.68262L5.41797 8.91406C5.10162 9.11568 4.90663 9.20339 4.77148 9.24121C4.68481 9.26543 4.61109 9.27317 4.52441 9.26562L4.43262 9.25293L3.89844 9.14551C3.46538 9.04605 3.06482 8.92301 2.71387 8.78516L2.50977 8.7002C2.39367 8.64977 2.32927 8.54734 2.33105 8.4082C2.33298 8.26106 2.4089 8.15223 2.5127 8.10645L2.51172 8.10547L13.2891 3.35352V3.35449C13.3105 3.34503 13.3323 3.33804 13.3545 3.33496H13.4209Z" fill="white" stroke="white" stroke-width="1.33"/>
</svg>
