<svg width="400" height="400" viewBox="0 0 400 400" fill="none" xmlns="http://www.w3.org/2000/svg">
  <defs>
    <linearGradient id="g" x1="0" y1="0" x2="400" y2="400" gradientUnits="userSpaceOnUse">
      <stop offset="0" stop-color="#0f172a" />
      <stop offset="1" stop-color="#1e293b" />
    </linearGradient>
  </defs>
  <rect width="400" height="400" rx="28" fill="url(#g)" />
  <circle cx="200" cy="200" r="90" fill="#111827" stroke="#38bdf8" stroke-width="2" opacity="0.9" />
  <text x="200" y="220" text-anchor="middle" font-family="Arial, sans-serif" font-size="64" font-weight="700" fill="#e2e8f0">AI</text>
  <polygon points="90,110 96,126 112,132 96,138 90,154 84,138 68,132 84,126" fill="#38bdf8" />
  <polygon points="300,80 304,90 314,94 304,98 300,108 296,98 286,94 296,90" fill="#22d3ee" />
  <polygon points="315,285 320,298 334,303 320,308 315,322 310,308 296,303 310,298" fill="#a78bfa" />
</svg>
