<svg width="120" height="32" viewBox="0 0 120 32" fill="none" xmlns="http://www.w3.org/2000/svg">
<g id="Logo/LooksRare">
<g id="Union">
<path d="M14.3925 22.4439H5.51953V9.00003H7.59372V20.5425H14.3925V22.4439Z" fill="#EDFCF7" fill-opacity="0.62"/>
<path fill-rule="evenodd" clip-rule="evenodd" d="M19.8284 22.7128C18.9321 22.7128 18.0935 22.5207 17.3125 22.1366C16.5314 21.7397 15.9041 21.1635 15.4303 20.4081C14.9566 19.6399 14.7197 18.7308 14.7197 17.6809C14.7197 16.631 14.9566 15.7284 15.4303 14.973C15.9041 14.2048 16.5314 13.6286 17.3125 13.2445C18.0935 12.8476 18.9321 12.6491 19.8284 12.6491C20.7118 12.6491 21.5441 12.8476 22.3251 13.2445C23.1061 13.6286 23.7335 14.2048 24.2072 14.973C24.6809 15.7284 24.9178 16.631 24.9178 17.6809C24.9178 18.7308 24.6809 19.6399 24.2072 20.4081C23.7335 21.1635 23.1061 21.7397 22.3251 22.1366C21.5441 22.5207 20.7118 22.7128 19.8284 22.7128ZM19.8284 20.8882C20.3789 20.8882 20.8911 20.7602 21.3648 20.5041C21.8385 20.2353 22.2098 19.8576 22.4787 19.371C22.7604 18.8845 22.9012 18.3211 22.9012 17.6809C22.9012 17.0408 22.7604 16.4774 22.4787 15.9909C22.2098 15.5043 21.8385 15.133 21.3648 14.8769C20.8911 14.6081 20.3789 14.4736 19.8284 14.4736C19.265 14.4736 18.7465 14.6081 18.2727 14.8769C17.8118 15.133 17.4405 15.5043 17.1588 15.9909C16.8771 16.4774 16.7363 17.0408 16.7363 17.6809C16.7363 18.3211 16.8771 18.8845 17.1588 19.371C17.4405 19.8576 17.8118 20.2353 18.2727 20.5041C18.7465 20.7602 19.265 20.8882 19.8284 20.8882Z" fill="#EDFCF7" fill-opacity="0.62"/>
<path fill-rule="evenodd" clip-rule="evenodd" d="M28.5556 22.1366C29.3366 22.5207 30.1753 22.7128 31.0716 22.7128C31.955 22.7128 32.7872 22.5207 33.5682 22.1366C34.3493 21.7397 34.9767 21.1635 35.4504 20.4081C35.9242 19.6399 36.161 18.7308 36.161 17.6809C36.161 16.631 35.9242 15.7284 35.4504 14.973C34.9767 14.2048 34.3493 13.6286 33.5682 13.2445C32.7872 12.8476 31.955 12.6491 31.0716 12.6491C30.1753 12.6491 29.3366 12.8476 28.5556 13.2445C27.7747 13.6286 27.1471 14.2048 26.6735 14.973C26.1998 15.7284 25.9629 16.631 25.9629 17.6809C25.9629 18.7308 26.1998 19.6399 26.6735 20.4081C27.1471 21.1635 27.7747 21.7397 28.5556 22.1366ZM32.608 20.5041C32.1342 20.7602 31.6221 20.8882 31.0716 20.8882C30.5083 20.8882 29.9896 20.7602 29.5158 20.5041C29.055 20.2353 28.6837 19.8576 28.402 19.371C28.1203 18.8845 27.9795 18.3211 27.9795 17.6809C27.9795 17.0408 28.1203 16.4774 28.402 15.9909C28.6837 15.5043 29.055 15.133 29.5158 14.8769C29.9896 14.6081 30.5083 14.4736 31.0716 14.4736C31.6221 14.4736 32.1342 14.6081 32.608 14.8769C33.0818 15.133 33.453 15.5043 33.7218 15.9909C34.0035 16.4774 34.1443 17.0408 34.1443 17.6809C34.1443 18.3211 34.0035 18.8845 33.7218 19.371C33.453 19.8576 33.0818 20.2353 32.608 20.5041Z" fill="#EDFCF7" fill-opacity="0.62"/>
<path d="M39.7814 22.4439H37.7842V9.00003H39.7814V16.1637L43.0849 12.918H45.5622L42.1246 16.2789L46.0809 22.4439H43.8145L40.7226 17.6425L39.7814 18.5644V22.4439Z" fill="#EDFCF7" fill-opacity="0.62"/>
<path d="M47.8341 21.9254C48.5381 22.4503 49.4217 22.7128 50.4843 22.7128C51.2398 22.7128 51.8927 22.5783 52.4434 22.3095C53.0067 22.0278 53.4293 21.6501 53.7109 21.1763C54.0053 20.7026 54.1527 20.1841 54.1527 19.6207C54.1527 18.8269 53.8901 18.2059 53.3653 17.7578C52.853 17.2968 52.0592 16.9575 50.9837 16.7399C50.1899 16.5862 49.5882 16.3878 49.1784 16.1445C48.7815 15.9012 48.583 15.5939 48.583 15.2227C48.583 14.8769 48.7432 14.6145 49.0632 14.4352C49.3832 14.2432 49.7866 14.1471 50.2731 14.1471C50.7982 14.1471 51.259 14.3008 51.6559 14.6081C52.0657 14.9026 52.3794 15.3251 52.5969 15.8756L54.0566 15.0114C53.698 14.2176 53.2179 13.6286 52.6162 13.2445C52.0145 12.8476 51.2207 12.6491 50.2348 12.6491C49.2745 12.6491 48.4615 12.886 47.7956 13.3597C47.1426 13.8334 46.8161 14.48 46.8161 15.2995C46.8161 16.1061 47.1107 16.7463 47.6997 17.22C48.3014 17.6938 49.0951 18.0266 50.081 18.2187C50.8621 18.3595 51.4255 18.5452 51.7711 18.7756C52.1297 18.9933 52.3089 19.2942 52.3089 19.6783C52.3089 20.088 52.1361 20.4209 51.7904 20.677C51.4575 20.9203 51.035 21.0419 50.5228 21.0419C49.8826 21.0419 49.3385 20.8498 48.8903 20.4657C48.4422 20.0816 48.1093 19.5567 47.8917 18.8909L46.2783 19.8896C46.6242 20.7218 47.1426 21.4004 47.8341 21.9254Z" fill="#EDFCF7" fill-opacity="0.62"/>
<path fill-rule="evenodd" clip-rule="evenodd" d="M55.9082 22.4439V9.00003H61.4394C62.3742 9.00003 63.1807 9.16008 63.8593 9.48018C64.5508 9.78747 65.0756 10.2292 65.4342 10.8054C65.8054 11.3815 65.9912 12.0409 65.9912 12.7835C65.9912 13.7694 65.7159 14.5888 65.1654 15.2418C64.6147 15.882 63.8402 16.3429 62.8414 16.6246L66.1447 22.4439H63.8017L60.5943 16.8167H57.9825V22.4439H55.9082ZM61.3434 14.9921C62.1885 14.9921 62.8287 14.8193 63.2639 14.4736C63.6994 14.1151 63.9169 13.5901 63.9169 12.8988C63.9169 12.2202 63.6994 11.708 63.2639 11.3623C62.8287 11.0038 62.1885 10.8246 61.3434 10.8246H57.9825V14.9921H61.3434Z" fill="#EDFCF7" fill-opacity="0.62"/>
<path fill-rule="evenodd" clip-rule="evenodd" d="M67.8697 21.9061C68.4587 22.4439 69.2269 22.7128 70.1744 22.7128C70.8786 22.7128 71.5187 22.5399 72.0949 22.1942C72.6839 21.8485 73.1255 21.3684 73.4201 20.7538C73.4201 21.4324 73.593 21.9958 73.9386 22.4439H75.9553C75.7246 22.0854 75.5647 21.7397 75.4752 21.4068C75.3853 21.0611 75.3407 20.6194 75.3407 20.0816V15.9524C75.3407 14.8769 74.995 14.0575 74.3035 13.4942C73.6249 12.9308 72.6454 12.6491 71.3651 12.6491C70.5969 12.6491 69.9184 12.7836 69.3294 13.0524C68.7404 13.3085 68.2859 13.6542 67.9657 14.0895C67.6583 14.512 67.5048 14.973 67.5048 15.4723C67.5048 15.754 67.556 16.0165 67.6583 16.2597L69.406 15.6644C69.3806 15.5875 69.3677 15.5043 69.3677 15.4147C69.3677 15.0434 69.5405 14.7361 69.8862 14.4928C70.2447 14.2368 70.7378 14.1087 71.3651 14.1087C72.0054 14.1087 72.4919 14.2496 72.8248 14.5312C73.1704 14.8129 73.3433 15.229 73.3433 15.7796V16.1637L70.3087 16.6438C69.3357 16.7975 68.5356 17.1304 67.908 17.6425C67.2936 18.1547 66.9863 18.8589 66.9863 19.7551C66.9863 20.6386 67.2807 21.3556 67.8697 21.9061ZM72.5751 20.1776C72.0757 20.7666 71.4164 21.0611 70.5969 21.0611C70.0846 21.0611 69.675 20.9395 69.3677 20.6962C69.0733 20.4401 68.9259 20.0944 68.9259 19.6591C68.9259 19.2238 69.0797 18.8717 69.387 18.6028C69.707 18.3339 70.1615 18.1483 70.7505 18.0459L73.3433 17.6041V17.873C73.3433 18.8077 73.0872 19.5759 72.5751 20.1776Z" fill="#EDFCF7" fill-opacity="0.62"/>
<path d="M77.4346 22.4439V12.918H79.432V14.5312C79.688 13.9551 80.0466 13.5006 80.5075 13.1677C80.9812 12.822 81.5126 12.6491 82.1016 12.6491C82.3833 12.6491 82.6584 12.6875 82.9274 12.7643L82.6008 14.6081C82.3577 14.5184 82.1016 14.4736 81.8326 14.4736C81.1284 14.4736 80.5524 14.7745 80.1042 15.3763C79.6561 15.9653 79.432 16.6951 79.432 17.5657V22.4439H77.4346Z" fill="#EDFCF7" fill-opacity="0.62"/>
<path fill-rule="evenodd" clip-rule="evenodd" d="M85.4768 22.079C86.2194 22.5015 87.0261 22.7128 87.8968 22.7128C88.9466 22.7128 89.83 22.4823 90.5471 22.0214C91.264 21.5605 91.853 20.8626 92.3139 19.928L90.8544 19.0829C90.5342 19.7103 90.1437 20.1905 89.6828 20.5234C89.2219 20.8434 88.6393 21.0035 87.9351 21.0035C87.1157 21.0035 86.4371 20.7346 85.8994 20.1969C85.3616 19.6591 85.0607 18.9613 84.9967 18.1035H92.6019V17.4121C92.6019 16.4902 92.41 15.6708 92.0258 14.9538C91.6417 14.224 91.0976 13.6606 90.3934 13.2637C89.7021 12.854 88.9017 12.6491 87.9927 12.6491C87.0837 12.6491 86.2514 12.8668 85.4961 13.3021C84.7533 13.7246 84.1644 14.32 83.7291 15.0882C83.2937 15.8436 83.0762 16.7079 83.0762 17.6809C83.0762 18.654 83.2937 19.5247 83.7291 20.2929C84.1644 21.0611 84.747 21.6565 85.4768 22.079ZM89.8173 14.8385C90.3294 15.2483 90.6238 15.818 90.7007 16.5478H85.035C85.2015 15.8692 85.5471 15.3123 86.0722 14.8769C86.5972 14.4288 87.2182 14.2048 87.9351 14.2048C88.6776 14.2048 89.3052 14.416 89.8173 14.8385Z" fill="#EDFCF7" fill-opacity="0.62"/>
<path fill-rule="evenodd" clip-rule="evenodd" d="M105.177 16.9495C103.67 16.9495 102.448 15.7284 102.448 14.2207C102.448 12.7131 103.67 11.492 105.177 11.492C106.683 11.492 107.906 12.7131 107.906 14.2207C107.906 15.7284 106.683 16.9495 105.177 16.9495ZM103.991 14.2207C103.991 14.8762 104.522 15.4072 105.177 15.4072C105.832 15.4072 106.363 14.8762 106.363 14.2207C106.363 13.5652 105.832 13.0344 105.177 13.0344C104.522 13.0344 103.991 13.5652 103.991 14.2207Z" fill="#EDFCF7" fill-opacity="0.62"/>
<path fill-rule="evenodd" clip-rule="evenodd" d="M101.617 9.00053L96.3975 14.2243L105.177 23.0001L113.956 14.2243L108.736 9.00053H101.617ZM101.143 12.3224C103.361 10.0947 106.993 10.0947 109.211 12.3224L111.109 14.2207L109.211 16.119C106.993 18.3467 103.361 18.3467 101.143 16.119L99.2448 14.2207L101.143 12.3224Z" fill="#EDFCF7" fill-opacity="0.62"/>
</g>
</g>
</svg>
