<svg width="120" height="32" viewBox="0 0 120 32" fill="none" xmlns="http://www.w3.org/2000/svg">
<g id="Logo/MagicEden">
<g id="Union">
<path fill-rule="evenodd" clip-rule="evenodd" d="M5.51055 28H23.8941C24.0444 27.9667 24.1941 27.9329 24.3439 27.8991C25.5985 27.6138 26.4892 26.6336 26.6527 25.3608C26.6578 25.3203 26.6728 25.2809 26.6878 25.2416C26.695 25.2229 26.7021 25.2043 26.7081 25.1855V6.79818C26.6976 6.75132 26.6872 6.70446 26.6767 6.65761C26.6535 6.55368 26.6303 6.44981 26.6067 6.34617C26.2961 4.97603 25.1106 4.00529 23.7062 4.00388C17.705 3.99871 11.7039 3.99871 5.70273 4.00388C4.1719 4.00529 2.93427 5.13297 2.75102 6.66567C2.72941 6.84328 2.71625 7.02277 2.71625 7.20179C2.71484 13.1024 2.71484 19.0035 2.71484 24.904C2.71484 26.4057 3.67055 27.5987 5.12667 27.9178C5.21944 27.9382 5.31245 27.958 5.40535 27.9777C5.44044 27.9851 5.47552 27.9925 5.51055 28ZM15.3663 14.1942C15.3536 14.1877 15.3394 14.1803 15.3237 14.1709C15.3041 14.1932 15.2845 14.2155 15.2646 14.2372C15.2221 14.2836 15.1799 14.3294 15.1428 14.379C14.9271 14.6661 14.7088 14.9516 14.4905 15.237C13.9585 15.9324 13.4265 16.628 12.9312 17.3486C12.3584 18.1817 11.3209 18.0059 10.8224 17.4919C10.3465 17.0008 9.85995 16.5201 9.37348 16.0395C9.16499 15.8335 8.95651 15.6275 8.74888 15.4207C8.73702 15.409 8.72539 15.3969 8.71377 15.3848C8.68164 15.3515 8.64954 15.3182 8.61262 15.292C8.51583 15.2229 8.45051 15.2502 8.43689 15.3704C8.43206 15.4159 8.4328 15.4619 8.43353 15.5079C8.4338 15.5246 8.43407 15.5413 8.43407 15.5579C8.43392 15.9952 8.43423 16.4325 8.43455 16.8697C8.43523 17.8316 8.43592 18.7933 8.43172 19.7552C8.42843 20.5319 7.94588 21.1113 7.19127 21.2701C6.46673 21.4228 5.70837 20.8425 5.68722 20.1025C5.67545 19.694 5.67765 19.2853 5.67984 18.8767C5.68072 18.7147 5.68159 18.5527 5.68159 18.3907C5.68159 17.7002 5.68153 17.0096 5.68148 16.3191C5.68138 14.9382 5.68127 13.5575 5.68159 12.1767C5.68206 11.3465 6.17401 10.7723 6.99721 10.6976C7.42526 10.6591 7.80586 10.8254 8.11832 11.1346C9.08548 12.0909 10.0547 13.0451 11.0239 13.9993C11.1853 14.1581 11.3466 14.317 11.5079 14.4758C11.765 14.7287 11.7654 14.7281 11.9829 14.4302L11.9839 14.4288C12.2138 14.1138 12.4445 13.7995 12.6752 13.4852C13.1934 12.7791 13.7115 12.0731 14.22 11.3601C14.5438 10.9062 14.9648 10.6938 15.5117 10.6938C16.2788 10.6944 17.046 10.6941 17.8132 10.6939C19.1559 10.6935 20.4987 10.6931 21.8413 10.6967C22.4469 10.6981 22.9473 10.9076 23.1954 11.5086C23.5116 12.2735 23.0089 13.1451 22.1847 13.2358C21.8262 13.2754 21.4628 13.2768 21.1005 13.2782C21.0412 13.2784 20.9819 13.2787 20.9227 13.2791C20.3348 13.2834 19.7469 13.2825 19.159 13.2817C18.9185 13.2813 18.678 13.2809 18.4375 13.2809H18.1227C18.1524 13.3255 18.1768 13.3641 18.1983 13.3982C18.2367 13.4591 18.2662 13.506 18.3018 13.5478C18.4745 13.7522 18.6483 13.9555 18.8222 14.1589C19.0697 14.4484 19.3172 14.738 19.5615 15.0303C20.0285 15.5889 20.0699 16.2754 19.6291 16.8566C19.3601 17.2112 19.072 17.5511 18.784 17.8909C18.6274 18.0757 18.4708 18.2604 18.3173 18.4476C18.2795 18.4937 18.2549 18.5504 18.2302 18.6071C18.2189 18.633 18.2076 18.659 18.1951 18.6839C18.2228 18.6901 18.2505 18.6979 18.2782 18.7058C18.3374 18.7226 18.3966 18.7394 18.4559 18.7394C18.9866 18.7413 19.5173 18.7412 20.048 18.7411C20.7051 18.741 21.3622 18.7409 22.0193 18.7446C22.6532 18.7483 23.2147 19.2384 23.2546 19.8032C23.3152 20.6588 22.7547 21.2499 21.8648 21.2536C20.9522 21.2573 20.0394 21.2565 19.1265 21.2557C18.7421 21.2554 18.3577 21.2551 17.9733 21.2551C17.7786 21.2551 17.5839 21.2558 17.3892 21.2566C16.8883 21.2586 16.3875 21.2606 15.8871 21.2494C15.6329 21.2438 15.3679 21.2132 15.1292 21.131C14.3126 20.85 14.0565 20.0494 14.5578 19.2896C14.9132 18.7511 15.2928 18.2283 15.6724 17.7056C15.7932 17.5391 15.9141 17.3727 16.0342 17.2057C16.1422 17.0554 16.2534 16.9073 16.3647 16.7593C16.5163 16.5575 16.668 16.3557 16.8113 16.1481C16.8574 16.0813 16.8668 15.9249 16.8212 15.8694C16.4369 15.4047 16.042 14.9485 15.6473 14.4927C15.5715 14.4051 15.4957 14.3176 15.4201 14.2301C15.4076 14.2158 15.3895 14.2064 15.3663 14.1942Z" fill="#EDFCF7" fill-opacity="0.62"/>
<path d="M73.4476 13.971C73.1679 13.8312 72.856 13.7559 72.544 13.7666C71.2856 13.7666 70.4466 14.6917 70.4358 16.4019C70.4358 18.1014 71.2748 19.0264 72.4903 19.0264C72.8022 19.0371 73.1141 18.9726 73.383 18.822C73.6519 18.6822 73.8885 18.4671 74.0391 18.1982C74.1144 18.0368 74.222 17.9077 74.3618 17.8109C74.5017 17.7141 74.663 17.6496 74.8351 17.6388H75.2116C75.3084 17.6281 75.4052 17.6496 75.4912 17.6819C75.5773 17.7141 75.6526 17.7679 75.7171 17.8432C75.7709 17.9077 75.8139 17.9938 75.8354 18.0906C75.8569 18.1874 75.8569 18.2842 75.8247 18.3703C75.4052 19.5212 74.2328 20.4462 72.501 20.4462C70.3068 20.4462 68.7148 18.9726 68.7148 16.3481C68.7148 13.7236 70.3498 12.25 72.501 12.25C74.136 12.25 75.4052 13.0244 75.8677 14.412C75.8892 14.5088 75.9 14.5948 75.8785 14.6917C75.8569 14.7777 75.8247 14.8637 75.7601 14.939C75.6956 15.0036 75.6203 15.0681 75.5343 15.1004C75.4482 15.1327 75.3514 15.1542 75.2546 15.1434H74.9319C74.7598 15.1434 74.5877 15.0896 74.4479 14.9928C74.3081 14.896 74.2005 14.7562 74.1359 14.5948C73.9639 14.3259 73.7272 14.1216 73.4476 13.971Z" fill="#EDFCF7" fill-opacity="0.62"/>
<path d="M59.6014 16.1223H57.547C57.3749 16.1223 57.2028 16.1868 57.0845 16.3159C56.9661 16.4342 56.8908 16.6063 56.8908 16.7677C56.8908 16.9398 56.9554 17.1011 57.0845 17.2194C57.2028 17.3377 57.3749 17.413 57.547 17.413H57.9234C58.2999 17.413 58.6764 17.7357 58.4828 18.1014C58.2031 18.7038 57.6438 19.0265 56.751 19.0265C55.4388 19.0265 54.6428 18.0584 54.6428 16.402C54.6428 14.7455 55.4818 13.7774 56.751 13.7774C57.0414 13.7667 57.3319 13.8205 57.6008 13.9495C57.8589 14.0786 58.0848 14.2722 58.2461 14.5089C58.3214 14.6379 58.429 14.7563 58.5581 14.8423C58.6871 14.9284 58.8377 14.9714 58.9991 14.9714H59.4185C59.5154 14.9821 59.6122 14.9606 59.6982 14.9284C59.7843 14.8961 59.8596 14.8316 59.9241 14.767C59.9886 14.6917 60.0209 14.6057 60.0424 14.5196C60.0639 14.4228 60.0532 14.3368 60.0316 14.24C59.7412 13.6376 59.2787 13.1321 58.6871 12.7879C58.1063 12.4437 57.4287 12.2716 56.751 12.3039C54.5998 12.3039 52.9648 13.8205 52.9648 16.402C52.9648 18.9834 54.503 20.5001 56.794 20.5001C58.8485 20.5001 60.3006 19.2093 60.3006 17.1334V16.8107C60.3006 16.7246 60.2898 16.6278 60.2468 16.5418C60.2145 16.4557 60.1607 16.3804 60.0962 16.3159C60.0317 16.2514 59.9564 16.1976 59.8703 16.1653C59.7843 16.1331 59.6982 16.1223 59.6014 16.1223Z" fill="#EDFCF7" fill-opacity="0.62"/>
<path d="M38.3285 12.39H39.2643C39.4472 12.4008 39.63 12.476 39.7591 12.5944C39.8989 12.7127 39.9958 12.8848 40.028 13.0676V19.7042C40.0173 19.887 39.942 20.0591 39.8129 20.1882C39.6731 20.3173 39.501 20.3926 39.3181 20.3926H39.0385C38.8448 20.3926 38.6727 20.3173 38.5437 20.1882C38.4038 20.0591 38.3285 19.887 38.3285 19.7042V15.2296C38.3285 15.2189 38.3285 15.2081 38.3178 15.1974C38.307 15.1866 38.2963 15.1866 38.2855 15.1866C38.2748 15.1866 38.264 15.1866 38.2533 15.1974C38.2425 15.2081 38.2425 15.2189 38.2425 15.2296L36.3279 19.9301C36.2634 20.0592 36.1773 20.156 36.059 20.2312C35.9407 20.3065 35.8116 20.3496 35.6718 20.3496H35.4889C35.3491 20.3496 35.2093 20.3173 35.0909 20.242C34.9726 20.1667 34.8866 20.0592 34.8328 19.9301L32.9182 15.1866C32.9182 15.1758 32.9182 15.1651 32.9074 15.1543C32.8967 15.1436 32.8859 15.1436 32.8752 15.1436C32.8644 15.1436 32.8537 15.1436 32.8429 15.1543C32.8321 15.1651 32.8321 15.1758 32.8321 15.1866V19.7042C32.8321 19.8763 32.7569 20.0484 32.6278 20.1775C32.4987 20.3065 32.3266 20.3818 32.1438 20.3926H31.8641C31.7458 20.3926 31.6167 20.3603 31.5091 20.2958C31.4016 20.2312 31.3155 20.1344 31.2617 20.0269C31.2187 19.9623 31.208 19.8763 31.2187 19.801L32.7784 12.7665C32.8214 12.5298 33.058 12.347 33.2409 12.4868C33.3484 12.5729 33.4237 12.6804 33.4775 12.8095L35.5319 17.6928C35.5319 17.7358 35.532 17.7358 35.575 17.7358C35.5857 17.7358 35.5965 17.7358 35.6072 17.7251C35.618 17.7143 35.618 17.7035 35.618 17.6928L37.6724 12.8095C37.737 12.6804 37.823 12.5836 37.9413 12.5083C38.0596 12.433 38.1887 12.39 38.3285 12.39Z" fill="#EDFCF7" fill-opacity="0.62"/>
<path fill-rule="evenodd" clip-rule="evenodd" d="M47.8548 12.5191C47.9731 12.6051 48.0699 12.7234 48.1129 12.8525L50.3932 19.4783C50.4363 19.5859 50.4363 19.6934 50.4255 19.801C50.4148 19.9086 50.3717 20.0161 50.3072 20.1022C50.2427 20.1882 50.1566 20.2635 50.0598 20.3173C49.963 20.3711 49.8554 20.4033 49.7479 20.4033H49.3714C49.2316 20.4033 49.0917 20.3603 48.9734 20.2743C48.8551 20.1882 48.7583 20.0699 48.7153 19.9408L48.4356 19.0696C48.3818 18.9298 48.2958 18.8222 48.1775 18.7361C48.0592 18.6501 47.9193 18.6071 47.7795 18.6071H45.8649C45.7251 18.6071 45.5852 18.6501 45.4669 18.7361C45.3486 18.8222 45.2518 18.9405 45.2088 19.0696L44.9291 19.9408C44.8753 20.0807 44.7893 20.1882 44.671 20.2743C44.5526 20.3603 44.4128 20.4033 44.273 20.4033H43.8965C43.789 20.3926 43.6814 20.3711 43.5846 20.3173C43.4878 20.2635 43.4017 20.1882 43.3372 20.1022C43.2727 20.0161 43.2296 19.9086 43.2189 19.801C43.2081 19.6934 43.2189 19.5859 43.2511 19.4783L45.5852 12.8525C45.639 12.7127 45.7251 12.6051 45.8434 12.5191C45.9617 12.433 46.1015 12.39 46.2414 12.39H47.4568C47.5966 12.39 47.7365 12.433 47.8548 12.5191ZM46.7792 17.2303H46.919C47.0373 17.2195 47.1449 17.1873 47.2202 17.1442C47.317 17.0904 47.403 17.0152 47.4676 16.9291C47.5429 16.8323 47.5859 16.7355 47.6074 16.6279C47.6289 16.5204 47.6289 16.4128 47.6074 16.3052L46.9082 14.1863C46.9082 14.1755 46.9082 14.1648 46.8975 14.154C46.8867 14.1433 46.876 14.1433 46.8652 14.1433C46.8545 14.1433 46.8437 14.1433 46.833 14.154C46.8222 14.1648 46.8222 14.1755 46.8222 14.1863L46.123 16.3052C46.08 16.4128 46.08 16.5204 46.0908 16.6279C46.1015 16.7355 46.1446 16.8431 46.2091 16.9291C46.2736 17.0152 46.3597 17.0904 46.4565 17.1442C46.564 17.198 46.6716 17.2303 46.7792 17.2303Z" fill="#EDFCF7" fill-opacity="0.62"/>
<path d="M64.1748 12.39H64.4974C64.6803 12.4008 64.8524 12.476 64.9922 12.6051C65.1213 12.7342 65.1966 12.8955 65.2073 13.0784V19.715C65.1966 19.8978 65.1213 20.0699 64.9922 20.199C64.8524 20.3281 64.6803 20.4033 64.4974 20.4033H64.1748C63.9811 20.4033 63.809 20.3281 63.68 20.199C63.5401 20.0699 63.4648 19.8978 63.4648 19.715V13.0784C63.4756 12.8955 63.5509 12.7234 63.68 12.5944C63.8198 12.4653 63.9919 12.39 64.1748 12.39Z" fill="#EDFCF7" fill-opacity="0.62"/>
<path d="M87.4239 18.9727H85.036C84.8531 18.9727 84.681 18.8974 84.5412 18.7684C84.4121 18.6393 84.3368 18.4672 84.3261 18.2843V17.7358C84.3261 17.5529 84.4014 17.3808 84.5412 17.2517C84.6703 17.1227 84.8424 17.0474 85.036 17.0474H87.0797C87.2625 17.0474 87.4454 16.9721 87.5744 16.843C87.7035 16.7139 87.7788 16.5418 87.7788 16.359C87.7788 16.1761 87.7035 16.004 87.5744 15.875C87.4454 15.7459 87.2625 15.6706 87.0797 15.6706H85.0252C84.8424 15.6706 84.6703 15.5953 84.5305 15.4662C84.4014 15.3371 84.3261 15.165 84.3153 14.9822V14.4336C84.3153 14.2508 84.3906 14.0787 84.5305 13.9496C84.6595 13.8205 84.8316 13.7452 85.0252 13.7452H87.3593C87.5422 13.7452 87.725 13.6699 87.8541 13.5409C87.9832 13.4118 88.0585 13.2397 88.0585 13.0568C88.0585 12.874 87.9832 12.7019 87.8541 12.5728C87.725 12.4437 87.5422 12.3684 87.3593 12.3684H84.552C84.4444 12.3684 84.3369 12.4007 84.2508 12.4652C84.1647 12.5298 84.111 12.6266 84.0895 12.7341L82.5943 19.6934V19.8332C82.6159 19.9946 82.7019 20.1451 82.8417 20.242C82.9708 20.3495 83.1322 20.3925 83.3042 20.3818H87.4239C87.6067 20.3818 87.7896 20.3065 87.9187 20.1774C88.0477 20.0483 88.123 19.8762 88.123 19.6934C88.123 19.5105 88.0477 19.3384 87.9187 19.2094C87.7896 19.0803 87.6067 19.005 87.4239 19.005V18.9727Z" fill="#EDFCF7" fill-opacity="0.62"/>
<path fill-rule="evenodd" clip-rule="evenodd" d="M94.119 12.39H91.9247C91.7419 12.39 91.5698 12.4653 91.43 12.5944C91.3009 12.7234 91.2256 12.8955 91.2148 13.0784V19.715C91.2148 19.8978 91.2901 20.0699 91.43 20.199C91.559 20.3281 91.7311 20.4033 91.9247 20.4033H94.119C96.5929 20.4033 98.0988 18.8867 98.0988 16.3913C98.0988 13.9066 96.5499 12.39 94.119 12.39ZM94.0222 18.9298H93.6457C93.4629 18.9298 93.2908 18.8545 93.151 18.7254C93.0219 18.5963 92.9466 18.4242 92.9358 18.2414V14.509C92.9358 14.3261 93.0111 14.154 93.151 14.0249C93.28 13.8959 93.4521 13.8206 93.6457 13.8206H94.0222C95.5603 13.8206 96.3563 14.6058 96.3563 16.359C96.3671 18.1015 95.5711 18.9298 94.0222 18.9298Z" fill="#EDFCF7" fill-opacity="0.62"/>
<path d="M105.794 18.9727H103.406C103.224 18.9727 103.052 18.8974 102.912 18.7684C102.783 18.6393 102.707 18.4672 102.697 18.2843V17.7358C102.697 17.5529 102.772 17.3808 102.912 17.2517C103.041 17.1227 103.213 17.0474 103.406 17.0474H105.461C105.644 17.0474 105.827 16.9721 105.956 16.843C106.085 16.7139 106.16 16.5418 106.16 16.359C106.16 16.1761 106.085 16.004 105.956 15.875C105.827 15.7459 105.644 15.6706 105.461 15.6706H103.406C103.224 15.6706 103.052 15.5953 102.912 15.4662C102.783 15.3371 102.707 15.165 102.697 14.9822V14.4336C102.697 14.2508 102.772 14.0787 102.912 13.9496C103.041 13.8205 103.213 13.7452 103.406 13.7452H105.741C105.923 13.7452 106.106 13.6699 106.235 13.5409C106.364 13.4118 106.44 13.2397 106.44 13.0568C106.44 12.874 106.364 12.7019 106.235 12.5728C106.106 12.4437 105.923 12.3684 105.741 12.3684H101.675C101.492 12.3684 101.32 12.4437 101.18 12.5728C101.051 12.7019 100.976 12.874 100.965 13.0568V19.6934C100.965 19.8762 101.04 20.0483 101.18 20.1774C101.309 20.3065 101.481 20.3818 101.675 20.3818H105.794C105.977 20.3818 106.149 20.3065 106.289 20.1774C106.418 20.0483 106.494 19.8762 106.504 19.6934C106.504 19.6073 106.494 19.5105 106.45 19.4245C106.418 19.3384 106.364 19.2631 106.3 19.1986C106.235 19.1341 106.16 19.0803 106.074 19.048C105.977 18.9942 105.891 18.9727 105.794 18.9727Z" fill="#EDFCF7" fill-opacity="0.62"/>
<path d="M116.064 12.39H115.741C115.558 12.39 115.386 12.4653 115.246 12.5944C115.117 12.7234 115.042 12.8955 115.031 13.0784V17.3594C115.031 17.4024 115.031 17.4024 114.988 17.4024H114.945L111.675 12.7019C111.611 12.6159 111.524 12.5406 111.428 12.4976C111.331 12.4545 111.223 12.4223 111.116 12.433H110.675C110.492 12.433 110.32 12.5083 110.18 12.6374C110.051 12.7665 109.976 12.9386 109.965 13.1214V19.758C109.965 19.9408 110.04 20.1129 110.18 20.242C110.309 20.3711 110.481 20.4464 110.675 20.4464H110.997C111.18 20.4464 111.352 20.3711 111.492 20.242C111.621 20.1129 111.697 19.9408 111.707 19.758V15.4232C111.707 15.4125 111.707 15.4017 111.718 15.391C111.729 15.3802 111.74 15.3802 111.75 15.3802H111.793L115.117 20.0807C115.182 20.1667 115.268 20.242 115.364 20.285C115.461 20.3281 115.569 20.3603 115.676 20.3496H116.096C116.279 20.3496 116.451 20.2743 116.591 20.1452C116.72 20.0161 116.795 19.844 116.806 19.6612V13.0246C116.773 12.8525 116.687 12.6912 116.558 12.5836C116.408 12.4653 116.236 12.4008 116.064 12.39Z" fill="#EDFCF7" fill-opacity="0.62"/>
</g>
</g>
</svg>
