<svg width="52" height="20" viewBox="0 0 52 20" fill="none" xmlns="http://www.w3.org/2000/svg">
<rect width="52" height="20" rx="2" fill="#09090B" fill-opacity="0.7"/>
<g clip-path="url(#clip0_5444_7131)">
<path d="M3 4C3 3.44772 3.44772 3 4 3H16C16.5523 3 17 3.44772 17 4V16C17 16.5523 16.5523 17 16 17H4C3.44772 17 3 16.5523 3 16V4Z" fill="#4F46E5"/>
<rect width="14" height="14" transform="translate(3 3)" fill="#4F46E5"/>
<path d="M7.94366 6.50043L8.64349 7.90009H6.54358V13.5004H5.14392V6.50043H7.94366Z" fill="white"/>
<path d="M6.54392 12.1003L8.64426 12.1003L8.64426 6.5L10.0439 6.5L10.0439 13.5H7.24375L6.54392 12.1003Z" fill="white"/>
<path d="M14.9442 10.2891L11.7339 13.4994H10.7439V12.509L13.9538 9.29915H14.9442V10.2891Z" fill="white"/>
<path d="M12.4948 10.0588V10.7868L12.8549 10.419L14.9442 12.5082V13.4985H13.9542L10.7439 10.2882V9.29829H11.7343L12.4948 10.0588Z" fill="white"/>
</g>
<path d="M20.145 7V6.66162L20.4944 6.5957V4.20728L20.145 4.14136V3.80078H20.4944H21.6458C21.8845 3.80078 22.0889 3.84253 22.2588 3.92603C22.4302 4.00952 22.5613 4.12598 22.6521 4.27539C22.7429 4.42334 22.7883 4.59692 22.7883 4.79614C22.7883 4.99536 22.7429 5.16968 22.6521 5.31909C22.5613 5.46704 22.4302 5.58203 22.2588 5.66406C22.0889 5.74609 21.8845 5.78711 21.6458 5.78711H21.0481V6.5957L21.3975 6.66162V7H20.145ZM21.0481 5.35864H21.6458C21.842 5.35864 21.9893 5.30591 22.0874 5.20044C22.1855 5.09497 22.2346 4.96167 22.2346 4.80054C22.2346 4.63647 22.1855 4.50024 22.0874 4.39185C21.9893 4.28345 21.842 4.22925 21.6458 4.22925H21.0481V5.35864ZM24.5589 7.04614C24.3304 7.04614 24.1341 6.99487 23.97 6.89233C23.806 6.78979 23.68 6.64771 23.5921 6.46606C23.5042 6.28296 23.4603 6.07275 23.4603 5.83545V5.78931C23.4603 5.55347 23.5042 5.34473 23.5921 5.16309C23.68 4.98145 23.806 4.83862 23.97 4.73462C24.1341 4.63062 24.3289 4.57861 24.5545 4.57861C24.783 4.57861 24.9793 4.63062 25.1434 4.73462C25.3074 4.83716 25.4334 4.97925 25.5213 5.16089C25.6092 5.34253 25.6531 5.552 25.6531 5.78931V5.83545C25.6531 6.07275 25.6092 6.28296 25.5213 6.46606C25.4334 6.64771 25.3074 6.78979 25.1434 6.89233C24.9808 6.99487 24.7859 7.04614 24.5589 7.04614ZM24.5589 6.61987C24.6819 6.61987 24.783 6.58691 24.8621 6.521C24.9427 6.45361 25.0027 6.36133 25.0423 6.24414C25.0818 6.12549 25.1016 5.98926 25.1016 5.83545V5.78931C25.1016 5.63696 25.0818 5.5022 25.0423 5.38501C25.0027 5.26782 24.9427 5.17554 24.8621 5.10815C24.7815 5.04077 24.679 5.00708 24.5545 5.00708C24.4329 5.00708 24.3318 5.04077 24.2513 5.10815C24.1707 5.17554 24.1106 5.26782 24.0711 5.38501C24.033 5.5022 24.014 5.63696 24.014 5.78931V5.83545C24.014 5.98926 24.033 6.12549 24.0711 6.24414C24.1106 6.36133 24.1707 6.45361 24.2513 6.521C24.3333 6.58691 24.4358 6.61987 24.5589 6.61987ZM27.1402 7L26.5558 5.00708L26.2767 4.96313V4.62256H27.3556V4.96313L27.0875 5.01147L27.3534 6.04419L27.4083 6.26831H27.4215L27.4984 6.04419L27.9972 4.62256H28.3993L28.8805 6.05298L28.9618 6.30566H28.975L29.0519 6.05298L29.3397 5.01147L29.0541 4.96313V4.62256H30.1109V4.96313L29.8385 5.00928L29.2298 7H28.7442L28.2894 5.7168L28.1971 5.40479H28.1839L28.0917 5.7168L27.6258 7H27.1402ZM31.8639 7.04614C31.6398 7.04614 31.4442 6.99634 31.2772 6.89673C31.1117 6.79565 30.9828 6.65649 30.8905 6.47925C30.7997 6.302 30.7543 6.09912 30.7543 5.87061V5.77832C30.7543 5.54688 30.799 5.34106 30.8883 5.16089C30.9792 4.98071 31.1037 4.83862 31.2619 4.73462C31.4201 4.63062 31.6002 4.57861 31.8024 4.57861C32.0177 4.57861 32.1979 4.62183 32.3429 4.70825C32.4894 4.79468 32.6 4.91772 32.6747 5.07739C32.7494 5.2356 32.7868 5.42603 32.7868 5.64868V5.96509H31.3278L31.3234 5.97607C31.3292 6.10059 31.3549 6.21118 31.4003 6.30786C31.4472 6.40454 31.5131 6.48071 31.598 6.53638C31.6845 6.59204 31.7892 6.61987 31.9123 6.61987C32.0412 6.61987 32.1583 6.60229 32.2638 6.56714C32.3693 6.53198 32.4667 6.48218 32.5561 6.41772L32.7296 6.76489C32.6359 6.84399 32.5165 6.91064 32.3715 6.96484C32.2265 7.01904 32.0573 7.04614 31.8639 7.04614ZM31.3366 5.57617H32.2572V5.51904C32.2572 5.41504 32.2411 5.32422 32.2089 5.24658C32.1781 5.16748 32.1291 5.10596 32.0617 5.06201C31.9958 5.01807 31.9115 4.99609 31.809 4.99609C31.7196 4.99609 31.6413 5.021 31.5739 5.0708C31.5065 5.12061 31.4523 5.18872 31.4113 5.27515C31.3717 5.36011 31.3446 5.45679 31.33 5.56519L31.3366 5.57617ZM33.5751 7V6.66162L33.9047 6.5957V5.02905L33.5576 4.96313V4.62256H34.4145L34.4431 4.92139L34.4475 4.96973C34.5104 4.84375 34.5874 4.74707 34.6782 4.67969C34.7705 4.6123 34.8781 4.57861 35.0012 4.57861C35.0422 4.57861 35.0854 4.58228 35.1308 4.5896C35.1777 4.59692 35.2158 4.60498 35.2451 4.61377L35.1813 5.12573L34.8715 5.10815C34.7705 5.10229 34.687 5.12207 34.621 5.16748C34.5566 5.21289 34.5024 5.27588 34.4584 5.35645V6.5957L34.788 6.66162V7H33.5751ZM36.9915 7.04614C36.7673 7.04614 36.5718 6.99634 36.4048 6.89673C36.2393 6.79565 36.1104 6.65649 36.0181 6.47925C35.9272 6.302 35.8818 6.09912 35.8818 5.87061V5.77832C35.8818 5.54688 35.9265 5.34106 36.0159 5.16089C36.1067 4.98071 36.2312 4.83862 36.3894 4.73462C36.5476 4.63062 36.7278 4.57861 36.9299 4.57861C37.1453 4.57861 37.3254 4.62183 37.4705 4.70825C37.6169 4.79468 37.7275 4.91772 37.8022 5.07739C37.877 5.2356 37.9143 5.42603 37.9143 5.64868V5.96509H36.4553L36.4509 5.97607C36.4568 6.10059 36.4824 6.21118 36.5278 6.30786C36.5747 6.40454 36.6406 6.48071 36.7256 6.53638C36.812 6.59204 36.9167 6.61987 37.0398 6.61987C37.1687 6.61987 37.2859 6.60229 37.3914 6.56714C37.4968 6.53198 37.5942 6.48218 37.6836 6.41772L37.8572 6.76489C37.7634 6.84399 37.644 6.91064 37.499 6.96484C37.354 7.01904 37.1848 7.04614 36.9915 7.04614ZM36.4641 5.57617H37.3848V5.51904C37.3848 5.41504 37.3687 5.32422 37.3364 5.24658C37.3057 5.16748 37.2566 5.10596 37.1892 5.06201C37.1233 5.01807 37.0391 4.99609 36.9365 4.99609C36.8472 4.99609 36.7688 5.021 36.7014 5.0708C36.634 5.12061 36.5798 5.18872 36.5388 5.27515C36.4993 5.36011 36.4722 5.45679 36.4575 5.56519L36.4641 5.57617ZM39.6365 7.04614C39.4446 7.04614 39.2806 6.9978 39.1443 6.90112C39.0081 6.80444 38.9034 6.66968 38.8301 6.49683C38.7584 6.32251 38.7225 6.11963 38.7225 5.88818V5.84204C38.7225 5.58862 38.7584 5.36743 38.8301 5.17847C38.9034 4.9895 39.0081 4.84229 39.1443 4.73682C39.282 4.63135 39.4454 4.57861 39.6343 4.57861C39.7706 4.57861 39.8892 4.60498 39.9903 4.65771C40.0928 4.70898 40.1807 4.78296 40.254 4.87964V3.97876L39.9046 3.91284V3.57227H40.254H40.8077V6.5957L41.1373 6.66162V7H40.3287L40.2847 6.71216C40.21 6.82202 40.1185 6.90552 40.0101 6.96265C39.9031 7.01831 39.7786 7.04614 39.6365 7.04614ZM39.7925 6.60889C39.898 6.60889 39.9888 6.58618 40.065 6.54077C40.1412 6.4939 40.2042 6.42651 40.254 6.33862V5.29053C40.2056 5.20557 40.1426 5.13892 40.065 5.09058C39.9888 5.04077 39.8995 5.01587 39.7969 5.01587C39.6768 5.01587 39.5779 5.05103 39.5003 5.12134C39.4241 5.19019 39.3677 5.28687 39.3311 5.41138C39.2945 5.53442 39.2762 5.67798 39.2762 5.84204V5.88818C39.2762 6.10791 39.3165 6.28296 39.397 6.41333C39.4791 6.5437 39.6109 6.60889 39.7925 6.60889ZM44.7289 7.04614C44.5795 7.04614 44.4506 7.01685 44.3422 6.95825C44.2338 6.89966 44.143 6.8147 44.0697 6.70337L44.0258 7H43.549V3.97876L43.1996 3.91284V3.57227H44.1005V4.88843C44.1723 4.78735 44.2602 4.71045 44.3642 4.65771C44.4696 4.60498 44.5919 4.57861 44.7311 4.57861C44.9259 4.57861 45.0907 4.63135 45.2255 4.73682C45.3617 4.84082 45.4657 4.9873 45.5375 5.17627C45.6093 5.36523 45.6452 5.58716 45.6452 5.84204V5.88818C45.6452 6.11963 45.6093 6.32251 45.5375 6.49683C45.4657 6.67114 45.3617 6.80664 45.2255 6.90332C45.0893 6.99854 44.9237 7.04614 44.7289 7.04614ZM44.5707 6.60889C44.7523 6.60889 44.8842 6.54517 44.9662 6.41772C45.0497 6.28882 45.0915 6.1123 45.0915 5.88818V5.84204C45.0915 5.67505 45.0731 5.53003 45.0365 5.40698C44.9999 5.28247 44.9435 5.18652 44.8673 5.11914C44.7912 5.05029 44.693 5.01587 44.5729 5.01587C44.4616 5.01587 44.3664 5.04297 44.2873 5.09717C44.2096 5.1499 44.1474 5.22168 44.1005 5.3125V6.32764C44.1488 6.41699 44.2118 6.48657 44.2895 6.53638C44.3686 6.58472 44.4623 6.60889 44.5707 6.60889ZM46.9719 7.96021C46.9265 7.96021 46.8737 7.95581 46.8137 7.94702C46.7551 7.93823 46.7038 7.92725 46.6599 7.91406L46.7214 7.49878C46.7478 7.50317 46.7792 7.50684 46.8159 7.50977C46.854 7.5127 46.884 7.51416 46.906 7.51416C46.9982 7.51416 47.0759 7.48486 47.1389 7.42627C47.2019 7.36914 47.2531 7.28931 47.2927 7.18677L47.3652 6.99561L46.5522 5.00269L46.2753 4.96313V4.62256H47.4267V4.96313L47.1345 5.00708L47.5476 6.1145L47.6201 6.32104H47.6333L48.121 5.00488L47.8288 4.96313V4.62256H48.9208V4.96313L48.6638 5.00049L47.7431 7.35815C47.6992 7.46948 47.6442 7.57056 47.5783 7.66138C47.5139 7.75366 47.4318 7.82617 47.3322 7.87891C47.2341 7.93311 47.114 7.96021 46.9719 7.96021Z" fill="#F5FCF9" fill-opacity="0.82"/>
<path d="M19.945 17.704V8.664H26.185V17.704H19.945ZM25.329 11.712H25.889V10.8H23.577V11.712H24.329V13.888H24.297L21.673 10.8H20.257V11.712H20.905V15.088H20.345V16H22.625V15.088H21.905V12.704H21.937L24.729 16.008L25.329 16V11.712ZM26.8231 17.704V8.664H31.0391V17.704H26.8231ZM27.4471 12.648L27.2871 13.584L28.1111 13.672L28.2471 13.16C28.3325 13.1173 28.4178 13.0907 28.5031 13.08C28.5938 13.064 28.6925 13.056 28.7991 13.056C29.0925 13.056 29.2631 13.144 29.3111 13.32C29.3645 13.496 29.3911 13.6773 29.3911 13.864V13.984C29.2258 13.9627 29.0285 13.952 28.7991 13.952C28.3885 13.952 28.0045 14.024 27.6471 14.168C27.2951 14.312 27.1191 14.6053 27.1191 15.048C27.1191 15.4267 27.2391 15.6933 27.4791 15.848C27.7191 16.0027 27.9698 16.08 28.2311 16.08C28.5245 16.08 28.7645 16.0053 28.9511 15.856C29.1431 15.7067 29.2898 15.5413 29.3911 15.36V15.368C29.4445 15.8427 29.7085 16.08 30.1831 16.08C30.4071 16.08 30.6231 16.024 30.8311 15.912L30.8231 15.368C30.7698 15.384 30.7191 15.392 30.6711 15.392C30.5058 15.392 30.4231 15.2987 30.4231 15.112V13.544C30.4231 13.1333 30.2818 12.8267 29.9991 12.624C29.7165 12.4213 29.3805 12.32 28.9911 12.32C28.6978 12.32 28.4445 12.344 28.2311 12.392C28.0231 12.4347 27.7618 12.52 27.4471 12.648ZM29.3911 14.528C29.3645 14.8107 29.2711 15.0187 29.1111 15.152C28.9565 15.28 28.7885 15.344 28.6071 15.344C28.4525 15.344 28.3431 15.304 28.2791 15.224C28.2151 15.144 28.1831 15.0453 28.1831 14.928C28.1831 14.7307 28.2525 14.6 28.3911 14.536C28.5298 14.4667 28.6898 14.432 28.8711 14.432C28.9565 14.432 29.0418 14.4373 29.1271 14.448C29.2178 14.4587 29.3058 14.4693 29.3911 14.48V14.528ZM31.67 17.704V8.664H38.846V17.704H31.67ZM37.15 16H38.662V15.224H38.182V13.568C38.182 13.1413 38.0567 12.8267 37.806 12.624C37.5553 12.4213 37.2673 12.32 36.942 12.32C36.3713 12.32 35.9793 12.5787 35.766 13.096C35.6807 12.8347 35.5287 12.64 35.31 12.512C35.0913 12.384 34.8513 12.32 34.59 12.32C34.0887 12.32 33.7233 12.5253 33.494 12.936V12.392H31.99V13.176H32.462V15.224H31.982V16H34.182V15.224H33.494V13.96C33.494 13.7093 33.5473 13.504 33.654 13.344C33.7607 13.184 33.9393 13.104 34.19 13.104C34.3927 13.104 34.5447 13.1707 34.646 13.304C34.7527 13.4373 34.806 13.6587 34.806 13.968V16H36.318V15.224H35.838V13.96C35.838 13.7093 35.8913 13.504 35.998 13.344C36.11 13.184 36.2887 13.104 36.534 13.104C36.7367 13.104 36.8887 13.1707 36.99 13.304C37.0967 13.4373 37.15 13.6587 37.15 13.968V16ZM39.4778 17.704V8.664H43.4938V17.704H39.4778ZM43.2618 14.864L42.3978 14.704C42.3765 14.8107 42.3151 14.9307 42.2138 15.064C42.1178 15.1973 41.9311 15.264 41.6538 15.264C41.1471 15.264 40.8645 14.9787 40.8058 14.408H43.1738C43.2111 14.2373 43.2298 14.064 43.2298 13.888C43.2245 13.4187 43.0645 13.04 42.7498 12.752C42.4405 12.464 42.0351 12.32 41.5338 12.32C40.9631 12.32 40.5178 12.5067 40.1978 12.88C39.8831 13.248 39.7258 13.7093 39.7258 14.264C39.7258 14.8667 39.8991 15.32 40.2458 15.624C40.5978 15.928 41.0431 16.08 41.5818 16.08C42.0991 16.08 42.5018 15.9573 42.7898 15.712C43.0778 15.4667 43.2351 15.184 43.2618 14.864ZM42.1658 13.808H40.8138C40.8458 13.584 40.9205 13.4027 41.0378 13.264C41.1551 13.1253 41.3205 13.056 41.5338 13.056C41.7791 13.056 41.9498 13.136 42.0458 13.296C42.1471 13.456 42.1871 13.6267 42.1658 13.808ZM44.1216 17.704V8.664H49.0656V17.704H44.1216ZM47.3216 13.176V15.216H46.8416V16H48.8336V15.216H48.3536V12.392H45.9376V11.824C45.9376 11.6693 45.9802 11.5253 46.0656 11.392C46.1562 11.2587 46.3589 11.192 46.6736 11.192C46.8282 11.192 46.9589 11.208 47.0656 11.24C47.1776 11.2667 47.2522 11.2853 47.2896 11.296L47.4416 11.808L48.2416 11.72L48.0816 10.744C47.8469 10.6213 47.6042 10.536 47.3536 10.488C47.1029 10.44 46.8762 10.416 46.6736 10.416C46.0922 10.416 45.6522 10.56 45.3536 10.848C45.0549 11.136 44.9056 11.4667 44.9056 11.84V12.392H44.4656V13.176H44.9056V15.216H44.4256V16H46.5376V15.216H45.9376V13.176H47.3216Z" fill="#1CD17D"/>
<rect x="12" y="12" width="6" height="6" rx="3" fill="#09090B"/>
<path d="M15.0933 12.75V14.4131L16.4989 15.0413L15.0933 12.75Z" fill="white" fill-opacity="0.602"/>
<path d="M15.0934 12.75L13.6875 15.0413L15.0934 14.4131V12.75Z" fill="white"/>
<path d="M15.0933 16.1187V17.2488L16.4999 15.3027L15.0933 16.1187Z" fill="white" fill-opacity="0.602"/>
<path d="M15.0934 17.2488V16.1185L13.6875 15.3027L15.0934 17.2488Z" fill="white"/>
<path d="M15.0933 15.858L16.4989 15.0418L15.0933 14.4141V15.858Z" fill="white" fill-opacity="0.2"/>
<path d="M13.6875 15.0418L15.0934 15.858V14.4141L13.6875 15.0418Z" fill="white" fill-opacity="0.602"/>
<defs>
<clipPath id="clip0_5444_7131">
<path d="M3 4C3 3.44772 3.44772 3 4 3H16C16.5523 3 17 3.44772 17 4V16C17 16.5523 16.5523 17 16 17H4C3.44772 17 3 16.5523 3 16V4Z" fill="white"/>
</clipPath>
</defs>
</svg>
