<svg width="72" height="72" viewBox="0 0 72 72" fill="none" xmlns="http://www.w3.org/2000/svg">
<rect width="72" height="72" rx="36" fill="white" fill-opacity="0.05"/>
<rect x="0.5" y="0.5" width="71" height="71" rx="35.5" stroke="white" stroke-opacity="0.1"/>
<rect x="8" y="8" width="56" height="56" rx="28" fill="#8B81F8"/>
<rect opacity="0.3" x="42.666" y="17.668" width="16.6667" height="33.3333" rx="8.33333" transform="rotate(45 42.666 17.668)" fill="white"/>
<path d="M32.4624 27.7485L35.998 24.213C37.5608 22.6502 39.6804 21.7722 41.8905 21.7722C44.1007 21.7722 46.2203 22.6502 47.7831 24.213C49.3459 25.7758 50.2239 27.8954 50.2239 30.1055C50.2239 32.3156 49.3459 34.4353 47.7831 35.9981L44.2476 39.5336M39.5335 44.2476L35.998 47.7832C34.4352 49.346 32.3156 50.224 30.1054 50.224C27.8953 50.224 25.7757 49.346 24.2129 47.7832C22.6501 46.2204 21.7721 44.1008 21.7721 41.8906C21.7721 39.6805 22.6501 37.5609 24.2129 35.9981L27.7484 32.4625M31.2839 40.7121L40.712 31.284" stroke="white" stroke-width="3.33333" stroke-linecap="round" stroke-linejoin="round"/>
</svg>
