<svg width="72" height="72" viewBox="0 0 72 72" fill="none" xmlns="http://www.w3.org/2000/svg">
<rect width="72" height="72" rx="36" fill="white" fill-opacity="0.05"/>
<rect x="0.5" y="0.5" width="71" height="71" rx="35.5" stroke="white" stroke-opacity="0.1"/>
<rect x="8" y="8" width="56" height="56" rx="28" fill="#457CFF"/>
<path opacity="0.3" d="M36.0007 19.332C45.2057 19.332 52.6673 26.7937 52.6673 35.9987C52.6673 45.2037 45.2057 52.6654 36.0007 52.6654C26.7957 52.6654 19.334 45.2037 19.334 35.9987C19.334 26.7937 26.7957 19.332 36.0007 19.332Z" fill="white"/>
<path d="M43.0736 28.9264C42.4836 28.3381 34.8236 30.1048 32.4669 32.4631C30.1103 34.8198 28.3419 42.4798 28.9303 43.0698C29.5203 43.6581 37.1803 41.8914 39.5369 39.5331C41.8953 37.1764 43.6619 29.5164 43.0736 28.9264Z" fill="white"/>
</svg>
