<svg width="120" height="32" viewBox="0 0 120 32" fill="none" xmlns="http://www.w3.org/2000/svg">
<path d="M42.4211 16.6416V16.4072C42.4211 15.8181 42.2197 15.3673 41.8169 15.0548C41.4263 14.7302 40.9136 14.5679 40.2789 14.5679C39.7906 14.5679 39.4061 14.6521 39.1254 14.8204C38.8568 14.9767 38.6005 15.2171 38.3563 15.5416C38.2831 15.6378 38.2038 15.7039 38.1183 15.74C38.0329 15.7761 37.9169 15.7941 37.7704 15.7941H37.2211C37.0869 15.7941 36.9648 15.746 36.855 15.6498C36.7573 15.5537 36.7146 15.4395 36.7267 15.3072C36.7634 14.9466 36.9403 14.592 37.2577 14.2434C37.5873 13.8827 38.0207 13.5882 38.5577 13.3598C39.0949 13.1314 39.6686 13.0172 40.2789 13.0172C41.4141 13.0172 42.3295 13.3297 43.0253 13.9549C43.7333 14.58 44.0873 15.4575 44.0873 16.5875V22.0871C44.0873 22.2194 44.0384 22.3337 43.9408 22.4298C43.8431 22.5259 43.7272 22.574 43.5929 22.574H42.9154C42.7811 22.574 42.6653 22.5259 42.5675 22.4298C42.4699 22.3337 42.4211 22.2194 42.4211 22.0871V21.3478C42.2258 21.7806 41.8107 22.1233 41.176 22.3757C40.5413 22.6282 39.9065 22.7543 39.2718 22.7543C38.6493 22.7543 38.0939 22.6461 37.6056 22.4298C37.1174 22.2013 36.739 21.8948 36.4704 21.5101C36.2141 21.1254 36.0859 20.6927 36.0859 20.2118C36.0859 19.3102 36.4278 18.607 37.1113 18.1021C37.7949 17.5852 38.7042 17.2366 39.8394 17.0563L42.4211 16.6416ZM42.4211 18.0842L40.2606 18.4267C39.4671 18.5469 38.8507 18.7453 38.4113 19.0218C37.9719 19.2862 37.7521 19.6228 37.7521 20.0316C37.7521 20.3321 37.8925 20.6026 38.1733 20.843C38.4539 21.0834 38.8813 21.2036 39.455 21.2036C40.3338 21.2036 41.0479 20.9572 41.5971 20.4643C42.1464 19.9715 42.4211 19.3283 42.4211 18.5349V18.0842Z" fill="#363FF9"/>
<path d="M48.4248 22.0871C48.4248 22.2194 48.376 22.3337 48.2783 22.4298C48.1807 22.5259 48.0647 22.574 47.9304 22.574H47.253C47.1187 22.574 47.0027 22.5259 46.9051 22.4298C46.8074 22.3337 46.7586 22.2194 46.7586 22.0871V10.2583C46.7586 10.1261 46.8074 10.0119 46.9051 9.91574C47.0027 9.81956 47.1187 9.77148 47.253 9.77148H47.9304C48.0647 9.77148 48.1807 9.81956 48.2783 9.91574C48.376 10.0119 48.4248 10.1261 48.4248 10.2583V22.0871Z" fill="#363FF9"/>
<path d="M55.0201 21.2036C56.2408 21.2036 57.0647 20.7348 57.492 19.7971C57.5774 19.6169 57.6629 19.4906 57.7483 19.4185C57.8337 19.3463 57.9497 19.3102 58.0962 19.3102H58.6455C58.7798 19.3102 58.8957 19.3583 58.9934 19.4546C59.091 19.5387 59.1398 19.6409 59.1398 19.7611C59.1398 20.1698 58.9751 20.6085 58.6455 21.0774C58.3159 21.5462 57.8399 21.9429 57.2173 22.2675C56.5947 22.5921 55.8624 22.7543 55.0201 22.7543C54.1535 22.7543 53.4027 22.574 52.7681 22.2134C52.1334 21.8527 51.645 21.3599 51.3033 20.7348C50.9615 20.0977 50.7723 19.3884 50.7357 18.607C50.7234 18.4628 50.7174 18.1863 50.7174 17.7775C50.7174 17.4891 50.7234 17.2847 50.7357 17.1645C50.8456 15.9383 51.2666 14.9406 51.9991 14.1712C52.7314 13.4019 53.7385 13.0172 55.0201 13.0172C55.8624 13.0172 56.5887 13.1795 57.199 13.5041C57.8215 13.8166 58.2914 14.2073 58.6088 14.6761C58.9384 15.1329 59.1154 15.5657 59.1398 15.9744C59.152 16.1066 59.1032 16.2208 58.9934 16.317C58.8957 16.4132 58.7798 16.4613 58.6455 16.4613H58.0962C57.9497 16.4613 57.8337 16.4252 57.7483 16.3531C57.6629 16.2809 57.5774 16.1547 57.492 15.9744C57.0647 15.0368 56.2408 14.5679 55.0201 14.5679C54.3488 14.5679 53.7629 14.7903 53.2624 15.2351C52.7619 15.6799 52.4751 16.3531 52.4018 17.2547C52.3897 17.3869 52.3835 17.6033 52.3835 17.9038C52.3835 18.1803 52.3897 18.3846 52.4018 18.5169C52.4873 19.4185 52.7742 20.0916 53.2624 20.5364C53.7629 20.9812 54.3488 21.2036 55.0201 21.2036Z" fill="#363FF9"/>
<path d="M69.7903 22.0871C69.7903 22.2194 69.7415 22.3337 69.6439 22.4298C69.5462 22.5259 69.4303 22.574 69.296 22.574H68.6185C68.4842 22.574 68.3682 22.5259 68.2706 22.4298C68.173 22.3337 68.1241 22.2194 68.1241 22.0871V17.3268C68.1241 16.4252 67.8983 15.74 67.4467 15.2712C66.9951 14.8023 66.3664 14.5679 65.5608 14.5679C64.7674 14.5679 64.1387 14.8023 63.6749 15.2712C63.2233 15.74 62.9975 16.4252 62.9975 17.3268V22.0871C62.9975 22.2194 62.9486 22.3337 62.851 22.4298C62.7534 22.5259 62.6374 22.574 62.5031 22.574H61.8256C61.6913 22.574 61.5754 22.5259 61.4777 22.4298C61.3801 22.3337 61.3313 22.2194 61.3313 22.0871V10.2583C61.3313 10.1261 61.3801 10.0119 61.4777 9.91574C61.5754 9.81956 61.6913 9.77148 61.8256 9.77148H62.5031C62.6374 9.77148 62.7534 9.81956 62.851 9.91574C62.9486 10.0119 62.9975 10.1261 62.9975 10.2583V14.2434C63.2659 13.8947 63.6322 13.6062 64.096 13.3778C64.5721 13.1374 65.1519 13.0172 65.8354 13.0172C66.6045 13.0172 67.288 13.1795 67.8862 13.5041C68.4842 13.8286 68.9481 14.2975 69.2777 14.9105C69.6194 15.5116 69.7903 16.2269 69.7903 17.0563V22.0871Z" fill="#363FF9"/>
<path d="M76.2064 13.0172C77.5126 13.0172 78.544 13.4259 79.3008 14.2434C80.0576 15.0608 80.436 16.1728 80.436 17.5793V18.0661C80.436 18.1983 80.3872 18.3125 80.2895 18.4087C80.1919 18.5049 80.0759 18.553 79.9416 18.553H73.6431V18.6611C73.6675 19.4546 73.9117 20.0796 74.3754 20.5364C74.8515 20.9812 75.4618 21.2036 76.2064 21.2036C76.8168 21.2036 77.2867 21.1254 77.6163 20.9692C77.9581 20.813 78.2632 20.5906 78.5318 20.302C78.6294 20.2059 78.7149 20.1397 78.7881 20.1037C78.8736 20.0676 78.9834 20.0495 79.1177 20.0495H79.667C79.8135 20.0495 79.9355 20.0977 80.0331 20.1939C80.1309 20.29 80.1735 20.4042 80.1614 20.5364C80.1125 20.861 79.9294 21.1977 79.612 21.5462C79.3069 21.8828 78.8614 22.1714 78.2754 22.4117C77.7017 22.6402 77.0121 22.7543 76.2064 22.7543C75.4253 22.7543 74.7295 22.5801 74.1191 22.2314C73.5088 21.8708 73.0206 21.3779 72.6544 20.7529C72.3003 20.1277 72.0867 19.4245 72.0135 18.6431C71.9891 18.2825 71.9769 18.006 71.9769 17.8137C71.9769 17.6213 71.9891 17.3448 72.0135 16.9842C72.0867 16.2389 72.3003 15.5657 72.6544 14.9646C73.0206 14.3636 73.5027 13.8887 74.1008 13.5401C74.7112 13.1915 75.413 13.0172 76.2064 13.0172ZM78.7881 17.0383V16.9842C78.7881 16.2509 78.5501 15.6679 78.0741 15.2351C77.6102 14.7903 76.9877 14.5679 76.2064 14.5679C75.4985 14.5679 74.8943 14.7903 74.3938 15.2351C73.9055 15.6799 73.6553 16.2629 73.6431 16.9842V17.0383H78.7881Z" fill="#363FF9"/>
<path d="M84.3111 14.2434C84.604 13.8707 84.9336 13.5762 85.2998 13.3598C85.6659 13.1314 86.1542 13.0172 86.7646 13.0172C88.1927 13.0172 89.1936 13.5401 89.7673 14.586C90.1214 14.0811 90.5241 13.6964 90.9758 13.4319C91.4274 13.1554 92.0194 13.0172 92.7518 13.0172C93.948 13.0172 94.833 13.3718 95.4067 14.0811C95.9926 14.7903 96.2856 15.7941 96.2856 17.0924V22.0871C96.2856 22.2194 96.2368 22.3337 96.1391 22.4298C96.0415 22.5259 95.9255 22.574 95.7912 22.574H95.1137C94.9794 22.574 94.8635 22.5259 94.7658 22.4298C94.6682 22.3337 94.6194 22.2194 94.6194 22.0871V17.2727C94.6194 15.4695 93.8992 14.5679 92.4589 14.5679C91.7997 14.5679 91.2749 14.7843 90.8842 15.2171C90.4936 15.6498 90.2983 16.293 90.2983 17.1465V22.0871C90.2983 22.2194 90.2495 22.3337 90.1519 22.4298C90.0542 22.5259 89.9382 22.574 89.804 22.574H89.1265C88.9922 22.574 88.8762 22.5259 88.7786 22.4298C88.6809 22.3337 88.6321 22.2194 88.6321 22.0871V17.2727C88.6321 15.4695 87.912 14.5679 86.4715 14.5679C85.8125 14.5679 85.2875 14.7843 84.8969 15.2171C84.5064 15.6498 84.3111 16.293 84.3111 17.1465V22.0871C84.3111 22.2194 84.2622 22.3337 84.1646 22.4298C84.0669 22.5259 83.951 22.574 83.8167 22.574H83.1392C83.0049 22.574 82.889 22.5259 82.7913 22.4298C82.6937 22.3337 82.6449 22.2194 82.6449 22.0871V13.6844C82.6449 13.5521 82.6937 13.4379 82.7913 13.3418C82.889 13.2456 83.0049 13.1975 83.1392 13.1975H83.8167C83.951 13.1975 84.0669 13.2456 84.1646 13.3418C84.2622 13.4379 84.3111 13.5521 84.3111 13.6844V14.2434Z" fill="#363FF9"/>
<path d="M101.414 25.5673C101.304 25.8558 101.127 26.0001 100.883 26.0001H100.132C100.01 26.0001 99.9061 25.958 99.8207 25.8739C99.7352 25.7897 99.6925 25.6875 99.6925 25.5673C99.6925 25.5193 99.6985 25.4771 99.7107 25.4411L101.468 21.6724L97.8432 13.7565C97.831 13.7204 97.8249 13.6784 97.8249 13.6303C97.8249 13.5101 97.8675 13.4079 97.953 13.3237C98.0385 13.2396 98.1423 13.1975 98.2643 13.1975H99.015C99.2591 13.1975 99.4361 13.3418 99.5459 13.6303L102.366 19.7611L105.222 13.6303C105.332 13.3418 105.509 13.1975 105.753 13.1975H106.504C106.626 13.1975 106.729 13.2396 106.815 13.3237C106.9 13.4079 106.943 13.5101 106.943 13.6303C106.943 13.6784 106.937 13.7204 106.925 13.7565L101.414 25.5673Z" fill="#363FF9"/>
<path d="M29.1632 16.6087L23.0151 6.17084C22.9853 6.1193 22.9422 6.07637 22.8901 6.04637C22.838 6.01638 22.7787 6.00039 22.7183 6.00001C22.6579 5.99963 22.5985 6.01488 22.546 6.04422C22.4935 6.07355 22.4498 6.11594 22.4194 6.16711L20.5781 9.29475C20.5178 9.39713 20.4861 9.51327 20.4861 9.63149C20.4861 9.7497 20.5178 9.86584 20.5781 9.96822L24.5871 16.7776C24.6474 16.8801 24.7343 16.9651 24.8388 17.0243C24.9434 17.0834 25.062 17.1144 25.1827 17.1143H28.8653C28.9256 17.1141 28.9848 17.0985 29.0369 17.0688C29.0891 17.0392 29.1324 16.9967 29.1626 16.9455C29.1927 16.8943 29.2087 16.8363 29.2088 16.7772C29.2088 16.7181 29.1931 16.66 29.1632 16.6087Z" fill="url(#paint0_radial_700_3846)"/>
<path d="M13.0474 22.0641L19.1955 11.6262C19.2256 11.575 19.269 11.5326 19.3212 11.5031C19.3734 11.4735 19.4325 11.458 19.4928 11.458C19.5531 11.458 19.6123 11.4735 19.6645 11.5031C19.7167 11.5326 19.76 11.575 19.7902 11.6262L21.6324 14.751C21.6927 14.8536 21.7244 14.9698 21.7244 15.0882C21.7244 15.2066 21.6927 15.3229 21.6324 15.4254L17.6235 22.2348C17.5633 22.3372 17.4767 22.4224 17.3723 22.4814C17.2678 22.5405 17.1493 22.5716 17.0287 22.5715H13.3452C13.2846 22.5718 13.2249 22.5563 13.1723 22.5267C13.1197 22.497 13.076 22.4542 13.0458 22.4027C13.0155 22.3512 12.9997 22.2926 13 22.2332C13.0003 22.1737 13.0166 22.1154 13.0474 22.0641Z" fill="url(#paint1_radial_700_3846)"/>
<path d="M19.7895 22.569H32.0855C32.1459 22.569 32.2051 22.5534 32.2573 22.5238C32.3095 22.4942 32.3529 22.4515 32.3829 22.4003C32.413 22.3491 32.4289 22.291 32.4287 22.2319C32.4286 22.1727 32.4127 22.1146 32.3825 22.0635L30.543 18.9368C30.4827 18.8343 30.3958 18.7492 30.2913 18.6902C30.1867 18.631 30.0681 18.6 29.9474 18.6001H21.9295C21.8088 18.6 21.6902 18.631 21.5856 18.6902C21.4811 18.7492 21.3942 18.8343 21.3339 18.9368L19.4926 22.0635C19.4623 22.1146 19.4464 22.1727 19.4463 22.2319C19.4462 22.291 19.462 22.3491 19.4921 22.4003C19.5222 22.4515 19.5655 22.4942 19.6177 22.5238C19.6699 22.5534 19.7291 22.569 19.7895 22.569Z" fill="url(#paint2_radial_700_3846)"/>
<defs>
<radialGradient id="paint0_radial_700_3846" cx="0" cy="0" r="1" gradientUnits="userSpaceOnUse" gradientTransform="translate(23.2934 6) rotate(95.3323) scale(15.999 21.6015)">
<stop stop-color="#05D5FF"/>
<stop offset="0.770833" stop-color="#363FF9"/>
<stop offset="1" stop-color="#5533FF"/>
</radialGradient>
<radialGradient id="paint1_radial_700_3846" cx="0" cy="0" r="1" gradientUnits="userSpaceOnUse" gradientTransform="translate(23.2933 6.00008) rotate(95.3323) scale(15.999 21.6015)">
<stop stop-color="#05D5FF"/>
<stop offset="0.770833" stop-color="#363FF9"/>
<stop offset="1" stop-color="#5533FF"/>
</radialGradient>
<radialGradient id="paint2_radial_700_3846" cx="0" cy="0" r="1" gradientUnits="userSpaceOnUse" gradientTransform="translate(23.2935 5.99987) rotate(95.3323) scale(15.999 21.6015)">
<stop stop-color="#05D5FF"/>
<stop offset="0.770833" stop-color="#363FF9"/>
<stop offset="1" stop-color="#5533FF"/>
</radialGradient>
</defs>
</svg>
