<svg width="120" height="32" viewBox="0 0 120 32" fill="none" xmlns="http://www.w3.org/2000/svg">
<g clip-path="url(#clip0_1147_707)">
<path d="M114.646 19.3333V18.513L118.695 13.3568V13.2526H114.652V12.3151H120.03V13.155L116 18.2917V18.3958H120.049V19.3333H114.646Z" fill="white"/>
<path d="M108.434 21.7943C108.361 21.7943 108.278 21.7899 108.187 21.7813C108.096 21.7769 108.011 21.7682 107.933 21.7552V20.8242C108.002 20.8372 108.078 20.8459 108.161 20.8503C108.243 20.8546 108.324 20.8568 108.402 20.8568C108.723 20.8568 108.986 20.7743 109.19 20.6094C109.398 20.4445 109.565 20.1602 109.691 19.7565L109.821 19.3398L107.223 12.3151H108.434L110.596 18.7995L110.147 18.0898H110.68L110.231 18.7995L112.386 12.3151H113.578L110.837 19.763C110.646 20.2882 110.444 20.6984 110.231 20.9935C110.019 21.2886 109.769 21.4948 109.483 21.612C109.2 21.7335 108.851 21.7943 108.434 21.7943Z" fill="white"/>
<path d="M100.55 19.3333L102.952 15.8242L100.524 12.3151H101.859L103.525 14.9258H103.629L105.276 12.3151H106.546L104.163 15.7787L106.579 19.3333H105.25L103.59 16.6836H103.486L101.819 19.3333H100.55Z" fill="white"/>
<path d="M98.3427 19.3984C98.1126 19.3984 97.913 19.316 97.7437 19.151C97.5788 18.9818 97.4963 18.7821 97.4963 18.5521C97.4963 18.3177 97.5788 18.1181 97.7437 17.9531C97.913 17.7882 98.1126 17.7057 98.3427 17.7057C98.577 17.7057 98.7767 17.7882 98.9416 17.9531C99.1066 18.1181 99.189 18.3177 99.189 18.5521C99.189 18.7821 99.1066 18.9818 98.9416 19.151C98.7767 19.316 98.577 19.3984 98.3427 19.3984Z" fill="white"/>
<path d="M92.8216 19.457C92.1575 19.457 91.5824 19.3116 91.0963 19.0208C90.6145 18.7257 90.2413 18.3069 89.9765 17.7643C89.7161 17.2218 89.5859 16.5773 89.5859 15.8307V15.8177C89.5859 15.0668 89.7161 14.4201 89.9765 13.8776C90.2413 13.3351 90.6145 12.9184 91.0963 12.6276C91.5824 12.3368 92.1575 12.1914 92.8216 12.1914C93.49 12.1914 94.0651 12.3368 94.5468 12.6276C95.0286 12.9184 95.3997 13.3351 95.6601 13.8776C95.9249 14.4201 96.0572 15.0668 96.0572 15.8177V15.8307C96.0572 16.5773 95.9249 17.2218 95.6601 17.7643C95.3997 18.3069 95.0286 18.7257 94.5468 19.0208C94.0651 19.3116 93.49 19.457 92.8216 19.457ZM92.8216 18.4544C93.2643 18.4544 93.6397 18.3503 93.9479 18.1419C94.256 17.9336 94.4904 17.6341 94.651 17.2435C94.8159 16.8529 94.8984 16.3819 94.8984 15.8307V15.8177C94.8984 15.2622 94.8159 14.7891 94.651 14.3984C94.4904 14.0078 94.256 13.7105 93.9479 13.5065C93.6397 13.2982 93.2643 13.194 92.8216 13.194C92.3789 13.194 92.0034 13.2982 91.6953 13.5065C91.3871 13.7105 91.1506 14.0078 90.9856 14.3984C90.825 14.7891 90.7447 15.2622 90.7447 15.8177V15.8307C90.7447 16.3819 90.825 16.8529 90.9856 17.2435C91.1506 17.6341 91.3871 17.9336 91.6953 18.1419C92.0034 18.3503 92.3789 18.4544 92.8216 18.4544Z" fill="white"/>
<path d="M87.945 19.3854C87.2245 19.3854 86.7015 19.24 86.376 18.9492C86.0548 18.6584 85.8942 18.1788 85.8942 17.5104V13.2526H84.7874V12.3151H85.8942V10.4987H87.0661V12.3151H88.6025V13.2526H87.0661V17.224C87.0661 17.6363 87.1442 17.9336 87.3005 18.1159C87.4567 18.2938 87.7171 18.3828 88.0817 18.3828C88.1815 18.3828 88.2662 18.3806 88.3356 18.3763C88.4094 18.372 88.4984 18.3655 88.6025 18.3568V19.3203C88.494 19.3377 88.3855 19.3529 88.277 19.3659C88.1685 19.3789 88.0578 19.3854 87.945 19.3854Z" fill="white"/>
<path d="M77.5802 21.6771V12.3151H78.713V13.4349H78.8171C78.9604 13.1745 79.1405 12.9531 79.3575 12.7708C79.5745 12.5842 79.8219 12.441 80.0997 12.3411C80.3775 12.2413 80.6791 12.1914 81.0046 12.1914C81.5993 12.1914 82.1157 12.3433 82.5541 12.6471C82.9968 12.9466 83.3397 13.3676 83.5828 13.9102C83.8258 14.4527 83.9473 15.0885 83.9473 15.8177V15.8307C83.9473 16.5642 83.8258 17.2023 83.5828 17.7448C83.3397 18.2873 82.9968 18.7083 82.5541 19.0078C82.1157 19.3073 81.5993 19.457 81.0046 19.457C80.6835 19.457 80.3796 19.4071 80.0932 19.3073C79.8111 19.2031 79.5593 19.0599 79.338 18.8776C79.121 18.6953 78.9473 18.4783 78.8171 18.2266H78.713V21.6771H77.5802ZM80.7442 18.4544C81.1739 18.4544 81.5407 18.3503 81.8445 18.1419C82.1483 17.9293 82.3805 17.6276 82.5411 17.237C82.706 16.842 82.7885 16.3733 82.7885 15.8307V15.8177C82.7885 15.2708 82.706 14.8021 82.5411 14.4115C82.3805 14.0208 82.1483 13.7214 81.8445 13.513C81.5407 13.3003 81.1739 13.194 80.7442 13.194C80.3189 13.194 79.9521 13.3003 79.644 13.513C79.3358 13.7257 79.0993 14.0273 78.9343 14.418C78.7694 14.8086 78.6869 15.2752 78.6869 15.8177V15.8307C78.6869 16.3689 78.7694 16.8355 78.9343 17.2305C79.0993 17.6211 79.3358 17.9227 79.644 18.1354C79.9521 18.3481 80.3189 18.4544 80.7442 18.4544Z" fill="white"/>
<path d="M71.2062 21.7943C71.1324 21.7943 71.05 21.7899 70.9588 21.7813C70.8677 21.7769 70.783 21.7682 70.7049 21.7552V20.8242C70.7743 20.8372 70.8503 20.8459 70.9328 20.8503C71.0152 20.8546 71.0955 20.8568 71.1737 20.8568C71.4948 20.8568 71.7574 20.7743 71.9614 20.6094C72.1697 20.4445 72.3368 20.1602 72.4627 19.7565L72.5929 19.3398L69.9953 12.3151H71.2062L73.3677 18.7995L72.9184 18.0898H73.4523L73.0031 18.7995L75.158 12.3151H76.3494L73.6086 19.763C73.4176 20.2882 73.2158 20.6984 73.0031 20.9935C72.7904 21.2886 72.5408 21.4948 72.2544 21.612C71.9723 21.7335 71.6229 21.7943 71.2062 21.7943Z" fill="white"/>
<path d="M65.7307 19.3333V12.3151H66.8635V13.3568H66.9676C67.1022 12.9878 67.3301 12.7014 67.6512 12.4974C67.9724 12.2934 68.3696 12.1914 68.8426 12.1914C68.9512 12.1914 69.0575 12.1979 69.1617 12.2109C69.2702 12.2196 69.3526 12.2283 69.4091 12.237V13.3372C69.2919 13.3155 69.1768 13.3003 69.064 13.2917C68.9555 13.2786 68.8383 13.2721 68.7124 13.2721C68.3522 13.2721 68.0332 13.3438 67.7554 13.487C67.4776 13.6302 67.2584 13.8299 67.0979 14.0859C66.9416 14.342 66.8635 14.6415 66.8635 14.9844V19.3333H65.7307Z" fill="white"/>
<path d="M60.3789 19.5547C59.5282 19.5547 58.7925 19.355 58.1718 18.9557C57.5512 18.5564 57.0716 17.99 56.733 17.2565C56.3988 16.523 56.2317 15.6528 56.2317 14.6458V14.6328C56.2317 13.6215 56.3988 12.7491 56.733 12.0156C57.0716 11.2821 57.549 10.7157 58.1653 10.3164C58.786 9.9171 59.5217 9.71745 60.3723 9.71745C61.0321 9.71745 61.631 9.84765 62.1692 10.1081C62.7118 10.3641 63.1588 10.7222 63.5104 11.1823C63.8619 11.638 64.0833 12.1654 64.1744 12.7643L64.1679 12.7773H62.9895L62.983 12.7643C62.8789 12.3607 62.7031 12.0135 62.4557 11.7227C62.2083 11.4275 61.9066 11.1997 61.5507 11.0391C61.1992 10.8785 60.8064 10.7982 60.3723 10.7982C59.7734 10.7982 59.2526 10.9544 58.8098 11.2669C58.3715 11.5794 58.0329 12.0221 57.7942 12.595C57.5555 13.168 57.4361 13.8472 57.4361 14.6328V14.6458C57.4361 15.4271 57.5555 16.1042 57.7942 16.6771C58.0329 17.25 58.3715 17.6927 58.8098 18.0052C59.2526 18.3177 59.7756 18.474 60.3789 18.474C60.8172 18.474 61.2144 18.4045 61.5703 18.2656C61.9262 18.1224 62.2256 17.9206 62.4687 17.6602C62.7118 17.3954 62.881 17.0829 62.9765 16.7227L62.9895 16.7096H64.1744V16.7227C64.0703 17.2956 63.8446 17.7947 63.4973 18.22C63.1501 18.6411 62.7096 18.9687 62.1757 19.2031C61.6462 19.4375 61.0473 19.5547 60.3789 19.5547Z" fill="white"/>
<path d="M48.9333 19.3333V9.52865H50.0661V13.3698H50.1703C50.3482 12.9965 50.6043 12.7079 50.9385 12.5039C51.2727 12.2956 51.698 12.1914 52.2145 12.1914C52.7397 12.1914 53.1846 12.2934 53.5492 12.4974C53.9138 12.6971 54.1915 12.99 54.3825 13.3763C54.5735 13.7626 54.669 14.2335 54.669 14.7891V19.3333H53.5362V15.0625C53.5362 14.4288 53.4016 13.9601 53.1325 13.6563C52.8678 13.3481 52.4554 13.194 51.8955 13.194C51.5223 13.194 51.1989 13.2743 50.9255 13.4349C50.652 13.5955 50.4394 13.8234 50.2875 14.1185C50.1399 14.4136 50.0661 14.7674 50.0661 15.1797V19.3333H48.9333Z" fill="white"/>
<path d="M40.9968 21.6771V12.3151H42.1296V13.4349H42.2338C42.377 13.1745 42.5572 12.9531 42.7742 12.7708C42.9912 12.5842 43.2386 12.441 43.5164 12.3411C43.7941 12.2413 44.0958 12.1914 44.4213 12.1914C45.0159 12.1914 45.5324 12.3433 45.9708 12.6471C46.4135 12.9466 46.7564 13.3676 46.9994 13.9102C47.2425 14.4527 47.364 15.0885 47.364 15.8177V15.8307C47.364 16.5642 47.2425 17.2023 46.9994 17.7448C46.7564 18.2873 46.4135 18.7083 45.9708 19.0078C45.5324 19.3073 45.0159 19.457 44.4213 19.457C44.1001 19.457 43.7963 19.4071 43.5098 19.3073C43.2277 19.2031 42.976 19.0599 42.7546 18.8776C42.5376 18.6953 42.364 18.4783 42.2338 18.2266H42.1296V21.6771H40.9968ZM44.1609 18.4544C44.5906 18.4544 44.9573 18.3503 45.2611 18.1419C45.565 17.9293 45.7972 17.6276 45.9578 17.237C46.1227 16.842 46.2052 16.3733 46.2052 15.8307V15.8177C46.2052 15.2708 46.1227 14.8021 45.9578 14.4115C45.7972 14.0208 45.565 13.7214 45.2611 13.513C44.9573 13.3003 44.5906 13.194 44.1609 13.194C43.7355 13.194 43.3688 13.3003 43.0606 13.513C42.7525 13.7257 42.5159 14.0273 42.351 14.418C42.1861 14.8086 42.1036 15.2752 42.1036 15.8177V15.8307C42.1036 16.3689 42.1861 16.8355 42.351 17.2305C42.5159 17.6211 42.7525 17.9227 43.0606 18.1354C43.3688 18.3481 43.7355 18.4544 44.1609 18.4544Z" fill="white"/>
<path d="M36.5109 19.457C35.8425 19.457 35.2674 19.3095 34.7856 19.0143C34.3082 18.7192 33.9393 18.3025 33.6789 17.7643C33.4228 17.2218 33.2947 16.5838 33.2947 15.8503V15.8438C33.2947 15.1189 33.4228 14.4831 33.6789 13.9362C33.9393 13.3893 34.306 12.9618 34.7791 12.6536C35.2522 12.3455 35.8056 12.1914 36.4393 12.1914C37.0773 12.1914 37.6242 12.339 38.0799 12.6341C38.54 12.9293 38.8915 13.3416 39.1346 13.8711C39.382 14.3963 39.5057 15.0082 39.5057 15.707V16.1497H33.8807V15.2448H38.9262L38.3664 16.0716V15.6224C38.3664 15.0712 38.2839 14.6176 38.119 14.2617C37.954 13.9058 37.7262 13.6411 37.4354 13.4674C37.1446 13.2895 36.8104 13.2005 36.4328 13.2005C36.0552 13.2005 35.7166 13.2938 35.4171 13.4805C35.122 13.6628 34.8876 13.934 34.714 14.2943C34.5404 14.6545 34.4536 15.0972 34.4536 15.6224V16.0716C34.4536 16.5707 34.5382 16.9983 34.7075 17.3542C34.8768 17.7057 35.1177 17.977 35.4302 18.168C35.7427 18.3546 36.1116 18.4479 36.5369 18.4479C36.8538 18.4479 37.1294 18.4045 37.3637 18.3177C37.5981 18.2309 37.7913 18.1202 37.9432 17.9857C38.0951 17.8511 38.2014 17.7144 38.2622 17.5755L38.2882 17.5169H39.421L39.408 17.569C39.3473 17.8077 39.2387 18.0399 39.0825 18.2656C38.9306 18.487 38.7331 18.6888 38.4901 18.8711C38.247 19.049 37.9584 19.1923 37.6242 19.3008C37.2943 19.4049 36.9232 19.457 36.5109 19.457Z" fill="white"/>
<path d="M30.6057 19.3333V9.52865H31.7385V19.3333H30.6057Z" fill="white"/>
<path d="M21.2174 19.3333L24.6809 9.9388H25.5794V11.4557H25.2083L22.4479 19.3333H21.2174ZM22.7864 16.6445L23.151 15.6484H27.3958L27.7604 16.6445H22.7864ZM28.0729 19.3333L25.3124 11.4557V9.9388H25.8398L29.3033 19.3333H28.0729Z" fill="white"/>
<path d="M5.61918 12.8651C5.03539 12.0375 4.53288 11.2594 3.96492 10.5342C3.40435 9.81948 2.77727 9.15756 2.14069 8.42808C2.867 7.64265 3.61126 6.83822 4.38719 6C7.22171 8.66561 8.82108 12.0058 9.95172 15.6722C10.9008 15.2077 11.5754 14.5669 12.1212 13.7889C13.2983 12.1093 13.3827 10.2344 13.028 8.3014C12.9678 7.97625 13.0058 7.79784 13.2972 7.61837C14.1122 7.11375 14.9061 6.57429 15.7485 6.02217C16.2468 7.22354 16.3017 8.42175 16.1275 9.62523C15.7633 12.142 14.2885 13.962 12.3471 15.4621C11.8636 15.8358 11.3516 16.1789 10.8258 16.4893C10.4764 16.6952 10.3983 16.881 10.5492 17.28C11.5215 19.8517 12.8981 22.1636 14.8248 24.1357C14.8607 24.1726 14.8849 24.2201 14.9673 24.3383C14.5038 24.6646 14.0436 24.9929 13.5791 25.3159C12.498 26.0676 12.5065 26.0591 11.6313 25.0773C9.80604 23.0293 8.60678 20.6371 7.70733 18.0697C7.29667 16.8979 6.83322 15.7451 6.38561 14.587C6.29377 14.3484 6.16497 14.1246 6.02034 13.8237C4.39458 15.0779 3.22699 16.541 2.78044 18.5162C2.33494 20.484 2.73293 22.3325 3.57854 24.1452C2.65059 24.7543 1.74586 25.3486 0.753516 26C-0.146985 23.4896 -0.289503 21.0193 0.594108 18.5395C1.48722 16.0343 3.28717 14.285 5.62024 12.8641L5.61918 12.8651Z" fill="#0B5393"/>
</g>
<defs>
<clipPath id="clip0_1147_707">
<rect width="120" height="32" fill="white"/>
</clipPath>
</defs>
</svg>
