<svg width="120" height="32" viewBox="0 0 120 32" fill="none" xmlns="http://www.w3.org/2000/svg">
<path d="M17.1053 15.3967C17.1053 15.707 17.1388 15.9586 17.1975 16.1431C17.2646 16.3275 17.3484 16.5288 17.4658 16.7468C17.5078 16.8139 17.5245 16.881 17.5245 16.9397C17.5245 17.0235 17.4742 17.1074 17.3652 17.1913L16.8369 17.5434C16.7614 17.5938 16.686 17.6189 16.6189 17.6189C16.535 17.6189 16.4512 17.577 16.3673 17.5015C16.2499 17.3757 16.1493 17.2416 16.0654 17.1074C15.9816 16.9648 15.8977 16.8055 15.8055 16.6127C15.1514 17.3841 14.3296 17.7699 13.3401 17.7699C12.6357 17.7699 12.0739 17.5686 11.663 17.1661C11.2521 16.7636 11.0425 16.2269 11.0425 15.5561C11.0425 14.8433 11.294 14.2647 11.8056 13.8286C12.3171 13.3926 12.9963 13.1746 13.86 13.1746C14.1451 13.1746 14.4386 13.1997 14.7489 13.2416C15.0592 13.2836 15.3778 13.3507 15.7132 13.4261V12.814C15.7132 12.1767 15.5791 11.7322 15.3191 11.4723C15.0508 11.2123 14.598 11.0866 13.9523 11.0866C13.6588 11.0866 13.3569 11.1201 13.0466 11.1956C12.7364 11.271 12.4345 11.3633 12.141 11.4807C12.0068 11.5394 11.9062 11.5729 11.8475 11.5897C11.7888 11.6065 11.7469 11.6148 11.7133 11.6148C11.5959 11.6148 11.5372 11.531 11.5372 11.3549V10.944C11.5372 10.8098 11.554 10.7092 11.5959 10.6505C11.6379 10.5918 11.7133 10.5331 11.8307 10.4744C12.1242 10.3235 12.4764 10.1977 12.8873 10.0971C13.2982 9.98804 13.7343 9.93773 14.1955 9.93773C15.1933 9.93773 15.9229 10.1641 16.3925 10.617C16.8537 11.0698 17.0885 11.7574 17.0885 12.6798V15.3967H17.1053ZM13.7007 16.6713C13.9774 16.6713 14.2625 16.621 14.5644 16.5204C14.8663 16.4198 15.1346 16.2353 15.3611 15.9837C15.4952 15.8244 15.5958 15.6483 15.6462 15.4471C15.6965 15.2458 15.73 15.0026 15.73 14.7175V14.3653C15.4868 14.3066 15.2269 14.2563 14.9585 14.2228C14.6902 14.1892 14.4303 14.1724 14.1703 14.1724C13.6085 14.1724 13.1976 14.2815 12.9209 14.5079C12.6441 14.7343 12.51 15.0529 12.51 15.4722C12.51 15.8663 12.6106 16.1598 12.8202 16.3611C13.0215 16.5707 13.315 16.6713 13.7007 16.6713ZM20.4343 17.577C20.2834 17.577 20.1828 17.5518 20.1157 17.4931C20.0486 17.4428 19.9899 17.3254 19.9396 17.1661L17.969 10.684C17.9187 10.5163 17.8935 10.4073 17.8935 10.3486C17.8935 10.2145 17.9606 10.139 18.0948 10.139H18.9165C19.0759 10.139 19.1849 10.1641 19.2436 10.2228C19.3107 10.2732 19.361 10.3906 19.4113 10.5499L20.8201 16.1011L22.1282 10.5499C22.1701 10.3822 22.2205 10.2732 22.2875 10.2228C22.3546 10.1725 22.472 10.139 22.623 10.139H23.2938C23.4531 10.139 23.5621 10.1641 23.6292 10.2228C23.6963 10.2732 23.755 10.3906 23.7886 10.5499L25.1135 16.1682L26.5642 10.5499C26.6145 10.3822 26.6732 10.2732 26.7319 10.2228C26.799 10.1725 26.908 10.139 27.0589 10.139H27.8388C27.973 10.139 28.0484 10.2061 28.0484 10.3486C28.0484 10.3906 28.04 10.4325 28.0317 10.4828C28.0233 10.5331 28.0065 10.6002 27.973 10.6924L25.952 17.1745C25.9017 17.3422 25.843 17.4512 25.7759 17.5015C25.7089 17.5518 25.5998 17.5854 25.4573 17.5854H24.7361C24.5768 17.5854 24.4678 17.5602 24.4007 17.5015C24.3336 17.4428 24.2749 17.3338 24.2414 17.1661L22.9416 11.7574L21.6502 17.1577C21.6083 17.3254 21.558 17.4344 21.4909 17.4931C21.4238 17.5518 21.3064 17.577 21.1555 17.577H20.4343ZM31.2098 17.8034C30.7737 17.8034 30.3377 17.7531 29.9184 17.6525C29.4991 17.5518 29.1721 17.4428 28.9541 17.317C28.8199 17.2416 28.7277 17.1577 28.6941 17.0822C28.6606 17.0068 28.6438 16.9229 28.6438 16.8474V16.4198C28.6438 16.2437 28.7109 16.1598 28.8367 16.1598C28.887 16.1598 28.9373 16.1682 28.9876 16.185C29.0379 16.2018 29.1134 16.2353 29.1973 16.2688C29.4824 16.3946 29.7926 16.4953 30.1197 16.5623C30.4551 16.6294 30.7821 16.663 31.1176 16.663C31.6458 16.663 32.0567 16.5707 32.3419 16.3862C32.627 16.2018 32.7779 15.9334 32.7779 15.5896C32.7779 15.3548 32.7024 15.1619 32.5515 15.0026C32.4005 14.8433 32.1154 14.7007 31.7045 14.5666L30.4886 14.1892C29.8765 13.9964 29.4237 13.7112 29.1469 13.3339C28.8702 12.9649 28.7277 12.554 28.7277 12.118C28.7277 11.7658 28.8031 11.4555 28.9541 11.1872C29.105 10.9188 29.3063 10.684 29.5578 10.4996C29.8094 10.3067 30.0945 10.1641 30.4299 10.0635C30.7654 9.96289 31.1176 9.92096 31.4865 9.92096C31.671 9.92096 31.8639 9.92935 32.0484 9.9545C32.2412 9.97966 32.4173 10.0132 32.5934 10.0467C32.7611 10.0887 32.9205 10.1306 33.0714 10.1809C33.2223 10.2312 33.3397 10.2815 33.4236 10.3319C33.541 10.3989 33.6248 10.466 33.6752 10.5415C33.7255 10.6086 33.7506 10.7008 33.7506 10.8182V11.2123C33.7506 11.3884 33.6835 11.4807 33.5578 11.4807C33.4907 11.4807 33.3817 11.4471 33.2391 11.38C32.7611 11.162 32.2245 11.053 31.6291 11.053C31.1511 11.053 30.7737 11.1285 30.5138 11.2878C30.2538 11.4471 30.1197 11.6903 30.1197 12.0341C30.1197 12.2689 30.2035 12.4702 30.3712 12.6295C30.5389 12.7888 30.8492 12.9482 31.2937 13.0907L32.4844 13.4681C33.0882 13.6609 33.5242 13.9293 33.7842 14.2731C34.0441 14.6169 34.1699 15.011 34.1699 15.4471C34.1699 15.8076 34.0944 16.1347 33.9519 16.4198C33.8009 16.7049 33.5997 16.9565 33.3397 17.1577C33.0798 17.3674 32.7695 17.5183 32.4089 17.6273C32.0316 17.7447 31.6375 17.8034 31.2098 17.8034Z" fill="white"/>
<path fill-rule="evenodd" clip-rule="evenodd" d="M32.7947 21.8788C30.0358 23.9165 26.0275 24.9982 22.5811 24.9982C17.751 24.9982 13.3988 23.2121 10.1117 20.2436C9.85174 20.0088 10.0865 19.6902 10.3968 19.8746C13.9523 21.9375 18.3379 23.187 22.8745 23.187C25.9353 23.187 29.2979 22.5496 32.3922 21.2415C32.8534 21.0319 33.2475 21.5434 32.7947 21.8788Z" fill="#FF9900"/>
<path fill-rule="evenodd" clip-rule="evenodd" d="M33.9433 20.5706C33.5911 20.1178 31.6121 20.3526 30.7148 20.4616C30.4465 20.4952 30.4046 20.2604 30.6478 20.0843C32.2242 18.9774 34.8154 19.296 35.1173 19.665C35.4191 20.0423 35.0334 22.6335 33.5575 23.8745C33.3311 24.0674 33.1131 23.9668 33.2137 23.7152C33.5492 22.885 34.2955 21.0151 33.9433 20.5706Z" fill="#FF9900"/>
<path d="M102.364 17.6932C102.378 19.1779 102.704 20.2738 103.34 20.9808C103.976 21.6878 104.959 22.0413 106.288 22.0413C107.504 22.0413 108.671 21.7938 109.788 21.2989V22.2958C108.784 22.8614 107.589 23.1442 106.203 23.1442C104.521 23.1442 103.255 22.6705 102.407 21.7231C101.558 20.7616 101.134 19.3405 101.134 17.4598C101.134 15.6782 101.558 14.2995 102.407 13.3238C103.269 12.334 104.471 11.8391 106.012 11.8391C107.299 11.8391 108.282 12.2067 108.961 12.942C109.654 13.6773 110 14.7308 110 16.1024C110 16.7387 109.958 17.2689 109.873 17.6932H102.364ZM105.906 12.9208C103.672 12.9208 102.492 14.1864 102.364 16.7175H108.812C108.826 16.5195 108.833 16.2862 108.833 16.0175C108.833 14.9994 108.586 14.2288 108.091 13.7056C107.596 13.1824 106.868 12.9208 105.906 12.9208Z" fill="white"/>
<path d="M99.6909 22.5928C99.097 22.8331 98.3829 22.9533 97.5487 22.9533C96.7144 22.9533 96.0781 22.7342 95.6397 22.2958C95.2014 21.8433 94.9822 21.1929 94.9822 20.3445V13.2178H92.9884V12.3693L95.0246 12.1784L95.1943 9.06052H96.1912V12.1572H99.5849V13.2178H96.1912V20.2808C96.1912 20.8606 96.3114 21.2706 96.5518 21.511C96.8063 21.7514 97.2234 21.8716 97.8032 21.8716C98.3829 21.8716 99.0122 21.7868 99.6909 21.6171V22.5928Z" fill="white"/>
<path d="M89.9699 22.8261L89.8639 21.5959C88.6478 22.5715 87.3752 23.0594 86.046 23.0594C85.0703 23.0594 84.2926 22.7837 83.7128 22.2322C83.1472 21.6666 82.8644 20.9171 82.8644 19.9839C82.8644 18.9516 83.2179 18.1386 83.9249 17.5447C84.632 16.9508 85.5935 16.6538 86.8096 16.6538C87.757 16.6538 88.768 16.8165 89.8427 17.1417V15.36C89.8427 14.4975 89.6376 13.8824 89.2276 13.5147C88.8175 13.1329 88.1388 12.942 87.1914 12.942C86.0601 12.942 84.8511 13.1683 83.5644 13.6208V12.6239C84.1017 12.3835 84.7097 12.1926 85.3885 12.0512C86.0672 11.9098 86.7318 11.8391 87.3822 11.8391C88.6266 11.8391 89.5457 12.1007 90.1396 12.6239C90.7476 13.1471 91.0516 13.9389 91.0516 14.9994V22.8261H89.9699ZM86.2157 21.9564C86.753 21.9564 87.3328 21.8504 87.9549 21.6383C88.5771 21.412 89.2063 21.101 89.8427 20.705V18.0537C88.8953 17.7992 87.9761 17.6719 87.0853 17.6719C85.1057 17.6719 84.1158 18.4355 84.1158 19.9627C84.1158 20.6131 84.2926 21.108 84.6461 21.4474C84.9996 21.7868 85.5228 21.9564 86.2157 21.9564Z" fill="white"/>
<path d="M76.1444 22.8261L71.8387 12.1572H73.1537L76.8019 21.5746L80.4501 12.1572H81.7227L77.417 22.8261H76.1444Z" fill="white"/>
<path d="M68.7376 22.8261V12.1572H69.9466V22.8261H68.7376ZM69.3527 9.86652C69.0699 9.86652 68.8437 9.78168 68.674 9.61199C68.5184 9.44231 68.4407 9.21606 68.4407 8.93326C68.4407 8.65045 68.5184 8.42421 68.674 8.25453C68.8437 8.08484 69.0699 8 69.3527 8C69.6355 8 69.8547 8.08484 70.0102 8.25453C70.1799 8.42421 70.2648 8.65045 70.2648 8.93326C70.2648 9.21606 70.1799 9.44231 70.0102 9.61199C69.8547 9.78168 69.6355 9.86652 69.3527 9.86652Z" fill="white"/>
<path d="M66.4511 22.5928C65.8572 22.8331 65.1431 22.9533 64.3088 22.9533C63.4745 22.9533 62.8382 22.7342 62.3999 22.2958C61.9615 21.8433 61.7423 21.1929 61.7423 20.3445V13.2178H59.7486V12.3693L61.7848 12.1784L61.9544 9.06052H62.9513V12.1572H66.345V13.2178H62.9513V20.2808C62.9513 20.8606 63.0715 21.2706 63.3119 21.511C63.5664 21.7514 63.9836 21.8716 64.5633 21.8716C65.1431 21.8716 65.7723 21.7868 66.4511 21.6171V22.5928Z" fill="white"/>
<path d="M58.6102 22.4655C57.7335 22.8614 56.8497 23.0594 55.9589 23.0594C54.3186 23.0594 53.0742 22.5928 52.2258 21.6595C51.3774 20.7121 50.9532 19.3264 50.9532 17.5023C50.9532 15.6923 51.3845 14.3136 52.247 13.3662C53.1096 12.4047 54.361 11.9239 56.0013 11.9239C56.878 11.9239 57.7052 12.0936 58.4829 12.433V13.4299C57.7052 13.1753 56.8992 13.0481 56.0649 13.0481C54.7216 13.0481 53.7459 13.3945 53.1379 14.0874C52.544 14.7661 52.247 15.862 52.247 17.375V17.6295C52.247 19.1001 52.5511 20.1889 53.1591 20.8959C53.7671 21.5888 54.7216 21.9352 56.0225 21.9352C56.8002 21.9352 57.6628 21.7797 58.6102 21.4686V22.4655Z" fill="white"/>
<path d="M47.2136 22.8261L47.1075 21.5959C45.8914 22.5715 44.6188 23.0594 43.2896 23.0594C42.3139 23.0594 41.5362 22.7837 40.9565 22.2322C40.3909 21.6666 40.1081 20.9171 40.1081 19.9839C40.1081 18.9516 40.4616 18.1386 41.1686 17.5447C41.8756 16.9508 42.8371 16.6538 44.0532 16.6538C45.0006 16.6538 46.0116 16.8165 47.0863 17.1417V15.36C47.0863 14.4975 46.8813 13.8824 46.4712 13.5147C46.0611 13.1329 45.3824 12.942 44.435 12.942C43.3038 12.942 42.0948 13.1683 40.808 13.6208V12.6239C41.3453 12.3835 41.9534 12.1926 42.6321 12.0512C43.3108 11.9098 43.9754 11.8391 44.6259 11.8391C45.8702 11.8391 46.7893 12.1007 47.3832 12.6239C47.9913 13.1471 48.2953 13.9389 48.2953 14.9994V22.8261H47.2136ZM43.4593 21.9564C43.9966 21.9564 44.5764 21.8504 45.1986 21.6383C45.8207 21.412 46.45 21.101 47.0863 20.705V18.0537C46.1389 17.7992 45.2198 17.6719 44.3289 17.6719C42.3493 17.6719 41.3595 18.4355 41.3595 19.9627C41.3595 20.6131 41.5362 21.108 41.8897 21.4474C42.2432 21.7868 42.7664 21.9564 43.4593 21.9564Z" fill="white"/>
</svg>
