<svg width="120" height="32" viewBox="0 0 120 32" fill="none" xmlns="http://www.w3.org/2000/svg">
<rect width="2.78319" height="8.71261" transform="matrix(0.866025 0.5 -2.20305e-08 1 3.00633 11.6286)" fill="white"/>
<rect width="2.78319" height="8.71261" transform="matrix(0.866025 0.5 -2.20305e-08 1 8.69376 14.8958)" fill="white"/>
<rect width="2.78319" height="8.62185" transform="matrix(-0.866025 0.5 2.20305e-08 1 19.161 11.6891)" fill="white" fill-opacity="0.5"/>
<rect width="2.78319" height="8.62185" transform="matrix(-0.866025 0.5 2.20305e-08 1 13.5038 14.9563)" fill="white" fill-opacity="0.5"/>
<rect width="2.66218" height="8.62185" transform="matrix(-0.866025 0.5 2.20305e-08 1 10.983 7.0303)" fill="white" fill-opacity="0.5"/>
<rect width="2.78319" height="9.31765" transform="matrix(0.866025 0.5 -0.866025 0.5 16.7408 10.2974)" fill="white"/>
<rect width="2.78319" height="9.31765" transform="matrix(0.866025 0.5 -0.866025 0.5 16.8013 18.8891)" fill="white" fill-opacity="0.5"/>
<rect width="2.78319" height="9.31765" transform="matrix(0.866025 0.5 -0.866025 0.5 11.0837 7)" fill="white" fill-opacity="0.5"/>
<rect width="2.66218" height="9.31765" transform="matrix(0.866025 0.5 -0.866025 0.5 11.1139 15.6218)" fill="white" fill-opacity="0.5"/>
<rect width="9.31765" height="2.66218" transform="matrix(0.866025 0.5 -0.866025 0.5 5.30551 10.2974)" fill="white" fill-opacity="0.5"/>
<rect width="9.31765" height="2.66218" transform="matrix(0.866025 0.5 -0.866025 0.5 11.0534 7)" fill="white" fill-opacity="0.5"/>
<rect width="9.19664" height="2.78319" transform="matrix(0.866025 0.5 -0.866025 0.5 11.2349 15.6824)" fill="white" fill-opacity="0.5"/>
<rect width="9.31765" height="2.54118" transform="matrix(0.866025 0.5 -2.20305e-08 1 3.00633 17.8)" fill="white"/>
<path d="M114.606 18.2538V13.9346H115.646V17.4059H117.353V18.2538H114.606Z" fill="white"/>
<path d="M112.788 18.2538L112.525 17.332H111.033L110.767 18.2538H109.635L111.104 13.9169H112.436L113.916 18.2538H112.788ZM112.294 16.4723L112.043 15.6126C112.023 15.5398 111.996 15.4423 111.96 15.3202C111.927 15.1961 111.892 15.069 111.857 14.9391C111.824 14.8071 111.797 14.6968 111.777 14.6082C111.758 14.6968 111.731 14.8071 111.697 14.9391C111.664 15.071 111.631 15.199 111.597 15.3231C111.566 15.4472 111.54 15.5437 111.52 15.6126L111.269 16.4723H112.294Z" fill="white"/>
<path d="M108.204 18.2538H107.164V14.7913H106.05V13.9346H109.318V14.7913H108.204V18.2538Z" fill="white"/>
<path d="M104.182 18.2538V13.9346H105.225V18.2538H104.182Z" fill="white"/>
<path d="M101.625 13.9346C102.179 13.9346 102.587 14.0547 102.851 14.295C103.115 14.5333 103.247 14.8662 103.247 15.2936C103.247 15.4866 103.219 15.6717 103.162 15.849C103.106 16.0262 103.015 16.1838 102.887 16.3217C102.759 16.4595 102.588 16.5688 102.376 16.6496C102.163 16.7284 101.901 16.7678 101.59 16.7678H101.229V18.2538H100.19V13.9346H101.625ZM101.59 14.7795H101.229V15.9199H101.495C101.633 15.9199 101.755 15.9002 101.862 15.8608C101.968 15.8194 102.052 15.7554 102.113 15.6687C102.174 15.5821 102.204 15.4679 102.204 15.326C102.204 15.1508 102.154 15.0158 102.054 14.9213C101.953 14.8268 101.799 14.7795 101.59 14.7795Z" fill="white"/>
<path d="M98.3713 18.2538L98.1084 17.332H96.6165L96.3506 18.2538H95.2191L96.6874 13.9169H98.0198L99.4999 18.2538H98.3713ZM97.8779 16.4723L97.6268 15.6126C97.6071 15.5398 97.5796 15.4423 97.5441 15.3202C97.5106 15.1961 97.4762 15.069 97.4407 14.9391C97.4072 14.8071 97.3806 14.6968 97.3609 14.6082C97.3412 14.6968 97.3147 14.8071 97.2812 14.9391C97.2477 15.071 97.2142 15.199 97.1807 15.3231C97.1492 15.4472 97.1236 15.5437 97.1039 15.6126L96.8528 16.4723H97.8779Z" fill="white"/>
<path d="M93.5279 14.7293C93.3703 14.7293 93.2305 14.7609 93.1084 14.8239C92.9863 14.8869 92.8829 14.9785 92.7982 15.0986C92.7154 15.2188 92.6514 15.3635 92.6061 15.5329C92.5628 15.7023 92.5411 15.8943 92.5411 16.109C92.5411 16.3985 92.5776 16.6437 92.6505 16.8446C92.7233 17.0435 92.8346 17.1952 92.9843 17.2996C93.1359 17.404 93.328 17.4562 93.5604 17.4562C93.7435 17.4562 93.9238 17.4335 94.101 17.3882C94.2783 17.3409 94.4644 17.2809 94.6594 17.208V18.0825C94.4683 18.1652 94.2763 18.2243 94.0833 18.2597C93.8903 18.2952 93.6805 18.3129 93.454 18.3129C92.9971 18.3129 92.6219 18.2203 92.3284 18.0352C92.0369 17.8501 91.8213 17.5921 91.6814 17.2612C91.5436 16.9303 91.4746 16.5443 91.4746 16.1031C91.4746 15.7761 91.519 15.4768 91.6076 15.205C91.6982 14.9332 91.8301 14.6978 92.0035 14.4989C92.1787 14.298 92.3944 14.1434 92.6505 14.0351C92.9065 13.9268 93.2009 13.8726 93.5338 13.8726C93.7445 13.8726 93.9612 13.8982 94.1837 13.9494C94.4083 14.0006 94.6249 14.0764 94.8337 14.1769L94.5087 15.007C94.3492 14.9302 94.1877 14.8652 94.0242 14.8121C93.8627 14.7569 93.6973 14.7293 93.5279 14.7293Z" fill="white"/>
<path d="M88.7039 18.2538H87.3597L85.6285 15.0956H85.6019C85.6117 15.2098 85.6196 15.3349 85.6255 15.4708C85.6314 15.6047 85.6373 15.7397 85.6432 15.8755C85.6491 16.0114 85.6541 16.1405 85.658 16.2626V18.2538H84.7333V13.9346H86.0716L87.7969 17.0543H87.8176C87.8117 16.9401 87.8058 16.819 87.7999 16.6909C87.794 16.5629 87.7881 16.4339 87.7822 16.3039C87.7782 16.172 87.7753 16.0489 87.7733 15.9346V13.9346H88.7039V18.2538Z" fill="white"/>
<path d="M82.4955 18.2538V13.9346H83.5384V18.2538H82.4955Z" fill="white"/>
<path d="M80.6774 18.2538L80.4145 17.332H78.9226L78.6567 18.2538H77.5252L78.9935 13.9169H80.3259L81.806 18.2538H80.6774ZM80.1841 16.4723L79.9329 15.6126C79.9132 15.5398 79.8857 15.4423 79.8502 15.3202C79.8167 15.1961 79.7823 15.069 79.7468 14.9391C79.7133 14.8071 79.6867 14.6968 79.667 14.6082C79.6474 14.6968 79.6208 14.8071 79.5873 14.9391C79.5538 15.071 79.5203 15.199 79.4868 15.3231C79.4553 15.4472 79.4297 15.5437 79.41 15.6126L79.1589 16.4723H80.1841Z" fill="white"/>
<path d="M76.8354 18.2538H75.7955V16.4398H74.2593V18.2538H73.2164V13.9346H74.2593V15.5831H75.7955V13.9346H76.8354V18.2538Z" fill="white"/>
<path d="M71.0201 14.7293C70.8626 14.7293 70.7227 14.7609 70.6006 14.8239C70.4785 14.8869 70.3751 14.9785 70.2904 15.0986C70.2077 15.2188 70.1437 15.3635 70.0984 15.5329C70.0551 15.7023 70.0334 15.8943 70.0334 16.109C70.0334 16.3985 70.0698 16.6437 70.1427 16.8446C70.2156 17.0435 70.3269 17.1952 70.4765 17.2996C70.6282 17.404 70.8202 17.4562 71.0526 17.4562C71.2358 17.4562 71.416 17.4335 71.5933 17.3882C71.7705 17.3409 71.9566 17.2809 72.1516 17.208V18.0825C71.9606 18.1652 71.7686 18.2243 71.5755 18.2597C71.3825 18.2952 71.1728 18.3129 70.9463 18.3129C70.4893 18.3129 70.1141 18.2203 69.8207 18.0352C69.5292 17.8501 69.3135 17.5921 69.1737 17.2612C69.0358 16.9303 68.9669 16.5443 68.9669 16.1031C68.9669 15.7761 69.0112 15.4768 69.0998 15.205C69.1904 14.9332 69.3224 14.6978 69.4957 14.4989C69.671 14.298 69.8867 14.1434 70.1427 14.0351C70.3987 13.9268 70.6932 13.8726 71.026 13.8726C71.2368 13.8726 71.4534 13.8982 71.676 13.9494C71.9005 14.0006 72.1172 14.0764 72.3259 14.1769L72.001 15.007C71.8414 14.9302 71.6799 14.8652 71.5165 14.8121C71.355 14.7569 71.1895 14.7293 71.0201 14.7293Z" fill="white"/>
<path d="M68.4515 18.2538H67.2756L66.28 16.5166L65.9137 16.7589V18.2538H64.8708V13.9346H65.9137V15.8608C65.9689 15.7721 66.027 15.6835 66.088 15.5949C66.1491 15.5043 66.2101 15.4166 66.2712 15.332L67.314 13.9346H68.4574L67.0216 15.8578L68.4515 18.2538Z" fill="white"/>
<path d="M62.6745 14.7293C62.517 14.7293 62.3771 14.7609 62.255 14.8239C62.1329 14.8869 62.0295 14.9785 61.9448 15.0986C61.8621 15.2188 61.7981 15.3635 61.7528 15.5329C61.7095 15.7023 61.6878 15.8943 61.6878 16.109C61.6878 16.3985 61.7242 16.6437 61.7971 16.8446C61.87 17.0435 61.9813 17.1952 62.1309 17.2996C62.2826 17.404 62.4746 17.4562 62.707 17.4562C62.8902 17.4562 63.0704 17.4335 63.2477 17.3882C63.4249 17.3409 63.6111 17.2809 63.806 17.208V18.0825C63.615 18.1652 63.423 18.2243 63.2299 18.2597C63.0369 18.2952 62.8272 18.3129 62.6007 18.3129C62.1437 18.3129 61.7685 18.2203 61.4751 18.0352C61.1836 17.8501 60.9679 17.5921 60.8281 17.2612C60.6902 16.9303 60.6213 16.5443 60.6213 16.1031C60.6213 15.7761 60.6656 15.4768 60.7542 15.205C60.8448 14.9332 60.9768 14.6978 61.1501 14.4989C61.3254 14.298 61.5411 14.1434 61.7971 14.0351C62.0531 13.9268 62.3476 13.8726 62.6804 13.8726C62.8912 13.8726 63.1078 13.8982 63.3304 13.9494C63.5549 14.0006 63.7716 14.0764 63.9803 14.1769L63.6554 15.007C63.4958 14.9302 63.3343 14.8652 63.1709 14.8121C63.0094 14.7569 62.8439 14.7293 62.6745 14.7293Z" fill="white"/>
<path d="M59.7721 16.0882C59.7721 16.4211 59.7317 16.7244 59.651 16.9981C59.5702 17.2699 59.4452 17.5043 59.2758 17.7013C59.1064 17.8982 58.8907 18.0499 58.6288 18.1562C58.3668 18.2606 58.0557 18.3128 57.6952 18.3128C57.3387 18.3128 57.0295 18.2606 56.7676 18.1562C56.5056 18.0499 56.29 17.8982 56.1206 17.7013C55.9512 17.5043 55.8251 17.269 55.7424 16.9952C55.6597 16.7214 55.6183 16.4171 55.6183 16.0823C55.6183 15.6352 55.6922 15.2462 55.8399 14.9154C55.9876 14.5825 56.2151 14.3245 56.5224 14.1413C56.8316 13.9582 57.2245 13.8666 57.7011 13.8666C58.1817 13.8666 58.5746 13.9582 58.8799 14.1413C59.1852 14.3245 59.4097 14.5825 59.5535 14.9154C59.6992 15.2482 59.7721 15.6392 59.7721 16.0882ZM56.7085 16.0882C56.7085 16.3699 56.742 16.6121 56.8089 16.815C56.8779 17.0178 56.9842 17.1734 57.128 17.2818C57.2737 17.3901 57.4628 17.4442 57.6952 17.4442C57.9335 17.4442 58.1246 17.3901 58.2684 17.2818C58.4141 17.1734 58.5195 17.0178 58.5845 16.815C58.6495 16.6121 58.682 16.3699 58.682 16.0882C58.682 15.6667 58.6061 15.3339 58.4545 15.0897C58.3048 14.8454 58.0537 14.7233 57.7011 14.7233C57.4668 14.7233 57.2757 14.7785 57.128 14.8888C56.9823 14.9991 56.8759 15.1566 56.8089 15.3615C56.742 15.5643 56.7085 15.8066 56.7085 16.0882Z" fill="white"/>
<path d="M52.1428 18.2538V13.9346H53.1827V17.4059H54.8903V18.2538H52.1428Z" fill="white"/>
<path d="M47.8902 13.9346H49.3142C49.9129 13.9346 50.3531 14.0212 50.6348 14.1945C50.9164 14.3679 51.0572 14.6426 51.0572 15.0188C51.0572 15.1941 51.0267 15.3477 50.9657 15.4797C50.9066 15.6116 50.8258 15.719 50.7234 15.8017C50.623 15.8824 50.5107 15.9356 50.3866 15.9612V15.9908C50.5166 16.0203 50.6397 16.0705 50.7559 16.1414C50.8741 16.2104 50.9696 16.3128 51.0425 16.4487C51.1173 16.5846 51.1547 16.7668 51.1547 16.9952C51.1547 17.2572 51.0888 17.4827 50.9568 17.6718C50.8268 17.8589 50.6407 18.0027 50.3984 18.1031C50.1582 18.2035 49.8716 18.2538 49.5387 18.2538H47.8902V13.9346ZM48.9301 15.6185H49.3733C49.6037 15.6185 49.7642 15.5781 49.8548 15.4974C49.9454 15.4147 49.9907 15.3034 49.9907 15.1636C49.9907 15.0218 49.9376 14.9174 49.8312 14.8504C49.7268 14.7834 49.5614 14.75 49.3349 14.75H48.9301V15.6185ZM48.9301 16.4073V17.4266H49.4353C49.6756 17.4266 49.843 17.3783 49.9376 17.2818C50.0321 17.1833 50.0794 17.0563 50.0794 16.9007C50.0794 16.8081 50.0587 16.7254 50.0173 16.6525C49.9779 16.5777 49.909 16.5186 49.8105 16.4753C49.714 16.43 49.5801 16.4073 49.4087 16.4073H48.9301Z" fill="white"/>
<path d="M44.2007 18.2538H43.1607V14.7913H42.047V13.9346H45.3144V14.7913H44.2007V18.2538Z" fill="white"/>
<path d="M41.2244 18.2538H39.8802L38.1489 15.0956H38.1224C38.1322 15.2098 38.1401 15.3349 38.146 15.4708C38.1519 15.6047 38.1578 15.7397 38.1637 15.8755C38.1696 16.0114 38.1745 16.1405 38.1785 16.2626V18.2538H37.2538V13.9346H38.5921L40.3174 17.0543H40.3381C40.3322 16.9401 40.3263 16.819 40.3204 16.6909C40.3144 16.5629 40.3085 16.4339 40.3026 16.3039C40.2987 16.172 40.2957 16.0489 40.2938 15.9346V13.9346H41.2244V18.2538Z" fill="white"/>
<path d="M35.4356 18.2538L35.1726 17.332H33.6807L33.4148 18.2538H32.2833L33.7516 13.9169H35.084L36.5641 18.2538H35.4356ZM34.9422 16.4723L34.6911 15.6126C34.6714 15.5398 34.6438 15.4423 34.6083 15.3202C34.5749 15.1961 34.5404 15.069 34.5049 14.9391C34.4715 14.8071 34.4449 14.6968 34.4252 14.6082C34.4055 14.6968 34.3789 14.8071 34.3454 14.9391C34.3119 15.071 34.2785 15.199 34.245 15.3231C34.2135 15.4472 34.1879 15.5437 34.1682 15.6126L33.917 16.4723H34.9422Z" fill="white"/>
<path d="M32.0989 13.9346L30.6572 18.2538H29.4755L28.0367 13.9346H29.1505L29.8536 16.3187C29.8713 16.3817 29.895 16.4753 29.9245 16.5994C29.9541 16.7215 29.9836 16.8485 30.0131 16.9805C30.0427 17.1104 30.0614 17.2178 30.0693 17.3025C30.0791 17.2178 30.0968 17.1114 30.1225 16.9834C30.15 16.8534 30.1776 16.7274 30.2052 16.6053C30.2347 16.4812 30.2584 16.3876 30.2761 16.3246L30.9881 13.9346H32.0989Z" fill="white"/>
<path d="M26.7237 18.2538L26.4608 17.332H24.9688L24.7029 18.2538H23.5714L25.0397 13.9169H26.3721L27.8522 18.2538H26.7237ZM26.2303 16.4723L25.9792 15.6126C25.9595 15.5398 25.9319 15.4423 25.8965 15.3202C25.863 15.1961 25.8285 15.069 25.7931 14.9391C25.7596 14.8071 25.733 14.6968 25.7133 14.6082C25.6936 14.6968 25.667 14.8071 25.6335 14.9391C25.6001 15.071 25.5666 15.199 25.5331 15.3231C25.5016 15.4472 25.476 15.5437 25.4563 15.6126L25.2052 16.4723H26.2303Z" fill="white"/>
</svg>
