<svg width="120" height="32" viewBox="0 0 120 32" fill="none" xmlns="http://www.w3.org/2000/svg">
<path d="M51.3101 12.7164C51.3101 13.2102 51.3635 13.6107 51.457 13.9043C51.5638 14.198 51.6972 14.5184 51.8841 14.8654C51.9509 14.9722 51.9776 15.079 51.9776 15.1724C51.9776 15.3059 51.8975 15.4394 51.7239 15.5729L50.883 16.1335C50.7629 16.2136 50.6427 16.2536 50.536 16.2536C50.4025 16.2536 50.269 16.1869 50.1355 16.0667C49.9486 15.8665 49.7885 15.653 49.655 15.4394C49.5215 15.2125 49.388 14.9588 49.2412 14.6518C48.2 15.8799 46.8919 16.4939 45.3168 16.4939C44.1956 16.4939 43.3012 16.1735 42.6472 15.5328C41.9931 14.8921 41.6594 14.0378 41.6594 12.97C41.6594 11.8354 42.0599 10.9144 42.8741 10.2202C43.6883 9.52614 44.7695 9.17909 46.1444 9.17909C46.5982 9.17909 47.0654 9.21913 47.5593 9.28587C48.0532 9.35262 48.5604 9.4594 49.0944 9.57953V8.60512C49.0944 7.59066 48.8808 6.8832 48.467 6.46941C48.0398 6.05562 47.319 5.8554 46.2912 5.8554C45.8241 5.8554 45.3435 5.90879 44.8496 6.02892C44.3558 6.14905 43.8752 6.29588 43.408 6.48276C43.1945 6.5762 43.0343 6.62959 42.9408 6.65629C42.8474 6.68298 42.7807 6.69633 42.7273 6.69633C42.5404 6.69633 42.447 6.56285 42.447 6.28254V5.62848C42.447 5.41491 42.4737 5.25473 42.5404 5.16129C42.6071 5.06785 42.7273 4.97442 42.9142 4.88098C43.3813 4.64071 43.942 4.44049 44.596 4.28031C45.2501 4.10679 45.9442 4.0267 46.6783 4.0267C48.2668 4.0267 49.4281 4.3871 50.1756 5.1079C50.9097 5.8287 51.2835 6.92325 51.2835 8.39155V12.7164H51.3101ZM45.8908 14.7453C46.3313 14.7453 46.7851 14.6652 47.2657 14.505C47.7462 14.3448 48.1733 14.0512 48.5337 13.6507C48.7473 13.3971 48.9075 13.1168 48.9876 12.7964C49.0677 12.4761 49.121 12.089 49.121 11.6352V11.0745C48.734 10.9811 48.3202 10.901 47.893 10.8476C47.4659 10.7942 47.0521 10.7675 46.6383 10.7675C45.744 10.7675 45.0899 10.941 44.6494 11.3014C44.2089 11.6618 43.9954 12.1691 43.9954 12.8365C43.9954 13.4639 44.1555 13.931 44.4892 14.2514C44.8096 14.5851 45.2768 14.7453 45.8908 14.7453ZM56.6094 16.1869C56.3691 16.1869 56.2089 16.1468 56.1021 16.0534C55.9954 15.9733 55.9019 15.7864 55.8218 15.5328L52.685 5.21468C52.6049 4.94772 52.5649 4.77419 52.5649 4.68076C52.5649 4.46719 52.6717 4.34705 52.8852 4.34705H54.1934C54.447 4.34705 54.6205 4.3871 54.7139 4.48053C54.8207 4.56062 54.9008 4.7475 54.9809 5.00111L57.2234 13.8376L59.3057 5.00111C59.3724 4.73415 59.4525 4.56062 59.5593 4.48053C59.6661 4.40044 59.853 4.34705 60.0932 4.34705H61.1611C61.4147 4.34705 61.5882 4.3871 61.695 4.48053C61.8018 4.56062 61.8952 4.7475 61.9486 5.00111L64.0576 13.9444L66.3669 5.00111C66.447 4.73415 66.5404 4.56062 66.6338 4.48053C66.7406 4.40044 66.9142 4.34705 67.1544 4.34705H68.3958C68.6094 4.34705 68.7295 4.45384 68.7295 4.68076C68.7295 4.7475 68.7162 4.81424 68.7028 4.89433C68.6895 4.97442 68.6628 5.0812 68.6094 5.22803L65.3925 15.5462C65.3124 15.8131 65.2189 15.9867 65.1122 16.0667C65.0054 16.1468 64.8318 16.2002 64.6049 16.2002H63.457C63.2034 16.2002 63.0298 16.1602 62.923 16.0667C62.8163 15.9733 62.7228 15.7998 62.6694 15.5328L60.6005 6.92325L58.5449 15.5195C58.4781 15.7864 58.398 15.96 58.2912 16.0534C58.1845 16.1468 57.9976 16.1869 57.7573 16.1869H56.6094ZM73.7618 16.5473C73.0677 16.5473 72.3736 16.4672 71.7061 16.307C71.0387 16.1468 70.5182 15.9733 70.1711 15.7731C69.9575 15.653 69.8107 15.5195 69.7573 15.3993C69.7039 15.2792 69.6772 15.1457 69.6772 15.0256V14.3448C69.6772 14.0645 69.784 13.931 69.9842 13.931C70.0643 13.931 70.1444 13.9444 70.2245 13.9711C70.3046 13.9978 70.4247 14.0512 70.5582 14.1046C71.012 14.3048 71.5059 14.465 72.0265 14.5717C72.5604 14.6785 73.081 14.7319 73.6149 14.7319C74.4559 14.7319 75.1099 14.5851 75.5638 14.2914C76.0176 13.9978 76.2579 13.5706 76.2579 13.0234C76.2579 12.6496 76.1377 12.3426 75.8975 12.089C75.6572 11.8354 75.2034 11.6085 74.5493 11.3949L72.6138 10.7942C71.6394 10.4872 70.9186 10.0334 70.4781 9.4327C70.0376 8.84538 69.8107 8.19132 69.8107 7.49722C69.8107 6.9366 69.9308 6.44271 70.1711 6.01557C70.4114 5.58843 70.7317 5.21468 71.1322 4.92102C71.5326 4.61402 71.9865 4.3871 72.5204 4.22692C73.0543 4.06674 73.6149 4 74.2022 4C74.4959 4 74.8029 4.01335 75.0966 4.05339C75.4036 4.09344 75.6839 4.14683 75.9642 4.20022C76.2312 4.26696 76.4848 4.3337 76.7251 4.41379C76.9653 4.49388 77.1522 4.57397 77.2857 4.65406C77.4725 4.76085 77.606 4.86763 77.6861 4.98776C77.7662 5.09455 77.8063 5.24138 77.8063 5.42825V6.05562C77.8063 6.33593 77.6995 6.48276 77.4992 6.48276C77.3925 6.48276 77.2189 6.42937 76.992 6.32258C76.2312 5.97553 75.3769 5.802 74.4292 5.802C73.6683 5.802 73.0677 5.92214 72.6539 6.17575C72.2401 6.42937 72.0265 6.81646 72.0265 7.36374C72.0265 7.73749 72.16 8.05784 72.4269 8.31146C72.6939 8.56507 73.1878 8.81869 73.8952 9.04561L75.7907 9.64628C76.7517 9.95328 77.4459 10.3804 77.8596 10.9277C78.2734 11.475 78.4737 12.1023 78.4737 12.7964C78.4737 13.3704 78.3535 13.891 78.1266 14.3448C77.8863 14.7987 77.566 15.1991 77.1522 15.5195C76.7384 15.8532 76.2445 16.0934 75.6705 16.267C75.0699 16.4538 74.4425 16.5473 73.7618 16.5473Z" fill="white"/>
<path fill-rule="evenodd" clip-rule="evenodd" d="M76.2846 23.0348C71.893 26.2784 65.5126 28.0003 60.0265 28.0003C52.338 28.0003 45.4103 25.1571 40.1778 20.4319C39.764 20.0581 40.1378 19.5509 40.6316 19.8445C46.2913 23.1282 53.2724 25.1171 60.4937 25.1171C65.3658 25.1171 70.7184 24.1026 75.6439 22.0203C76.378 21.6866 77.0054 22.5008 76.2846 23.0348Z" fill="#FF9900"/>
<path fill-rule="evenodd" clip-rule="evenodd" d="M78.1129 20.9523C77.5523 20.2315 74.4021 20.6053 72.9739 20.7788C72.5467 20.8322 72.48 20.4584 72.8671 20.1781C75.3765 18.4162 79.5011 18.9234 79.9817 19.5107C80.4622 20.1114 79.8482 24.236 77.4989 26.2115C77.1385 26.5185 76.7915 26.3583 76.9516 25.9579C77.4856 24.6364 78.6735 21.6598 78.1129 20.9523Z" fill="#FF9900"/>
</svg>
