<svg width="120" height="32" viewBox="0 0 120 32" fill="none" xmlns="http://www.w3.org/2000/svg">
<path fill-rule="evenodd" clip-rule="evenodd" d="M19.8618 19.6155H14.065V9.5584H12.2971V21.3838H19.8618V19.6155Z" fill="white"/>
<path fill-rule="evenodd" clip-rule="evenodd" d="M65.3909 9.55855H63.6228V21.3835H71.1877V19.6156H65.3909V9.55855Z" fill="white"/>
<path fill-rule="evenodd" clip-rule="evenodd" d="M57.0129 15.926H61.6048V14.1581H57.0129V11.3267H62.3996V9.55884H55.245V21.3838H62.8098V19.6155H57.0129V15.926Z" fill="white"/>
<path fill-rule="evenodd" clip-rule="evenodd" d="M73.7875 15.926H78.3797V14.1581H73.7875V11.3267H79.1741V9.55884H72.02V21.3838H79.5842V19.6155H73.7875V15.926Z" fill="white"/>
<path fill-rule="evenodd" clip-rule="evenodd" d="M90.8019 9.61136L90.7947 9.60518L92.8376 21.2528H94.6141L93.3782 14.1327L100.695 21.219H103.189L90.7285 9.19692L90.8019 9.61136Z" fill="white"/>
<path fill-rule="evenodd" clip-rule="evenodd" d="M96.0544 21.2478H96.4663L97.8766 21.24H98.4551L95.5649 18.4515L95.5817 18.5476L95.5805 18.5463L96.0544 21.2478Z" fill="white"/>
<path fill-rule="evenodd" clip-rule="evenodd" d="M110.73 9.55855V21.3835H118.295V19.6153H112.498V15.9257H117.09V14.1582H112.498V11.3268H117.885V9.55855H110.73Z" fill="white"/>
<path fill-rule="evenodd" clip-rule="evenodd" d="M100.481 9.55855V11.3264H104.204V21.3835H105.972V11.3264H109.779V9.55855H100.481Z" fill="white"/>
<path fill-rule="evenodd" clip-rule="evenodd" d="M82.1341 14.9849V11.3345H85.4598C86.4677 11.3345 87.285 12.1518 87.285 13.1597C87.285 14.168 86.4677 14.9849 85.4598 14.9849H82.1341ZM89.1276 13.1597C89.1276 11.1708 87.5159 9.5584 85.5271 9.5584H80.3558V16.7614H80.3666V21.3838H82.1341V16.7614H84.0982L87.2357 21.3838H89.4385L86.2067 16.6967C87.8707 16.3787 89.1276 14.9165 89.1276 13.1597Z" fill="white"/>
<path fill-rule="evenodd" clip-rule="evenodd" d="M7.75516 19.5997H3.76787V15.9493H7.75516C8.76301 15.9493 9.58035 16.7663 9.58035 17.7745C9.58035 18.7828 8.76301 19.5997 7.75516 19.5997ZM7.12299 11.4317C7.87104 11.4317 8.47765 12.0383 8.47765 12.7868C8.47765 13.5345 7.87104 14.1414 7.12299 14.1414H3.76787V11.4317H7.12299ZM9.62239 14.6549C10.0121 14.198 10.2472 13.6058 10.2472 12.9588V12.5666C10.2472 10.9055 8.90037 9.55869 7.23886 9.55869H2V21.3836H3.76787V21.3758H7.82197C9.81086 21.3758 11.4237 19.7634 11.4237 17.7745C11.4237 16.4413 10.6991 15.2776 9.62239 14.6549Z" fill="white"/>
<path fill-rule="evenodd" clip-rule="evenodd" d="M50.1559 9.54812C47.2808 9.54812 44.887 11.6034 44.3612 14.3251H46.1695C46.6866 12.6133 48.2755 11.3671 50.1559 11.3671C51.3679 11.3671 52.4591 11.8851 53.2203 12.7119L54.4521 11.4038C53.3758 10.2615 51.8491 9.54812 50.1559 9.54812Z" fill="white"/>
<path fill-rule="evenodd" clip-rule="evenodd" d="M50.1559 19.6948C48.1967 19.6948 46.5538 18.3418 46.1101 16.5191H44.3504C44.8535 19.2684 47.261 21.3522 50.1559 21.3522C51.838 21.3522 53.356 20.6483 54.4306 19.5192L53.245 18.3229C52.4834 19.1654 51.3815 19.6948 50.1559 19.6948Z" fill="white"/>
<path fill-rule="evenodd" clip-rule="evenodd" d="M39.223 19.6948C37.2638 19.6948 35.6209 18.3418 35.1772 16.5191H33.4176C33.9207 19.2684 36.3285 21.3522 39.223 21.3522C40.9051 21.3522 42.4231 20.6483 43.4982 19.5192L42.3122 18.3229C41.5505 19.1654 40.4486 19.6948 39.223 19.6948Z" fill="white"/>
<path fill-rule="evenodd" clip-rule="evenodd" d="M39.223 11.367C40.435 11.367 41.5266 11.8849 42.2875 12.7118L43.5192 11.4037C42.4433 10.2614 40.9163 9.54798 39.223 9.54798C36.3484 9.54798 33.9541 11.6037 33.4287 14.325H35.2366C35.7537 12.6132 37.3426 11.367 39.223 11.367Z" fill="white"/>
<path fill-rule="evenodd" clip-rule="evenodd" d="M23.4564 18.2436C23.0358 17.754 22.7269 17.1664 22.5693 16.519H20.8097C21.0353 17.7524 21.6444 18.8518 22.5087 19.6889L23.4564 18.2436Z" fill="white"/>
<path fill-rule="evenodd" clip-rule="evenodd" d="M26.6151 11.367C27.0427 11.367 27.4551 11.4317 27.8435 11.5513L28.8654 9.99252C28.1718 9.70633 27.4118 9.54798 26.6151 9.54798C23.7404 9.54798 21.3461 11.6037 20.8207 14.325H22.6286C23.1458 12.6132 24.7346 11.367 26.6151 11.367Z" fill="white"/>
<path fill-rule="evenodd" clip-rule="evenodd" d="M30.7018 11.1925L29.6947 12.729C30.1063 13.181 30.4197 13.7246 30.6011 14.325H32.4095C32.174 13.1056 31.5628 12.0198 30.7018 11.1925Z" fill="white"/>
<path fill-rule="evenodd" clip-rule="evenodd" d="M31.0016 19.3983C31.7167 18.6041 32.2198 17.6144 32.4202 16.5191H30.6606C30.5373 17.0272 30.32 17.4989 30.0292 17.9146L31.0016 19.3983Z" fill="white"/>
<path fill-rule="evenodd" clip-rule="evenodd" d="M26.615 19.6949C26.1454 19.6949 25.6942 19.6169 25.2732 19.4738L24.34 20.8974C25.0402 21.1902 25.8085 21.3522 26.615 21.3522C27.5627 21.3522 28.4584 21.1287 29.2522 20.7316L28.331 19.3258C27.8076 19.5629 27.2266 19.6949 26.615 19.6949Z" fill="white"/>
<path fill-rule="evenodd" clip-rule="evenodd" d="M31.8618 22.7092C31.5443 22.7092 31.287 22.4519 31.287 22.1343C31.287 21.8172 31.5443 21.5599 31.8618 21.5599C32.1794 21.5599 32.4367 21.8172 32.4367 22.1343C32.4367 22.4519 32.1794 22.7092 31.8618 22.7092ZM25.9619 17.1305C25.7277 17.0373 25.5178 16.8959 25.3454 16.7177C25.0382 16.4002 24.8485 15.9685 24.8485 15.4922C24.8485 14.5185 25.6378 13.7296 26.611 13.7296C26.8069 13.7296 26.9953 13.7618 27.1714 13.8212C27.2011 13.8311 27.2308 13.8418 27.2601 13.8533C27.4646 13.9346 27.651 14.0529 27.8094 14.2001C28.1562 14.5218 28.3735 14.9816 28.3735 15.4922C28.3735 16.4654 27.5842 17.2542 26.611 17.2542C26.3817 17.2542 26.1632 17.2101 25.9619 17.1305ZM20.6472 25.268C20.3296 25.268 20.0723 25.0111 20.0723 24.6935C20.0723 24.376 20.3296 24.1187 20.6472 24.1187C20.9643 24.1187 21.2216 24.376 21.2216 24.6935C21.2216 25.0111 20.9643 25.268 20.6472 25.268ZM18.5519 16.0456C18.2344 16.0456 17.977 15.7882 17.977 15.4707C17.977 15.1536 18.2344 14.8962 18.5519 14.8962C18.869 14.8962 19.1263 15.1536 19.1263 15.4707C19.1263 15.7882 18.869 16.0456 18.5519 16.0456ZM31.8103 6.73857C32.1278 6.73857 32.3852 6.9959 32.3852 7.31301C32.3852 7.63054 32.1278 7.88787 31.8103 7.88787C31.4928 7.88787 31.2354 7.63054 31.2354 7.31301C31.2354 6.9959 31.4928 6.73857 31.8103 6.73857ZM39.0405 14.8962C39.358 14.8962 39.6154 15.1536 39.6154 15.4707C39.6154 15.7882 39.358 16.0456 39.0405 16.0456C38.7234 16.0456 38.4661 15.7882 38.4661 15.4707C38.4661 15.1536 38.7234 14.8962 39.0405 14.8962ZM50.1871 14.8962C50.5043 14.8962 50.7612 15.1536 50.7612 15.4707C50.7612 15.7882 50.5043 16.0456 50.1871 16.0456C49.8692 16.0456 49.6123 15.7882 49.6123 15.4707C49.6123 15.1536 49.8692 14.8962 50.1871 14.8962ZM31.8577 20.8213C31.7006 20.8213 31.5501 20.8489 31.4102 20.8996L28.6366 17.4555C29.0523 17.0266 29.3331 16.467 29.4123 15.8443H37.7745V15.8171C37.9275 16.3705 38.4343 16.7775 39.0364 16.7775C39.638 16.7775 40.1449 16.3713 40.2983 15.8188H48.9207C49.0745 16.3713 49.5814 16.7775 50.183 16.7775C50.9063 16.7775 51.4927 16.1907 51.4927 15.4674C51.4927 14.7441 50.9063 14.1577 50.183 14.1577C49.5954 14.1577 49.0985 14.5445 48.9322 15.0769H40.2871C40.121 14.5445 39.624 14.1577 39.0364 14.1577C38.4343 14.1577 37.9275 14.5643 37.7745 15.1177V15.1025H37.6722V15.0769H29.4053C29.3018 14.356 28.9261 13.7231 28.3863 13.2847L31.374 8.54603C31.5092 8.59345 31.6548 8.61943 31.8061 8.61943C32.5299 8.61943 33.1163 8.03303 33.1163 7.30972C33.1163 6.5864 32.5299 6 31.8061 6C31.0829 6 30.4964 6.5864 30.4964 7.30972C30.4964 7.61199 30.5991 7.88993 30.7707 8.11138L27.7541 12.8966C27.4024 12.7395 27.0127 12.6525 26.6028 12.6525C25.1681 12.6525 23.9829 13.7189 23.7957 15.1025H19.8055C19.6476 14.5569 19.1445 14.1577 18.5477 14.1577C17.8244 14.1577 17.238 14.7441 17.238 15.4674C17.238 16.1907 17.8244 16.7775 18.5477 16.7775C19.1399 16.7775 19.6406 16.3841 19.8022 15.8443H23.7928C23.8835 16.5606 24.2419 17.1932 24.7644 17.6394L21.0946 23.4601C20.9536 23.4086 20.8018 23.3801 20.643 23.3801C19.9197 23.3801 19.3333 23.9665 19.3333 24.6902C19.3333 25.4136 19.9197 26 20.643 26C21.3664 26 21.9528 25.4136 21.9528 24.6902C21.9528 24.3954 21.8554 24.1237 21.6913 23.9046L25.3866 18.0435C25.7549 18.2188 26.1673 18.3169 26.6028 18.3169C27.1335 18.3169 27.6304 18.171 28.0552 17.9165L30.8131 21.3413C30.647 21.5607 30.548 21.8346 30.548 22.131C30.548 22.8547 31.1344 23.4407 31.8577 23.4407C32.5814 23.4407 33.1679 22.8547 33.1679 22.131C33.1679 21.4077 32.5814 20.8213 31.8577 20.8213Z" fill="#313173"/>
</svg>
