<svg width="120" height="32" viewBox="0 0 120 32" fill="none" xmlns="http://www.w3.org/2000/svg">
<path fill-rule="evenodd" clip-rule="evenodd" d="M32.2624 12.7712L29.0168 4L25.7802 12.7466L29.0336 16L32.2624 12.7712ZM29.2999 15.3089V5.58118L31.9273 12.6815L29.2999 15.3089Z" fill="url(#paint0_linear_1007_403)"/>
<path fill-rule="evenodd" clip-rule="evenodd" d="M17 16.0166L25.7712 12.771L25.7802 12.7466L29.0336 15.9999L25.7712 19.2623L17 16.0166ZM28.3576 15.7334H18.5812L25.7171 13.0929L28.3576 15.7334Z" fill="url(#paint1_linear_1007_403)"/>
<path fill-rule="evenodd" clip-rule="evenodd" d="M32.2624 19.2289L29.0335 16L25.7802 19.2533L29.0168 28L32.2624 19.2289ZM28.7337 16.6911V26.4191L26.1063 19.3186L28.7337 16.6911Z" fill="url(#paint2_linear_1007_403)"/>
<path fill-rule="evenodd" clip-rule="evenodd" d="M32.2869 12.7466L29.0336 15.9999L32.2624 19.2288L41.0336 15.9832L32.2869 12.7466ZM29.7247 16.2663H39.4524L32.3521 18.8937L29.7247 16.2663Z" fill="url(#paint3_linear_1007_403)"/>
<path d="M99.0357 23.56C98.0491 23.56 97.1757 23.3533 96.4157 22.94C95.6691 22.5133 95.0824 21.92 94.6557 21.16C94.2424 20.3867 94.0357 19.48 94.0357 18.44V18.2C94.0357 17.16 94.2424 16.26 94.6557 15.5C95.0691 14.7267 95.6491 14.1333 96.3957 13.72C97.1424 13.2933 98.0091 13.08 98.9957 13.08C99.9691 13.08 100.816 13.3 101.536 13.74C102.256 14.1667 102.816 14.7667 103.216 15.54C103.616 16.3 103.816 17.1867 103.816 18.2V19.06H96.5957C96.6224 19.74 96.8757 20.2933 97.3557 20.72C97.8357 21.1467 98.4224 21.36 99.1157 21.36C99.8224 21.36 100.342 21.2067 100.676 20.9C101.009 20.5933 101.262 20.2533 101.436 19.88L103.496 20.96C103.309 21.3067 103.036 21.6867 102.676 22.1C102.329 22.5 101.862 22.8467 101.276 23.14C100.689 23.42 99.9424 23.56 99.0357 23.56ZM96.6157 17.18H101.256C101.202 16.6067 100.969 16.1467 100.556 15.8C100.156 15.4533 99.6291 15.28 98.9757 15.28C98.2957 15.28 97.7557 15.4533 97.3557 15.8C96.9557 16.1467 96.7091 16.6067 96.6157 17.18Z" fill="white"/>
<path d="M89.2032 23.28V9.28H91.7232V23.28H89.2032Z" fill="white"/>
<path d="M83.8821 23.28C83.2288 23.28 82.6955 23.08 82.2821 22.68C81.8821 22.2667 81.6821 21.72 81.6821 21.04V15.44H79.2021V13.36H81.6821V10.28H84.2021V13.36H86.9221V15.44H84.2021V20.6C84.2021 21 84.3888 21.2 84.7621 21.2H86.6821V23.28H83.8821Z" fill="white"/>
<path d="M73.9092 23.56C72.6158 23.56 71.5558 23.28 70.7292 22.72C69.9025 22.16 69.4025 21.36 69.2292 20.32L71.5492 19.72C71.6425 20.1867 71.7958 20.5533 72.0092 20.82C72.2358 21.0867 72.5092 21.28 72.8292 21.4C73.1625 21.5067 73.5225 21.56 73.9092 21.56C74.4958 21.56 74.9292 21.46 75.2092 21.26C75.4892 21.0467 75.6292 20.7867 75.6292 20.48C75.6292 20.1733 75.4958 19.94 75.2292 19.78C74.9625 19.6067 74.5358 19.4667 73.9492 19.36L73.3892 19.26C72.6958 19.1267 72.0625 18.9467 71.4892 18.72C70.9158 18.48 70.4558 18.1533 70.1092 17.74C69.7625 17.3267 69.5892 16.7933 69.5892 16.14C69.5892 15.1533 69.9492 14.4 70.6692 13.88C71.3892 13.3467 72.3358 13.08 73.5092 13.08C74.6158 13.08 75.5358 13.3267 76.2692 13.82C77.0025 14.3133 77.4825 14.96 77.7092 15.76L75.3692 16.48C75.2625 15.9733 75.0425 15.6133 74.7092 15.4C74.3892 15.1867 73.9892 15.08 73.5092 15.08C73.0292 15.08 72.6625 15.1667 72.4092 15.34C72.1558 15.5 72.0292 15.7267 72.0292 16.02C72.0292 16.34 72.1625 16.58 72.4292 16.74C72.6958 16.8867 73.0558 17 73.5092 17.08L74.0692 17.18C74.8158 17.3133 75.4892 17.4933 76.0892 17.72C76.7025 17.9333 77.1825 18.2467 77.5292 18.66C77.8892 19.06 78.0692 19.6067 78.0692 20.3C78.0692 21.34 77.6892 22.1467 76.9292 22.72C76.1825 23.28 75.1758 23.56 73.9092 23.56Z" fill="white"/>
<path d="M61.3848 23.56C60.6781 23.56 60.0448 23.44 59.4848 23.2C58.9248 22.9467 58.4781 22.5867 58.1448 22.12C57.8248 21.64 57.6648 21.06 57.6648 20.38C57.6648 19.7 57.8248 19.1333 58.1448 18.68C58.4781 18.2133 58.9315 17.8667 59.5048 17.64C60.0915 17.4 60.7581 17.28 61.5048 17.28H64.2248V16.72C64.2248 16.2533 64.0781 15.8733 63.7848 15.58C63.4915 15.2733 63.0248 15.12 62.3848 15.12C61.7581 15.12 61.2915 15.2667 60.9848 15.56C60.6781 15.84 60.4781 16.2067 60.3848 16.66L58.0648 15.88C58.2248 15.3733 58.4781 14.9133 58.8248 14.5C59.1848 14.0733 59.6581 13.7333 60.2448 13.48C60.8448 13.2133 61.5715 13.08 62.4248 13.08C63.7315 13.08 64.7648 13.4067 65.5248 14.06C66.2848 14.7133 66.6648 15.66 66.6648 16.9V20.6C66.6648 21 66.8515 21.2 67.2248 21.2H68.0248V23.28H66.3448C65.8515 23.28 65.4448 23.16 65.1248 22.92C64.8048 22.68 64.6448 22.36 64.6448 21.96V21.94H64.2648C64.2115 22.1 64.0915 22.3133 63.9048 22.58C63.7181 22.8333 63.4248 23.06 63.0248 23.26C62.6248 23.46 62.0781 23.56 61.3848 23.56ZM61.8248 21.52C62.5315 21.52 63.1048 21.3267 63.5448 20.94C63.9981 20.54 64.2248 20.0133 64.2248 19.36V19.16H61.6848C61.2181 19.16 60.8515 19.26 60.5848 19.46C60.3181 19.66 60.1848 19.94 60.1848 20.3C60.1848 20.66 60.3248 20.9533 60.6048 21.18C60.8848 21.4067 61.2915 21.52 61.8248 21.52Z" fill="white"/>
<path d="M50.6737 23.56C48.9404 23.56 47.567 23.08 46.5537 22.12C45.5404 21.1467 45.0337 19.76 45.0337 17.96V14.6C45.0337 12.8 45.5404 11.42 46.5537 10.46C47.567 9.48667 48.9404 9 50.6737 9C52.3937 9 53.7204 9.47333 54.6537 10.42C55.6004 11.3533 56.0737 12.64 56.0737 14.28V14.4H53.4737V14.2C53.4737 13.3733 53.2404 12.6933 52.7737 12.16C52.3204 11.6267 51.6204 11.36 50.6737 11.36C49.7404 11.36 49.007 11.6467 48.4737 12.22C47.9404 12.7933 47.6737 13.5733 47.6737 14.56V18C47.6737 18.9733 47.9404 19.7533 48.4737 20.34C49.007 20.9133 49.7404 21.2 50.6737 21.2C51.6204 21.2 52.3204 20.9333 52.7737 20.4C53.2404 19.8533 53.4737 19.1733 53.4737 18.36V18H56.0737V18.28C56.0737 19.92 55.6004 21.2133 54.6537 22.16C53.7204 23.0933 52.3937 23.56 50.6737 23.56Z" fill="white"/>
<defs>
<linearGradient id="paint0_linear_1007_403" x1="25.7802" y1="9.92923" x2="32.1859" y2="9.92923" gradientUnits="userSpaceOnUse">
<stop stop-color="white"/>
<stop offset="0.5" stop-color="#DEE8FE"/>
</linearGradient>
<linearGradient id="paint1_linear_1007_403" x1="22.946" y1="12.7466" x2="22.946" y2="19.1858" gradientUnits="userSpaceOnUse">
<stop offset="0.5" stop-color="#DEE8FE"/>
<stop offset="1" stop-color="white"/>
</linearGradient>
<linearGradient id="paint2_linear_1007_403" x1="25.589" y1="21.9292" x2="32.2624" y2="21.9292" gradientUnits="userSpaceOnUse">
<stop offset="0.5" stop-color="#DEE8FE"/>
<stop offset="1" stop-color="white"/>
</linearGradient>
<linearGradient id="paint3_linear_1007_403" x1="34.9628" y1="12.5554" x2="34.9628" y2="19.2288" gradientUnits="userSpaceOnUse">
<stop stop-color="white"/>
<stop offset="0.5" stop-color="#DEE8FE"/>
</linearGradient>
</defs>
</svg>
