<svg width="120" height="32" viewBox="0 0 120 32" fill="none" xmlns="http://www.w3.org/2000/svg">
<path d="M33.5828 12.4769C30.3127 12.4769 27.7823 14.9294 27.7823 18.2384C27.7823 21.5474 30.2738 24 33.5828 24C36.8918 24 39.4222 21.5085 39.4222 18.2384C39.4222 14.9684 36.9307 12.4769 33.5828 12.4769ZM33.6217 21.5864C31.7531 21.5864 30.4295 20.146 30.4295 18.1995C30.4295 16.253 31.7531 14.8127 33.6217 14.8127C35.4903 14.8127 36.8529 16.253 36.8529 18.1995C36.8529 20.146 35.4514 21.5864 33.6217 21.5864ZM40.1229 14.9684H41.7191V23.7664H44.3273V12.6715H40.1229V14.9684ZM21.2811 14.8516C22.6436 14.8516 23.7336 15.6691 24.1229 16.9148H26.848C26.3419 14.2676 24.1619 12.438 21.2811 12.438C18.0499 12.4769 15.5195 14.9294 15.5195 18.2384C15.5195 21.5474 18.011 24 21.32 24C24.1229 24 26.3419 22.2092 26.848 19.5231H24.1229C23.7336 20.7689 22.6436 21.6253 21.32 21.6253C19.4514 21.6253 18.1278 20.1849 18.1278 18.2384C18.1278 16.292 19.4125 14.8516 21.2811 14.8516ZM89.213 17.1484L87.3054 16.8759C86.41 16.7591 85.7483 16.4477 85.7483 15.747C85.7483 14.9684 86.6047 14.5791 87.7337 14.5791C88.9794 14.5791 89.7969 15.1241 89.9526 15.9805H92.4441C92.1716 13.7616 90.4587 12.438 87.8115 12.438C85.1643 12.438 83.2568 13.8394 83.2568 15.8248C83.2568 17.6934 84.4247 18.8224 86.8383 19.1338L88.7458 19.4063C89.6801 19.5231 90.1862 19.9124 90.1862 20.5742C90.1862 21.4696 89.2908 21.82 88.0451 21.82C86.5268 21.82 85.6704 21.1971 85.5147 20.2628H82.9843C83.2178 22.4428 84.9307 23.9611 88.0062 23.9611C90.8091 23.9611 92.7166 22.6764 92.7166 20.4574C92.7166 18.5109 91.3541 17.4988 89.213 17.1484ZM43.0427 8.11679C42.1083 8.11679 41.3687 8.81752 41.3687 9.75182C41.3687 10.6861 42.0694 11.3869 43.0427 11.3869C44.0159 11.3869 44.7166 10.6861 44.7166 9.75182C44.7166 8.81752 43.977 8.11679 43.0427 8.11679ZM80.9599 16.4866C80.9599 14.073 79.4806 12.4769 76.4052 12.4769C73.3298 12.4769 71.8504 13.9562 71.5001 16.2141H74.0694C74.1862 15.3187 74.8869 14.618 76.3663 14.618C77.6899 14.618 78.3127 15.2019 78.3127 15.9027C78.3127 16.837 77.1448 17.0706 75.6655 17.2263C73.6801 17.4599 71.2276 18.1217 71.2276 20.691C71.2276 22.6764 72.7069 23.9611 75.0816 23.9611C76.9502 23.9611 78.0792 23.1825 78.6631 21.9757C78.741 23.0657 79.5585 23.7664 80.7264 23.7664H82.2446V21.4696H80.9599V16.4866ZM78.3906 19.2506C78.3906 20.7299 77.1059 21.82 75.5098 21.82C74.5366 21.82 73.7191 21.4307 73.7191 20.5353C73.7191 19.4453 75.0427 19.1338 76.2495 19.017C77.4174 18.9002 78.0402 18.6667 78.3906 18.1606V19.2506ZM64.6874 12.4769C63.247 12.4769 62.0402 13.0608 61.1838 14.073V8H58.6144V23.7664H61.1448V22.326C62.0013 23.3771 63.247 24 64.6874 24C67.8018 24 70.1375 21.5474 70.1375 18.2384C70.1375 14.9294 67.7629 12.4769 64.6874 12.4769ZM64.2981 21.5864C62.4295 21.5864 61.1059 20.146 61.1059 18.1995C61.1059 16.253 62.4684 14.8127 64.3371 14.8127C66.2057 14.8127 67.5293 16.253 67.5293 18.1995C67.5293 20.146 66.1667 21.5864 64.2981 21.5864ZM52.4246 12.4769C50.7507 12.4769 49.6607 13.1776 48.9989 14.1119V12.6715H46.4295V23.7664H48.9989V17.7324C48.9989 16.0195 50.0889 14.8516 51.685 14.8516C53.1643 14.8516 54.0986 15.9027 54.0986 17.4209V23.7664H56.668V17.2263C56.668 14.4234 55.2276 12.4769 52.4246 12.4769ZM105.018 17.8881C105.018 14.6959 102.683 12.4769 99.5682 12.4769C96.2592 12.4769 93.8067 14.9684 93.8067 18.2384C93.8067 21.7032 96.4149 24 99.6071 24C102.293 24 104.395 22.4039 104.94 20.146H102.254C101.865 21.1192 100.931 21.7032 99.6461 21.7032C97.9721 21.7032 96.7264 20.691 96.4538 18.8613H105.018V17.8881ZM96.6096 17.0316C97.0378 15.4745 98.1667 14.7348 99.5293 14.7348C101.009 14.7348 102.099 15.5523 102.371 17.0316H96.6096Z" fill="#0052FF"/>
</svg>
