<svg width="120" height="32" viewBox="0 0 120 32" fill="none" xmlns="http://www.w3.org/2000/svg">
<path d="M30.8002 7.6589C29.1252 4.30429 24.9006 3.04457 21.5738 4.77292L11.7258 9.89531L13.932 14.1338L11.7072 15.2891C8.4129 17.0012 7.01399 21.1516 8.74929 24.4343C9.94869 26.7008 12.2779 28 14.6813 28C15.7207 28 16.7762 27.7564 17.7622 27.246L27.7448 22.0517L25.5455 17.8179L27.8956 16.5953C31.1389 14.9087 32.4264 10.9184 30.8002 7.66122V7.6589ZM16.6162 25.0351C14.2197 26.2809 11.162 24.9911 10.538 22.1376C10.4614 21.7965 10.4359 21.4439 10.4568 21.0959C10.5565 19.5416 11.4149 18.2401 12.7303 17.5603L15.0804 16.3377L16.0524 18.2076C17.0801 20.1819 19.5161 20.9521 21.4926 19.9267L23.3393 18.9662L24.3949 20.9961L16.6185 25.0375L16.6162 25.0351ZM20.1123 14.0851C20.8709 14.2289 21.481 14.8391 21.6272 15.5954C21.8847 16.9525 20.7178 18.1194 19.3606 17.8643C18.602 17.7204 17.9919 17.108 17.8457 16.3493C17.5882 14.9922 18.7574 13.8276 20.1123 14.0828V14.0851ZM26.6475 14.4377L24.3972 15.6093L23.4251 13.7417C22.3951 11.7652 19.9592 10.995 17.9849 12.0227L16.1359 12.9831L15.0804 10.9532L22.8568 6.91189C24.8983 5.85168 27.4154 6.62886 28.5058 8.64255C29.6263 10.7142 28.7354 13.352 26.6452 14.44L26.6475 14.4377Z" fill="#008BF7"/>
<path d="M49.6194 13.6583L49.3294 12.786H52.3569L54.5492 20.3953L56.723 12.786H59.5951L56.1407 22.7246L56.0641 22.938L55.2104 25.2857C54.9784 25.8286 54.7325 26.2485 54.4727 26.5478C54.2013 26.8587 53.8904 27.0582 53.5401 27.1486C53.1526 27.253 52.6539 27.3041 52.046 27.3041L51.3663 27.2855L50.842 27.267V25.0746L51.3269 25.1141C51.6772 25.1141 51.9672 25.0816 52.1992 25.0166C52.4195 24.9517 52.6121 24.8102 52.7815 24.5898C52.858 24.4599 52.923 24.3183 52.9763 24.1629C53.0413 23.9564 53.0993 23.7476 53.1503 23.5412L49.6171 13.6629L49.6194 13.6583Z" fill="#008BF7"/>
<path d="M60.9917 12.786H63.6109V14.3009C64.3092 13.1108 65.3578 12.5145 66.7544 12.5145C67.4921 12.5145 68.1394 12.6514 68.6961 12.9228C69.239 13.2082 69.6543 13.6026 69.9373 14.106C70.2227 14.6234 70.3642 15.2451 70.3642 15.9689V23.1305H67.6267V16.8806C67.6267 16.2334 67.5223 15.73 67.3158 15.3657C67.1093 15.0038 66.6175 14.8229 65.8403 14.8229C65.0631 14.8229 64.5667 15.0549 64.2303 15.5212C63.8939 15.9991 63.7245 16.5628 63.7245 17.2101V23.1305H60.987V12.786H60.9917Z" fill="#008BF7"/>
<path d="M72.8325 18.0847C73.4009 17.5534 74.1201 17.224 74.9878 17.0941L77.491 16.7252C78.0849 16.6347 78.3841 16.3819 78.3841 15.9689C78.3841 15.1268 77.8413 14.7069 76.7532 14.7069C76.2104 14.7069 75.7835 14.8043 75.4726 14.9969C75.1873 15.2033 75.0133 15.5931 74.9483 16.1615H72.3291C72.4057 15.3193 72.6145 14.635 72.9509 14.1037C73.3012 13.5608 73.7791 13.1664 74.3869 12.9205C74.6723 12.8045 75.0272 12.7071 75.4541 12.6305C75.867 12.554 76.3008 12.5145 76.7555 12.5145C77.9967 12.5145 78.9363 12.6885 79.5696 13.0388C80.2169 13.4008 80.6252 13.8091 80.7922 14.2614C80.9592 14.6883 81.0451 15.1036 81.0451 15.5026V23.1305H78.7344C78.7205 23.0656 78.695 22.982 78.6579 22.8776C78.6184 22.7477 78.5929 22.6642 78.5813 22.6248C78.5048 22.3278 78.4653 22.0889 78.4653 21.9079C78.18 22.2188 77.883 22.4763 77.5722 22.6851C77.2497 22.8916 76.8994 23.0679 76.5235 23.2094C76.1477 23.3393 75.7209 23.4043 75.243 23.4043C74.7372 23.4043 74.2338 23.3138 73.728 23.1328C73.2501 22.9658 72.8418 22.641 72.5054 22.1631C72.1551 21.7107 71.9811 21.1354 71.9811 20.4348C71.9811 19.4001 72.2665 18.6159 72.8349 18.087L72.8325 18.0847ZM77.3935 18.5115L76.092 18.783C75.6907 18.8735 75.3613 19.0289 75.1014 19.2493C74.8416 19.4813 74.714 19.8316 74.714 20.2979C74.714 20.6737 74.837 20.9591 75.0829 21.1516C75.3288 21.3581 75.6466 21.4625 76.034 21.4625C76.2289 21.4625 76.389 21.4439 76.5189 21.4045C76.6604 21.379 76.8483 21.321 77.0827 21.2305C77.433 21.089 77.7369 20.8686 77.9944 20.5693C78.2519 20.2468 78.3818 19.8641 78.3818 19.4233V18.0847C78.1498 18.2796 77.8181 18.4211 77.3912 18.5115H77.3935Z" fill="#008BF7"/>
<path d="M94.6677 15.8923C94.8742 15.2195 95.2036 14.6303 95.6583 14.1268C96.0991 13.6234 96.6489 13.2267 97.3078 12.9437C97.955 12.6583 98.7368 12.5168 99.6555 12.5168C100.498 12.5168 101.228 12.6398 101.848 12.8857C102.507 13.1455 103.057 13.5144 103.497 13.9923C103.95 14.4841 104.3 15.0525 104.546 15.6997C104.792 16.3586 104.915 17.1172 104.915 17.9709C104.915 19.0311 104.713 19.9638 104.314 20.7665C103.899 21.5947 103.305 22.235 102.528 22.6874C101.739 23.1653 100.781 23.4065 99.6555 23.4065C98.4399 23.4065 97.4307 23.1421 96.628 22.6108C95.8392 22.0934 95.2639 21.4207 94.8997 20.5925C94.5238 19.7642 94.3359 18.892 94.3359 17.9733C94.3359 17.2866 94.445 16.5952 94.6654 15.8969L94.6677 15.8923ZM101.597 15.7369C101.221 15.129 100.574 14.8251 99.6555 14.8251C98.7368 14.8251 98.0455 15.129 97.6952 15.7369C97.3333 16.3447 97.1523 17.0894 97.1523 17.9686C97.1523 18.8479 97.3333 19.5531 97.6952 20.161C98.0455 20.7943 98.6974 21.1121 99.6555 21.1121C100.614 21.1121 101.233 20.7943 101.597 20.161C101.948 19.5392 102.122 18.8084 102.122 17.9686C102.122 17.1288 101.948 16.3586 101.597 15.7369Z" fill="#008BF7"/>
<path d="M106.952 14.7462H105.555V12.7859H106.952V10.0112H109.689V12.7859H111.36V14.7462H109.689V20.3558C109.689 20.7061 109.747 20.9311 109.863 21.0355C109.993 21.1399 110.297 21.191 110.775 21.191L111.086 21.1724L111.357 21.1538V23.2116L110.736 23.2302L110.095 23.2487H109.726C109.003 23.2487 108.425 23.1583 107.998 22.9773C107.571 22.7963 107.293 22.5435 107.163 22.221C107.021 21.8707 106.949 21.4717 106.949 21.017V14.7485L106.952 14.7462Z" fill="#008BF7"/>
<path d="M92.7259 15.5026V9.17616H90.0279L89.9884 14.1454C89.2762 13.0574 88.267 12.5145 86.9609 12.5145C86.2626 12.5145 85.6479 12.656 85.1166 12.9414C84.5737 13.2268 84.1144 13.6211 83.7386 14.1246C83.3882 14.6164 83.1238 15.1848 82.9428 15.832C82.7619 16.5187 82.6714 17.1985 82.6714 17.8689C82.6714 18.4651 82.7224 19.0219 82.8268 19.5369C82.9173 20.0149 83.0658 20.4812 83.2722 20.9335C83.6481 21.7478 84.1654 22.3626 84.8243 22.7779C85.4576 23.1839 86.1814 23.3903 86.9888 23.3973C87.5316 23.3903 87.7729 23.3254 88.1255 23.2047C88.5014 23.0632 88.8493 22.8869 89.1741 22.6804C89.4827 22.4763 89.7773 22.2188 90.0603 21.9102C90.0603 21.9079 90.065 21.9056 90.065 21.9033C90.065 22.0842 90.1044 22.3232 90.181 22.6201C90.1949 22.6596 90.2204 22.7431 90.2575 22.873C90.297 22.9774 90.3225 23.0609 90.3341 23.1259H92.7213V15.5026H92.7259ZM89.8933 19.6761C89.7124 20.1424 89.4409 20.4974 89.079 20.7433C88.7171 21.0147 88.2647 21.1516 87.7195 21.1516C86.9308 21.1516 86.3601 20.8291 86.0121 20.1819C85.6618 19.5346 85.4878 18.8224 85.4878 18.0476C85.4878 17.1149 85.6687 16.3517 86.0306 15.7578C86.3925 15.1639 86.9818 14.8646 87.7961 14.8646C89.362 14.8646 90.1439 15.9782 90.1439 18.203C90.1439 18.7598 90.0603 19.2516 89.891 19.6785L89.8933 19.6761Z" fill="#008BF7"/>
<path d="M48.1625 15.5026V9.17616H45.4644L45.425 14.1454C44.7128 13.0574 43.7036 12.5145 42.3975 12.5145C41.6992 12.5145 41.0844 12.656 40.5531 12.9414C40.0103 13.2268 39.5509 13.6211 39.1751 14.1246C38.8248 14.6164 38.5603 15.1848 38.3794 15.832C38.1984 16.5187 38.1079 17.1985 38.1079 17.8689C38.1079 18.4651 38.159 19.0219 38.2634 19.5369C38.3539 20.0149 38.5023 20.4812 38.7088 20.9335C39.0846 21.7478 39.602 22.3626 40.2608 22.7779C40.8942 23.1839 41.618 23.3903 42.4253 23.3973C42.9682 23.3903 43.2095 23.3254 43.5621 23.2047C43.9379 23.0632 44.2859 22.8869 44.6107 22.6804C44.9192 22.4763 45.2139 22.2188 45.4969 21.9102C45.4969 21.9079 45.5015 21.9056 45.5015 21.9033C45.5015 22.0842 45.541 22.3232 45.6175 22.6201C45.6315 22.6596 45.657 22.7431 45.6941 22.873C45.7335 22.9774 45.7591 23.0609 45.7707 23.1259H48.1579V15.5026H48.1625ZM45.3299 19.6761C45.1489 20.1424 44.8775 20.4974 44.5156 20.7433C44.1537 21.0147 43.7013 21.1516 43.1561 21.1516C42.3673 21.1516 41.7966 20.8291 41.4486 20.1819C41.0983 19.5346 40.9243 18.8224 40.9243 18.0476C40.9243 17.1149 41.1053 16.3517 41.4672 15.7578C41.8291 15.1639 42.4184 14.8646 43.2327 14.8646C44.7986 14.8646 45.5804 15.9782 45.5804 18.203C45.5804 18.7598 45.4969 19.2516 45.3275 19.6785L45.3299 19.6761Z" fill="#008BF7"/>
</svg>
