<svg width="120" height="32" viewBox="0 0 120 32" fill="none" xmlns="http://www.w3.org/2000/svg">
<path d="M35.8273 9.64678C36.0532 9.22994 36.379 8.87457 36.7763 8.61203L43.4426 4L36.6121 15.1901C36.6121 15.1901 36.0153 14.1909 35.7826 13.6853C35.4925 13.0496 35.3463 12.3587 35.354 11.6611C35.3617 10.9635 35.5233 10.276 35.8273 9.64678ZM33.0761 17.366C33.1513 18.4361 33.4565 19.478 33.9711 20.4217C34.4858 21.3656 35.198 22.1894 36.0601 22.8384L43.4336 27.9323C43.4336 27.9323 38.8203 21.3454 34.9292 14.791C34.5352 14.0985 34.2704 13.3414 34.1473 12.5559C34.0929 12.2003 34.0929 11.8384 34.1473 11.4827C34.0459 11.669 33.8489 12.0504 33.8489 12.0504C33.4544 12.8476 33.1857 13.7001 33.0522 14.5781C32.9754 15.5063 32.9834 16.4393 33.0761 17.366ZM51.8754 18.2529C51.6366 17.7474 51.0458 16.7481 51.0458 16.7481L44.2274 27.9323L50.8936 23.3232C51.2909 23.0607 51.6167 22.7054 51.8426 22.2885C52.1467 21.6593 52.3082 20.9717 52.316 20.2742C52.3237 19.5766 52.1774 18.8857 51.8873 18.25L51.8754 18.2529ZM54.5819 14.5692C54.5066 13.4992 54.2014 12.4573 53.6869 11.5136C53.1722 10.5698 52.46 9.74583 51.5978 9.09689L44.2363 4C44.2363 4 48.8466 10.5869 52.7408 17.1413C53.1337 17.834 53.3974 18.5911 53.5196 19.3764C53.5741 19.7321 53.5741 20.0939 53.5196 20.4496C53.621 20.2633 53.818 19.8819 53.818 19.8819C54.2125 19.0847 54.4813 18.2322 54.6147 17.3542C54.6925 16.4261 54.6856 15.4931 54.5939 14.5663L54.5819 14.5692Z" fill="white"/>
<path d="M66.8089 20.9755V19.054H62.2604V16.63H66.3778V14.812H62.2604V12.4175H66.8089V10.4961H60.2092V20.9755H66.8089Z" fill="white"/>
<path d="M77.8099 20.9755V10.4961H75.7587V17.4281L71.3737 10.4961H68.8171V20.9755H70.8684V13.5409L75.6546 20.9755H77.8099Z" fill="white"/>
<path d="M87.3896 12.994C87.1517 11.8116 86.1707 10.2744 83.6141 10.2744C81.6222 10.2744 79.9426 11.6933 79.9426 13.5556C79.9426 15.1372 81.0277 16.2162 82.7073 16.5561L84.1789 16.8517C84.9964 17.0143 85.4572 17.4873 85.4572 18.0933C85.4572 18.8323 84.8478 19.3792 83.7479 19.3792C82.2614 19.3792 81.5331 18.448 81.4439 17.4134L79.5413 17.9159C79.7048 19.4088 80.9385 21.1972 83.733 21.1972C86.1855 21.1972 87.5382 19.5713 87.5382 17.9602C87.5382 16.4822 86.5125 15.2406 84.5951 14.8711L83.1236 14.5903C82.3506 14.4425 81.979 13.9843 81.979 13.4079C81.979 12.7132 82.633 12.0776 83.6289 12.0776C84.9667 12.0776 85.4423 12.9792 85.5464 13.5556L87.3896 12.994Z" fill="white"/>
</svg>
