<svg width="120" height="32" viewBox="0 0 120 32" fill="none" xmlns="http://www.w3.org/2000/svg">
<path d="M34.0222 18.3001C34.0205 18.4046 33.9774 18.5042 33.9025 18.5771C33.8275 18.6499 33.7268 18.6902 33.6222 18.689H26.2556C26.4444 20.5112 27.8111 22.1779 29.7444 22.1779C31.0667 22.1779 32.0444 21.6779 32.7778 20.6223C32.8119 20.5669 32.8592 20.5206 32.9153 20.4877C32.9715 20.4548 33.0349 20.4361 33.1 20.4334C33.1485 20.4321 33.1968 20.4406 33.2419 20.4585C33.287 20.4765 33.328 20.5034 33.3623 20.5378C33.3967 20.5721 33.4236 20.6131 33.4416 20.6582C33.4595 20.7033 33.4681 20.7516 33.4667 20.8001C33.4669 20.8671 33.4476 20.9328 33.4111 20.989C32.6667 22.2779 31.1889 22.9112 29.7444 22.9112C27.2667 22.9112 25.4889 20.689 25.4889 18.3223C25.4889 15.9557 27.2556 13.7334 29.7444 13.7334C32.2333 13.7334 34.0111 15.9334 34.0222 18.3001ZM33.2333 17.9557C33.0778 16.1334 31.6778 14.4668 29.7444 14.4668C27.8111 14.4668 26.4444 16.1334 26.2556 17.9557H33.2333Z" fill="white"/>
<path d="M42.9778 13.9112C43.0741 13.914 43.1658 13.9535 43.234 14.0217C43.3021 14.0899 43.3417 14.1815 43.3444 14.2779C43.3458 14.3264 43.3373 14.3747 43.3193 14.4198C43.3014 14.4649 43.2745 14.5059 43.2401 14.5402C43.2058 14.5746 43.1648 14.6015 43.1197 14.6195C43.0746 14.6374 43.0263 14.6459 42.9778 14.6446H41V22.4112C40.9991 22.5082 40.9602 22.601 40.8916 22.6695C40.8231 22.7381 40.7303 22.777 40.6333 22.7779C40.537 22.7751 40.4453 22.7356 40.3772 22.6674C40.309 22.5992 40.2695 22.5076 40.2667 22.4112V14.6446H38.3667C38.3181 14.6459 38.2698 14.6374 38.2247 14.6195C38.1796 14.6015 38.1387 14.5746 38.1043 14.5402C38.07 14.5059 38.043 14.4649 38.0251 14.4198C38.0072 14.3747 37.9986 14.3264 38 14.2779C38.0009 14.1809 38.0398 14.0882 38.1084 14.0196C38.1769 13.951 38.2697 13.9121 38.3667 13.9112H40.2667V11.0779C40.2669 10.984 40.3005 10.8933 40.3616 10.822C40.4227 10.7507 40.5073 10.7035 40.6 10.689C40.6518 10.6821 40.7046 10.6865 40.7546 10.7019C40.8046 10.7172 40.8506 10.7432 40.8897 10.778C40.9287 10.8128 40.9598 10.8557 40.9807 10.9036C41.0017 10.9515 41.0121 11.0034 41.0111 11.0557V13.9112H42.9778Z" fill="white"/>
<path d="M55.0333 17.6668V22.3668C55.0305 22.4631 54.991 22.5548 54.9228 22.623C54.8547 22.6911 54.763 22.7306 54.6667 22.7334C54.6181 22.7348 54.5698 22.7263 54.5247 22.7083C54.4796 22.6904 54.4387 22.6634 54.4043 22.6291C54.37 22.5948 54.343 22.5538 54.3251 22.5087C54.3072 22.4636 54.2986 22.4153 54.3 22.3668V17.6668C54.3 16.0779 53.4 14.5001 51.6333 14.5001C49.3667 14.5001 48.3889 16.4779 48.5222 18.5112C48.5222 18.5668 48.5444 18.8001 48.5444 18.8334V22.3557C48.5443 22.4495 48.5106 22.5403 48.4495 22.6116C48.3884 22.6829 48.3039 22.73 48.2111 22.7446C48.1593 22.7514 48.1065 22.7471 48.0566 22.7317C48.0066 22.7163 47.9605 22.6903 47.9214 22.6555C47.8824 22.6207 47.8514 22.5779 47.8304 22.53C47.8094 22.4821 47.7991 22.4302 47.8 22.3779V6.92233C47.8009 6.82535 47.8398 6.7326 47.9084 6.66402C47.9769 6.59544 48.0697 6.55653 48.1667 6.55566C48.263 6.55846 48.3547 6.59799 48.4228 6.66615C48.491 6.73432 48.5305 6.82597 48.5333 6.92233V15.6557C49.1667 14.5223 50.3 13.7557 51.6222 13.7557C53.8 13.7557 55.0333 15.6557 55.0333 17.6668Z" fill="white"/>
<path d="M68.2667 18.3001C68.2649 18.4046 68.2219 18.5042 68.1469 18.5771C68.0719 18.6499 67.9712 18.6902 67.8667 18.689H60.5C60.6889 20.5112 62.0556 22.1779 63.9889 22.1779C65.3111 22.1779 66.2889 21.6779 67.0222 20.6223C67.0564 20.5669 67.1036 20.5206 67.1598 20.4877C67.216 20.4548 67.2794 20.4361 67.3444 20.4334C67.393 20.4321 67.4413 20.4406 67.4864 20.4585C67.5315 20.4765 67.5725 20.5034 67.6068 20.5378C67.6411 20.5721 67.6681 20.6131 67.686 20.6582C67.704 20.7033 67.7125 20.7516 67.7111 20.8001C67.7114 20.8671 67.6921 20.9328 67.6556 20.989C66.9111 22.2779 65.4333 22.9112 63.9889 22.9112C61.5111 22.9112 59.7333 20.689 59.7333 18.3223C59.7333 15.9557 61.5 13.7334 63.9889 13.7334C66.4556 13.7334 68.2556 15.9334 68.2667 18.3001ZM67.4667 17.9557C67.3111 16.1334 65.9111 14.4668 63.9778 14.4668C62.0444 14.4668 60.6778 16.1334 60.4889 17.9557H67.4667Z" fill="white"/>
<path d="M77.3222 14.2557C77.3293 14.3543 77.297 14.4517 77.2325 14.5267C77.1679 14.6016 77.0764 14.648 76.9778 14.6557C74.8111 14.9779 73.8333 16.7446 73.8333 18.8001V22.3223C73.8331 22.4162 73.7995 22.507 73.7384 22.5782C73.6773 22.6495 73.5928 22.6967 73.5 22.7112C73.4482 22.7181 73.3954 22.7137 73.3454 22.6984C73.2954 22.683 73.2494 22.657 73.2103 22.6222C73.1713 22.5874 73.1402 22.5446 73.1193 22.4966C73.0983 22.4487 73.088 22.3968 73.0889 22.3446V14.3112C73.0891 14.2173 73.1227 14.1266 73.1838 14.0553C73.2449 13.984 73.3295 13.9369 73.4222 13.9223C73.4741 13.9154 73.5268 13.9198 73.5768 13.9352C73.6268 13.9506 73.6729 13.9765 73.7119 14.0113C73.7509 14.0462 73.782 14.089 73.8029 14.1369C73.8239 14.1848 73.8343 14.2367 73.8333 14.289V15.9223C74.4444 14.889 75.6556 13.9112 76.9222 13.9112C77.1111 13.9112 77.3222 14.0446 77.3222 14.2557Z" fill="white"/>
<path d="M89.4333 18.3001C89.4316 18.4046 89.3885 18.5042 89.3136 18.5771C89.2386 18.6499 89.1379 18.6902 89.0333 18.689H81.6667C81.8556 20.5112 83.2222 22.1779 85.1556 22.1779C86.4778 22.1779 87.4556 21.6779 88.1889 20.6223C88.223 20.5669 88.2703 20.5206 88.3265 20.4877C88.3826 20.4548 88.446 20.4361 88.5111 20.4334C88.5596 20.4321 88.6079 20.4406 88.653 20.4585C88.6982 20.4765 88.7391 20.5034 88.7735 20.5378C88.8078 20.5721 88.8347 20.6131 88.8527 20.6582C88.8706 20.7033 88.8792 20.7516 88.8778 20.8001C88.878 20.8671 88.8587 20.9328 88.8222 20.989C88.0778 22.2779 86.6 22.9112 85.1556 22.9112C82.6778 22.9112 80.9 20.689 80.9 18.3223C80.9 15.9557 82.6667 13.7334 85.1556 13.7334C87.6444 13.7334 89.4222 15.9334 89.4333 18.3001ZM88.6444 17.9557C88.4889 16.1334 87.0889 14.4668 85.1556 14.4668C83.2222 14.4668 81.8556 16.1334 81.6667 17.9557H88.6444Z" fill="white"/>
<path d="M101.344 14.3446V22.4112C101.342 22.5076 101.302 22.5992 101.234 22.6674C101.166 22.7356 101.074 22.7751 100.978 22.7779C100.929 22.7793 100.881 22.7707 100.836 22.7528C100.791 22.7348 100.75 22.7079 100.715 22.6736C100.681 22.6392 100.654 22.5983 100.636 22.5532C100.618 22.508 100.61 22.4597 100.611 22.4112V20.8779C100 22.089 98.9222 22.9668 97.5444 22.9668C95.3556 22.9668 94.1444 21.0668 94.1444 19.0557V14.3334C94.1453 14.2365 94.1842 14.1437 94.2528 14.0751C94.3214 14.0066 94.4141 13.9676 94.5111 13.9668C94.6075 13.9696 94.6991 14.0091 94.7673 14.0773C94.8355 14.1454 94.875 14.2371 94.8778 14.3334V19.0557C94.8778 20.6446 95.7778 22.2223 97.5444 22.2223C100.022 22.2223 100.611 19.9001 100.611 17.3334V14.3223C100.612 14.2629 100.627 14.2045 100.655 14.1521C100.683 14.0996 100.723 14.0547 100.772 14.0209C100.821 13.9872 100.877 13.9657 100.936 13.9582C100.995 13.9507 101.055 13.9575 101.111 13.9779C101.181 14.0103 101.24 14.0621 101.281 14.1271C101.323 14.1921 101.345 14.2675 101.344 14.3446Z" fill="white"/>
<path d="M120 17.6334V22.3557C119.997 22.452 119.958 22.5437 119.89 22.6118C119.821 22.68 119.73 22.7195 119.633 22.7223C119.585 22.7237 119.537 22.7152 119.491 22.6972C119.446 22.6793 119.405 22.6523 119.371 22.618C119.337 22.5837 119.31 22.5427 119.292 22.4976C119.274 22.4525 119.265 22.4042 119.267 22.3557V17.6334C119.267 16.0446 118.367 14.489 116.6 14.489C114.378 14.489 113.533 16.8668 113.533 18.7112V22.3557C113.531 22.452 113.491 22.5437 113.423 22.6118C113.355 22.68 113.263 22.7195 113.167 22.7223C113.118 22.7237 113.07 22.7152 113.025 22.6972C112.98 22.6793 112.939 22.6523 112.904 22.618C112.87 22.5837 112.843 22.5427 112.825 22.4976C112.807 22.4525 112.799 22.4042 112.8 22.3557V17.6334C112.8 16.0446 111.9 14.489 110.133 14.489C107.889 14.489 106.967 16.2557 107.044 18.6112C107.044 18.6668 107.067 18.7668 107.044 18.8001V22.3446C107.044 22.4384 107.011 22.5292 106.949 22.6005C106.888 22.6717 106.804 22.7189 106.711 22.7334C106.659 22.7403 106.607 22.7359 106.557 22.7206C106.507 22.7052 106.46 22.6792 106.421 22.6444C106.382 22.6096 106.351 22.5668 106.33 22.5189C106.309 22.4709 106.299 22.4191 106.3 22.3668V14.3112C106.3 14.2173 106.334 14.1266 106.395 14.0553C106.456 13.984 106.541 13.9369 106.633 13.9223C106.685 13.9154 106.738 13.9198 106.788 13.9352C106.838 13.9506 106.884 13.9765 106.923 14.0113C106.962 14.0462 106.993 14.089 107.014 14.1369C107.035 14.1848 107.045 14.2367 107.044 14.289V15.6334C107.678 14.5001 108.811 13.7557 110.133 13.7557C111.633 13.7557 112.8 14.7112 113.278 16.1001C113.889 14.7223 115.078 13.7557 116.6 13.7557C118.767 13.7557 120 15.6334 120 17.6334Z" fill="white"/>
<path d="M9.41615 30.9735V23.4601L0.132812 18.0249L9.41615 30.9735Z" fill="#F0CDC2"/>
<path fill-rule="evenodd" clip-rule="evenodd" d="M0.11311 18.0072C0.121529 17.9979 0.135259 17.9958 0.146043 18.0022L9.42939 23.4374C9.4375 23.4421 9.44248 23.4508 9.44248 23.4602V30.9736C9.44248 30.9851 9.43506 30.9953 9.42411 30.9988C9.41317 31.0023 9.4012 30.9984 9.3945 30.989L0.111159 18.0404C0.103877 18.0303 0.104691 18.0164 0.11311 18.0072ZM0.226694 18.1107L9.38954 30.8913V23.4754L0.226694 18.1107Z" fill="#1616B4"/>
<path d="M9.44727 30.9735V23.4601L18.7305 18.0249L9.44727 30.9735Z" fill="#C9B3F5"/>
<path fill-rule="evenodd" clip-rule="evenodd" d="M18.7501 18.0072C18.7585 18.0164 18.7593 18.0303 18.752 18.0404L9.46876 30.989C9.46206 30.9984 9.45009 31.0023 9.43915 30.9988C9.4282 30.9953 9.42078 30.9851 9.42078 30.9736V23.4602C9.42078 23.4508 9.42576 23.4421 9.43387 23.4374L18.7172 18.0022C18.7279 17.9958 18.7417 17.9979 18.7501 18.0072ZM9.47371 23.4754V30.8913L18.6365 18.1107L9.47371 23.4754Z" fill="#1616B4"/>
<path d="M9.41631 21.5925V12.0034L0.0264893 16.2131L9.41631 21.5925Z" fill="#88AAF1"/>
<path fill-rule="evenodd" clip-rule="evenodd" d="M9.43067 11.9813C9.43821 11.9862 9.44275 11.9945 9.44275 12.0035V21.5926C9.44275 21.6021 9.43773 21.6108 9.42956 21.6155C9.42139 21.6203 9.41132 21.6203 9.40313 21.6156L0.013311 16.2361C0.00467156 16.2312 -0.000459251 16.2218 3.24261e-05 16.2119C0.000524103 16.2019 0.00655508 16.1931 0.0156406 16.189L9.40546 11.9794C9.41365 11.9757 9.42314 11.9764 9.43067 11.9813ZM0.0847425 16.216L9.38982 21.547V12.0444L0.0847425 16.216Z" fill="#1616B4"/>
<path d="M9.44727 21.5925V12.0034L18.8371 16.2131L9.44727 21.5925Z" fill="#C9B3F5"/>
<path fill-rule="evenodd" clip-rule="evenodd" d="M9.43286 11.9813C9.44039 11.9764 9.44988 11.9757 9.45807 11.9794L18.8479 16.189C18.857 16.1931 18.863 16.2019 18.8635 16.2119C18.864 16.2218 18.8589 16.2312 18.8503 16.2361L9.4604 21.6156C9.45221 21.6203 9.44214 21.6203 9.43397 21.6155C9.4258 21.6108 9.42078 21.6021 9.42078 21.5926V12.0035C9.42078 11.9945 9.42532 11.9862 9.43286 11.9813ZM9.47371 12.0444V21.547L18.7788 16.216L9.47371 12.0444Z" fill="#1616B4"/>
<path d="M0.0264893 16.213L9.41628 1.02637V12.0034L0.0264893 16.213Z" fill="#F0CDC2"/>
<path fill-rule="evenodd" clip-rule="evenodd" d="M9.42362 1.00101C9.435 1.00424 9.44285 1.01464 9.44285 1.02647V12.0035C9.44285 12.0139 9.43673 12.0234 9.42721 12.0276L0.0374186 16.2373C0.0268093 16.242 0.0143383 16.2393 0.00667845 16.2306C-0.000981415 16.2218 -0.00203642 16.2091 0.00407793 16.1992L9.39387 1.01255C9.40009 1.00249 9.41224 0.997776 9.42362 1.00101ZM0.0944568 16.1537L9.38991 11.9864V1.11961L0.0944568 16.1537Z" fill="#1616B4"/>
<path d="M18.8371 16.213L9.44727 1.02637V12.0034L18.8371 16.213Z" fill="#B8FAF6"/>
<path fill-rule="evenodd" clip-rule="evenodd" d="M9.44001 1.00101C9.45139 0.997776 9.46354 1.00249 9.46976 1.01255L18.8596 16.1992C18.8657 16.2091 18.8646 16.2218 18.857 16.2306C18.8493 16.2393 18.8368 16.242 18.8262 16.2373L9.43642 12.0276C9.4269 12.0234 9.42078 12.0139 9.42078 12.0035V1.02647C9.42078 1.01464 9.42863 1.00424 9.44001 1.00101ZM9.47371 1.11961V11.9864L18.7692 16.1537L9.47371 1.11961Z" fill="#1616B4"/>
</svg>
