<svg width="120" height="32" viewBox="0 0 120 32" fill="none" xmlns="http://www.w3.org/2000/svg">
<path d="M35.951 14.2834C35.9063 14.2834 35.8624 14.2715 35.8241 14.2486C35.7857 14.2258 35.7542 14.1929 35.733 14.1536L33.7168 10.5813C33.6971 10.5526 33.6836 10.5202 33.6772 10.486C33.6707 10.4518 33.6714 10.4166 33.6792 10.3827C33.6871 10.3488 33.7019 10.3169 33.7227 10.2891C33.7435 10.2612 33.7699 10.2379 33.8002 10.2207C33.8305 10.2036 33.864 10.1929 33.8986 10.1893C33.9333 10.1858 33.9683 10.1895 34.0014 10.2001C34.0346 10.2108 34.0651 10.2282 34.0912 10.2513C34.1172 10.2744 34.1382 10.3026 34.1528 10.3342L36.169 13.9107C36.1853 13.9392 36.1956 13.9707 36.1996 14.0033C36.2035 14.0359 36.2009 14.0689 36.192 14.1005C36.183 14.1321 36.1678 14.1615 36.1473 14.1872C36.1268 14.2129 36.1014 14.2342 36.0725 14.25C36.0363 14.2731 35.9939 14.2848 35.951 14.2834ZM39.711 18.4504L36.4162 23.9408C36.4089 23.9562 36.399 23.9705 36.3869 23.9827L31.4281 31.8811C31.4056 31.9175 31.3741 31.9474 31.3367 31.9683C31.2993 31.989 31.2572 32 31.2144 32C31.1715 32 31.1294 31.989 31.092 31.9683C31.0546 31.9474 31.0231 31.9175 31.0006 31.8811L22.6381 18.5592C22.2299 17.9112 22.0092 17.1628 22.0003 16.397C21.9914 15.6313 22.1947 14.878 22.5878 14.2206L30.9964 0.124089C31.0217 0.080991 31.0593 0.0464111 31.1044 0.0247737C31.1495 0.0031362 31.2 -0.00457556 31.2495 0.00261738C31.299 0.00981032 31.3452 0.0315818 31.3823 0.065155C31.4193 0.0987283 31.4455 0.142576 31.4575 0.191095L39.7571 14.2081C40.1419 14.8506 40.3413 15.5871 40.3331 16.3358C40.325 17.0845 40.1097 17.8164 39.711 18.4504ZM32.9916 18.7352L34.5426 16.1889C34.646 16.0203 34.7032 15.8274 34.7084 15.6295C34.7135 15.4318 34.6665 15.2362 34.5719 15.0624L31.4659 9.84843V11.4524L33.3102 14.673C33.4402 14.8996 33.5075 15.1568 33.5053 15.418C33.5031 15.6792 33.4314 15.9352 33.2976 16.1596L32.8785 16.8591C32.8562 16.8967 32.8242 16.9278 32.7859 16.9492C32.7476 16.9706 32.7043 16.9813 32.6605 16.9805C32.6162 16.9818 32.5725 16.9702 32.5348 16.947C32.506 16.9306 32.4809 16.9086 32.4609 16.8823C32.4408 16.856 32.4263 16.8258 32.4181 16.7938C32.4099 16.7619 32.4082 16.7285 32.4131 16.6958C32.418 16.6632 32.4294 16.6318 32.4467 16.6035L32.8659 15.9C32.9537 15.7527 33.0008 15.5847 33.0022 15.4133C33.0037 15.2417 32.9596 15.073 32.8743 14.9242L31.4659 12.4659V14.9871C31.4644 15.9865 31.7686 16.9626 32.3377 17.7845L32.9916 18.7352ZM35.8881 23.8319L31.9228 18.0693C31.2956 17.1637 30.9607 16.0882 30.9629 14.9871V1.16688L23.0196 14.4803C22.6739 15.0577 22.4952 15.7196 22.5034 16.3923C22.5115 17.0651 22.7062 17.7224 23.0657 18.2912L31.2144 31.2738L35.8881 23.8319ZM39.3253 14.4677L31.4659 1.19201V2.59496L36.3367 11.1844C36.3531 11.213 36.3638 11.2445 36.3682 11.2773C36.3725 11.31 36.3703 11.3433 36.3617 11.3752C36.3532 11.4071 36.3384 11.437 36.3183 11.4632C36.2981 11.4893 36.2731 11.5113 36.2444 11.5278C36.2056 11.5486 36.1627 11.5601 36.1187 11.5613C36.0745 11.5613 36.0311 11.5497 35.9928 11.5277C35.9545 11.5056 35.9228 11.4739 35.9007 11.4357L31.4659 3.61262V5.6647L33.6623 9.41709C33.6796 9.44527 33.691 9.47664 33.6959 9.50932C33.7009 9.54201 33.6992 9.57535 33.691 9.60737C33.6828 9.6394 33.6682 9.66945 33.6482 9.69574C33.6281 9.72205 33.603 9.74406 33.5743 9.76048C33.5364 9.78327 33.4928 9.79489 33.4485 9.79399C33.4047 9.79488 33.3614 9.7841 33.3231 9.76276C33.2848 9.74142 33.2529 9.71028 33.2306 9.67255L31.4659 6.65724V8.87684L35.0037 14.807V14.8153C35.141 15.0678 35.2098 15.3518 35.2031 15.6391C35.1966 15.9263 35.1147 16.2069 34.966 16.4528L33.2935 19.1917L34.0438 20.2764L36.3491 16.5198C36.4917 16.2852 36.6971 15.8288 36.4456 15.4017L36.2402 15.0456C36.2237 15.0171 36.2129 14.9855 36.2086 14.9527C36.2043 14.92 36.2065 14.8868 36.215 14.8548C36.2237 14.8229 36.2384 14.793 36.2585 14.7668C36.2786 14.7407 36.3038 14.7187 36.3325 14.7023C36.3905 14.67 36.4588 14.6616 36.5229 14.6788C36.5871 14.696 36.6421 14.7375 36.6762 14.7944L36.8816 15.1461C37.1582 15.6278 37.1246 16.2225 36.7767 16.7836L34.3539 20.7286L35.1252 21.8469L38.0511 17.1271C38.2182 16.856 38.3092 16.5448 38.3144 16.2264C38.3195 15.908 38.2387 15.5942 38.0803 15.3178L36.4456 12.4785C36.4123 12.4207 36.4032 12.352 36.4205 12.2877C36.4378 12.2233 36.4801 12.1684 36.5379 12.135C36.5957 12.1017 36.6643 12.0927 36.7288 12.11C36.7933 12.1273 36.8482 12.1694 36.8816 12.2272L38.5163 15.0666C38.7195 15.4217 38.8231 15.8249 38.8164 16.2339C38.8099 16.6429 38.6932 17.0425 38.4785 17.3909L35.4354 22.2992L36.169 23.367L39.2708 18.1866C39.275 18.1866 39.275 18.1866 39.275 18.1824C39.6258 17.6283 39.8162 16.9879 39.8251 16.3322C39.834 15.6765 39.661 15.0312 39.3253 14.4677Z" fill="url(#paint0_linear_32_1841)"/>
<path d="M75.7885 10.7341H75.5272C75.473 10.7341 75.4459 10.707 75.4459 10.6528V7.08126C75.4459 7.02706 75.473 6.99996 75.5272 6.99996H75.7885C75.8427 6.99996 75.8698 7.02706 75.8698 7.08126V8.60862C75.8698 8.64346 75.8892 8.66089 75.9279 8.66089H77.3681C77.4068 8.66089 77.4262 8.64346 77.4262 8.60862V7.08126C77.4262 7.02706 77.4533 6.99996 77.5075 6.99996H77.7688C77.823 6.99996 77.8501 7.02706 77.8501 7.08126V10.6528C77.8501 10.707 77.823 10.7341 77.7688 10.7341H77.5075C77.4533 10.7341 77.4262 10.707 77.4262 10.6528V9.08483C77.4262 9.04998 77.4068 9.03256 77.3681 9.03256H75.9279C75.8892 9.03256 75.8698 9.04998 75.8698 9.08483V10.6528C75.8698 10.707 75.8427 10.7341 75.7885 10.7341Z" fill="white"/>
<path d="M73.8794 10.7341H73.618C73.5638 10.7341 73.5367 10.707 73.5367 10.6528V7.4239C73.5367 7.38906 73.5174 7.37163 73.4786 7.37163H72.6888C72.6308 7.37163 72.6017 7.34453 72.6017 7.29033V7.08126C72.6017 7.02706 72.6308 6.99996 72.6888 6.99996H74.8085C74.8666 6.99996 74.8957 7.02706 74.8957 7.08126V7.29033C74.8957 7.34453 74.8666 7.37163 74.8085 7.37163H74.0187C73.98 7.37163 73.9607 7.38906 73.9607 7.4239V10.6528C73.9607 10.707 73.9336 10.7341 73.8794 10.7341Z" fill="white"/>
<path d="M72.0196 7.08126V10.6528C72.0196 10.707 71.9925 10.7341 71.9383 10.7341H71.677C71.6228 10.7341 71.5956 10.707 71.5956 10.6528V7.08126C71.5956 7.02706 71.6228 6.99996 71.677 6.99996H71.9383C71.9925 6.99996 72.0196 7.02706 72.0196 7.08126Z" fill="white"/>
<path d="M67.9264 10.7341H67.4792C67.425 10.7341 67.3921 10.707 67.3805 10.6528L66.6372 7.08126C66.6256 7.02706 66.6507 6.99996 66.7127 6.99996H67.0263C67.0843 6.99996 67.1153 7.02706 67.1192 7.08126L67.7057 10.2812H67.7406L68.5246 7.07545C68.5362 7.02512 68.5672 6.99996 68.6175 6.99996H68.966C69.0163 6.99996 69.0473 7.02512 69.0589 7.07545L69.8545 10.2812H69.8893L70.4701 7.08707C70.4817 7.02899 70.5146 6.99996 70.5688 6.99996H70.8824C70.9444 6.99996 70.9695 7.02899 70.9579 7.08707L70.2087 10.6528C70.1971 10.707 70.1662 10.7341 70.1158 10.7341H69.6687C69.6145 10.7341 69.5815 10.707 69.5699 10.6528L68.8092 7.53424H68.7859L68.0193 10.6528C68.0077 10.707 67.9767 10.7341 67.9264 10.7341Z" fill="white"/>
<path d="M62.4269 10.7341H62.1713C62.1171 10.7341 62.09 10.707 62.09 10.6528V7.08126C62.09 7.02706 62.1171 6.99996 62.1713 6.99996H62.4094C62.4559 6.99996 62.4869 7.01544 62.5024 7.04642L64.1052 9.86303H64.1284V7.08126C64.1284 7.02706 64.1555 6.99996 64.2098 6.99996H64.4653C64.5195 6.99996 64.5466 7.02706 64.5466 7.08126V10.6528C64.5466 10.707 64.5195 10.7341 64.4653 10.7341H64.2504C64.2078 10.7341 64.1672 10.709 64.1284 10.6586L62.5314 7.87107H62.5082V10.6528C62.5082 10.707 62.4811 10.7341 62.4269 10.7341Z" fill="white"/>
<path d="M61.1423 7.08126V10.6528C61.1423 10.707 61.1152 10.7341 61.061 10.7341H60.7996C60.7454 10.7341 60.7183 10.707 60.7183 10.6528V7.08126C60.7183 7.02706 60.7454 6.99996 60.7996 6.99996H61.061C61.1152 6.99996 61.1423 7.02706 61.1423 7.08126Z" fill="white"/>
<path d="M59.9197 9.05574H58.735C58.6808 9.05574 58.6537 9.02864 58.6537 8.97444V8.78279C58.6537 8.72859 58.6808 8.70149 58.735 8.70149H59.9197C59.9739 8.70149 60.001 8.72859 60.001 8.78279V8.97444C60.001 9.02864 59.9739 9.05574 59.9197 9.05574Z" fill="white"/>
<path d="M55.8426 10.7341H55.5871C55.5329 10.7341 55.5058 10.707 55.5058 10.6528V7.08126C55.5058 7.02706 55.5329 6.99996 55.5871 6.99996H55.8252C55.8716 6.99996 55.9026 7.01544 55.9181 7.04642L57.521 9.86303H57.5442V7.08126C57.5442 7.02706 57.5713 6.99996 57.6255 6.99996H57.881C57.9352 6.99996 57.9623 7.02706 57.9623 7.08126V10.6528C57.9623 10.707 57.9352 10.7341 57.881 10.7341H57.6661C57.6236 10.7341 57.5829 10.709 57.5442 10.6586L55.9471 7.87107H55.9239V10.6528C55.9239 10.707 55.8968 10.7341 55.8426 10.7341Z" fill="white"/>
<path d="M53.7921 10.7341H53.1649C52.8977 10.7341 52.6867 10.6586 52.5319 10.5077C52.3809 10.3567 52.3054 10.1457 52.3054 9.87464V7.85946C52.3054 7.58844 52.3809 7.37744 52.5319 7.22645C52.6867 7.07545 52.8977 6.99996 53.1649 6.99996H53.7921C54.0592 6.99996 54.2683 7.07739 54.4193 7.23225C54.5703 7.38325 54.6458 7.59232 54.6458 7.85946V8.09756C54.6458 8.15564 54.6187 8.18467 54.5645 8.18467H54.3031C54.2489 8.18467 54.2218 8.15564 54.2218 8.09756V7.87688C54.2218 7.54005 54.0612 7.37163 53.7398 7.37163H53.2113C52.89 7.37163 52.7293 7.54005 52.7293 7.87688V9.85722C52.7293 10.194 52.89 10.3625 53.2113 10.3625H53.7398C54.0612 10.3625 54.2218 10.194 54.2218 9.85722V9.20678C54.2218 9.16807 54.2044 9.14871 54.1696 9.14871H53.5946C53.5404 9.14871 53.5133 9.12354 53.5133 9.07321V8.85834C53.5133 8.80414 53.5404 8.77703 53.5946 8.77703H54.5296C54.6071 8.77703 54.6458 8.81769 54.6458 8.89899V9.87464C54.6458 10.1457 54.5703 10.3567 54.4193 10.5077C54.2683 10.6586 54.0592 10.7341 53.7921 10.7341Z" fill="white"/>
<path d="M51.4161 7.08126V10.6528C51.4161 10.707 51.389 10.7341 51.3348 10.7341H51.0734C51.0192 10.7341 50.9921 10.707 50.9921 10.6528V7.08126C50.9921 7.02706 51.0192 6.99996 51.0734 6.99996H51.3348C51.389 6.99996 51.4161 7.02706 51.4161 7.08126Z" fill="white"/>
<path d="M47.7009 9.87447V9.68863C47.7009 9.63443 47.728 9.60733 47.7822 9.60733H48.0436C48.0978 9.60733 48.1249 9.63443 48.1249 9.68863V9.83963C48.1249 10.1881 48.2972 10.3623 48.6417 10.3623H49.1528C49.4974 10.3623 49.6697 10.1842 49.6697 9.82801V9.63056C49.6697 9.3518 49.4393 9.16983 48.9786 9.08466C48.785 9.04981 48.5914 9.00916 48.3978 8.9627C48.2042 8.91624 48.0397 8.82719 47.9042 8.69556C47.7687 8.56005 47.7009 8.37615 47.7009 8.14385V7.85929C47.7009 7.59215 47.7764 7.38308 47.9274 7.23208C48.0823 7.07722 48.2933 6.99979 48.5604 6.99979H49.2051C49.4683 6.99979 49.6774 7.07722 49.8323 7.23208C49.9871 7.38308 50.0646 7.59215 50.0646 7.85929V8.00447C50.0646 8.06255 50.0394 8.09159 49.9891 8.09159H49.7219C49.6716 8.09159 49.6464 8.06255 49.6464 8.00447V7.89994C49.6464 7.54762 49.4741 7.37146 49.1296 7.37146H48.6359C48.2914 7.37146 48.1191 7.55536 48.1191 7.92317V8.15547C48.1191 8.35292 48.2488 8.48843 48.5082 8.56199C48.6243 8.59296 48.7521 8.622 48.8915 8.6491C49.0308 8.67233 49.1702 8.70524 49.3096 8.74783C49.4528 8.78654 49.5825 8.83687 49.6987 8.89882C49.8148 8.95689 49.9078 9.04788 49.9774 9.17177C50.051 9.29179 50.0878 9.43891 50.0878 9.61314V9.87447C50.0878 10.1416 50.0104 10.3526 49.8555 10.5075C49.7006 10.6585 49.4916 10.734 49.2283 10.734H48.5604C48.2972 10.734 48.0881 10.6585 47.9332 10.5075C47.7784 10.3526 47.7009 10.1416 47.7009 9.87447Z" fill="white"/>
<path d="M111.07 14.8345H113.41C113.631 14.8345 113.742 14.9452 113.742 15.1665V24.6678C113.742 24.8891 113.631 24.9998 113.41 24.9998H112.113C111.892 24.9998 111.781 24.8891 111.781 24.6678V17.1743H111.718L110.106 22.4703C110.042 22.6811 109.911 22.7865 109.71 22.7865H108.382C108.182 22.7865 108.05 22.6811 107.987 22.4703L106.343 17.1584H106.28V24.6678C106.28 24.7943 106.259 24.8839 106.216 24.9366C106.174 24.9787 106.085 24.9998 105.948 24.9998H104.651C104.43 24.9998 104.319 24.8891 104.319 24.6678V15.1665C104.319 14.9452 104.43 14.8345 104.651 14.8345H107.007C107.154 14.8345 107.255 14.9083 107.307 15.0558L108.983 20.6365H109.078L110.77 15.0558C110.801 14.9083 110.901 14.8345 111.07 14.8345Z" fill="white"/>
<path d="M100.674 14.8345H102.002C102.234 14.8345 102.35 14.9399 102.35 15.1507V22.4229C102.35 23.245 102.118 23.8826 101.654 24.3358C101.201 24.7785 100.564 24.9998 99.7415 24.9998H98.0025C97.1699 24.9998 96.527 24.7785 96.0738 24.3358C95.6206 23.8931 95.394 23.2555 95.394 22.4229V15.1665C95.394 14.9452 95.5047 14.8345 95.726 14.8345H97.0698C97.2911 14.8345 97.4018 14.9452 97.4018 15.1665V22.328C97.4018 22.6653 97.4703 22.9077 97.6073 23.0553C97.7549 23.1923 97.992 23.2608 98.3187 23.2608H99.4096C99.7468 23.2608 99.984 23.1923 100.121 23.0553C100.269 22.9077 100.342 22.6653 100.342 22.328V15.1665C100.342 14.9452 100.453 14.8345 100.674 14.8345Z" fill="white"/>
<path d="M93.4098 24.9998H88.2402C88.0189 24.9998 87.9082 24.8891 87.9082 24.6678V15.1665C87.9082 14.9452 88.0189 14.8345 88.2402 14.8345H93.4098C93.6206 14.8345 93.726 14.9452 93.726 15.1665V16.2415C93.726 16.4628 93.6206 16.5735 93.4098 16.5735H90.1057C89.9792 16.5735 89.916 16.6315 89.916 16.7474V18.8026C89.916 18.9185 89.9792 18.9765 90.1057 18.9765H92.8091C93.0304 18.9765 93.1411 19.0872 93.1411 19.3085V20.3835C93.1411 20.6048 93.0304 20.7155 92.8091 20.7155H90.1057C89.9792 20.7155 89.916 20.7735 89.916 20.8894V23.0869C89.916 23.2028 89.9792 23.2608 90.1057 23.2608H93.4098C93.6206 23.2608 93.726 23.3714 93.726 23.5928V24.6678C93.726 24.8891 93.6206 24.9998 93.4098 24.9998Z" fill="white"/>
<path d="M80.9385 24.9998H79.5948C79.3734 24.9998 79.2628 24.8891 79.2628 24.6678V15.1665C79.2628 14.9452 79.3734 14.8345 79.5948 14.8345H83.3573C84.1794 14.8345 84.8223 15.0611 85.2861 15.5143C85.7498 15.9675 85.9817 16.6051 85.9817 17.4272V18.6603C85.9817 19.8513 85.5127 20.6417 84.5746 21.0317V21.0949L86.2662 24.6204C86.3611 24.8733 86.2715 24.9998 85.9975 24.9998H84.7169C84.5272 24.9998 84.3902 24.9787 84.3059 24.9366C84.2216 24.8944 84.1531 24.8048 84.1004 24.6678L82.5195 21.253H81.4602C81.3338 21.253 81.2705 21.311 81.2705 21.4269V24.6678C81.2705 24.8891 81.1599 24.9998 80.9385 24.9998ZM81.4444 19.6405H82.9937C83.331 19.6405 83.5787 19.572 83.7368 19.435C83.8949 19.2874 83.9739 19.0555 83.9739 18.7394V17.5063C83.9739 17.1795 83.8949 16.9424 83.7368 16.7948C83.5787 16.6473 83.331 16.5735 82.9937 16.5735H81.4444C81.3285 16.5735 81.2705 16.6315 81.2705 16.7474V19.4666C81.2705 19.5825 81.3285 19.6405 81.4444 19.6405Z" fill="white"/>
<path d="M77.1992 24.9998H72.0296C71.8083 24.9998 71.6976 24.8891 71.6976 24.6678V15.1665C71.6976 14.9452 71.8083 14.8345 72.0296 14.8345H77.1992C77.41 14.8345 77.5154 14.9452 77.5154 15.1665V16.2415C77.5154 16.4628 77.41 16.5735 77.1992 16.5735H73.8951C73.7686 16.5735 73.7054 16.6315 73.7054 16.7474V18.8026C73.7054 18.9185 73.7686 18.9765 73.8951 18.9765H76.5985C76.8198 18.9765 76.9305 19.0872 76.9305 19.3085V20.3835C76.9305 20.6048 76.8198 20.7155 76.5985 20.7155H73.8951C73.7686 20.7155 73.7054 20.7735 73.7054 20.8894V23.0869C73.7054 23.2028 73.7686 23.2608 73.8951 23.2608H77.1992C77.41 23.2608 77.5154 23.3714 77.5154 23.5928V24.6678C77.5154 24.8891 77.41 24.9998 77.1992 24.9998Z" fill="white"/>
<path d="M64.2646 24.9998H62.9208C62.6995 24.9998 62.5888 24.8891 62.5888 24.6678V15.1665C62.5888 14.9452 62.6995 14.8345 62.9208 14.8345H64.2646C64.4859 14.8345 64.5966 14.9452 64.5966 15.1665V18.8816C64.5966 18.9976 64.6598 19.0555 64.7863 19.0555H67.458C67.574 19.0555 67.6319 18.9976 67.6319 18.8816V15.1665C67.6319 14.9452 67.7426 14.8345 67.9639 14.8345H69.3077C69.529 14.8345 69.6397 14.9452 69.6397 15.1665V24.6678C69.6397 24.8891 69.529 24.9998 69.3077 24.9998H67.9639C67.7426 24.9998 67.6319 24.8891 67.6319 24.6678V20.9685C67.6319 20.8525 67.574 20.7946 67.458 20.7946H64.7863C64.6598 20.7946 64.5966 20.8525 64.5966 20.9685V24.6678C64.5966 24.8891 64.4859 24.9998 64.2646 24.9998Z" fill="white"/>
<path d="M58.7255 24.9998H57.3976C57.1657 24.9998 57.0498 24.8891 57.0498 24.6678V16.7474C57.0498 16.6315 56.9918 16.5735 56.8759 16.5735H55.0736C54.8523 16.5735 54.7416 16.4628 54.7416 16.2415V15.1665C54.7416 14.9452 54.8523 14.8345 55.0736 14.8345H61.0495C61.2708 14.8345 61.3815 14.9452 61.3815 15.1665V16.2415C61.3815 16.4628 61.2708 16.5735 61.0495 16.5735H59.2472C59.1208 16.5735 59.0575 16.6315 59.0575 16.7474V24.6678C59.0575 24.8891 58.9469 24.9998 58.7255 24.9998Z" fill="white"/>
<path d="M53.5164 24.9998H48.3469C48.1255 24.9998 48.0149 24.8891 48.0149 24.6678V15.1665C48.0149 14.9452 48.1255 14.8345 48.3469 14.8345H53.5164C53.7272 14.8345 53.8326 14.9452 53.8326 15.1665V16.2415C53.8326 16.4628 53.7272 16.5735 53.5164 16.5735H50.2123C50.0859 16.5735 50.0226 16.6315 50.0226 16.7474V18.8026C50.0226 18.9185 50.0859 18.9765 50.2123 18.9765H52.9157C53.137 18.9765 53.2477 19.0872 53.2477 19.3085V20.3835C53.2477 20.6048 53.137 20.7155 52.9157 20.7155H50.2123C50.0859 20.7155 50.0226 20.7735 50.0226 20.8894V23.0869C50.0226 23.2028 50.0859 23.2608 50.2123 23.2608H53.5164C53.7272 23.2608 53.8326 23.3714 53.8326 23.5928V24.6678C53.8326 24.8891 53.7272 24.9998 53.5164 24.9998Z" fill="white"/>
<defs>
<linearGradient id="paint0_linear_32_1841" x1="29.5389" y1="4.89796" x2="22.1481" y2="37.8088" gradientUnits="userSpaceOnUse">
<stop offset="0.111821" stop-color="#04D2CA"/>
<stop offset="0.816463" stop-color="#6A49E4"/>
</linearGradient>
</defs>
</svg>
