<svg width="120" height="32" viewBox="0 0 120 32" fill="none" xmlns="http://www.w3.org/2000/svg">
<path fill-rule="evenodd" clip-rule="evenodd" d="M79.1118 17.0957C78.755 18.3913 78.8176 19.9681 79.3401 21.1188C79.3437 21.126 79.3472 21.1332 79.3507 21.1401C79.4624 20.9243 79.5598 20.6613 79.6246 20.4223C79.9456 19.145 79.8032 17.7258 79.3002 16.5468C79.2319 16.7189 79.169 16.9017 79.1118 17.0957ZM77.4926 14.412C77.1359 14.9923 76.8479 15.6501 76.634 16.379L76.6312 16.3884L76.6286 16.3977C76.1332 18.1846 76.1781 20.4098 77.0007 22.2051L77.0063 22.2172L77.0121 22.2292C77.3073 22.8398 77.793 23.5335 78.5491 23.8484L78.5849 23.8633L78.6216 23.8761C79.2089 24.0803 79.7898 24.0211 80.285 23.7775C80.7392 23.5541 81.064 23.2065 81.286 22.9035C81.7257 22.3037 81.9879 21.5678 82.1183 21.0818L82.1207 21.0729L82.1229 21.0639C82.6594 18.9449 82.3183 16.6188 81.3136 14.7976C81.2456 14.6744 81.174 14.5526 81.099 14.4329C81.1681 14.3981 81.2381 14.3659 81.3088 14.3361C82.2917 13.9232 83.6333 13.9046 85.269 14.4536L86.0901 12.0093C84.0692 11.331 82.0466 11.2292 80.3093 11.9591C79.9525 12.1091 79.616 12.2906 79.3012 12.5023C78.4182 11.8796 77.3548 11.4936 76.1356 11.4936V14.072C76.6175 14.072 77.074 14.1893 77.4926 14.412Z" fill="#FF3388"/>
<path fill-rule="evenodd" clip-rule="evenodd" d="M68.7821 23.986C72.2426 23.986 75.0478 21.1808 75.0478 17.7203C75.0478 14.2598 72.2426 11.4546 68.7821 11.4546C65.3216 11.4546 62.5164 14.2598 62.5164 17.7203C62.5164 21.1808 65.3216 23.986 68.7821 23.986ZM68.7821 21.1888C70.5741 21.1888 72.0268 19.636 72.0268 17.7203C72.0268 15.8047 70.5741 14.2518 68.7821 14.2518C66.9901 14.2518 65.5374 15.8047 65.5374 17.7203C65.5374 19.636 66.9901 21.1888 68.7821 21.1888Z" fill="#FF3388"/>
<path fill-rule="evenodd" clip-rule="evenodd" d="M55.3415 23.986C58.8019 23.986 61.6071 21.1808 61.6071 17.7203C61.6071 14.2598 58.8019 11.4546 55.3415 11.4546C51.881 11.4546 49.0758 14.2598 49.0758 17.7203C49.0758 21.1808 51.881 23.986 55.3415 23.986ZM55.3415 21.1888C57.1335 21.1888 58.5862 19.636 58.5862 17.7203C58.5862 15.8047 57.1335 14.2518 55.3415 14.2518C53.5495 14.2518 52.0968 15.8047 52.0968 17.7203C52.0968 19.636 53.5495 21.1888 55.3415 21.1888Z" fill="#FF3388"/>
<path d="M45.5393 19.8272C45.7058 20.2851 45.9627 20.6314 46.3091 20.8675C46.6541 21.1041 47.0752 21.2213 47.5707 21.2213H48.3945V23.9894H47.5971C46.3994 23.9894 45.4104 23.7412 44.6332 23.2438C43.8574 22.7457 43.2688 22.032 42.869 21.1023C42.5904 20.4549 42.4329 19.3327 42.3912 17.7457C42.3823 17.4599 42.3777 17.1663 42.3777 16.8516V8H45.3531V17.7459C45.3585 18.8003 45.4187 19.4971 45.5393 19.8272Z" fill="#FF3388"/>
<path fill-rule="evenodd" clip-rule="evenodd" d="M36.9939 11.1218C36.642 11.3578 36.381 11.7042 36.2119 12.162C36.0909 12.488 36.0297 13.1716 36.023 14.2039H40.6604V17.1508H36.0227V23.9887H33V15.1375C33 14.8229 33.0045 14.5292 33.0136 14.2435C33.0559 12.6566 33.216 11.5344 33.499 10.887C33.9053 9.95727 34.5032 9.24369 35.2914 8.74558C36.0809 8.24816 37.0858 8 38.3025 8H40.6364V10.768H38.2757C37.7724 10.768 37.3445 10.8852 36.9939 11.1218Z" fill="#FF3388"/>
</svg>
