<svg width="120" height="32" viewBox="0 0 120 32" fill="none" xmlns="http://www.w3.org/2000/svg">
<path d="M60.6422 8.24291H58.6453V14.461H57.59V8.24291H56.2954V7.70152H57.59V6.52459C57.59 5.7949 57.7705 5.31628 58.1314 5.08089C58.5745 4.83189 59.0795 4.71482 59.5869 4.7435C59.732 4.7435 59.8929 4.7435 60.0694 4.7435C60.246 4.7435 60.4343 4.7435 60.6422 4.7435V5.32805H59.685C59.4084 5.30504 59.1321 5.37549 58.9003 5.52812C58.7929 5.64456 58.7128 5.78354 58.666 5.93491C58.6191 6.08628 58.6067 6.2462 58.6297 6.40298V7.6976H60.6265L60.6422 8.24291Z" fill="#4F7353"/>
<path d="M64.1097 14.5983C63.6542 14.6034 63.2021 14.518 62.7798 14.3472C62.3776 14.1875 62.0138 13.9441 61.7127 13.6332C61.4028 13.3102 61.1624 12.9269 61.0066 12.5073C60.8291 12.0374 60.7413 11.5384 60.7476 11.0361C60.7416 10.5466 60.8295 10.0606 61.0066 9.60418C61.1583 9.19622 61.3938 8.82455 61.6979 8.51307C62.0019 8.2016 62.3678 7.95721 62.772 7.79563C63.63 7.45549 64.5855 7.45549 65.4436 7.79563C65.8431 7.95882 66.2059 8.20025 66.5107 8.50571C66.8151 8.82184 67.0538 9.1952 67.2129 9.60418C67.3864 10.0614 67.4729 10.5471 67.4679 11.0361C67.4749 11.5388 67.3857 12.0381 67.2051 12.5073C67.0442 12.923 66.8029 13.303 66.495 13.6254C66.1946 13.9353 65.8324 14.1786 65.4318 14.3394C65.0127 14.5128 64.5633 14.6008 64.1097 14.5983ZM64.1097 14.0844C64.4361 14.0963 64.7598 14.0221 65.0483 13.8692C65.3369 13.7163 65.5801 13.4902 65.7535 13.2134C65.9407 12.9162 66.0735 12.5881 66.1458 12.2444C66.2314 11.8474 66.2735 11.4422 66.2714 11.0361C66.2732 10.6404 66.2311 10.2456 66.1458 9.85918C66.0736 9.52282 65.9406 9.20243 65.7535 8.91372C65.578 8.6541 65.3443 8.43914 65.0709 8.28602C64.7718 8.13651 64.4421 8.05868 64.1078 8.05868C63.7734 8.05868 63.4437 8.13651 63.1446 8.28602C62.8713 8.43914 62.6375 8.6541 62.462 8.91372C62.2732 9.2015 62.1401 9.52222 62.0697 9.85918C61.981 10.2451 61.9376 10.6401 61.9403 11.0361C61.9375 11.4425 61.9809 11.8479 62.0697 12.2444C62.1402 12.5887 62.2732 12.9171 62.462 13.2134C62.6361 13.4905 62.8799 13.7168 63.1692 13.8697C63.4584 14.0226 63.7828 14.0966 64.1097 14.0844Z" fill="#4F7353"/>
<path d="M71.8934 14.5983C71.4379 14.6034 70.9858 14.518 70.5635 14.3472C70.1604 14.1869 69.7955 13.9436 69.4925 13.6332C69.1839 13.3091 68.9437 12.9262 68.7863 12.5073C68.6102 12.0371 68.5238 11.5381 68.5313 11.0361C68.5241 10.5469 68.6106 10.0608 68.7863 9.60418C68.9392 9.19682 69.175 8.82569 69.4789 8.51435C69.7829 8.20301 70.1482 7.95826 70.5517 7.79563C71.4098 7.45549 72.3653 7.45549 73.2234 7.79563C73.6233 7.95787 73.9863 8.19942 74.2904 8.50571C74.5961 8.82085 74.835 9.19448 74.9927 9.60418C75.1662 10.0614 75.2527 10.5471 75.2477 11.0361C75.2547 11.5388 75.1654 12.0381 74.9848 12.5073C74.8239 12.9221 74.5841 13.3018 74.2787 13.6254C73.976 13.9343 73.6127 14.1774 73.2116 14.3394C72.7937 14.5122 72.3456 14.6003 71.8934 14.5983ZM71.8934 14.0844C72.2293 14.0924 72.5616 14.0141 72.8585 13.8568C73.1348 13.7022 73.368 13.481 73.5372 13.2134C73.7244 12.9162 73.8572 12.5881 73.9295 12.2444C74.0184 11.8479 74.0618 11.4425 74.059 11.0361C74.0617 10.6401 74.0182 10.2451 73.9295 9.85918C73.8573 9.52282 73.7243 9.20243 73.5372 8.91372C73.2496 8.51395 72.8281 8.23071 72.3493 8.11551C71.8705 8.00031 71.3663 8.06082 70.9284 8.28602C70.655 8.43914 70.4212 8.6541 70.2457 8.91372C70.0586 9.20239 69.9256 9.52279 69.8534 9.85918C69.7647 10.2451 69.7213 10.6401 69.724 11.0361C69.7212 11.4425 69.7646 11.8479 69.8534 12.2444C69.9256 12.5882 70.0585 12.9163 70.2457 13.2134C70.4198 13.4905 70.6637 13.7168 70.9529 13.8697C71.2421 14.0226 71.5665 14.0966 71.8934 14.0844Z" fill="#4F7353"/>
<path d="M78.6643 14.4769C78.2346 14.5105 77.8058 14.4016 77.4442 14.167C77.1774 13.9591 77.0519 13.5472 77.0519 12.9234V8.24314H75.824V7.70175H77.0519V6.46205L78.0641 5.74805H78.1033V7.7096H79.9393V8.25098H78.1033V12.9587C78.0746 13.2341 78.1411 13.511 78.2916 13.7433C78.4941 13.9013 78.7506 13.9731 79.0056 13.9434H79.9393V14.4573L79.4058 14.4769H78.6643Z" fill="#4F7353"/>
<path d="M82.3094 11.3188V14.4572H81.262V4.74365H82.3134V8.80798C82.3194 8.89418 82.3194 8.98071 82.3134 9.06691C82.4806 8.63021 82.7726 8.25231 83.1529 7.98021C83.5534 7.69252 84.037 7.54372 84.5299 7.55651C85.1567 7.54024 85.7679 7.75372 86.2482 8.15675C86.719 8.54906 86.9583 9.26306 86.9583 10.2791V14.4612H85.903V10.2007C85.903 9.44352 85.7578 8.90998 85.4636 8.59221C85.3207 8.43754 85.1462 8.31544 84.9519 8.23421C84.7576 8.15298 84.5481 8.11452 84.3377 8.12144C84.0511 8.12787 83.7706 8.2059 83.5219 8.34842C83.2732 8.49094 83.0641 8.69343 82.9136 8.93745C82.4723 9.65029 82.2614 10.4818 82.3094 11.3188Z" fill="#4F7353"/>
<path d="M88.9199 6.15213V4.95166H90.0969V6.15213H88.9199ZM88.9748 14.4613V7.70175H90.0262V14.4613H88.9748Z" fill="#4F7353"/>
<path d="M92.1995 14.4612V4.74365H93.2509V14.4612H92.1995Z" fill="#4F7353"/>
<path d="M95.4243 14.4612V4.74365H96.4757V14.4612H95.4243Z" fill="#4F7353"/>
<path d="M62.396 18.8901L59.846 25.6496H59.0339L56.2014 18.8901H57.3313L59.638 24.5316L61.7173 18.8901H62.396Z" fill="#4F7353"/>
<path d="M68.9119 23.6137C68.8026 24.2408 68.4572 24.8024 67.9468 25.1829C67.3897 25.588 66.713 25.7952 66.0245 25.7714C65.5763 25.7742 65.1316 25.6917 64.7142 25.5281C64.3179 25.3714 63.9594 25.132 63.6628 24.8259C63.3559 24.5057 63.1193 24.1249 62.9684 23.7078C62.7959 23.2273 62.7108 22.7197 62.7174 22.2092C62.7099 21.7001 62.7991 21.1942 62.9802 20.7184C63.1427 20.3205 63.3812 19.958 63.6824 19.6513C63.9689 19.3655 64.3088 19.1389 64.6828 18.9844C65.0434 18.8346 65.43 18.7573 65.8205 18.7569C66.2221 18.7552 66.6208 18.8256 66.9974 18.9648C67.3682 19.1005 67.7082 19.3085 67.9978 19.5768C68.3042 19.8549 68.5465 20.1962 68.7079 20.5772C68.8836 21.0241 68.969 21.5015 68.959 21.9817V22.1974H63.906V22.2249C63.8735 22.987 64.0703 23.7413 64.471 24.3904C64.6508 24.6628 64.8983 24.8837 65.1892 25.0316C65.4801 25.1794 65.8045 25.2492 66.1304 25.2339C66.6428 25.2509 67.1454 25.0916 67.5545 24.7827C67.9317 24.4926 68.1888 24.0736 68.2764 23.6058L68.9119 23.6137ZM65.8205 19.259C65.5687 19.251 65.3183 19.3005 65.0886 19.4038C64.8588 19.5072 64.6556 19.6616 64.4945 19.8553C64.1125 20.3788 63.9102 21.0119 63.9178 21.66H67.7115C67.7358 21.0281 67.5631 20.4043 67.2171 19.8749C67.0522 19.6662 66.8387 19.501 66.5953 19.3936C66.3519 19.2863 66.0859 19.2401 65.8205 19.259Z" fill="#4F7353"/>
<path d="M71.5681 22.5073V25.6458H70.5167V18.8902H71.5446V20.2829C71.7117 19.843 72.0018 19.4604 72.3802 19.1805C72.7817 18.8849 73.2705 18.7316 73.769 18.7451C74.3959 18.7281 75.0073 18.9416 75.4873 19.3453C75.9633 19.7455 76.2 20.4529 76.1974 21.4677V25.6497H75.146V21.3893C75.2007 20.8174 75.0444 20.2454 74.7066 19.7808C74.5635 19.6263 74.389 19.5044 74.1947 19.4231C74.0005 19.3419 73.7911 19.3033 73.5807 19.31C73.2941 19.3164 73.0136 19.3945 72.7649 19.537C72.5162 19.6795 72.307 19.882 72.1566 20.126C71.7189 20.8398 71.5133 21.6718 71.5681 22.5073Z" fill="#4F7353"/>
<path d="M80.0576 25.6654C79.6266 25.6998 79.1963 25.5909 78.8336 25.3555C78.5708 25.1476 78.4413 24.7356 78.4413 24.1119V19.4316H77.2134V18.8902H78.4413V17.6505L79.4535 16.9365H79.4927V18.8981H81.3287V19.4395H79.4927V24.1472C79.464 24.4225 79.5305 24.6994 79.681 24.9318C79.8847 25.0904 80.1426 25.1622 80.3989 25.1319H81.3287V25.6458L80.7952 25.6654H80.0576Z" fill="#4F7353"/>
<path d="M87.0723 25.6497V24.4218C86.9119 24.8161 86.639 25.1544 86.2877 25.3947C85.8979 25.6646 85.4317 25.8021 84.9578 25.787C84.6531 25.7865 84.3503 25.7402 84.0594 25.6497C83.7692 25.5635 83.5014 25.4149 83.2748 25.2143C83.0338 24.9959 82.8425 24.7283 82.7138 24.4297C82.5593 24.0461 82.4858 23.6347 82.498 23.2213V18.9059H83.5494V23.292C83.5252 23.5556 83.5559 23.8215 83.6396 24.0727C83.7233 24.3239 83.8583 24.555 84.0359 24.7513C84.3328 25.0382 84.7294 25.1985 85.1422 25.1986C85.4041 25.1966 85.6619 25.1327 85.8945 25.012C86.127 24.8913 86.3276 24.7173 86.48 24.5042C86.8955 23.8839 87.0904 23.1419 87.0331 22.3975V18.8667H88.0845V25.6497H87.0723Z" fill="#4F7353"/>
<path d="M91.3086 21.7383V25.6614H90.2572V18.8901H91.2811V20.2397C91.3174 20.1217 91.3647 20.0074 91.4224 19.8984C91.5836 19.582 91.8307 19.3175 92.1352 19.135C92.4398 18.9526 92.7896 18.8595 93.1446 18.8666H93.3329L93.5055 18.8862V19.7924L93.2035 19.7571C93.0849 19.7444 92.9657 19.7379 92.8464 19.7375C92.6588 19.7387 92.4724 19.7678 92.2933 19.8238C92.1059 19.8876 91.9364 19.9952 91.799 20.1377C91.636 20.3126 91.514 20.5217 91.442 20.7497C91.3438 21.0697 91.2988 21.4037 91.3086 21.7383Z" fill="#4F7353"/>
<path d="M100.12 23.6136C100.008 24.2397 99.6629 24.8002 99.1548 25.1829C98.5974 25.5875 97.9209 25.7945 97.2325 25.7713C96.7842 25.7748 96.3394 25.6922 95.9222 25.5281C95.5253 25.3723 95.1667 25.1328 94.8708 24.8259C94.5639 24.5057 94.3273 24.1249 94.1764 23.7078C94.0019 23.2278 93.9168 22.7199 93.9254 22.2092C93.916 21.6999 94.0052 21.1937 94.1882 20.7184C94.3493 20.3197 94.588 19.957 94.8904 19.6513C95.1748 19.3647 95.5136 19.138 95.8869 18.9844C96.2489 18.8346 96.6368 18.7573 97.0285 18.7568C97.4301 18.7558 97.8286 18.8262 98.2055 18.9648C98.5754 19.0996 98.9144 19.3077 99.2019 19.5768C99.4996 19.8612 99.7324 20.2064 99.8845 20.5889C100.057 21.0367 100.141 21.5137 100.132 21.9934V22.2092H95.1141V22.2366C95.0815 22.9987 95.2783 23.7531 95.679 24.4022C95.86 24.6744 96.1092 24.8944 96.4018 25.0403C96.6943 25.1862 97.0199 25.253 97.3463 25.2339C97.8585 25.2502 98.361 25.0911 98.7704 24.7827C99.1457 24.4909 99.4022 24.0726 99.4922 23.6058L100.12 23.6136ZM97.0285 19.259C96.7761 19.2509 96.5252 19.3004 96.2948 19.4037C96.0643 19.5071 95.8605 19.6615 95.6986 19.8553C95.318 20.3793 95.117 21.0124 95.1258 21.6599H98.9155C98.9399 21.0281 98.7672 20.4043 98.4212 19.8749C98.2564 19.667 98.0435 19.5023 97.8009 19.395C97.5583 19.2877 97.2932 19.241 97.0285 19.259Z" fill="#4F7353"/>
<path d="M103.855 25.7988C103.115 25.8472 102.384 25.6224 101.799 25.1672C101.563 24.96 101.372 24.7072 101.237 24.4239C101.103 24.1407 101.027 23.833 101.014 23.5195H102.003C102.011 23.9918 102.196 24.444 102.521 24.7866C102.697 24.9595 102.907 25.0934 103.138 25.1799C103.37 25.2664 103.616 25.3035 103.863 25.2888C104.3 25.3009 104.731 25.188 105.106 24.9632C105.27 24.8644 105.403 24.7233 105.493 24.5548C105.583 24.3863 105.625 24.1966 105.616 24.0059C105.621 23.8439 105.585 23.6832 105.511 23.5391C105.437 23.3949 105.327 23.2721 105.193 23.1821C104.833 22.9528 104.434 22.7931 104.016 22.7113L103.313 22.5465C102.789 22.4484 102.291 22.2427 101.85 21.9424C101.676 21.8018 101.538 21.6216 101.448 21.4169C101.358 21.2121 101.318 20.9887 101.332 20.7655C101.327 20.4685 101.399 20.1752 101.54 19.9141C101.671 19.6565 101.858 19.4324 102.089 19.259C102.337 19.0822 102.613 18.9495 102.905 18.8667C103.222 18.7715 103.551 18.7239 103.882 18.7254C104.527 18.703 105.161 18.8902 105.691 19.259C105.92 19.4184 106.11 19.6281 106.246 19.8722C106.382 20.1163 106.461 20.3883 106.475 20.6674H105.491C105.477 20.2724 105.307 19.8989 105.02 19.6278C104.706 19.3574 104.3 19.2171 103.886 19.2354C103.465 19.2215 103.051 19.347 102.709 19.5924C102.566 19.6888 102.449 19.8183 102.367 19.97C102.285 20.1217 102.241 20.291 102.238 20.4634C102.231 20.599 102.257 20.7343 102.312 20.8584C102.367 20.9825 102.451 21.0918 102.556 21.1774C102.847 21.3825 103.181 21.5168 103.533 21.5697L104.29 21.7305C104.88 21.8389 105.442 22.0658 105.942 22.3975C106.145 22.5499 106.306 22.7509 106.411 22.9819C106.516 23.2129 106.561 23.4665 106.542 23.7195C106.545 24.0327 106.463 24.3408 106.303 24.6101C106.148 24.8684 105.939 25.0905 105.691 25.2613C105.43 25.4392 105.141 25.5718 104.835 25.6536C104.517 25.747 104.187 25.7958 103.855 25.7988Z" fill="#4F7353"/>
<path d="M13 15.9951L17.4566 8.27442C17.6641 7.91955 17.9608 7.62518 18.3173 7.42061C18.6739 7.21604 19.0778 7.1084 19.4888 7.1084C19.8999 7.1084 20.3037 7.21604 20.6603 7.42061C21.0168 7.62518 21.3135 7.91955 21.521 8.27442L23.2707 11.3031L27.5861 3.84917C27.9103 3.28699 28.3769 2.82012 28.9389 2.49551C29.5008 2.1709 30.1384 2 30.7873 2C31.4363 2 32.0738 2.1709 32.6358 2.49551C33.1978 2.82012 33.6643 3.28699 33.9886 3.84917L41.0031 16.0108H13V15.9951Z" fill="url(#paint0_linear_700_3909)"/>
<path d="M37.7942 28.145L31.6232 17.4584L28.01 23.7354C27.8026 24.0903 27.5058 24.3846 27.1493 24.5892C26.7928 24.7938 26.3889 24.9014 25.9778 24.9014C25.5668 24.9014 25.1629 24.7938 24.8064 24.5892C24.4498 24.3846 24.1531 24.0903 23.9457 23.7354L19.489 15.9951H51.2112L44.1967 28.1567C43.8714 28.7183 43.404 29.1843 42.8414 29.5079C42.2789 29.8315 41.641 30.0012 40.992 30C40.3431 29.9988 39.7058 29.8267 39.1445 29.5011C38.5831 29.1755 38.1174 28.7077 37.7942 28.145Z" fill="#2F452F"/>
<defs>
<linearGradient id="paint0_linear_700_3909" x1="13" y1="8.99627" x2="40.9952" y2="8.99627" gradientUnits="userSpaceOnUse">
<stop stop-color="#7C9D8D"/>
<stop offset="0.09" stop-color="#769784"/>
<stop offset="0.47" stop-color="#628264"/>
<stop offset="0.78" stop-color="#557650"/>
<stop offset="1" stop-color="#517149"/>
</linearGradient>
</defs>
</svg>
