<svg width="120" height="32" viewBox="0 0 120 32" fill="none" xmlns="http://www.w3.org/2000/svg">
<path d="M36.535 23.5135H41.3264V29.6968H39.7275L39.4904 28.2585C38.8822 28.9612 38.0032 30 35.9096 30C33.1465 30 30.6385 28.018 30.6385 23.9933C30.6385 20.8789 32.3639 17.9224 36.2136 17.9224H36.2457C39.7596 17.9224 41.1494 20.2075 41.2789 21.7892H38.8825C38.8825 21.3411 38.0685 19.9043 36.3752 19.9043C34.6632 19.9043 33.0842 21.0865 33.0842 24.0254C33.0842 27.1559 34.7936 27.9706 36.4215 27.9706C36.9495 27.9706 38.7067 27.763 39.2014 25.4473H36.535V23.5135Z" fill="#0471B3"/>
<path d="M45.7032 20.1914H43.4662V18.1139H45.7032V20.1914ZM45.7032 21.197V29.6968H43.4662V21.1955L45.7032 21.197Z" fill="#0471B3"/>
<path d="M50.4307 29.6968H48.1956V22.7947H46.966V21.197H48.1956V20.5115C48.1956 18.7532 49.1529 18.0818 50.6868 18.0818C51.3414 18.0818 51.6461 18.0979 51.8387 18.1139V19.9185H51.2144C50.4467 19.9185 50.4303 20.1594 50.4303 20.8617V21.1977H51.8847V22.7955H50.4303L50.4307 29.6968Z" fill="#0471B3"/>
<path d="M55.1111 21.197H56.5001V22.7947H55.1111V27.4124C55.1111 27.9072 55.1271 28.0991 56.0374 28.0991C56.1921 28.0959 56.3465 28.0849 56.5001 28.0659V29.7599C56.1487 29.776 55.7992 29.792 55.4471 29.792H55.1592C53.2262 29.792 52.8759 29.0572 52.8759 27.9546V22.7947H51.7248V21.197H52.8759V18.8958H55.1111V21.197Z" fill="#0471B3"/>
<path d="M64.9846 27.2029C64.3942 29.2491 62.7002 29.9208 61.2462 29.9208C58.8494 29.9208 57.012 28.7697 57.012 25.271C57.012 24.2483 57.3641 20.9733 61.0886 20.9733C62.7648 20.9733 65.0794 21.7724 65.0794 25.6552V26.0537H59.2478C59.3128 26.6929 59.4405 28.1301 61.2458 28.1301C61.5532 28.1504 61.859 28.0712 62.1179 27.9042C62.3768 27.7371 62.5749 27.4911 62.683 27.2026L64.9846 27.2029ZM62.7816 24.5993C62.6531 23.2264 61.7734 22.8108 61.0535 22.8108C60.0006 22.8108 59.4416 23.4829 59.3143 24.5993H62.7816Z" fill="#0471B3"/>
<path d="M74.3291 29.6972H72.1391V28.6263H72.1059C71.8526 29.0452 71.4899 29.3871 71.0568 29.6152C70.6237 29.8433 70.1366 29.9489 69.6479 29.9208C67.1238 29.9208 66.069 27.6839 66.069 25.3513C66.069 22.4116 67.7309 20.9733 69.599 20.9733C70.0906 20.9516 70.5789 21.0635 71.0121 21.2971C71.4452 21.5306 71.807 21.8772 72.0589 22.3H72.091V18.2256H74.3291V29.6972ZM70.208 28.0834C71.6269 28.0834 72.1892 26.902 72.1892 25.6384C72.1892 24.2815 71.8057 22.9067 70.2703 22.9067C68.8515 22.9067 68.3687 24.1684 68.3687 25.5122C68.3687 26.5174 68.7686 28.0834 70.208 28.0834Z" fill="#0471B3"/>
<path d="M81.7714 29.6972H79.248L83.3389 18.2256H86.102L90.1446 29.6972H87.541L86.8062 27.3318H82.572L81.7714 29.6972ZM83.2086 25.3513H86.133L84.7141 20.8128H84.6809L83.2086 25.3513Z" fill="#0471B3"/>
<path d="M91.4848 21.197H93.6247V22.6666H93.6557C94.1224 21.8041 94.6314 20.9733 95.9894 20.9733C96.1337 20.9761 96.2778 20.9868 96.421 21.0054V23.2745C96.2084 23.2482 95.9941 23.2379 95.7799 23.2435C94.0407 23.2435 93.7214 24.3293 93.7214 25.271V29.6968H91.4844L91.4848 21.197Z" fill="#0471B3"/>
<path d="M100.541 21.197H101.931V22.7947H100.541V27.4124C100.541 27.9072 100.558 28.0991 101.469 28.0991C101.623 28.0959 101.778 28.0848 101.931 28.0659V29.7599C101.58 29.776 101.228 29.792 100.878 29.792H100.59C98.6561 29.792 98.3047 29.0572 98.3047 27.9546V22.7947H97.1535V21.197H98.3047V18.8958H100.541L100.541 21.197Z" fill="#0471B3"/>
<path d="M40.4362 2.28075C39.4864 2.00753 38.4906 1.93266 37.5107 2.06082C36.7057 2.22237 35.9816 2.65779 35.4615 3.29301C34.9529 3.90121 34.4958 4.55065 34.0949 5.23463C33.8745 5.62077 33.6826 6.02248 33.5206 6.43656C33.0209 6.75742 32.5386 7.10479 32.076 7.4772C32.2328 7.48653 32.3329 7.50259 32.3329 7.50259C33.8525 7.47612 35.3722 7.54421 36.8834 7.70646C38.4102 7.9529 40.8476 8.69146 41.0653 9.22316C41.283 9.75487 39.7017 13.5698 35.6949 16.1932C31.6881 18.8166 24.0646 18.8487 24.0646 18.8487C24.0646 18.8487 24.2221 17.6494 24.3383 17.2757C23.8953 18.1531 23.3745 18.989 22.782 19.7733C21.9945 20.7392 20.3229 21.9311 19.5148 22.9329C18.7068 23.9347 18.2453 24.6374 18 25.4854C19.4624 25.0161 20.8177 24.2626 21.9882 23.2682C20.8041 24.5496 20.4349 25.389 19.9117 27.4501C21.48 27.297 28.0781 20.3367 31.6362 19.2262C33.6085 18.5789 35.6572 18.1925 37.7299 18.077L37.4842 17.6965C37.4842 17.6965 39.6976 16.1376 40.9253 14.5227C42.153 12.9078 42.9763 9.08538 42.9763 9.08538C43.2499 8.65873 43.4444 8.18633 43.5506 7.69078C43.8527 4.41131 43.1141 2.8539 40.4362 2.28075ZM38.8205 5.43924C38.7935 5.54815 38.7274 5.64335 38.6348 5.70674C38.5423 5.77014 38.4296 5.79733 38.3183 5.78314C38.2105 5.7993 38.1004 5.78028 38.0043 5.72889C37.9082 5.6775 37.8312 5.59648 37.7847 5.49787C37.7377 5.36499 37.7377 5.22001 37.7847 5.08714C37.8181 5.00964 37.8745 4.9443 37.9464 4.90001C38.0182 4.85572 38.1019 4.83462 38.1861 4.83958C38.272 4.82693 38.3596 4.83379 38.4425 4.85965C38.5254 4.8855 38.6014 4.92969 38.6648 4.98894C38.7222 5.04802 38.7658 5.11897 38.7927 5.19678C38.8196 5.2746 38.8291 5.35736 38.8205 5.43924ZM39.5893 7.95588C39.5893 7.95588 39.3873 6.72632 39.3843 6.56314C39.3814 6.39997 39.4553 6.0165 39.6696 6.02957C39.8839 6.04264 40.043 6.41192 40.0408 6.56314C40.0385 6.71437 39.589 7.957 39.589 7.957L39.5893 7.95588ZM41.7176 6.18528C41.6447 6.23233 41.5621 6.26251 41.476 6.27362C41.3899 6.28473 41.3024 6.27649 41.2199 6.2495C41.136 6.23961 41.0573 6.20385 40.9947 6.14717C40.932 6.0905 40.8886 6.01572 40.8704 5.93324C40.8476 5.79422 40.874 5.65159 40.9451 5.52998C41.0073 5.44036 41.0971 5.37359 41.2008 5.33987C41.3045 5.30615 41.4164 5.30735 41.5194 5.34328C41.6316 5.34899 41.7379 5.39573 41.8179 5.47461C41.898 5.5535 41.9463 5.65904 41.9536 5.77119C41.9471 5.8536 41.9223 5.93354 41.8812 6.00526C41.8401 6.07699 41.7836 6.13872 41.7158 6.18602L41.7176 6.18528Z" fill="#F1BA53"/>
</svg>
