<svg width="120" height="32" viewBox="0 0 120 32" fill="none" xmlns="http://www.w3.org/2000/svg">
<path d="M76.7876 21.5169C75.841 21.5389 74.8998 21.3677 74.0217 21.0137C73.1435 20.6598 72.3466 20.1305 71.6799 19.4583C71.0131 18.786 70.4903 17.9849 70.1436 17.1039C69.7968 16.2228 69.6332 15.2803 69.6629 14.3339C69.6385 13.3937 69.8053 12.4583 70.1534 11.5845C70.5015 10.7107 71.0235 9.91677 71.6878 9.25089C72.3497 8.5738 73.1444 8.04074 74.0219 7.68513C74.8995 7.32952 75.841 7.15903 76.7876 7.18434C77.7354 7.16098 78.6765 7.35019 79.5416 7.73807C80.4068 8.12596 81.1741 8.70268 81.7873 9.42589L80.5623 10.6508C80.1131 10.0828 79.5386 9.62638 78.8838 9.31705C78.229 9.00772 77.5116 8.8539 76.7876 8.86758C76.0818 8.85035 75.3801 8.97746 74.7252 9.24111C74.0704 9.50477 73.4763 9.89941 72.9794 10.4008C72.4718 10.9184 72.0755 11.5343 71.8147 12.2107C71.5539 12.887 71.4341 13.6096 71.4628 14.3339C71.4318 15.0611 71.5504 15.7868 71.8113 16.4662C72.0722 17.1456 72.4698 17.7642 72.9794 18.2837C73.4751 18.7868 74.069 19.1825 74.7241 19.4462C75.3792 19.71 76.0816 19.8362 76.7876 19.817C77.5885 19.8131 78.3784 19.63 79.0994 19.281C79.8203 18.9321 80.454 18.4262 80.954 17.8004L82.2373 19.0504C81.5877 19.8269 80.7699 20.4453 79.8457 20.8586C78.8866 21.2987 77.8428 21.5234 76.7876 21.5169ZM85.4287 7.49266V21.2169H83.6622V7.49266H85.4287ZM86.9453 16.5172C86.9261 15.8594 87.0369 15.2042 87.2714 14.5894C87.5059 13.9745 87.8595 13.4119 88.3119 12.934C88.7596 12.4701 89.2991 12.1045 89.896 11.8606C90.4928 11.6167 91.1339 11.4998 91.7784 11.5174C92.4205 11.4991 93.0594 11.6157 93.6536 11.8597C94.2478 12.1037 94.7843 12.4697 95.2282 12.934C95.6852 13.4091 96.0423 13.971 96.2784 14.5864C96.5146 15.2018 96.625 15.8583 96.6031 16.5172C96.6274 17.1763 96.518 17.8334 96.2818 18.4492C96.0455 19.065 95.6871 19.6266 95.2282 20.1003C94.7856 20.5663 94.2494 20.9334 93.6548 21.1776C93.0603 21.4217 92.4208 21.5373 91.7784 21.5169C91.1336 21.5365 90.4919 21.4206 89.8948 21.1766C89.2976 20.9326 88.7584 20.5659 88.3119 20.1003C87.8595 19.6224 87.5059 19.0598 87.2714 18.445C87.0369 17.8301 86.9261 17.175 86.9453 16.5172ZM88.7119 16.5172C88.6713 17.4184 88.9889 18.299 89.5952 18.967C89.8756 19.2646 90.214 19.5018 90.5894 19.6638C90.9649 19.8259 91.3695 19.9095 91.7784 19.9095C92.1873 19.9095 92.5919 19.8259 92.9674 19.6638C93.3428 19.5018 93.6812 19.2646 93.9616 18.967C94.5679 18.299 94.8855 17.4184 94.8449 16.5172C94.8837 15.6212 94.5662 14.7463 93.9616 14.084C93.6838 13.7819 93.3463 13.5408 92.9705 13.3759C92.5947 13.211 92.1888 13.1259 91.7784 13.1259C91.368 13.1259 90.9621 13.211 90.5863 13.3759C90.2105 13.5408 89.873 13.7819 89.5952 14.084C88.9906 14.7463 88.673 15.6212 88.7119 16.5172ZM106.353 21.2169H104.686V19.9086H104.603C104.305 20.3977 103.878 20.7955 103.369 21.0586C102.841 21.3582 102.244 21.5161 101.636 21.5169C101.149 21.5485 100.661 21.4772 100.203 21.3078C99.7446 21.1384 99.3274 20.8747 98.978 20.5336C98.3178 19.7526 97.9862 18.7459 98.053 17.7254V11.8341H99.8113V17.6171C99.7745 17.9302 99.8096 18.2475 99.9138 18.545C100.018 18.8425 100.189 19.1124 100.413 19.334C100.637 19.5557 100.909 19.7235 101.207 19.8245C101.506 19.9255 101.823 19.9571 102.136 19.917C102.474 19.9228 102.808 19.8507 103.113 19.7062C103.418 19.5616 103.685 19.3486 103.894 19.0837C104.37 18.5113 104.621 17.7859 104.603 17.0421V11.8341H106.369L106.353 21.2169ZM112.319 21.5169C111.719 21.5168 111.127 21.3871 110.581 21.1369C110.036 20.8867 109.552 20.5217 109.161 20.067C108.285 19.0937 107.809 17.8261 107.828 16.5172C107.799 15.215 108.263 13.9501 109.127 12.9757C109.515 12.5168 109.999 12.1485 110.545 11.8966C111.091 11.6447 111.685 11.5152 112.286 11.5174C112.943 11.5063 113.593 11.658 114.177 11.9591C114.713 12.223 115.167 12.6259 115.494 13.1257H115.569L115.527 11.8341V7.49266H117.285V21.2169H115.619V19.9086H115.544C115.217 20.4084 114.763 20.8113 114.227 21.0752C113.638 21.379 112.982 21.5308 112.319 21.5169ZM112.611 19.9086C113.013 19.9216 113.413 19.8437 113.781 19.6807C114.149 19.5176 114.475 19.2737 114.735 18.967C115.318 18.2881 115.617 17.4106 115.569 16.5172C115.609 15.6299 115.311 14.7603 114.735 14.084C114.476 13.7752 114.15 13.5287 113.782 13.3629C113.414 13.197 113.014 13.1159 112.611 13.1257C112.208 13.1195 111.808 13.2021 111.441 13.3677C111.074 13.5334 110.748 13.7779 110.486 14.084C109.91 14.7603 109.612 15.6299 109.652 16.5172C109.606 17.4053 109.905 18.277 110.486 18.9504C110.748 19.2564 111.074 19.501 111.441 19.6666C111.808 19.8322 112.208 19.9149 112.611 19.9086Z" fill="#5F6368"/>
<path d="M9.9079 21.5168C7.83438 21.5237 5.84166 20.7133 4.36148 19.2611C2.8813 17.809 2.03287 15.8322 2 13.7589C2.03287 11.6857 2.8813 9.70883 4.36148 8.25672C5.84166 6.80462 7.83438 5.99419 9.9079 6.00103C10.8959 5.98458 11.8773 6.16552 12.7945 6.53326C13.7117 6.901 14.5463 7.44813 15.2493 8.14258L13.741 9.63416C12.7126 8.64395 11.3354 8.09903 9.9079 8.11758C9.16877 8.11532 8.43658 8.26006 7.75391 8.54339C7.07124 8.82671 6.45173 9.24296 5.93142 9.76793C5.41111 10.2929 5.00039 10.9161 4.72315 11.6012C4.44592 12.2864 4.3077 13.0199 4.31654 13.7589C4.3077 14.498 4.44592 15.2315 4.72315 15.9166C5.00039 16.6018 5.41111 17.225 5.93142 17.7499C6.45173 18.2749 7.07124 18.6912 7.75391 18.9745C8.43658 19.2578 9.16877 19.4026 9.9079 19.4003C10.636 19.4302 11.3623 19.3069 12.0398 19.0385C12.7173 18.7701 13.3309 18.3625 13.841 17.842C14.521 17.1087 14.9297 16.1648 14.9993 15.1672H9.9079V13.059H17.0742C17.1523 13.4962 17.1886 13.9398 17.1825 14.3839C17.2389 16.2126 16.5746 17.9902 15.3326 19.3336C14.6336 20.0597 13.7889 20.6296 12.854 21.0059C11.919 21.3822 10.915 21.5563 9.9079 21.5168Z" fill="#4285F4"/>
<path d="M28.2652 16.5172C28.2926 17.1837 28.1849 17.8489 27.9487 18.4728C27.7125 19.0967 27.3526 19.6664 26.8907 20.1476C26.4288 20.6289 25.8743 21.0119 25.2607 21.2735C24.647 21.5351 23.9868 21.6699 23.3197 21.6699C22.6526 21.6699 21.9923 21.5351 21.3787 21.2735C20.765 21.0119 20.2105 20.6289 19.7486 20.1476C19.2867 19.6664 18.9268 19.0967 18.6906 18.4728C18.4544 17.8489 18.3467 17.1837 18.3741 16.5172C18.3467 15.8506 18.4544 15.1854 18.6906 14.5615C18.9268 13.9377 19.2867 13.368 19.7486 12.8867C20.2105 12.4054 20.765 12.0224 21.3787 11.7608C21.9923 11.4992 22.6526 11.3644 23.3197 11.3644C23.9868 11.3644 24.647 11.4992 25.2607 11.7608C25.8743 12.0224 26.4288 12.4054 26.8907 12.8867C27.3526 13.368 27.7125 13.9377 27.9487 14.5615C28.1849 15.1854 28.2926 15.8506 28.2652 16.5172ZM26.0987 16.5172C26.1354 16.1301 26.0909 15.7396 25.968 15.3707C25.845 15.0018 25.6464 14.6626 25.3847 14.375C25.1231 14.0873 24.8043 13.8575 24.4487 13.7003C24.093 13.543 23.7085 13.4618 23.3197 13.4618C22.9308 13.4618 22.5463 13.543 22.1907 13.7003C21.835 13.8575 21.5162 14.0873 21.2546 14.375C20.9929 14.6626 20.7943 15.0018 20.6714 15.3707C20.5484 15.7396 20.5039 16.1301 20.5406 16.5172C20.5039 16.9042 20.5484 17.2948 20.6714 17.6636C20.7943 18.0325 20.9929 18.3717 21.2546 18.6593C21.5162 18.947 21.835 19.1768 22.1907 19.334C22.5463 19.4913 22.9308 19.5725 23.3197 19.5725C23.7085 19.5725 24.093 19.4913 24.4487 19.334C24.8043 19.1768 25.1231 18.947 25.3847 18.6593C25.6464 18.3717 25.845 18.0325 25.968 17.6636C26.0909 17.2948 26.1354 16.9042 26.0987 16.5172Z" fill="#EA4335"/>
<path d="M39.3563 16.5172C39.3836 17.1837 39.276 17.8489 39.0398 18.4728C38.8036 19.0967 38.4437 19.6664 37.9818 20.1476C37.5198 20.6289 36.9654 21.0119 36.3517 21.2735C35.738 21.5351 35.0778 21.6699 34.4107 21.6699C33.7436 21.6699 33.0834 21.5351 32.4697 21.2735C31.8561 21.0119 31.3016 20.6289 30.8397 20.1476C30.3777 19.6664 30.0178 19.0967 29.7816 18.4728C29.5454 17.8489 29.4378 17.1837 29.4651 16.5172C29.4378 15.8506 29.5454 15.1854 29.7816 14.5615C30.0178 13.9377 30.3777 13.368 30.8397 12.8867C31.3016 12.4054 31.8561 12.0224 32.4697 11.7608C33.0834 11.4992 33.7436 11.3644 34.4107 11.3644C35.0778 11.3644 35.738 11.4992 36.3517 11.7608C36.9654 12.0224 37.5198 12.4054 37.9818 12.8867C38.4437 13.368 38.8036 13.9377 39.0398 14.5615C39.276 15.1854 39.3836 15.8506 39.3563 16.5172ZM37.1897 16.5172C37.2194 16.1336 37.1695 15.748 37.0431 15.3846C36.9167 15.0212 36.7166 14.6878 36.4552 14.4055C36.1939 14.1231 35.877 13.8978 35.5244 13.7437C35.1719 13.5896 34.7913 13.5101 34.4065 13.5101C34.0218 13.5101 33.6412 13.5896 33.2887 13.7437C32.9361 13.8978 32.6192 14.1231 32.3579 14.4055C32.0965 14.6878 31.8964 15.0212 31.77 15.3846C31.6436 15.748 31.5937 16.1336 31.6234 16.5172C31.5937 16.9008 31.6436 17.2864 31.77 17.6497C31.8964 18.0131 32.0965 18.3465 32.3579 18.6288C32.6192 18.9112 32.9361 19.1365 33.2887 19.2906C33.6412 19.4447 34.0218 19.5242 34.4065 19.5242C34.7913 19.5242 35.1719 19.4447 35.5244 19.2906C35.877 19.1365 36.1939 18.9112 36.4552 18.6288C36.7166 18.3465 36.9167 18.0131 37.0431 17.6497C37.1695 17.2864 37.2194 16.9008 37.1897 16.5172Z" fill="#FBBC04"/>
<path d="M50.164 11.834V20.8002C50.164 24.4833 47.9725 25.9999 45.3893 25.9999C44.4386 26.0051 43.5079 25.7274 42.7155 25.2021C41.9231 24.6769 41.3049 23.9277 40.9395 23.0501L42.8644 22.2168C43.0584 22.7277 43.3993 23.1697 43.8442 23.4871C44.2891 23.8044 44.8181 23.9829 45.3643 24C47.0309 24 48.0475 22.9751 48.0475 21.0668V20.3502H47.9975C47.6641 20.7263 47.253 21.0255 46.7926 21.2269C46.3321 21.4284 45.8334 21.5273 45.3309 21.5168C44.0049 21.5168 42.7332 20.99 41.7956 20.0524C40.858 19.1148 40.3312 17.8431 40.3312 16.5171C40.3312 15.1911 40.858 13.9194 41.7956 12.9817C42.7332 12.0441 44.0049 11.5174 45.3309 11.5174C45.8317 11.5081 46.3286 11.6059 46.7885 11.8042C47.2483 12.0025 47.6605 12.2968 47.9975 12.6673H48.0725V11.834H50.164ZM48.2225 16.5504C48.2531 16.1726 48.2073 15.7925 48.088 15.4328C47.9686 15.073 47.7781 14.741 47.5277 14.4564C47.2774 14.1718 46.9723 13.9406 46.6307 13.7763C46.2891 13.6121 45.9179 13.5183 45.5393 13.5006C45.1547 13.5144 44.7767 13.6047 44.4274 13.7661C44.0781 13.9275 43.7644 14.1568 43.5045 14.4406C43.2447 14.7245 43.044 15.0572 42.9141 15.4195C42.7841 15.7817 42.7276 16.1661 42.7478 16.5504C42.7299 16.9321 42.7883 17.3135 42.9195 17.6724C43.0508 18.0312 43.2523 18.3603 43.5122 18.6404C43.7721 18.9205 44.0852 19.1459 44.4333 19.3036C44.7813 19.4612 45.1573 19.5479 45.5393 19.5586C45.9164 19.5452 46.2869 19.4555 46.6283 19.2949C46.9698 19.1342 47.2751 18.9061 47.5259 18.6241C47.7767 18.3422 47.9678 18.0123 48.0875 17.6544C48.2072 17.2966 48.2531 16.9182 48.2225 16.5421V16.5504Z" fill="#4285F4"/>
<path d="M54.0221 6.53433V21.2169H51.8223V6.53433H54.0221Z" fill="#34A853"/>
<path d="M62.6883 18.167L64.4049 19.3336C63.9466 20.0176 63.3265 20.5777 62.5997 20.9644C61.8728 21.3511 61.0617 21.5523 60.2385 21.5502C59.5835 21.5595 58.9335 21.4359 58.3278 21.1868C57.722 20.9377 57.1731 20.5682 56.7143 20.1008C56.2554 19.6334 55.8962 19.0778 55.6583 18.4675C55.4205 17.8572 55.3089 17.2051 55.3304 16.5504C55.2328 15.425 55.5528 14.3031 56.2294 13.3985C56.9059 12.4938 57.8917 11.8698 58.9988 11.6453C60.1059 11.4208 61.2569 11.6115 62.2324 12.1811C63.2079 12.7507 63.9397 13.6594 64.2882 14.7339L64.5132 15.3088L57.8469 18.067C58.0546 18.5339 58.3974 18.9279 58.8311 19.1982C59.2648 19.4685 59.7695 19.6028 60.2801 19.5836C60.769 19.5725 61.247 19.4365 61.6685 19.1886C62.09 18.9406 62.4411 18.589 62.6883 18.167ZM57.4303 16.3671L61.9134 14.5172C61.7339 14.1854 61.4621 13.9127 61.1308 13.7322C60.7995 13.5518 60.4229 13.4713 60.0468 13.5006C59.6867 13.5167 59.3332 13.6036 59.0067 13.7564C58.6802 13.9092 58.387 14.1249 58.144 14.3912C57.901 14.6574 57.7128 14.969 57.5903 15.3081C57.4679 15.6471 57.4135 16.007 57.4303 16.3671Z" fill="#EA4335"/>
</svg>
