<svg width="120" height="32" viewBox="0 0 120 32" fill="none" xmlns="http://www.w3.org/2000/svg">
<path d="M15.8811 11.9786L16.5561 11.9881L18.391 10.1532L18.4766 9.37361C17.022 8.08061 15.1015 7.2915 13.0004 7.2915C9.19743 7.2915 5.99346 9.8775 5.04272 13.3857C5.24238 13.2431 5.67021 13.3477 5.67021 13.3477L9.34004 12.7487C9.34004 12.7487 9.53019 12.435 9.62526 12.454C10.4619 11.5318 11.6693 10.9613 13.0099 10.9613C14.0937 10.9613 15.092 11.3416 15.8811 11.9786Z" fill="#EA4335"/>
<path d="M20.9687 13.3856C20.5408 11.8169 19.6662 10.4289 18.4777 9.37354L15.8822 11.969C16.9185 12.8057 17.5936 14.0987 17.5936 15.5343V15.9906C18.858 15.9906 19.8848 17.0174 19.8848 18.2819C19.8848 19.5464 18.8485 20.5827 17.5841 20.5827H13.0015L12.5452 21.0391V23.7867L13.0015 24.243H17.5841C20.8736 24.243 23.5452 21.5715 23.5452 18.2819C23.5452 16.2569 22.5184 14.46 20.9687 13.3856Z" fill="#4285F4"/>
<path d="M8.41702 24.2525H12.9996V20.5827H8.41702C8.08426 20.5827 7.76101 20.5066 7.47579 20.3735L6.81978 20.5732L4.98487 22.4081L4.82324 23.0261C5.82151 23.7962 7.06698 24.2525 8.41702 24.2525Z" fill="#34A853"/>
<path d="M8.41716 12.3306C5.12762 12.3306 2.45605 15.0021 2.45605 18.2917C2.45605 20.2217 3.38777 21.9425 4.81388 23.0358L7.47593 20.3738C6.67731 20.0125 6.12589 19.2139 6.12589 18.2822C6.12589 17.0177 7.15268 15.9909 8.41716 15.9909C9.34888 15.9909 10.1475 16.5423 10.5088 17.3409L13.1708 14.6789C12.0775 13.2623 10.3567 12.3306 8.41716 12.3306Z" fill="#FBBC05"/>
<path d="M34.3088 20.4118C32.5882 20.4118 31.1176 19.8088 29.8676 18.5882C28.6324 17.3676 28 15.9118 28 14.2059C28 12.5 28.6176 11.0441 29.8676 9.82353C31.1029 8.60294 32.5882 8 34.3088 8C35.9559 8 37.3676 8.57353 38.5588 9.70588L37.3676 10.8971C36.5147 10.0882 35.4853 9.69118 34.3088 9.69118C33.0735 9.69118 32.0147 10.1324 31.1471 11.0147C30.2794 11.8971 29.8529 12.9559 29.8529 14.2059C29.8529 15.4559 30.2794 16.5147 31.1471 17.3971C32.0147 18.2794 33.0588 18.7206 34.3088 18.7206C35.5735 18.7206 36.6176 18.3088 37.4412 17.4853C37.9412 16.9853 38.25 16.2794 38.3676 15.3529H34.3088V13.6618H40.0147C40.0735 13.9706 40.1029 14.3235 40.1029 14.7206C40.1029 16.3824 39.6176 17.7059 38.6324 18.6912C37.5294 19.8382 36.0882 20.4118 34.3088 20.4118ZM47.5735 19.2647C46.7941 20.0294 45.8529 20.4118 44.7206 20.4118C43.6029 20.4118 42.6471 20.0294 41.8676 19.2647C41.0882 18.5 40.7059 17.5588 40.7059 16.4118C40.7059 15.2647 41.0882 14.3235 41.8676 13.5588C42.6471 12.7941 43.5882 12.4118 44.7206 12.4118C45.8382 12.4118 46.7941 12.7941 47.5735 13.5588C48.3529 14.3235 48.7353 15.2647 48.7353 16.4118C48.7353 17.5588 48.3529 18.5147 47.5735 19.2647ZM43.1324 18.1471C43.5735 18.6029 44.1029 18.8382 44.7206 18.8382C45.3382 18.8382 45.8676 18.6029 46.3088 18.1471C46.75 17.6912 46.9706 17.1029 46.9706 16.4118C46.9706 15.7059 46.75 15.1324 46.3088 14.6765C45.8676 14.2206 45.3382 14 44.7059 14C44.0735 14 43.5441 14.2206 43.1029 14.6765C42.6618 15.1324 42.4412 15.7059 42.4412 16.4118C42.4706 17.1176 42.6912 17.6912 43.1324 18.1471ZM56.3235 19.2647C55.5441 20.0294 54.6029 20.4118 53.4706 20.4118C52.3529 20.4118 51.3971 20.0294 50.6176 19.2647C49.8382 18.5 49.4559 17.5588 49.4559 16.4118C49.4559 15.2647 49.8382 14.3235 50.6176 13.5588C51.3971 12.7941 52.3382 12.4118 53.4706 12.4118C54.5882 12.4118 55.5441 12.7941 56.3235 13.5588C57.1029 14.3235 57.4853 15.2647 57.4853 16.4118C57.4853 17.5588 57.0882 18.5147 56.3235 19.2647ZM51.8823 18.1471C52.3235 18.6029 52.8529 18.8382 53.4706 18.8382C54.0882 18.8382 54.6176 18.6029 55.0588 18.1471C55.5 17.6912 55.7206 17.1029 55.7206 16.4118C55.7206 15.7059 55.5 15.1324 55.0588 14.6765C54.6176 14.2206 54.0882 14 53.4559 14C52.8235 14 52.2941 14.2206 51.8529 14.6765C51.4118 15.1324 51.1912 15.7059 51.1912 16.4118C51.2206 17.1176 51.4412 17.6912 51.8823 18.1471ZM62.0735 24C61.1912 24 60.4412 23.7647 59.8382 23.2941C59.2353 22.8235 58.7941 22.2647 58.5294 21.6471L60.0588 21.0147C60.2206 21.3971 60.4706 21.7353 60.8088 22.0147C61.147 22.2941 61.5735 22.4412 62.0588 22.4412C62.7206 22.4412 63.25 22.2353 63.6323 21.8382C64.0147 21.4412 64.2059 20.8529 64.2059 20.1029V19.5294H64.1471C63.6471 20.1324 62.9559 20.4412 62.0441 20.4412C61.0294 20.4412 60.1323 20.0588 59.3676 19.2794C58.6029 18.5 58.2206 17.5588 58.2206 16.4706C58.2206 15.3676 58.6029 14.4118 59.3676 13.6324C60.1323 12.8529 61.0294 12.4559 62.0441 12.4559C62.5 12.4559 62.9118 12.5441 63.2794 12.7059C63.647 12.8824 63.9412 13.0882 64.1471 13.3382H64.2059V12.6912H65.8676V19.8676C65.8676 21.2647 65.5147 22.3088 64.7941 23C64.0882 23.6471 63.1765 24 62.0735 24ZM62.1912 18.8382C62.7941 18.8382 63.3088 18.6029 63.7059 18.1471C64.1176 17.6912 64.3235 17.1176 64.3235 16.4265C64.3235 15.7353 64.1176 15.1471 63.7059 14.6912C63.2941 14.2206 62.7941 14 62.1912 14C61.5735 14 61.0441 14.2353 60.6176 14.6912C60.1765 15.1618 59.9706 15.7353 59.9706 16.4265C59.9706 17.1176 60.1912 17.6912 60.6176 18.1471C61.0441 18.6029 61.5735 18.8382 62.1912 18.8382ZM68.8382 8.42647V20.1765H67.0882V8.42647H68.8382ZM73.647 20.4118C72.5147 20.4118 71.5735 20.0294 70.8235 19.2647C70.0735 18.5 69.6912 17.5441 69.6912 16.4118C69.6912 15.2353 70.0588 14.2794 70.7941 13.5294C71.5294 12.7794 72.4118 12.4118 73.4706 12.4118C73.9559 12.4118 74.397 12.5 74.8235 12.6765C75.2353 12.8529 75.5735 13.0735 75.8529 13.3529C76.1323 13.6324 76.3382 13.8971 76.5 14.1618C76.6618 14.4265 76.7941 14.6912 76.8971 14.9559L77.0735 15.4118L71.7353 17.6176C72.1471 18.4265 72.7941 18.8235 73.6765 18.8235C74.4853 18.8235 75.1323 18.4559 75.6471 17.7206L77.0147 18.6324C76.7059 19.0882 76.2794 19.5 75.7353 19.8529C75.1323 20.2353 74.4559 20.4118 73.647 20.4118ZM71.4265 16.2941L75 14.8088C74.8971 14.5588 74.7059 14.3529 74.4412 14.1912C74.1618 14.0294 73.8676 13.9559 73.5147 13.9559C73 13.9559 72.5147 14.1618 72.0735 14.5882C71.6176 15.0294 71.397 15.5882 71.4265 16.2941Z" fill="white"/>
<path d="M86.2788 20.4117C84.6906 20.4117 83.3524 19.8676 82.2641 18.7941C81.1906 17.7205 80.6465 16.3676 80.6465 14.75C80.6465 13.1323 81.1906 11.7941 82.2641 10.7058C83.3377 9.63231 84.6759 9.0882 86.2788 9.0882C87.9112 9.0882 89.2347 9.67643 90.2641 10.8529L89.2935 11.7941C88.5582 10.8823 87.5582 10.4117 86.2788 10.4117C85.1024 10.4117 84.1024 10.8088 83.2935 11.6029C82.4847 12.397 82.073 13.4411 82.073 14.7353C82.073 16.0294 82.4847 17.0735 83.2935 17.8676C84.1024 18.6617 85.1024 19.0588 86.2788 19.0588C87.5877 19.0588 88.6906 18.5294 89.6024 17.4853L90.573 18.4558C90.073 19.0441 89.4553 19.5294 88.7053 19.8676C87.97 20.2353 87.1465 20.4117 86.2788 20.4117Z" fill="white"/>
<path d="M93.2057 20.1764H91.8086V9.33821H93.2057V20.1764Z" fill="white"/>
<path d="M95.47 13.6324C96.1906 12.8824 97.1024 12.5 98.2053 12.5C99.3083 12.5 100.235 12.8824 100.941 13.6324C101.661 14.3824 102.014 15.3235 102.014 16.4559C102.014 17.5882 101.661 18.5294 100.941 19.2794C100.22 20.0294 99.3083 20.4118 98.2053 20.4118C97.1024 20.4118 96.1759 20.0294 95.47 19.2794C94.7494 18.5294 94.3965 17.5882 94.3965 16.4559C94.3965 15.3382 94.7641 14.3971 95.47 13.6324ZM96.5141 18.4118C96.9994 18.8971 97.5583 19.1471 98.22 19.1471C98.8818 19.1471 99.4406 18.8971 99.9259 18.4118C100.411 17.9265 100.646 17.2794 100.646 16.4706C100.646 15.6618 100.411 15.0147 99.9259 14.5294C99.4406 14.0441 98.8818 13.7941 98.22 13.7941C97.5583 13.7941 96.9994 14.0441 96.5141 14.5294C96.0288 15.0147 95.7935 15.6618 95.7935 16.4706C95.7935 17.2647 96.0288 17.9118 96.5141 18.4118Z" fill="white"/>
<path d="M109.735 20.1765H108.396V19.1471H108.338C108.132 19.5 107.808 19.7941 107.367 20.0441C106.926 20.2941 106.47 20.4118 105.985 20.4118C105.058 20.4118 104.352 20.1323 103.867 19.5588C103.382 19 103.146 18.2353 103.146 17.2941V12.75H104.544V17.0588C104.544 18.4412 105.161 19.1324 106.382 19.1324C106.955 19.1324 107.426 18.8971 107.794 18.4412C108.161 17.9706 108.338 17.4412 108.338 16.8382V12.75H109.735V20.1765Z" fill="white"/>
<path d="M114.456 20.4117C113.5 20.4117 112.677 20.0294 111.971 19.2794C111.28 18.5294 110.927 17.5882 110.927 16.4706C110.927 15.3529 111.28 14.4117 111.971 13.6617C112.662 12.9117 113.5 12.5294 114.456 12.5294C115.015 12.5294 115.53 12.647 115.971 12.897C116.427 13.1323 116.75 13.4411 116.971 13.8088H117.03L116.971 12.7794V9.33821H118.368V20.1764H117.03V19.147H116.971C116.75 19.5147 116.412 19.8088 115.971 20.0588C115.53 20.2941 115.03 20.4117 114.456 20.4117ZM114.691 19.147C115.353 19.147 115.912 18.9117 116.368 18.4264C116.824 17.9411 117.059 17.2941 117.059 16.4706C117.059 15.647 116.824 15 116.368 14.5147C115.912 14.0294 115.353 13.7941 114.691 13.7941C114.044 13.7941 113.485 14.0441 113.03 14.5294C112.559 15.0147 112.338 15.6617 112.338 16.4706C112.338 17.2794 112.574 17.9264 113.03 18.4117C113.485 18.897 114.044 19.147 114.691 19.147Z" fill="white"/>
</svg>
