<svg width="120" height="32" viewBox="0 0 120 32" fill="none" xmlns="http://www.w3.org/2000/svg">
<path d="M35.951 14.2834C35.9063 14.2834 35.8624 14.2715 35.8241 14.2486C35.7857 14.2258 35.7542 14.1929 35.733 14.1536L33.7168 10.5813C33.6971 10.5526 33.6836 10.5202 33.6772 10.486C33.6707 10.4518 33.6714 10.4166 33.6792 10.3827C33.6871 10.3488 33.7019 10.3169 33.7227 10.2891C33.7435 10.2612 33.7699 10.2379 33.8002 10.2207C33.8305 10.2036 33.864 10.1929 33.8986 10.1893C33.9333 10.1858 33.9683 10.1895 34.0014 10.2001C34.0346 10.2108 34.0651 10.2282 34.0912 10.2513C34.1172 10.2744 34.1382 10.3026 34.1528 10.3342L36.169 13.9107C36.1853 13.9392 36.1956 13.9707 36.1996 14.0033C36.2035 14.0359 36.2009 14.0689 36.192 14.1005C36.183 14.1321 36.1678 14.1615 36.1473 14.1872C36.1268 14.2129 36.1014 14.2342 36.0725 14.25C36.0363 14.2731 35.9939 14.2848 35.951 14.2834ZM39.711 18.4504L36.4162 23.9408C36.4089 23.9562 36.399 23.9705 36.3869 23.9827L31.4281 31.8811C31.4056 31.9175 31.3741 31.9474 31.3367 31.9683C31.2993 31.989 31.2572 32 31.2144 32C31.1715 32 31.1294 31.989 31.092 31.9683C31.0546 31.9474 31.0231 31.9175 31.0006 31.8811L22.6381 18.5592C22.2299 17.9112 22.0092 17.1628 22.0003 16.397C21.9914 15.6313 22.1947 14.878 22.5878 14.2206L30.9964 0.124089C31.0217 0.080991 31.0593 0.0464111 31.1044 0.0247737C31.1495 0.0031362 31.2 -0.00457556 31.2495 0.00261738C31.299 0.00981032 31.3452 0.0315818 31.3823 0.065155C31.4193 0.0987283 31.4455 0.142576 31.4575 0.191095L39.7571 14.2081C40.1419 14.8506 40.3413 15.5871 40.3331 16.3358C40.325 17.0845 40.1097 17.8164 39.711 18.4504ZM32.9916 18.7352L34.5426 16.1889C34.646 16.0203 34.7032 15.8274 34.7084 15.6295C34.7135 15.4318 34.6665 15.2362 34.5719 15.0624L31.4659 9.84843V11.4524L33.3102 14.673C33.4402 14.8996 33.5075 15.1568 33.5053 15.418C33.5031 15.6792 33.4314 15.9352 33.2976 16.1596L32.8785 16.8591C32.8562 16.8967 32.8242 16.9278 32.7859 16.9492C32.7476 16.9706 32.7043 16.9813 32.6605 16.9805C32.6162 16.9818 32.5725 16.9702 32.5348 16.947C32.506 16.9306 32.4809 16.9086 32.4609 16.8823C32.4408 16.856 32.4263 16.8258 32.4181 16.7938C32.4099 16.7619 32.4082 16.7285 32.4131 16.6958C32.418 16.6632 32.4294 16.6318 32.4467 16.6035L32.8659 15.9C32.9537 15.7527 33.0008 15.5847 33.0022 15.4133C33.0037 15.2417 32.9596 15.073 32.8743 14.9242L31.4659 12.4659V14.9871C31.4644 15.9865 31.7686 16.9626 32.3377 17.7845L32.9916 18.7352ZM35.8881 23.8319L31.9228 18.0693C31.2956 17.1637 30.9607 16.0882 30.9629 14.9871V1.16688L23.0196 14.4803C22.6739 15.0577 22.4952 15.7196 22.5034 16.3923C22.5115 17.0651 22.7062 17.7224 23.0657 18.2912L31.2144 31.2738L35.8881 23.8319ZM39.3253 14.4677L31.4659 1.19201V2.59496L36.3367 11.1844C36.3531 11.213 36.3638 11.2445 36.3682 11.2773C36.3725 11.31 36.3703 11.3433 36.3617 11.3752C36.3532 11.4071 36.3384 11.437 36.3183 11.4632C36.2981 11.4893 36.2731 11.5113 36.2444 11.5278C36.2056 11.5486 36.1627 11.5601 36.1187 11.5613C36.0745 11.5613 36.0311 11.5497 35.9928 11.5277C35.9545 11.5056 35.9228 11.4739 35.9007 11.4357L31.4659 3.61262V5.6647L33.6623 9.41709C33.6796 9.44527 33.691 9.47664 33.6959 9.50932C33.7009 9.54201 33.6992 9.57535 33.691 9.60737C33.6828 9.6394 33.6682 9.66945 33.6482 9.69574C33.6281 9.72205 33.603 9.74406 33.5743 9.76048C33.5364 9.78327 33.4928 9.79489 33.4485 9.79399C33.4047 9.79488 33.3614 9.7841 33.3231 9.76276C33.2848 9.74142 33.2529 9.71028 33.2306 9.67255L31.4659 6.65724V8.87684L35.0037 14.807V14.8153C35.141 15.0678 35.2098 15.3518 35.2031 15.6391C35.1966 15.9263 35.1147 16.2069 34.966 16.4528L33.2935 19.1917L34.0438 20.2764L36.3491 16.5198C36.4917 16.2852 36.6971 15.8288 36.4456 15.4017L36.2402 15.0456C36.2237 15.0171 36.2129 14.9855 36.2086 14.9527C36.2043 14.92 36.2065 14.8868 36.215 14.8548C36.2237 14.8229 36.2384 14.793 36.2585 14.7668C36.2786 14.7407 36.3038 14.7187 36.3325 14.7023C36.3905 14.67 36.4588 14.6616 36.5229 14.6788C36.5871 14.696 36.6421 14.7375 36.6762 14.7944L36.8816 15.1461C37.1582 15.6278 37.1246 16.2225 36.7767 16.7836L34.3539 20.7286L35.1252 21.8469L38.0511 17.1271C38.2182 16.856 38.3092 16.5448 38.3144 16.2264C38.3195 15.908 38.2387 15.5942 38.0803 15.3178L36.4456 12.4785C36.4123 12.4207 36.4032 12.352 36.4205 12.2877C36.4378 12.2233 36.4801 12.1684 36.5379 12.135C36.5957 12.1017 36.6643 12.0927 36.7288 12.11C36.7933 12.1273 36.8482 12.1694 36.8816 12.2272L38.5163 15.0666C38.7195 15.4217 38.8231 15.8249 38.8164 16.2339C38.8099 16.6429 38.6932 17.0425 38.4785 17.3909L35.4354 22.2992L36.169 23.367L39.2708 18.1866C39.275 18.1866 39.275 18.1866 39.275 18.1824C39.6258 17.6283 39.8162 16.9879 39.8251 16.3322C39.834 15.6765 39.661 15.0312 39.3253 14.4677Z" fill="url(#paint0_linear_710_5579)"/>
<path d="M75.7885 10.7344H75.5272C75.473 10.7344 75.4459 10.7073 75.4459 10.6531V7.08147C75.4459 7.02727 75.473 7.00017 75.5272 7.00017H75.7885C75.8427 7.00017 75.8698 7.02727 75.8698 7.08147V8.60883C75.8698 8.64368 75.8892 8.6611 75.9279 8.6611H77.3681C77.4068 8.6611 77.4262 8.64368 77.4262 8.60883V7.08147C77.4262 7.02727 77.4533 7.00017 77.5075 7.00017H77.7688C77.823 7.00017 77.8501 7.02727 77.8501 7.08147V10.6531C77.8501 10.7073 77.823 10.7344 77.7688 10.7344H77.5075C77.4533 10.7344 77.4262 10.7073 77.4262 10.6531V9.08504C77.4262 9.0502 77.4068 9.03278 77.3681 9.03278H75.9279C75.8892 9.03278 75.8698 9.0502 75.8698 9.08504V10.6531C75.8698 10.7073 75.8427 10.7344 75.7885 10.7344Z" fill="white"/>
<path d="M73.8794 10.7344H73.618C73.5638 10.7344 73.5367 10.7073 73.5367 10.6531V7.42411C73.5367 7.38927 73.5174 7.37185 73.4786 7.37185H72.6888C72.6308 7.37185 72.6017 7.34475 72.6017 7.29054V7.08147C72.6017 7.02727 72.6308 7.00017 72.6888 7.00017H74.8085C74.8666 7.00017 74.8957 7.02727 74.8957 7.08147V7.29054C74.8957 7.34475 74.8666 7.37185 74.8085 7.37185H74.0187C73.98 7.37185 73.9607 7.38927 73.9607 7.42411V10.6531C73.9607 10.7073 73.9336 10.7344 73.8794 10.7344Z" fill="white"/>
<path d="M72.0196 7.08147V10.6531C72.0196 10.7073 71.9925 10.7344 71.9383 10.7344H71.677C71.6228 10.7344 71.5956 10.7073 71.5956 10.6531V7.08147C71.5956 7.02727 71.6228 7.00017 71.677 7.00017H71.9383C71.9925 7.00017 72.0196 7.02727 72.0196 7.08147Z" fill="white"/>
<path d="M67.9264 10.7344H67.4792C67.425 10.7344 67.3921 10.7073 67.3805 10.6531L66.6372 7.08147C66.6256 7.02727 66.6507 7.00017 66.7127 7.00017H67.0263C67.0843 7.00017 67.1153 7.02727 67.1192 7.08147L67.7057 10.2814H67.7406L68.5246 7.07567C68.5362 7.02534 68.5672 7.00017 68.6175 7.00017H68.966C69.0163 7.00017 69.0473 7.02534 69.0589 7.07567L69.8545 10.2814H69.8893L70.4701 7.08728C70.4817 7.02921 70.5146 7.00017 70.5688 7.00017H70.8824C70.9444 7.00017 70.9695 7.02921 70.9579 7.08728L70.2087 10.6531C70.1971 10.7073 70.1662 10.7344 70.1158 10.7344H69.6687C69.6145 10.7344 69.5815 10.7073 69.5699 10.6531L68.8092 7.53446H68.7859L68.0193 10.6531C68.0077 10.7073 67.9767 10.7344 67.9264 10.7344Z" fill="white"/>
<path d="M62.4269 10.7344H62.1713C62.1171 10.7344 62.09 10.7073 62.09 10.6531V7.08147C62.09 7.02727 62.1171 7.00017 62.1713 7.00017H62.4094C62.4559 7.00017 62.4869 7.01566 62.5024 7.04663L64.1052 9.86324H64.1284V7.08147C64.1284 7.02727 64.1555 7.00017 64.2098 7.00017H64.4653C64.5195 7.00017 64.5466 7.02727 64.5466 7.08147V10.6531C64.5466 10.7073 64.5195 10.7344 64.4653 10.7344H64.2504C64.2078 10.7344 64.1672 10.7092 64.1284 10.6589L62.5314 7.87129H62.5082V10.6531C62.5082 10.7073 62.4811 10.7344 62.4269 10.7344Z" fill="white"/>
<path d="M61.1423 7.08147V10.6531C61.1423 10.7073 61.1152 10.7344 61.061 10.7344H60.7996C60.7454 10.7344 60.7183 10.7073 60.7183 10.6531V7.08147C60.7183 7.02727 60.7454 7.00017 60.7996 7.00017H61.061C61.1152 7.00017 61.1423 7.02727 61.1423 7.08147Z" fill="white"/>
<path d="M59.9197 9.05595H58.735C58.6808 9.05595 58.6537 9.02885 58.6537 8.97465V8.783C58.6537 8.7288 58.6808 8.7017 58.735 8.7017H59.9197C59.9739 8.7017 60.001 8.7288 60.001 8.783V8.97465C60.001 9.02885 59.9739 9.05595 59.9197 9.05595Z" fill="white"/>
<path d="M55.8426 10.7344H55.5871C55.5329 10.7344 55.5058 10.7073 55.5058 10.6531V7.08147C55.5058 7.02727 55.5329 7.00017 55.5871 7.00017H55.8252C55.8716 7.00017 55.9026 7.01566 55.9181 7.04663L57.521 9.86324H57.5442V7.08147C57.5442 7.02727 57.5713 7.00017 57.6255 7.00017H57.881C57.9352 7.00017 57.9623 7.02727 57.9623 7.08147V10.6531C57.9623 10.7073 57.9352 10.7344 57.881 10.7344H57.6661C57.6236 10.7344 57.5829 10.7092 57.5442 10.6589L55.9471 7.87129H55.9239V10.6531C55.9239 10.7073 55.8968 10.7344 55.8426 10.7344Z" fill="white"/>
<path d="M53.7921 10.7344H53.1649C52.8977 10.7344 52.6867 10.6589 52.5319 10.5079C52.3809 10.3569 52.3054 10.1459 52.3054 9.87485V7.85967C52.3054 7.58866 52.3809 7.37765 52.5319 7.22666C52.6867 7.07567 52.8977 7.00017 53.1649 7.00017H53.7921C54.0592 7.00017 54.2683 7.0776 54.4193 7.23247C54.5703 7.38346 54.6458 7.59253 54.6458 7.85967V8.09778C54.6458 8.15585 54.6187 8.18489 54.5645 8.18489H54.3031C54.2489 8.18489 54.2218 8.15585 54.2218 8.09778V7.87709C54.2218 7.54026 54.0612 7.37185 53.7398 7.37185H53.2113C52.89 7.37185 52.7293 7.54026 52.7293 7.87709V9.85743C52.7293 10.1943 52.89 10.3627 53.2113 10.3627H53.7398C54.0612 10.3627 54.2218 10.1943 54.2218 9.85743V9.207C54.2218 9.16828 54.2044 9.14892 54.1696 9.14892H53.5946C53.5404 9.14892 53.5133 9.12376 53.5133 9.07343V8.85855C53.5133 8.80435 53.5404 8.77725 53.5946 8.77725H54.5296C54.6071 8.77725 54.6458 8.8179 54.6458 8.8992V9.87485C54.6458 10.1459 54.5703 10.3569 54.4193 10.5079C54.2683 10.6589 54.0592 10.7344 53.7921 10.7344Z" fill="white"/>
<path d="M51.4161 7.08147V10.6531C51.4161 10.7073 51.389 10.7344 51.3348 10.7344H51.0734C51.0192 10.7344 50.9921 10.7073 50.9921 10.6531V7.08147C50.9921 7.02727 51.0192 7.00017 51.0734 7.00017H51.3348C51.389 7.00017 51.4161 7.02727 51.4161 7.08147Z" fill="white"/>
<path d="M47.7009 9.87468V9.68885C47.7009 9.63464 47.728 9.60754 47.7822 9.60754H48.0436C48.0978 9.60754 48.1249 9.63464 48.1249 9.68885V9.83984C48.1249 10.1883 48.2972 10.3625 48.6417 10.3625H49.1528C49.4974 10.3625 49.6697 10.1844 49.6697 9.82822V9.63077C49.6697 9.35201 49.4393 9.17005 48.9786 9.08487C48.785 9.05003 48.5914 9.00937 48.3978 8.96292C48.2042 8.91646 48.0397 8.82741 47.9042 8.69577C47.7687 8.56027 47.7009 8.37636 47.7009 8.14407V7.8595C47.7009 7.59236 47.7764 7.38329 47.9274 7.2323C48.0823 7.07743 48.2933 7 48.5604 7H49.2051C49.4683 7 49.6774 7.07743 49.8323 7.2323C49.9871 7.38329 50.0646 7.59236 50.0646 7.8595V8.00469C50.0646 8.06276 50.0394 8.0918 49.9891 8.0918H49.7219C49.6716 8.0918 49.6464 8.06276 49.6464 8.00469V7.90015C49.6464 7.54784 49.4741 7.37168 49.1296 7.37168H48.6359C48.2914 7.37168 48.1191 7.55558 48.1191 7.92338V8.15568C48.1191 8.35313 48.2488 8.48864 48.5082 8.5622C48.6243 8.59317 48.7521 8.62221 48.8915 8.64931C49.0308 8.67254 49.1702 8.70545 49.3096 8.74804C49.4528 8.78676 49.5825 8.83709 49.6987 8.89903C49.8148 8.95711 49.9078 9.04809 49.9774 9.17198C50.051 9.292 50.0878 9.43913 50.0878 9.61335V9.87468C50.0878 10.1418 50.0104 10.3528 49.8555 10.5077C49.7006 10.6587 49.4916 10.7342 49.2283 10.7342H48.5604C48.2972 10.7342 48.0881 10.6587 47.9332 10.5077C47.7784 10.3528 47.7009 10.1418 47.7009 9.87468Z" fill="white"/>
<path d="M111.07 14.8347H113.41C113.631 14.8347 113.742 14.9454 113.742 15.1667V24.668C113.742 24.8893 113.631 25 113.41 25H112.113C111.892 25 111.781 24.8893 111.781 24.668V17.1745H111.718L110.106 22.4705C110.042 22.6813 109.911 22.7867 109.71 22.7867H108.382C108.182 22.7867 108.05 22.6813 107.987 22.4705L106.343 17.1587H106.28V24.668C106.28 24.7945 106.259 24.8841 106.216 24.9368C106.174 24.9789 106.085 25 105.948 25H104.651C104.43 25 104.319 24.8893 104.319 24.668V15.1667C104.319 14.9454 104.43 14.8347 104.651 14.8347H107.007C107.154 14.8347 107.255 14.9085 107.307 15.056L108.983 20.6367H109.078L110.77 15.056C110.801 14.9085 110.901 14.8347 111.07 14.8347Z" fill="white"/>
<path d="M100.674 14.8347H102.002C102.234 14.8347 102.35 14.9401 102.35 15.1509V22.4231C102.35 23.2452 102.118 23.8828 101.654 24.336C101.201 24.7787 100.564 25 99.7415 25H98.0025C97.1699 25 96.527 24.7787 96.0738 24.336C95.6206 23.8934 95.394 23.2557 95.394 22.4231V15.1667C95.394 14.9454 95.5047 14.8347 95.726 14.8347H97.0698C97.2911 14.8347 97.4018 14.9454 97.4018 15.1667V22.3283C97.4018 22.6655 97.4703 22.9079 97.6073 23.0555C97.7549 23.1925 97.992 23.261 98.3187 23.261H99.4096C99.7468 23.261 99.984 23.1925 100.121 23.0555C100.269 22.9079 100.342 22.6655 100.342 22.3283V15.1667C100.342 14.9454 100.453 14.8347 100.674 14.8347Z" fill="white"/>
<path d="M93.4098 25H88.2402C88.0189 25 87.9082 24.8893 87.9082 24.668V15.1667C87.9082 14.9454 88.0189 14.8347 88.2402 14.8347H93.4098C93.6206 14.8347 93.726 14.9454 93.726 15.1667V16.2417C93.726 16.4631 93.6206 16.5737 93.4098 16.5737H90.1057C89.9792 16.5737 89.916 16.6317 89.916 16.7476V18.8028C89.916 18.9187 89.9792 18.9767 90.1057 18.9767H92.8091C93.0304 18.9767 93.1411 19.0874 93.1411 19.3087V20.3837C93.1411 20.6051 93.0304 20.7157 92.8091 20.7157H90.1057C89.9792 20.7157 89.916 20.7737 89.916 20.8896V23.0871C89.916 23.203 89.9792 23.261 90.1057 23.261H93.4098C93.6206 23.261 93.726 23.3717 93.726 23.593V24.668C93.726 24.8893 93.6206 25 93.4098 25Z" fill="white"/>
<path d="M80.9385 25H79.5948C79.3734 25 79.2628 24.8893 79.2628 24.668V15.1667C79.2628 14.9454 79.3734 14.8347 79.5948 14.8347H83.3573C84.1794 14.8347 84.8223 15.0613 85.2861 15.5145C85.7498 15.9677 85.9817 16.6053 85.9817 17.4274V18.6605C85.9817 19.8515 85.5127 20.6419 84.5746 21.0319V21.0951L86.2662 24.6206C86.3611 24.8735 86.2715 25 85.9975 25H84.7169C84.5272 25 84.3902 24.9789 84.3059 24.9368C84.2216 24.8946 84.1531 24.805 84.1004 24.668L82.5195 21.2532H81.4602C81.3338 21.2532 81.2705 21.3112 81.2705 21.4271V24.668C81.2705 24.8893 81.1599 25 80.9385 25ZM81.4444 19.6407H82.9937C83.331 19.6407 83.5787 19.5722 83.7368 19.4352C83.8949 19.2876 83.9739 19.0558 83.9739 18.7396V17.5065C83.9739 17.1797 83.8949 16.9426 83.7368 16.7951C83.5787 16.6475 83.331 16.5737 82.9937 16.5737H81.4444C81.3285 16.5737 81.2705 16.6317 81.2705 16.7476V19.4668C81.2705 19.5827 81.3285 19.6407 81.4444 19.6407Z" fill="white"/>
<path d="M77.1992 25H72.0296C71.8083 25 71.6976 24.8893 71.6976 24.668V15.1667C71.6976 14.9454 71.8083 14.8347 72.0296 14.8347H77.1992C77.41 14.8347 77.5154 14.9454 77.5154 15.1667V16.2417C77.5154 16.4631 77.41 16.5737 77.1992 16.5737H73.8951C73.7686 16.5737 73.7054 16.6317 73.7054 16.7476V18.8028C73.7054 18.9187 73.7686 18.9767 73.8951 18.9767H76.5985C76.8198 18.9767 76.9305 19.0874 76.9305 19.3087V20.3837C76.9305 20.6051 76.8198 20.7157 76.5985 20.7157H73.8951C73.7686 20.7157 73.7054 20.7737 73.7054 20.8896V23.0871C73.7054 23.203 73.7686 23.261 73.8951 23.261H77.1992C77.41 23.261 77.5154 23.3717 77.5154 23.593V24.668C77.5154 24.8893 77.41 25 77.1992 25Z" fill="white"/>
<path d="M64.2646 25H62.9208C62.6995 25 62.5888 24.8893 62.5888 24.668V15.1667C62.5888 14.9454 62.6995 14.8347 62.9208 14.8347H64.2646C64.4859 14.8347 64.5966 14.9454 64.5966 15.1667V18.8819C64.5966 18.9978 64.6598 19.0558 64.7863 19.0558H67.458C67.574 19.0558 67.6319 18.9978 67.6319 18.8819V15.1667C67.6319 14.9454 67.7426 14.8347 67.9639 14.8347H69.3077C69.529 14.8347 69.6397 14.9454 69.6397 15.1667V24.668C69.6397 24.8893 69.529 25 69.3077 25H67.9639C67.7426 25 67.6319 24.8893 67.6319 24.668V20.9687C67.6319 20.8527 67.574 20.7948 67.458 20.7948H64.7863C64.6598 20.7948 64.5966 20.8527 64.5966 20.9687V24.668C64.5966 24.8893 64.4859 25 64.2646 25Z" fill="white"/>
<path d="M58.7255 25H57.3976C57.1657 25 57.0498 24.8893 57.0498 24.668V16.7476C57.0498 16.6317 56.9918 16.5737 56.8759 16.5737H55.0736C54.8523 16.5737 54.7416 16.4631 54.7416 16.2417V15.1667C54.7416 14.9454 54.8523 14.8347 55.0736 14.8347H61.0495C61.2708 14.8347 61.3815 14.9454 61.3815 15.1667V16.2417C61.3815 16.4631 61.2708 16.5737 61.0495 16.5737H59.2472C59.1208 16.5737 59.0575 16.6317 59.0575 16.7476V24.668C59.0575 24.8893 58.9469 25 58.7255 25Z" fill="white"/>
<path d="M53.5164 25H48.3469C48.1255 25 48.0149 24.8893 48.0149 24.668V15.1667C48.0149 14.9454 48.1255 14.8347 48.3469 14.8347H53.5164C53.7272 14.8347 53.8326 14.9454 53.8326 15.1667V16.2417C53.8326 16.4631 53.7272 16.5737 53.5164 16.5737H50.2123C50.0859 16.5737 50.0226 16.6317 50.0226 16.7476V18.8028C50.0226 18.9187 50.0859 18.9767 50.2123 18.9767H52.9157C53.137 18.9767 53.2477 19.0874 53.2477 19.3087V20.3837C53.2477 20.6051 53.137 20.7157 52.9157 20.7157H50.2123C50.0859 20.7157 50.0226 20.7737 50.0226 20.8896V23.0871C50.0226 23.203 50.0859 23.261 50.2123 23.261H53.5164C53.7272 23.261 53.8326 23.3717 53.8326 23.593V24.668C53.8326 24.8893 53.7272 25 53.5164 25Z" fill="white"/>
<defs>
<linearGradient id="paint0_linear_710_5579" x1="29.5389" y1="4.89796" x2="22.1481" y2="37.8088" gradientUnits="userSpaceOnUse">
<stop offset="0.111821" stop-color="#04D2CA"/>
<stop offset="0.816463" stop-color="#6A49E4"/>
</linearGradient>
</defs>
</svg>
