<svg width="120" height="32" viewBox="0 0 120 32" fill="none" xmlns="http://www.w3.org/2000/svg">
<path d="M5.51953 22.4439H14.3925V20.5426H7.59373V9H5.51953V22.4439Z" fill="white"/>
<path fill-rule="evenodd" clip-rule="evenodd" d="M17.3115 22.1367C18.0925 22.5208 18.9312 22.7128 19.8274 22.7128C20.7109 22.7128 21.5431 22.5208 22.3241 22.1367C23.1052 21.7398 23.7325 21.1636 24.2063 20.4082C24.68 19.64 24.9169 18.7309 24.9169 17.681C24.9169 16.6311 24.68 15.7284 24.2063 14.973C23.7325 14.2048 23.1052 13.6286 22.3241 13.2445C21.5431 12.8476 20.7109 12.6491 19.8274 12.6491C18.9312 12.6491 18.0925 12.8476 17.3115 13.2445C16.5305 13.6286 15.9031 14.2048 15.4294 14.973C14.9556 15.7284 14.7188 16.6311 14.7188 17.681C14.7188 18.7309 14.9556 19.64 15.4294 20.4082C15.9031 21.1636 16.5305 21.7398 17.3115 22.1367ZM21.3639 20.5042C20.8901 20.7603 20.378 20.8883 19.8274 20.8883C19.2641 20.8883 18.7455 20.7603 18.2718 20.5042C17.8108 20.2353 17.4395 19.8576 17.1578 19.3711C16.8762 18.8845 16.7353 18.3212 16.7353 17.681C16.7353 17.0408 16.8762 16.4774 17.1578 15.9909C17.4395 15.5043 17.8108 15.1331 18.2718 14.877C18.7455 14.6081 19.2641 14.4737 19.8274 14.4737C20.378 14.4737 20.8901 14.6081 21.3639 14.877C21.8376 15.1331 22.2089 15.5043 22.4778 15.9909C22.7595 16.4774 22.9003 17.0408 22.9003 17.681C22.9003 18.3212 22.7595 18.8845 22.4778 19.3711C22.2089 19.8576 21.8376 20.2353 21.3639 20.5042Z" fill="white"/>
<path fill-rule="evenodd" clip-rule="evenodd" d="M31.0717 22.7128C30.1754 22.7128 29.3367 22.5208 28.5556 22.1367C27.7747 21.7398 27.1472 21.1636 26.6735 20.4082C26.1998 19.64 25.9629 18.7309 25.9629 17.681C25.9629 16.6311 26.1998 15.7284 26.6735 14.973C27.1472 14.2048 27.7747 13.6286 28.5556 13.2445C29.3367 12.8476 30.1754 12.6491 31.0717 12.6491C31.9551 12.6491 32.7872 12.8476 33.5683 13.2445C34.3494 13.6286 34.9767 14.2048 35.4505 14.973C35.9243 15.7284 36.1611 16.6311 36.1611 17.681C36.1611 18.7309 35.9243 19.64 35.4505 20.4082C34.9767 21.1636 34.3494 21.7398 33.5683 22.1367C32.7872 22.5208 31.9551 22.7128 31.0717 22.7128ZM31.0717 20.8883C31.6221 20.8883 32.1342 20.7603 32.608 20.5042C33.0818 20.2353 33.4531 19.8576 33.7218 19.3711C34.0035 18.8845 34.1444 18.3212 34.1444 17.681C34.1444 17.0408 34.0035 16.4774 33.7218 15.9909C33.4531 15.5043 33.0818 15.1331 32.608 14.877C32.1342 14.6081 31.6221 14.4737 31.0717 14.4737C30.5083 14.4737 29.9896 14.6081 29.5158 14.877C29.055 15.1331 28.6837 15.5043 28.402 15.9909C28.1203 16.4774 27.9795 17.0408 27.9795 17.681C27.9795 18.3212 28.1203 18.8845 28.402 19.3711C28.6837 19.8576 29.055 20.2353 29.5158 20.5042C29.9896 20.7603 30.5083 20.8883 31.0717 20.8883Z" fill="white"/>
<path d="M37.7822 22.4439H39.7794V18.5644L40.7206 17.6425L43.8126 22.4439H46.079L42.1227 16.2789L45.5603 12.918H43.083L39.7794 16.1637V9H37.7822V22.4439Z" fill="white"/>
<path d="M50.4853 22.7128C49.4227 22.7128 48.5391 22.4504 47.8351 21.9254C47.1436 21.4005 46.6252 20.7219 46.2793 19.8896L47.8927 18.8909C48.1102 19.5567 48.4432 20.0817 48.8913 20.4658C49.3395 20.8499 49.8836 21.042 50.5238 21.042C51.036 21.042 51.4585 20.9203 51.7914 20.677C52.1371 20.421 52.3099 20.0881 52.3099 19.6784C52.3099 19.2943 52.1307 18.9934 51.7721 18.7757C51.4265 18.5452 50.8631 18.3596 50.082 18.2187C49.0961 18.0267 48.3023 17.6938 47.7006 17.2201C47.1116 16.7463 46.817 16.1061 46.817 15.2995C46.817 14.4801 47.1436 13.8335 47.7966 13.3597C48.4625 12.886 49.2755 12.6491 50.2358 12.6491C51.2217 12.6491 52.0155 12.8476 52.6172 13.2445C53.2189 13.6286 53.699 14.2176 54.0576 15.0114L52.5979 15.8757C52.3804 15.3251 52.0667 14.9026 51.6569 14.6081C51.26 14.3008 50.7992 14.1472 50.2741 14.1472C49.7876 14.1472 49.3842 14.2432 49.0642 14.4352C48.7441 14.6145 48.584 14.877 48.584 15.2227C48.584 15.594 48.7825 15.9013 49.1794 16.1445C49.5892 16.3878 50.1909 16.5863 50.9847 16.7399C52.0602 16.9576 52.854 17.2969 53.3663 17.7578C53.8911 18.2059 54.1538 18.8269 54.1538 19.6208C54.1538 20.1841 54.0064 20.7027 53.712 21.1764C53.4303 21.6501 53.0077 22.0278 52.4444 22.3095C51.8937 22.5784 51.2408 22.7128 50.4853 22.7128Z" fill="white"/>
<path fill-rule="evenodd" clip-rule="evenodd" d="M55.9072 9V22.4439H57.9815V16.8167H60.5934L63.8008 22.4439H66.1438L62.8405 16.6246C63.8393 16.3429 64.6138 15.882 65.1645 15.2418C65.7149 14.5888 65.9903 13.7694 65.9903 12.7835C65.9903 12.0409 65.8045 11.3815 65.4332 10.8053C65.0747 10.2292 64.5499 9.78745 63.8584 9.48016C63.1798 9.16005 62.3733 9 61.4384 9H55.9072ZM63.263 14.4736C62.8278 14.8193 62.1875 14.9921 61.3425 14.9921H57.9815V10.8245H61.3425C62.1875 10.8245 62.8278 11.0038 63.263 11.3623C63.6985 11.708 63.916 12.2201 63.916 12.8987C63.916 13.5901 63.6985 14.1151 63.263 14.4736Z" fill="white"/>
<path fill-rule="evenodd" clip-rule="evenodd" d="M70.1754 22.7128C69.2279 22.7128 68.4597 22.444 67.8707 21.9062C67.2817 21.3557 66.9873 20.6387 66.9873 19.7552C66.9873 18.8589 67.2946 18.1547 67.909 17.6426C68.5366 17.1304 69.3367 16.7975 70.3097 16.6439L73.3443 16.1637V15.7796C73.3443 15.2291 73.1714 14.8129 72.8258 14.5313C72.4929 14.2496 72.0064 14.1088 71.3661 14.1088C70.7388 14.1088 70.2457 14.2368 69.8872 14.4929C69.5415 14.7361 69.3687 15.0434 69.3687 15.4147C69.3687 15.5043 69.3816 15.5876 69.407 15.6644L67.6593 16.2598C67.557 16.0165 67.5058 15.754 67.5058 15.4723C67.5058 14.973 67.6593 14.5121 67.9666 14.0895C68.2869 13.6542 68.7414 13.3085 69.3304 13.0524C69.9194 12.7836 70.5979 12.6491 71.3661 12.6491C72.6464 12.6491 73.6259 12.9308 74.3045 13.4942C74.996 14.0575 75.3417 14.877 75.3417 15.9525V20.0817C75.3417 20.6194 75.3864 21.0612 75.4762 21.4069C75.5658 21.7398 75.7257 22.0855 75.9563 22.444H73.9396C73.594 21.9958 73.4212 21.4325 73.4212 20.7539C73.1265 21.3685 72.685 21.8486 72.096 22.1943C71.5197 22.54 70.8796 22.7128 70.1754 22.7128ZM70.5979 21.0612C71.4174 21.0612 72.0767 20.7667 72.5761 20.1777C73.0882 19.5759 73.3443 18.8077 73.3443 17.873V17.6042L70.7515 18.0459C70.1625 18.1483 69.708 18.334 69.388 18.6029C69.0807 18.8717 68.9269 19.2238 68.9269 19.6592C68.9269 20.0945 69.0743 20.4402 69.3687 20.6963C69.676 20.9395 70.0856 21.0612 70.5979 21.0612Z" fill="white"/>
<path d="M77.4355 12.918V22.444H79.433V17.5657C79.433 16.6951 79.657 15.9653 80.1052 15.3763C80.5533 14.7745 81.1294 14.4737 81.8336 14.4737C82.1026 14.4737 82.3587 14.5185 82.6018 14.6081L82.9284 12.7644C82.6594 12.6875 82.3843 12.6491 82.1026 12.6491C81.5136 12.6491 80.9822 12.822 80.5085 13.1677C80.0476 13.5006 79.689 13.9551 79.433 14.5313V12.918H77.4355Z" fill="white"/>
<path fill-rule="evenodd" clip-rule="evenodd" d="M87.8978 22.7128C87.0271 22.7128 86.2204 22.5016 85.4778 22.0791C84.748 21.6565 84.1653 21.0612 83.7301 20.2929C83.2947 19.5247 83.0771 18.6541 83.0771 17.681C83.0771 16.7079 83.2947 15.8437 83.7301 15.0882C84.1653 14.32 84.7543 13.7247 85.4971 13.3021C86.2523 12.8668 87.0847 12.6491 87.9937 12.6491C88.9027 12.6491 89.7031 12.854 90.3944 13.2637C91.0986 13.6606 91.6427 14.224 92.0269 14.9538C92.4111 15.6708 92.603 16.4902 92.603 17.4121V18.1035H84.9977C85.0616 18.9614 85.3626 19.6592 85.9003 20.1969C86.4381 20.7347 87.1167 21.0035 87.9361 21.0035C88.6403 21.0035 89.223 20.8435 89.6838 20.5234C90.1447 20.1905 90.5352 19.7104 90.8555 19.083L92.3149 19.928C91.8541 20.8627 91.2651 21.5605 90.5481 22.0214C89.831 22.4824 88.9476 22.7128 87.8978 22.7128ZM90.7017 16.5479C90.6248 15.8181 90.3304 15.2483 89.8183 14.8386C89.3062 14.416 88.6786 14.2048 87.9361 14.2048C87.2192 14.2048 86.5982 14.4288 86.0732 14.877C85.5481 15.3123 85.2025 15.8693 85.036 16.5479H90.7017Z" fill="white"/>
<path fill-rule="evenodd" clip-rule="evenodd" d="M102.45 14.2207C102.45 15.7283 103.672 16.9494 105.179 16.9494C106.685 16.9494 107.908 15.7283 107.908 14.2207C107.908 12.713 106.685 11.4919 105.179 11.4919C103.672 11.4919 102.45 12.713 102.45 14.2207ZM105.179 15.4071C104.524 15.4071 103.992 14.8762 103.992 14.2207C103.992 13.5652 104.524 13.0343 105.179 13.0343C105.834 13.0343 106.365 13.5652 106.365 14.2207C106.365 14.8762 105.834 15.4071 105.179 15.4071Z" fill="white"/>
<path fill-rule="evenodd" clip-rule="evenodd" d="M96.3987 14.2243L101.619 9.00049H108.737L113.958 14.2243L105.178 23.0001L96.3987 14.2243ZM109.212 12.3224C106.994 10.0947 103.362 10.0947 101.144 12.3224L99.246 14.2207L101.144 16.119C103.362 18.3467 106.994 18.3467 109.212 16.119L111.11 14.2207L109.212 12.3224Z" fill="#0CE466"/>
</svg>
