<svg width="120" height="32" viewBox="0 0 120 32" fill="none" xmlns="http://www.w3.org/2000/svg">
<path d="M72.8383 14.1401C72.582 14.0119 72.296 13.9429 72.0101 13.9527C70.8565 13.9527 70.0874 14.8007 70.0776 16.3684C70.0776 17.9262 70.8466 18.7742 71.9608 18.7742C72.2467 18.784 72.5327 18.7249 72.7792 18.5869C73.0257 18.4587 73.2426 18.2615 73.3806 18.015C73.4496 17.8671 73.5482 17.7488 73.6764 17.66C73.8046 17.5713 73.9525 17.5121 74.1102 17.5023H74.4553C74.5441 17.4924 74.6328 17.5121 74.7117 17.5417C74.7906 17.5713 74.8596 17.6206 74.9187 17.6896C74.968 17.7488 75.0075 17.8276 75.0272 17.9164C75.0469 18.0051 75.0469 18.0939 75.0173 18.1727C74.6328 19.2277 73.5581 20.0757 71.9707 20.0757C69.9593 20.0757 68.5 18.7249 68.5 16.3191C68.5 13.9133 69.9987 12.5625 71.9707 12.5625C73.4694 12.5625 74.6328 13.2724 75.0568 14.5443C75.0765 14.6331 75.0864 14.7119 75.0666 14.8007C75.0469 14.8796 75.0173 14.9584 74.9582 15.0275C74.899 15.0866 74.83 15.1458 74.7511 15.1754C74.6722 15.2049 74.5835 15.2247 74.4948 15.2148H74.199C74.0412 15.2148 73.8835 15.1655 73.7553 15.0768C73.6271 14.988 73.5285 14.8598 73.4693 14.7119C73.3116 14.4654 73.0947 14.2781 72.8383 14.1401Z" fill="white"/>
<path d="M60.146 16.1121H58.2628C58.105 16.1121 57.9473 16.1713 57.8388 16.2896C57.7304 16.398 57.6613 16.5558 57.6613 16.7037C57.6613 16.8614 57.7205 17.0093 57.8388 17.1178C57.9473 17.2263 58.105 17.2953 58.2628 17.2953H58.6079C58.953 17.2953 59.2981 17.5911 59.1206 17.9263C58.8642 18.4785 58.3515 18.7743 57.5332 18.7743C56.3303 18.7743 55.6006 17.8869 55.6006 16.3685C55.6006 14.85 56.3697 13.9627 57.5332 13.9627C57.7994 13.9528 58.0656 14.0021 58.3121 14.1204C58.5487 14.2387 58.7558 14.4162 58.9037 14.6331C58.9727 14.7514 59.0713 14.8599 59.1896 14.9388C59.3079 15.0177 59.446 15.0571 59.5939 15.0571H59.9784C60.0671 15.067 60.1559 15.0472 60.2348 15.0177C60.3136 14.9881 60.3826 14.9289 60.4418 14.8698C60.501 14.8007 60.5306 14.7219 60.5503 14.643C60.57 14.5543 60.5601 14.4754 60.5404 14.3866C60.2742 13.8345 59.8502 13.3711 59.3079 13.0556C58.7755 12.74 58.1543 12.5823 57.5332 12.6119C55.5612 12.6119 54.0625 14.0021 54.0625 16.3685C54.0625 18.7348 55.4725 20.125 57.5726 20.125C59.4558 20.125 60.7869 18.9419 60.7869 17.0389V16.7431C60.7869 16.6643 60.777 16.5755 60.7376 16.4966C60.708 16.4178 60.6587 16.3487 60.5996 16.2896C60.5404 16.2304 60.4714 16.1811 60.3925 16.1515C60.3136 16.122 60.2348 16.1121 60.146 16.1121Z" fill="white"/>
<path d="M41.5037 12.6908H40.6459C40.5177 12.6908 40.3994 12.7303 40.2909 12.7993C40.1825 12.8683 40.1036 12.957 40.0445 13.0754L38.1612 17.5517C38.1612 17.5616 38.1612 17.5714 38.1514 17.5813C38.1415 17.5912 38.1316 17.5912 38.1218 17.5912C38.0824 17.5912 38.0823 17.5912 38.0823 17.5517L36.1991 13.0754C36.1498 12.957 36.0808 12.8585 35.9822 12.7796C35.8146 12.6514 35.5977 12.819 35.5582 13.0359L34.1286 19.4843C34.1187 19.5533 34.1286 19.6321 34.168 19.6913C34.2173 19.7899 34.2962 19.8786 34.3948 19.9378C34.4934 19.997 34.6117 20.0265 34.7201 20.0265H34.9765C35.1441 20.0167 35.3019 19.9477 35.4202 19.8293C35.5385 19.711 35.6075 19.5533 35.6075 19.3955V15.2544C35.6075 15.2445 35.6075 15.2347 35.6174 15.2248C35.6272 15.2149 35.6371 15.2149 35.647 15.2149C35.6568 15.2149 35.6667 15.2149 35.6765 15.2248C35.6864 15.2347 35.6864 15.2445 35.6864 15.2544L37.4415 19.6026C37.4908 19.7209 37.5696 19.8195 37.6781 19.8885C37.7866 19.9575 37.9147 19.9871 38.0429 19.9871H38.2105C38.3387 19.9871 38.457 19.9477 38.5655 19.8786C38.6739 19.8096 38.7528 19.7209 38.812 19.6026L40.567 15.2938C40.567 15.284 40.567 15.2741 40.5769 15.2642C40.5867 15.2544 40.5966 15.2544 40.6065 15.2544C40.6163 15.2544 40.6262 15.2544 40.636 15.2642C40.6459 15.2741 40.6459 15.284 40.6459 15.2938V19.3955C40.6459 19.5631 40.7149 19.7209 40.8431 19.8392C40.9614 19.9575 41.1192 20.0265 41.2966 20.0265H41.553C41.7206 20.0265 41.8784 19.9575 42.0066 19.8392C42.1249 19.7209 42.1939 19.5631 42.2037 19.3955V13.312C42.1742 13.1444 42.0854 12.9866 41.9573 12.8782C41.8389 12.7697 41.6713 12.7007 41.5037 12.6908Z" fill="white"/>
<path fill-rule="evenodd" clip-rule="evenodd" d="M49.3783 12.8092C49.4867 12.888 49.5755 12.9965 49.6149 13.1148L51.7052 19.1885C51.7446 19.2871 51.7446 19.3857 51.7348 19.4843C51.7249 19.5828 51.6855 19.6814 51.6263 19.7603C51.5672 19.8392 51.4883 19.9082 51.3995 19.9575C51.3108 20.0068 51.2122 20.0364 51.1136 20.0364H50.7685C50.6403 20.0364 50.5122 19.997 50.4037 19.9181C50.2952 19.8392 50.2065 19.7307 50.1671 19.6124L49.9107 18.8138C49.8614 18.6856 49.7825 18.587 49.6741 18.5081C49.5656 18.4292 49.4374 18.3898 49.3093 18.3898H47.5542C47.426 18.3898 47.2979 18.4292 47.1894 18.5081C47.0809 18.587 46.9922 18.6955 46.9528 18.8138L46.6964 19.6124C46.6471 19.7406 46.5682 19.8392 46.4598 19.9181C46.3513 19.997 46.2231 20.0364 46.095 20.0364H45.7499C45.6513 20.0265 45.5527 20.0068 45.4639 19.9575C45.3752 19.9082 45.2963 19.8392 45.2372 19.7603C45.178 19.6814 45.1386 19.5828 45.1287 19.4843C45.1188 19.3857 45.1287 19.2871 45.1583 19.1885L47.2979 13.1148C47.3472 12.9866 47.426 12.888 47.5345 12.8092C47.643 12.7303 47.7711 12.6908 47.8993 12.6908H49.0135C49.1416 12.6908 49.2698 12.7303 49.3783 12.8092ZM48.3923 17.1278H48.5205C48.6289 17.1179 48.7275 17.0883 48.7966 17.0489C48.8853 16.9996 48.9642 16.9306 49.0233 16.8517C49.0923 16.7629 49.1318 16.6742 49.1515 16.5756C49.1712 16.477 49.1712 16.3784 49.1515 16.2798L48.5106 14.3374C48.5106 14.3276 48.5106 14.3177 48.5008 14.3078C48.4909 14.298 48.481 14.298 48.4712 14.298C48.4613 14.298 48.4515 14.298 48.4416 14.3078C48.4317 14.3177 48.4317 14.3276 48.4317 14.3374L47.7909 16.2798C47.7514 16.3784 47.7514 16.477 47.7613 16.5756C47.7711 16.6742 47.8106 16.7728 47.8697 16.8517C47.9289 16.9306 48.0078 16.9996 48.0965 17.0489C48.1951 17.0982 48.2937 17.1278 48.3923 17.1278Z" fill="white"/>
<path d="M64.634 12.6908H64.3383C64.1706 12.6908 64.0129 12.7599 63.8847 12.8782C63.7664 12.9965 63.6974 13.1542 63.6875 13.3219V19.4054C63.6875 19.573 63.7565 19.7307 63.8847 19.8491C64.003 19.9674 64.1608 20.0364 64.3383 20.0364H64.634C64.8017 20.0364 64.9594 19.9674 65.0876 19.8491C65.2059 19.7307 65.2749 19.573 65.2848 19.4054V13.3219C65.2749 13.1542 65.2059 13.0063 65.0876 12.888C64.9594 12.7697 64.8017 12.7007 64.634 12.6908Z" fill="white"/>
<path d="M85.6499 18.725H83.4611C83.2934 18.725 83.1357 18.656 83.0075 18.5377C82.8892 18.4193 82.8202 18.2616 82.8103 18.094V17.5911C82.8103 17.4235 82.8793 17.2657 83.0075 17.1474C83.1258 17.0291 83.2836 16.9601 83.4611 16.9601H85.3344C85.502 16.9601 85.6697 16.8911 85.788 16.7728C85.9063 16.6544 85.9753 16.4967 85.9753 16.3291C85.9753 16.1614 85.9063 16.0037 85.788 15.8854C85.6697 15.7671 85.502 15.698 85.3344 15.698H83.4512C83.2836 15.698 83.1258 15.629 82.9976 15.5107C82.8793 15.3924 82.8103 15.2346 82.8004 15.067V14.5642C82.8004 14.3965 82.8695 14.2388 82.9976 14.1205C83.116 14.0021 83.2737 13.9331 83.4512 13.9331H85.5908C85.7584 13.9331 85.926 13.8641 86.0443 13.7458C86.1627 13.6275 86.2317 13.4697 86.2317 13.3021C86.2317 13.1345 86.1627 12.9767 86.0443 12.8584C85.926 12.7401 85.7584 12.6711 85.5908 12.6711H83.0174C82.9188 12.6711 82.8202 12.7006 82.7413 12.7598C82.6624 12.819 82.6131 12.9077 82.5934 13.0063L81.2229 19.3856V19.5138C81.2426 19.6617 81.3215 19.7997 81.4496 19.8885C81.568 19.9871 81.7159 20.0265 81.8736 20.0166H85.6499C85.8176 20.0166 85.9852 19.9476 86.1035 19.8293C86.2218 19.711 86.2908 19.5532 86.2908 19.3856C86.2908 19.218 86.2218 19.0602 86.1035 18.9419C85.9852 18.8236 85.8176 18.7546 85.6499 18.7546V18.725Z" fill="white"/>
<path fill-rule="evenodd" clip-rule="evenodd" d="M89.7757 12.6908H91.7872C94.0155 12.6908 95.4353 14.0811 95.4353 16.3587C95.4353 18.6462 94.0549 20.0364 91.7872 20.0364H89.7757C89.5983 20.0364 89.4405 19.9674 89.3222 19.8491C89.194 19.7307 89.125 19.573 89.125 19.4054V13.3219C89.1349 13.1542 89.2039 12.9965 89.3222 12.8782C89.4504 12.7599 89.6081 12.6908 89.7757 12.6908ZM91.3533 18.6856H91.6984C93.1182 18.6856 93.8479 17.9264 93.838 16.3291C93.838 14.722 93.1084 14.0022 91.6984 14.0022H91.3533C91.1758 14.0022 91.0181 14.0712 90.8998 14.1895C90.7716 14.3078 90.7026 14.4656 90.7026 14.6332V18.0546C90.7124 18.2222 90.7815 18.38 90.8998 18.4983C91.0279 18.6166 91.1857 18.6856 91.3533 18.6856Z" fill="white"/>
<path d="M102.49 18.725H100.301C100.133 18.725 99.9753 18.656 99.8471 18.5377C99.7288 18.4193 99.6598 18.2616 99.6499 18.094V17.5911C99.6499 17.4235 99.719 17.2657 99.8471 17.1474C99.9654 17.0291 100.123 16.9601 100.301 16.9601H102.184C102.352 16.9601 102.519 16.8911 102.637 16.7728C102.756 16.6544 102.825 16.4967 102.825 16.3291C102.825 16.1614 102.756 16.0037 102.637 15.8854C102.519 15.7671 102.352 15.698 102.184 15.698H100.301C100.133 15.698 99.9753 15.629 99.8471 15.5107C99.7288 15.3924 99.6598 15.2346 99.6499 15.067V14.5642C99.6499 14.3965 99.719 14.2388 99.8471 14.1205C99.9654 14.0021 100.123 13.9331 100.301 13.9331H102.44C102.608 13.9331 102.775 13.8641 102.894 13.7458C103.012 13.6275 103.081 13.4697 103.081 13.3021C103.081 13.1345 103.012 12.9767 102.894 12.8584C102.775 12.7401 102.608 12.6711 102.44 12.6711H98.7132C98.5456 12.6711 98.3879 12.7401 98.2597 12.8584C98.1414 12.9767 98.0724 13.1345 98.0625 13.3021V19.3856C98.0625 19.5532 98.1315 19.711 98.2597 19.8293C98.378 19.9476 98.5358 20.0166 98.7132 20.0166H102.49C102.657 20.0166 102.815 19.9476 102.943 19.8293C103.061 19.711 103.13 19.5532 103.14 19.3856C103.14 19.3067 103.13 19.218 103.091 19.1391C103.061 19.0602 103.012 18.9912 102.953 18.9321C102.894 18.8729 102.825 18.8236 102.746 18.794C102.657 18.7447 102.578 18.725 102.49 18.725Z" fill="white"/>
<path d="M111.607 12.6908H111.903C112.061 12.7007 112.219 12.7599 112.357 12.8683C112.475 12.9669 112.554 13.1148 112.583 13.2726V19.3561C112.573 19.5237 112.504 19.6814 112.386 19.7998C112.258 19.9181 112.1 19.9871 111.933 19.9871H111.548C111.449 19.997 111.351 19.9674 111.262 19.9279C111.173 19.8885 111.095 19.8195 111.035 19.7406L107.989 15.4319H107.949C107.939 15.4319 107.93 15.4319 107.92 15.4417C107.91 15.4516 107.91 15.4614 107.91 15.4713V19.4448C107.9 19.6124 107.831 19.7702 107.713 19.8885C107.584 20.0068 107.427 20.0758 107.259 20.0758H106.963C106.786 20.0758 106.628 20.0068 106.51 19.8885C106.382 19.7702 106.312 19.6124 106.312 19.4448V13.3613C106.322 13.1937 106.391 13.0359 106.51 12.9176C106.638 12.7993 106.796 12.7303 106.963 12.7303H107.367C107.466 12.7204 107.565 12.75 107.653 12.7894C107.742 12.8289 107.821 12.8979 107.88 12.9768L110.878 17.2855H110.917C110.956 17.2855 110.956 17.2855 110.956 17.2461V13.3219C110.966 13.1542 111.035 12.9965 111.154 12.8782C111.282 12.7599 111.44 12.6908 111.607 12.6908Z" fill="white"/>
<path d="M27.4143 27H10.5627C10.4456 26.975 10.328 26.9505 10.2108 26.9246C8.87607 26.6322 8 25.5386 8 24.162C8 18.7532 8 13.3439 8.00129 7.93498C8.00129 7.77088 8.01335 7.60634 8.03316 7.44354C8.20114 6.03855 9.33564 5.00485 10.7389 5.00355C16.2399 4.99882 21.741 4.99882 27.242 5.00355C28.5294 5.00485 29.6161 5.8947 29.9008 7.15065C29.9323 7.28848 29.9629 7.42674 29.9939 7.565V24.42C29.9766 24.4734 29.9499 24.526 29.943 24.5807C29.7931 25.7475 28.977 26.646 27.827 26.9074C27.6896 26.9384 27.5522 26.9694 27.4143 27ZM19.5581 14.3233C19.5991 14.3478 19.6288 14.3573 19.6464 14.3776C20.0772 14.8759 20.5109 15.3725 20.9308 15.8803C20.9726 15.9311 20.964 16.0746 20.9218 16.1357C20.6939 16.4657 20.4433 16.7796 20.2094 17.1053C19.7537 17.7388 19.2855 18.3647 18.8561 19.0155C18.3965 19.7119 18.6313 20.4459 19.3798 20.7034C19.5986 20.7788 19.8416 20.8068 20.0746 20.812C20.7116 20.8262 21.3495 20.8171 21.9869 20.8171C23.1761 20.8171 24.3653 20.8206 25.5541 20.8158C26.3699 20.8124 26.8837 20.2706 26.8281 19.4862C26.7915 18.9685 26.2768 18.5193 25.6958 18.5158C24.607 18.5098 23.5181 18.515 22.4293 18.5111C22.3496 18.5111 22.2699 18.4779 22.1902 18.4603C22.2268 18.3875 22.2518 18.3052 22.3022 18.2436C22.7019 17.7565 23.124 17.287 23.5048 16.7852C23.9088 16.2525 23.8709 15.6232 23.4427 15.1111C23.0616 14.6549 22.6718 14.2061 22.288 13.7522C22.2372 13.6923 22.1997 13.6212 22.1239 13.5075C22.26 13.5075 22.3362 13.5075 22.4125 13.5075C23.1718 13.5075 23.9312 13.5114 24.6905 13.5058C25.0764 13.5032 25.4649 13.5084 25.8474 13.4662C26.6029 13.383 27.0637 12.5841 26.7739 11.8829C26.5464 11.332 26.0877 11.1399 25.5326 11.1386C23.5987 11.1334 21.6643 11.1373 19.7304 11.136C19.2291 11.136 18.8432 11.3307 18.5464 11.7468C17.8728 12.6913 17.1806 13.6225 16.4966 14.5598C16.2964 14.8341 16.2964 14.835 16.0603 14.6028C15.024 13.5825 13.9873 12.5625 12.9532 11.54C12.6668 11.2566 12.3179 11.1042 11.9255 11.1395C11.1709 11.208 10.7199 11.7343 10.7195 12.4954C10.7191 14.3939 10.7195 16.2925 10.7195 18.1915C10.7195 18.7144 10.7096 19.2377 10.7247 19.7606C10.7441 20.439 11.4392 20.9709 12.1034 20.8309C12.7951 20.6853 13.2375 20.1543 13.2405 19.4423C13.2461 18.1596 13.2422 16.8774 13.2426 15.5948C13.2426 15.5375 13.2392 15.4798 13.2452 15.4229C13.2577 15.3126 13.3176 15.2877 13.4063 15.351C13.4524 15.3837 13.4903 15.4285 13.5312 15.469C14.1656 16.1008 14.8087 16.7245 15.4319 17.3676C15.8889 17.8388 16.8399 17.9998 17.365 17.2362C18.0054 16.3046 18.7127 15.4186 19.3923 14.5141C19.4423 14.4473 19.5022 14.3879 19.5586 14.3237L19.5581 14.3233Z" fill="#E42575"/>
<path d="M19.5574 14.3234C19.5983 14.3479 19.628 14.3574 19.6457 14.3776C20.0764 14.876 20.5101 15.3726 20.9301 15.8804C20.9719 15.9312 20.9632 16.0746 20.921 16.1358C20.6932 16.4657 20.4425 16.7797 20.2086 17.1053C19.7529 17.7389 19.2848 18.3647 18.8553 19.0155C18.3958 19.712 18.6305 20.4459 19.3791 20.7035C19.5979 20.7789 19.8408 20.8069 20.0738 20.812C20.7108 20.8263 21.3487 20.8172 21.9862 20.8172C23.1754 20.8172 24.3646 20.8207 25.5533 20.8159C26.3691 20.8125 26.8829 20.2706 26.8274 19.4863C26.7908 18.9686 26.2761 18.5194 25.695 18.5159C24.6062 18.5099 23.5174 18.5151 22.4285 18.5112C22.3488 18.5112 22.2692 18.478 22.1895 18.4604C22.2261 18.3876 22.2511 18.3053 22.3015 18.2437C22.7012 17.7566 23.1233 17.2871 23.504 16.7853C23.908 16.2525 23.8701 15.6233 23.442 15.1111C23.0608 14.655 22.671 14.2062 22.2873 13.7522C22.2364 13.6924 22.199 13.6213 22.1232 13.5076C22.2593 13.5076 22.3355 13.5076 22.4117 13.5076C23.1711 13.5076 23.9304 13.5115 24.6898 13.5059C25.0757 13.5033 25.4642 13.5085 25.8467 13.4663C26.6021 13.3831 27.063 12.5842 26.7731 11.883C26.5457 11.3321 26.087 11.14 25.5318 11.1387C23.5979 11.1335 21.6636 11.1374 19.7297 11.1361C19.2283 11.1361 18.8424 11.3308 18.5457 11.7469C17.872 12.6914 17.1799 13.6226 16.4959 14.5598C16.2956 14.8342 16.2956 14.8351 16.0596 14.6029C15.0233 13.5825 13.9866 12.5626 12.9524 11.5401C12.666 11.2567 12.3171 11.1042 11.9248 11.1396C11.1702 11.208 10.7192 11.7344 10.7188 12.4954C10.7183 14.394 10.7188 16.2926 10.7188 18.1916C10.7188 18.7145 10.7089 19.2378 10.7239 19.7607C10.7433 20.439 11.4385 20.971 12.1026 20.831C12.7944 20.6854 13.2367 20.1543 13.2397 19.4424C13.2453 18.1597 13.2414 16.8775 13.2419 15.5948C13.2419 15.5375 13.2384 15.4798 13.2445 15.423C13.257 15.3127 13.3168 15.2877 13.4055 15.3511C13.4516 15.3838 13.4895 15.4286 13.5305 15.4691C14.1649 16.1009 14.8079 16.7246 15.4312 17.3676C15.8882 17.8388 16.8392 17.9999 17.3642 17.2363C18.0047 16.3046 18.7119 15.4187 19.3916 14.5142C19.4415 14.4474 19.501 14.3875 19.5574 14.3234Z" fill="white"/>
</svg>
