<svg width="120" height="32" viewBox="0 0 120 32" fill="none" xmlns="http://www.w3.org/2000/svg">
<path d="M30 28C36.6274 28 42 22.6274 42 16C42 9.37261 36.6274 4 30 4C23.3726 4 18 9.37261 18 16C18 22.6274 23.3726 28 30 28Z" fill="#1C68F3"/>
<path d="M82.934 12.9808C85.1339 12.9808 87.6323 13.826 87.7815 16.5306H84.7066C84.6423 15.7488 83.9166 15.3896 82.9556 15.3896C82.0584 15.3896 81.6528 15.7277 81.6528 16.1291C81.6528 16.4672 81.9092 16.7841 82.7209 16.932L84.6639 17.249C86.607 17.6082 87.8886 18.5379 87.8886 20.355C87.8886 22.7215 85.7314 23.8202 83.041 23.8202C80.329 23.8202 78.1296 22.7004 77.916 19.9747L80.9909 19.9958C81.1402 20.8832 81.8875 21.2847 82.9767 21.2847C83.8949 21.2847 84.4503 21.01 84.4503 20.5663C84.4503 20.2282 84.1302 19.9535 83.4466 19.8479L81.3538 19.4887C79.56 19.1929 78.3216 18.1998 78.3216 16.4038C78.3216 14.2486 80.1792 12.9808 82.934 12.9808ZM69.9719 13.0207C71.1017 13.0207 72.0394 13.3162 72.8074 13.8016V13.2529H76.2604V23.4896H72.8074V22.9197C72.0394 23.4052 71.1017 23.7007 69.9719 23.7007C67.1794 23.7007 64.8345 21.4 64.8345 18.3607C64.8345 15.3002 67.1794 13.0207 69.9719 13.0207ZM49.7443 9.11534L54.9225 16.795L60.0792 9.11534H62.7753V23.5014H59.1592V16.2872L55.9281 21.2165V21.2377H53.9168V21.2165L50.6644 16.2449L50.6858 23.5014H47.0696V9.11534H49.7443ZM93.2504 8.51758V17.1069L96.8638 13.266H100.991L97.0563 17.4445L101.333 23.5014H97.185L94.704 19.9559L93.2504 21.4965V23.5014H89.7863V8.51758H93.2504ZM70.6539 15.8068C69.2471 15.8068 68.2239 16.9466 68.2239 18.3607C68.2239 19.7748 69.2471 20.8934 70.6539 20.8934C71.4213 20.8934 72.1676 20.6824 72.8074 19.9437V16.7777C72.1676 16.039 71.4213 15.8068 70.6539 15.8068Z" fill="#1C68F3"/>
<path fill-rule="evenodd" clip-rule="evenodd" d="M37.2427 13.0505V17.0356H25.0957L24.5732 17.0357C25.1263 19.4537 27.3215 21.2598 29.9453 21.2598C32.1145 21.2598 33.9908 20.0253 34.8884 18.2312H37.2427V21.5786C37.2427 22.3709 36.5901 23.0132 35.785 23.0132H24.124C23.319 23.0132 22.6664 22.3709 22.6664 21.5786V13.0505H37.2427ZM33.4904 18.2312C32.7173 19.3435 31.418 20.0735 29.9453 20.0735C28.4727 20.0735 27.1733 19.3435 26.4003 18.2312H33.4904ZM26.8368 14.007C25.6945 14.007 24.7495 14.8383 24.5924 15.9198H25.8349C25.9715 15.5036 26.3684 15.2025 26.8368 15.2025C27.3052 15.2025 27.7022 15.5036 27.8388 15.9198H29.0813C28.9241 14.8383 27.9791 14.007 26.8368 14.007ZM33.0722 14.007C31.9299 14.007 30.9849 14.8383 30.8278 15.9198H32.0703C32.2069 15.5036 32.6038 15.2025 33.0722 15.2025C33.5406 15.2025 33.9376 15.5036 34.0742 15.9198H35.3167C35.1595 14.8383 34.2145 14.007 33.0722 14.007ZM35.785 8.66699C36.5901 8.66699 37.2427 9.3093 37.2427 10.1016V11.855H22.6664V10.1016C22.6664 9.3093 23.319 8.66699 24.124 8.66699H35.785Z" fill="white"/>
</svg>
