<svg width="120" height="32" viewBox="0 0 120 32" fill="none" xmlns="http://www.w3.org/2000/svg">
<path d="M87.4665 9.70139L83.1828 5.58725C85.9513 4.99364 88.6283 4.41336 91.3062 3.83291L91.3077 3.83258C94.1012 3.22705 96.896 2.62125 99.796 2C99.3098 3.47175 98.4936 5.97889 97.6498 8.57099L97.6495 8.57182L97.6492 8.57265C96.2464 12.8817 94.7674 17.425 94.6009 17.8365C93.863 17.2151 90.8777 14.0602 90.8777 14.0602L87.1987 17.2281L86.4102 15.6511H83.3951L85.2868 18.8744L82.9127 20.9187C82.9097 20.3317 82.9042 19.7805 82.8954 19.3277C82.8609 17.5665 82.3156 16.3995 81.2088 15.8358C83.9566 13.1646 87.2712 9.93352 87.4665 9.70139Z" fill="url(#paint0_linear_999_3769)"/>
<path d="M76.547 25.4482C76.7879 25.5892 77.0361 25.6937 77.287 25.7629L77.0116 26L76.547 25.4482Z" fill="url(#paint1_linear_999_3769)"/>
<path d="M75.3287 21.8573C75.0782 22.5831 75.1438 23.422 75.4324 24.1243L74.5307 23.0532C74.5313 22.2825 74.5281 21.5082 74.517 20.9692C74.5135 20.8003 74.5113 20.6305 74.509 20.4603C74.496 19.4761 74.4827 18.4765 74.2399 17.5451C73.7118 15.5191 71.2857 14.8744 69.7141 16.2777C69.532 16.4405 69.3732 16.6289 69.213 16.8191C69.1374 16.9088 69.0615 16.9989 68.9827 17.0868C68.6917 16.645 68.3545 16.3027 67.9908 16.0559C70.4267 14.3182 72.3704 12.9341 72.8457 12.6025C73.3281 13.2911 74.7092 15.2982 75.8478 16.9553V18.8798C76.2073 18.7 76.5441 18.5492 76.8581 18.4265C77.2651 19.0195 77.5307 19.4068 77.5307 19.4068C77.5307 19.4068 78.0865 18.868 78.9353 18.0441C79.7157 18.1635 80.0965 18.743 80.0707 19.7381H80.0694C79.8582 19.7461 79.6443 19.75 79.4299 19.7539C77.7479 19.7846 76.0337 19.8158 75.3287 21.8573Z" fill="url(#paint2_linear_999_3769)"/>
<path d="M61.2839 20.8447C57.9275 23.2426 55.1554 25.2245 55.1554 25.2245L61.2839 23.2958V20.8447Z" fill="url(#paint3_linear_999_3769)"/>
<path d="M64.0898 22.4127L66.5378 21.6423L66.5269 20.5627C66.523 20.1148 66.4725 19.3963 66.3767 18.973C66.268 18.4914 65.8537 18.217 65.5948 18.1781C65.1029 18.1044 64.6459 18.4163 64.4556 18.7516C64.1798 19.2358 64.1229 19.9129 64.1086 20.4915C64.0929 21.1308 64.0888 21.77 64.0898 22.4127Z" fill="url(#paint4_linear_999_3769)"/>
<path d="M69.3517 20.7567L71.7303 20.0081C71.7319 19.9511 71.7342 19.8913 71.7367 19.8296C71.7533 19.4071 71.7733 18.8978 71.5757 18.6209C70.9284 17.7147 70.1077 18.0422 69.6339 18.8798C69.3793 19.3293 69.3736 19.7158 69.3666 20.1942C69.3651 20.2971 69.3635 20.4044 69.3594 20.5174C69.3566 20.5972 69.354 20.6769 69.3517 20.7567Z" fill="url(#paint5_linear_999_3769)"/>
<path d="M79.9904 21.7278C78.4369 21.5984 78.0485 22.2456 78.0485 22.7635C78.0485 23.4108 78.4369 23.5402 79.0842 23.5402C79.5593 23.5402 80.1134 23.0133 79.9904 21.7278Z" fill="url(#paint6_linear_999_3769)"/>
<path fill-rule="evenodd" clip-rule="evenodd" d="M33.5956 19.6087C33.6447 17.7148 32.2207 17.3264 29.3727 18.7505V16.0319C29.3727 16.0319 29.8348 15.8377 30.086 15.76C30.7838 15.5464 31.5165 15.391 32.2453 15.3354C35.0403 15.1205 36.3659 16.4202 36.4203 19.1984C36.4617 21.3228 36.4281 25.6117 36.4281 25.6117H33.6435V24.8349C32.6078 25.8706 31.1281 26.0415 29.8853 25.2013C28.9248 24.5514 28.5946 23.5404 28.7241 22.2458C28.9662 19.8224 31.3132 19.5272 33.5943 19.6087H33.5956ZM33.5153 21.5985C31.9618 21.469 31.5734 22.1163 31.5734 22.6342C31.5734 23.2814 31.9618 23.4109 32.6091 23.4109C33.0842 23.4109 33.6383 22.884 33.5153 21.5985Z" fill="white"/>
<path fill-rule="evenodd" clip-rule="evenodd" d="M55.1553 25.2245C55.1553 25.2245 56.4743 24.2815 58.3943 22.9094V22.5047C58.3943 22.5047 57.3535 23.1079 56.9703 23.227C56.1236 23.4911 54.3695 23.3578 53.7067 21.8341H58.9121C58.9121 21.4983 58.9196 21.172 58.9269 20.8526C58.9427 20.1585 58.9578 19.4975 58.894 18.8449C58.7464 17.3484 57.9671 15.9231 56.4291 15.6435C55.0051 15.3845 53.6329 15.2732 52.3551 16.4176C50.4741 18.1031 50.2152 22.2458 51.7687 24.0582C52.9843 25.4757 54.4873 25.7411 56.1702 25.7411C57.3353 25.7411 58.393 25.0239 58.393 25.0239H58.3943V24.2052L55.1553 25.2245ZM56.4408 19.5505C56.4278 18.8812 56.055 17.7821 55.2589 17.786C54.4135 17.7899 53.6601 18.5692 53.7196 19.5505H56.4408Z" fill="white"/>
<path d="M94.6008 17.8365C94.2691 17.5571 93.4832 16.7658 92.7185 15.9792V25.6699H95.4759V15.8972H95.2565C94.9047 16.9633 94.6625 17.6839 94.6008 17.8365Z" fill="white"/>
<path d="M47.6572 25.657H50.4379V25.6582C50.4379 25.6582 50.469 22.339 50.4379 20.8399C50.4344 20.6708 50.4322 20.5008 50.4299 20.3303C50.4169 19.3461 50.4036 18.3471 50.1608 17.4157C49.6327 15.3897 47.2066 14.745 45.635 16.1483C45.4529 16.3111 45.2942 16.4995 45.1339 16.6897C45.0583 16.7794 44.9824 16.8695 44.9036 16.9575C43.6129 14.9975 41.4122 14.9975 40.0296 16.5911C39.9804 16.283 40.0296 15.571 40.0296 15.571H37.2048V25.6466H40.0296C40.0296 25.039 40.0247 24.4392 40.0199 23.8445C40.0105 22.6704 40.0012 21.5163 40.0296 20.3622C40.0438 19.7835 40.1008 19.1064 40.3765 18.6223C40.5668 18.287 41.0238 17.975 41.5157 18.0488C41.7746 18.0876 42.1889 18.3621 42.2976 18.8436C42.3934 19.267 42.4439 19.9854 42.4478 20.4334L42.4537 21.0193C42.4697 22.5855 42.4841 23.997 42.4841 25.657H45.2596C45.2596 25.1436 45.2563 24.6347 45.2531 24.1292L45.2531 24.1283C45.2449 22.8675 45.2369 21.6269 45.2803 20.3881C45.2844 20.2752 45.286 20.168 45.2875 20.0651C45.2945 19.5867 45.3002 19.2 45.5548 18.7504C46.0286 17.9128 46.8493 17.5853 47.4966 18.4915C47.6943 18.7684 47.6742 19.2779 47.6576 19.7004C47.6528 19.8229 47.6482 19.9384 47.6494 20.0385C47.6688 21.9079 47.6572 25.657 47.6572 25.657Z" fill="white"/>
<path d="M28.4082 25.6569H28.4095L28.4082 25.6582V25.6569Z" fill="white"/>
<path d="M28.422 23.461C28.4152 24.1829 28.4082 24.9136 28.4082 25.6569H25.6003C25.6003 25.1744 25.6009 24.6939 25.6015 24.2149C25.603 22.9426 25.6045 21.6798 25.5951 20.4178C25.5912 19.9311 25.5796 19.4184 25.4566 18.9744L25.4513 18.9552C25.3547 18.6038 25.2171 18.1036 24.509 18.0604C23.7879 18.0164 23.419 18.2637 23.1989 18.6041C22.883 19.0922 22.7367 19.7731 22.7367 20.379V25.6531H20V15.5684H22.7367C22.7367 15.5684 22.7031 16.6286 22.7367 16.8785C22.9956 16.2312 23.973 15.6732 24.6164 15.5218C26.724 15.0259 28.293 16.3296 28.3888 18.7232C28.4522 20.2861 28.4374 21.8515 28.422 23.461Z" fill="white"/>
<path d="M71.7361 25.7863H74.5168V25.7876C74.5168 25.7876 74.5479 22.4683 74.5168 20.9692C74.5134 20.8002 74.5112 20.6304 74.5089 20.46C74.4958 19.4758 74.4826 18.4765 74.2398 17.5451C73.7116 15.5191 71.2856 14.8744 69.714 16.2777C69.5319 16.4405 69.3731 16.6289 69.2129 16.8191C69.1374 16.9087 69.0613 16.999 68.9826 17.0868C67.6919 15.1268 65.4911 15.1268 64.1085 16.7205C64.0593 16.4124 64.1085 15.7003 64.1085 15.7003H61.2838V25.776H64.1085C64.1085 25.1687 64.1037 24.5691 64.0989 23.9747V23.9735C64.0895 22.7995 64.0802 21.6455 64.1085 20.4915C64.1228 19.9129 64.1797 19.2358 64.4555 18.7516C64.6458 18.4163 65.1028 18.1044 65.5947 18.1781C65.8536 18.217 66.2679 18.4914 66.3766 18.973C66.4724 19.3963 66.5229 20.1148 66.5268 20.5627L66.5327 21.1493C66.5487 22.7151 66.563 24.1267 66.563 25.7863H69.3386C69.3386 25.2732 69.3353 24.7645 69.332 24.2593V24.2579C69.3239 22.9969 69.3159 21.7565 69.3593 20.5174C69.3634 20.4044 69.365 20.2972 69.3665 20.1942C69.3735 19.7158 69.3791 19.3293 69.6337 18.8798C70.1076 18.0422 70.9283 17.7147 71.5756 18.6209C71.7732 18.8978 71.7532 19.4071 71.7366 19.8296C71.7317 19.9522 71.7272 20.0677 71.7284 20.1679C71.7478 22.0373 71.7361 25.7863 71.7361 25.7863Z" fill="white"/>
<path fill-rule="evenodd" clip-rule="evenodd" d="M80.0705 19.7381C80.1197 17.8441 78.6957 17.4558 75.8477 18.8798V16.1612C75.8477 16.1612 76.3098 15.967 76.561 15.8893C77.2587 15.6757 77.9915 15.5204 78.7203 15.4647C81.5153 15.2498 82.8409 16.5496 82.8953 19.3277C82.9367 21.4521 82.9031 25.741 82.9031 25.741H80.1184V24.9642C79.0828 25.9999 77.6031 26.1708 76.3603 25.3306C75.3997 24.6807 74.8987 23.1027 75.3285 21.8573C76.0335 19.8158 77.7477 19.7846 79.4297 19.7539C79.6441 19.75 79.858 19.7461 80.0693 19.7381H80.0705ZM79.9903 21.7278C78.4368 21.5984 78.0484 22.2457 78.0484 22.7635C78.0484 23.4108 78.4368 23.5402 79.0841 23.5402C79.5592 23.5402 80.1133 23.0133 79.9903 21.7278Z" fill="white"/>
<path d="M89.1636 20.6559L92.3858 15.6511H89.3513L87.8651 18.5613L86.41 15.6511H83.395L86.3285 20.6494L83.2034 25.7099H86.19L87.6619 22.8424L89.1662 25.7099H92.2524L89.1636 20.6559Z" fill="white"/>
<defs>
<linearGradient id="paint0_linear_999_3769" x1="57.1024" y1="26.4168" x2="97.9991" y2="7.52392" gradientUnits="userSpaceOnUse">
<stop offset="0.27" stop-color="#FF9E05"/>
<stop offset="0.83" stop-color="#F6DA34"/>
</linearGradient>
<linearGradient id="paint1_linear_999_3769" x1="57.1024" y1="26.4168" x2="97.9991" y2="7.52392" gradientUnits="userSpaceOnUse">
<stop offset="0.27" stop-color="#FF9E05"/>
<stop offset="0.83" stop-color="#F6DA34"/>
</linearGradient>
<linearGradient id="paint2_linear_999_3769" x1="57.1024" y1="26.4168" x2="97.9991" y2="7.52392" gradientUnits="userSpaceOnUse">
<stop offset="0.27" stop-color="#FF9E05"/>
<stop offset="0.83" stop-color="#F6DA34"/>
</linearGradient>
<linearGradient id="paint3_linear_999_3769" x1="57.1024" y1="26.4168" x2="97.9991" y2="7.52392" gradientUnits="userSpaceOnUse">
<stop offset="0.27" stop-color="#FF9E05"/>
<stop offset="0.83" stop-color="#F6DA34"/>
</linearGradient>
<linearGradient id="paint4_linear_999_3769" x1="57.1024" y1="26.4168" x2="97.9991" y2="7.52392" gradientUnits="userSpaceOnUse">
<stop offset="0.27" stop-color="#FF9E05"/>
<stop offset="0.83" stop-color="#F6DA34"/>
</linearGradient>
<linearGradient id="paint5_linear_999_3769" x1="57.1024" y1="26.4168" x2="97.9991" y2="7.52392" gradientUnits="userSpaceOnUse">
<stop offset="0.27" stop-color="#FF9E05"/>
<stop offset="0.83" stop-color="#F6DA34"/>
</linearGradient>
<linearGradient id="paint6_linear_999_3769" x1="57.1024" y1="26.4168" x2="97.9991" y2="7.52392" gradientUnits="userSpaceOnUse">
<stop offset="0.27" stop-color="#FF9E05"/>
<stop offset="0.83" stop-color="#F6DA34"/>
</linearGradient>
</defs>
</svg>
