<svg width="120" height="32" viewBox="0 0 120 32" fill="none" xmlns="http://www.w3.org/2000/svg">
<path d="M78.6471 16.7507C78.6037 16.7334 78.5951 16.7247 78.5864 16.7247C77.9686 16.6901 77.5817 16.9557 77.4258 17.5216C76.7242 20.1548 76.0312 22.7879 75.347 25.4211C75.2777 25.6809 75.1824 25.7675 74.8965 25.7675C73.6406 25.7502 72.3847 25.7502 71.1201 25.7675C70.8515 25.7675 70.6177 25.7156 70.3925 25.5597C70.1586 25.3951 69.9074 25.2392 69.6562 25.1093C69.4743 25.014 69.457 24.9014 69.509 24.7195C70.1932 22.1556 70.8689 19.5918 71.5618 17.0279C71.6138 16.846 71.6051 16.7507 71.4059 16.6554C71.1634 16.5428 70.9468 16.3869 70.7303 16.2483C70.7043 16.2743 70.6783 16.283 70.6783 16.2917C70.6523 16.6381 70.4444 16.7074 70.1153 16.6988C69.4917 16.6728 68.868 16.6988 68.2444 16.6901C68.0798 16.6901 67.9759 16.7161 67.9326 16.898C67.5861 18.2579 67.2223 19.6091 66.8498 21.0469C67.2223 20.917 67.5601 20.839 67.8633 20.6918C68.1491 20.5532 68.383 20.5619 68.6255 20.7524C68.7641 20.8564 68.9113 20.9603 69.0672 21.0296C69.4917 21.1942 69.5783 21.4887 69.5436 21.9044C69.4657 22.8486 69.4397 23.8013 69.3704 24.7541C69.3617 24.8581 69.2751 25.014 69.1885 25.0486C67.6727 25.6723 66.1136 26.088 64.4506 25.9841C63.8789 25.9494 63.3505 25.7849 62.8655 25.499C62.3804 25.2219 61.904 24.9447 61.4363 24.6415C60.7953 24.2258 60.6134 23.5935 60.5788 22.8919C60.5355 22.0084 60.8126 21.1768 61.0378 20.328C61.3323 19.202 61.6355 18.0846 61.93 16.9586C61.9473 16.8893 61.956 16.82 61.9646 16.7594C61.6701 16.5862 61.3843 16.4129 61.0638 16.2224C61.0119 16.4043 60.9686 16.5515 60.9166 16.7247C60.0591 16.7247 59.1929 16.7334 58.3354 16.7161C58.0929 16.7161 57.9976 16.7854 57.937 17.0106C57.1921 19.8343 56.4385 22.658 55.6936 25.4817C55.633 25.7242 55.529 25.7849 55.2692 25.7849C54.0132 25.7675 52.7573 25.7849 51.4927 25.7675C51.3021 25.7675 51.1116 25.6723 50.921 25.6116C50.8604 25.5943 50.8171 25.551 50.7651 25.5164C50.4706 25.3171 50.0288 25.1785 49.9076 24.91C49.795 24.6588 50.0288 24.2691 50.1155 23.9399C50.7478 21.5666 51.3801 19.202 52.0037 16.8287C52.0124 16.8027 52.0124 16.768 52.0124 16.7421C51.7179 16.5688 51.432 16.3956 51.1116 16.205C50.28 19.4012 49.4572 22.58 48.6343 25.7849H46.2004C45.9232 25.7849 45.6374 25.7589 45.3602 25.7935C44.5027 25.8975 43.7578 25.6723 43.0822 25.1526C42.9089 25.014 42.8656 24.9187 42.9176 24.7195C43.5759 22.2682 44.2428 19.8083 44.8838 17.3484C44.9964 16.9153 45.0224 16.4649 45.083 16.0231C45.0484 16.0058 45.0224 15.9798 44.9877 15.9625C44.7365 16.0664 44.4767 16.1617 44.2428 16.283C43.6192 16.6208 43.1168 17.0799 42.6577 17.6169C42.216 18.1453 42.1554 18.7949 41.9821 19.4012C41.4018 21.5147 40.8388 23.6368 40.2671 25.7849H39.9033C38.6474 25.7849 37.3914 25.7762 36.1268 25.7849C35.867 25.7849 35.6418 25.7416 35.4339 25.5943C35.1307 25.3864 34.663 25.2565 34.5504 24.9793C34.4378 24.7108 34.663 24.2951 34.7496 23.9486C35.7371 20.2241 36.7331 16.4995 37.7119 12.775C37.7726 12.5325 37.8765 12.4892 38.1104 12.4892C39.2364 12.4978 40.3537 12.4892 41.4798 12.4978C41.7136 12.4978 41.9561 12.5671 42.2766 12.6104C42.9436 12.1254 43.7578 11.6923 44.6759 11.4671C45.8019 11.1899 46.9366 11.0167 48.08 11.3632C48.3658 11.4498 48.6256 11.597 48.8855 11.7356C49.1973 11.9088 49.4918 12.1254 49.8036 12.2986C50.4792 12.6711 50.9297 13.1994 51.1375 13.953C51.2675 13.4593 51.3974 12.9656 51.536 12.4545C51.9344 12.4545 52.3328 12.4285 52.7226 12.4632C53.0691 12.4978 53.1644 12.3506 53.2597 12.0647C53.5195 11.2332 53.7707 10.393 54.1345 9.60483C54.7148 8.38353 55.5983 7.37878 56.8283 6.6945C58.3181 5.86298 59.8858 5.84566 61.4969 6.2874C62.5103 6.56458 63.3852 7.09294 64.2513 7.68193C63.671 8.80795 63.0993 9.93397 62.5623 10.9907C62.0686 10.8608 61.6268 10.7135 61.1591 10.6269C60.5181 10.497 59.9725 10.7049 59.6347 11.2592C59.4181 11.623 59.2795 12.0301 59.0803 12.4805C59.9465 12.4805 60.7433 12.3333 61.3237 13.0002C61.4969 12.6537 61.7741 12.4805 62.1552 12.4805C62.3804 12.4805 62.6143 12.4718 62.8395 12.4805C63.0387 12.4892 63.1253 12.4199 63.1773 12.2293C63.6017 10.5923 64.0435 8.96386 64.4852 7.3268C64.4939 7.30948 64.5025 7.29216 64.5285 7.23153H64.8403C66.1049 7.23153 67.3782 7.24019 68.6428 7.23153C68.9027 7.23153 69.1279 7.26617 69.3357 7.42208C69.509 7.55201 69.6995 7.64729 69.8814 7.76855C70.3838 8.08903 70.3318 7.9158 70.1759 8.51346C69.8468 9.75208 69.509 10.9907 69.1712 12.2207C69.1539 12.2986 69.1452 12.3766 69.1279 12.4978C69.8295 12.3852 70.4444 12.5065 71.0248 13.0522C70.9815 12.4459 71.3453 12.4978 71.6831 12.5152C71.7783 12.5238 71.8736 12.5152 71.9602 12.5152C72.7744 12.5152 72.7658 12.5152 72.9563 11.7616C73.606 9.18907 75.1997 7.37011 77.7896 6.45197C79.8597 5.71573 81.8779 5.93227 83.7661 7.04963C84.6409 7.56933 85.4811 8.141 86.33 8.69535C86.3733 8.72134 86.4079 8.76465 86.4686 8.81662C85.5937 9.94264 84.7189 11.06 83.8094 12.2293C83.3157 11.8829 82.7267 11.623 82.3802 11.1899C81.7999 10.4623 80.1109 10.445 79.4786 11.1206C79.1234 11.5104 78.829 11.9262 78.751 12.4892H79.1408C80.7345 12.4892 82.3196 12.4978 83.9134 12.4805C84.1992 12.4805 84.4331 12.5325 84.6669 12.6971C84.9008 12.8616 85.1433 13.0175 85.4032 13.1475C85.5937 13.2427 85.6024 13.364 85.5591 13.5372C84.4937 17.5216 83.4283 21.506 82.3716 25.4904C82.311 25.7069 82.2243 25.7762 81.9905 25.7675C80.6912 25.7589 79.392 25.7675 78.0927 25.7589C77.8935 25.7589 77.6769 25.6723 77.4864 25.5856C77.2785 25.4904 77.0966 25.3604 76.9061 25.2392C76.4123 24.9187 76.4557 25.0919 76.6116 24.4856C77.2698 21.9477 77.9455 19.4185 78.6124 16.8806C78.6384 16.8287 78.6384 16.794 78.6471 16.7507ZM82.5448 10.7308C82.9086 10.2718 83.2464 9.83869 83.5756 9.40561C83.9134 8.97253 84.2512 8.53078 84.589 8.0977C83.7228 7.33547 82.2417 6.65119 81.1849 6.50394C78.0927 6.07952 75.0871 7.6906 73.8571 10.471C73.554 11.1639 73.3721 11.9088 73.1555 12.6364C73.0949 12.8356 73.017 12.9136 72.8004 12.9049C72.428 12.8876 72.0555 12.8876 71.6744 12.9049C71.5878 12.9049 71.4492 12.9915 71.4319 13.0608C71.2067 13.8577 71.0075 14.6546 70.7822 15.5034H72.3587C71.5531 18.5437 70.7649 21.532 69.9767 24.5289H73.606C74.4028 21.5233 75.1997 18.5264 75.9879 15.5294H79.392C78.5951 18.5437 77.8069 21.5233 77.01 24.5289H80.6392C81.6786 20.6658 82.718 16.8027 83.7748 12.8876H76.6809C76.8541 12.264 76.9927 11.6923 77.1832 11.1379C77.3738 10.5836 77.7116 10.1159 78.2226 9.78672C79.0282 9.25836 79.8943 9.32766 80.7605 9.61349C81.4448 9.83003 82.0078 10.2371 82.5448 10.7308ZM43.3507 24.5896C44.5027 24.5896 45.6027 24.5809 46.7028 24.5982C46.9193 24.5982 46.9972 24.5376 47.0579 24.3297C47.7075 21.8438 48.3745 19.3579 49.0327 16.872C49.3013 15.8499 49.5524 14.8365 49.4745 13.7711C49.3965 12.7057 48.8075 11.9608 47.7335 11.7443C47.1965 11.6317 46.6161 11.6403 46.0704 11.6923C44.52 11.8309 43.1341 12.3766 42.0081 13.442C41.6357 13.7971 41.3065 14.1869 40.8994 14.6199C41.064 14.0223 41.2026 13.4939 41.3498 12.9482H38.119C37.0883 16.8287 36.0489 20.7005 35.0181 24.5896H38.656C38.682 24.5116 38.7167 24.451 38.734 24.3817C39.297 22.2509 39.886 20.1288 40.4144 17.998C40.5963 17.2618 40.9427 16.6381 41.4798 16.1011C42.1207 15.4515 42.857 14.9404 43.7924 14.7585C44.5806 14.6026 45.2389 14.9837 45.3515 15.746C45.4208 16.2224 45.4035 16.7334 45.2996 17.2011C45.031 18.3791 44.6932 19.5484 44.3901 20.7178C44.0436 21.9997 43.6971 23.273 43.3507 24.5896ZM60.0158 12.8876H57.0621C57.3133 12.0907 57.4866 11.3198 57.7984 10.6009C58.2228 9.62215 58.9244 9.29301 60.0244 9.44892C60.3796 9.50089 60.726 9.60483 61.1158 9.69145C61.5489 8.85992 61.9906 8.00242 62.441 7.11892C60.9772 6.50394 59.5134 6.20079 57.9803 6.72049C56.3519 7.26617 55.2172 8.37487 54.5243 9.86468C54.1345 10.7135 53.8746 11.6317 53.5975 12.5238C53.5022 12.827 53.3809 12.9223 53.0691 12.8963C52.7486 12.8703 52.4281 12.8789 52.099 12.8963C52.0124 12.9049 51.8738 12.9742 51.8478 13.0435C51.6226 13.8491 51.4147 14.6633 51.1895 15.5208H52.7746C51.9691 18.5437 51.1722 21.532 50.3753 24.5289C50.4706 24.5462 50.5139 24.5549 50.5659 24.5549C51.6399 24.5549 52.7053 24.5462 53.7794 24.5636C53.9959 24.5636 54.0305 24.451 54.0738 24.2951C54.429 22.9612 54.7841 21.6273 55.1392 20.2934C55.5637 18.7083 55.9881 17.1232 56.4125 15.5121H59.063C59.2016 15.5121 59.3228 15.5121 59.3661 15.3389C59.5827 14.5507 59.7906 13.7451 60.0158 12.8876ZM67.7507 21.1768C67.4128 21.2808 67.127 21.3934 66.8239 21.4713C65.8278 21.7312 64.8143 21.48 65.1868 20.0508C65.5592 18.5957 65.949 17.1492 66.3301 15.694C66.3734 15.5121 66.4774 15.4948 66.642 15.4948C67.3262 15.5034 68.0105 15.5034 68.7034 15.4948C68.7987 15.4948 68.972 15.4255 68.9893 15.3562C69.2318 14.542 69.4483 13.7191 69.6909 12.8703H67.1184C67.5861 11.112 68.0452 9.38829 68.5129 7.66461C68.4436 7.64729 68.4089 7.62996 68.383 7.62996C67.2829 7.62996 66.1829 7.62996 65.0742 7.6213C64.875 7.6213 64.8403 7.71658 64.797 7.87249C64.3726 9.46624 63.9395 11.06 63.5151 12.6537C63.4718 12.827 63.4025 12.8789 63.2206 12.8789C62.8481 12.8703 62.4757 12.8789 62.0946 12.8703C61.9213 12.8616 61.8347 12.9136 61.8001 13.0868C61.7308 13.4073 61.6355 13.7278 61.5489 14.0396C61.419 14.5073 61.289 14.9751 61.1418 15.4948H62.6836C62.6662 15.5901 62.6662 15.6334 62.6576 15.6853C62.3284 16.9499 61.982 18.2145 61.6615 19.4878C61.4103 20.4839 61.1418 21.4887 60.9859 22.4934C60.804 23.6108 61.367 24.3643 62.493 24.6329C62.9521 24.7368 63.4371 24.7714 63.9135 24.7714C64.9876 24.7801 65.9923 24.451 67.0057 24.1478C67.4648 24.0092 67.6814 23.8273 67.664 23.3336C67.6467 22.632 67.716 21.9218 67.7507 21.1768Z" fill="white"/>
</svg>
