<svg width="120" height="32" viewBox="0 0 120 32" fill="none" xmlns="http://www.w3.org/2000/svg">
<path d="M24.0444 9.68994V17.253H23.935L18.7422 9.68994H16V22.8103H19.1944V15.24H19.2746L24.5184 22.8103H27.2242V9.68994H24.0444Z" fill="white"/>
<path d="M28.683 9.68994V22.8103H31.8774V17.5374H37.1211V14.9556H31.8774V12.2644H37.69V9.68994H28.683Z" fill="white"/>
<path d="M38.3098 12.2644V9.68994H49.4611V12.2644H45.4644V22.8103H42.3211V12.2644H38.3098Z" fill="white"/>
<path d="M49.4391 22.8031V12.9719H52.4949V14.766H52.5971C52.7794 14.1169 53.0711 13.6356 53.4795 13.3147C53.8879 12.9938 54.362 12.8333 54.9017 12.8333C55.0476 12.8333 55.2007 12.8406 55.3539 12.8625C55.507 12.8771 55.6529 12.9062 55.7842 12.9427V15.6631C55.631 15.612 55.4341 15.5682 55.1934 15.5391C54.9527 15.5099 54.7412 15.4953 54.5516 15.4953C54.1797 15.4953 53.8442 15.5755 53.5379 15.7433C53.2388 15.9037 53.0055 16.1371 52.8377 16.4288C52.67 16.7206 52.5898 17.0633 52.5898 17.4572V22.8031H49.4391Z" fill="white"/>
<path fill-rule="evenodd" clip-rule="evenodd" d="M57.2649 22.6646C57.7535 22.8761 58.3078 22.9782 58.9423 22.9782V22.9855C59.4018 22.9855 59.8175 22.9272 60.1822 22.8105C60.5541 22.6938 60.875 22.526 61.1449 22.2927C61.422 22.0593 61.6481 21.7821 61.8231 21.4467H61.9033V22.8178H64.8644V16.1299C64.8644 15.6048 64.755 15.1454 64.5362 14.7369C64.3247 14.3285 64.0184 13.9857 63.6245 13.7086C63.2307 13.4242 62.7639 13.2127 62.2315 13.0668C61.6991 12.9136 61.123 12.8407 60.4885 12.8407C59.5987 12.8407 58.8475 12.9793 58.213 13.2491C57.5858 13.519 57.0899 13.8909 56.7325 14.365C56.3751 14.839 56.1563 15.3714 56.0688 15.9695L58.9715 16.0716C59.0371 15.758 59.1976 15.51 59.4528 15.3277C59.7081 15.1454 60.0436 15.0578 60.4593 15.0578C60.8458 15.0578 61.1521 15.1454 61.3782 15.3277C61.6043 15.51 61.721 15.7653 61.721 16.0935V16.1226C61.721 16.3196 61.6408 16.48 61.4803 16.5894C61.3272 16.6915 61.0792 16.779 60.7364 16.8374C60.3937 16.8957 59.9415 16.9468 59.3799 16.9978C58.8767 17.0416 58.4099 17.1218 57.965 17.2458C57.5201 17.3625 57.1336 17.5448 56.7908 17.7782C56.4481 18.0189 56.1855 18.3179 55.9886 18.6971C55.7917 19.0764 55.6969 19.5358 55.6969 20.0828C55.6969 20.7319 55.8354 21.2716 56.1126 21.7019C56.397 22.1322 56.7762 22.4531 57.2649 22.6646ZM60.8239 20.7246C60.5541 20.8632 60.2551 20.9288 59.9123 20.9288V20.9434C59.5476 20.9434 59.2486 20.8559 59.0152 20.6882C58.7819 20.5131 58.6652 20.2725 58.6652 19.9443C58.6652 19.7255 58.7162 19.5431 58.8256 19.39C58.935 19.2295 59.0955 19.0983 59.2997 19.0034C59.5112 18.9013 59.7591 18.8284 60.0582 18.7846L60.1238 18.7748C60.2498 18.7561 60.3811 18.7365 60.5176 18.7117C60.6781 18.6898 60.8312 18.6607 60.9844 18.6242C61.1376 18.5877 61.2761 18.5513 61.4001 18.5148C61.5314 18.471 61.6408 18.4273 61.7283 18.3835V19.317C61.7283 19.6379 61.6408 19.9224 61.4803 20.1631C61.3199 20.3964 61.1011 20.5861 60.8239 20.7246Z" fill="white"/>
<path fill-rule="evenodd" clip-rule="evenodd" d="M69.8454 22.9562C69.1161 22.9562 68.4524 22.7666 67.8543 22.3946C67.2563 22.0227 66.7822 21.4538 66.4249 20.7026C66.0675 19.9514 65.8925 19.0179 65.8925 17.902C65.8925 16.7862 66.0748 15.7943 66.4468 15.0431C66.8187 14.2992 67.3001 13.7449 67.8981 13.3803C68.4961 13.0229 69.1452 12.8406 69.8381 12.8406C70.3559 12.8406 70.8008 12.9281 71.1727 13.1104C71.5447 13.2855 71.8437 13.5116 72.0844 13.7887C72.3251 14.0658 72.5074 14.3576 72.6314 14.6566H72.697V9.68994H75.8476V22.8103H72.7335V21.2131H72.6387C72.5074 21.5195 72.3178 21.8039 72.0698 22.0664C71.8218 22.329 71.5155 22.5478 71.1508 22.7082C70.7862 22.8687 70.3559 22.9489 69.8527 22.9489L69.8454 22.9562ZM70.9393 20.513C71.3186 20.513 71.6468 20.4036 71.9166 20.1921C72.1865 19.9733 72.398 19.667 72.5438 19.2732C72.6897 18.8793 72.7626 18.4199 72.7626 17.8875C72.7626 17.3551 72.6897 16.8883 72.5438 16.4945C72.4053 16.1079 72.1938 15.8089 71.9166 15.5974C71.6468 15.3859 71.3186 15.2838 70.9393 15.2838C70.5601 15.2838 70.2173 15.3932 69.9475 15.6047C69.6776 15.8162 69.4734 16.1225 69.3276 16.5091C69.189 16.8956 69.1233 17.3551 69.1233 17.8875C69.1233 18.4199 69.1963 18.8793 69.3348 19.2732C69.4734 19.667 69.6776 19.9733 69.9475 20.1921C70.2173 20.4036 70.5455 20.513 70.9393 20.513Z" fill="white"/>
<path fill-rule="evenodd" clip-rule="evenodd" d="M79.2317 22.3945C79.9829 22.7957 80.8727 22.9999 81.9083 22.9999H81.9156C82.7835 22.9999 83.542 22.8686 84.1984 22.606C84.8547 22.3435 85.3871 21.9715 85.7883 21.4975C86.1967 21.0161 86.4665 20.4546 86.5832 19.8128L83.6878 19.7325C83.6076 19.9513 83.4836 20.141 83.3232 20.2868C83.1627 20.44 82.9658 20.5494 82.7397 20.6296C82.5136 20.7098 82.2584 20.7463 81.9812 20.7463C81.5801 20.7463 81.23 20.6661 80.9383 20.4983C80.6466 20.3306 80.4205 20.0972 80.26 19.7982C80.0996 19.4919 80.0194 19.1418 80.0194 18.7407V18.6532H86.6124V17.8728C86.6124 17.0705 86.4884 16.3558 86.255 15.7286C86.0217 15.1014 85.6862 14.5763 85.2632 14.146C84.8329 13.7157 84.3296 13.3948 83.7462 13.176C83.1627 12.9572 82.5209 12.8478 81.8135 12.8478C80.8143 12.8478 79.9537 13.0593 79.2171 13.4896C78.4805 13.9126 77.9116 14.5033 77.5105 15.2691C77.1094 16.0276 76.9052 16.8809 76.9052 17.9311C76.9052 18.9813 77.1021 19.8857 77.5032 20.6442C77.9116 21.4027 78.4878 21.9861 79.2317 22.3945ZM80.0215 16.8299C80.0371 16.5172 80.1235 16.2311 80.2746 15.9839C80.4351 15.714 80.6612 15.5025 80.9383 15.3493C81.2155 15.1889 81.5436 15.1087 81.8864 15.1087C82.2292 15.1087 82.5428 15.1889 82.8054 15.3348C83.0752 15.4733 83.2867 15.6775 83.4399 15.9401C83.6003 16.2026 83.6805 16.4944 83.6805 16.8299H80.0215Z" fill="white"/>
<path d="M92.8846 17.4046L88.512 9.63634C88.3166 9.286 88.6737 8.88849 89.0375 9.05692L93.0732 10.8693C93.181 10.9165 93.2956 10.9165 93.4034 10.8693L97.5402 9.03671C97.904 8.87501 98.2611 9.27926 98.059 9.62961L93.5988 17.4046C93.4371 17.6809 93.0463 17.6809 92.8846 17.4046Z" fill="#93C5FE"/>
<path d="M99.207 14.0446L103.583 21.8183C103.778 22.1689 103.421 22.5735 103.057 22.4049L99.0182 20.5913C98.9103 20.5441 98.7957 20.5441 98.6878 20.5913L94.5549 22.4116C94.1908 22.5735 93.8335 22.1689 94.0357 21.8183L98.4991 14.0379C98.6609 13.7615 99.0519 13.7615 99.2137 14.0379L99.207 14.0446Z" fill="#0099FA"/>
</svg>
