<svg width="120" height="32" viewBox="0 0 120 32" fill="none" xmlns="http://www.w3.org/2000/svg">
<path d="M30.1578 6H35.9172C36.1619 6 36.3603 6.19834 36.3603 6.443V12.2024C36.3603 12.4471 36.1619 12.6454 35.9172 12.6454H30.1578C29.9132 12.6454 29.7148 12.4471 29.7148 12.2024V6.443C29.7148 6.19834 29.9132 6 30.1578 6Z" fill="white"/>
<path d="M36.8062 12.6454H42.5656C42.8103 12.6454 43.0086 12.8438 43.0086 13.0885V18.8479C43.0086 19.0926 42.8103 19.2909 42.5656 19.2909H36.8062C36.5615 19.2909 36.3631 19.0926 36.3631 18.8479V13.0885C36.3631 12.8438 36.5615 12.6454 36.8062 12.6454Z" fill="white"/>
<path d="M49.2082 6H43.4488C43.2041 6 43.0058 6.19834 43.0058 6.443V12.2024C43.0058 12.4471 43.2041 12.6454 43.4488 12.6454H49.2082C49.4529 12.6454 49.6513 12.4471 49.6513 12.2024V6.443C49.6513 6.19834 49.4529 6 49.2082 6Z" fill="white"/>
<path d="M30.1578 19.291H35.9173C36.1619 19.291 36.3603 19.4893 36.3603 19.734V25.4934C36.3603 25.738 36.1619 25.9364 35.9173 25.9364H30.1578C29.9132 25.9364 29.7148 25.738 29.7148 25.4934V19.734C29.7148 19.4893 29.9132 19.291 30.1578 19.291Z" fill="white"/>
<path d="M49.2082 19.291H43.4488C43.2041 19.291 43.0058 19.4893 43.0058 19.734V25.4934C43.0058 25.738 43.2041 25.9364 43.4488 25.9364H49.2082C49.4529 25.9364 49.6513 25.738 49.6513 25.4934V19.734C49.6513 19.4893 49.4529 19.291 49.2082 19.291Z" fill="white"/>
<path fill-rule="evenodd" clip-rule="evenodd" d="M65.5366 14.8246C65.9933 13.9796 66.2217 12.9547 66.2217 11.75C66.2217 10.5453 65.9933 9.52047 65.5366 8.67541C65.0835 7.83034 64.465 7.18665 63.6811 6.74433C62.9007 6.29842 62.0233 6.07547 61.0488 6.07547C60.0671 6.07547 59.186 6.29842 58.4057 6.74433C57.6254 7.18665 57.0086 7.83034 56.5555 8.67541C56.1024 9.52047 55.8759 10.5453 55.8759 11.75C55.8759 12.9511 56.1024 13.9742 56.5555 14.8192C57.0086 15.6643 57.6254 16.3098 58.4057 16.7557C59.186 17.2016 60.0671 17.4246 61.0488 17.4246C62.0233 17.4246 62.9007 17.2034 63.6811 16.7611C64.465 16.3152 65.0835 15.6697 65.5366 14.8246ZM63.5031 9.77579C63.7368 10.3116 63.8537 10.9697 63.8537 11.75C63.8537 12.5304 63.7368 13.1884 63.5031 13.7242C63.2729 14.2601 62.9475 14.6664 62.5268 14.9433C62.106 15.2202 61.6134 15.3586 61.0488 15.3586C60.4842 15.3586 59.9916 15.2202 59.5708 14.9433C59.1501 14.6664 58.8228 14.2601 58.5891 13.7242C58.359 13.1884 58.2439 12.5304 58.2439 11.75C58.2439 10.9697 58.359 10.3116 58.5891 9.77579C58.8228 9.23998 59.1501 8.83363 59.5708 8.55674C59.9916 8.27984 60.4842 8.14139 61.0488 8.14139C61.6134 8.14139 62.106 8.27984 62.5268 8.55674C62.9475 8.83363 63.2729 9.23998 63.5031 9.77579Z" fill="white"/>
<path d="M69.3188 17.2736V6.22655H71.6545V11.0974H71.8001L75.7755 6.22655H78.575L74.4756 11.1729L78.6236 17.2736H75.8295L72.8034 12.7318L71.6545 14.1342V17.2736H69.3188Z" fill="white"/>
<path d="M83.3485 6.22655L85.5762 9.9916H85.6625L87.9011 6.22655H90.5388L87.1675 11.7501L90.6143 17.2736H87.9281L85.6625 13.5031H85.5762L83.3107 17.2736H80.6353L84.0929 11.7501L80.7 6.22655H83.3485Z" fill="white"/>
<path d="M89.5209 22.7393C89.5033 22.5625 89.4281 22.4252 89.2952 22.3273C89.1622 22.2294 88.9818 22.1805 88.7539 22.1805C88.5991 22.1805 88.4683 22.2024 88.3617 22.2462C88.255 22.2886 88.1732 22.3478 88.1162 22.4237C88.0607 22.4997 88.033 22.5859 88.033 22.6823C88.03 22.7626 88.0468 22.8328 88.0834 22.8927C88.1213 22.9526 88.1732 23.0044 88.2389 23.0483C88.3047 23.0906 88.3807 23.1279 88.4668 23.16C88.553 23.1907 88.6451 23.217 88.743 23.2389L89.1462 23.3353C89.3419 23.3791 89.5216 23.4376 89.6852 23.5106C89.8489 23.5837 89.9906 23.6735 90.1104 23.7802C90.2301 23.8868 90.3229 24.0124 90.3886 24.1571C90.4558 24.3017 90.4902 24.4675 90.4916 24.6545C90.4902 24.9291 90.4201 25.1673 90.2813 25.3689C90.144 25.569 89.9453 25.7246 89.6852 25.8356C89.4267 25.9452 89.1147 26 88.7495 26C88.3872 26 88.0717 25.9445 87.8029 25.8334C87.5355 25.7224 87.3266 25.5581 87.1762 25.3404C87.0271 25.1213 86.949 24.8503 86.9417 24.5274H87.8598C87.8701 24.6779 87.9132 24.8035 87.9891 24.9043C88.0666 25.0037 88.1696 25.0789 88.2981 25.13C88.4281 25.1797 88.575 25.2045 88.7386 25.2045C88.8993 25.2045 89.0388 25.1812 89.1571 25.1344C89.2769 25.0877 89.3697 25.0226 89.4354 24.9394C89.5012 24.8561 89.534 24.7604 89.534 24.6523C89.534 24.5515 89.5041 24.4668 89.4442 24.3981C89.3857 24.3295 89.2996 24.271 89.1856 24.2228C89.0731 24.1746 88.9351 24.1308 88.7714 24.0913L88.2828 23.9686C87.9044 23.8766 87.6057 23.7327 87.3865 23.5369C87.1674 23.3412 87.0585 23.0775 87.06 22.7458C87.0585 22.4741 87.1309 22.2367 87.277 22.0337C87.4245 21.8306 87.6268 21.6721 87.884 21.5581C88.1411 21.4442 88.4333 21.3872 88.7605 21.3872C89.0936 21.3872 89.3843 21.4442 89.6326 21.5581C89.8825 21.6721 90.0767 21.8306 90.2155 22.0337C90.3543 22.2367 90.4259 22.4719 90.4303 22.7393H89.5209Z" fill="white"/>
<path d="M83.0611 21.4486V25.9364H86.0939V25.1541H84.0099V24.0826H85.9295V23.3003H84.0099V22.2309H86.0851V21.4486H83.0611Z" fill="white"/>
<path fill-rule="evenodd" clip-rule="evenodd" d="M78.7646 25.9364V21.4486H80.5352C80.8742 21.4486 81.1634 21.5092 81.403 21.6305C81.644 21.7503 81.8274 21.9205 81.953 22.141C82.0801 22.3602 82.1437 22.618 82.1437 22.9146C82.1437 23.2126 82.0794 23.469 81.9508 23.6837C81.8223 23.897 81.636 24.0607 81.392 24.1746C81.3787 24.1809 81.3651 24.187 81.3514 24.1929L82.3036 25.9364H81.2562L80.4061 24.3455H79.7135V25.9364H78.7646ZM79.7135 22.2243V23.5829H80.3577C80.5389 23.5829 80.6894 23.5581 80.8091 23.5084C80.9289 23.4588 81.0181 23.3843 81.0765 23.2849C81.1364 23.1856 81.1663 23.0621 81.1663 22.9146C81.1663 22.7656 81.1364 22.6399 81.0765 22.5377C81.0181 22.4354 80.9282 22.358 80.807 22.3054C80.6872 22.2513 80.536 22.2243 80.3533 22.2243H79.7135Z" fill="white"/>
<path d="M77.7371 21.4486H76.7883V24.282C76.7883 24.4529 76.7503 24.6048 76.6743 24.7378C76.5998 24.8707 76.4939 24.9752 76.3566 25.0511C76.2207 25.1271 76.0608 25.1651 75.8767 25.1651C75.6941 25.1651 75.5341 25.1271 75.3968 25.0511C75.2595 24.9752 75.1528 24.8707 75.0768 24.7378C75.0023 24.6048 74.9651 24.4529 74.9651 24.282V21.4486H74.0162V24.3631C74.0162 24.6903 74.0937 24.9766 74.2485 25.2221C74.4034 25.4675 74.6203 25.6589 74.8993 25.7962C75.1784 25.9321 75.5042 26 75.8767 26C76.2477 26 76.5728 25.9321 76.8518 25.7962C77.1309 25.6589 77.3478 25.4675 77.5027 25.2221C77.659 24.9766 77.7371 24.6903 77.7371 24.3631V21.4486Z" fill="white"/>
<path d="M69.4764 22.2309V21.4486H73.1623V22.2309H71.7883V25.9364H70.8504V22.2309H69.4764Z" fill="white"/>
<path d="M68.6167 25.9364V21.4486H67.6722V24.271H67.6328L65.6957 21.4486H64.8629V25.9364H65.8118V23.1118H65.8447L67.7971 25.9364H68.6167Z" fill="white"/>
<path d="M60.8377 25.9364V21.4486H63.8617V22.2309H61.7865V23.3003H63.7062V24.0826H61.7865V25.1541H63.8705V25.9364H60.8377Z" fill="white"/>
<path d="M57.8702 24.8583L56.7855 21.4486H55.7314L57.2807 25.9364H58.5035L60.0506 21.4486H58.9987L57.9118 24.8583H57.8702Z" fill="white"/>
</svg>
