<svg width="120" height="32" viewBox="0 0 120 32" fill="none" xmlns="http://www.w3.org/2000/svg">
<path d="M38.0391 16C38.0391 22.6274 32.6665 28 26.0391 28C19.4116 28 14.0391 22.6274 14.0391 16C14.0391 9.37259 19.4116 4 26.0391 4C32.6665 4 38.0391 9.37259 38.0391 16Z" fill="white"/>
<path d="M26.1316 4.00043C19.406 3.94443 13.9433 9.39443 13.9995 16.1044C14.0556 22.6204 19.392 27.9444 25.9211 27.9984C32.6468 28.0564 38.1114 22.6044 38.0533 15.8944C37.9992 9.38043 32.6628 4.05643 26.1316 4.00043ZM22.5353 9.97243C23.3051 10.9484 23.7662 12.1825 23.7662 13.5224C23.7662 14.6825 23.4213 15.7625 22.828 16.6644H18.6583L22.5353 9.97243ZM35.2488 18.1464C35.2488 18.2024 35.2187 18.2504 35.1666 18.2724C34.884 18.3924 33.9518 18.8244 33.5629 19.3625C32.5625 20.7525 31.7988 22.9365 30.0908 22.9365H22.9642C20.4404 22.9365 18.3295 20.9384 18.3315 18.2764C18.3315 18.2105 18.3876 18.1564 18.4538 18.1564H21.8316C21.9479 18.1564 22.0401 18.2504 22.0401 18.3644V19.0144C22.0401 19.3605 22.3208 19.6404 22.6676 19.6404H25.2296V18.1524H23.4795C24.4858 16.8804 25.0852 15.2744 25.0852 13.5264C25.0852 11.5764 24.3354 9.79843 23.1086 8.46842C23.8503 8.55443 24.56 8.70243 25.2296 8.89843V8.48443C25.2296 8.05443 25.5783 7.70643 26.0093 7.70643C26.4403 7.70643 26.7891 8.05443 26.7891 8.48443V9.48243C29.1807 10.5964 30.7463 12.4444 30.7463 14.5344C30.7463 15.7605 30.2091 16.9024 29.2809 17.8624C29.1026 18.0464 28.8559 18.1504 28.5974 18.1504H26.7891V19.6364H29.0584C29.5475 19.6364 30.4256 18.7104 30.8426 18.1524C30.8426 18.1524 30.8606 18.1244 30.9087 18.1104C30.9569 18.0964 35.0764 17.1525 35.0764 17.1525C35.1626 17.1285 35.2488 17.1944 35.2488 17.2824V18.1464Z" fill="#0086FF"/>
<path fill-rule="evenodd" clip-rule="evenodd" d="M47.8257 21.2075C46.8741 21.2075 46.0002 20.9846 45.2039 20.539C44.4077 20.0933 43.7766 19.4782 43.3105 18.6934C42.8444 17.8991 42.6113 17.003 42.6113 16.0051C42.6113 15.017 42.8444 14.1306 43.3105 13.3458C43.7766 12.5514 44.4077 11.9315 45.2039 11.4858C46.0002 11.0402 46.8741 10.8174 47.8257 10.8174C48.7871 10.8174 49.661 11.0402 50.4475 11.4858C51.2437 11.9315 51.87 12.5514 52.3265 13.3458C52.7926 14.1306 53.0256 15.017 53.0256 16.0051C53.0256 17.003 52.7926 17.8991 52.3265 18.6934C51.87 19.4782 51.2437 20.0933 50.4475 20.539C49.6512 20.9846 48.7773 21.2075 47.8257 21.2075ZM47.8257 19.391C48.4375 19.391 48.9764 19.2553 49.4425 18.9841C49.9086 18.7032 50.2727 18.3059 50.5349 17.7925C50.797 17.279 50.9282 16.6833 50.9282 16.0051C50.9282 15.327 50.797 14.7361 50.5349 14.2323C50.2727 13.7188 49.9086 13.3265 49.4425 13.0552C48.9764 12.7839 48.4375 12.6483 47.8257 12.6483C47.214 12.6483 46.6702 12.7839 46.1944 13.0552C45.7283 13.3265 45.3642 13.7188 45.102 14.2323C44.8398 14.7361 44.7087 15.327 44.7087 16.0051C44.7087 16.6833 44.8398 17.279 45.102 17.7925C45.3642 18.3059 45.7283 18.7032 46.1944 18.9841C46.6702 19.2553 47.214 19.391 47.8257 19.391Z" fill="white"/>
<path fill-rule="evenodd" clip-rule="evenodd" d="M55.9991 14.2178C56.2613 13.8497 56.6206 13.5446 57.077 13.3024C57.5431 13.0505 58.0722 12.9246 58.6646 12.9246C59.354 12.9246 59.9754 13.0941 60.529 13.4332C61.0922 13.7722 61.534 14.2566 61.8544 14.8863C62.1846 15.5064 62.3496 16.2281 62.3496 17.0515C62.3496 17.875 62.1846 18.6064 61.8544 19.2458C61.534 19.8755 61.0922 20.3647 60.529 20.7135C59.9754 21.0622 59.354 21.2366 58.6646 21.2366C58.0722 21.2366 57.5479 21.1155 57.0915 20.8733C56.6449 20.6311 56.2808 20.326 55.9991 19.9578V24.9422H53.96V13.0553H55.9991V14.2178ZM60.2668 17.0515C60.2668 16.5671 60.1649 16.1506 59.9609 15.8018C59.7667 15.4434 59.5046 15.1721 59.1744 14.9881C58.8539 14.804 58.5044 14.712 58.1257 14.712C57.7567 14.712 57.4071 14.8088 57.077 15.0026C56.7565 15.1866 56.4944 15.4579 56.2904 15.8164C56.0962 16.1748 55.9991 16.5962 55.9991 17.0806C55.9991 17.565 56.0962 17.9864 56.2904 18.3448C56.4944 18.7033 56.7565 18.9794 57.077 19.1732C57.4071 19.3572 57.7567 19.4492 58.1257 19.4492C58.5044 19.4492 58.8539 19.3523 59.1744 19.1586C59.5046 18.9648 59.7667 18.6888 59.9609 18.3303C60.1649 17.9719 60.2668 17.5456 60.2668 17.0515Z" fill="white"/>
<path fill-rule="evenodd" clip-rule="evenodd" d="M71.1283 17.6909C71.1672 17.4584 71.1866 17.1969 71.1866 16.9062C71.1866 16.1215 71.0167 15.4289 70.6769 14.8282C70.3467 14.2178 69.8758 13.7481 69.264 13.4187C68.6619 13.0893 67.9774 12.9246 67.2103 12.9246C66.414 12.9246 65.71 13.0941 65.0983 13.4332C64.4865 13.7722 64.0108 14.2566 63.6709 14.8863C63.331 15.516 63.1611 16.2475 63.1611 17.0806C63.1611 17.904 63.331 18.6307 63.6709 19.2603C64.0204 19.8901 64.5012 20.3792 65.1129 20.728C65.7343 21.0671 66.4334 21.2366 67.2103 21.2366C68.1716 21.2366 68.9824 20.9896 69.6427 20.4955C70.303 19.9917 70.7497 19.3523 70.9827 18.5773H68.7833C68.4629 19.2264 67.924 19.551 67.1666 19.551C66.6422 19.551 66.2004 19.3863 65.8412 19.0569C65.4818 18.7275 65.278 18.2722 65.2294 17.6909H71.1283ZM68.5066 15.0752C68.8756 15.3852 69.065 15.8018 69.0746 16.325H65.2439C65.3216 15.7825 65.5304 15.361 65.8703 15.0607C66.2198 14.7507 66.6471 14.5957 67.152 14.5957C67.6861 14.5957 68.1376 14.7556 68.5066 15.0752Z" fill="white"/>
<path d="M76.7098 12.939C77.6712 12.939 78.448 13.2442 79.0403 13.8545C79.6326 14.4551 79.9288 15.298 79.9288 16.383V21.1057H77.8897V16.659C77.8897 16.0197 77.7294 15.5305 77.4089 15.1914C77.0885 14.8426 76.6515 14.6682 76.0981 14.6682C75.5349 14.6682 75.0882 14.8426 74.7581 15.1914C74.4376 15.5305 74.2774 16.0197 74.2774 16.659V21.1057H72.2383V13.0552H74.2774V14.058C74.5493 13.7092 74.894 13.4379 75.3115 13.2442C75.7388 13.0407 76.2049 12.939 76.7098 12.939Z" fill="white"/>
<path d="M82.7278 20.8441C83.3006 21.0864 83.9415 21.2075 84.6504 21.2075C85.398 21.2075 86.0438 21.0718 86.5876 20.8006C87.1313 20.5196 87.544 20.1466 87.8256 19.6816C88.1072 19.2166 88.248 18.7128 88.248 18.1703C88.248 17.5407 88.0975 17.032 87.7965 16.6445C87.4954 16.257 87.1362 15.9664 86.7186 15.7726C86.3011 15.5789 85.7621 15.3851 85.1018 15.1914C84.6163 15.0461 84.2377 14.9201 83.9658 14.8136C83.7036 14.6973 83.4803 14.552 83.2957 14.3776C83.121 14.1936 83.0336 13.9658 83.0336 13.6946C83.0336 13.3071 83.1501 13.0117 83.3832 12.8082C83.6259 12.6048 83.9464 12.503 84.3445 12.503C84.8009 12.503 85.165 12.6193 85.4369 12.8518C85.7185 13.0746 85.869 13.3604 85.8884 13.7092H88.1314C88.0635 12.7985 87.6994 12.0913 87.0391 11.5876C86.3885 11.0741 85.5389 10.8174 84.4901 10.8174C83.791 10.8174 83.1695 10.9385 82.6258 11.1807C82.082 11.4132 81.6596 11.7522 81.3586 12.1979C81.0576 12.6435 80.907 13.1667 80.907 13.7673C80.907 14.4067 81.0527 14.9201 81.344 15.3076C81.645 15.6855 81.9994 15.9712 82.4073 16.165C82.8249 16.349 83.3638 16.538 84.0241 16.7317C84.5096 16.8674 84.8882 16.9933 85.1601 17.1095C85.4417 17.2161 85.6748 17.3663 85.8592 17.56C86.0438 17.7538 86.136 18.0008 86.136 18.3012C86.136 18.6693 86.0001 18.9696 85.7282 19.2021C85.4563 19.4249 85.0824 19.5363 84.6067 19.5363C84.1406 19.5363 83.7716 19.4152 83.4997 19.1731C83.2375 18.9308 83.0919 18.6014 83.0627 18.1849H80.8779C80.8876 18.8049 81.0576 19.3426 81.3877 19.7978C81.7179 20.2532 82.1646 20.602 82.7278 20.8441Z" fill="white"/>
<path fill-rule="evenodd" clip-rule="evenodd" d="M96.934 16.9062C96.934 17.1969 96.914 17.4584 96.8756 17.6909H90.9765C91.025 18.2722 91.2289 18.7275 91.5882 19.0569C91.9475 19.3863 92.3894 19.551 92.9137 19.551C93.6711 19.551 94.2103 19.2264 94.5308 18.5773H96.7302C96.4968 19.3523 96.0501 19.9917 95.3899 20.4955C94.7298 20.9896 93.9187 21.2366 92.9573 21.2366C92.1805 21.2366 91.4815 21.0671 90.86 20.728C90.2482 20.3792 89.7676 19.8901 89.418 19.2603C89.0781 18.6307 88.9082 17.904 88.9082 17.0806C88.9082 16.2475 89.0781 15.516 89.418 14.8863C89.7578 14.2566 90.2337 13.7722 90.8454 13.4332C91.4572 13.0941 92.1611 12.9246 92.9573 12.9246C93.7245 12.9246 94.4093 13.0893 95.0111 13.4187C95.6225 13.7481 96.094 14.2178 96.4241 14.8282C96.7638 15.4289 96.934 16.1215 96.934 16.9062ZM94.8217 16.325C94.8121 15.8018 94.6227 15.3852 94.2535 15.0752C93.8847 14.7556 93.4332 14.5957 92.8991 14.5957C92.3941 14.5957 91.9669 14.7507 91.6173 15.0607C91.2775 15.361 91.0688 15.7825 90.9911 16.325H94.8217Z" fill="white"/>
<path fill-rule="evenodd" clip-rule="evenodd" d="M98.0876 14.8863C97.7671 15.516 97.6064 16.2378 97.6064 17.0515C97.6064 17.875 97.7671 18.6064 98.0876 19.2458C98.4176 19.8755 98.8596 20.3647 99.4126 20.7135C99.9761 21.0622 100.598 21.2366 101.277 21.2366C101.879 21.2366 102.409 21.1155 102.865 20.8733C103.331 20.6215 103.695 20.3066 103.958 19.9288V21.1058H106.011V13.0553H103.958V14.2033C103.685 13.8352 103.322 13.5301 102.865 13.2878C102.418 13.0457 101.894 12.9246 101.292 12.9246C100.603 12.9246 99.9761 13.0941 99.4126 13.4332C98.8596 13.7722 98.4176 14.2566 98.0876 14.8863ZM103.666 15.8164C103.86 16.1651 103.958 16.5865 103.958 17.0806C103.958 17.5747 103.86 18.0009 103.666 18.3594C103.472 18.7082 103.21 18.9794 102.88 19.1732C102.549 19.3572 102.195 19.4492 101.816 19.4492C101.447 19.4492 101.097 19.3523 100.767 19.1586C100.447 18.9648 100.185 18.6888 99.9809 18.3303C99.7867 17.9622 99.6899 17.5359 99.6899 17.0515C99.6899 16.5671 99.7867 16.1506 99.9809 15.8018C100.185 15.4434 100.447 15.1721 100.767 14.9881C101.088 14.804 101.438 14.712 101.816 14.712C102.195 14.712 102.549 14.8088 102.88 15.0026C103.21 15.1866 103.472 15.4579 103.666 15.8164Z" fill="white"/>
</svg>
