<svg width="120" height="32" viewBox="0 0 120 32" fill="none" xmlns="http://www.w3.org/2000/svg">
<path d="M40.6097 20.5628C39.7489 20.5628 38.9583 20.3607 38.238 19.9567C37.5176 19.5526 36.9467 18.9948 36.525 18.2832C36.1034 17.5629 35.8925 16.7504 35.8925 15.8456C35.8925 14.9496 36.1034 14.1458 36.525 13.4343C36.9467 12.714 37.5176 12.1518 38.238 11.7477C38.9583 11.3436 39.7489 11.1416 40.6097 11.1416C41.4794 11.1416 42.27 11.3436 42.9815 11.7477C43.7018 12.1518 44.2684 12.714 44.6813 13.4343C45.1029 14.1458 45.3137 14.9496 45.3137 15.8456C45.3137 16.7504 45.1029 17.5629 44.6813 18.2832C44.2684 18.9948 43.7018 19.5526 42.9815 19.9567C42.2612 20.3607 41.4706 20.5628 40.6097 20.5628ZM40.6097 18.9157C41.1631 18.9157 41.6507 18.7927 42.0723 18.5468C42.494 18.292 42.8234 17.9319 43.0605 17.4663C43.2977 17.0007 43.4163 16.4605 43.4163 15.8456C43.4163 15.2307 43.2977 14.6949 43.0605 14.2381C42.8234 13.7725 42.494 13.4167 42.0723 13.1708C41.6507 12.9248 41.1631 12.8018 40.6097 12.8018C40.0563 12.8018 39.5644 12.9248 39.134 13.1708C38.7123 13.4167 38.3829 13.7725 38.1457 14.2381C37.9085 14.6949 37.79 15.2307 37.79 15.8456C37.79 16.4605 37.9085 17.0007 38.1457 17.4663C38.3829 17.9319 38.7123 18.292 39.134 18.5468C39.5644 18.7927 40.0563 18.9157 40.6097 18.9157Z" fill="white"/>
<path d="M48.0038 14.2249C48.241 13.8911 48.566 13.6144 48.9789 13.3948C49.4005 13.1664 49.8792 13.0522 50.4151 13.0522C51.0388 13.0522 51.601 13.2059 52.1017 13.5134C52.6112 13.8208 53.0109 14.2601 53.3007 14.831C53.5994 15.3932 53.7487 16.0477 53.7487 16.7943C53.7487 17.541 53.5994 18.2042 53.3007 18.784C53.0109 19.355 52.6112 19.7986 52.1017 20.1148C51.601 20.431 51.0388 20.5892 50.4151 20.5892C49.8792 20.5892 49.4049 20.4794 48.992 20.2597C48.588 20.0401 48.2585 19.7634 48.0038 19.4296V23.9492H46.1591V13.1708H48.0038V14.2249ZM51.8645 16.7943C51.8645 16.3551 51.7723 15.9774 51.5878 15.6612C51.4121 15.3361 51.1749 15.0902 50.8763 14.9233C50.5864 14.7564 50.2701 14.6729 49.9276 14.6729C49.5938 14.6729 49.2775 14.7608 48.9789 14.9365C48.689 15.1034 48.4518 15.3493 48.2673 15.6743C48.0916 15.9994 48.0038 16.3815 48.0038 16.8207C48.0038 17.2599 48.0916 17.642 48.2673 17.967C48.4518 18.2921 48.689 18.5424 48.9789 18.7181C49.2775 18.885 49.5938 18.9685 49.9276 18.9685C50.2701 18.9685 50.5864 18.8806 50.8763 18.7049C51.1749 18.5292 51.4121 18.2789 51.5878 17.9539C51.7723 17.6288 51.8645 17.2423 51.8645 16.7943Z" fill="white"/>
<path d="M61.7434 16.6626C61.7434 16.9261 61.7258 17.1633 61.6907 17.3741H56.3542C56.3981 17.9012 56.5826 18.314 56.9076 18.6127C57.2327 18.9114 57.6323 19.0607 58.1067 19.0607C58.7919 19.0607 59.2794 18.7664 59.5693 18.1779H61.5589C61.3481 18.8806 60.944 19.4604 60.3467 19.9172C59.7494 20.3652 59.0159 20.5892 58.1462 20.5892C57.4435 20.5892 56.811 20.4354 56.2488 20.128C55.6954 19.8117 55.2606 19.3681 54.9443 18.7972C54.6369 18.2262 54.4832 17.5674 54.4832 16.8207C54.4832 16.0652 54.6369 15.402 54.9443 14.831C55.2518 14.2601 55.6822 13.8208 56.2356 13.5134C56.789 13.2059 57.4259 13.0522 58.1462 13.0522C58.8402 13.0522 59.4595 13.2016 60.0041 13.5002C60.5575 13.7989 60.9836 14.2249 61.2822 14.7783C61.5897 15.323 61.7434 15.951 61.7434 16.6626ZM59.8328 16.1355C59.824 15.6612 59.6527 15.2834 59.3189 15.0023C58.9851 14.7125 58.5767 14.5675 58.0935 14.5675C57.6367 14.5675 57.2502 14.7081 56.934 14.9892C56.6265 15.2615 56.4377 15.6436 56.3674 16.1355H59.8328Z" fill="white"/>
<path d="M66.7396 13.0654C67.6095 13.0654 68.3122 13.3421 68.848 13.8955C69.3839 14.4401 69.6516 15.2044 69.6516 16.1882V20.4706H67.8071V16.4386C67.8071 15.8588 67.662 15.4152 67.3721 15.1077C67.0822 14.7915 66.6871 14.6334 66.1862 14.6334C65.6769 14.6334 65.2728 14.7915 64.9742 15.1077C64.6843 15.4152 64.5392 15.8588 64.5392 16.4386V20.4706H62.6946V13.1708H64.5392V14.08C64.7853 13.7637 65.0971 13.5178 65.4749 13.3421C65.8614 13.1576 66.2829 13.0654 66.7396 13.0654Z" fill="white"/>
<path d="M73.9227 20.5628C73.2814 20.5628 72.7017 20.453 72.1834 20.2334C71.6739 20.0138 71.2698 19.6975 70.9711 19.2847C70.6725 18.8718 70.5187 18.3843 70.51 17.8221H72.4864C72.5128 18.1998 72.6446 18.4985 72.8817 18.7181C73.1277 18.9377 73.4615 19.0475 73.8831 19.0475C74.3136 19.0475 74.6518 18.9465 74.8977 18.7444C75.1437 18.5336 75.2667 18.2613 75.2667 17.9275C75.2667 17.6552 75.1832 17.4312 75.0163 17.2555C74.8494 17.0798 74.6386 16.9436 74.3838 16.847C74.1379 16.7416 73.7953 16.6274 73.3561 16.5044C72.7587 16.3287 72.2712 16.1574 71.8935 15.9905C71.5246 15.8149 71.2039 15.5557 70.9316 15.2131C70.6681 14.8618 70.5363 14.3962 70.5363 13.8164C70.5363 13.2718 70.6725 12.7974 70.9448 12.3934C71.2171 11.9893 71.5992 11.6818 72.0911 11.471C72.5831 11.2514 73.1453 11.1416 73.7777 11.1416C74.7264 11.1416 75.4951 11.3744 76.0836 11.84C76.6809 12.2967 77.0104 12.938 77.0718 13.7637H75.0427C75.0251 13.4475 74.8889 13.1883 74.6342 12.9863C74.3882 12.7755 74.0588 12.6701 73.646 12.6701C73.2858 12.6701 72.9959 12.7623 72.7763 12.9468C72.5655 13.1312 72.4601 13.3992 72.4601 13.7505C72.4601 13.9965 72.5391 14.2029 72.6973 14.3698C72.8642 14.528 73.0662 14.6597 73.3034 14.7651C73.5493 14.8618 73.8919 14.976 74.3311 15.1077C74.9285 15.2834 75.416 15.4591 75.7937 15.6348C76.1715 15.8105 76.4965 16.074 76.7688 16.4254C77.0411 16.7767 77.1773 17.2379 77.1773 17.8089C77.1773 18.3008 77.0499 18.7576 76.7951 19.1792C76.5404 19.6009 76.1671 19.9391 75.6751 20.1938C75.1832 20.4398 74.5991 20.5628 73.9227 20.5628Z" fill="white"/>
<path d="M85.0353 16.6626C85.0353 16.9261 85.0177 17.1633 84.9826 17.3741H79.6461C79.69 17.9012 79.8745 18.314 80.1995 18.6127C80.5245 18.9114 80.9242 19.0607 81.3986 19.0607C82.0838 19.0607 82.5713 18.7664 82.8612 18.1779H84.8508C84.64 18.8806 84.2359 19.4604 83.6386 19.9172C83.0413 20.3652 82.3078 20.5892 81.4381 20.5892C80.7354 20.5892 80.1029 20.4354 79.5407 20.128C78.9873 19.8117 78.5525 19.3681 78.2362 18.7972C77.9288 18.2262 77.7751 17.5674 77.7751 16.8207C77.7751 16.0652 77.9288 15.402 78.2362 14.831C78.5437 14.2601 78.9741 13.8208 79.5275 13.5134C80.0809 13.2059 80.7178 13.0522 81.4381 13.0522C82.1321 13.0522 82.7514 13.2016 83.296 13.5002C83.8494 13.7989 84.2754 14.2249 84.5741 14.7783C84.8816 15.323 85.0353 15.951 85.0353 16.6626ZM83.1247 16.1355C83.1159 15.6612 82.9446 15.2834 82.6108 15.0023C82.277 14.7125 81.8685 14.5675 81.3854 14.5675C80.9286 14.5675 80.5421 14.7081 80.2259 14.9892C79.9184 15.2615 79.7296 15.6436 79.6593 16.1355H83.1247Z" fill="white"/>
<path d="M85.6439 16.7943C85.6439 16.0565 85.7889 15.402 86.0788 14.831C86.3774 14.2601 86.7771 13.8208 87.2778 13.5134C87.7873 13.2059 88.3539 13.0522 88.9776 13.0522C89.5222 13.0522 89.9966 13.162 90.4006 13.3816C90.8135 13.6012 91.1429 13.8779 91.3889 14.2117V13.1708H93.2468V20.4706H91.3889V19.4033C91.1517 19.7459 90.8223 20.0314 90.4006 20.2597C89.9878 20.4794 89.509 20.5892 88.9644 20.5892C88.3495 20.5892 87.7873 20.431 87.2778 20.1148C86.7771 19.7986 86.3774 19.355 86.0788 18.784C85.7889 18.2042 85.6439 17.541 85.6439 16.7943ZM91.3889 16.8207C91.3889 16.3727 91.301 15.9906 91.1253 15.6743C90.9497 15.3493 90.7125 15.1034 90.4138 14.9365C90.1151 14.7608 89.7945 14.6729 89.4519 14.6729C89.1093 14.6729 88.7931 14.7564 88.5032 14.9233C88.2133 15.0902 87.9762 15.3361 87.7917 15.6612C87.616 15.9774 87.5282 16.3551 87.5282 16.7943C87.5282 17.2336 87.616 17.6201 87.7917 17.9539C87.9762 18.2789 88.2133 18.5292 88.5032 18.7049C88.8019 18.8806 89.1181 18.9685 89.4519 18.9685C89.7945 18.9685 90.1151 18.885 90.4138 18.7181C90.7125 18.5424 90.9497 18.2965 91.1253 17.9802C91.301 17.6552 91.3889 17.2687 91.3889 16.8207Z" fill="white"/>
<path d="M102.351 13.9746C102.351 14.7389 102.087 15.3757 101.56 15.8852C101.042 16.3859 100.247 16.6363 99.1753 16.6363H97.4097V20.4706H96.2106V11.2866H99.1753C100.212 11.2866 100.998 11.537 101.534 12.0377C102.079 12.5384 102.351 13.184 102.351 13.9746ZM99.1753 15.648C99.8429 15.648 100.335 15.5031 100.651 15.2132C100.967 14.9233 101.125 14.5105 101.125 13.9746C101.125 12.8414 100.475 12.2749 99.1753 12.2749H97.4097V15.648H99.1753Z" fill="url(#paint0_linear_1007_757)"/>
<path d="M104.513 14.4226C104.724 14.0098 105.023 13.6891 105.409 13.4608C105.805 13.2324 106.283 13.1182 106.845 13.1182V14.3568H106.529C105.185 14.3568 104.513 15.0859 104.513 16.544V20.4706H103.314V13.2499H104.513V14.4226Z" fill="url(#paint1_linear_1007_757)"/>
<path d="M110.852 20.5892C110.175 20.5892 109.56 20.4355 109.007 20.1281C108.462 19.8206 108.032 19.3858 107.716 18.8236C107.408 18.2526 107.254 17.5938 107.254 16.8471C107.254 16.1092 107.413 15.4592 107.729 14.897C108.054 14.326 108.493 13.8912 109.046 13.5925C109.6 13.2851 110.219 13.1313 110.904 13.1313C111.589 13.1313 112.209 13.2851 112.762 13.5925C113.316 13.8912 113.75 14.3216 114.067 14.8838C114.392 15.446 114.554 16.1004 114.554 16.8471C114.554 17.5938 114.387 18.2526 114.053 18.8236C113.728 19.3858 113.285 19.8206 112.723 20.1281C112.16 20.4355 111.537 20.5892 110.852 20.5892ZM110.852 19.5351C111.282 19.5351 111.686 19.4341 112.064 19.2321C112.442 19.03 112.745 18.727 112.973 18.3229C113.21 17.9188 113.329 17.4269 113.329 16.8471C113.329 16.2673 113.215 15.7754 112.986 15.3713C112.758 14.9673 112.459 14.6686 112.09 14.4753C111.721 14.2733 111.322 14.1723 110.891 14.1723C110.452 14.1723 110.048 14.2733 109.679 14.4753C109.319 14.6686 109.029 14.9673 108.809 15.3713C108.59 15.7754 108.48 16.2673 108.48 16.8471C108.48 17.4357 108.585 17.932 108.796 18.3361C109.016 18.7401 109.306 19.0432 109.666 19.2452C110.026 19.4385 110.421 19.5351 110.852 19.5351Z" fill="url(#paint2_linear_1007_757)"/>
<mask id="mask0_1007_757" style="mask-type:luminance" maskUnits="userSpaceOnUse" x="5" y="4" width="28" height="24">
<path d="M32.1412 4H5V28H32.1412V4Z" fill="white"/>
</mask>
<g mask="url(#mask0_1007_757)">
<mask id="mask1_1007_757" style="mask-type:luminance" maskUnits="userSpaceOnUse" x="5" y="4" width="28" height="24">
<path d="M31.8936 15.0762L26.032 4.92376C25.7019 4.35214 25.0921 4 24.4321 4H12.709C12.049 4 11.439 4.35214 11.1091 4.92376L5.24745 15.0762C4.91739 15.6479 4.91739 16.3521 5.24745 16.9238L11.109 27.0762C11.439 27.6478 12.0489 28 12.7089 28H24.432C25.0921 28 25.7019 27.6478 26.032 27.0762L31.8935 16.9238C32.2235 16.3521 32.2237 15.6479 31.8936 15.0762ZM14.8532 9.46902C15.6661 10.502 16.151 11.8051 16.151 13.2216C16.151 14.4483 15.7864 15.5893 15.1611 16.5442H10.7633L14.8532 9.46902ZM28.2646 18.1093V18.1122C28.2646 18.1707 28.2328 18.2224 28.1782 18.2452C27.8801 18.3729 26.8971 18.8278 26.4872 19.3986C25.4323 20.8675 24.626 23.1784 22.8246 23.1784H15.3076C12.6462 23.1784 10.4181 21.0656 10.4209 18.2519C10.4209 18.1815 10.4795 18.1239 10.5499 18.1239H14.1129C14.2347 18.1239 14.3335 18.2227 14.3335 18.3446V19.0323C14.3335 19.398 14.6299 19.6943 14.9954 19.6943L17.6979 19.6935V18.1216H15.851C16.9119 16.776 17.5455 15.0777 17.5455 13.2312C17.5455 11.1684 16.7552 9.29028 15.4612 7.88246C16.2439 7.97308 16.9921 8.12893 17.6979 8.33705V7.89983C17.6979 7.44562 18.0661 7.07751 18.5203 7.07751C18.9745 7.07751 19.3427 7.44571 19.3427 7.89983V8.95467C21.8665 10.1321 23.5173 12.0858 23.5173 14.2971C23.5173 15.5936 22.9496 16.8016 21.9713 17.8166C21.783 18.0119 21.5222 18.1217 21.251 18.1217H19.3427V19.6933L21.7357 19.6927C22.2525 19.6927 23.1782 18.7145 23.6177 18.1242C23.6177 18.1242 23.6364 18.0949 23.6869 18.0803C23.7374 18.0657 28.0823 17.0679 28.0823 17.0679C28.1727 17.0426 28.2646 17.1117 28.2646 17.2062V18.1096V18.1093Z" fill="white"/>
</mask>
<g mask="url(#mask1_1007_757)">
<path d="M15.5609 -3.66797L0.0326233 23.2279L4.94942 26.0666L20.4777 -0.829255L15.5609 -3.66797Z" fill="url(#paint3_linear_1007_757)"/>
<path d="M19.8709 -1.18018L4.34265 25.7157L9.14784 28.4899L24.6761 1.59411L19.8709 -1.18018Z" fill="url(#paint4_linear_1007_757)"/>
<path d="M24.1799 1.30811L8.65155 28.204L13.6052 31.0639L29.1335 4.16806L24.1799 1.30811Z" fill="url(#paint5_linear_1007_757)"/>
<path d="M28.4901 3.7959L12.9618 30.6918L18.011 33.607L33.5393 6.7111L28.4901 3.7959Z" fill="url(#paint6_linear_1007_757)"/>
<path d="M32.7988 6.28418L17.2705 33.1799L21.58 35.6681L37.1083 8.77227L32.7988 6.28418Z" fill="url(#paint7_linear_1007_757)"/>
</g>
</g>
<defs>
<linearGradient id="paint0_linear_1007_757" x1="81.2003" y1="-5.72012" x2="120.952" y2="11.5488" gradientUnits="userSpaceOnUse">
<stop offset="0.395833" stop-color="#FEC847"/>
<stop offset="0.655475" stop-color="#EF7A9D"/>
<stop offset="1" stop-color="#D171FF"/>
</linearGradient>
<linearGradient id="paint1_linear_1007_757" x1="81.2003" y1="-5.72011" x2="120.952" y2="11.5488" gradientUnits="userSpaceOnUse">
<stop offset="0.395833" stop-color="#FEC847"/>
<stop offset="0.655475" stop-color="#EF7A9D"/>
<stop offset="1" stop-color="#D171FF"/>
</linearGradient>
<linearGradient id="paint2_linear_1007_757" x1="81.2003" y1="-5.7201" x2="120.952" y2="11.5488" gradientUnits="userSpaceOnUse">
<stop offset="0.395833" stop-color="#FEC847"/>
<stop offset="0.655475" stop-color="#EF7A9D"/>
<stop offset="1" stop-color="#D171FF"/>
</linearGradient>
<linearGradient id="paint3_linear_1007_757" x1="8.2988" y1="8.61868" x2="12.0207" y2="13.5284" gradientUnits="userSpaceOnUse">
<stop stop-color="#E272E4"/>
<stop offset="0.995" stop-color="#E15BD3"/>
</linearGradient>
<linearGradient id="paint4_linear_1007_757" x1="17.6292" y1="12.5194" x2="10.1351" y2="15.247" gradientUnits="userSpaceOnUse">
<stop stop-color="#F3708B"/>
<stop offset="0.313" stop-color="#F26F8D"/>
<stop offset="0.511" stop-color="#F06C96"/>
<stop offset="0.678" stop-color="#EC69A4"/>
<stop offset="0.827" stop-color="#E863B9"/>
<stop offset="0.963" stop-color="#E15CD4"/>
<stop offset="1" stop-color="#E05ADD"/>
</linearGradient>
<linearGradient id="paint5_linear_1007_757" x1="16.2546" y1="12.2525" x2="20.8341" y2="19.0813" gradientUnits="userSpaceOnUse">
<stop stop-color="#F47E7C"/>
<stop offset="1" stop-color="#F76DA1"/>
</linearGradient>
<linearGradient id="paint6_linear_1007_757" x1="20.3139" y1="14.2334" x2="25.1443" y2="21.5827" gradientUnits="userSpaceOnUse">
<stop stop-color="#FFC846"/>
<stop offset="1" stop-color="#F771A2"/>
</linearGradient>
<linearGradient id="paint7_linear_1007_757" x1="24.9299" y1="18.4618" x2="29.1818" y2="23.1931" gradientUnits="userSpaceOnUse">
<stop stop-color="#FCB145"/>
<stop offset="1" stop-color="#F89E85"/>
</linearGradient>
</defs>
</svg>
