<svg width="120" height="32" viewBox="0 0 120 32" fill="none" xmlns="http://www.w3.org/2000/svg">
<path d="M83.5078 19.6055H85.9102C85.9557 20.0547 86.1413 20.4095 86.4668 20.6699C86.7988 20.9303 87.2253 21.0605 87.7461 21.0605C88.1758 21.0605 88.5273 20.9694 88.8008 20.7871C89.0742 20.5983 89.2109 20.3639 89.2109 20.084C89.2109 19.8105 89.11 19.5924 88.9082 19.4297C88.7129 19.2604 88.4557 19.14 88.1367 19.0684C87.8177 18.9967 87.4661 18.9316 87.082 18.873C86.6979 18.8145 86.3105 18.7298 85.9199 18.6191C85.5358 18.502 85.1842 18.3457 84.8652 18.1504C84.5462 17.9551 84.2858 17.6589 84.084 17.2617C83.8887 16.8646 83.791 16.3796 83.791 15.8066C83.791 14.9212 84.1296 14.1921 84.8066 13.6191C85.4902 13.0462 86.3496 12.7598 87.3848 12.7598C88.5957 12.7598 89.5788 13.0592 90.334 13.6582C91.0892 14.2572 91.4928 15.0514 91.5449 16.041H89.1328C89.0742 15.6309 88.8822 15.3086 88.5566 15.0742C88.2376 14.8398 87.8763 14.7227 87.4727 14.7227C87.069 14.7227 86.7467 14.8073 86.5059 14.9766C86.265 15.1458 86.1445 15.3867 86.1445 15.6992C86.1445 15.9206 86.2064 16.1029 86.3301 16.2461C86.4603 16.3828 86.6296 16.4837 86.8379 16.5488C87.0527 16.6139 87.2969 16.6693 87.5703 16.7148C87.8503 16.7539 88.1432 16.7962 88.4492 16.8418C88.7552 16.8809 89.0612 16.9329 89.3672 16.998C89.6732 17.0632 89.9629 17.1673 90.2363 17.3105C90.5163 17.4538 90.7604 17.6328 90.9688 17.8477C91.1836 18.056 91.3529 18.3424 91.4766 18.707C91.6068 19.0716 91.6719 19.498 91.6719 19.9863C91.6719 20.9499 91.3138 21.7214 90.5977 22.3008C89.8815 22.8737 88.931 23.1602 87.7461 23.1602C86.5091 23.1602 85.5033 22.8411 84.7285 22.2031C83.9603 21.5586 83.5534 20.6927 83.5078 19.6055Z" fill="white"/>
<path d="M74.3477 19.6055H76.75C76.7956 20.0547 76.9811 20.4095 77.3066 20.6699C77.6387 20.9303 78.0651 21.0605 78.5859 21.0605C79.0156 21.0605 79.3672 20.9694 79.6406 20.7871C79.9141 20.5983 80.0508 20.3639 80.0508 20.084C80.0508 19.8105 79.9499 19.5924 79.748 19.4297C79.5527 19.2604 79.2956 19.14 78.9766 19.0684C78.6576 18.9967 78.306 18.9316 77.9219 18.873C77.5378 18.8145 77.1504 18.7298 76.7598 18.6191C76.3757 18.502 76.0241 18.3457 75.7051 18.1504C75.3861 17.9551 75.1257 17.6589 74.9238 17.2617C74.7285 16.8646 74.6309 16.3796 74.6309 15.8066C74.6309 14.9212 74.9694 14.1921 75.6465 13.6191C76.3301 13.0462 77.1895 12.7598 78.2246 12.7598C79.4355 12.7598 80.4186 13.0592 81.1738 13.6582C81.929 14.2572 82.3327 15.0514 82.3848 16.041H79.9727C79.9141 15.6309 79.722 15.3086 79.3965 15.0742C79.0775 14.8398 78.7161 14.7227 78.3125 14.7227C77.9089 14.7227 77.5866 14.8073 77.3457 14.9766C77.1048 15.1458 76.9844 15.3867 76.9844 15.6992C76.9844 15.9206 77.0462 16.1029 77.1699 16.2461C77.3001 16.3828 77.4694 16.4837 77.6777 16.5488C77.8926 16.6139 78.1367 16.6693 78.4102 16.7148C78.6901 16.7539 78.9831 16.7962 79.2891 16.8418C79.5951 16.8809 79.901 16.9329 80.207 16.998C80.513 17.0632 80.8027 17.1673 81.0762 17.3105C81.3561 17.4538 81.6003 17.6328 81.8086 17.8477C82.0234 18.056 82.1927 18.3424 82.3164 18.707C82.4466 19.0716 82.5117 19.498 82.5117 19.9863C82.5117 20.9499 82.1536 21.7214 81.4375 22.3008C80.7214 22.8737 79.7708 23.1602 78.5859 23.1602C77.349 23.1602 76.3431 22.8411 75.5684 22.2031C74.8001 21.5586 74.3932 20.6927 74.3477 19.6055Z" fill="white"/>
<path d="M64.084 16.4023C64.1426 15.3542 64.5723 14.485 65.373 13.7949C66.1803 13.1048 67.2546 12.7598 68.5957 12.7598C69.8783 12.7598 70.9329 13.1048 71.7598 13.7949C72.5866 14.485 73 15.3932 73 16.5195V23.0039H70.2363V21.6074C70.0671 22.0762 69.7253 22.4538 69.2109 22.7402C68.6966 23.0202 68.0944 23.1602 67.4043 23.1602C66.4342 23.1602 65.64 22.8737 65.0215 22.3008C64.4095 21.7279 64.1035 21.0085 64.1035 20.1426C64.1035 19.1595 64.4388 18.3848 65.1094 17.8184C65.7799 17.252 66.6719 16.9688 67.7852 16.9688H69.4844C69.7253 16.9688 69.9108 16.9004 70.041 16.7637C70.1712 16.627 70.2363 16.4479 70.2363 16.2266C70.2363 15.7969 70.0768 15.4518 69.7578 15.1914C69.4388 14.931 68.9993 14.8008 68.4395 14.8008C67.86 14.8008 67.4076 14.957 67.082 15.2695C66.7565 15.5755 66.584 15.9531 66.5645 16.4023H64.084ZM66.7598 20.0254C66.7598 20.3574 66.8835 20.6276 67.1309 20.8359C67.3848 21.0443 67.707 21.1484 68.0977 21.1484C68.7552 21.1484 69.276 20.9336 69.6602 20.5039C70.0443 20.0677 70.2363 19.5208 70.2363 18.8633V18.7266H68.2051C67.7819 18.7266 67.4336 18.847 67.1602 19.0879C66.8932 19.3223 66.7598 19.6348 66.7598 20.0254Z" fill="white"/>
<path d="M53 23.0039V9H58.7617C60.2266 9 61.3789 9.41016 62.2188 10.2305C63.0586 11.0443 63.4785 12.1087 63.4785 13.4238C63.4785 14.7324 63.0553 15.7969 62.209 16.6172C61.3691 17.4375 60.2201 17.8477 58.7617 17.8477H56.0176V23.0039H53ZM56.0176 15.3477H58.5859C59.2435 15.3477 59.7383 15.1654 60.0703 14.8008C60.4089 14.4362 60.5781 13.9772 60.5781 13.4238C60.5781 12.8704 60.4089 12.4115 60.0703 12.0469C59.7383 11.6823 59.2435 11.5 58.5859 11.5H56.0176V15.3477Z" fill="white"/>
<path d="M43.625 6H32.375C29.9588 6 28 7.95875 28 10.375V21.625C28 24.0412 29.9588 26 32.375 26H43.625C46.0412 26 48 24.0412 48 21.625V10.375C48 7.95875 46.0412 6 43.625 6Z" fill="url(#paint0_linear_1006_5120)"/>
<path d="M42.2812 13.6407C41.9531 11.7844 40.6062 10.3907 38.8124 10.0251C37.0781 9.67193 35.2812 10.4188 34.2999 11.9032C33.2937 13.4219 33.4749 15.5376 34.5499 17.1094C34.5624 17.9251 34.5562 18.9688 34.5593 19.7876C34.5593 20.3532 34.5593 20.9219 34.5593 21.4876C34.5593 21.8709 34.7468 22.0626 35.1218 22.0626C35.2656 22.0626 36.3812 22.0626 36.3812 22.0626C36.3812 22.0626 37.3062 21.5657 37.3562 21.5376C38.9312 20.5782 40.3562 19.4563 41.3562 17.8719C42.1749 16.5782 42.5531 15.1751 42.2812 13.6407ZM40.2312 16.7376C39.5312 18.0188 38.4562 18.9407 37.2749 19.7532C36.9312 19.9907 36.0968 20.4657 36.0968 20.4657C36.0968 20.4657 36.0968 20.1407 36.0968 20.0313C36.0968 19.5219 36.0968 18.6657 36.0968 18.1563C37.0124 18.2907 38.1843 18.0032 38.7406 17.2719C39.2906 16.5469 39.3718 15.7376 38.9999 14.9063C38.3968 13.5563 36.6593 13.1376 35.4687 14.0469C35.3812 14.1157 35.2937 14.1844 35.1437 14.3032C35.1531 14.1313 35.1499 14.0344 35.1624 13.9376C35.3687 12.5469 36.5218 11.5188 37.8843 11.5094C39.3437 11.4969 40.5156 12.4876 40.7656 13.9407C40.9374 14.9438 40.7093 15.8688 40.2312 16.7407V16.7376ZM36.0624 15.8782C36.0624 15.4251 36.4593 15.0344 36.9124 15.0376C37.3624 15.0438 37.7218 15.4094 37.7218 15.8719C37.7218 16.3469 37.3843 16.6938 36.9156 16.7001C36.4406 16.7063 36.0593 16.3407 36.0624 15.8782Z" fill="white"/>
<defs>
<linearGradient id="paint0_linear_1006_5120" x1="29.5156" y1="8.075" x2="46.85" y2="24.2656" gradientUnits="userSpaceOnUse">
<stop stop-color="#68F2D1"/>
<stop offset="1" stop-color="#C368F1"/>
</linearGradient>
</defs>
</svg>
