<svg width="120" height="32" viewBox="0 0 120 32" fill="none" xmlns="http://www.w3.org/2000/svg">
<path fill-rule="evenodd" clip-rule="evenodd" d="M80.3958 16.629H80.1247L76.5972 6.39972H72.4655V6.82265L77.4415 21.1077H82.9287L87.9062 6.82265V6.39972H83.9543L80.3942 16.629H80.3958Z" fill="white"/>
<path d="M71.3656 6.39972H67.2572V21.1061H71.3656V6.39972Z" fill="white"/>
<path fill-rule="evenodd" clip-rule="evenodd" d="M100.111 6.39813H100.114L96.5538 16.6305H96.2827L92.7552 6.39967H88.6235V6.8257L94.0287 22.3455H88.9101V25.7521H93.9125C96.0488 25.7521 97.7126 25.0317 98.5197 22.7327C98.6282 22.426 104.063 6.8226 104.063 6.8226V6.39658H100.111V6.39813Z" fill="white"/>
<path fill-rule="evenodd" clip-rule="evenodd" d="M46.3199 6C44.4516 6 42.7057 6.9512 41.6166 8.73896H41.3641V6.41518H37.4477V25.7475H41.6088V19.2347H41.8645C41.8923 19.2734 41.9202 19.3137 41.9481 19.3462C42.6499 20.1998 44.2889 21.5012 46.3277 21.5012C50.038 21.5012 52.5755 18.2943 52.5755 13.7521C52.5755 9.20991 49.9125 6 46.3199 6ZM45.0775 18.3129C43.141 18.3129 41.804 16.804 41.804 13.7537C41.804 10.7033 43.141 9.19442 45.0775 9.19442C47.014 9.19442 48.416 10.7359 48.416 13.7537C48.416 16.7715 47.0465 18.3129 45.0775 18.3129Z" fill="white"/>
<path fill-rule="evenodd" clip-rule="evenodd" d="M62.8962 6.39813C60.9675 6.39813 59.7297 6.72036 59.0062 8.73895H58.7583V6.39968H52.8017V9.77691H54.1309C54.5693 9.77691 54.7847 9.93183 54.8404 10.2912V13.0984H54.8559V21.1077H59.017V13.306C59.017 11.2858 59.5654 10.048 61.5856 10.048H65.945V6.39813H62.8977H62.8962Z" fill="white"/>
<path d="M22.7459 21.4965C27.0232 21.4965 30.4919 18.0279 30.4919 13.7506C30.4919 9.47327 27.0232 6.00464 22.7459 6.00464C18.4686 6.00464 15 9.47327 15 13.7506C15 18.0279 18.4686 21.4965 22.7459 21.4965Z" fill="white"/>
<path d="M22.7459 26C25.6692 26 28.0395 25.5012 28.0395 24.8892C28.0395 24.2773 25.6708 23.7785 22.7459 23.7785C19.8211 23.7785 17.4523 24.2773 17.4523 24.8892C17.4523 25.5012 19.8211 26 22.7459 26Z" fill="white"/>
</svg>
