<svg width="120" height="32" viewBox="0 0 120 32" fill="none" xmlns="http://www.w3.org/2000/svg">
<rect x="11" y="2" width="28" height="28" rx="6" fill="#FEDA03"/>
<path fill-rule="evenodd" clip-rule="evenodd" d="M34.7927 12.7411C34.7927 14.564 33.7277 15.4707 32.5308 15.7856C33.9633 16.2151 35 17.389 35 19.25V22.6667H29.5337V19.4218C29.5337 18.4292 28.9494 18.0284 27.9504 18.0284H21.4663V22.6667H16V9H28.9871C32.248 9 34.7927 9.70624 34.7927 12.7411ZM21.4687 12.8183H28.8585C28.8695 12.8179 28.8806 12.8183 28.8917 12.8183C29.3998 12.8183 29.8118 13.2354 29.8118 13.75C29.8118 14.2646 29.3998 14.6817 28.8917 14.6817C28.8806 14.6817 28.8695 14.6815 28.8585 14.6811L21.4687 14.6817V12.8183Z" fill="black"/>
<path fill-rule="evenodd" clip-rule="evenodd" d="M93.0416 18.3306C93.0416 21.2754 91.3347 23.3024 88.4387 23.3024C87.2496 23.3024 86.1565 22.8052 85.677 22.0403V23.1494H83.2606V9.6109H85.677V14.5827C86.2332 13.856 87.2688 13.3589 88.4771 13.3589C91.3347 13.3589 93.0416 15.3858 93.0416 18.3306ZM85.5236 18.3306C85.5236 20.0708 86.5401 21.2181 88.0935 21.2181C89.6278 21.2181 90.6443 20.0708 90.6443 18.3306C90.6443 16.5905 89.6278 15.4432 88.0935 15.4432C86.5401 15.4432 85.5236 16.5905 85.5236 18.3306Z" fill="white"/>
<path fill-rule="evenodd" clip-rule="evenodd" d="M58.5855 23.1497L55.6338 17.1644C56.9571 16.5143 57.7434 15.2331 57.7434 13.7225C57.7434 11.3131 56.0365 9.76417 53.4091 9.76417H47L47.0192 23.1497H49.6274V17.6616H52.968L55.5554 23.1497H58.5855ZM49.6274 12.0015H53.0064C54.3488 12.0015 55.116 12.6516 55.116 13.7225C55.116 14.7933 54.3488 15.4243 53.0064 15.4243H49.6274V12.0015Z" fill="white"/>
<path fill-rule="evenodd" clip-rule="evenodd" d="M66.5223 13.5119H68.9388V23.1494H66.5223V22.0403C66.0428 22.8053 64.9688 23.3025 63.7606 23.3025C60.8647 23.3025 59.1578 21.2755 59.1578 18.3307C59.1578 15.3858 60.8647 13.3589 63.7222 13.3589C64.9305 13.3589 65.9661 13.8561 66.5223 14.5827V13.5119ZM61.5551 18.3307C61.5551 20.0708 62.5715 21.2181 64.1058 21.2181C65.6593 21.2181 66.6757 20.0708 66.6757 18.3307C66.6757 16.5906 65.6593 15.4432 64.1058 15.4432C62.5715 15.4432 61.5551 16.5906 61.5551 18.3307Z" fill="white"/>
<path d="M77.4819 13.5119L77.3285 15.8448C76.9833 15.6918 76.5231 15.6153 76.1011 15.6153C74.7394 15.6153 73.512 16.7435 73.512 19.6119V23.1494H71.0956V13.5119H73.512V15.2711C73.9915 14.1811 75.2572 13.3589 76.4271 13.3589C76.7723 13.3589 77.1943 13.4163 77.4819 13.5119Z" fill="white"/>
<path d="M81.1115 23.1497H78.6951V13.5122H81.1115V23.1497Z" fill="white"/>
<path d="M94.6805 23.1494H97.097V9.6109H94.6805V23.1494Z" fill="white"/>
<path fill-rule="evenodd" clip-rule="evenodd" d="M108.356 18.0056C108.356 15.7683 106.764 13.3589 103.504 13.3589C100.301 13.3589 98.7282 15.8256 98.7282 18.3307C98.7282 20.8357 100.435 23.3025 103.638 23.3025C105.901 23.3025 107.589 22.2316 108.126 20.415L105.863 19.8031C105.613 20.74 104.808 21.2755 103.676 21.2755C102.295 21.2755 101.356 20.415 101.145 18.9617H108.317C108.337 18.7705 108.356 18.3498 108.356 18.0056ZM101.202 17.2025C101.471 15.9021 102.315 15.1946 103.504 15.1946C104.904 15.1946 105.652 16.0551 105.767 17.2025H101.202Z" fill="white"/>
<path d="M78.4091 10.1078C78.4091 9.496 78.9051 9 79.5169 9H80.3096C80.9214 9 81.4175 9.496 81.4175 10.1078V10.9005C81.4175 11.5123 80.9214 12.0083 80.3096 12.0083H79.5169C78.9051 12.0083 78.4091 11.5123 78.4091 10.9005V10.1078Z" fill="white"/>
</svg>
