<svg width="120" height="32" viewBox="0 0 120 32" fill="none" xmlns="http://www.w3.org/2000/svg">
<path d="M117.066 18.4825C117.066 18.8642 116.981 19.1858 116.811 19.4473C116.649 19.7089 116.405 19.9068 116.08 20.0411C115.762 20.1754 115.369 20.2425 114.903 20.2425C114.549 20.2425 114.238 20.2142 113.97 20.1577C113.701 20.1011 113.447 20.0163 113.206 19.9032V18.7582C113.447 18.8854 113.719 18.995 114.023 19.0868C114.334 19.1787 114.627 19.2247 114.903 19.2247C115.214 19.2247 115.44 19.1681 115.581 19.055C115.73 18.9419 115.804 18.79 115.804 18.5991C115.804 18.479 115.776 18.373 115.719 18.2811C115.663 18.1892 115.553 18.0938 115.391 17.9948C115.228 17.8888 114.984 17.7651 114.659 17.6237C114.341 17.4753 114.072 17.3269 113.853 17.1784C113.641 17.0229 113.479 16.8391 113.365 16.6271C113.252 16.4151 113.196 16.1571 113.196 15.8531C113.196 15.3513 113.38 14.9625 113.747 14.6869C114.122 14.4112 114.617 14.2734 115.232 14.2734C115.557 14.2734 115.861 14.3087 116.143 14.3794C116.433 14.4501 116.719 14.5596 117.002 14.7081L116.61 15.6623C116.454 15.5845 116.299 15.5174 116.143 15.4608C115.995 15.4043 115.843 15.3619 115.687 15.3336C115.539 15.2983 115.387 15.2806 115.232 15.2806C114.977 15.2806 114.783 15.3265 114.648 15.4184C114.514 15.5103 114.447 15.6375 114.447 15.8001C114.447 15.9132 114.479 16.0157 114.542 16.1076C114.606 16.1924 114.719 16.2808 114.882 16.3726C115.051 16.4645 115.288 16.5812 115.592 16.7225C115.896 16.8639 116.157 17.0088 116.377 17.1572C116.596 17.3057 116.765 17.4859 116.885 17.6979C117.006 17.9029 117.066 18.1644 117.066 18.4825Z" fill="#05D266"/>
<path d="M109.811 14.284C110.299 14.284 110.712 14.39 111.051 14.602C111.391 14.8141 111.649 15.1145 111.825 15.5032C112.009 15.8849 112.101 16.3443 112.101 16.8815V17.5707H108.698C108.705 18.1149 108.828 18.5284 109.069 18.8112C109.316 19.0939 109.666 19.2353 110.118 19.2353C110.436 19.2353 110.726 19.1999 110.988 19.1292C111.256 19.0585 111.535 18.949 111.825 18.8006V19.8502C111.564 19.9845 111.292 20.0834 111.009 20.1471C110.726 20.2107 110.398 20.2425 110.023 20.2425C109.479 20.2425 109.009 20.1294 108.613 19.9032C108.224 19.677 107.924 19.3448 107.712 18.9066C107.507 18.4613 107.404 17.9276 107.404 17.3056C107.404 16.6483 107.5 16.097 107.69 15.6517C107.888 15.1993 108.167 14.86 108.528 14.6338C108.896 14.4006 109.323 14.284 109.811 14.284ZM109.821 15.2488C109.503 15.2488 109.245 15.3654 109.047 15.5986C108.857 15.8319 108.747 16.1853 108.719 16.6589H110.882C110.882 16.3832 110.843 16.1394 110.765 15.9273C110.687 15.7153 110.571 15.5492 110.415 15.429C110.26 15.3088 110.062 15.2488 109.821 15.2488Z" fill="#05D266"/>
<path d="M106.187 14.2734C106.272 14.2734 106.364 14.2804 106.462 14.2946C106.561 14.3016 106.65 14.3158 106.728 14.337L106.611 15.5881C106.54 15.5669 106.459 15.5527 106.367 15.5457C106.275 15.5315 106.187 15.5245 106.102 15.5245C105.911 15.5245 105.731 15.5598 105.561 15.6305C105.399 15.7012 105.25 15.8072 105.116 15.9485C104.989 16.0828 104.89 16.2525 104.819 16.4575C104.748 16.6624 104.713 16.8992 104.713 17.1678V20.1365H103.43V14.3794H104.416L104.596 15.3654H104.66C104.766 15.1675 104.893 14.9873 105.042 14.8247C105.19 14.6551 105.36 14.5208 105.551 14.4218C105.749 14.3229 105.961 14.2734 106.187 14.2734Z" fill="#05D266"/>
<path d="M101.67 14.3794V20.1364H100.674L100.504 19.3837H100.441C100.334 19.5816 100.197 19.7442 100.027 19.8714C99.8645 19.9915 99.6807 20.0834 99.4757 20.147C99.2778 20.2107 99.0657 20.2425 98.8396 20.2425C98.4437 20.2425 98.108 20.1647 97.8323 20.0092C97.5567 19.8537 97.3482 19.6205 97.2068 19.3095C97.0654 18.9985 96.9948 18.6097 96.9948 18.1432V14.3794H98.2776V17.8569C98.2776 18.2952 98.3483 18.6238 98.4897 18.843C98.631 19.0621 98.8572 19.1716 99.1682 19.1716C99.4863 19.1716 99.7337 19.0974 99.9104 18.949C100.087 18.8005 100.211 18.585 100.281 18.3022C100.359 18.0195 100.398 17.6696 100.398 17.2526V14.3794H101.67Z" fill="#05D266"/>
<path d="M94.978 19.1822C95.1194 19.1822 95.2572 19.1681 95.3915 19.1398C95.5258 19.1115 95.6566 19.0762 95.7838 19.0338V20.0092C95.6424 20.0799 95.4693 20.1364 95.2643 20.1788C95.0664 20.2212 94.8543 20.2424 94.6281 20.2424C94.3101 20.2424 94.0309 20.1859 93.7906 20.0728C93.5573 19.9526 93.3735 19.7618 93.2392 19.5003C93.1049 19.2387 93.0378 18.8853 93.0378 18.44V15.3866H92.3486V14.7822L93.1226 14.3687L93.4937 13.1283H94.3207V14.3793H95.7202V15.3866H94.3207V18.4082C94.3207 18.6627 94.3772 18.8571 94.4903 18.9914C94.6105 19.1186 94.773 19.1822 94.978 19.1822Z" fill="#05D266"/>
<path d="M89.359 14.2734C89.9456 14.2734 90.398 14.443 90.7161 14.7823C91.0412 15.1145 91.2038 15.6375 91.2038 16.3514V20.1365H89.9315V16.6377C89.9315 16.2065 89.8573 15.8849 89.7088 15.6729C89.5675 15.4538 89.3378 15.3442 89.0197 15.3442C88.5603 15.3442 88.2422 15.5068 88.0655 15.8319C87.8958 16.1571 87.811 16.6518 87.811 17.3163V20.1365H86.5281V14.3794H87.5248L87.6944 15.1428H87.7686C87.8746 14.9449 88.0089 14.7823 88.1715 14.6551C88.3411 14.5278 88.5249 14.4324 88.7228 14.3688C88.9278 14.3052 89.1399 14.2734 89.359 14.2734Z" fill="#05D266"/>
<path d="M82.8038 14.284C83.2915 14.284 83.705 14.39 84.0442 14.602C84.3835 14.8141 84.6415 15.1145 84.8182 15.5032C85.002 15.8849 85.0939 16.3443 85.0939 16.8815V17.5707H81.6905C81.6976 18.1149 81.8213 18.5284 82.0616 18.8112C82.309 19.0939 82.6589 19.2353 83.1112 19.2353C83.4293 19.2353 83.7191 19.1999 83.9806 19.1292C84.2492 19.0585 84.5284 18.949 84.8182 18.8006V19.8502C84.5567 19.9845 84.2846 20.0834 84.0018 20.1471C83.7191 20.2107 83.3904 20.2425 83.0158 20.2425C82.4716 20.2425 82.0015 20.1294 81.6057 19.9032C81.217 19.677 80.9166 19.3448 80.7045 18.9066C80.4995 18.4613 80.397 17.9276 80.397 17.3056C80.397 16.6483 80.4925 16.097 80.6833 15.6517C80.8812 15.1993 81.1604 14.86 81.5209 14.6338C81.8884 14.4006 82.3161 14.284 82.8038 14.284ZM82.8144 15.2488C82.4963 15.2488 82.2383 15.3654 82.0404 15.5986C81.8496 15.8319 81.74 16.1853 81.7117 16.6589H83.8746C83.8746 16.3832 83.8357 16.1394 83.758 15.9273C83.6802 15.7153 83.5636 15.5492 83.4081 15.429C83.2526 15.3088 83.0547 15.2488 82.8144 15.2488Z" fill="#05D266"/>
<path d="M79.8826 12.5663L77.5395 20.1364H76.087L73.7545 12.5663H75.1116L76.4475 17.1889C76.4899 17.3232 76.5323 17.4893 76.5747 17.6873C76.6242 17.8852 76.6701 18.0866 76.7125 18.2916C76.762 18.4966 76.7973 18.6768 76.8185 18.8323C76.8397 18.6768 76.8715 18.4966 76.914 18.2916C76.9564 18.0866 77.0023 17.8852 77.0518 17.6873C77.1013 17.4893 77.1472 17.3197 77.1896 17.1783L78.5255 12.5663H79.8826Z" fill="#05D266"/>
<path d="M71.8901 19.4579C71.8901 19.1681 71.9643 18.9596 72.1127 18.8324C72.2612 18.7052 72.4485 18.6416 72.6747 18.6416C72.9008 18.6416 73.0881 18.7052 73.2366 18.8324C73.385 18.9596 73.4592 19.1646 73.4592 19.4473C73.4592 19.7301 73.385 19.9386 73.2366 20.0729C73.0881 20.2001 72.9008 20.2637 72.6747 20.2637C72.4485 20.2637 72.2612 20.2001 72.1127 20.0729C71.9643 19.9386 71.8901 19.7336 71.8901 19.4579Z" fill="#05D266"/>
<path d="M70.8419 16.2559C70.8419 17.1041 70.7006 17.818 70.4178 18.3976C70.1351 18.9701 69.7216 19.4048 69.1774 19.7017C68.6402 19.9915 67.9864 20.1364 67.2159 20.1364H65.2439V12.5663H67.3962C68.1101 12.5663 68.7215 12.7077 69.2304 12.9904C69.7464 13.2731 70.1422 13.6866 70.4178 14.2309C70.7006 14.7751 70.8419 15.4502 70.8419 16.2559ZM69.4742 16.3089C69.4742 15.7081 69.393 15.2134 69.2304 14.8246C69.0749 14.4359 68.8416 14.1496 68.5306 13.9658C68.2196 13.775 67.8379 13.6796 67.3856 13.6796H66.5586V19.0232H67.2371C67.9934 19.0232 68.5554 18.797 68.9229 18.3446C69.2905 17.8852 69.4742 17.2066 69.4742 16.3089Z" fill="#05D266"/>
<path d="M58.7476 14.284C59.2354 14.284 59.6488 14.39 59.9881 14.602C60.3274 14.8141 60.5854 15.1145 60.7621 15.5032C60.9459 15.8849 61.0378 16.3443 61.0378 16.8815V17.5707H57.6344C57.6415 18.1149 57.7652 18.5284 58.0055 18.8112C58.2529 19.0939 58.6027 19.2353 59.0551 19.2353C59.3732 19.2353 59.663 19.1999 59.9245 19.1292C60.1931 19.0585 60.4723 18.949 60.7621 18.8006V19.8502C60.5006 19.9845 60.2284 20.0834 59.9457 20.1471C59.663 20.2107 59.3343 20.2425 58.9597 20.2425C58.4154 20.2425 57.9454 20.1294 57.5496 19.9032C57.1608 19.677 56.8604 19.3448 56.6484 18.9066C56.4434 18.4613 56.3409 17.9276 56.3409 17.3056C56.3409 16.6483 56.4363 16.097 56.6272 15.6517C56.8251 15.1993 57.1043 14.86 57.4648 14.6338C57.8323 14.4006 58.2599 14.284 58.7476 14.284ZM58.7582 15.2488C58.4402 15.2488 58.1822 15.3654 57.9843 15.5986C57.7934 15.8319 57.6839 16.1853 57.6556 16.6589H59.8185C59.8185 16.3832 59.7796 16.1394 59.7019 15.9273C59.6241 15.7153 59.5075 15.5492 59.352 15.429C59.1965 15.3088 58.9986 15.2488 58.7582 15.2488Z" fill="#05D266"/>
<path d="M55.2556 18.4825C55.2556 18.8642 55.1708 19.1858 55.0012 19.4473C54.8386 19.7089 54.5948 19.9068 54.2696 20.0411C53.9515 20.1754 53.5593 20.2425 53.0928 20.2425C52.7393 20.2425 52.4283 20.2142 52.1597 20.1577C51.8912 20.1011 51.6367 20.0163 51.3964 19.9032V18.7582C51.6367 18.8854 51.9088 18.995 52.2128 19.0868C52.5238 19.1787 52.8171 19.2247 53.0928 19.2247C53.4038 19.2247 53.6299 19.1681 53.7713 19.055C53.9197 18.9419 53.994 18.79 53.994 18.5991C53.994 18.479 53.9657 18.373 53.9091 18.2811C53.8526 18.1892 53.743 18.0938 53.5805 17.9948C53.4179 17.8888 53.174 17.7651 52.8489 17.6237C52.5308 17.4753 52.2622 17.3269 52.0431 17.1784C51.8311 17.0229 51.6685 16.8391 51.5554 16.6271C51.4423 16.4151 51.3858 16.1571 51.3858 15.8531C51.3858 15.3513 51.5695 14.9625 51.9371 14.6869C52.3117 14.4112 52.8065 14.2734 53.4214 14.2734C53.7466 14.2734 54.0505 14.3087 54.3332 14.3794C54.623 14.4501 54.9093 14.5596 55.192 14.7081L54.7997 15.6623C54.6442 15.5845 54.4887 15.5174 54.3332 15.4608C54.1848 15.4043 54.0328 15.3619 53.8773 15.3336C53.7289 15.2983 53.5769 15.2806 53.4214 15.2806C53.167 15.2806 52.9726 15.3265 52.8383 15.4184C52.704 15.5103 52.6369 15.6375 52.6369 15.8001C52.6369 15.9132 52.6687 16.0157 52.7323 16.1076C52.7959 16.1924 52.909 16.2808 53.0715 16.3726C53.2412 16.4645 53.478 16.5812 53.7819 16.7225C54.0858 16.8639 54.3474 17.0088 54.5665 17.1572C54.7856 17.3057 54.9552 17.4859 55.0754 17.6979C55.1956 17.9029 55.2556 18.1644 55.2556 18.4825Z" fill="#05D266"/>
<path d="M47.9598 14.2734C48.6313 14.2734 49.1367 14.4395 49.476 14.7717C49.8223 15.1039 49.9955 15.6057 49.9955 16.2772V20.1365H49.0731L48.8398 19.3519H48.808C48.6596 19.5498 48.5076 19.7159 48.3521 19.8502C48.1966 19.9845 48.0164 20.0835 47.8114 20.1471C47.6135 20.2107 47.3732 20.2425 47.0904 20.2425C46.7582 20.2425 46.4684 20.1718 46.221 20.0305C45.9807 19.8891 45.7934 19.6876 45.6591 19.4261C45.5319 19.1575 45.4683 18.8395 45.4683 18.4719C45.4683 17.8711 45.6662 17.4223 46.062 17.1254C46.4578 16.8215 47.0515 16.6554 47.8432 16.6271L48.7232 16.5953V16.309C48.7232 15.9415 48.6454 15.6764 48.4899 15.5139C48.3415 15.3513 48.1224 15.27 47.8326 15.27C47.5923 15.27 47.3519 15.3089 47.1116 15.3866C46.8713 15.4573 46.631 15.5563 46.3907 15.6835L45.9878 14.7611C46.2634 14.6127 46.5674 14.496 46.8996 14.4112C47.2389 14.3193 47.5923 14.2734 47.9598 14.2734ZM48.1189 17.4329C47.6311 17.4541 47.2848 17.553 47.0798 17.7297C46.8748 17.8994 46.7723 18.1432 46.7723 18.4613C46.7723 18.737 46.843 18.9384 46.9844 19.0656C47.1258 19.1929 47.3095 19.2565 47.5357 19.2565C47.875 19.2565 48.1577 19.1434 48.3839 18.9172C48.6101 18.684 48.7232 18.3517 48.7232 17.9206V17.4117L48.1189 17.4329Z" fill="#05D266"/>
<path d="M40.8012 14.0613C40.8012 14.2521 40.7941 14.443 40.78 14.6338C40.7729 14.8176 40.7623 14.9837 40.7482 15.1321H40.8012C40.9567 14.8777 41.1581 14.6727 41.4055 14.5172C41.6529 14.3617 41.9604 14.2839 42.3279 14.2839C42.9499 14.2839 43.4447 14.5384 43.8122 15.0473C44.1798 15.5491 44.3636 16.2842 44.3636 17.2526C44.3636 17.8958 44.2787 18.4401 44.1091 18.8854C43.9395 19.3307 43.7027 19.6699 43.3987 19.9032C43.0948 20.1294 42.7308 20.2425 42.3067 20.2425C41.9392 20.2425 41.6352 20.1718 41.3949 20.0304C41.1616 19.889 40.9637 19.7017 40.8012 19.4685H40.7163L40.5043 20.1364H39.5183V12.0786H40.8012V14.0613ZM41.9568 15.3442C41.667 15.3442 41.4373 15.4113 41.2677 15.5456C41.098 15.6799 40.9779 15.8814 40.9072 16.1499C40.8365 16.4115 40.8012 16.7366 40.8012 17.1254V17.295C40.8012 17.917 40.886 18.387 41.0556 18.7051C41.2323 19.0232 41.5398 19.1822 41.978 19.1822C42.3244 19.1822 42.5894 19.0197 42.7732 18.6945C42.964 18.3623 43.0595 17.8781 43.0595 17.242C43.0595 16.6129 42.964 16.1393 42.7732 15.8213C42.5894 15.5032 42.3173 15.3442 41.9568 15.3442Z" fill="#05D266"/>
<path d="M35.7939 14.284C36.2816 14.284 36.6951 14.39 37.0344 14.602C37.3737 14.8141 37.6317 15.1145 37.8084 15.5032C37.9922 15.8849 38.0841 16.3443 38.0841 16.8815V17.5707H34.6807C34.6878 18.1149 34.8115 18.5284 35.0518 18.8112C35.2992 19.0939 35.649 19.2353 36.1014 19.2353C36.4195 19.2353 36.7093 19.1999 36.9708 19.1292C37.2394 19.0585 37.5186 18.949 37.8084 18.8006V19.8502C37.5469 19.9845 37.2747 20.0834 36.992 20.1471C36.7093 20.2107 36.3806 20.2425 36.006 20.2425C35.4617 20.2425 34.9917 20.1294 34.5959 19.9032C34.2071 19.677 33.9067 19.3448 33.6947 18.9066C33.4897 18.4613 33.3872 17.9276 33.3872 17.3056C33.3872 16.6483 33.4826 16.097 33.6735 15.6517C33.8714 15.1993 34.1506 14.86 34.5111 14.6338C34.8786 14.4006 35.3062 14.284 35.7939 14.284ZM35.8045 15.2488C35.4865 15.2488 35.2285 15.3654 35.0306 15.5986C34.8397 15.8319 34.7302 16.1853 34.7019 16.6589H36.8648C36.8648 16.3832 36.8259 16.1394 36.7482 15.9273C36.6704 15.7153 36.5538 15.5492 36.3983 15.429C36.2428 15.3088 36.0449 15.2488 35.8045 15.2488Z" fill="#05D266"/>
<path d="M29.2858 12.5663C29.9078 12.5663 30.4202 12.6476 30.8231 12.8102C31.226 12.9727 31.5264 13.2166 31.7243 13.5417C31.9222 13.8669 32.0212 14.2768 32.0212 14.7716C32.0212 15.1179 31.9611 15.4219 31.8409 15.6834C31.7279 15.9449 31.5688 16.1676 31.3638 16.3514C31.1659 16.5281 30.9433 16.6765 30.6959 16.7967L32.6361 20.1364H31.1624L29.5402 17.1253H28.639V20.1364H27.3243V12.5663H29.2858ZM29.2222 13.6796H28.639V16.0545H29.2752C29.5932 16.0545 29.8548 16.0085 30.0597 15.9167C30.2718 15.8248 30.4273 15.6869 30.5263 15.5032C30.6252 15.3194 30.6747 15.0932 30.6747 14.8246C30.6747 14.549 30.6217 14.3298 30.5157 14.1673C30.4167 13.9976 30.2577 13.8739 30.0385 13.7962C29.8265 13.7184 29.5544 13.6796 29.2222 13.6796Z" fill="#05D266"/>
<path d="M6.04951 13.4964H2V24.2329C2 25.2139 2.79908 26.0072 3.78005 26L16.1798 25.9088C19.4159 25.885 22.0267 23.2549 22.0267 20.0187V11.9698C22.0267 8.7379 19.4225 6.10962 16.1908 6.07983L7.53563 6.00006C6.71709 5.99252 6.04951 6.65398 6.04951 7.47255V9.96225H15.1793C16.8059 9.96225 18.1244 11.2808 18.1244 12.9073V18.9448C18.1244 20.5713 16.8059 21.8899 15.1793 21.8899H6.63853C6.31322 21.8899 6.04951 21.6262 6.04951 21.3009V13.4964Z" fill="#05D266"/>
<path d="M11.71 12.3183C9.68376 12.3183 8.03745 13.9617 8.03745 15.9909C8.03745 18.02 9.68082 19.6634 11.71 19.6634C13.7392 19.6634 15.3825 18.02 15.3825 15.9909C15.3825 13.9617 13.7392 12.3183 11.71 12.3183ZM13.2621 16.3001C12.5759 16.3001 12.0222 15.7435 12.0222 15.0602C12.0222 14.377 12.5788 13.8203 13.2621 13.8203C13.9453 13.8203 14.5019 14.377 14.5019 15.0602C14.5019 15.7435 13.9483 16.3001 13.2621 16.3001Z" fill="#05D266"/>
</svg>
