<svg width="120" height="32" viewBox="0 0 120 32" fill="none" xmlns="http://www.w3.org/2000/svg">
<g clip-path="url(#clip0_1165_2235)">
<path d="M15.431 18.3844L13.4428 23.0625H17.4192L15.431 18.3844Z" fill="url(#paint0_linear_1165_2235)"/>
<path fill-rule="evenodd" clip-rule="evenodd" d="M4.26317 11.3099C6.61766 8.95546 10.435 8.95546 12.7895 11.3099L17.0527 15.5731L12.7895 19.8362C10.435 22.1907 6.61766 22.1907 4.26317 19.8362C1.90868 17.4818 1.90868 13.6644 4.26317 11.3099ZM11.1356 12.9639C9.69454 11.5229 7.35817 11.5229 5.91714 12.9639C4.47611 14.4049 4.47611 16.7413 5.91714 18.1823C7.35817 19.6233 9.69454 19.6233 11.1356 18.1823L13.7448 15.5731L11.1356 12.9639Z" fill="url(#paint1_linear_1165_2235)"/>
<path d="M15.3858 13.9061L12.7894 11.3097C10.4349 8.95527 6.61756 8.95527 4.26307 11.3097C2.9226 12.6502 2.34529 14.4649 2.53116 16.2138C2.79097 16.6885 3.12189 17.1347 3.52392 17.5368C4.75843 18.7713 6.40952 19.3353 8.02468 19.2288C7.25374 19.1236 6.50968 18.7747 5.91704 18.1821C4.47601 16.7411 4.47601 14.4047 5.91704 12.9637C7.35807 11.5227 9.69444 11.5227 11.1355 12.9637L13.7319 15.5601L15.3858 13.9061Z" fill="url(#paint2_linear_1165_2235)"/>
<path fill-rule="evenodd" clip-rule="evenodd" d="M26.5898 11.2631C24.2354 8.90867 20.418 8.90867 18.0635 11.2631L13.8003 15.5263L18.0635 19.7895C20.418 22.1439 24.2354 22.1439 26.5898 19.7895C28.9443 17.435 28.9443 13.6176 26.5898 11.2631ZM19.7175 12.9171C21.1585 11.4761 23.4949 11.4761 24.9359 12.9171C26.3769 14.3581 26.3769 16.6945 24.9359 18.1355C23.4949 19.5765 21.1585 19.5765 19.7175 18.1355L17.1082 15.5263L19.7175 12.9171Z" fill="url(#paint3_linear_1165_2235)"/>
<path d="M15.4671 13.8594L18.0634 11.2631C20.4179 8.90858 24.2353 8.90858 26.5898 11.2631C27.9302 12.6035 28.5075 14.4181 28.3217 16.167C28.0619 16.6417 27.731 17.0879 27.3289 17.4899C26.0946 18.7243 24.4438 19.2883 22.8288 19.182C23.5995 19.0768 24.3433 18.7279 24.9358 18.1354C26.3768 16.6944 26.3768 14.358 24.9358 12.917C23.4948 11.476 21.1584 11.476 19.7174 12.917L17.121 15.5133L15.4671 13.8594Z" fill="url(#paint4_linear_1165_2235)"/>
<path fill-rule="evenodd" clip-rule="evenodd" d="M19.6363 12.9895L12.7895 19.8362L11.1355 18.1823L17.9823 11.3355L19.6363 12.9895Z" fill="url(#paint5_linear_1165_2235)"/>
<path d="M18.7162 13.3369L17.5353 12.1559L17.6825 12.0087L18.7311 13.0574L19.2141 12.5744L19.3464 12.7067L18.7162 13.3369Z" fill="black"/>
<path d="M18.307 13.7461L17.6851 14.368L16.5042 13.1871L17.1261 12.5652L17.2567 12.6959L16.782 13.1705L17.1509 13.5394L17.5974 13.0928L17.7265 13.2218L17.2799 13.6684L17.7016 14.0901L18.1763 13.6155L18.307 13.7461Z" fill="black"/>
<path d="M16.1877 13.5036L16.9733 15.0798L16.8245 15.2287L15.2482 14.443L15.402 14.2892L16.406 14.8003C16.449 14.8212 16.4892 14.8427 16.5267 14.8648C16.5653 14.8857 16.6017 14.9067 16.6359 14.9276C16.6701 14.9464 16.7026 14.9668 16.7335 14.9888C16.7114 14.958 16.6899 14.9254 16.669 14.8913C16.648 14.8571 16.6271 14.8207 16.6061 14.7821C16.5863 14.7424 16.5648 14.701 16.5416 14.658L16.0322 13.6591L16.1877 13.5036Z" fill="black"/>
<path d="M15.5913 15.2775C15.6828 15.3691 15.7551 15.4633 15.808 15.5604C15.8598 15.6563 15.8912 15.7528 15.9023 15.8498C15.9133 15.9469 15.9012 16.0417 15.8659 16.1343C15.8306 16.2269 15.771 16.3151 15.6872 16.3989C15.6001 16.486 15.5097 16.5478 15.416 16.5842C15.3223 16.6184 15.2274 16.6305 15.1315 16.6206C15.0356 16.6084 14.9397 16.5754 14.8437 16.5213C14.7478 16.4673 14.6541 16.3945 14.5625 16.303C14.4413 16.1817 14.3542 16.0571 14.3012 15.9292C14.2483 15.8013 14.2345 15.6739 14.2599 15.5471C14.2863 15.4192 14.3575 15.2974 14.4732 15.1816C14.5846 15.0703 14.7037 15.0019 14.8305 14.9765C14.9562 14.9501 15.0841 14.9633 15.2142 15.0162C15.3432 15.068 15.4689 15.1552 15.5913 15.2775ZM14.7197 16.1492C14.8189 16.2484 14.9171 16.3212 15.0141 16.3675C15.1111 16.4138 15.2054 16.4298 15.2969 16.4155C15.3895 16.4 15.4766 16.3515 15.5582 16.2699C15.6409 16.1872 15.6895 16.1001 15.7038 16.0086C15.7181 15.9171 15.7016 15.8234 15.6542 15.7274C15.6079 15.6304 15.5351 15.5323 15.4358 15.433C15.287 15.2842 15.142 15.1965 15.0009 15.17C14.8597 15.1414 14.7274 15.1888 14.6039 15.3123C14.5212 15.395 14.4721 15.4826 14.4567 15.5753C14.4413 15.6657 14.4567 15.7594 14.503 15.8564C14.5482 15.9524 14.6204 16.0499 14.7197 16.1492Z" fill="black"/>
<path d="M14.7465 17.3066L14.5729 17.4802L13.0066 17.0849L13 17.0915C13.0209 17.1103 13.0441 17.1312 13.0694 17.1544C13.0959 17.1764 13.124 17.2013 13.1538 17.2288C13.1824 17.2553 13.2122 17.2828 13.2431 17.3115C13.274 17.3402 13.3043 17.3694 13.3341 17.3992L13.994 18.0591L13.8584 18.1947L12.6774 17.0138L12.8494 16.8418L14.4108 17.2354L14.4174 17.2288C14.4031 17.2167 14.3838 17.1996 14.3595 17.1775C14.3342 17.1544 14.3066 17.129 14.2768 17.1015C14.2459 17.0728 14.2145 17.0436 14.1825 17.0138C14.1506 16.984 14.1213 16.9559 14.0949 16.9295L13.4283 16.2629L13.5656 16.1256L14.7465 17.3066Z" fill="black"/>
<path d="M13.4792 18.5739L13.0706 18.9824L12.9846 18.8964L13.0839 18.7343L12.1395 17.7899L11.9757 17.8875L11.8897 17.8015L12.2982 17.393L12.3843 17.479L12.2867 17.6427L13.2311 18.5871L13.3932 18.4879L13.4792 18.5739Z" fill="black"/>
<path d="M12.456 18.9653C12.5266 19.0358 12.5702 19.1125 12.5867 19.1952C12.6032 19.2756 12.595 19.3589 12.5619 19.4449C12.5299 19.5298 12.4731 19.6131 12.3915 19.6946C12.3507 19.7354 12.3088 19.7729 12.2658 19.8071C12.2239 19.8402 12.1831 19.8689 12.1434 19.8931C12.1037 19.9152 12.0657 19.9323 12.0293 19.9444L11.8871 19.8022C11.9433 19.7812 12.0061 19.7503 12.0756 19.7095C12.1462 19.6676 12.2107 19.6175 12.2691 19.559C12.3232 19.505 12.3601 19.4526 12.3799 19.4019C12.4009 19.3501 12.4059 19.301 12.3948 19.2547C12.3849 19.2073 12.3606 19.1643 12.3221 19.1257C12.2835 19.0871 12.2427 19.0628 12.1997 19.0529C12.1578 19.0419 12.107 19.0441 12.0475 19.0595C11.9869 19.0739 11.9113 19.1009 11.8209 19.1406C11.7558 19.1681 11.6952 19.1891 11.639 19.2034C11.5816 19.2167 11.527 19.2216 11.4752 19.2183C11.4234 19.215 11.3738 19.2018 11.3264 19.1786C11.279 19.1555 11.2321 19.1207 11.1858 19.0744C11.1229 19.0116 11.0843 18.9432 11.07 18.8693C11.0557 18.7932 11.0628 18.7166 11.0915 18.6394C11.1213 18.5611 11.1714 18.4867 11.242 18.4161C11.3027 18.3555 11.3644 18.3059 11.4273 18.2673C11.4901 18.2287 11.553 18.1978 11.6158 18.1747L11.6969 18.3483C11.6395 18.3704 11.5822 18.3979 11.5248 18.431C11.4686 18.463 11.4168 18.5027 11.3694 18.5501C11.3242 18.5953 11.2933 18.6405 11.2767 18.6857C11.2613 18.7298 11.2591 18.7728 11.2701 18.8147C11.2801 18.8555 11.3021 18.893 11.3363 18.9272C11.376 18.9669 11.4168 18.9923 11.4587 19.0033C11.5006 19.0143 11.5497 19.0127 11.6059 18.9983C11.6621 18.984 11.7316 18.9597 11.8143 18.9256C11.9047 18.8859 11.9869 18.8588 12.0607 18.8445C12.1346 18.828 12.2035 18.8285 12.2675 18.8462C12.3314 18.8638 12.3943 18.9035 12.456 18.9653Z" fill="black"/>
<path d="M119.968 12.1673C119.98 12.161 119.993 12.1548 120.005 12.1485C120.021 12.1423 120.032 12.1392 120.038 12.1392C120.091 12.1392 120.118 12.1767 120.118 12.2517V18.7806C120.118 18.9182 120.152 19.0167 120.221 19.0761C120.293 19.1355 120.399 19.1652 120.54 19.1652L120.812 19.1464C120.825 19.1464 120.832 19.1558 120.836 19.1746C120.839 19.1902 120.84 19.2074 120.84 19.2262C120.84 19.2324 120.836 19.2418 120.826 19.2543C120.82 19.2637 120.801 19.2746 120.77 19.2872L119.166 19.9532C119.16 19.9563 119.144 19.961 119.119 19.9672C119.094 19.9766 119.08 19.9813 119.077 19.9813C119.055 19.9813 119.041 19.9672 119.034 19.9391C119.031 19.9141 119.03 19.8891 119.03 19.8641V19.5404C119.03 19.5092 119.019 19.4935 118.997 19.4935C118.988 19.4935 118.973 19.4982 118.955 19.5076C118.845 19.5701 118.742 19.6311 118.645 19.6905C118.548 19.7468 118.45 19.7968 118.35 19.8406C118.253 19.8844 118.15 19.9188 118.04 19.9438C117.934 19.9688 117.815 19.9813 117.684 19.9813C117.402 19.9813 117.149 19.9235 116.924 19.8078C116.699 19.6921 116.508 19.5373 116.352 19.3434C116.195 19.1496 116.075 18.9276 115.99 18.6774C115.906 18.4273 115.864 18.1662 115.864 17.8941C115.864 17.5658 115.928 17.261 116.056 16.9795C116.187 16.6981 116.361 16.4542 116.577 16.2478C116.796 16.0415 117.049 15.8804 117.337 15.7647C117.624 15.6459 117.926 15.5865 118.242 15.5865C118.326 15.5865 118.4 15.5943 118.462 15.61C118.525 15.6256 118.583 15.6428 118.636 15.6616C118.689 15.6772 118.742 15.6928 118.795 15.7085C118.848 15.7241 118.908 15.7319 118.973 15.7319C118.983 15.7319 118.994 15.7288 119.006 15.7225C119.022 15.7163 119.03 15.6991 119.03 15.6709V13.4618C119.03 13.3868 119.009 13.3289 118.969 13.2883C118.928 13.2445 118.877 13.2117 118.814 13.1898C118.751 13.1679 118.684 13.1507 118.612 13.1382C118.54 13.1226 118.472 13.1054 118.406 13.0866C118.387 13.0803 118.372 13.0725 118.359 13.0631C118.35 13.0506 118.345 13.0272 118.345 12.9928C118.345 12.9772 118.35 12.9615 118.359 12.9459C118.368 12.9303 118.387 12.9146 118.415 12.899L119.968 12.1673ZM116.929 17.6831C116.929 17.9082 116.954 18.1255 117.004 18.335C117.057 18.5414 117.136 18.7243 117.243 18.8838C117.352 19.0401 117.49 19.1652 117.656 19.259C117.821 19.3528 118.017 19.3997 118.242 19.3997C118.276 19.3997 118.337 19.3903 118.425 19.3716C118.512 19.3528 118.6 19.3294 118.687 19.3012C118.778 19.27 118.858 19.234 118.927 19.1933C118.995 19.1527 119.03 19.1089 119.03 19.062V16.7309C119.03 16.5152 118.952 16.3401 118.795 16.2056C118.642 16.0712 118.422 16.004 118.134 16.004C117.924 16.004 117.743 16.054 117.59 16.154C117.44 16.251 117.315 16.3792 117.215 16.5386C117.118 16.6981 117.046 16.8779 116.999 17.078C116.952 17.2781 116.929 17.4798 116.929 17.6831Z" fill="white"/>
<path d="M111.202 15.3051C111.214 15.2988 111.227 15.2926 111.239 15.2863C111.255 15.2801 111.266 15.277 111.272 15.277C111.325 15.277 111.352 15.3145 111.352 15.3895V16.1212C111.361 16.1525 111.374 16.1681 111.389 16.1681C111.405 16.1681 111.417 16.1681 111.427 16.1681C111.436 16.165 111.449 16.1587 111.464 16.1494C111.664 16.0462 111.833 15.9602 111.971 15.8914C112.112 15.8195 112.232 15.7601 112.332 15.7132C112.435 15.6631 112.526 15.6256 112.604 15.6006C112.685 15.5724 112.767 15.5521 112.848 15.5396C112.929 15.524 113.018 15.5146 113.115 15.5115C113.212 15.5083 113.331 15.5068 113.472 15.5068C113.625 15.5068 113.758 15.5396 113.87 15.6053C113.983 15.6709 114.077 15.7585 114.152 15.8679C114.23 15.9742 114.293 16.0978 114.339 16.2385C114.389 16.376 114.427 16.5183 114.452 16.6653C114.477 16.8091 114.494 16.953 114.504 17.0968C114.513 17.2375 114.518 17.3657 114.518 17.4814C114.518 17.5908 114.515 17.6925 114.508 17.7863C114.505 17.8801 114.501 17.9833 114.494 18.0958C114.491 18.2053 114.486 18.3303 114.48 18.471C114.477 18.6118 114.475 18.7822 114.475 18.9823C114.475 19.0761 114.493 19.1543 114.527 19.2168C114.561 19.2793 114.605 19.3309 114.658 19.3716C114.715 19.4122 114.776 19.4435 114.841 19.4654C114.907 19.4841 114.971 19.4998 115.034 19.5123C115.096 19.5248 115.152 19.5357 115.202 19.5451C115.256 19.5514 115.296 19.5608 115.324 19.5733C115.337 19.5795 115.348 19.5998 115.357 19.6342C115.367 19.6686 115.371 19.6936 115.371 19.7093C115.371 19.728 115.368 19.7562 115.362 19.7937C115.356 19.8281 115.343 19.8484 115.324 19.8547H112.707C112.688 19.8484 112.676 19.8281 112.67 19.7937C112.663 19.7562 112.66 19.728 112.66 19.7093C112.66 19.6936 112.665 19.6686 112.674 19.6342C112.684 19.5998 112.695 19.5795 112.707 19.5733C112.748 19.5545 112.801 19.5404 112.867 19.531C112.936 19.5185 113.004 19.4935 113.073 19.456C113.145 19.4185 113.209 19.3622 113.265 19.2872C113.325 19.209 113.364 19.0949 113.383 18.9448C113.389 18.8979 113.394 18.8541 113.397 18.8134C113.403 18.7728 113.408 18.7321 113.411 18.6915C113.414 18.6477 113.415 18.6008 113.415 18.5508C113.419 18.5007 113.42 18.4429 113.42 18.3772C113.42 18.2365 113.419 18.0864 113.415 17.927C113.412 17.7675 113.411 17.5893 113.411 17.3923C113.411 17.2391 113.403 17.0874 113.387 16.9373C113.375 16.7872 113.34 16.6528 113.284 16.534C113.231 16.4151 113.151 16.3182 113.045 16.2432C112.939 16.1681 112.792 16.1306 112.604 16.1306C112.538 16.1306 112.479 16.1353 112.426 16.1447C112.376 16.1509 112.313 16.1681 112.238 16.1963C112.166 16.2244 112.071 16.2666 111.952 16.3229C111.833 16.3792 111.674 16.4558 111.474 16.5527C111.449 16.5684 111.422 16.5871 111.394 16.609C111.369 16.6278 111.355 16.6528 111.352 16.684V18.9823C111.352 19.123 111.38 19.2309 111.436 19.3059C111.492 19.3778 111.558 19.431 111.633 19.4654C111.708 19.4967 111.783 19.5185 111.858 19.531C111.933 19.5404 111.991 19.5545 112.032 19.5733C112.044 19.5795 112.055 19.5998 112.065 19.6342C112.074 19.6686 112.079 19.6936 112.079 19.7093C112.079 19.728 112.076 19.7562 112.069 19.7937C112.063 19.8281 112.051 19.8484 112.032 19.8547H109.584C109.565 19.8484 109.552 19.8281 109.546 19.7937C109.54 19.7562 109.537 19.728 109.537 19.7093C109.537 19.6936 109.541 19.6686 109.551 19.6342C109.56 19.5998 109.571 19.5795 109.584 19.5733C109.624 19.5545 109.682 19.5404 109.757 19.531C109.832 19.5185 109.907 19.4967 109.982 19.4654C110.057 19.431 110.123 19.3778 110.179 19.3059C110.235 19.2309 110.264 19.123 110.264 18.9823V16.5996C110.264 16.5246 110.243 16.4667 110.203 16.4261C110.162 16.3823 110.11 16.3495 110.048 16.3276C109.985 16.3057 109.918 16.2885 109.846 16.276C109.774 16.2604 109.705 16.2432 109.64 16.2244C109.621 16.2181 109.605 16.2103 109.593 16.2009C109.584 16.1884 109.579 16.165 109.579 16.1306C109.579 16.115 109.584 16.0993 109.593 16.0837C109.602 16.0681 109.621 16.0524 109.649 16.0368L111.202 15.3051Z" fill="white"/>
<path d="M104.434 16.4308C104.424 16.3401 104.382 16.2635 104.307 16.2009C104.235 16.1353 104.157 16.0931 104.072 16.0743C104.051 16.0681 104.026 16.0649 103.997 16.0649C103.972 16.0618 103.949 16.0587 103.927 16.0555C103.905 16.0493 103.886 16.0415 103.871 16.0321C103.858 16.0196 103.852 15.9993 103.852 15.9711C103.852 15.9461 103.855 15.9242 103.861 15.9055C103.871 15.8867 103.893 15.8726 103.927 15.8632L105.358 15.4505C105.376 15.4442 105.395 15.4396 105.414 15.4364C105.436 15.4333 105.456 15.4317 105.475 15.4317C105.506 15.4317 105.522 15.4583 105.522 15.5115V18.6774C105.522 18.7837 105.545 18.8807 105.592 18.9682C105.642 19.0526 105.706 19.1246 105.784 19.184C105.863 19.2434 105.952 19.2887 106.052 19.32C106.152 19.3513 106.255 19.3669 106.361 19.3669C106.436 19.3669 106.515 19.3544 106.596 19.3294C106.677 19.3044 106.755 19.2731 106.83 19.2356C106.905 19.1949 106.976 19.1496 107.041 19.0995C107.107 19.0464 107.16 18.9917 107.201 18.9354V16.4261C107.191 16.3354 107.149 16.2588 107.074 16.1963C107.002 16.1306 106.924 16.0884 106.84 16.0696C106.818 16.0634 106.793 16.0602 106.765 16.0602C106.74 16.0571 106.716 16.054 106.694 16.0509C106.672 16.0446 106.654 16.0368 106.638 16.0274C106.626 16.0149 106.619 15.9946 106.619 15.9664C106.619 15.9414 106.622 15.9195 106.629 15.9008C106.638 15.882 106.66 15.8679 106.694 15.8586L108.125 15.4505C108.144 15.4442 108.162 15.4396 108.181 15.4364C108.203 15.4333 108.223 15.4317 108.242 15.4317C108.273 15.4317 108.289 15.4458 108.289 15.474V18.7102C108.305 18.8478 108.344 18.9463 108.406 19.0057C108.469 19.0651 108.57 19.0949 108.711 19.0949L108.983 19.0761C108.996 19.0761 109.003 19.098 109.007 19.1418C109.01 19.1824 109.011 19.2121 109.011 19.2309C109.011 19.2371 109.007 19.2574 108.997 19.2918C108.991 19.3262 108.972 19.3513 108.941 19.3669L107.515 19.9532C107.509 19.9563 107.493 19.961 107.468 19.9672C107.443 19.9766 107.429 19.9813 107.426 19.9813C107.404 19.9813 107.39 19.9672 107.384 19.9391C107.381 19.9141 107.379 19.8891 107.379 19.8641V19.4138C107.37 19.4013 107.354 19.395 107.332 19.395C107.326 19.395 107.32 19.395 107.313 19.395C107.307 19.395 107.304 19.3982 107.304 19.4044L106.554 19.7703C106.485 19.7953 106.421 19.8203 106.361 19.8453C106.302 19.8672 106.242 19.8891 106.183 19.911C106.127 19.9328 106.066 19.95 106 19.9626C105.934 19.9751 105.863 19.9813 105.784 19.9813C105.653 19.9813 105.508 19.9672 105.348 19.9391C105.192 19.9141 105.045 19.8734 104.907 19.8172C104.773 19.7577 104.66 19.6827 104.57 19.592C104.479 19.5013 104.434 19.3919 104.434 19.2637V16.4308Z" fill="white"/>
<path d="M102.145 16.0133C102.189 16.0133 102.246 16.0102 102.318 16.004C102.39 15.9946 102.459 15.9711 102.525 15.9336C102.593 15.893 102.651 15.832 102.698 15.7507C102.748 15.6663 102.773 15.549 102.773 15.3989C102.773 15.3739 102.786 15.3614 102.811 15.3614H102.994C103.019 15.3614 103.031 15.3739 103.031 15.3989V17.2844C103.031 17.3 103.027 17.311 103.017 17.3172C103.008 17.3204 103 17.3219 102.994 17.3219H102.811C102.795 17.3219 102.784 17.3172 102.778 17.3079C102.775 17.2985 102.773 17.2907 102.773 17.2844C102.773 17.1156 102.748 16.9858 102.698 16.8951C102.651 16.8013 102.595 16.7325 102.529 16.6887C102.464 16.645 102.395 16.6199 102.323 16.6137C102.254 16.6043 102.198 16.5996 102.154 16.5996H100.588C100.55 16.5996 100.522 16.6121 100.503 16.6371C100.484 16.659 100.475 16.6887 100.475 16.7263V18.9729C100.475 19.0573 100.491 19.1292 100.522 19.1887C100.556 19.2449 100.602 19.295 100.658 19.3387C100.717 19.3794 100.786 19.4154 100.864 19.4466C100.942 19.4779 101.028 19.5076 101.122 19.5357C101.169 19.5514 101.219 19.5654 101.272 19.578C101.325 19.5905 101.369 19.5967 101.404 19.5967C101.422 19.5967 101.433 19.603 101.437 19.6155C101.44 19.6249 101.441 19.6311 101.441 19.6342V19.8172C101.441 19.8234 101.438 19.8312 101.432 19.8406C101.429 19.85 101.419 19.8547 101.404 19.8547H98.4206C98.405 19.8547 98.3941 19.85 98.3878 19.8406C98.3847 19.8312 98.3831 19.8234 98.3831 19.8172V19.6342C98.3831 19.628 98.3847 19.6202 98.3878 19.6108C98.3909 19.6014 98.4019 19.5967 98.4206 19.5967C98.455 19.5967 98.4988 19.5905 98.552 19.578C98.6083 19.5623 98.6505 19.5482 98.6786 19.5357C98.8131 19.4763 98.9225 19.3982 99.0069 19.3012C99.0945 19.2012 99.1383 19.0808 99.1383 18.9401V13.9449C99.1383 13.8261 99.1054 13.7323 99.0398 13.6635C98.9741 13.5947 98.8991 13.5431 98.8146 13.5087C98.7333 13.4743 98.6552 13.4524 98.5801 13.4431C98.5082 13.4337 98.4629 13.429 98.4441 13.429H98.4253C98.4097 13.429 98.3988 13.4243 98.3925 13.4149C98.3894 13.4055 98.3878 13.3977 98.3878 13.3915V13.2789C98.3878 13.2726 98.3894 13.2648 98.3925 13.2554C98.3988 13.2461 98.4097 13.2414 98.4253 13.2414H103.059C103.097 13.2476 103.125 13.257 103.144 13.2695C103.163 13.2789 103.172 13.3055 103.172 13.3493V14.625C103.172 14.6625 103.161 14.686 103.139 14.6954C103.117 14.7047 103.092 14.7094 103.064 14.7094H102.97C102.964 14.7063 102.955 14.6797 102.942 14.6297C102.933 14.5765 102.919 14.5156 102.9 14.4468C102.881 14.3749 102.858 14.3045 102.83 14.2357C102.804 14.1638 102.775 14.1075 102.74 14.0669C102.697 14.02 102.654 13.9809 102.614 13.9496C102.573 13.9183 102.528 13.8933 102.478 13.8746C102.428 13.8558 102.37 13.8433 102.304 13.837C102.239 13.8308 102.159 13.8277 102.065 13.8277H100.569C100.506 13.8277 100.475 13.8589 100.475 13.9215V15.9055C100.475 15.9774 100.513 16.0133 100.588 16.0133H102.145Z" fill="white"/>
<path d="M95.2313 19.714C95.2313 19.7327 95.2281 19.7593 95.2219 19.7937C95.2156 19.8281 95.2031 19.8484 95.1844 19.8547H92.736C92.7173 19.8484 92.7048 19.8281 92.6985 19.7937C92.6923 19.7593 92.6891 19.7327 92.6891 19.714C92.6891 19.6983 92.6938 19.6733 92.7032 19.6389C92.7126 19.6045 92.7235 19.5842 92.736 19.578C92.7767 19.5592 92.8345 19.5451 92.9096 19.5357C92.9846 19.5232 93.0597 19.5013 93.1347 19.4701C93.2097 19.4357 93.2754 19.3841 93.3317 19.3153C93.388 19.2434 93.4161 19.1386 93.4161 19.001V13.5322C93.4161 13.4571 93.3958 13.3993 93.3551 13.3586C93.3145 13.3149 93.2629 13.282 93.2004 13.2601C93.1378 13.2383 93.0706 13.2211 92.9987 13.2085C92.9268 13.1929 92.858 13.1757 92.7923 13.157C92.7517 13.1413 92.7313 13.0975 92.7313 13.0256C92.7313 13.01 92.736 12.9897 92.7454 12.9647C92.7548 12.9365 92.7735 12.9146 92.8017 12.899L94.3542 12.1673C94.3667 12.161 94.3808 12.1548 94.3964 12.1485C94.412 12.1423 94.4292 12.1392 94.448 12.1392C94.473 12.1392 94.4886 12.1485 94.4949 12.1673C94.5011 12.1829 94.5043 12.2111 94.5043 12.2517V19.001C94.5043 19.1386 94.5324 19.2434 94.5887 19.3153C94.645 19.3841 94.7106 19.4357 94.7857 19.4701C94.8607 19.5013 94.9358 19.5232 95.0108 19.5357C95.0859 19.5451 95.1437 19.5592 95.1844 19.578C95.1969 19.5842 95.2078 19.6045 95.2172 19.6389C95.2266 19.6733 95.2313 19.6983 95.2313 19.714Z" fill="white"/>
<path d="M88.1677 17.9551C88.1677 17.5893 88.2193 17.2531 88.3225 16.9467C88.4257 16.6371 88.5742 16.3698 88.768 16.1447C88.9619 15.9195 89.198 15.7444 89.4763 15.6194C89.7577 15.4943 90.0766 15.4317 90.4331 15.4317C90.5394 15.4317 90.6348 15.4396 90.7192 15.4552C90.8036 15.4677 90.8802 15.4865 90.949 15.5115C91.0209 15.5334 91.0866 15.5615 91.146 15.5959C91.2086 15.6272 91.2711 15.6616 91.3336 15.6991C91.4055 15.7366 91.4868 15.8038 91.5775 15.9008C91.6713 15.9977 91.7589 16.1103 91.8402 16.2385C91.9215 16.3667 91.9903 16.5043 92.0466 16.6512C92.1028 16.795 92.131 16.9342 92.131 17.0686C92.131 17.1124 92.1216 17.1609 92.1028 17.214C92.0872 17.2641 92.0591 17.2891 92.0184 17.2891H89.2511C89.2199 17.2891 89.198 17.3172 89.1855 17.3735C89.1761 17.4298 89.1714 17.4986 89.1714 17.5799C89.1714 17.8551 89.2105 18.1005 89.2887 18.3163C89.37 18.5289 89.4778 18.7102 89.6123 18.8603C89.7467 19.0073 89.9015 19.1199 90.0766 19.198C90.2517 19.2731 90.4362 19.3106 90.6301 19.3106C90.752 19.3106 90.8693 19.295 90.9819 19.2637C91.0944 19.2293 91.2023 19.1855 91.3055 19.1324C91.4087 19.0792 91.5056 19.0198 91.5963 18.9541C91.687 18.8885 91.7729 18.8228 91.8542 18.7572C91.873 18.7509 91.8855 18.7478 91.8918 18.7478C91.9012 18.7478 91.9137 18.7556 91.9293 18.7712C91.9574 18.7962 91.9856 18.8259 92.0137 18.8603C92.0419 18.8916 92.0638 18.9182 92.0794 18.9401C92.0888 18.9495 92.0935 18.9588 92.0935 18.9682C92.0935 18.9776 92.0872 18.9885 92.0747 19.001C91.9715 19.123 91.8449 19.2434 91.6948 19.3622C91.5447 19.4779 91.3837 19.5826 91.2117 19.6764C91.0428 19.7671 90.8693 19.8406 90.6911 19.8969C90.5128 19.9532 90.344 19.9813 90.1845 19.9813C89.8624 19.9813 89.5763 19.9235 89.3262 19.8078C89.076 19.689 88.865 19.5342 88.693 19.3434C88.521 19.1527 88.3897 18.9369 88.299 18.6962C88.2115 18.4523 88.1677 18.2053 88.1677 17.9551ZM90.9209 16.9279C91.0022 16.9279 91.0428 16.892 91.0428 16.8201C91.0428 16.6981 91.0225 16.584 90.9819 16.4777C90.9443 16.3682 90.8896 16.2729 90.8177 16.1916C90.7458 16.1071 90.6582 16.0415 90.555 15.9946C90.455 15.9477 90.3424 15.9242 90.2173 15.9242C90.0673 15.9242 89.9359 15.9571 89.8234 16.0227C89.7108 16.0853 89.6154 16.1619 89.5373 16.2525C89.4591 16.3432 89.3997 16.437 89.359 16.534C89.3215 16.6309 89.3027 16.7138 89.3027 16.7825C89.3027 16.8357 89.3106 16.8732 89.3262 16.8951C89.3418 16.917 89.3621 16.9279 89.3872 16.9279H90.9209Z" fill="white"/>
<path d="M84.8282 15.4317C85.1284 15.4317 85.3973 15.4708 85.6349 15.549C85.8726 15.6272 86.0711 15.7413 86.2306 15.8914C86.4276 15.8851 86.6152 15.8742 86.7934 15.8586C86.9748 15.8429 87.1687 15.8351 87.375 15.8351C87.4469 15.8351 87.5048 15.8382 87.5486 15.8445C87.5955 15.8476 87.6314 15.8554 87.6564 15.8679C87.6815 15.8773 87.7002 15.8914 87.7127 15.9101C87.7252 15.9258 87.7346 15.9461 87.7409 15.9711C87.7628 16.0493 87.7784 16.1196 87.7878 16.1822C87.7972 16.2447 87.8018 16.3088 87.8018 16.3745C87.8018 16.4276 87.7815 16.4636 87.7409 16.4824C87.7034 16.498 87.6252 16.5058 87.5064 16.5058H86.648C86.6918 16.5777 86.734 16.6622 86.7747 16.7591C86.8185 16.856 86.8403 16.9795 86.8403 17.1296C86.8403 17.3454 86.7919 17.5564 86.6949 17.7628C86.598 17.9661 86.4557 18.1459 86.2681 18.3022C86.0805 18.4585 85.8507 18.5852 85.5787 18.6821C85.3097 18.7759 85.0017 18.8228 84.6547 18.8228C84.5484 18.8228 84.4624 18.8197 84.3967 18.8134C84.331 18.8041 84.2622 18.79 84.1903 18.7712C84.1465 18.8087 84.0918 18.8431 84.0262 18.8744C83.9605 18.9025 83.8964 18.9354 83.8339 18.9729C83.7713 19.0104 83.7182 19.0542 83.6744 19.1042C83.6306 19.1511 83.6087 19.2121 83.6087 19.2872C83.6087 19.4185 83.7229 19.5139 83.9511 19.5733C84.1825 19.6295 84.5546 19.6592 85.0674 19.6624C85.4583 19.6655 85.8132 19.6764 86.1321 19.6952C86.4542 19.714 86.7293 19.764 86.9576 19.8453C87.1859 19.9235 87.3625 20.0454 87.4876 20.2111C87.6127 20.38 87.6752 20.6145 87.6752 20.9147C87.6752 21.0398 87.6455 21.1742 87.5861 21.318C87.5267 21.465 87.436 21.6104 87.3141 21.7542C87.1952 21.8981 87.0451 22.0357 86.8638 22.167C86.6824 22.3014 86.4682 22.4187 86.2212 22.5188C85.9773 22.6219 85.7006 22.7032 85.391 22.7627C85.0815 22.8252 84.7407 22.8565 84.3686 22.8565C84.0402 22.8565 83.7541 22.8236 83.5102 22.758C83.2663 22.6954 83.0647 22.611 82.9052 22.5047C82.7457 22.3984 82.6253 22.2764 82.544 22.1388C82.4659 22.0044 82.4268 21.8652 82.4268 21.7214C82.4268 21.612 82.4487 21.5135 82.4924 21.4259C82.5362 21.3384 82.5941 21.2571 82.666 21.182C82.7379 21.1101 82.8176 21.0413 82.9052 20.9757C82.9959 20.9131 83.0865 20.8475 83.1772 20.7787C83.2679 20.713 83.3555 20.6426 83.4399 20.5676C83.5243 20.4957 83.5978 20.4128 83.6603 20.319C83.4946 20.2971 83.3429 20.258 83.2054 20.2018C83.0709 20.1455 82.9552 20.0798 82.8583 20.0048C82.7645 19.9297 82.691 19.8484 82.6378 19.7609C82.5847 19.6702 82.5581 19.5795 82.5581 19.4888C82.5581 19.4044 82.58 19.3309 82.6238 19.2684C82.6707 19.2059 82.7301 19.1511 82.802 19.1042C82.877 19.0542 82.9615 19.0089 83.0553 18.9682C83.1491 18.9276 83.246 18.8885 83.3461 18.851C83.4086 18.8259 83.4743 18.7994 83.5431 18.7712C83.615 18.74 83.6885 18.6977 83.7635 18.6446C83.3914 18.4945 83.11 18.2991 82.9193 18.0583C82.7285 17.8175 82.6332 17.5392 82.6332 17.2234C82.6332 16.9733 82.6894 16.7388 82.802 16.5199C82.9146 16.301 83.0694 16.1118 83.2663 15.9524C83.4633 15.7898 83.6947 15.6631 83.9605 15.5724C84.2294 15.4786 84.5186 15.4317 84.8282 15.4317ZM83.4962 21.3368C83.4962 21.4681 83.5353 21.5995 83.6134 21.7308C83.6947 21.8652 83.8026 21.9856 83.9371 22.0919C84.0746 22.1983 84.2357 22.2842 84.4202 22.3499C84.6046 22.4187 84.8016 22.4531 85.0111 22.4531C85.23 22.4531 85.4426 22.4156 85.649 22.3405C85.8554 22.2686 86.0383 22.1717 86.1978 22.0497C86.3572 21.9278 86.4854 21.7855 86.5824 21.6229C86.6793 21.4634 86.7278 21.2962 86.7278 21.1211C86.7278 21.0179 86.7106 20.9272 86.6762 20.849C86.6449 20.7708 86.6011 20.7052 86.5448 20.652C86.4886 20.5989 86.4229 20.5567 86.3479 20.5254C86.2728 20.4941 86.1946 20.4754 86.1133 20.4691C86.0477 20.4629 85.9382 20.4566 85.785 20.4503C85.6318 20.4472 85.4598 20.4425 85.2691 20.4363C85.1534 20.4331 85.0393 20.43 84.9267 20.4269C84.8141 20.4269 84.7094 20.4253 84.6125 20.4222C84.5186 20.4191 84.4327 20.4159 84.3545 20.4128C84.2794 20.4097 84.22 20.405 84.1763 20.3988C84.1168 20.4675 84.0481 20.5316 83.9699 20.5911C83.8917 20.6536 83.8167 20.7193 83.7448 20.788C83.676 20.86 83.6166 20.9397 83.5665 21.0272C83.5196 21.1148 83.4962 21.218 83.4962 21.3368ZM85.7147 17.2328C85.7147 16.992 85.6897 16.7779 85.6396 16.5902C85.5896 16.3995 85.5177 16.24 85.4239 16.1118C85.3332 15.9805 85.2253 15.882 85.1002 15.8163C84.9752 15.7476 84.8376 15.7132 84.6875 15.7132C84.5968 15.7132 84.4968 15.7319 84.3873 15.7694C84.281 15.8038 84.181 15.8695 84.0871 15.9664C83.9933 16.0602 83.9152 16.19 83.8526 16.3557C83.7901 16.5214 83.7588 16.7341 83.7588 16.9936C83.7588 17.1593 83.7776 17.3329 83.8151 17.5142C83.8526 17.6956 83.912 17.8629 83.9933 18.0161C84.0778 18.1693 84.1856 18.2959 84.317 18.396C84.4483 18.4929 84.6078 18.5414 84.7954 18.5414C84.9361 18.5414 85.0627 18.5101 85.1753 18.4476C85.2879 18.3819 85.3832 18.2928 85.4614 18.1802C85.5427 18.0646 85.6052 17.927 85.649 17.7675C85.6928 17.6049 85.7147 17.4267 85.7147 17.2328Z" fill="white"/>
<path d="M77.835 15.3051C77.8475 15.2988 77.86 15.2926 77.8725 15.2863C77.8881 15.2801 77.8991 15.277 77.9053 15.277C77.9585 15.277 77.9851 15.3145 77.9851 15.3895V16.1212C77.9945 16.1525 78.007 16.1681 78.0226 16.1681C78.0382 16.1681 78.0507 16.1681 78.0601 16.1681C78.0695 16.165 78.082 16.1587 78.0976 16.1494C78.2978 16.0462 78.4666 15.9602 78.6042 15.8914C78.7449 15.8195 78.8653 15.7601 78.9654 15.7132C79.0685 15.6631 79.1592 15.6256 79.2374 15.6006C79.3187 15.5724 79.4 15.5521 79.4813 15.5396C79.5626 15.524 79.6517 15.5146 79.7486 15.5115C79.8456 15.5083 79.9644 15.5068 80.1051 15.5068C80.2583 15.5068 80.3912 15.5396 80.5038 15.6053C80.6163 15.6709 80.7101 15.7585 80.7852 15.8679C80.8634 15.9742 80.9259 16.0978 80.9728 16.2385C81.0228 16.376 81.0603 16.5183 81.0854 16.6653C81.1104 16.8091 81.1276 16.953 81.137 17.0968C81.1463 17.2375 81.151 17.3657 81.151 17.4814C81.151 17.5908 81.1479 17.6925 81.1416 17.7863C81.1385 17.8801 81.1338 17.9833 81.1276 18.0958C81.1244 18.2053 81.1198 18.3303 81.1135 18.471C81.1104 18.6118 81.1088 18.7822 81.1088 18.9823C81.1088 19.0761 81.126 19.1543 81.1604 19.2168C81.1948 19.2793 81.2386 19.3309 81.2917 19.3716C81.348 19.4122 81.409 19.4435 81.4747 19.4654C81.5403 19.4841 81.6044 19.4998 81.667 19.5123C81.7295 19.5248 81.7858 19.5357 81.8358 19.5451C81.889 19.5514 81.9296 19.5608 81.9578 19.5733C81.9703 19.5795 81.9812 19.5998 81.9906 19.6342C82 19.6686 82.0047 19.6936 82.0047 19.7093C82.0047 19.728 82.0015 19.7562 81.9953 19.7937C81.989 19.8281 81.9765 19.8484 81.9578 19.8547H79.3406C79.3218 19.8484 79.3093 19.8281 79.3031 19.7937C79.2968 19.7562 79.2937 19.728 79.2937 19.7093C79.2937 19.6936 79.2984 19.6686 79.3077 19.6342C79.3171 19.5998 79.3281 19.5795 79.3406 19.5733C79.3812 19.5545 79.4344 19.5404 79.5 19.531C79.5688 19.5185 79.6376 19.4935 79.7064 19.456C79.7783 19.4185 79.8424 19.3622 79.8987 19.2872C79.9581 19.209 79.9972 19.0949 80.016 18.9448C80.0222 18.8979 80.0269 18.8541 80.03 18.8134C80.0363 18.7728 80.041 18.7321 80.0441 18.6915C80.0472 18.6477 80.0488 18.6008 80.0488 18.5508C80.0519 18.5007 80.0535 18.4429 80.0535 18.3772C80.0535 18.2365 80.0519 18.0864 80.0488 17.927C80.0457 17.7675 80.0441 17.5893 80.0441 17.3923C80.0441 17.2391 80.0363 17.0874 80.0207 16.9373C80.0082 16.7872 79.9738 16.6528 79.9175 16.534C79.8643 16.4151 79.7846 16.3182 79.6783 16.2432C79.572 16.1681 79.425 16.1306 79.2374 16.1306C79.1717 16.1306 79.1123 16.1353 79.0592 16.1447C79.0091 16.1509 78.9466 16.1681 78.8715 16.1963C78.7996 16.2244 78.7043 16.2666 78.5854 16.3229C78.4666 16.3792 78.3071 16.4558 78.107 16.5527C78.082 16.5684 78.0554 16.5871 78.0273 16.609C78.0023 16.6278 77.9882 16.6528 77.9851 16.684V18.9823C77.9851 19.123 78.0132 19.2309 78.0695 19.3059C78.1258 19.3778 78.1915 19.431 78.2665 19.4654C78.3415 19.4967 78.4166 19.5185 78.4916 19.531C78.5667 19.5404 78.6245 19.5545 78.6652 19.5733C78.6777 19.5795 78.6886 19.5998 78.698 19.6342C78.7074 19.6686 78.7121 19.6936 78.7121 19.7093C78.7121 19.728 78.709 19.7562 78.7027 19.7937C78.6964 19.8281 78.6839 19.8484 78.6652 19.8547H76.2168C76.1981 19.8484 76.1856 19.8281 76.1793 19.7937C76.1731 19.7562 76.1699 19.728 76.1699 19.7093C76.1699 19.6936 76.1746 19.6686 76.184 19.6342C76.1934 19.5998 76.2043 19.5795 76.2168 19.5733C76.2575 19.5545 76.3153 19.5404 76.3904 19.531C76.4654 19.5185 76.5405 19.4967 76.6155 19.4654C76.6906 19.431 76.7562 19.3778 76.8125 19.3059C76.8688 19.2309 76.8969 19.123 76.8969 18.9823V16.5996C76.8969 16.5246 76.8766 16.4667 76.836 16.4261C76.7953 16.3823 76.7437 16.3495 76.6812 16.3276C76.6186 16.3057 76.5514 16.2885 76.4795 16.276C76.4076 16.2604 76.3388 16.2432 76.2731 16.2244C76.2544 16.2181 76.2387 16.2103 76.2262 16.2009C76.2168 16.1884 76.2122 16.165 76.2122 16.1306C76.2122 16.115 76.2168 16.0993 76.2262 16.0837C76.2356 16.0681 76.2544 16.0524 76.2825 16.0368L77.835 15.3051Z" fill="white"/>
<path d="M68.7171 19.6342C68.7171 19.6092 68.7296 19.5967 68.7546 19.5967C68.814 19.5936 68.8828 19.5858 68.961 19.5733C69.0423 19.5576 69.1236 19.5279 69.2049 19.4841C69.2893 19.4372 69.3706 19.37 69.4488 19.2825C69.5269 19.1918 69.5926 19.0683 69.6458 18.9119L71.5312 13.4431C71.5312 13.4462 71.5312 13.4446 71.5312 13.4384C71.5344 13.4321 71.5359 13.4259 71.5359 13.4196C71.5359 13.3977 71.5266 13.3711 71.5078 13.3399C71.4922 13.3055 71.4843 13.2805 71.4843 13.2648C71.4843 13.2492 71.4906 13.2414 71.5031 13.2414H72.8633C72.8695 13.2445 72.8774 13.2476 72.8867 13.2508C72.8993 13.2539 72.9086 13.2633 72.9149 13.2789L74.8989 18.8463C74.9301 18.9338 74.9598 19.0089 74.988 19.0714C75.0161 19.1339 75.049 19.1902 75.0865 19.2402C75.1271 19.2872 75.1772 19.3309 75.2366 19.3716C75.296 19.4091 75.3726 19.4482 75.4664 19.4888C75.5102 19.5107 75.5696 19.5342 75.6446 19.5592C75.7197 19.5842 75.7916 19.5967 75.8604 19.5967C75.876 19.5967 75.8854 19.6014 75.8885 19.6108C75.8948 19.6202 75.8979 19.6295 75.8979 19.6389V19.8172C75.8979 19.8234 75.8948 19.8312 75.8885 19.8406C75.8854 19.85 75.876 19.8547 75.8604 19.8547H72.5678C72.5522 19.8547 72.5412 19.85 72.535 19.8406C72.5318 19.8312 72.5303 19.8234 72.5303 19.8172V19.6342C72.5303 19.628 72.5318 19.6202 72.535 19.6108C72.5412 19.6014 72.5522 19.5967 72.5678 19.5967C72.5803 19.5967 72.5928 19.5967 72.6053 19.5967C72.6178 19.5936 72.6272 19.592 72.6335 19.592C72.6679 19.5889 72.7163 19.5858 72.7789 19.5826C72.8445 19.5795 72.9149 19.5748 72.9899 19.5686C73.065 19.5592 73.14 19.5467 73.2151 19.531C73.2932 19.5123 73.3636 19.4873 73.4261 19.456C73.4887 19.4216 73.5403 19.3778 73.5809 19.3247C73.6216 19.2715 73.6419 19.2059 73.6419 19.1277C73.6419 19.1089 73.6387 19.087 73.6325 19.062L73.0181 17.3688C73.0149 17.3626 73.0087 17.3485 72.9993 17.3266C72.9931 17.3047 72.9805 17.2828 72.9618 17.261C72.9462 17.2359 72.9243 17.214 72.8961 17.1953C72.8711 17.1765 72.8398 17.1671 72.8023 17.1671H71.1091C71.0685 17.1671 71.0341 17.1765 71.0059 17.1953C70.9778 17.214 70.9543 17.2344 70.9356 17.2563C70.9168 17.2781 70.9012 17.3 70.8887 17.3219C70.8793 17.3438 70.8746 17.3563 70.8746 17.3594C70.7745 17.6534 70.6901 17.902 70.6213 18.1052C70.5525 18.3053 70.4947 18.471 70.4478 18.6024C70.404 18.7337 70.3696 18.8353 70.3446 18.9072C70.3196 18.9792 70.3008 19.0323 70.2883 19.0667C70.2789 19.098 70.2727 19.1183 70.2696 19.1277C70.2696 19.1339 70.2696 19.1371 70.2696 19.1371C70.2696 19.1464 70.2711 19.1574 70.2743 19.1699C70.2774 19.1793 70.2805 19.1887 70.2836 19.198C70.3086 19.2762 70.354 19.3419 70.4197 19.395C70.4884 19.4451 70.5666 19.4857 70.6542 19.517C70.7417 19.5451 70.8308 19.5654 70.9215 19.578C71.0153 19.5905 71.0982 19.5967 71.1701 19.5967H71.292C71.3077 19.5967 71.3171 19.6014 71.3202 19.6108C71.3264 19.6202 71.3296 19.628 71.3296 19.6342V19.8172C71.3296 19.8234 71.3264 19.8312 71.3202 19.8406C71.3171 19.85 71.3077 19.8547 71.292 19.8547H68.7546C68.7296 19.8547 68.7171 19.8422 68.7171 19.8172V19.6342ZM71.1748 16.4917C71.1685 16.5074 71.1638 16.523 71.1607 16.5386C71.1576 16.5543 71.156 16.5699 71.156 16.5855C71.156 16.6043 71.1607 16.6199 71.1701 16.6325C71.1795 16.6418 71.1982 16.6465 71.2264 16.6465H72.6335C72.6679 16.6465 72.6897 16.6403 72.6991 16.6278C72.7116 16.6121 72.7179 16.5949 72.7179 16.5762C72.7179 16.5605 72.7163 16.5465 72.7132 16.534C72.7101 16.5214 72.7054 16.5074 72.6991 16.4917L72.0753 14.7798C72.0597 14.736 72.0362 14.7047 72.005 14.686C71.9737 14.6641 71.9456 14.6532 71.9205 14.6532C71.8955 14.6532 71.8674 14.6657 71.8361 14.6907C71.8048 14.7126 71.7814 14.7438 71.7658 14.7845L71.1748 16.4917Z" fill="white"/>
<path d="M65.9451 19.714C65.9451 19.7327 65.942 19.7593 65.9357 19.7937C65.9295 19.8281 65.917 19.8484 65.8982 19.8547H63.4499C63.4311 19.8484 63.4186 19.8281 63.4124 19.7937C63.4061 19.7593 63.403 19.7327 63.403 19.714C63.403 19.6983 63.4077 19.6733 63.4171 19.6389C63.4264 19.6045 63.4374 19.5842 63.4499 19.578C63.4905 19.5592 63.5484 19.5451 63.6234 19.5357C63.6985 19.5232 63.7735 19.5013 63.8486 19.4701C63.9236 19.4357 63.9893 19.3841 64.0456 19.3153C64.1018 19.2434 64.13 19.1386 64.13 19.001V13.5322C64.13 13.4571 64.1097 13.3993 64.069 13.3586C64.0284 13.3149 63.9768 13.282 63.9142 13.2601C63.8517 13.2383 63.7845 13.2211 63.7126 13.2085C63.6406 13.1929 63.5718 13.1757 63.5062 13.157C63.4655 13.1413 63.4452 13.0975 63.4452 13.0256C63.4452 13.01 63.4499 12.9897 63.4593 12.9647C63.4687 12.9365 63.4874 12.9146 63.5156 12.899L65.068 12.1673C65.0805 12.161 65.0946 12.1548 65.1103 12.1485C65.1259 12.1423 65.1431 12.1392 65.1618 12.1392C65.1869 12.1392 65.2025 12.1485 65.2088 12.1673C65.215 12.1829 65.2181 12.2111 65.2181 12.2517V19.001C65.2181 19.1386 65.2463 19.2434 65.3026 19.3153C65.3588 19.3841 65.4245 19.4357 65.4995 19.4701C65.5746 19.5013 65.6496 19.5232 65.7247 19.5357C65.7997 19.5451 65.8576 19.5592 65.8982 19.578C65.9107 19.5842 65.9217 19.6045 65.9311 19.6389C65.9404 19.6733 65.9451 19.6983 65.9451 19.714Z" fill="white"/>
<path d="M58.8816 17.9551C58.8816 17.5893 58.9331 17.2531 59.0363 16.9467C59.1395 16.6371 59.288 16.3698 59.4819 16.1447C59.6758 15.9195 59.9119 15.7444 60.1901 15.6194C60.4716 15.4943 60.7905 15.4317 61.147 15.4317C61.2533 15.4317 61.3486 15.4396 61.4331 15.4552C61.5175 15.4677 61.5941 15.4865 61.6629 15.5115C61.7348 15.5334 61.8005 15.5615 61.8599 15.5959C61.9224 15.6272 61.985 15.6616 62.0475 15.6991C62.1194 15.7366 62.2007 15.8038 62.2914 15.9008C62.3852 15.9977 62.4727 16.1103 62.554 16.2385C62.6353 16.3667 62.7041 16.5043 62.7604 16.6512C62.8167 16.795 62.8448 16.9342 62.8448 17.0686C62.8448 17.1124 62.8355 17.1609 62.8167 17.214C62.8011 17.2641 62.7729 17.2891 62.7323 17.2891H59.965C59.9337 17.2891 59.9119 17.3172 59.8993 17.3735C59.89 17.4298 59.8853 17.4986 59.8853 17.5799C59.8853 17.8551 59.9244 18.1005 60.0025 18.3163C60.0838 18.5289 60.1917 18.7102 60.3262 18.8603C60.4606 19.0073 60.6154 19.1199 60.7905 19.198C60.9656 19.2731 61.1501 19.3106 61.344 19.3106C61.4659 19.3106 61.5832 19.295 61.6957 19.2637C61.8083 19.2293 61.9162 19.1855 62.0194 19.1324C62.1225 19.0792 62.2195 19.0198 62.3102 18.9541C62.4008 18.8885 62.4868 18.8228 62.5681 18.7572C62.5869 18.7509 62.5994 18.7478 62.6056 18.7478C62.615 18.7478 62.6275 18.7556 62.6432 18.7712C62.6713 18.7962 62.6994 18.8259 62.7276 18.8603C62.7557 18.8916 62.7776 18.9182 62.7933 18.9401C62.8026 18.9495 62.8073 18.9588 62.8073 18.9682C62.8073 18.9776 62.8011 18.9885 62.7886 19.001C62.6854 19.123 62.5587 19.2434 62.4086 19.3622C62.2586 19.4779 62.0975 19.5826 61.9255 19.6764C61.7567 19.7671 61.5832 19.8406 61.4049 19.8969C61.2267 19.9532 61.0578 19.9813 60.8984 19.9813C60.5763 19.9813 60.2902 19.9235 60.0401 19.8078C59.7899 19.689 59.5788 19.5342 59.4069 19.3434C59.2349 19.1527 59.1036 18.9369 59.0129 18.6962C58.9253 18.4523 58.8816 18.2053 58.8816 17.9551ZM61.6348 16.9279C61.716 16.9279 61.7567 16.892 61.7567 16.8201C61.7567 16.6981 61.7364 16.584 61.6957 16.4777C61.6582 16.3682 61.6035 16.2729 61.5316 16.1916C61.4596 16.1071 61.3721 16.0415 61.2689 15.9946C61.1688 15.9477 61.0563 15.9242 60.9312 15.9242C60.7811 15.9242 60.6498 15.9571 60.5372 16.0227C60.4247 16.0853 60.3293 16.1619 60.2511 16.2525C60.1729 16.3432 60.1135 16.437 60.0729 16.534C60.0354 16.6309 60.0166 16.7138 60.0166 16.7825C60.0166 16.8357 60.0244 16.8732 60.0401 16.8951C60.0557 16.917 60.076 16.9279 60.101 16.9279H61.6348Z" fill="white"/>
<path d="M55.9407 19.9813C55.9157 19.9813 55.8938 19.9626 55.8751 19.925C55.8594 19.8906 55.8469 19.8609 55.8376 19.8359L54.5665 16.3886C54.5133 16.2447 54.4367 16.1196 54.3367 16.0133C54.2366 15.9039 54.1147 15.8257 53.9708 15.7788C53.9489 15.7726 53.9224 15.7679 53.8911 15.7647C53.8598 15.7616 53.8286 15.7569 53.7973 15.7507C53.7691 15.7444 53.7441 15.7335 53.7222 15.7178C53.7035 15.7022 53.6941 15.6772 53.6941 15.6428C53.6941 15.6115 53.7019 15.5834 53.7176 15.5584C53.7332 15.5302 53.7598 15.5162 53.7973 15.5162H56.2644C56.2831 15.5162 56.2956 15.5334 56.3019 15.5678C56.3082 15.599 56.3113 15.6194 56.3113 15.6287C56.3113 15.6725 56.2941 15.7022 56.2597 15.7178C56.2253 15.7304 56.1815 15.7382 56.1284 15.7413C56.0752 15.7444 56.0189 15.746 55.9595 15.746C55.9001 15.7429 55.8438 15.7491 55.7907 15.7647C55.7375 15.7804 55.6937 15.8085 55.6593 15.8492C55.6249 15.8867 55.6077 15.9461 55.6077 16.0274C55.6077 16.0368 55.6124 16.0571 55.6218 16.0884C55.6312 16.1165 55.6359 16.1337 55.6359 16.14L56.5692 18.6915C56.5755 18.7071 56.5849 18.7306 56.5974 18.7618C56.613 18.79 56.6333 18.8041 56.6584 18.8041C56.6709 18.8041 56.6834 18.7978 56.6959 18.7853C56.7115 18.7697 56.724 18.7525 56.7334 18.7337C56.7428 18.7149 56.7506 18.6977 56.7569 18.6821C56.7631 18.6633 56.7678 18.6508 56.7709 18.6446C56.9179 18.2694 57.0414 17.9535 57.1415 17.6971C57.2415 17.4376 57.3244 17.2219 57.39 17.0499C57.4557 16.8779 57.5057 16.7435 57.5401 16.6465C57.5777 16.5465 57.6042 16.4699 57.6199 16.4167C57.6355 16.3635 57.6449 16.326 57.648 16.3041C57.6511 16.2791 57.6527 16.2557 57.6527 16.2338C57.6527 16.1243 57.6183 16.0352 57.5495 15.9664C57.4807 15.8945 57.3963 15.8398 57.2962 15.8023C57.2681 15.796 57.2321 15.7929 57.1884 15.7929C57.1477 15.7929 57.1071 15.7898 57.0664 15.7835C57.0289 15.7773 56.9945 15.7647 56.9632 15.746C56.9351 15.7272 56.921 15.696 56.921 15.6522C56.921 15.6272 56.9335 15.6022 56.9585 15.5771C56.9836 15.5521 57.0086 15.5396 57.0336 15.5396H58.905C58.9238 15.5427 58.9347 15.5553 58.9378 15.5771C58.9441 15.5959 58.9472 15.6225 58.9472 15.6569C58.9472 15.6788 58.9441 15.696 58.9378 15.7085C58.9316 15.7178 58.9159 15.7272 58.8909 15.7366C58.869 15.7429 58.8362 15.7491 58.7924 15.7554C58.7518 15.7616 58.6971 15.771 58.6283 15.7835C58.5595 15.796 58.4985 15.8289 58.4454 15.882C58.3953 15.932 58.3484 15.9914 58.3046 16.0602C58.264 16.129 58.228 16.2009 58.1968 16.276C58.1655 16.3479 58.1358 16.4136 58.1077 16.473C57.895 17.0171 57.7152 17.4783 57.5683 17.8566C57.4244 18.235 57.3041 18.5492 57.2071 18.7994C57.1102 19.0495 57.0336 19.2449 56.9773 19.3856C56.9241 19.5232 56.8835 19.6264 56.8554 19.6952C56.8272 19.764 56.81 19.8062 56.8038 19.8218C56.7975 19.8375 56.7944 19.8453 56.7944 19.8453C56.785 19.8672 56.7709 19.8953 56.7522 19.9297C56.7365 19.9641 56.7162 19.9813 56.6912 19.9813H55.9407Z" fill="white"/>
<path d="M48.7552 17.6643C48.7552 17.3704 48.8193 17.089 48.9475 16.8201C49.0789 16.5512 49.254 16.3135 49.4728 16.1071C49.6917 15.9008 49.9466 15.7366 50.2374 15.6147C50.5282 15.4927 50.8346 15.4317 51.1567 15.4317C51.4944 15.4317 51.8149 15.4896 52.1182 15.6053C52.4215 15.721 52.6873 15.8804 52.9155 16.0837C53.1469 16.2838 53.3298 16.5214 53.4643 16.7966C53.5987 17.0686 53.666 17.3641 53.666 17.6831C53.666 18.0083 53.6034 18.3116 53.4783 18.593C53.3564 18.8713 53.186 19.1136 52.9671 19.32C52.7482 19.5264 52.4871 19.689 52.1838 19.8078C51.8837 19.9235 51.5553 19.9813 51.1989 19.9813C50.8455 19.9813 50.5188 19.9219 50.2186 19.8031C49.9216 19.6811 49.6636 19.517 49.4447 19.3106C49.229 19.1011 49.0601 18.8556 48.9382 18.5742C48.8162 18.2928 48.7552 17.9895 48.7552 17.6643ZM49.9559 17.3688C49.9559 17.5377 49.9685 17.7128 49.9935 17.8941C50.0185 18.0724 50.056 18.2475 50.106 18.4195C50.1561 18.5883 50.2186 18.7478 50.2936 18.8979C50.3718 19.0479 50.4641 19.1808 50.5704 19.2965C50.6767 19.4091 50.7971 19.4982 50.9315 19.5639C51.066 19.6295 51.2176 19.6624 51.3865 19.6624C51.571 19.6624 51.7289 19.6155 51.8602 19.5217C51.9947 19.4247 52.1041 19.2997 52.1885 19.1464C52.2761 18.9932 52.3402 18.8213 52.3808 18.6305C52.4215 18.4398 52.4418 18.249 52.4418 18.0583C52.4418 17.9051 52.4277 17.744 52.3996 17.5752C52.3714 17.4032 52.3292 17.2344 52.2729 17.0686C52.2167 16.8998 52.1479 16.7388 52.0666 16.5855C51.9853 16.4323 51.8899 16.2979 51.7805 16.1822C51.6742 16.0634 51.5538 15.9696 51.4193 15.9008C51.288 15.832 51.1442 15.7976 50.9878 15.7976C50.8127 15.7976 50.6595 15.846 50.5282 15.943C50.4 16.0368 50.2936 16.1603 50.2092 16.3135C50.1248 16.4636 50.0607 16.6325 50.0169 16.8201C49.9763 17.0045 49.9559 17.1875 49.9559 17.3688Z" fill="white"/>
<path d="M44.14 15.3051C44.1525 15.2988 44.165 15.2926 44.1775 15.2863C44.1931 15.2801 44.2041 15.277 44.2103 15.277C44.2635 15.277 44.2901 15.3145 44.2901 15.3895V16.1212C44.2995 16.1525 44.312 16.1681 44.3276 16.1681C44.3432 16.1681 44.3557 16.1681 44.3651 16.1681C44.3745 16.165 44.387 16.1587 44.4026 16.1494C44.6028 16.0462 44.7716 15.9602 44.9092 15.8914C45.0499 15.8195 45.1703 15.7601 45.2704 15.7132C45.3735 15.6631 45.4642 15.6256 45.5424 15.6006C45.6237 15.5724 45.705 15.5521 45.7863 15.5396C45.8676 15.524 45.9567 15.5146 46.0536 15.5115C46.1506 15.5083 46.2694 15.5068 46.4101 15.5068C46.5633 15.5068 46.6962 15.5396 46.8088 15.6053C46.9213 15.6709 47.0151 15.7585 47.0902 15.8679C47.1684 15.9742 47.2309 16.0978 47.2778 16.2385C47.3278 16.376 47.3653 16.5183 47.3904 16.6653C47.4154 16.8091 47.4326 16.953 47.442 17.0968C47.4513 17.2375 47.456 17.3657 47.456 17.4814C47.456 17.5908 47.4529 17.6925 47.4466 17.7863C47.4435 17.8801 47.4388 17.9833 47.4326 18.0958C47.4294 18.2053 47.4248 18.3303 47.4185 18.471C47.4154 18.6118 47.4138 18.7822 47.4138 18.9823C47.4138 19.0761 47.431 19.1543 47.4654 19.2168C47.4998 19.2793 47.5436 19.3309 47.5967 19.3716C47.653 19.4122 47.714 19.4435 47.7797 19.4654C47.8453 19.4841 47.9094 19.4998 47.972 19.5123C48.0345 19.5248 48.0908 19.5357 48.1408 19.5451C48.194 19.5514 48.2346 19.5608 48.2628 19.5733C48.2753 19.5795 48.2862 19.5998 48.2956 19.6342C48.305 19.6686 48.3097 19.6936 48.3097 19.7093C48.3097 19.728 48.3065 19.7562 48.3003 19.7937C48.294 19.8281 48.2815 19.8484 48.2628 19.8547H45.6456C45.6268 19.8484 45.6143 19.8281 45.6081 19.7937C45.6018 19.7562 45.5987 19.728 45.5987 19.7093C45.5987 19.6936 45.6034 19.6686 45.6127 19.6342C45.6221 19.5998 45.6331 19.5795 45.6456 19.5733C45.6862 19.5545 45.7394 19.5404 45.805 19.531C45.8738 19.5185 45.9426 19.4935 46.0114 19.456C46.0833 19.4185 46.1474 19.3622 46.2037 19.2872C46.2631 19.209 46.3022 19.0949 46.321 18.9448C46.3272 18.8979 46.3319 18.8541 46.335 18.8134C46.3413 18.7728 46.346 18.7321 46.3491 18.6915C46.3522 18.6477 46.3538 18.6008 46.3538 18.5508C46.3569 18.5007 46.3585 18.4429 46.3585 18.3772C46.3585 18.2365 46.3569 18.0864 46.3538 17.927C46.3507 17.7675 46.3491 17.5893 46.3491 17.3923C46.3491 17.2391 46.3413 17.0874 46.3257 16.9373C46.3132 16.7872 46.2788 16.6528 46.2225 16.534C46.1693 16.4151 46.0896 16.3182 45.9833 16.2432C45.877 16.1681 45.73 16.1306 45.5424 16.1306C45.4767 16.1306 45.4173 16.1353 45.3642 16.1447C45.3141 16.1509 45.2516 16.1681 45.1765 16.1963C45.1046 16.2244 45.0093 16.2666 44.8904 16.3229C44.7716 16.3792 44.6121 16.4558 44.412 16.5527C44.387 16.5684 44.3604 16.5871 44.3323 16.609C44.3073 16.6278 44.2932 16.6528 44.2901 16.684V18.9823C44.2901 19.123 44.3182 19.2309 44.3745 19.3059C44.4308 19.3778 44.4965 19.431 44.5715 19.4654C44.6465 19.4967 44.7216 19.5185 44.7966 19.531C44.8717 19.5404 44.9295 19.5545 44.9702 19.5733C44.9827 19.5795 44.9936 19.5998 45.003 19.6342C45.0124 19.6686 45.0171 19.6936 45.0171 19.7093C45.0171 19.728 45.0139 19.7562 45.0077 19.7937C45.0014 19.8281 44.9889 19.8484 44.9702 19.8547H42.5218C42.5031 19.8484 42.4906 19.8281 42.4843 19.7937C42.4781 19.7562 42.4749 19.728 42.4749 19.7093C42.4749 19.6936 42.4796 19.6686 42.489 19.6342C42.4984 19.5998 42.5093 19.5795 42.5218 19.5733C42.5625 19.5545 42.6203 19.5404 42.6954 19.531C42.7704 19.5185 42.8455 19.4967 42.9205 19.4654C42.9956 19.431 43.0612 19.3778 43.1175 19.3059C43.1738 19.2309 43.2019 19.123 43.2019 18.9823V16.5996C43.2019 16.5246 43.1816 16.4667 43.141 16.4261C43.1003 16.3823 43.0487 16.3495 42.9862 16.3276C42.9236 16.3057 42.8564 16.2885 42.7845 16.276C42.7126 16.2604 42.6438 16.2432 42.5781 16.2244C42.5594 16.2181 42.5437 16.2103 42.5312 16.2009C42.5218 16.1884 42.5172 16.165 42.5172 16.1306C42.5172 16.115 42.5218 16.0993 42.5312 16.0837C42.5406 16.0681 42.5594 16.0524 42.5875 16.0368L44.14 15.3051Z" fill="white"/>
<path d="M39.5013 19.8547C39.4825 19.8484 39.47 19.8281 39.4638 19.7937C39.4575 19.7562 39.4544 19.728 39.4544 19.7093C39.4544 19.6936 39.4591 19.6686 39.4685 19.6342C39.4779 19.5998 39.4888 19.5795 39.5013 19.5733C39.542 19.5545 39.5998 19.5404 39.6748 19.531C39.7499 19.5185 39.8249 19.4967 39.9 19.4654C39.975 19.431 40.0407 19.3794 40.097 19.3106C40.1533 19.2387 40.1814 19.1339 40.1814 18.9964V16.745C40.1814 16.67 40.1611 16.6121 40.1204 16.5715C40.0798 16.5277 40.0282 16.4949 39.9656 16.473C39.9031 16.4511 39.8359 16.4339 39.764 16.4214C39.692 16.4058 39.6232 16.3886 39.5576 16.3698C39.5388 16.3635 39.5232 16.3557 39.5107 16.3463C39.5013 16.3338 39.4966 16.3104 39.4966 16.276C39.4966 16.2604 39.5013 16.2447 39.5107 16.2291C39.5201 16.2135 39.5388 16.1978 39.567 16.1822L41.1195 15.4505C41.132 15.4442 41.1445 15.438 41.157 15.4317C41.1726 15.4255 41.1836 15.4224 41.1898 15.4224C41.243 15.4224 41.2695 15.4599 41.2695 15.5349V18.9964C41.2695 19.1339 41.2977 19.2387 41.354 19.3106C41.4102 19.3794 41.4759 19.431 41.551 19.4654C41.626 19.4967 41.701 19.5185 41.7761 19.531C41.8511 19.5404 41.909 19.5545 41.9496 19.5733C41.9621 19.5795 41.9731 19.5998 41.9825 19.6342C41.9918 19.6686 41.9965 19.6936 41.9965 19.7093C41.9965 19.728 41.9934 19.7562 41.9872 19.7937C41.9809 19.8281 41.9684 19.8484 41.9496 19.8547H39.5013ZM39.9797 13.7245C39.9797 13.5244 40.0391 13.3649 40.1579 13.2461C40.2768 13.1272 40.4362 13.0678 40.6364 13.0678C40.8365 13.0678 40.9959 13.1272 41.1148 13.2461C41.2336 13.3649 41.293 13.5244 41.293 13.7245C41.293 13.9246 41.2336 14.0841 41.1148 14.2029C40.9959 14.3186 40.8365 14.3764 40.6364 14.3764C40.4362 14.3764 40.2768 14.3186 40.1579 14.2029C40.0391 14.0841 39.9797 13.9246 39.9797 13.7245Z" fill="white"/>
<path d="M34.7078 19.728C34.6672 19.728 34.6422 19.6952 34.6328 19.6295C34.5984 19.3356 34.5718 19.1074 34.5531 18.9448C34.5343 18.7822 34.5202 18.6602 34.5108 18.5789C34.5046 18.4976 34.4999 18.446 34.4968 18.4241C34.4968 18.3991 34.4968 18.3819 34.4968 18.3725C34.4968 18.3382 34.5124 18.3006 34.5437 18.26C34.5749 18.2193 34.6125 18.199 34.6562 18.199C34.6875 18.199 34.7203 18.2178 34.7547 18.2553C34.7923 18.2928 34.8267 18.3366 34.8579 18.3866C34.8923 18.4366 34.9205 18.4867 34.9423 18.5367C34.9674 18.5867 34.983 18.6227 34.9893 18.6446C35.0705 18.8166 35.1581 18.962 35.2519 19.0808C35.3488 19.1965 35.4583 19.2903 35.5802 19.3622C35.7022 19.431 35.8398 19.481 35.993 19.5123C36.1462 19.5436 36.3213 19.5592 36.5183 19.5592C36.8529 19.5592 37.1124 19.4795 37.2969 19.32C37.4845 19.1605 37.5783 18.9041 37.5783 18.5508C37.5783 18.3475 37.5329 18.163 37.4423 17.9973C37.3547 17.8316 37.239 17.6784 37.0952 17.5377C36.9514 17.3938 36.7872 17.2578 36.6027 17.1296C36.4182 17.0014 36.229 16.8717 36.0352 16.7403C35.8413 16.609 35.6521 16.473 35.4677 16.3323C35.2832 16.1884 35.119 16.0305 34.9752 15.8586C34.8313 15.6866 34.7141 15.4958 34.6234 15.2863C34.5359 15.0768 34.4921 14.8408 34.4921 14.5781C34.4921 14.4186 34.5202 14.2701 34.5765 14.1325C34.6359 13.9949 34.7141 13.8699 34.811 13.7573C34.908 13.6447 35.0205 13.5447 35.1487 13.4571C35.28 13.3665 35.4192 13.2914 35.5662 13.232C35.7131 13.1695 35.8616 13.1226 36.0117 13.0913C36.1649 13.06 36.3135 13.0444 36.4573 13.0444C36.573 13.0444 36.6887 13.0553 36.8044 13.0772C36.9232 13.096 37.0389 13.1194 37.1515 13.1476C37.2672 13.1757 37.3829 13.207 37.4986 13.2414C37.6142 13.2726 37.7284 13.3024 37.8409 13.3305L38.1505 13.3024C38.1786 13.3024 38.1958 13.3149 38.2021 13.3399C38.2115 13.3618 38.2177 13.3821 38.2209 13.4008L38.3569 14.5031C38.3569 14.5187 38.3366 14.5296 38.2959 14.5359C38.2553 14.5421 38.224 14.5453 38.2021 14.5453C38.1833 14.5453 38.1552 14.5437 38.1177 14.5406C38.0801 14.5343 38.0583 14.5281 38.052 14.5218C38.0426 14.5124 38.0301 14.4937 38.0145 14.4655C38.002 14.4343 37.9879 14.4014 37.9723 14.367C37.9566 14.3295 37.9394 14.292 37.9207 14.2545C37.905 14.217 37.8878 14.1841 37.8691 14.156C37.719 13.9246 37.5267 13.7526 37.2922 13.6401C37.0577 13.5244 36.7997 13.4665 36.5183 13.4665C36.3963 13.4665 36.2822 13.4806 36.1759 13.5087C36.0696 13.5369 35.9773 13.5822 35.8992 13.6447C35.821 13.7042 35.7585 13.7808 35.7116 13.8746C35.6678 13.9684 35.6459 14.0809 35.6459 14.2123C35.6459 14.403 35.6897 14.5765 35.7772 14.7329C35.8679 14.8861 35.9852 15.0315 36.129 15.1691C36.276 15.3035 36.4417 15.4349 36.6262 15.5631C36.8138 15.6913 37.0029 15.8226 37.1937 15.9571C37.3875 16.0884 37.5767 16.2291 37.7612 16.3792C37.9488 16.5293 38.1145 16.695 38.2584 16.8763C38.4053 17.0577 38.5226 17.2594 38.6102 17.4814C38.7008 17.7034 38.7462 17.9535 38.7462 18.2318C38.7462 18.4163 38.7133 18.5883 38.6477 18.7478C38.5851 18.9072 38.4991 19.0526 38.3897 19.184C38.2803 19.3122 38.1521 19.4263 38.0051 19.5264C37.8581 19.6264 37.7002 19.7108 37.5314 19.7796C37.3657 19.8453 37.1937 19.8953 37.0155 19.9297C36.8403 19.9641 36.6684 19.9813 36.4995 19.9813C36.2869 19.9813 36.1008 19.9657 35.9414 19.9344C35.785 19.9031 35.649 19.8687 35.5333 19.8312C35.4208 19.7906 35.3254 19.7546 35.2472 19.7233C35.169 19.6921 35.1034 19.6764 35.0502 19.6764C35.0315 19.6764 35.0174 19.678 35.008 19.6811L34.7078 19.728Z" fill="white"/>
</g>
<defs>
<linearGradient id="paint0_linear_1165_2235" x1="17.4192" y1="20.7234" x2="15.4077" y2="20.7234" gradientUnits="userSpaceOnUse">
<stop stop-color="white" stop-opacity="0"/>
<stop offset="1" stop-color="white"/>
</linearGradient>
<linearGradient id="paint1_linear_1165_2235" x1="8.91954" y1="22.4544" x2="8.91954" y2="16.1389" gradientUnits="userSpaceOnUse">
<stop stop-color="white" stop-opacity="0"/>
<stop offset="1" stop-color="white"/>
</linearGradient>
<linearGradient id="paint2_linear_1165_2235" x1="9.79081" y1="10.7135" x2="9.79081" y2="14.8801" gradientUnits="userSpaceOnUse">
<stop stop-color="#3DC5AF"/>
<stop offset="1" stop-color="white"/>
</linearGradient>
<linearGradient id="paint3_linear_1165_2235" x1="21.9335" y1="22.4076" x2="21.9335" y2="16.0921" gradientUnits="userSpaceOnUse">
<stop stop-color="white" stop-opacity="0"/>
<stop offset="1" stop-color="white"/>
</linearGradient>
<linearGradient id="paint4_linear_1165_2235" x1="21.0621" y1="10.6668" x2="21.0621" y2="14.8333" gradientUnits="userSpaceOnUse">
<stop stop-color="#3DC5AF"/>
<stop offset="1" stop-color="white"/>
</linearGradient>
<linearGradient id="paint5_linear_1165_2235" x1="15.0946" y1="22.1633" x2="21.942" y2="15.3158" gradientUnits="userSpaceOnUse">
<stop stop-color="white" stop-opacity="0"/>
<stop offset="0.46" stop-color="white"/>
<stop offset="1" stop-color="white" stop-opacity="0"/>
</linearGradient>
<clipPath id="clip0_1165_2235">
<rect width="120" height="32" fill="white"/>
</clipPath>
</defs>
</svg>
