<svg width="120" height="32" viewBox="0 0 120 32" fill="none" xmlns="http://www.w3.org/2000/svg">
<path d="M44.1188 4C47.0197 4 48.9456 5.8664 49.7988 7.56089L47.4341 8.96068C46.5322 7.61001 45.5571 6.84871 44.1188 6.84871C42.7536 6.84871 41.7785 7.65912 41.7785 8.76423C41.7785 9.8202 42.4124 10.4342 43.875 10.9744L45.0451 11.4165C48.6774 12.718 50.2619 14.3143 50.2619 16.7701C50.2619 20.11 47.1172 21.8536 44.2163 21.8536C41.1691 21.8536 38.7801 20.0363 38 17.6296L40.4621 16.3281C41.0716 17.7033 42.2173 18.9312 44.2163 18.9312C45.7277 18.9312 46.9466 18.1944 46.9466 16.8192C46.9466 15.4194 46.069 14.8055 44.1675 14.0933L43.0705 13.7004C40.5353 12.7672 38.6094 11.4902 38.6094 8.64145C38.6094 5.94007 41.0716 4 44.1188 4ZM63.9133 4.29469H67.1069V21.4852H64.6692L55.7713 10.164V21.4852H52.5778V4.29469H55.0399L63.9133 15.6404V4.29469ZM82.8548 4.29469L74.5178 18.7102H82.9523V21.4852H69.4226L77.7598 7.04518H69.886V4.29469H82.8548Z" fill="url(#paint0_linear_1147_626)"/>
<path d="M40.602 27.3892C40.6453 27.3761 40.6843 27.363 40.7146 27.3543L40.8402 27.7732C40.8099 27.7819 40.7753 27.7906 40.7363 27.8037C40.563 27.8604 40.3032 27.9476 40.026 27.9825C39.9394 27.9957 39.8571 28 39.7791 28C39.5236 28 39.3157 27.9433 39.1555 27.8255C38.9086 27.6466 38.7874 27.3456 38.7874 26.9355V26.1632C38.7874 25.7531 38.9086 25.4521 39.1555 25.2732C39.3677 25.1205 39.6579 25.0638 40.026 25.1161C40.3032 25.151 40.563 25.2383 40.7363 25.295C40.7753 25.3081 40.8099 25.3168 40.8402 25.3256L40.7146 25.7444C40.6843 25.7357 40.6453 25.7226 40.602 25.7095C40.4461 25.6571 40.2079 25.5786 39.9697 25.5481C39.7185 25.5132 39.5279 25.5393 39.411 25.6266C39.2854 25.7182 39.2204 25.9014 39.2204 26.1632V26.9355C39.2204 27.1972 39.2854 27.3805 39.411 27.4721C39.5279 27.5594 39.7185 27.5856 39.9697 27.5506C40.2079 27.5201 40.4461 27.4416 40.602 27.3892ZM43.3868 25.5306C43.586 25.7793 43.69 26.124 43.69 26.5559C43.69 26.9878 43.586 27.3325 43.3868 27.5812C43.2785 27.7164 43.1399 27.8168 42.9797 27.8866C42.8194 27.9565 42.6376 27.9914 42.434 27.9914C42.2304 27.9914 42.0485 27.9565 41.8883 27.8866C41.7281 27.8168 41.5895 27.7164 41.4812 27.5812C41.282 27.3325 41.178 26.9878 41.178 26.5559C41.178 26.124 41.282 25.7793 41.4812 25.5306C41.5895 25.3953 41.7281 25.2906 41.8883 25.2208C42.0485 25.151 42.2304 25.1161 42.434 25.1161C42.6376 25.1161 42.8194 25.151 42.9797 25.2208C43.1399 25.2906 43.2785 25.3953 43.3868 25.5306ZM43.0533 27.3063C43.1876 27.1405 43.2569 26.8788 43.2569 26.5559C43.2569 26.2287 43.1876 25.9713 43.0533 25.8055C42.9191 25.6397 42.7112 25.5524 42.434 25.5524C42.1612 25.5524 41.9532 25.6397 41.819 25.8055C41.6848 25.9713 41.6111 26.2287 41.6111 26.5559C41.6111 26.8788 41.6848 27.1405 41.819 27.3063C41.9532 27.4721 42.1612 27.555 42.434 27.555C42.7112 27.555 42.9191 27.4721 43.0533 27.3063ZM45.7905 25.1598H46.2235V27.9519H45.7385L44.5518 25.932V27.9519H44.1187V25.1598H44.3569H44.3613H44.6038L45.7905 27.1842V25.1598ZM48.454 25.1598H48.8871V27.9519H48.402L47.2153 25.932V27.9519H46.7823V25.1598H47.0204H47.0248H47.2673L48.454 27.1842V25.1598ZM49.9178 27.5114H51.0915V27.9476H49.4847V25.1598H50.9919V25.5961H49.9178V26.2418H50.9139V26.6781H49.9178V27.5114ZM53.3219 27.3892C53.3653 27.3761 53.4042 27.363 53.4345 27.3543L53.5601 27.7732C53.5298 27.7819 53.4952 27.7906 53.4562 27.8037C53.283 27.8604 53.0231 27.9476 52.7459 27.9825C52.6593 27.9957 52.577 28 52.4991 28C52.2435 28 52.0356 27.9433 51.8754 27.8255C51.6285 27.6466 51.5073 27.3456 51.5073 26.9355V26.1632C51.5073 25.7531 51.6285 25.4521 51.8754 25.2732C52.0876 25.1205 52.3778 25.0638 52.7459 25.1161C53.0231 25.151 53.283 25.2383 53.4562 25.295C53.4952 25.3081 53.5298 25.3168 53.5601 25.3256L53.4345 25.7444C53.4042 25.7357 53.3653 25.7226 53.3219 25.7095C53.166 25.6571 52.9278 25.5786 52.6896 25.5481C52.4384 25.5132 52.2479 25.5393 52.1309 25.6266C52.0053 25.7182 51.9404 25.9014 51.9404 26.1632V26.9355C51.9404 27.1972 52.0053 27.3805 52.1309 27.4721C52.2479 27.5594 52.4384 27.5856 52.6896 27.5506C52.9278 27.5201 53.166 27.4416 53.3219 27.3892ZM55.6736 25.1598V25.5961H54.998V27.9519H54.5649V25.5961H53.8936V25.1598H55.6736ZM59.0301 25.1598V25.5961H58.3545V27.9519H57.9214V25.5961H57.2501V25.1598H59.0301ZM61.5247 25.5306C61.7239 25.7793 61.8279 26.124 61.8279 26.5559C61.8279 26.9878 61.7239 27.3325 61.5247 27.5812C61.4164 27.7164 61.2778 27.8168 61.1176 27.8866C60.9574 27.9565 60.7755 27.9914 60.5719 27.9914C60.3683 27.9914 60.1865 27.9565 60.0262 27.8866C59.866 27.8168 59.7274 27.7164 59.6191 27.5812C59.4199 27.3325 59.3159 26.9878 59.3159 26.5559C59.3159 26.124 59.4199 25.7793 59.6191 25.5306C59.7274 25.3953 59.866 25.2906 60.0262 25.2208C60.1865 25.151 60.3683 25.1161 60.5719 25.1161C60.7755 25.1161 60.9574 25.151 61.1176 25.2208C61.2778 25.2906 61.4164 25.3953 61.5247 25.5306ZM61.1912 27.3063C61.3255 27.1405 61.3948 26.8788 61.3948 26.5559C61.3948 26.2287 61.3255 25.9713 61.1912 25.8055C61.057 25.6397 60.8491 25.5524 60.5719 25.5524C60.2991 25.5524 60.0912 25.6397 59.9569 25.8055C59.8227 25.9713 59.749 26.2287 59.749 26.5559C59.749 26.8788 59.8227 27.1405 59.9569 27.3063C60.0912 27.4721 60.2991 27.555 60.5719 27.555C60.8491 27.555 61.057 27.4721 61.1912 27.3063ZM64.0235 27.5114H65.1973V27.9476H63.5905V25.1598H65.0976V25.5961H64.0235V26.2418H65.0197V26.6781H64.0235V27.5114ZM65.9768 27.9519H65.5395L65.8252 25.1598H66.5356L67.0683 27.3107L67.6011 25.1598H68.3112L68.5972 27.9519H68.1596L67.9258 25.6353L67.3194 27.9519H66.817L66.2152 25.6353L65.9768 27.9519ZM70.8666 25.4128C71.0528 25.583 71.1566 25.8273 71.1566 26.089C71.1566 26.3552 71.0528 26.5952 70.8666 26.7697C70.7798 26.8482 70.6803 26.9137 70.5677 26.9573C70.4594 26.9966 70.3425 27.0184 70.2255 27.0184H69.4719V27.9519H69.0388V25.1598H70.2255C70.3425 25.1598 70.4594 25.1816 70.5677 25.2252C70.6803 25.2688 70.7798 25.3299 70.8666 25.4128ZM70.2255 26.5821C70.4637 26.5821 70.7236 26.4119 70.7236 26.089C70.7236 25.7662 70.4637 25.5961 70.2255 25.5961H69.4719V26.5821H70.2255ZM73.6644 25.5306C73.8636 25.7793 73.9676 26.124 73.9676 26.5559C73.9676 26.9878 73.8636 27.3325 73.6644 27.5812C73.5561 27.7164 73.4174 27.8168 73.2572 27.8866C73.097 27.9565 72.915 27.9914 72.7115 27.9914C72.5078 27.9914 72.3261 27.9565 72.1659 27.8866C72.0055 27.8168 71.867 27.7164 71.7587 27.5812C71.5595 27.3325 71.4555 26.9878 71.4555 26.5559C71.4555 26.124 71.5595 25.7793 71.7587 25.5306C71.867 25.3953 72.0055 25.2906 72.1659 25.2208C72.3261 25.151 72.5078 25.1161 72.7115 25.1161C72.915 25.1161 73.097 25.151 73.2572 25.2208C73.4174 25.2906 73.5561 25.3953 73.6644 25.5306ZM73.3308 27.3063C73.465 27.1405 73.5343 26.8788 73.5343 26.5559C73.5343 26.2287 73.465 25.9713 73.3308 25.8055C73.1964 25.6397 72.9887 25.5524 72.7115 25.5524C72.4387 25.5524 72.2307 25.6397 72.0965 25.8055C71.9622 25.9713 71.8885 26.2287 71.8885 26.5559C71.8885 26.8788 71.9622 27.1405 72.0965 27.3063C72.2307 27.4721 72.4387 27.555 72.7115 27.555C72.9887 27.555 73.1964 27.4721 73.3308 27.3063ZM77.3067 25.1641H77.744C77.7656 25.5132 77.7311 25.8622 77.6443 26.2243C77.5406 26.6388 77.3847 26.9966 77.246 27.3107C77.142 27.555 77.0468 27.7688 77.0035 27.9519H76.4187C76.3797 27.7775 76.3149 27.5725 76.2412 27.3369C76.1676 27.1013 76.0897 26.8438 76.016 26.5646C75.9424 26.8613 75.8558 27.1274 75.7779 27.3718C75.7085 27.5943 75.6435 27.7862 75.6045 27.9519H75.0328C74.9852 27.7688 74.8944 27.555 74.786 27.3107C74.6474 26.9966 74.4915 26.6388 74.392 26.2243C74.3009 25.8622 74.2662 25.5132 74.288 25.1641H74.7253C74.6691 25.9582 74.9505 26.6039 75.1844 27.1362C75.2277 27.2365 75.2666 27.3281 75.3056 27.4241C75.3231 27.363 75.3446 27.3019 75.3664 27.2365C75.5483 26.6693 75.769 25.9756 75.7951 25.1641H76.2326C76.2585 25.932 76.4794 26.6344 76.6571 27.206C76.6786 27.2845 76.7046 27.3587 76.7262 27.4285C76.7651 27.3325 76.8041 27.2365 76.8519 27.1362C77.0815 26.6039 77.3672 25.9582 77.3067 25.1641ZM78.6622 27.5114H79.8358V27.9476H78.2292V25.1598H79.7363V25.5961H78.6622V26.2418H79.6583V26.6781H78.6622V27.5114ZM81.9234 27.9519C81.906 27.5594 81.6592 27.3151 81.3041 27.0184H80.7064V27.9519H80.2733V25.1641H80.5722H80.7064H81.46C81.5812 25.1641 81.6939 25.1859 81.8065 25.2252C81.9148 25.2688 82.0186 25.3343 82.1008 25.4128C82.2871 25.5873 82.3911 25.8273 82.3911 26.089C82.3911 26.3552 82.2871 26.5952 82.1008 26.7653C82.0317 26.8351 81.9492 26.8875 81.8627 26.9311C81.9363 27.0053 82.0057 27.0795 82.0707 27.1667C82.2524 27.4023 82.3435 27.6553 82.3564 27.9345V27.9519H81.9234ZM80.7064 26.5821H81.46C81.7025 26.5821 81.9581 26.4076 81.9581 26.089C81.9581 25.7706 81.7025 25.6004 81.46 25.6004H80.7064V26.5821Z" fill="url(#paint1_linear_1147_626)"/>
<defs>
<linearGradient id="paint0_linear_1147_626" x1="38" y1="4" x2="82.9523" y2="4" gradientUnits="userSpaceOnUse">
<stop stop-color="#B88746"/>
<stop offset="1" stop-color="#FDF5A6"/>
</linearGradient>
<linearGradient id="paint1_linear_1147_626" x1="38.7874" y1="25.0971" x2="82.3911" y2="25.0971" gradientUnits="userSpaceOnUse">
<stop stop-color="#B88746"/>
<stop offset="1" stop-color="#FDF5A6"/>
</linearGradient>
</defs>
</svg>
