<svg width="120" height="32" viewBox="0 0 120 32" fill="none" xmlns="http://www.w3.org/2000/svg">
<path fill-rule="evenodd" clip-rule="evenodd" d="M3 16C3 23.1798 8.82022 29 16 29C23.1798 29 29.0004 23.1798 29.0004 16C29.0004 8.82022 23.1798 3 16 3C8.82022 3 3 8.82022 3 16Z" fill="#3939E6"/>
<path fill-rule="evenodd" clip-rule="evenodd" d="M10.2656 12.9375L10.5865 11.946C10.6517 11.7444 10.8109 11.5875 11.0133 11.5256L12.0096 11.2192C12.1475 11.1771 12.1486 10.9825 12.0118 10.9382L11.02 10.6173C10.8187 10.552 10.6618 10.3929 10.5996 10.1905L10.2936 9.19419C10.2515 9.05665 10.0569 9.05515 10.0125 9.19237L9.69163 10.1838C9.62643 10.3851 9.46725 10.542 9.26486 10.6042L8.26857 10.9103C8.13067 10.9527 8.12918 11.1469 8.26633 11.1912L9.25815 11.5122C9.45942 11.5774 9.61636 11.7369 9.67856 11.9393L9.98458 12.9352C10.0267 13.0731 10.2212 13.0746 10.2656 12.9375Z" fill="#FAFAFA"/>
<path fill-rule="evenodd" clip-rule="evenodd" d="M26.0131 12.3605C25.6023 11.9012 24.9613 11.6426 24.3381 11.5366C23.7099 11.4347 23.0513 11.4442 22.4312 11.5543C21.1764 11.7666 20.0365 12.2862 19.0423 12.9271C18.526 13.2417 18.0857 13.6056 17.6296 13.9763C17.4098 14.1638 17.2094 14.3634 17.0007 14.5602L16.4304 15.1276C15.8109 15.7752 15.2001 16.3651 14.6092 16.8541C14.0159 17.3408 13.4612 17.7104 12.9146 17.9686C12.3683 18.2281 11.7838 18.3806 11.0219 18.4051C10.2667 18.4317 9.37322 18.2954 8.4175 18.0704C7.45663 17.8465 6.44763 17.5272 5.32008 17.2525C5.71351 18.344 6.30596 19.3085 7.0666 20.1902C7.83616 21.0565 8.79711 21.8462 10.0316 22.3656C11.2482 22.8964 12.7771 23.087 14.2067 22.7995C15.6401 22.5236 16.898 21.8603 17.9147 21.0932C18.934 20.3183 19.7588 19.4355 20.454 18.5178C20.6459 18.2643 20.7475 18.1224 20.8864 17.9242L21.2702 17.3556C21.537 17.0038 21.7799 16.6033 22.0439 16.2549C22.5616 15.525 23.072 14.796 23.6651 14.1244C23.9637 13.7837 24.2783 13.4579 24.6499 13.1448C24.8353 12.9919 25.0356 12.8423 25.2574 12.7076C25.4825 12.5622 25.7203 12.4485 26.0131 12.3605Z" fill="url(#paint0_linear_1148_1460)"/>
<path fill-rule="evenodd" clip-rule="evenodd" d="M26.0131 12.3602C25.5718 11.2467 24.7516 10.3095 23.6506 9.61791C22.5562 8.93393 21.0363 8.58486 19.5301 8.88243C18.7861 9.02634 18.0652 9.30337 17.4326 9.67231C16.8029 10.0398 16.2385 10.4821 15.7501 10.9568C15.5062 11.1948 15.2848 11.4432 15.0649 11.693L14.4949 12.4197L13.6145 13.5895C12.4921 15.0946 11.2835 16.8585 9.30017 17.3812C7.35304 17.8943 6.50853 17.4399 5.32015 17.2522C5.53744 17.8132 5.80661 18.3579 6.1715 18.8372C6.5296 19.3262 6.95257 19.7855 7.47844 20.1792C7.74419 20.3683 8.02476 20.5549 8.33638 20.7131C8.64657 20.8661 8.9811 21.0006 9.33816 21.102C10.0484 21.2966 10.848 21.3648 11.6222 21.2601C12.3968 21.1568 13.1371 20.9113 13.7843 20.5853C14.4362 20.2624 15.0041 19.8691 15.5111 19.454C16.5192 18.617 17.3032 17.692 17.9655 16.757C18.2987 16.2896 18.601 15.8133 18.8807 15.3369L19.2099 14.7698C19.3105 14.604 19.4123 14.4372 19.5157 14.2818C19.9328 13.6577 20.3407 13.1572 20.8362 12.7815C21.3249 12.3961 22.0052 12.1114 22.9144 12.0453C23.8199 11.9784 24.8652 12.102 26.0131 12.3602Z" fill="#FAFAFA"/>
<path fill-rule="evenodd" clip-rule="evenodd" d="M21.1146 21.6111C21.1146 22.4288 21.7778 23.0921 22.5956 23.0921C23.4134 23.0921 24.0758 22.4288 24.0758 21.6111C24.0758 20.7933 23.4134 20.1301 22.5956 20.1301C21.7778 20.1301 21.1146 20.7933 21.1146 21.6111Z" fill="#EC796B"/>
<path d="M116.617 12.3651V10.8696C116.617 10.8103 116.569 10.7623 116.51 10.7623H107.989C107.929 10.7623 107.881 10.8103 107.881 10.8696V12.3651H111.344V22.0395H113.154V12.3651H116.617Z" fill="#3939E6"/>
<path d="M98.9761 10.7623C98.917 10.7623 98.8689 10.8103 98.8689 10.8696V21.9321C98.8689 21.9914 98.917 22.0395 98.9761 22.0395H106.147C106.206 22.0395 106.254 21.9914 106.254 21.9321V20.4526H100.678V16.9084H105.285V15.3532H100.678V12.3492H105.857V10.8696C105.857 10.8103 105.809 10.7623 105.75 10.7623H98.9761Z" fill="#3939E6"/>
<path d="M94.8181 21.9739L94.8571 22.0395H96.2468C96.3066 22.0395 96.354 21.9914 96.354 21.9321V10.8696C96.354 10.8103 96.3066 10.7623 96.2468 10.7623H94.5769V18.5724C94.287 18.1107 93.9503 17.6026 93.5668 17.0479C93.0787 16.3262 92.5535 15.5939 91.9912 14.8513C91.4394 14.0981 90.8771 13.3713 90.3038 12.671C89.7409 11.9595 89.2092 11.3372 88.7087 10.8045L88.6691 10.7623H87.3606C87.3015 10.7623 87.2534 10.8103 87.2534 10.8696V21.9321C87.2534 21.9914 87.3015 22.0395 87.3606 22.0395H89.0311V13.6729C89.2593 13.9425 89.5024 14.2414 89.7604 14.5696C90.1088 15.013 90.4676 15.4882 90.8375 15.9954L90.8381 15.996C91.208 16.4922 91.5778 17.0103 91.9477 17.5491V17.5498L91.9483 17.5506C92.3292 18.0896 92.6932 18.6233 93.0422 19.1516L93.0429 19.1526C93.3913 19.67 93.713 20.1713 94.0088 20.6566V20.6575L94.0095 20.6583C94.3163 21.1448 94.586 21.5833 94.8181 21.9739Z" fill="#3939E6"/>
<path d="M85.0681 10.9869L85.109 10.9419C85.1721 10.873 85.1227 10.7623 85.0297 10.7623H83.0485L83.0089 10.8088C82.7456 11.1139 82.4187 11.4723 82.028 11.8843C81.6471 12.2863 81.2396 12.7094 80.806 13.1538C80.3725 13.598 79.9337 14.0423 79.4891 14.4865C79.1336 14.8334 78.8021 15.1531 78.4946 15.4457V10.7623H76.7923C76.7331 10.7623 76.685 10.8103 76.685 10.8696V21.9321C76.685 21.9914 76.7331 22.0395 76.7923 22.0395H78.4946V16.9235C78.8684 17.1681 79.2499 17.4543 79.6399 17.7824L79.6406 17.7829L79.6412 17.7833C80.1138 18.172 80.5766 18.5975 81.0283 19.0602L81.0296 19.0614L81.0309 19.0624C81.4931 19.5142 81.9292 19.9923 82.3387 20.4967L82.3394 20.4972L82.34 20.4977C82.7495 20.9916 83.1116 21.4849 83.4262 21.9775L83.4658 22.0395H85.3963C85.4789 22.0395 85.5309 21.9503 85.4893 21.8786L85.4665 21.8385C85.1766 21.3341 84.8133 20.8047 84.3758 20.2502C83.9501 19.6965 83.4918 19.1535 83.0024 18.6214C82.5129 18.0892 82.0124 17.5888 81.5009 17.1201C81.0381 16.6956 80.5954 16.3311 80.1736 16.0272C80.5324 15.6771 80.9126 15.301 81.315 14.8993C81.7596 14.4541 82.2048 14.0036 82.6501 13.5479C83.1057 13.0815 83.5406 12.631 83.954 12.1962L83.9546 12.1957L83.9553 12.1951C84.3687 11.7501 84.7392 11.3473 85.0681 10.9869Z" fill="#3939E6"/>
<path fill-rule="evenodd" clip-rule="evenodd" d="M66.4147 10.6777C66.3555 10.6777 66.3074 10.7258 66.3074 10.7851V21.9389C66.3074 21.9982 66.3555 22.0462 66.4148 22.0462H67.9479V17.9454H70.1876C70.4398 18.2471 70.6855 18.5627 70.9247 18.8923L70.926 18.8935L70.9267 18.8948C71.3186 19.4088 71.6807 19.9449 72.0135 20.5033L72.0141 20.5039C72.3151 20.998 72.5783 21.4868 72.8026 21.9688L72.839 22.0463H74.6531C74.7311 22.0463 74.7825 21.9662 74.7506 21.8954C74.542 21.4382 74.3158 20.9905 74.0649 20.5544C73.723 19.9448 73.3492 19.3413 72.9417 18.7439C72.709 18.4025 72.4711 18.0708 72.228 17.749C72.9053 17.5421 73.4402 17.1679 73.8276 16.6249L73.8283 16.6245C74.293 15.9672 74.5231 15.1943 74.5231 14.3115C74.5231 13.7049 74.4178 13.1498 74.2046 12.6482C73.9901 12.1393 73.6677 11.7173 73.2381 11.3844C72.8117 11.0497 72.2865 10.8367 71.667 10.7412C71.5227 10.7146 71.3739 10.6987 71.2198 10.6933C71.0703 10.6829 70.939 10.6777 70.8279 10.6777C70.3573 10.6777 69.8867 10.6776 69.4167 10.6775C68.4157 10.6775 67.4154 10.6774 66.4147 10.6777ZM72.852 14.3115C72.852 14.6045 72.8032 14.8929 72.7051 15.177C72.6095 15.45 72.4561 15.6892 72.2449 15.8959C72.0447 16.0917 71.7801 16.2306 71.4454 16.3082C71.3394 16.3323 71.225 16.3494 71.1022 16.3593C70.9819 16.3693 70.8747 16.3742 70.7817 16.3742H67.9479V12.2488H70.7817C70.8747 12.2488 70.9813 12.2537 71.1015 12.2637L71.1048 12.264L71.1074 12.2641C71.227 12.2689 71.3375 12.2855 71.4402 12.3135L71.4434 12.3144L71.4467 12.3151C71.7801 12.3876 72.044 12.5259 72.2436 12.726L72.2442 12.7265L72.2449 12.7271C72.4561 12.9334 72.6089 13.1751 72.7051 13.4534V13.4541C72.8032 13.7328 72.852 14.0184 72.852 14.3115Z" fill="#3939E6"/>
<path fill-rule="evenodd" clip-rule="evenodd" d="M62.2824 20.5507L62.2828 20.5515C62.442 21.0081 62.6119 21.4751 62.7922 21.9527L62.8251 22.0395H64.64C64.7145 22.0395 64.7663 21.9655 64.7409 21.8955C64.3444 20.8062 63.9442 19.7184 63.536 18.6335C63.165 17.6373 62.7993 16.6938 62.4388 15.8032C62.0889 14.9125 61.7389 14.0641 61.3889 13.2579C61.0377 12.4385 60.6682 11.6272 60.2832 10.8232C60.2654 10.7859 60.2277 10.7623 60.1864 10.7623H58.7388C58.6976 10.7623 58.6599 10.7859 58.642 10.8232C58.2571 11.6272 57.8876 12.4385 57.5364 13.258C57.1864 14.0638 56.8313 14.912 56.4708 15.8025L56.4703 15.8037C56.1206 16.6941 55.7602 17.6373 55.3893 18.6335C54.9811 19.7183 54.5808 20.8062 54.1844 21.8955C54.1589 21.9655 54.2107 22.0395 54.2853 22.0395H56.0227L56.0567 22.0394L56.0966 21.9967C56.5157 21.5467 56.9842 21.1051 57.5021 20.672L57.5027 20.6715L57.5032 20.6711C58.0232 20.2271 58.5653 19.8153 59.1297 19.4358L59.1309 19.4348L59.1322 19.434C59.6881 19.0412 60.2475 18.6888 60.8105 18.3765L60.8112 18.3762L60.8118 18.3758C61.0145 18.2604 61.2142 18.1529 61.4107 18.0533L61.7904 19.1381L61.7907 19.139C61.9599 19.6148 62.1238 20.0854 62.2824 20.5507ZM60.33 15.2013L60.3303 15.2022L60.3307 15.2031C60.4836 15.5902 60.6364 15.9836 60.7893 16.3836C60.7779 16.3886 60.7662 16.3939 60.7544 16.3993C60.2164 16.6443 59.6382 16.961 59.0199 17.3488C58.4279 17.7201 57.8407 18.1234 57.2582 18.5588L57.5048 17.8544C57.8312 16.9388 58.1575 16.0548 58.4838 15.2022C58.7838 14.4334 59.0963 13.6938 59.4211 12.9836C59.7365 13.6935 60.0394 14.4328 60.33 15.2013Z" fill="#3939E6"/>
<path d="M54.627 12.3651V10.8696C54.627 10.8103 54.5789 10.7623 54.5196 10.7623H45.9989C45.9396 10.7623 45.8915 10.8103 45.8915 10.8696V12.3651H49.3546V21.9321C49.3546 21.9914 49.4027 22.0395 49.4619 22.0395H51.0566C51.1159 22.0395 51.1639 21.9914 51.1639 21.9321V12.3651H54.627Z" fill="#3939E6"/>
<path d="M38.0731 21.9023C37.4168 21.6225 36.8706 21.223 36.4378 20.7037L36.4372 20.703C36.0087 20.1769 35.7302 19.5564 35.6009 18.8456C35.5944 18.81 35.6026 18.7734 35.6236 18.7439C35.6444 18.7144 35.6764 18.6947 35.7121 18.689L37.1553 18.4616C37.2237 18.4508 37.2889 18.4937 37.3062 18.5607C37.4816 19.2422 37.8426 19.7711 38.39 20.1545C38.9454 20.5346 39.6005 20.7268 40.3608 20.7268C40.854 20.7268 41.2947 20.6506 41.6848 20.5006C42.0795 20.3457 42.3858 20.1283 42.6095 19.8511C42.8295 19.5785 42.9405 19.2558 42.9405 18.8765C42.9405 18.641 42.8988 18.4482 42.8214 18.2933L42.8194 18.2891C42.7439 18.124 42.6385 17.9862 42.5029 17.8739L42.4991 17.8706C42.3628 17.749 42.2064 17.6461 42.0291 17.5624C41.8478 17.4768 41.6586 17.4062 41.4617 17.3506L41.46 17.3501L38.5809 16.495C38.2605 16.3989 37.9506 16.2787 37.6513 16.1344L37.6505 16.134L37.6496 16.1335C37.3457 15.9816 37.0736 15.794 36.8337 15.5704L36.8329 15.5697C36.5897 15.3376 36.3965 15.0612 36.2537 14.7428L36.2533 14.742C36.1083 14.4129 36.038 14.0302 36.038 13.5976C36.038 12.9041 36.2173 12.3052 36.5817 11.8083C36.9477 11.3111 37.4413 10.9331 38.0575 10.6737C38.6729 10.4146 39.3633 10.2892 40.1264 10.2945C40.9 10.2999 41.5958 10.4386 42.2112 10.7138C42.8313 10.9835 43.3457 11.373 43.7519 11.882C44.1643 12.3921 44.4393 13.0009 44.5791 13.7048C44.5861 13.7403 44.5785 13.777 44.5581 13.8069C44.5377 13.8366 44.5061 13.8569 44.4705 13.8631L42.9881 14.122C42.9529 14.1282 42.9167 14.12 42.8876 14.0994C42.8584 14.0789 42.8387 14.0476 42.8326 14.0123C42.7578 13.5731 42.5916 13.2005 42.3359 12.8908L42.3345 12.889C42.0817 12.5718 41.7646 12.3288 41.3812 12.1594L41.3799 12.1588C40.9957 11.9842 40.5724 11.8936 40.1084 11.8885C39.6634 11.8834 39.2658 11.9542 38.9134 12.0982C38.5599 12.2426 38.2841 12.4418 38.0807 12.6936L38.0799 12.6946C37.8804 12.9369 37.781 13.2152 37.781 13.5348C37.781 13.8523 37.8715 14.0972 38.0428 14.2823C38.2277 14.4768 38.455 14.6338 38.7267 14.7525C39.0148 14.8708 39.2946 14.9683 39.5659 15.0451L41.715 15.6648C41.9655 15.734 42.2515 15.8295 42.5727 15.9506C42.9089 16.0753 43.233 16.2511 43.545 16.477C43.8663 16.7042 44.13 17.0076 44.3373 17.3837C44.5502 17.7649 44.6522 18.2388 44.6522 18.7981C44.6522 19.3601 44.5386 19.8653 44.308 20.3104C44.0841 20.7526 43.7698 21.124 43.3666 21.4236L43.3656 21.4243C42.9647 21.7168 42.5006 21.9377 41.9749 22.0879C41.4491 22.2435 40.8873 22.3208 40.2902 22.3208C39.4748 22.3208 38.735 22.1822 38.0731 21.9023Z" fill="#3939E6"/>
<defs>
<linearGradient id="paint0_linear_1148_1460" x1="25.9024" y1="11.9698" x2="-7.91499" y2="29.5643" gradientUnits="userSpaceOnUse">
<stop stop-color="#EC796B"/>
<stop offset="1" stop-color="#D672EF"/>
</linearGradient>
</defs>
</svg>
