<svg width="120" height="32" viewBox="0 0 120 32" fill="none" xmlns="http://www.w3.org/2000/svg">
<path d="M20.0001 21.9611C18.8001 21.9611 17.9001 21.6611 17.1001 21.1611C16.4001 20.6611 16.1001 19.8611 16.1001 18.9611H18.1001C18.1001 19.3611 18.2001 19.6611 18.6001 19.9611C18.9001 20.1611 19.4001 20.2611 20.0001 20.2611H20.9001C21.4265 20.2617 21.9439 20.1238 22.4001 19.8611C22.7001 19.5611 22.9001 19.1611 22.9001 18.7611C22.9001 18.2611 22.7001 17.9611 22.4001 17.6611C22.012 17.3948 21.5667 17.2235 21.1001 17.1611L19.6001 16.8611C17.4001 16.5611 16.3001 15.4611 16.3001 13.7611C16.2761 13.3117 16.3535 12.8626 16.5266 12.4472C16.6997 12.0317 16.9641 11.6605 17.3001 11.3611C17.9001 10.8611 18.9001 10.5611 20.1001 10.5611H20.9001C22.0001 10.5611 22.9001 10.8611 23.7001 11.3611C24.3001 11.8611 24.7001 12.5611 24.7001 13.3611H22.7001C22.7001 13.0611 22.5001 12.7611 22.2001 12.5611C21.9001 12.3611 21.4001 12.2611 20.9001 12.2611H20.0001C19.4001 12.2611 19.0001 12.4611 18.6001 12.6611C18.3001 12.9611 18.1001 13.2611 18.1001 13.6611C18.1001 14.4611 18.7001 14.9611 19.8001 15.1611L21.3001 15.3611C22.3001 15.3611 23.1001 15.7611 23.9001 16.3611C24.5001 16.9611 24.7001 17.6611 24.7001 18.6611C24.7241 19.1106 24.6467 19.5596 24.4736 19.9751C24.3005 20.3905 24.0361 20.7617 23.7001 21.0611C23.0001 21.6611 22.0001 21.9611 20.7001 21.9611H20.0001ZM31.5001 21.9611C30.2001 21.9611 29.2001 21.5611 28.4001 20.8611C27.6001 20.0611 27.1001 18.8611 27.2001 17.7611V10.7611H29.2001V17.7611C29.2001 18.5611 29.4001 19.1611 29.8001 19.5611C30.0231 19.7849 30.288 19.9624 30.5797 20.0835C30.8715 20.2047 31.1842 20.267 31.5001 20.267C31.816 20.267 32.1287 20.2047 32.4205 20.0835C32.7122 19.9624 32.9771 19.7849 33.2001 19.5611C33.6001 19.1611 33.8001 18.5611 33.8001 17.7611V10.7611H35.8001V17.7611C35.8001 19.0611 35.4001 20.0611 34.6001 20.7611C33.9001 21.5611 32.8001 21.9611 31.5001 21.9611ZM42.0001 21.9611C40.9001 21.9611 40.0001 21.5611 39.3001 20.8611C38.7001 20.1611 38.3001 19.0611 38.3001 17.8611V14.6611C38.3001 13.5793 38.651 12.5266 39.3001 11.6611C40.0001 10.9611 40.9001 10.5611 42.0001 10.5611C42.7171 10.5152 43.4268 10.7281 44.0001 11.1611C44.5001 11.5611 44.8001 12.1611 45.0001 12.8611V7.16113H47.0001V21.7611H45.0001V19.7611C44.8001 20.3611 44.5001 20.9611 44.0001 21.3611C43.5001 21.7611 42.8001 21.9611 42.0001 21.9611ZM42.7001 20.2611C43.4001 20.2611 43.9001 20.0611 44.4001 19.5611C44.8001 19.1611 45.0001 18.5611 45.0001 17.7611V14.7611C45.0001 13.9611 44.8001 13.3611 44.4001 12.9611C43.9001 12.4611 43.4001 12.2611 42.7001 12.2611C41.9001 12.2611 41.4001 12.4611 40.9001 12.9611C40.5001 13.3611 40.3001 13.9611 40.3001 14.7611V17.7611C40.3001 18.5611 40.5001 19.1611 40.9001 19.5611C41.4001 20.0611 41.9001 20.2611 42.7001 20.2611ZM53.9001 21.9611C52.6001 21.9611 51.5001 21.5611 50.7001 20.7611C50.3073 20.3684 49.9984 19.9 49.7921 19.3843C49.5858 18.8686 49.4865 18.3164 49.5001 17.7611V14.7611C49.4805 14.2051 49.5771 13.6511 49.7837 13.1346C49.9903 12.618 50.3024 12.1502 50.7001 11.7611C51.5001 10.9611 52.6001 10.5611 53.9001 10.5611C55.3001 10.5611 56.3001 10.9611 57.1001 11.7611C57.4978 12.1502 57.8099 12.618 58.0165 13.1346C58.2231 13.6511 58.3197 14.2051 58.3001 14.7611V17.7611C58.3197 18.3171 58.2231 18.8711 58.0165 19.3877C57.8099 19.9043 57.4978 20.372 57.1001 20.7611C56.3001 21.5611 55.3001 21.9611 53.9001 21.9611ZM53.9001 20.1611C54.7001 20.1611 55.2001 19.9611 55.7001 19.5611C56.1001 19.1611 56.3001 18.5611 56.3001 17.6611V14.8611C56.3001 13.9611 56.1001 13.3611 55.7001 12.9611C55.2001 12.5611 54.7001 12.3611 53.9001 12.3611C53.2001 12.3611 52.6001 12.5611 52.1001 12.9611C51.7001 13.3611 51.5001 13.9611 51.5001 14.8611V17.6611C51.5001 18.5611 51.7001 19.1611 52.1001 19.5611C52.6001 19.9611 53.1001 20.1611 53.9001 20.1611ZM64.7001 21.9611C63.6001 21.9611 62.7001 21.6611 61.9001 21.1611C61.5494 20.9137 61.2654 20.5833 61.0735 20.1994C60.8816 19.8156 60.7876 19.3901 60.8001 18.9611H62.8001C62.8001 19.3611 63.0001 19.6611 63.3001 19.9611C63.7001 20.1611 64.2001 20.2611 64.8001 20.2611H65.6001C66.3001 20.2611 66.8001 20.0611 67.2001 19.8611C67.5001 19.5611 67.7001 19.1611 67.7001 18.7611C67.7001 18.2611 67.5001 17.9611 67.2001 17.6611C66.7828 17.3796 66.3013 17.2077 65.8001 17.1611L64.3001 16.8611C62.1001 16.5611 61.0001 15.4611 61.0001 13.7611C61.0001 12.7611 61.4001 11.9611 62.0001 11.3611C62.8617 10.8031 63.8742 10.5238 64.9001 10.5611H65.7001C66.8001 10.5611 67.7001 10.8611 68.4001 11.3611C69.1001 11.8611 69.4001 12.5611 69.4001 13.3611H67.4001C67.4001 13.0611 67.3001 12.7611 66.9001 12.5611C66.6001 12.3611 66.2001 12.2611 65.6001 12.2611H65.0001C64.3001 12.2611 63.9001 12.4611 63.6001 12.6611C63.2001 12.9611 63.1001 13.2611 63.1001 13.6611C63.1001 14.4611 63.6001 14.9611 64.7001 15.1611L66.2001 15.3611C67.2001 15.3611 68.2001 15.7611 68.9001 16.3611C69.4001 16.9611 69.7001 17.6611 69.7001 18.6611C69.7241 19.1106 69.6467 19.5596 69.4736 19.9751C69.3005 20.3905 69.0361 20.7617 68.7001 21.0611C68.0001 21.6611 67.0001 21.9611 65.7001 21.9611H64.8001H64.7001ZM72.7001 21.7611L70.9001 10.7611H72.6001L73.6001 18.2611L73.9001 20.2611L74.2001 18.2611L75.4001 10.7611H77.2001L78.4001 18.2611L78.7001 20.2611L79.0001 18.2611L80.0001 10.7611H81.7001L79.9001 21.7611H77.7001L76.6001 14.3611L76.3001 12.3611C76.3001 13.0611 76.1001 13.6611 76.0001 14.3611L74.8001 21.7611H72.7001ZM86.5001 21.9611C85.5001 21.9611 84.5001 21.6611 83.7001 21.0611C83.1001 20.4611 82.7001 19.6611 82.7001 18.6611C82.6761 18.2117 82.7535 17.7626 82.9266 17.3472C83.0997 16.9317 83.3641 16.5605 83.7001 16.2611C84.5001 15.6611 85.4001 15.2611 86.6001 15.2611H89.8001V14.2611C89.8099 13.9831 89.7616 13.7061 89.6583 13.4479C89.555 13.1896 89.3989 12.9557 89.2001 12.7611C88.8001 12.4611 88.2001 12.2611 87.6001 12.2611C86.9001 12.2611 86.4001 12.3611 86.0001 12.6611C85.6001 12.9611 85.3001 13.2611 85.2001 13.6611H83.2001C83.3001 13.0611 83.6001 12.5611 83.9001 12.0611C84.3001 11.5611 84.9001 11.2611 85.5001 10.9611C86.1001 10.6611 86.8001 10.5611 87.5001 10.5611C88.9001 10.5611 89.9001 10.8611 90.6001 11.5611C91.4001 12.2611 91.8001 13.0611 91.8001 14.2611V21.7611H89.8001V19.7611C89.8001 20.4611 89.4001 20.9611 88.8001 21.3611C88.1119 21.7896 87.3099 21.9988 86.5001 21.9611ZM87.0001 20.4611C87.8001 20.4611 88.5001 20.2611 89.0001 19.8611C89.5001 19.3611 89.8001 18.8611 89.8001 18.2611V16.7611H86.6001C86.0865 16.7417 85.5852 16.9208 85.2001 17.2611C84.9001 17.5611 84.7001 17.9611 84.7001 18.5611C84.7001 19.1611 84.9001 19.5611 85.3001 19.9611C85.7001 20.2611 86.3001 20.4611 87.0001 20.4611ZM94.5001 25.3611V10.7611H96.5001V12.7611C96.5001 12.1611 96.9001 11.5611 97.5001 11.1611C98.0734 10.7281 98.7831 10.5152 99.5001 10.5611C100.5 10.5611 101.5 10.9611 102.1 11.6611C102.749 12.5266 103.1 13.5793 103.1 14.6611V17.8611C103.1 19.0611 102.7 20.1611 102.1 20.8611C101.4 21.5611 100.5 21.9611 99.4001 21.9611C98.6001 21.9611 98.0001 21.7611 97.4001 21.3611C96.9001 20.9611 96.6001 20.3611 96.4001 19.6611V25.3611H94.4001H94.5001ZM98.8001 20.2611C99.5001 20.2611 100.1 20.0611 100.5 19.5611C100.9 19.1611 101.1 18.5611 101.1 17.7611V14.7611C101.1 13.9611 100.9 13.3611 100.5 12.9611C100.1 12.4611 99.5001 12.2611 98.8001 12.2611C98.0001 12.2611 97.5001 12.4611 97.1001 12.9611C96.6001 13.3611 96.4001 13.9611 96.4001 14.7611V17.7611C96.4001 18.5611 96.6001 19.1611 97.1001 19.5611C97.5001 20.0611 98.1001 20.2611 98.8001 20.2611Z" fill="#B9B9FF"/>
<path d="M6 7H8.3L11 14.5L8.2 22H6L8.8 14.5L6 7Z" fill="#B9B9FF"/>
<path d="M113.113 7H110.813L108.113 14.5L110.913 22H113.113L110.313 14.5L113.113 7Z" fill="#B9B9FF"/>
</svg>
