<svg width="120" height="32" viewBox="0 0 120 32" fill="none" xmlns="http://www.w3.org/2000/svg">
<path d="M22.7694 10.8211L18.3709 12.1562C18.2223 12.2057 18.0638 12.0969 18.044 11.9387L17.5586 7.78492L17.4694 6.98384L17.1524 4.22458C17.1227 3.94767 16.7264 3.918 16.6472 4.18502L15.8844 6.97395L15.6665 7.77503L13.2592 16.6462C13.1998 16.8638 13.4375 17.0517 13.6356 16.933L22.9774 11.276C23.235 11.1277 23.0566 10.7321 22.7694 10.8211Z" fill="#FF2E00"/>
<path d="M13.6257 19.5042L18.0241 18.1691C18.1727 18.1196 18.3312 18.2284 18.351 18.3866L18.8364 22.5403L18.9256 23.3414L19.2426 26.1007C19.2723 26.3776 19.6686 26.4073 19.7478 26.1403L20.5106 23.3513L20.7286 22.5503L23.1358 13.6791C23.1953 13.4615 22.9576 13.2736 22.7594 13.3922L13.4176 19.0492C13.1601 19.1976 13.3384 19.5932 13.6257 19.5042Z" fill="#FF2E00"/>
<path d="M12.8035 22.5406C11.694 22.5406 10.8024 21.6505 10.8024 20.5429V9.78273C10.8024 8.67505 11.694 7.78496 12.8035 7.78496H13.3682C13.5465 7.78496 13.705 7.66629 13.7545 7.48827C13.8239 7.23114 13.6357 6.98389 13.3682 6.98389H12.8035C11.2581 6.98389 10 8.2399 10 9.78273V20.5528C10 22.0956 11.2581 23.3515 12.8035 23.3515H16.4788C16.7166 23.3515 16.9048 23.1439 16.8751 22.9065C16.8553 22.7087 16.6769 22.5505 16.4788 22.5505H12.8035V22.5406Z" fill="#FF2E00"/>
<path d="M23.5916 6.98389H19.9163C19.6785 6.98389 19.4903 7.19158 19.52 7.42893C19.5398 7.62673 19.7182 7.78496 19.9163 7.78496H23.5916C24.7011 7.78496 25.5927 8.67505 25.5927 9.78273V20.5528C25.5927 21.6604 24.7011 22.5505 23.5916 22.5505H23.0269C22.8486 22.5505 22.6901 22.6692 22.6406 22.8472C22.5712 23.1043 22.7595 23.3515 23.0269 23.3515H23.5916C25.137 23.3515 26.3951 22.0956 26.3951 20.5528V9.78273C26.3951 8.23001 25.137 6.98389 23.5916 6.98389Z" fill="#FF2E00"/>
<path d="M30.853 12.4378C30.853 10.1335 32.9432 9.88623 34.2707 9.88623C35.3802 9.88623 36.4699 10.0939 37.3318 10.351V11.4686C36.3312 11.1521 35.2118 11.0038 34.3995 11.0038C32.963 11.0038 32.121 11.2411 32.121 12.4378C32.121 13.4268 32.2696 13.7927 34.1716 13.7927C37.4209 13.7927 37.7181 14.8707 37.7181 16.4333C37.7181 18.6585 36.3907 19.064 34.1716 19.064C33.0522 19.064 31.8833 18.8563 31.0907 18.5398V17.3827C31.9724 17.7289 33.0027 17.9465 34.1716 17.9465C35.8656 17.9465 36.46 17.7388 36.46 16.4333C36.46 15.0784 35.9746 14.9202 34.1716 14.9202C31.6455 14.9202 30.853 14.2377 30.853 12.4378Z" fill="white"/>
<path d="M38.0649 12.5366H39.2239L40.8288 17.9761H41.0963L42.6615 12.9619H43.8899L45.4551 17.9761H45.7226L47.3076 12.5366H48.4766L46.5844 18.9551H44.6923L43.2559 14.2575L41.8393 18.9551H39.9471L38.0649 12.5366Z" fill="white"/>
<path d="M49.0017 15.7311C49.0017 12.952 50.3094 12.418 52.3006 12.418C54.3017 12.418 55.2825 13.1993 55.2825 14.9992V16.1959H50.2401C50.3391 17.442 50.8939 18.0848 52.5284 18.0848C53.3507 18.0848 54.2621 17.897 55.0149 17.6596V18.609C54.272 18.9057 53.2912 19.0639 52.4888 19.0639C50.2599 19.0639 49.0017 18.164 49.0017 15.7311ZM50.2301 15.2761H54.0739V14.9992C54.0739 13.8224 53.4993 13.4169 52.3006 13.4169C50.7849 13.407 50.2995 13.8817 50.2301 15.2761Z" fill="white"/>
<path d="M56.2929 15.7311C56.2929 12.952 57.6006 12.418 59.5918 12.418C61.5929 12.418 62.5737 13.1993 62.5737 14.9992V16.1959H57.5313C57.6303 17.442 58.1851 18.0848 59.8196 18.0848C60.6419 18.0848 61.5533 17.897 62.3061 17.6596V18.609C61.5632 18.9057 60.5824 19.0639 59.78 19.0639C57.561 19.0639 56.2929 18.164 56.2929 15.7311ZM57.5213 15.2761H61.3651V14.9992C61.3651 13.8224 60.7905 13.4169 59.5918 13.4169C58.0761 13.407 57.5907 13.8817 57.5213 15.2761Z" fill="white"/>
<path d="M64.1289 21.5562V12.5367H65.0998L65.2286 13.2586C65.7535 12.6652 66.5756 12.418 67.477 12.418C69.1615 12.418 70.568 12.8828 70.568 15.7311C70.568 18.5695 69.1118 19.0739 67.477 19.0739C66.6549 19.0739 65.8724 18.8562 65.3377 18.2728V21.5562H64.1289ZM65.3076 15.7311C65.3076 17.5607 66.051 18.075 67.3386 18.075C68.5771 18.075 69.3596 17.8376 69.3596 15.7311C69.3596 13.6542 68.5771 13.4267 67.3386 13.4267C66.0806 13.4169 65.3076 13.9213 65.3076 15.7311Z" fill="white"/>
<path d="M75.3824 12.5367H76.3832L76.502 13.0905C77.3342 12.6949 78.3645 12.418 79.1867 12.418C80.4944 12.418 81.5247 13.0806 81.5247 15.1179V18.9551H80.3063V15.2465C80.2862 13.8025 79.7515 13.4366 78.8004 13.4366C78.0771 13.4366 77.2349 13.7531 76.6008 14.0894V18.9651H75.3824V12.5367Z" fill="white"/>
<path d="M83.2683 12.4574L83.1394 10.0146H84.2188L84.0904 12.4574H83.2683Z" fill="white"/>
<path d="M89.3209 10.0244H95.6613V11.1222H90.5594V14.287H95.4235V15.3847H90.5594V18.9649H89.3209V10.0244Z" fill="white"/>
<path d="M98.0684 10.0244V18.9549H96.85V10.0244H98.0684Z" fill="white"/>
<path d="M100.129 10.0244H101.417V11.1321H100.129V10.0244ZM100.159 12.5365H101.377V18.9549H100.159V12.5365Z" fill="white"/>
<path d="M103.467 21.5562V12.5367H104.438L104.567 13.2586C105.092 12.6652 105.914 12.418 106.815 12.418C108.5 12.418 109.906 12.8828 109.906 15.7311C109.906 18.5695 108.45 19.0739 106.815 19.0739C105.993 19.0739 105.211 18.8562 104.676 18.2728V21.5562H103.467ZM104.646 15.7311C104.646 17.5607 105.389 18.075 106.677 18.075C107.915 18.075 108.698 17.8376 108.698 15.7311C108.698 13.6542 107.915 13.4267 106.677 13.4267C105.419 13.4169 104.646 13.9213 104.646 15.7311Z" fill="white"/>
<path d="M94.5672 23.1289L95.823 25.1553H95.8615L97.1173 23.1289H97.8117L96.2801 25.5644L97.8117 27.9999H97.1173L95.8615 26.0116H95.823L94.5672 27.9999H93.8729L95.4429 25.5644L93.8729 23.1289H94.5672Z" fill="#FF2E00"/>
<path d="M90.2791 27.9999V23.1289H93.2188V23.6522H90.869V25.2981H93.0664V25.8213H90.869V27.4767H93.2567V27.9999H90.2791Z" fill="#FF2E00"/>
<path d="M86.9682 27.9999H85.4651V23.1289H87.0352C87.5074 23.1289 87.912 23.2265 88.248 23.4215C88.584 23.6149 88.8419 23.8932 89.021 24.2563C89.2002 24.6178 89.2895 25.0507 89.2895 25.5549C89.2895 26.0623 89.1996 26.4992 89.0188 26.8655C88.838 27.2302 88.5745 27.5108 88.229 27.7074C87.8835 27.9024 87.4633 27.9999 86.9682 27.9999ZM86.0551 27.4767H86.9302C87.3332 27.4767 87.667 27.399 87.9315 27.2436C88.1967 27.0882 88.3937 26.867 88.5237 26.58C88.6538 26.293 88.7191 25.9513 88.7191 25.5549C88.7191 25.1617 88.6549 24.8232 88.5265 24.5393C88.3976 24.2539 88.2061 24.0351 87.9505 23.8829C87.6955 23.7291 87.3773 23.6522 86.9967 23.6522H86.0551V27.4767Z" fill="#FF2E00"/>
<path d="M79.0182 23.6522V23.1289H82.6712V23.6522H81.1397V27.9999H80.5497V23.6522H79.0182Z" fill="#FF2E00"/>
<path d="M75.3533 27.9999V23.1289H78.274V23.6522H75.9432V25.2981H78.0552V25.8213H75.9432V27.9999H75.3533Z" fill="#FF2E00"/>
<path d="M74.173 23.1289V27.9999H73.6026L70.9481 24.1754H70.9006V27.9999H70.3107V23.1289H70.8816L73.5451 26.963H73.5931V23.1289H74.173Z" fill="#FF2E00"/>
</svg>
