<svg width="120" height="32" viewBox="0 0 120 32" fill="none" xmlns="http://www.w3.org/2000/svg">
<path d="M76.9156 9.38571C77.3567 9.62821 77.7768 9.85918 78.1647 10.1349C78.3797 10.2873 78.572 10.6362 78.5741 10.8976C78.5949 13.9721 78.5935 17.0465 78.5921 20.1359V20.1371C78.5918 20.9108 78.5914 21.6854 78.5914 22.4612H76.3682V9.08057C76.5533 9.18656 76.7366 9.28729 76.9156 9.38571Z" fill="white"/>
<path fill-rule="evenodd" clip-rule="evenodd" d="M82.5331 18.4772H89.7885C89.7885 18.3498 89.7915 18.2262 89.7946 18.1053C89.8008 17.8532 89.8068 17.612 89.7841 17.3742C89.607 15.4923 88.9037 13.9226 87.0747 13.1005C85.2263 12.2708 83.002 12.7656 81.5576 14.2143C80.0701 15.7051 79.9491 18.3454 80.6934 19.9021C81.7208 22.0497 83.8587 23.035 86.3661 22.6374C87.5555 22.4484 88.5602 21.8866 89.3445 20.9241C89.0651 20.6858 88.7926 20.4532 88.525 20.2249L88.0265 19.7995C86.8641 20.7966 85.5915 21.2914 84.1017 20.6626C83.1748 20.2716 82.6531 19.5402 82.5331 18.4772ZM85.0092 14.5114C86.3693 14.4703 87.5306 15.6295 87.4928 17.0134H82.6012C82.4802 15.7807 83.6675 14.5513 85.0092 14.5114Z" fill="white"/>
<path fill-rule="evenodd" clip-rule="evenodd" d="M62.8396 18.4826H70.137C70.1249 18.2941 70.1168 18.1125 70.109 17.9358C70.0926 17.5626 70.0771 17.2118 70.0257 16.8664C69.801 15.3583 69.1604 14.0825 67.7852 13.3068C65.8309 12.2049 63.2641 12.6543 61.7765 14.3201C60.289 15.9838 60.1129 18.8304 61.4038 20.628C62.7164 22.4559 64.6264 22.995 66.7935 22.6234C67.9408 22.4267 68.8882 21.8445 69.6617 20.9327L69.0894 20.4376C68.8406 20.2224 68.5997 20.014 68.3588 19.8059C66.868 20.9586 65.4723 21.2546 64.2861 20.6226C63.4532 20.1786 62.9325 19.4926 62.8396 18.4826ZM65.3135 14.5124C66.6833 14.4865 67.7258 15.5193 67.8154 17.0144H62.8709C62.9173 15.6349 63.9944 14.5384 65.3135 14.5124Z" fill="white"/>
<path d="M71.7814 9.09094C71.9574 9.18932 72.1313 9.2798 72.3011 9.36814C72.6882 9.56955 73.0539 9.75985 73.3759 10.0075C73.6589 10.2247 73.9765 10.6233 73.9809 10.9431C74.0136 13.994 74.0113 17.0456 74.009 20.111C74.0084 20.8935 74.0079 21.6768 74.0079 22.4613H71.7814V9.09094Z" fill="white"/>
<path d="M51.249 11.8591V9.69092H61.8058V11.8591H51.249Z" fill="white"/>
<path d="M93.5805 14.9263V22.4515H91.3486V12.7438C91.5056 12.7438 91.6647 12.7396 91.8249 12.7354C92.2038 12.7254 92.5888 12.7153 92.9669 12.76C93.3548 12.8065 93.5687 13.1295 93.5773 13.5346C93.5832 13.8015 93.5786 14.0689 93.574 14.3365L93.574 14.3393C93.5718 14.4661 93.5697 14.5929 93.5687 14.7197C93.6789 14.6039 93.796 14.4923 93.9132 14.3806C94.1737 14.1326 94.4343 13.8843 94.6196 13.5889C95.2138 12.6436 96.0532 12.5701 97.0287 12.7613V14.9263H93.5805Z" fill="white"/>
<path d="M57.6819 22.4721H55.4424V12.7051C55.6323 12.8197 55.821 12.9297 56.0073 13.0384C56.4757 13.3115 56.9293 13.5761 57.3513 13.8837C57.5436 14.0241 57.6656 14.385 57.6678 14.6453C57.6856 16.6718 57.6841 18.699 57.6827 20.7549L57.6827 20.7642C57.6823 21.3311 57.6819 21.9002 57.6819 22.4721Z" fill="white"/>
<path d="M34.4878 23.5783C34.6693 23.5102 34.8627 23.4649 35.029 23.372C37.7827 21.8293 40.5332 20.2801 43.2858 18.7342C43.3161 18.7169 43.3539 18.7148 43.477 18.6802C44.136 19.7918 44.8069 20.924 45.5177 22.1242C44.9938 22.2765 44.5163 22.3943 44.0517 22.552C40.9664 23.5956 38.1846 25.1383 35.8771 27.4836C35.6178 27.7472 35.1598 27.8153 34.7935 27.973C34.7266 27.7839 34.6045 27.596 34.6012 27.4047C34.5829 26.3352 34.598 25.2657 34.5883 24.1962C34.5861 23.9899 34.5224 23.7836 34.4867 23.5772L34.4878 23.5783Z" fill="#35B8B5"/>
<path d="M34.4824 15.9266C34.9016 15.731 35.3337 15.5582 35.7377 15.3346C37.073 14.5978 38.3985 13.8427 39.7284 13.0973C39.8213 13.0454 39.9239 13.0141 40.0827 12.9482C40.7633 14.0901 41.4407 15.2244 42.1547 16.4214C41.2808 16.9129 40.4381 17.3828 39.5987 17.8592C38.1306 18.6911 36.6657 19.5283 35.1976 20.3591C35.0744 20.4282 34.9318 20.4649 34.799 20.5157C34.7309 20.1387 34.6153 19.7638 34.6045 19.3857C34.5764 18.421 34.6013 17.4563 34.5915 16.4905C34.5894 16.3025 34.5224 16.1146 34.4846 15.9277L34.4824 15.9266Z" fill="#35B8B5"/>
<path d="M34.705 4C35.445 5.20454 36.1915 6.40368 36.9207 7.61362C37.5214 8.60966 38.0993 9.61866 38.727 10.6882C38.1922 10.9993 37.678 11.3137 37.1497 11.6021C36.3525 12.0375 35.5444 12.4555 34.7417 12.8812C34.6931 12.7008 34.6013 12.5214 34.6013 12.341C34.5926 9.76991 34.5926 7.1977 34.6002 4.62658C34.6002 4.41808 34.6693 4.2085 34.7061 4H34.705Z" fill="#34B8B3"/>
<path d="M34.4878 23.5783C34.5235 23.7846 34.5868 23.991 34.589 24.1974C34.5987 25.2669 34.5836 26.3364 34.6019 27.4059C34.6052 27.596 34.7273 27.784 34.7942 27.9741C34.2076 28.08 33.7301 27.852 33.3293 27.4556C30.7096 24.8682 27.607 23.1441 24.0441 22.2366C23.9588 22.215 23.8767 22.1772 23.7168 22.1189C24.4017 20.964 25.0726 19.8329 25.7672 18.6608C26.9804 19.3425 28.1525 19.9993 29.3225 20.6594C31.0445 21.6306 32.7665 22.605 34.4885 23.5773L34.4878 23.5783Z" fill="#199591"/>
<path d="M34.4824 15.9266C34.5202 16.1146 34.5868 16.3014 34.589 16.4894C34.5998 17.4541 34.5749 18.4199 34.6019 19.3846C34.6127 19.7627 34.7283 20.1386 34.7964 20.5146C34.67 20.5243 34.5134 20.587 34.4205 20.5362C32.02 19.1988 29.6261 17.8495 27.2332 16.5012C27.2051 16.485 27.1878 16.4472 27.1273 16.3727C27.7885 15.2557 28.4604 14.1203 29.1659 12.9287C30.9548 13.9377 32.7179 14.9326 34.481 15.9265L34.4824 15.9266Z" fill="#199691"/>
<path d="M34.705 4C34.6683 4.2085 34.5997 4.41808 34.5987 4.62658C34.5911 7.1977 34.5911 9.76991 34.5997 12.341C34.5997 12.5214 34.6916 12.7008 34.7402 12.8812C34.6289 12.8855 34.4928 12.9341 34.4096 12.8877C33.1554 12.1941 31.9087 11.4876 30.662 10.7822C30.6177 10.7573 30.5897 10.7044 30.5248 10.6331C31.2573 9.39612 31.9941 8.15053 32.7319 6.9071C33.2796 5.98344 33.8252 5.05762 34.3869 4.14152C34.4366 4.0605 34.5954 4.04537 34.7035 4H34.705Z" fill="#1B9692"/>
<path d="M34.487 23.5783C34.6684 23.5102 34.8618 23.4649 35.0282 23.372C37.7819 21.8293 40.5323 20.2801 43.285 18.7342C43.3152 18.7169 43.353 18.7148 43.4762 18.6802C44.1351 19.7918 44.806 20.924 45.5169 22.1242C44.9929 22.2765 44.5154 22.3943 44.0509 22.552C40.9655 23.5956 38.1838 25.1383 35.8762 27.4836C35.6169 27.7472 35.1589 27.8153 34.7927 27.973C34.7257 27.7839 34.6036 27.596 34.6004 27.4047C34.582 26.3352 34.5971 25.2657 34.5874 24.1962C34.5853 23.9899 34.5215 23.7836 34.4859 23.5772L34.487 23.5783Z" fill="#35B8B5"/>
<path d="M34.4816 15.9266C34.9007 15.731 35.3328 15.5582 35.7369 15.3346C37.0721 14.5978 38.3977 13.8427 39.7275 13.0973C39.8204 13.0454 39.9231 13.0141 40.0819 12.9482C40.7625 14.0901 41.4398 15.2244 42.1539 16.4214C41.2799 16.9129 40.4373 17.3828 39.5979 17.8592C38.1298 18.6911 36.6649 19.5283 35.1967 20.3591C35.0736 20.4282 34.931 20.4649 34.7981 20.5157C34.73 20.1387 34.6144 19.7638 34.6036 19.3857C34.5756 18.421 34.6004 17.4563 34.5907 16.4905C34.5885 16.3025 34.5215 16.1146 34.4837 15.9277L34.4816 15.9266Z" fill="#35B8B5"/>
<path d="M34.7041 4C35.4442 5.20454 36.1906 6.40368 36.9198 7.61362C37.5205 8.60966 38.0985 9.61866 38.7261 10.6882C38.1914 10.9993 37.6771 11.3137 37.1489 11.6021C36.3516 12.0375 35.5435 12.4555 34.7409 12.8812C34.6923 12.7008 34.6004 12.5214 34.6004 12.341C34.5918 9.76991 34.5918 7.1977 34.5994 4.62658C34.5994 4.41808 34.6685 4.2085 34.7052 4H34.7041Z" fill="#34B8B3"/>
<path d="M34.4865 23.5783C34.5221 23.7847 34.5858 23.991 34.588 24.1974C34.5977 25.2669 34.5826 26.3364 34.601 27.4059C34.6042 27.596 34.7263 27.784 34.7933 27.9741C34.2067 28.08 33.7292 27.852 33.3284 27.4556C30.7086 24.8682 27.606 23.1441 24.0432 22.2366C23.9578 22.215 23.8757 22.1772 23.7158 22.1189C24.4007 20.964 25.0716 19.8329 25.7662 18.6608C26.9794 19.3425 28.1516 19.9993 29.3215 20.6594C31.0435 21.6306 32.7655 22.605 34.4875 23.5773L34.4865 23.5783Z" fill="#199591"/>
<path d="M34.4811 15.9265C34.5189 16.1145 34.5858 16.3014 34.588 16.4894C34.5988 17.4541 34.574 18.4199 34.601 19.3846C34.6118 19.7627 34.7274 20.1386 34.7954 20.5146C34.669 20.5243 34.5124 20.587 34.4195 20.5362C32.019 19.1988 29.6251 17.8495 27.2322 16.5012C27.2041 16.485 27.1868 16.4472 27.1263 16.3727C27.7875 15.2557 28.4594 14.1203 29.1649 12.9287C30.9539 13.9377 32.7169 14.9326 34.48 15.9265H34.4811Z" fill="#199691"/>
<path d="M34.7036 4C34.6668 4.2085 34.5988 4.41808 34.5977 4.62658C34.5901 7.1977 34.5901 9.76991 34.5988 12.341C34.5988 12.5214 34.6906 12.7008 34.7392 12.8812C34.6279 12.8855 34.4918 12.9341 34.4086 12.8877C33.1544 12.1941 31.9077 11.4876 30.6611 10.7822C30.6168 10.7573 30.5887 10.7044 30.5239 10.6331C31.2563 9.39612 31.9931 8.15053 32.7309 6.9071C33.2786 5.98344 33.8242 5.05762 34.386 4.14152C34.4356 4.0605 34.5945 4.04537 34.7025 4H34.7036Z" fill="#1B9692"/>
</svg>
