<svg width="120" height="32" viewBox="0 0 120 32" fill="none" xmlns="http://www.w3.org/2000/svg">
<path d="M58.1389 18.9387C57.7186 18.5408 57.3221 18.166 56.9257 17.7906C56.7332 17.609 56.5444 17.4231 56.3483 17.2458C56.2709 17.1764 56.2405 17.1033 56.2405 16.9984C56.2442 15.7446 56.2507 14.4909 56.2369 13.2371C56.234 12.9282 56.1935 12.6121 56.1161 12.3133C55.9692 11.7461 55.5518 11.4357 54.9658 11.4205C54.7763 11.4155 54.5824 11.4205 54.3964 11.456C53.8394 11.5609 53.5203 11.9139 53.4342 12.5043C53.4133 12.6453 53.401 12.7893 53.401 12.9311C53.401 14.2109 53.401 15.4907 53.4082 16.7705C53.4111 17.2364 53.5536 17.6589 53.8712 18.0091C54.4037 18.5972 54.9354 19.1868 55.4758 19.7671C56.0879 20.424 56.7209 21.0613 57.3228 21.7262C57.8676 22.3274 58.1136 23.0646 58.1649 23.864C58.2004 24.4044 58.2163 24.947 58.217 25.4889C58.2185 26.6211 58.2112 27.7533 58.1924 28.8848C58.1852 29.3333 58.0868 29.771 57.9248 30.1906C57.584 31.0762 56.9387 31.6224 56.0264 31.8459C55.2002 32.0485 54.3653 32.0528 53.5406 31.8437C52.4286 31.5623 51.7696 30.8266 51.4918 29.7298C51.3789 29.2856 51.3362 28.8327 51.3355 28.3769C51.3326 26.2601 51.334 24.1425 51.334 22.0257V21.9302C51.3731 21.9599 51.4006 21.9772 51.4238 21.9989C52.0206 22.548 52.6189 23.0957 53.2114 23.6499C53.2599 23.6947 53.2896 23.7837 53.2903 23.8517C53.2946 25.2747 53.2896 26.6978 53.2975 28.1208C53.299 28.3791 53.325 28.6424 53.3822 28.8935C53.5818 29.766 54.1707 30.0568 54.9709 29.9743C55.7927 29.8897 56.1443 29.3681 56.1653 28.6345C56.2008 27.4292 56.1856 26.2232 56.187 25.0172C56.187 24.7922 56.1639 24.5672 56.1523 24.3422C56.1241 23.8191 55.9258 23.3648 55.5786 22.9785C55.1532 22.5039 54.73 22.0264 54.2843 21.5714C53.5225 20.7929 52.7448 20.0311 52.0503 19.1905C51.6524 18.7094 51.4317 18.1595 51.3847 17.5424C51.355 17.1583 51.3377 16.7719 51.3362 16.3863C51.3312 15.1977 51.3304 14.0091 51.3406 12.8204C51.3449 12.2677 51.4216 11.7229 51.6155 11.2006C51.9338 10.3433 52.5328 9.77899 53.4111 9.53519C54.3147 9.28415 55.2291 9.28921 56.1364 9.52217C57.0819 9.76452 57.6636 10.3838 57.9327 11.312C58.0788 11.8155 58.1346 12.3328 58.136 12.8544C58.1411 14.8374 58.1382 16.8197 58.1382 18.8027V18.9387H58.1389Z" fill="#9D3EB3"/>
<path d="M60.7216 9.60965C60.7839 9.60603 60.8266 9.60169 60.8685 9.60169C61.4762 9.60169 62.0832 9.60458 62.6909 9.59879C62.803 9.59735 62.8407 9.63497 62.853 9.74059C63.0092 11.092 63.1691 12.4434 63.3261 13.7956C63.4722 15.0522 63.6169 16.3096 63.7587 17.567C63.86 18.4669 63.9555 19.3677 64.0546 20.2684C64.1639 21.2675 64.2767 22.2665 64.3831 23.2664C64.4844 24.2192 64.5813 25.172 64.6782 26.1247C64.7455 26.7882 64.8092 27.4523 64.8917 28.1215C64.9003 28.0933 64.9141 28.0665 64.917 28.0376C65.0414 26.8916 65.1593 25.7449 65.2903 24.5997C65.4466 23.2259 65.613 21.8542 65.7757 20.4811C65.9255 19.2157 66.0731 17.9504 66.2272 16.6858C66.4037 15.2316 66.5853 13.7782 66.7647 12.3248C66.8718 11.4603 66.9788 10.5957 67.0859 9.73191C67.0946 9.66029 67.0989 9.59952 67.2017 9.59952C67.8217 9.60314 68.4424 9.60169 69.0631 9.60241C69.0798 9.60241 69.0964 9.60748 69.1304 9.61254C69.1109 9.77677 69.0935 9.9381 69.0725 10.0987C68.8823 11.5377 68.6913 12.9766 68.501 14.4156C68.2926 15.9877 68.085 17.5597 67.8759 19.1318C67.6545 20.7987 67.431 22.4648 67.2096 24.1316C67.0005 25.7037 66.7929 27.2758 66.5846 28.8478C66.4608 29.7797 66.3379 30.7122 66.217 31.6447C66.2076 31.7185 66.1874 31.7489 66.1071 31.7489C65.2483 31.746 64.3889 31.7467 63.5301 31.7467C63.5135 31.7467 63.4968 31.7424 63.4664 31.7381C62.5527 24.3653 61.6383 16.9925 60.7231 9.60892L60.7216 9.60965Z" fill="#9D3EB3"/>
<path d="M76.5827 21.8311C76.8056 22.0474 77.0045 22.2384 77.202 22.4308C77.5876 22.8056 77.974 23.1796 78.3559 23.5587C78.3928 23.5956 78.4196 23.6622 78.4196 23.715C78.4232 25.303 78.4268 26.8902 78.4196 28.4782C78.4174 29.0302 78.3415 29.575 78.17 30.1038C77.8517 31.0849 77.1919 31.6926 76.1805 31.8958C75.431 32.0463 74.6779 32.0326 73.9371 31.8409C72.7643 31.5377 72.0908 30.7535 71.8202 29.5953C71.7189 29.1626 71.6828 28.7228 71.6828 28.2793C71.6828 23.2382 71.6828 18.1979 71.6828 13.1568C71.6828 12.573 71.7406 11.9971 71.9251 11.4393C72.2543 10.4424 72.9148 9.7848 73.9356 9.51422C74.7206 9.30659 75.5149 9.29212 76.3035 9.48601C77.3163 9.73488 77.9219 10.4084 78.2113 11.3894C78.3559 11.8792 78.4203 12.382 78.4218 12.8913C78.4254 14.8259 78.4232 16.7611 78.4232 18.6956C78.4232 18.7333 78.4232 18.7701 78.4232 18.8403C78.2489 18.671 78.0977 18.5256 77.9465 18.3788C77.5298 17.9736 77.1159 17.5656 76.6963 17.1633C76.6153 17.0859 76.5813 17.0071 76.5813 16.8935C76.5849 15.6267 76.5878 14.3599 76.5806 13.0932C76.5791 12.8479 76.5531 12.5983 76.5046 12.3581C76.3918 11.804 76.0799 11.511 75.5185 11.4415C75.2812 11.4126 75.0309 11.4155 74.7951 11.4567C74.2344 11.5558 73.8994 11.9291 73.7931 12.5426C73.7584 12.7423 73.7396 12.9478 73.7396 13.1503C73.7367 18.174 73.7359 23.197 73.741 28.2207C73.741 28.4826 73.7736 28.751 73.8379 29.0042C73.9935 29.6133 74.4044 29.9418 75.0317 29.9787C75.2205 29.9895 75.4151 29.9801 75.601 29.9461C76.1154 29.8528 76.3975 29.5106 76.5003 29.0201C76.5524 28.772 76.5791 28.5137 76.5799 28.2597C76.5864 26.182 76.5835 24.1042 76.5835 22.0257C76.5835 21.9736 76.5835 21.9223 76.5835 21.8297L76.5827 21.8311Z" fill="#9D3EB3"/>
<path d="M44.4735 11.6542H42V9.61047H48.9452V11.6535H48.7918C48.085 11.6535 47.3775 11.6535 46.6706 11.6535C46.5433 11.6535 46.4797 11.7162 46.4797 11.8416C46.4797 18.4056 46.4797 24.9695 46.4797 31.5334C46.4797 31.5978 46.4797 31.6622 46.4797 31.7483C46.4203 31.7483 46.3704 31.7483 46.3205 31.7483C45.7605 31.7483 45.2013 31.7483 44.6413 31.7483C44.4742 31.7483 44.4742 31.7483 44.4742 31.5754C44.4742 29.0201 44.4742 26.4649 44.4742 23.9096C44.4742 19.9009 44.4742 15.8923 44.4742 11.8836C44.4742 11.8112 44.4742 11.7389 44.4742 11.6542H44.4735Z" fill="#9D3EB3"/>
<path d="M45.7757 8.09845C47.5301 5.67776 49.6187 3.65714 52.2044 2.17767C53.9016 1.20606 55.711 0.542651 57.6412 0.217095C58.8045 0.0210375 59.9765 -0.0447972 61.1536 0.0326128C64.1834 0.232287 66.9267 1.24875 69.4241 2.95394C71.4556 4.34153 73.1478 6.07566 74.5947 8.05649C74.5997 8.063 74.6019 8.07168 74.6236 8.11653C74.552 8.05938 74.5071 8.02538 74.463 7.98921C72.7665 6.59944 70.9607 5.37752 68.9922 4.40302C67.2111 3.52185 65.3511 2.87508 63.3919 2.52493C62.4341 2.35347 61.469 2.25869 60.4959 2.24278C57.5109 2.19431 54.6866 2.87436 51.9873 4.11798C49.8358 5.10912 47.8759 6.40411 46.0434 7.89733C45.966 7.96027 45.8893 8.02393 45.8119 8.08687C45.809 8.08904 45.8039 8.08977 45.7772 8.09917L45.7757 8.09845Z" fill="#9D3EB3"/>
</svg>
