<svg width="120" height="32" viewBox="0 0 120 32" fill="none" xmlns="http://www.w3.org/2000/svg">
<path d="M38.0488 9.10669L31.4018 22.89H30.6501L24 9.10669H27.8417L31.0244 16.0543L34.1879 9.10669H38.0488ZM42.962 22.89H39.4786V9.10669H42.962V22.89ZM46.9732 18.351C47.9712 19.1603 49.5162 20.0079 51.3234 20.0079C52.491 20.0079 53.2427 19.5569 53.2427 18.8404C53.2427 17.8616 52.0559 17.7304 50.7189 17.4841C49.0044 17.2026 45.3322 16.694 45.3322 13.2106C45.3322 9.72724 48.3838 8.91797 50.7733 8.91797C53.1627 8.91797 54.8964 9.80401 56.2527 11.0451L54.4454 13.5113C53.3706 12.6253 52.0527 12.0815 50.6805 12.0815C49.8712 12.0815 48.8156 12.4206 48.8156 13.1179C48.8156 14.0967 50.2295 14.2086 51.8672 14.5125C53.844 14.8708 56.7069 15.3026 56.7069 18.7316C56.7069 21.7064 54.5222 23.1395 51.301 23.1395C48.4382 23.1395 46.7621 22.2534 45.1243 20.7852L46.97 18.3574V18.351H46.9732ZM62.4518 22.89H58.9684V9.10669H62.4518V22.89ZM94.3078 22.89L86.4357 15.7728V22.89H82.9715V9.10669H83.9503L91.784 16.339V9.10669H95.2674V22.89H94.3078Z" fill="white"/>
<path d="M72.7005 23.9968C68.2766 23.984 64.7005 20.3918 64.7133 15.9744C64.7261 11.557 68.3214 7.99042 72.7484 8.00002C73.1131 8.00002 73.4777 8.02881 73.836 8.07679C73.2629 8.75415 72.8848 9.57455 72.742 10.4502C69.6713 10.431 67.1731 12.9037 67.1507 15.9648C67.1315 19.0324 69.6073 21.5274 72.6749 21.5498C75.7456 21.569 78.2438 19.0964 78.2662 16.0352V15.8625C79.1395 15.7121 79.9487 15.3251 80.6141 14.7461C81.3018 19.1124 78.3174 23.2131 73.9416 23.9008C73.5289 23.9648 73.1131 24 72.7037 24L72.7005 23.9968Z" fill="url(#paint0_linear_999_3692)"/>
<path d="M75.1635 14.919C75.7584 16.2753 75.1411 17.865 73.7816 18.46C72.4222 19.055 70.8324 18.4376 70.2374 17.0781C69.6425 15.7187 70.2598 14.1321 71.6193 13.5372C72.1983 13.2813 72.8444 13.2429 73.4522 13.422C74.2166 13.6491 74.8404 14.1961 75.1571 14.9254L75.1635 14.919ZM75.7552 10.3384C75.8637 10.1135 76.0156 9.91209 76.202 9.74588C76.3885 9.57968 76.6059 9.45191 76.8419 9.3699C77.0778 9.28788 77.3276 9.25323 77.577 9.26794C77.8263 9.28265 78.0703 9.34642 78.295 9.4556C78.5203 9.56333 78.7221 9.71456 78.8887 9.90059C79.0553 10.0866 79.1835 10.3038 79.2658 10.5395C79.3482 10.7753 79.3831 11.025 79.3686 11.2743C79.354 11.5236 79.2903 11.7676 79.1811 11.9922C79.0217 12.3211 78.7711 12.5973 78.4592 12.7879C78.1473 12.9784 77.7872 13.0753 77.4218 13.067C76.9571 12.3212 76.321 11.6972 75.5665 11.2469C75.5473 10.9334 75.6145 10.6231 75.752 10.3384H75.7584H75.7552Z" fill="white"/>
<defs>
<linearGradient id="paint0_linear_999_3692" x1="68.2757" y1="10.7253" x2="76.8448" y2="22.3592" gradientUnits="userSpaceOnUse">
<stop stop-color="#F49E0B"/>
<stop offset="1" stop-color="#FACC14"/>
</linearGradient>
</defs>
</svg>
