<svg width="120" height="32" viewBox="0 0 120 32" fill="none" xmlns="http://www.w3.org/2000/svg">
<path d="M34.5195 4C41.1469 4 46.5195 9.37258 46.5195 16C46.5195 22.6274 41.1469 28 34.5195 28C27.8921 28 22.5195 22.6274 22.5195 16C22.5195 9.37258 27.8921 4 34.5195 4Z" fill="white"/>
<path d="M65.9095 20.0028V22H74.2891V19.9688H69.5639C69.6772 19.8952 69.8727 19.7535 70.1503 19.5439C70.4336 19.3286 70.7594 19.0595 71.1277 18.7365C71.4959 18.4079 71.8699 18.0453 72.2495 17.6487C72.6347 17.2465 72.9917 16.8244 73.3203 16.3824C73.6546 15.9348 73.9237 15.4844 74.1277 15.0312C74.3316 14.5722 74.4336 14.1275 74.4336 13.6969C74.4336 13 74.3231 12.4164 74.1022 11.9462C73.8869 11.4759 73.5837 11.0992 73.1928 10.8159C72.8075 10.5269 72.3543 10.3201 71.833 10.1955C71.3118 10.0652 70.7452 10 70.1333 10C69.4478 10 68.8047 10.1218 68.2041 10.3654C67.6092 10.6034 67.1022 10.949 66.6829 11.4023C66.2636 11.8555 65.9775 12.3938 65.8245 13.017L68.2381 14.0538C68.3061 13.7649 68.4223 13.4731 68.5866 13.1785C68.7565 12.8782 68.969 12.6261 69.224 12.4221C69.4846 12.2181 69.7849 12.1161 70.1248 12.1161C70.3401 12.1161 70.5328 12.1473 70.7027 12.2096C70.8784 12.272 71.0285 12.3683 71.1532 12.4986C71.2835 12.6232 71.3826 12.7875 71.4506 12.9915C71.5186 13.1955 71.5526 13.4391 71.5526 13.7224C71.5526 14.017 71.4704 14.3343 71.3061 14.6742C71.1418 15.0142 70.9209 15.3626 70.6432 15.7195C70.3656 16.0708 70.0512 16.4278 69.6999 16.7904C69.3543 17.1473 68.9945 17.4901 68.6206 17.8187C68.2523 18.1473 67.8925 18.4561 67.5413 18.745C67.19 19.0283 66.8727 19.2776 66.5894 19.4929C66.3061 19.7082 66.0795 19.8782 65.9095 20.0028Z" fill="white"/>
<path d="M56.1578 16.136L53.7188 22H56.7697L58.6479 17.1303H58.8944L60.7981 22H63.8491L61.3845 16.136L63.8491 10.102H60.7981L58.8944 15.1076H58.6394L56.7697 10.102H53.7188L56.1578 16.136Z" fill="white"/>
<path d="M80.6159 22V18.1671L77.106 10.102H79.987L82.0097 15.6006L84.0323 10.102H86.9133L83.4204 18.1671V22H80.6159Z" fill="white"/>
<path d="M89.1523 20.0028V22H97.5319V19.9688H92.8067C92.92 19.8952 93.1154 19.7535 93.3931 19.5439C93.6763 19.3286 94.0021 19.0595 94.3704 18.7365C94.7387 18.4079 95.1126 18.0453 95.4922 17.6487C95.8775 17.2465 96.2344 16.8244 96.563 16.3824C96.8973 15.9348 97.1664 15.4844 97.3704 15.0312C97.5744 14.5722 97.6763 14.1275 97.6763 13.6969C97.6763 13 97.5659 12.4164 97.3449 11.9462C97.1296 11.4759 96.8265 11.0992 96.4356 10.8159C96.0503 10.5269 95.597 10.3201 95.0758 10.1955C94.5545 10.0652 93.988 10 93.3761 10C92.6905 10 92.0475 10.1218 91.4469 10.3654C90.852 10.6034 90.3449 10.949 89.9256 11.4023C89.5064 11.8555 89.2203 12.3938 89.0673 13.017L91.4809 14.0538C91.5489 13.7649 91.665 13.4731 91.8293 13.1785C91.9993 12.8782 92.2118 12.6261 92.4667 12.4221C92.7273 12.2181 93.0276 12.1161 93.3676 12.1161C93.5829 12.1161 93.7755 12.1473 93.9455 12.2096C94.1211 12.272 94.2712 12.3683 94.3959 12.4986C94.5262 12.6232 94.6254 12.7875 94.6933 12.9915C94.7613 13.1955 94.7953 13.4391 94.7953 13.7224C94.7953 14.017 94.7132 14.3343 94.5489 14.6742C94.3846 15.0142 94.1636 15.3626 93.886 15.7195C93.6084 16.0708 93.2939 16.4278 92.9426 16.7904C92.597 17.1473 92.2373 17.4901 91.8633 17.8187C91.495 18.1473 91.1353 18.4561 90.784 18.745C90.4327 19.0283 90.1154 19.2776 89.8322 19.4929C89.5489 19.7082 89.3222 19.8782 89.1523 20.0028Z" fill="white"/>
<path d="M42.1424 10.1632C40.6714 8.72576 38.6591 7.8399 36.4399 7.8399C31.9333 7.8399 28.2799 11.4932 28.2799 15.9999C28.2799 20.5066 31.9333 24.1599 36.4399 24.1599C38.6591 24.1599 40.6714 23.2741 42.1424 21.8366C40.3877 24.1247 37.6261 25.5999 34.5199 25.5999C29.218 25.5999 24.9199 21.3019 24.9199 15.9999C24.9199 10.6979 29.218 6.3999 34.5199 6.3999C37.6261 6.3999 40.3877 7.87512 42.1424 10.1632Z" fill="url(#paint0_linear_700_3532)"/>
<path d="M30.3418 20.6694C31.5186 21.8193 33.1284 22.5279 34.9038 22.5279C38.5091 22.5279 41.4318 19.6053 41.4318 15.9999C41.4318 12.3946 38.5091 9.47192 34.9038 9.47192C33.1284 9.47192 31.5186 10.1806 30.3418 11.3305C31.7456 9.50009 33.9548 8.31992 36.4398 8.31992C40.6813 8.31992 44.1198 11.7584 44.1198 15.9999C44.1198 20.2414 40.6813 23.6799 36.4398 23.6799C33.9548 23.6799 31.7456 22.4997 30.3418 20.6694Z" fill="url(#paint1_linear_700_3532)"/>
<path fill-rule="evenodd" clip-rule="evenodd" d="M34.5198 21.7599C37.7009 21.7599 40.2798 19.181 40.2798 15.9999C40.2798 12.8188 37.7009 10.2399 34.5198 10.2399C31.3386 10.2399 28.7598 12.8188 28.7598 15.9999C28.7598 19.181 31.3386 21.7599 34.5198 21.7599ZM34.5198 19.8399C36.6405 19.8399 38.3598 18.1207 38.3598 15.9999C38.3598 13.8791 36.6405 12.1599 34.5198 12.1599C32.399 12.1599 30.6798 13.8791 30.6798 15.9999C30.6798 18.1207 32.399 19.8399 34.5198 19.8399Z" fill="url(#paint2_linear_700_3532)"/>
<defs>
<linearGradient id="paint0_linear_700_3532" x1="24.9198" y1="15.6689" x2="44.1198" y2="15.6689" gradientUnits="userSpaceOnUse">
<stop stop-color="#00E0FF"/>
<stop offset="1" stop-color="#562EC8"/>
</linearGradient>
<linearGradient id="paint1_linear_700_3532" x1="24.9198" y1="15.6689" x2="44.1198" y2="15.6689" gradientUnits="userSpaceOnUse">
<stop stop-color="#00E0FF"/>
<stop offset="1" stop-color="#562EC8"/>
</linearGradient>
<linearGradient id="paint2_linear_700_3532" x1="24.9198" y1="15.6689" x2="44.1198" y2="15.6689" gradientUnits="userSpaceOnUse">
<stop stop-color="#00E0FF"/>
<stop offset="1" stop-color="#562EC8"/>
</linearGradient>
</defs>
</svg>
