<svg width="120" height="32" viewBox="0 0 120 32" fill="none" xmlns="http://www.w3.org/2000/svg">
<path d="M37 20.9091L43.6646 10.8816H37.7494V8.26402H47.0382V10.6922L40.0949 21.1198H47.3115V23.7373H37V20.9091Z" fill="white"/>
<path d="M47.1128 16.0953C47.1128 14.2525 47.3862 12.7337 47.9302 11.5416C48.4756 10.3495 49.1877 9.46012 50.0678 8.87741C50.9478 8.29202 52.0133 8 53.2667 8C55.0828 8 56.5616 8.69339 57.7044 10.0788C58.8472 11.4656 59.4192 13.4391 59.4192 16.0007C59.4192 18.5622 58.8138 20.6131 57.6031 22.0692C56.5403 23.3573 55.0975 24 53.2747 24C51.4519 24 49.9891 23.3639 48.9263 22.0905C47.7169 20.6344 47.1115 18.6356 47.1128 16.0953ZM49.7517 15.99C49.7517 17.7701 50.0904 19.1049 50.7665 19.9957C51.4425 20.8864 52.2813 21.3318 53.2827 21.3318C54.2828 21.3318 55.1255 20.8904 55.7882 20.0077C56.451 19.1249 56.7816 17.7688 56.7816 15.938C56.7816 14.1085 56.459 12.8177 55.8136 11.959C55.1695 11.1016 54.3241 10.6709 53.2814 10.6709C52.2386 10.6709 51.3892 11.1029 50.7345 11.9697C50.0784 12.8337 49.7517 14.1738 49.7517 15.99Z" fill="white"/>
<path d="M60.1379 23.736V8.26402H65.5304C66.9092 8.26402 67.8946 8.4027 68.4853 8.68005C69.0773 8.95874 69.5627 9.44012 69.9414 10.1255C70.3214 10.8109 70.5108 11.6336 70.5108 12.5897C70.5108 13.8005 70.2214 14.7739 69.6401 15.514C69.0613 16.254 68.2373 16.7181 67.1665 16.9074C67.7159 17.3008 68.1693 17.7328 68.528 18.2008C68.8867 18.6689 69.376 19.5076 69.9948 20.7184L71.5362 23.7373H68.48L66.6251 20.3704C65.9584 19.1529 65.505 18.3915 65.265 18.0848C65.025 17.7781 64.7716 17.5675 64.505 17.4515C64.2369 17.3354 63.8089 17.2768 63.2169 17.2768H62.6888V23.736H60.1379ZM62.6928 14.8072H64.593C65.7544 14.8072 66.4931 14.7566 66.8092 14.6539C67.1265 14.5512 67.3825 14.3459 67.5799 14.0365C67.7759 13.7271 67.8746 13.3164 67.8746 12.8017C67.8746 12.287 67.7759 11.9137 67.5799 11.615C67.3825 11.3163 67.1158 11.1109 66.7772 10.9976C66.5371 10.9202 65.8451 10.8816 64.6983 10.8816H62.6928V14.8072Z" fill="white"/>
<path d="M83.4972 23.736H80.721L79.6102 20.2317H74.5311L73.4817 23.736H70.7588L75.6992 8.26402H78.4128L83.4972 23.736ZM78.7848 17.6141L77.0327 11.8723L75.3139 17.6141H78.7848Z" fill="white"/>
</svg>
