<svg width="72" height="72" viewBox="0 0 72 72" fill="none" xmlns="http://www.w3.org/2000/svg">
<rect width="72" height="72" rx="36" fill="white" fill-opacity="0.05"/>
<rect x="0.5" y="0.5" width="71" height="71" rx="35.5" stroke="white" stroke-opacity="0.1"/>
<rect x="8" y="8" width="56" height="56" rx="28" fill="#794CFD"/>
<path opacity="0.3" d="M50.6077 29.3008L50.6444 29.6174L50.656 29.9408V42.0541C50.6559 42.7351 50.4888 43.4056 50.1695 44.007C49.8502 44.6085 49.3883 45.1225 48.8243 45.5041L48.5743 45.6624L38.0827 51.7191L37.876 51.8308L37.666 51.9308V36.9474L50.6077 29.3008Z" fill="white"/>
<path d="M38.085 20.277L48.575 26.3336C48.6594 26.3825 48.7416 26.4336 48.8216 26.487L36.0016 34.062L23.1816 26.487C23.2624 26.4335 23.3446 26.3824 23.4283 26.3336L33.9183 20.277C34.5517 19.9113 35.2702 19.7188 36.0016 19.7188C36.733 19.7188 37.4516 19.9113 38.085 20.277Z" fill="white"/>
<path opacity="0.3" d="M21.3901 29.3008L34.3318 36.9491V51.9291C34.1882 51.8689 34.0489 51.7988 33.9151 51.7191L23.4251 45.6624C22.7917 45.2968 22.2658 44.7708 21.9001 44.1374C21.5344 43.504 21.3418 42.7855 21.3418 42.0541V29.9408C21.3418 29.7241 21.3585 29.5108 21.3918 29.3008H21.3901Z" fill="white"/>
</svg>
