<svg width="72" height="72" viewBox="0 0 72 72" fill="none" xmlns="http://www.w3.org/2000/svg">
<rect width="72" height="72" rx="36" fill="white" fill-opacity="0.05"/>
<rect x="0.5" y="0.5" width="71" height="71" rx="35.5" stroke="white" stroke-opacity="0.1"/>
<rect x="8" y="8" width="56" height="56" rx="28" fill="#6387FF"/>
<path d="M27.666 35.168C21.8926 35.168 18.2826 28.918 21.171 23.918C21.8292 22.7779 22.776 21.8311 23.9161 21.1728C25.0562 20.5146 26.3495 20.168 27.666 20.168C33.4393 20.168 37.0493 26.418 34.161 31.418C33.5027 32.5581 32.556 33.5049 31.4159 34.1631C30.2757 34.8214 28.9825 35.1679 27.666 35.168Z" fill="white"/>
<path opacity="0.3" d="M44.3326 51.8346C38.5593 51.8346 34.9493 45.5846 37.8376 40.5846C38.4959 39.4445 39.4426 38.4978 40.5827 37.8395C41.7228 37.1812 43.0161 36.8347 44.3326 36.8346C50.106 36.8346 53.716 43.0846 50.8276 48.0846C50.1694 49.2248 49.2226 50.1715 48.0825 50.8298C46.9424 51.488 45.6491 51.8346 44.3326 51.8346ZM44.3326 35.168C38.5593 35.168 34.9493 28.918 37.8376 23.918C38.4959 22.7779 39.4426 21.8311 40.5827 21.1728C41.7228 20.5146 43.0161 20.168 44.3326 20.168C50.106 20.168 53.716 26.418 50.8276 31.418C50.1694 32.5581 49.2226 33.5049 48.0825 34.1631C46.9424 34.8214 45.6491 35.1679 44.3326 35.168ZM27.666 51.8346C21.8926 51.8346 18.2826 45.5846 21.171 40.5846C21.8292 39.4445 22.776 38.4978 23.9161 37.8395C25.0562 37.1812 26.3495 36.8347 27.666 36.8346C33.4393 36.8346 37.0493 43.0846 34.161 48.0846C33.5027 49.2248 32.556 50.1715 31.4159 50.8298C30.2757 51.488 28.9825 51.8346 27.666 51.8346Z" fill="white"/>
</svg>
