<svg width="72" height="72" viewBox="0 0 72 72" fill="none" xmlns="http://www.w3.org/2000/svg">
<rect width="72" height="72" rx="36" fill="white" fill-opacity="0.05"/>
<rect x="0.5" y="0.5" width="71" height="71" rx="35.5" stroke="white" stroke-opacity="0.1"/>
<rect x="8" y="8" width="56" height="56" rx="28" fill="#A05EF6"/>
<path opacity="0.25" d="M36.0006 39.6574C35.7072 39.6574 35.4206 39.5807 35.1672 39.4357L20.1672 30.7724C19.9139 30.6261 19.7035 30.4157 19.5573 30.1624C19.411 29.909 19.334 29.6216 19.334 29.3291C19.334 29.0365 19.411 28.7491 19.5573 28.4958C19.7035 28.2424 19.9139 28.032 20.1672 27.8857L35.1672 19.2291C35.6839 18.9341 36.3172 18.9341 36.8339 19.2291L51.8339 27.8857C52.0873 28.032 52.2976 28.2424 52.4439 28.4958C52.5902 28.7491 52.6672 29.0365 52.6672 29.3291C52.6672 29.6216 52.5902 29.909 52.4439 30.1624C52.2976 30.4157 52.0873 30.6261 51.8339 30.7724L36.8339 39.4357C36.5804 39.5814 36.293 39.6579 36.0006 39.6574Z" fill="white"/>
<path opacity="0.5" d="M51.8339 34.5502L48.5606 32.6602L36.8339 39.4335C36.3172 39.7302 35.6839 39.7302 35.1672 39.4335L23.4406 32.6602L20.1672 34.5502C19.9139 34.6964 19.7035 34.9068 19.5573 35.1602C19.411 35.4135 19.334 35.7009 19.334 35.9935C19.334 36.286 19.411 36.5734 19.5573 36.8268C19.7035 37.0801 19.9139 37.2905 20.1672 37.4368L35.1672 46.1002C35.6839 46.3968 36.3172 46.3968 36.8339 46.1002L51.8339 37.4368C52.0873 37.2905 52.2976 37.0801 52.4439 36.8268C52.5902 36.5734 52.6672 36.286 52.6672 35.9935C52.6672 35.7009 52.5902 35.4135 52.4439 35.1602C52.2976 34.9068 52.0873 34.6964 51.8339 34.5502Z" fill="white"/>
<path d="M51.8339 41.2181L48.5606 39.3281L36.8339 46.1015C36.3172 46.3981 35.6839 46.3981 35.1672 46.1015L23.4406 39.3281L20.1672 41.2181C19.9139 41.3644 19.7035 41.5748 19.5573 41.8282C19.411 42.0815 19.334 42.3689 19.334 42.6615C19.334 42.954 19.411 43.2414 19.5573 43.4948C19.7035 43.7481 19.9139 43.9585 20.1672 44.1048L35.1672 52.7681C35.6839 53.0648 36.3172 53.0648 36.8339 52.7681L51.8339 44.1048C52.0873 43.9585 52.2976 43.7481 52.4439 43.4948C52.5902 43.2414 52.6672 42.954 52.6672 42.6615C52.6672 42.3689 52.5902 42.0815 52.4439 41.8282C52.2976 41.5748 52.0873 41.3644 51.8339 41.2181Z" fill="white"/>
</svg>
