<svg preserveAspectRatio="xMidYMid meet" width="134.6500" height="134.6500" viewBox="-22.3250 -53.3250 134.6500 134.6500" fill="none" xmlns="http://www.w3.org/2000/svg"><circle cx="45.0000" cy="14.0000" r="67.3250" fill="#000000"/>
<g clip-path="url(#clip0_33_177)">
<path d="M0 28V-1H19.2853V28H0ZM16.6398 9.44072H18.3705V6.61594H11.2251V9.44072H13.5492V16.1805H13.4503L5.34056 6.61594H0.964268V9.44072H2.96698V19.8974H1.23624V22.7221H8.28281V19.8974H6.05758V12.5133H6.15648L14.7854 22.7469L16.6398 22.7221V9.44072ZM21.2575 28V1.16825e-05H34.2874V28H21.2575ZM23.186 12.3398L22.6915 15.2389L25.2382 15.5115L25.6585 13.9257C25.9223 13.7936 26.186 13.7109 26.4497 13.6779C26.73 13.6283 27.0349 13.6036 27.3645 13.6036C28.2711 13.6036 28.7987 13.8761 28.947 14.4212C29.1118 14.9664 29.1941 15.5281 29.1941 16.1062V16.4779C28.6832 16.4118 28.0733 16.3788 27.3645 16.3788C26.0953 16.3788 24.9085 16.6018 23.8041 17.0478C22.7162 17.4938 22.1723 18.4024 22.1723 19.7735C22.1723 20.9463 22.5431 21.7723 23.2849 22.2513C24.0266 22.7303 24.8015 22.9699 25.609 22.9699C26.5157 22.9699 27.2574 22.7387 27.8343 22.2761C28.4277 21.8135 28.881 21.3015 29.1941 20.7398V20.7646C29.359 22.2348 30.1749 22.9699 31.642 22.9699C32.3342 22.9699 33.0017 22.7965 33.6447 22.4496L33.6199 20.7646C33.4551 20.8142 33.2984 20.839 33.1501 20.839C32.6392 20.839 32.3838 20.5498 32.3838 19.9717V15.1151C32.3838 13.8431 31.9469 12.8932 31.0734 12.2655C30.1996 11.6378 29.1612 11.3239 27.9579 11.3239C27.0514 11.3239 26.2684 11.3982 25.609 11.5469C24.9662 11.679 24.1586 11.9434 23.186 12.3398ZM29.1941 18.1628C29.1118 19.0383 28.8233 19.6826 28.3288 20.0956C27.8508 20.492 27.3316 20.6903 26.7711 20.6903C26.2931 20.6903 25.9552 20.5664 25.7574 20.3186C25.5596 20.0708 25.4607 19.7653 25.4607 19.4018C25.4607 18.7905 25.675 18.3859 26.1035 18.1876C26.5322 17.9728 27.0267 17.8655 27.587 17.8655C27.8508 17.8655 28.1146 17.8821 28.3784 17.9151C28.6585 17.948 28.9305 17.9812 29.1941 18.0142V18.1628ZM36.2373 28V1.16825e-05H58.4154V28H36.2373ZM53.1738 22.7221H57.8468V20.3186H56.3633V15.1894C56.3633 13.8679 55.9759 12.8932 55.2012 12.2655C54.4266 11.6378 53.5365 11.3239 52.5309 11.3239C50.7673 11.3239 49.5558 12.125 48.8964 13.7274C48.6326 12.918 48.1628 12.3151 47.4871 11.9186C46.8113 11.5221 46.0696 11.3239 45.2618 11.3239C43.7124 11.3239 42.5834 11.9599 41.8745 13.2319V11.5469H37.2263V13.9752H38.6851V20.3186H37.2016V22.7221H44.0009V20.3186H41.8745V16.4036C41.8745 15.6272 42.0394 14.9912 42.369 14.4956C42.6987 14 43.2509 13.7522 44.0256 13.7522C44.6519 13.7522 45.1217 13.9587 45.4349 14.3717C45.7645 14.7847 45.9294 15.4702 45.9294 16.4283V22.7221H50.6024V20.3186H49.1189V16.4036C49.1189 15.6272 49.2838 14.9912 49.6134 14.4956C49.9596 14 50.5117 13.7522 51.27 13.7522C51.8963 13.7522 52.3661 13.9587 52.6793 14.3717C53.0089 14.7847 53.1738 15.4702 53.1738 16.4283V22.7221ZM60.3681 28V1.16825e-05H72.7799V28H60.3681ZM72.0629 19.2036L69.3926 18.708C69.3268 19.0383 69.1372 19.41 68.824 19.823C68.5273 20.2361 67.9504 20.4425 67.0932 20.4425C65.5274 20.4425 64.6538 19.5587 64.4724 17.7912H71.791C71.9064 17.2626 71.964 16.7257 71.964 16.1805C71.9476 14.7268 71.4531 13.554 70.4805 12.662C69.5246 11.7699 68.2718 11.3239 66.7224 11.3239C64.9587 11.3239 63.5823 11.902 62.5933 13.0584C61.6209 14.1982 61.1346 15.6272 61.1346 17.3451C61.1346 19.2118 61.6703 20.6159 62.7417 21.5575C63.8296 22.4991 65.206 22.9699 66.8707 22.9699C68.4696 22.9699 69.7141 22.59 70.6041 21.8301C71.4942 21.0702 71.9806 20.1947 72.0629 19.2036ZM68.6756 15.9328H64.4971C64.596 15.2389 64.8269 14.6772 65.1894 14.2478C65.5521 13.8184 66.0631 13.6036 66.7224 13.6036C67.4806 13.6036 68.0081 13.8513 68.3047 14.3469C68.618 14.8425 68.7416 15.3711 68.6756 15.9328ZM74.7201 28V1.16825e-05H90V28H74.7201ZM84.61 13.9752V20.2938H83.1265V22.7221H89.283V20.2938H87.7995V11.5469H80.3326V9.78762C80.3326 9.30862 80.4646 8.8626 80.7282 8.44957C81.0085 8.03654 81.6348 7.8301 82.6073 7.8301C83.0854 7.8301 83.4892 7.87966 83.8188 7.97877C84.1649 8.06132 84.3958 8.11924 84.5111 8.15222L84.9809 9.73806L87.4533 9.4655L86.9588 6.44249C86.2336 6.0626 85.4837 5.79824 84.7089 5.64957C83.9342 5.5009 83.2337 5.42656 82.6073 5.42656C80.8107 5.42656 79.4508 5.87258 78.5277 6.76461C77.6047 7.65665 77.1431 8.68079 77.1431 9.83718V11.5469H75.7832V13.9752H77.1431V20.2938H75.6596V22.7221H82.187V20.2938H80.3326V13.9752H84.61Z" fill="#f5fcf9"/>
</g>
<defs>
<clipPath id="clip0_33_177">
<rect width="90" height="28" fill="#f5fcf9"/>
</clipPath>
</defs>
</svg>
